<svg xmlns="http://www.w3.org/2000/svg" width="555.6770833333334" height="508.41145833333337" style="background: white;"><line x1="277.8385416666667" y1="25.755208333333336" x2="151.796875" y2="57.265625" stroke="rgb(0 159 227)" stroke-width="5"/><line x1="277.8385416666667" y1="25.755208333333336" x2="403.88020833333337" y2="57.265625" stroke="rgb(0 159 227)" stroke-width="5"/><line x1="403.88020833333337" y1="57.265625" x2="340.859375" y2="88.77604166666667" stroke="rgb(0 159 227)" stroke-width="5"/><line x1="403.88020833333337" y1="57.265625" x2="466.9010416666667" y2="88.77604166666667" stroke="rgb(0 159 227)" stroke-width="5"/><line x1="340.859375" y1="88.77604166666667" x2="309.34895833333337" y2="120.28645833333334" stroke="rgb(0 159 227)" stroke-width="5"/><line x1="340.859375" y1="88.77604166666667" x2="372.3697916666667" y2="120.28645833333334" stroke="rgb(0 159 227)" stroke-width="5"/><line x1="309.34895833333337" y1="120.28645833333334" x2="293.59375" y2="151.796875" stroke="rgb(0 159 227)" stroke-width="5"/><line x1="309.34895833333337" y1="120.28645833333334" x2="325.1041666666667" y2="151.796875" stroke="rgb(0 159 227)" stroke-width="5"/><line x1="293.59375" y1="151.796875" x2="285.71614583333337" y2="183.30729166666669" stroke="rgb(0 159 227)" stroke-width="5"/><line x1="293.59375" y1="151.796875" x2="301.4713541666667" y2="183.30729166666669" stroke="rgb(0 159 227)" stroke-width="5"/><line x1="285.71614583333337" y1="183.30729166666669" x2="281.77734375" y2="214.81770833333334" stroke="rgb(0 159 227)" stroke-width="5"/><line x1="285.71614583333337" y1="183.30729166666669" x2="289.6549479166667" y2="214.81770833333334" stroke="rgb(0 159 227)" stroke-width="5"/><line x1="281.77734375" y1="214.81770833333334" x2="279.80794270833337" y2="246.328125" stroke="rgb(0 159 227)" stroke-width="5"/><line x1="281.77734375" y1="214.81770833333334" x2="283.7467447916667" y2="246.328125" stroke="rgb(0 159 227)" stroke-width="5"/><line x1="466.9010416666667" y1="88.77604166666667" x2="435.390625" y2="120.28645833333334" stroke="rgb(0 159 227)" stroke-width="5"/><line x1="466.9010416666667" y1="88.77604166666667" x2="498.41145833333337" y2="120.28645833333334" stroke="rgb(0 159 227)" stroke-width="5"/><line x1="277.8385416666667" y1="25.755208333333336" x2="151.796875" y2="57.265625" stroke="black"/><line x1="277.8385416666667" y1="25.755208333333336" x2="403.88020833333337" y2="57.265625" stroke="black"/><line x1="403.88020833333337" y1="57.265625" x2="340.859375" y2="88.77604166666667" stroke="black"/><line x1="403.88020833333337" y1="57.265625" x2="466.9010416666667" y2="88.77604166666667" stroke="black"/><line x1="340.859375" y1="88.77604166666667" x2="309.34895833333337" y2="120.28645833333334" stroke="black"/><line x1="340.859375" y1="88.77604166666667" x2="372.3697916666667" y2="120.28645833333334" stroke="black"/><line x1="309.34895833333337" y1="120.28645833333334" x2="293.59375" y2="151.796875" stroke="black"/><line x1="309.34895833333337" y1="120.28645833333334" x2="325.1041666666667" y2="151.796875" stroke="black"/><line x1="293.59375" y1="151.796875" x2="285.71614583333337" y2="183.30729166666669" stroke="black"/><line x1="293.59375" y1="151.796875" x2="301.4713541666667" y2="183.30729166666669" stroke="black"/><line x1="285.71614583333337" y1="183.30729166666669" x2="281.77734375" y2="214.81770833333334" stroke="black"/><line x1="285.71614583333337" y1="183.30729166666669" x2="289.6549479166667" y2="214.81770833333334" stroke="black"/><line x1="281.77734375" y1="214.81770833333334" x2="279.80794270833337" y2="246.328125" stroke="black"/><line x1="281.77734375" y1="214.81770833333334" x2="283.7467447916667" y2="246.328125" stroke="black"/><line x1="466.9010416666667" y1="88.77604166666667" x2="435.390625" y2="120.28645833333334" stroke="black"/><line x1="466.9010416666667" y1="88.77604166666667" x2="498.41145833333337" y2="120.28645833333334" stroke="black"/><circle cx="277.8385416666667" cy="25.755208333333336" r="10" fill="rgb(229 0 125)" stroke="black" stroke-width="2"/><circle cx="151.796875" cy="57.265625" r="10" fill="rgb(229 0 125)" stroke="black" stroke-width="2"/><circle cx="403.88020833333337" cy="57.265625" r="10" fill="rgb(229 0 125)" stroke="black" stroke-width="2"/><circle cx="340.859375" cy="88.77604166666667" r="10" fill="rgb(229 0 125)" stroke="black" stroke-width="2"/><circle cx="309.34895833333337" cy="120.28645833333334" r="10" fill="rgb(229 0 125)" stroke="black" stroke-width="2"/><circle cx="293.59375" cy="151.796875" r="10" fill="rgb(229 0 125)" stroke="black" stroke-width="2"/><circle cx="285.71614583333337" cy="183.30729166666669" r="10" fill="rgb(229 0 125)" stroke="black" stroke-width="2"/><circle cx="281.77734375" cy="214.81770833333334" r="10" fill="rgb(229 0 125)" stroke="black" stroke-width="2"/><circle cx="279.80794270833337" cy="246.328125" r="10" fill="rgb(229 0 125)" stroke="black" stroke-width="2"/><circle cx="283.7467447916667" cy="246.328125" r="10" fill="rgb(229 0 125)" stroke="black" stroke-width="2"/><circle cx="289.6549479166667" cy="214.81770833333334" r="10" fill="rgb(229 0 125)" stroke="black" stroke-width="2"/><circle cx="301.4713541666667" cy="183.30729166666669" r="10" fill="rgb(229 0 125)" stroke="black" stroke-width="2"/><circle cx="325.1041666666667" cy="151.796875" r="10" fill="rgb(229 0 125)" stroke="black" stroke-width="2"/><circle cx="372.3697916666667" cy="120.28645833333334" r="10" fill="rgb(229 0 125)" stroke="black" stroke-width="2"/><circle cx="466.9010416666667" cy="88.77604166666667" r="10" fill="rgb(229 0 125)" stroke="black" stroke-width="2"/><circle cx="435.390625" cy="120.28645833333334" r="10" fill="rgb(229 0 125)" stroke="black" stroke-width="2"/><circle cx="498.41145833333337" cy="120.28645833333334" r="10" fill="rgb(229 0 125)" stroke="black" stroke-width="2"/><line x1="277.8385416666667" y1="482.65625000000006" x2="403.88020833333337" y2="451.14583333333337" stroke="rgb(0 159 227)" stroke-width="5"/><line x1="277.8385416666667" y1="482.65625000000006" x2="151.796875" y2="451.14583333333337" stroke="rgb(0 159 227)" stroke-width="5"/><line x1="151.796875" y1="451.14583333333337" x2="214.81770833333337" y2="419.6354166666667" stroke="rgb(0 159 227)" stroke-width="5"/><line x1="151.796875" y1="451.14583333333337" x2="88.77604166666669" y2="419.6354166666667" stroke="rgb(0 159 227)" stroke-width="5"/><line x1="214.81770833333337" y1="419.6354166666667" x2="246.328125" y2="388.125" stroke="rgb(0 159 227)" stroke-width="5"/><line x1="214.81770833333337" y1="419.6354166666667" x2="183.30729166666669" y2="388.125" stroke="rgb(0 159 227)" stroke-width="5"/><line x1="246.328125" y1="388.125" x2="262.08333333333337" y2="356.61458333333337" stroke="rgb(0 159 227)" stroke-width="5"/><line x1="246.328125" y1="388.125" x2="230.57291666666669" y2="356.61458333333337" stroke="rgb(0 159 227)" stroke-width="5"/><line x1="262.08333333333337" y1="356.61458333333337" x2="269.9609375" y2="325.1041666666667" stroke="rgb(0 159 227)" stroke-width="5"/><line x1="262.08333333333337" y1="356.61458333333337" x2="254.20572916666669" y2="325.1041666666667" stroke="rgb(0 159 227)" stroke-width="5"/><line x1="269.9609375" y1="325.1041666666667" x2="273.89973958333337" y2="293.59375" stroke="rgb(0 159 227)" stroke-width="5"/><line x1="269.9609375" y1="325.1041666666667" x2="266.0221354166667" y2="293.59375" stroke="rgb(0 159 227)" stroke-width="5"/><line x1="273.89973958333337" y1="293.59375" x2="275.869140625" y2="262.08333333333337" stroke="rgb(0 159 227)" stroke-width="5"/><line x1="273.89973958333337" y1="293.59375" x2="271.9303385416667" y2="262.08333333333337" stroke="rgb(0 159 227)" stroke-width="5"/><line x1="88.77604166666669" y1="419.6354166666667" x2="120.28645833333337" y2="388.125" stroke="rgb(0 159 227)" stroke-width="5"/><line x1="88.77604166666669" y1="419.6354166666667" x2="57.265625" y2="388.125" stroke="rgb(0 159 227)" stroke-width="5"/><line x1="277.8385416666667" y1="482.65625000000006" x2="403.88020833333337" y2="451.14583333333337" stroke="black"/><line x1="277.8385416666667" y1="482.65625000000006" x2="151.796875" y2="451.14583333333337" stroke="black"/><line x1="151.796875" y1="451.14583333333337" x2="214.81770833333337" y2="419.6354166666667" stroke="black"/><line x1="151.796875" y1="451.14583333333337" x2="88.77604166666669" y2="419.6354166666667" stroke="black"/><line x1="214.81770833333337" y1="419.6354166666667" x2="246.328125" y2="388.125" stroke="black"/><line x1="214.81770833333337" y1="419.6354166666667" x2="183.30729166666669" y2="388.125" stroke="black"/><line x1="246.328125" y1="388.125" x2="262.08333333333337" y2="356.61458333333337" stroke="black"/><line x1="246.328125" y1="388.125" x2="230.57291666666669" y2="356.61458333333337" stroke="black"/><line x1="262.08333333333337" y1="356.61458333333337" x2="269.9609375" y2="325.1041666666667" stroke="black"/><line x1="262.08333333333337" y1="356.61458333333337" x2="254.20572916666669" y2="325.1041666666667" stroke="black"/><line x1="269.9609375" y1="325.1041666666667" x2="273.89973958333337" y2="293.59375" stroke="black"/><line x1="269.9609375" y1="325.1041666666667" x2="266.0221354166667" y2="293.59375" stroke="black"/><line x1="273.89973958333337" y1="293.59375" x2="275.869140625" y2="262.08333333333337" stroke="black"/><line x1="273.89973958333337" y1="293.59375" x2="271.9303385416667" y2="262.08333333333337" stroke="black"/><line x1="88.77604166666669" y1="419.6354166666667" x2="120.28645833333337" y2="388.125" stroke="black"/><line x1="88.77604166666669" y1="419.6354166666667" x2="57.265625" y2="388.125" stroke="black"/><circle cx="277.8385416666667" cy="482.65625000000006" r="10" fill="rgb(229 0 125)" stroke="black" stroke-width="2"/><circle cx="403.88020833333337" cy="451.14583333333337" r="10" fill="rgb(229 0 125)" stroke="black" stroke-width="2"/><circle cx="151.796875" cy="451.14583333333337" r="10" fill="rgb(229 0 125)" stroke="black" stroke-width="2"/><circle cx="214.81770833333337" cy="419.6354166666667" r="10" fill="rgb(229 0 125)" stroke="black" stroke-width="2"/><circle cx="246.328125" cy="388.125" r="10" fill="rgb(229 0 125)" stroke="black" stroke-width="2"/><circle cx="262.08333333333337" cy="356.61458333333337" r="10" fill="rgb(229 0 125)" stroke="black" stroke-width="2"/><circle cx="269.9609375" cy="325.1041666666667" r="10" fill="rgb(229 0 125)" stroke="black" stroke-width="2"/><circle cx="273.89973958333337" cy="293.59375" r="10" fill="rgb(229 0 125)" stroke="black" stroke-width="2"/><circle cx="275.869140625" cy="262.08333333333337" r="10" fill="rgb(229 0 125)" stroke="black" stroke-width="2"/><circle cx="271.9303385416667" cy="262.08333333333337" r="10" fill="rgb(229 0 125)" stroke="black" stroke-width="2"/><circle cx="266.0221354166667" cy="293.59375" r="10" fill="rgb(229 0 125)" stroke="black" stroke-width="2"/><circle cx="254.20572916666669" cy="325.1041666666667" r="10" fill="rgb(229 0 125)" stroke="black" stroke-width="2"/><circle cx="230.57291666666669" cy="356.61458333333337" r="10" fill="rgb(229 0 125)" stroke="black" stroke-width="2"/><circle cx="183.30729166666669" cy="388.125" r="10" fill="rgb(229 0 125)" stroke="black" stroke-width="2"/><circle cx="88.77604166666669" cy="419.6354166666667" r="10" fill="rgb(229 0 125)" stroke="black" stroke-width="2"/><circle cx="120.28645833333337" cy="388.125" r="10" fill="rgb(229 0 125)" stroke="black" stroke-width="2"/><circle cx="57.265625" cy="388.125" r="10" fill="rgb(229 0 125)" stroke="black" stroke-width="2"/></svg>