<svg xmlns="http://www.w3.org/2000/svg" width="527.3177083333334" height="492.65625" style="background: white;"><line x1="263.6588541666667" y1="41.51041666666667" x2="36.78385416666667" y2="104.53125" stroke="rgb(0 159 227)" stroke-width="5"/><line x1="263.6588541666667" y1="41.51041666666667" x2="87.20052083333334" y2="104.53125" stroke="rgb(0 159 227)" stroke-width="5"/><line x1="263.6588541666667" y1="41.51041666666667" x2="137.6171875" y2="104.53125" stroke="rgb(0 159 227)" stroke-width="5"/><line x1="263.6588541666667" y1="41.51041666666667" x2="188.03385416666669" y2="104.53125" stroke="rgb(0 159 227)" stroke-width="5"/><line x1="263.6588541666667" y1="41.51041666666667" x2="238.45052083333334" y2="104.53125" stroke="rgb(0 159 227)" stroke-width="5"/><line x1="263.6588541666667" y1="41.51041666666667" x2="288.8671875" y2="104.53125" stroke="rgb(0 159 227)" stroke-width="5"/><line x1="263.6588541666667" y1="41.51041666666667" x2="339.2838541666667" y2="104.53125" stroke="rgb(0 159 227)" stroke-width="5"/><line x1="263.6588541666667" y1="41.51041666666667" x2="389.70052083333337" y2="104.53125" stroke="rgb(0 159 227)" stroke-width="5"/><line x1="263.6588541666667" y1="41.51041666666667" x2="440.11718750000006" y2="104.53125" stroke="rgb(0 159 227)" stroke-width="5"/><line x1="263.6588541666667" y1="41.51041666666667" x2="490.5338541666667" y2="104.53125" stroke="rgb(0 159 227)" stroke-width="5"/><line x1="36.78385416666667" y1="104.53125" x2="14.096354166666668" y2="167.55208333333334" stroke="rgb(0 159 227)" stroke-width="5"/><line x1="36.78385416666667" y1="104.53125" x2="19.138020833333336" y2="167.55208333333334" stroke="rgb(0 159 227)" stroke-width="5"/><line x1="36.78385416666667" y1="104.53125" x2="24.1796875" y2="167.55208333333334" stroke="rgb(0 159 227)" stroke-width="5"/><line x1="36.78385416666667" y1="104.53125" x2="29.22135416666667" y2="167.55208333333334" stroke="rgb(0 159 227)" stroke-width="5"/><line x1="36.78385416666667" y1="104.53125" x2="34.263020833333336" y2="167.55208333333334" stroke="rgb(0 159 227)" stroke-width="5"/><line x1="36.78385416666667" y1="104.53125" x2="39.3046875" y2="167.55208333333334" stroke="rgb(0 159 227)" stroke-width="5"/><line x1="36.78385416666667" y1="104.53125" x2="44.34635416666668" y2="167.55208333333334" stroke="rgb(0 159 227)" stroke-width="5"/><line x1="36.78385416666667" y1="104.53125" x2="49.388020833333336" y2="167.55208333333334" stroke="rgb(0 159 227)" stroke-width="5"/><line x1="36.78385416666667" y1="104.53125" x2="54.42968750000001" y2="167.55208333333334" stroke="rgb(0 159 227)" stroke-width="5"/><line x1="36.78385416666667" y1="104.53125" x2="59.47135416666667" y2="167.55208333333334" stroke="rgb(0 159 227)" stroke-width="5"/><line x1="87.20052083333334" y1="104.53125" x2="64.51302083333334" y2="167.55208333333334" stroke="rgb(0 159 227)" stroke-width="5"/><line x1="87.20052083333334" y1="104.53125" x2="69.5546875" y2="167.55208333333334" stroke="rgb(0 159 227)" stroke-width="5"/><line x1="87.20052083333334" y1="104.53125" x2="74.59635416666667" y2="167.55208333333334" stroke="rgb(0 159 227)" stroke-width="5"/><line x1="87.20052083333334" y1="104.53125" x2="79.63802083333334" y2="167.55208333333334" stroke="rgb(0 159 227)" stroke-width="5"/><line x1="87.20052083333334" y1="104.53125" x2="84.6796875" y2="167.55208333333334" stroke="rgb(0 159 227)" stroke-width="5"/><line x1="87.20052083333334" y1="104.53125" x2="89.72135416666667" y2="167.55208333333334" stroke="rgb(0 159 227)" stroke-width="5"/><line x1="87.20052083333334" y1="104.53125" x2="94.76302083333334" y2="167.55208333333334" stroke="rgb(0 159 227)" stroke-width="5"/><line x1="87.20052083333334" y1="104.53125" x2="99.80468750000001" y2="167.55208333333334" stroke="rgb(0 159 227)" stroke-width="5"/><line x1="87.20052083333334" y1="104.53125" x2="104.84635416666669" y2="167.55208333333334" stroke="rgb(0 159 227)" stroke-width="5"/><line x1="87.20052083333334" y1="104.53125" x2="109.88802083333334" y2="167.55208333333334" stroke="rgb(0 159 227)" stroke-width="5"/><line x1="137.6171875" y1="104.53125" x2="114.9296875" y2="167.55208333333334" stroke="rgb(0 159 227)" stroke-width="5"/><line x1="137.6171875" y1="104.53125" x2="119.9713541666667" y2="167.55208333333334" stroke="rgb(0 159 227)" stroke-width="5"/><line x1="137.6171875" y1="104.53125" x2="125.01302083333334" y2="167.55208333333334" stroke="rgb(0 159 227)" stroke-width="5"/><line x1="137.6171875" y1="104.53125" x2="130.0546875" y2="167.55208333333334" stroke="rgb(0 159 227)" stroke-width="5"/><line x1="137.6171875" y1="104.53125" x2="135.09635416666669" y2="167.55208333333334" stroke="rgb(0 159 227)" stroke-width="5"/><line x1="137.6171875" y1="104.53125" x2="140.13802083333334" y2="167.55208333333334" stroke="rgb(0 159 227)" stroke-width="5"/><line x1="137.6171875" y1="104.53125" x2="145.17968750000003" y2="167.55208333333334" stroke="rgb(0 159 227)" stroke-width="5"/><line x1="137.6171875" y1="104.53125" x2="150.22135416666669" y2="167.55208333333334" stroke="rgb(0 159 227)" stroke-width="5"/><line x1="137.6171875" y1="104.53125" x2="155.26302083333334" y2="167.55208333333334" stroke="rgb(0 159 227)" stroke-width="5"/><line x1="137.6171875" y1="104.53125" x2="160.30468750000003" y2="167.55208333333334" stroke="rgb(0 159 227)" stroke-width="5"/><line x1="114.9296875" y1="167.55208333333334" x2="112.68894675925927" y2="230.57291666666669" stroke="rgb(0 159 227)" stroke-width="5"/><line x1="114.9296875" y1="167.55208333333334" x2="113.24913194444446" y2="230.57291666666669" stroke="rgb(0 159 227)" stroke-width="5"/><line x1="114.9296875" y1="167.55208333333334" x2="113.80931712962963" y2="230.57291666666669" stroke="rgb(0 159 227)" stroke-width="5"/><line x1="114.9296875" y1="167.55208333333334" x2="114.36950231481482" y2="230.57291666666669" stroke="rgb(0 159 227)" stroke-width="5"/><line x1="114.9296875" y1="167.55208333333334" x2="114.9296875" y2="230.57291666666669" stroke="rgb(0 159 227)" stroke-width="5"/><line x1="114.9296875" y1="167.55208333333334" x2="115.4898726851852" y2="230.57291666666669" stroke="rgb(0 159 227)" stroke-width="5"/><line x1="114.9296875" y1="167.55208333333334" x2="116.0500578703704" y2="230.57291666666669" stroke="rgb(0 159 227)" stroke-width="5"/><line x1="114.9296875" y1="167.55208333333334" x2="116.61024305555557" y2="230.57291666666669" stroke="rgb(0 159 227)" stroke-width="5"/><line x1="114.9296875" y1="167.55208333333334" x2="117.17042824074076" y2="230.57291666666669" stroke="rgb(0 159 227)" stroke-width="5"/><line x1="119.9713541666667" y1="167.55208333333334" x2="117.73061342592594" y2="230.57291666666669" stroke="rgb(0 159 227)" stroke-width="5"/><line x1="119.9713541666667" y1="167.55208333333334" x2="118.29079861111113" y2="230.57291666666669" stroke="rgb(0 159 227)" stroke-width="5"/><line x1="119.9713541666667" y1="167.55208333333334" x2="118.8509837962963" y2="230.57291666666669" stroke="rgb(0 159 227)" stroke-width="5"/><line x1="119.9713541666667" y1="167.55208333333334" x2="119.4111689814815" y2="230.57291666666669" stroke="rgb(0 159 227)" stroke-width="5"/><line x1="119.9713541666667" y1="167.55208333333334" x2="119.9713541666667" y2="230.57291666666669" stroke="rgb(0 159 227)" stroke-width="5"/><line x1="119.9713541666667" y1="167.55208333333334" x2="120.53153935185188" y2="230.57291666666669" stroke="rgb(0 159 227)" stroke-width="5"/><line x1="119.9713541666667" y1="167.55208333333334" x2="121.09172453703707" y2="230.57291666666669" stroke="rgb(0 159 227)" stroke-width="5"/><line x1="119.9713541666667" y1="167.55208333333334" x2="121.65190972222224" y2="230.57291666666669" stroke="rgb(0 159 227)" stroke-width="5"/><line x1="119.9713541666667" y1="167.55208333333334" x2="122.21209490740743" y2="230.57291666666669" stroke="rgb(0 159 227)" stroke-width="5"/><line x1="150.22135416666669" y1="167.55208333333334" x2="148.01562500000003" y2="230.57291666666669" stroke="rgb(0 159 227)" stroke-width="5"/><line x1="150.22135416666669" y1="167.55208333333334" x2="148.64583333333334" y2="230.57291666666669" stroke="rgb(0 159 227)" stroke-width="5"/><line x1="150.22135416666669" y1="167.55208333333334" x2="149.27604166666669" y2="230.57291666666669" stroke="rgb(0 159 227)" stroke-width="5"/><line x1="150.22135416666669" y1="167.55208333333334" x2="149.90625" y2="230.57291666666669" stroke="rgb(0 159 227)" stroke-width="5"/><line x1="150.22135416666669" y1="167.55208333333334" x2="150.53645833333334" y2="230.57291666666669" stroke="rgb(0 159 227)" stroke-width="5"/><line x1="150.22135416666669" y1="167.55208333333334" x2="151.16666666666666" y2="230.57291666666669" stroke="rgb(0 159 227)" stroke-width="5"/><line x1="150.22135416666669" y1="167.55208333333334" x2="151.796875" y2="230.57291666666669" stroke="rgb(0 159 227)" stroke-width="5"/><line x1="150.22135416666669" y1="167.55208333333334" x2="152.42708333333334" y2="230.57291666666669" stroke="rgb(0 159 227)" stroke-width="5"/><line x1="389.70052083333337" y1="104.53125" x2="367.2931134259259" y2="167.55208333333334" stroke="rgb(0 159 227)" stroke-width="5"/><line x1="389.70052083333337" y1="104.53125" x2="372.89496527777777" y2="167.55208333333334" stroke="rgb(0 159 227)" stroke-width="5"/><line x1="389.70052083333337" y1="104.53125" x2="378.4968171296297" y2="167.55208333333334" stroke="rgb(0 159 227)" stroke-width="5"/><line x1="389.70052083333337" y1="104.53125" x2="384.0986689814815" y2="167.55208333333334" stroke="rgb(0 159 227)" stroke-width="5"/><line x1="389.70052083333337" y1="104.53125" x2="389.70052083333337" y2="167.55208333333334" stroke="rgb(0 159 227)" stroke-width="5"/><line x1="389.70052083333337" y1="104.53125" x2="395.3023726851852" y2="167.55208333333334" stroke="rgb(0 159 227)" stroke-width="5"/><line x1="389.70052083333337" y1="104.53125" x2="400.90422453703707" y2="167.55208333333334" stroke="rgb(0 159 227)" stroke-width="5"/><line x1="389.70052083333337" y1="104.53125" x2="406.50607638888897" y2="167.55208333333334" stroke="rgb(0 159 227)" stroke-width="5"/><line x1="389.70052083333337" y1="104.53125" x2="412.10792824074076" y2="167.55208333333334" stroke="rgb(0 159 227)" stroke-width="5"/><line x1="440.11718750000006" y1="104.53125" x2="418.05989583333337" y2="167.55208333333334" stroke="rgb(0 159 227)" stroke-width="5"/><line x1="440.11718750000006" y1="104.53125" x2="424.3619791666667" y2="167.55208333333334" stroke="rgb(0 159 227)" stroke-width="5"/><line x1="440.11718750000006" y1="104.53125" x2="430.66406250000006" y2="167.55208333333334" stroke="rgb(0 159 227)" stroke-width="5"/><line x1="440.11718750000006" y1="104.53125" x2="436.96614583333337" y2="167.55208333333334" stroke="rgb(0 159 227)" stroke-width="5"/><line x1="440.11718750000006" y1="104.53125" x2="443.2682291666667" y2="167.55208333333334" stroke="rgb(0 159 227)" stroke-width="5"/><line x1="440.11718750000006" y1="104.53125" x2="449.57031250000006" y2="167.55208333333334" stroke="rgb(0 159 227)" stroke-width="5"/><line x1="440.11718750000006" y1="104.53125" x2="455.87239583333337" y2="167.55208333333334" stroke="rgb(0 159 227)" stroke-width="5"/><line x1="440.11718750000006" y1="104.53125" x2="462.1744791666667" y2="167.55208333333334" stroke="rgb(0 159 227)" stroke-width="5"/><line x1="490.5338541666667" y1="104.53125" x2="468.47656250000006" y2="167.55208333333334" stroke="rgb(0 159 227)" stroke-width="5"/><line x1="490.5338541666667" y1="104.53125" x2="474.77864583333337" y2="167.55208333333334" stroke="rgb(0 159 227)" stroke-width="5"/><line x1="490.5338541666667" y1="104.53125" x2="481.0807291666667" y2="167.55208333333334" stroke="rgb(0 159 227)" stroke-width="5"/><line x1="490.5338541666667" y1="104.53125" x2="487.38281250000006" y2="167.55208333333334" stroke="rgb(0 159 227)" stroke-width="5"/><line x1="490.5338541666667" y1="104.53125" x2="493.68489583333337" y2="167.55208333333334" stroke="rgb(0 159 227)" stroke-width="5"/><line x1="490.5338541666667" y1="104.53125" x2="499.9869791666667" y2="167.55208333333334" stroke="rgb(0 159 227)" stroke-width="5"/><line x1="490.5338541666667" y1="104.53125" x2="506.28906250000006" y2="167.55208333333334" stroke="rgb(0 159 227)" stroke-width="5"/><line x1="490.5338541666667" y1="104.53125" x2="512.5911458333334" y2="167.55208333333334" stroke="rgb(0 159 227)" stroke-width="5"/><line x1="263.6588541666667" y1="41.51041666666667" x2="36.78385416666667" y2="104.53125" stroke="black"/><line x1="263.6588541666667" y1="41.51041666666667" x2="87.20052083333334" y2="104.53125" stroke="black"/><line x1="263.6588541666667" y1="41.51041666666667" x2="137.6171875" y2="104.53125" stroke="black"/><line x1="263.6588541666667" y1="41.51041666666667" x2="188.03385416666669" y2="104.53125" stroke="black"/><line x1="263.6588541666667" y1="41.51041666666667" x2="238.45052083333334" y2="104.53125" stroke="black"/><line x1="263.6588541666667" y1="41.51041666666667" x2="288.8671875" y2="104.53125" stroke="black"/><line x1="263.6588541666667" y1="41.51041666666667" x2="339.2838541666667" y2="104.53125" stroke="black"/><line x1="263.6588541666667" y1="41.51041666666667" x2="389.70052083333337" y2="104.53125" stroke="black"/><line x1="263.6588541666667" y1="41.51041666666667" x2="440.11718750000006" y2="104.53125" stroke="black"/><line x1="263.6588541666667" y1="41.51041666666667" x2="490.5338541666667" y2="104.53125" stroke="black"/><line x1="36.78385416666667" y1="104.53125" x2="14.096354166666668" y2="167.55208333333334" stroke="black"/><line x1="36.78385416666667" y1="104.53125" x2="19.138020833333336" y2="167.55208333333334" stroke="black"/><line x1="36.78385416666667" y1="104.53125" x2="24.1796875" y2="167.55208333333334" stroke="black"/><line x1="36.78385416666667" y1="104.53125" x2="29.22135416666667" y2="167.55208333333334" stroke="black"/><line x1="36.78385416666667" y1="104.53125" x2="34.263020833333336" y2="167.55208333333334" stroke="black"/><line x1="36.78385416666667" y1="104.53125" x2="39.3046875" y2="167.55208333333334" stroke="black"/><line x1="36.78385416666667" y1="104.53125" x2="44.34635416666668" y2="167.55208333333334" stroke="black"/><line x1="36.78385416666667" y1="104.53125" x2="49.388020833333336" y2="167.55208333333334" stroke="black"/><line x1="36.78385416666667" y1="104.53125" x2="54.42968750000001" y2="167.55208333333334" stroke="black"/><line x1="36.78385416666667" y1="104.53125" x2="59.47135416666667" y2="167.55208333333334" stroke="black"/><line x1="87.20052083333334" y1="104.53125" x2="64.51302083333334" y2="167.55208333333334" stroke="black"/><line x1="87.20052083333334" y1="104.53125" x2="69.5546875" y2="167.55208333333334" stroke="black"/><line x1="87.20052083333334" y1="104.53125" x2="74.59635416666667" y2="167.55208333333334" stroke="black"/><line x1="87.20052083333334" y1="104.53125" x2="79.63802083333334" y2="167.55208333333334" stroke="black"/><line x1="87.20052083333334" y1="104.53125" x2="84.6796875" y2="167.55208333333334" stroke="black"/><line x1="87.20052083333334" y1="104.53125" x2="89.72135416666667" y2="167.55208333333334" stroke="black"/><line x1="87.20052083333334" y1="104.53125" x2="94.76302083333334" y2="167.55208333333334" stroke="black"/><line x1="87.20052083333334" y1="104.53125" x2="99.80468750000001" y2="167.55208333333334" stroke="black"/><line x1="87.20052083333334" y1="104.53125" x2="104.84635416666669" y2="167.55208333333334" stroke="black"/><line x1="87.20052083333334" y1="104.53125" x2="109.88802083333334" y2="167.55208333333334" stroke="black"/><line x1="137.6171875" y1="104.53125" x2="114.9296875" y2="167.55208333333334" stroke="black"/><line x1="137.6171875" y1="104.53125" x2="119.9713541666667" y2="167.55208333333334" stroke="black"/><line x1="137.6171875" y1="104.53125" x2="125.01302083333334" y2="167.55208333333334" stroke="black"/><line x1="137.6171875" y1="104.53125" x2="130.0546875" y2="167.55208333333334" stroke="black"/><line x1="137.6171875" y1="104.53125" x2="135.09635416666669" y2="167.55208333333334" stroke="black"/><line x1="137.6171875" y1="104.53125" x2="140.13802083333334" y2="167.55208333333334" stroke="black"/><line x1="137.6171875" y1="104.53125" x2="145.17968750000003" y2="167.55208333333334" stroke="black"/><line x1="137.6171875" y1="104.53125" x2="150.22135416666669" y2="167.55208333333334" stroke="black"/><line x1="137.6171875" y1="104.53125" x2="155.26302083333334" y2="167.55208333333334" stroke="black"/><line x1="137.6171875" y1="104.53125" x2="160.30468750000003" y2="167.55208333333334" stroke="black"/><line x1="114.9296875" y1="167.55208333333334" x2="112.68894675925927" y2="230.57291666666669" stroke="black"/><line x1="114.9296875" y1="167.55208333333334" x2="113.24913194444446" y2="230.57291666666669" stroke="black"/><line x1="114.9296875" y1="167.55208333333334" x2="113.80931712962963" y2="230.57291666666669" stroke="black"/><line x1="114.9296875" y1="167.55208333333334" x2="114.36950231481482" y2="230.57291666666669" stroke="black"/><line x1="114.9296875" y1="167.55208333333334" x2="114.9296875" y2="230.57291666666669" stroke="black"/><line x1="114.9296875" y1="167.55208333333334" x2="115.4898726851852" y2="230.57291666666669" stroke="black"/><line x1="114.9296875" y1="167.55208333333334" x2="116.0500578703704" y2="230.57291666666669" stroke="black"/><line x1="114.9296875" y1="167.55208333333334" x2="116.61024305555557" y2="230.57291666666669" stroke="black"/><line x1="114.9296875" y1="167.55208333333334" x2="117.17042824074076" y2="230.57291666666669" stroke="black"/><line x1="119.9713541666667" y1="167.55208333333334" x2="117.73061342592594" y2="230.57291666666669" stroke="black"/><line x1="119.9713541666667" y1="167.55208333333334" x2="118.29079861111113" y2="230.57291666666669" stroke="black"/><line x1="119.9713541666667" y1="167.55208333333334" x2="118.8509837962963" y2="230.57291666666669" stroke="black"/><line x1="119.9713541666667" y1="167.55208333333334" x2="119.4111689814815" y2="230.57291666666669" stroke="black"/><line x1="119.9713541666667" y1="167.55208333333334" x2="119.9713541666667" y2="230.57291666666669" stroke="black"/><line x1="119.9713541666667" y1="167.55208333333334" x2="120.53153935185188" y2="230.57291666666669" stroke="black"/><line x1="119.9713541666667" y1="167.55208333333334" x2="121.09172453703707" y2="230.57291666666669" stroke="black"/><line x1="119.9713541666667" y1="167.55208333333334" x2="121.65190972222224" y2="230.57291666666669" stroke="black"/><line x1="119.9713541666667" y1="167.55208333333334" x2="122.21209490740743" y2="230.57291666666669" stroke="black"/><line x1="150.22135416666669" y1="167.55208333333334" x2="148.01562500000003" y2="230.57291666666669" stroke="black"/><line x1="150.22135416666669" y1="167.55208333333334" x2="148.64583333333334" y2="230.57291666666669" stroke="black"/><line x1="150.22135416666669" y1="167.55208333333334" x2="149.27604166666669" y2="230.57291666666669" stroke="black"/><line x1="150.22135416666669" y1="167.55208333333334" x2="149.90625" y2="230.57291666666669" stroke="black"/><line x1="150.22135416666669" y1="167.55208333333334" x2="150.53645833333334" y2="230.57291666666669" stroke="black"/><line x1="150.22135416666669" y1="167.55208333333334" x2="151.16666666666666" y2="230.57291666666669" stroke="black"/><line x1="150.22135416666669" y1="167.55208333333334" x2="151.796875" y2="230.57291666666669" stroke="black"/><line x1="150.22135416666669" y1="167.55208333333334" x2="152.42708333333334" y2="230.57291666666669" stroke="black"/><line x1="389.70052083333337" y1="104.53125" x2="367.2931134259259" y2="167.55208333333334" stroke="black"/><line x1="389.70052083333337" y1="104.53125" x2="372.89496527777777" y2="167.55208333333334" stroke="black"/><line x1="389.70052083333337" y1="104.53125" x2="378.4968171296297" y2="167.55208333333334" stroke="black"/><line x1="389.70052083333337" y1="104.53125" x2="384.0986689814815" y2="167.55208333333334" stroke="black"/><line x1="389.70052083333337" y1="104.53125" x2="389.70052083333337" y2="167.55208333333334" stroke="black"/><line x1="389.70052083333337" y1="104.53125" x2="395.3023726851852" y2="167.55208333333334" stroke="black"/><line x1="389.70052083333337" y1="104.53125" x2="400.90422453703707" y2="167.55208333333334" stroke="black"/><line x1="389.70052083333337" y1="104.53125" x2="406.50607638888897" y2="167.55208333333334" stroke="black"/><line x1="389.70052083333337" y1="104.53125" x2="412.10792824074076" y2="167.55208333333334" stroke="black"/><line x1="440.11718750000006" y1="104.53125" x2="418.05989583333337" y2="167.55208333333334" stroke="black"/><line x1="440.11718750000006" y1="104.53125" x2="424.3619791666667" y2="167.55208333333334" stroke="black"/><line x1="440.11718750000006" y1="104.53125" x2="430.66406250000006" y2="167.55208333333334" stroke="black"/><line x1="440.11718750000006" y1="104.53125" x2="436.96614583333337" y2="167.55208333333334" stroke="black"/><line x1="440.11718750000006" y1="104.53125" x2="443.2682291666667" y2="167.55208333333334" stroke="black"/><line x1="440.11718750000006" y1="104.53125" x2="449.57031250000006" y2="167.55208333333334" stroke="black"/><line x1="440.11718750000006" y1="104.53125" x2="455.87239583333337" y2="167.55208333333334" stroke="black"/><line x1="440.11718750000006" y1="104.53125" x2="462.1744791666667" y2="167.55208333333334" stroke="black"/><line x1="490.5338541666667" y1="104.53125" x2="468.47656250000006" y2="167.55208333333334" stroke="black"/><line x1="490.5338541666667" y1="104.53125" x2="474.77864583333337" y2="167.55208333333334" stroke="black"/><line x1="490.5338541666667" y1="104.53125" x2="481.0807291666667" y2="167.55208333333334" stroke="black"/><line x1="490.5338541666667" y1="104.53125" x2="487.38281250000006" y2="167.55208333333334" stroke="black"/><line x1="490.5338541666667" y1="104.53125" x2="493.68489583333337" y2="167.55208333333334" stroke="black"/><line x1="490.5338541666667" y1="104.53125" x2="499.9869791666667" y2="167.55208333333334" stroke="black"/><line x1="490.5338541666667" y1="104.53125" x2="506.28906250000006" y2="167.55208333333334" stroke="black"/><line x1="490.5338541666667" y1="104.53125" x2="512.5911458333334" y2="167.55208333333334" stroke="black"/><circle cx="263.6588541666667" cy="41.51041666666667" r="10" fill="rgb(229 0 125)" stroke="black" stroke-width="2"/><circle cx="36.78385416666667" cy="104.53125" r="10" fill="rgb(229 0 125)" stroke="black" stroke-width="2"/><circle cx="14.096354166666668" cy="167.55208333333334" r="10" fill="rgb(229 0 125)" stroke="black" stroke-width="2"/><circle cx="19.138020833333336" cy="167.55208333333334" r="10" fill="rgb(229 0 125)" stroke="black" stroke-width="2"/><circle cx="24.1796875" cy="167.55208333333334" r="10" fill="rgb(229 0 125)" stroke="black" stroke-width="2"/><circle cx="29.22135416666667" cy="167.55208333333334" r="10" fill="rgb(229 0 125)" stroke="black" stroke-width="2"/><circle cx="34.263020833333336" cy="167.55208333333334" r="10" fill="rgb(229 0 125)" stroke="black" stroke-width="2"/><circle cx="39.3046875" cy="167.55208333333334" r="10" fill="rgb(229 0 125)" stroke="black" stroke-width="2"/><circle cx="44.34635416666668" cy="167.55208333333334" r="10" fill="rgb(229 0 125)" stroke="black" stroke-width="2"/><circle cx="49.388020833333336" cy="167.55208333333334" r="10" fill="rgb(229 0 125)" stroke="black" stroke-width="2"/><circle cx="54.42968750000001" cy="167.55208333333334" r="10" fill="rgb(229 0 125)" stroke="black" stroke-width="2"/><circle cx="59.47135416666667" cy="167.55208333333334" r="10" fill="rgb(229 0 125)" stroke="black" stroke-width="2"/><circle cx="87.20052083333334" cy="104.53125" r="10" fill="rgb(229 0 125)" stroke="black" stroke-width="2"/><circle cx="64.51302083333334" cy="167.55208333333334" r="10" fill="rgb(229 0 125)" stroke="black" stroke-width="2"/><circle cx="69.5546875" cy="167.55208333333334" r="10" fill="rgb(229 0 125)" stroke="black" stroke-width="2"/><circle cx="74.59635416666667" cy="167.55208333333334" r="10" fill="rgb(229 0 125)" stroke="black" stroke-width="2"/><circle cx="79.63802083333334" cy="167.55208333333334" r="10" fill="rgb(229 0 125)" stroke="black" stroke-width="2"/><circle cx="84.6796875" cy="167.55208333333334" r="10" fill="rgb(229 0 125)" stroke="black" stroke-width="2"/><circle cx="89.72135416666667" cy="167.55208333333334" r="10" fill="rgb(229 0 125)" stroke="black" stroke-width="2"/><circle cx="94.76302083333334" cy="167.55208333333334" r="10" fill="rgb(229 0 125)" stroke="black" stroke-width="2"/><circle cx="99.80468750000001" cy="167.55208333333334" r="10" fill="rgb(229 0 125)" stroke="black" stroke-width="2"/><circle cx="104.84635416666669" cy="167.55208333333334" r="10" fill="rgb(229 0 125)" stroke="black" stroke-width="2"/><circle cx="109.88802083333334" cy="167.55208333333334" r="10" fill="rgb(229 0 125)" stroke="black" stroke-width="2"/><circle cx="137.6171875" cy="104.53125" r="10" fill="rgb(229 0 125)" stroke="black" stroke-width="2"/><circle cx="114.9296875" cy="167.55208333333334" r="10" fill="rgb(229 0 125)" stroke="black" stroke-width="2"/><circle cx="112.68894675925927" cy="230.57291666666669" r="10" fill="rgb(229 0 125)" stroke="black" stroke-width="2"/><circle cx="113.24913194444446" cy="230.57291666666669" r="10" fill="rgb(229 0 125)" stroke="black" stroke-width="2"/><circle cx="113.80931712962963" cy="230.57291666666669" r="10" fill="rgb(229 0 125)" stroke="black" stroke-width="2"/><circle cx="114.36950231481482" cy="230.57291666666669" r="10" fill="rgb(229 0 125)" stroke="black" stroke-width="2"/><circle cx="114.9296875" cy="230.57291666666669" r="10" fill="rgb(229 0 125)" stroke="black" stroke-width="2"/><circle cx="115.4898726851852" cy="230.57291666666669" r="10" fill="rgb(229 0 125)" stroke="black" stroke-width="2"/><circle cx="116.0500578703704" cy="230.57291666666669" r="10" fill="rgb(229 0 125)" stroke="black" stroke-width="2"/><circle cx="116.61024305555557" cy="230.57291666666669" r="10" fill="rgb(229 0 125)" stroke="black" stroke-width="2"/><circle cx="117.17042824074076" cy="230.57291666666669" r="10" fill="rgb(229 0 125)" stroke="black" stroke-width="2"/><circle cx="119.9713541666667" cy="167.55208333333334" r="10" fill="rgb(229 0 125)" stroke="black" stroke-width="2"/><circle cx="117.73061342592594" cy="230.57291666666669" r="10" fill="rgb(229 0 125)" stroke="black" stroke-width="2"/><circle cx="118.29079861111113" cy="230.57291666666669" r="10" fill="rgb(229 0 125)" stroke="black" stroke-width="2"/><circle cx="118.8509837962963" cy="230.57291666666669" r="10" fill="rgb(229 0 125)" stroke="black" stroke-width="2"/><circle cx="119.4111689814815" cy="230.57291666666669" r="10" fill="rgb(229 0 125)" stroke="black" stroke-width="2"/><circle cx="119.9713541666667" cy="230.57291666666669" r="10" fill="rgb(229 0 125)" stroke="black" stroke-width="2"/><circle cx="120.53153935185188" cy="230.57291666666669" r="10" fill="rgb(229 0 125)" stroke="black" stroke-width="2"/><circle cx="121.09172453703707" cy="230.57291666666669" r="10" fill="rgb(229 0 125)" stroke="black" stroke-width="2"/><circle cx="121.65190972222224" cy="230.57291666666669" r="10" fill="rgb(229 0 125)" stroke="black" stroke-width="2"/><circle cx="122.21209490740743" cy="230.57291666666669" r="10" fill="rgb(229 0 125)" stroke="black" stroke-width="2"/><circle cx="125.01302083333334" cy="167.55208333333334" r="10" fill="rgb(229 0 125)" stroke="black" stroke-width="2"/><circle cx="130.0546875" cy="167.55208333333334" r="10" fill="rgb(229 0 125)" stroke="black" stroke-width="2"/><circle cx="135.09635416666669" cy="167.55208333333334" r="10" fill="rgb(229 0 125)" stroke="black" stroke-width="2"/><circle cx="140.13802083333334" cy="167.55208333333334" r="10" fill="rgb(229 0 125)" stroke="black" stroke-width="2"/><circle cx="145.17968750000003" cy="167.55208333333334" r="10" fill="rgb(229 0 125)" stroke="black" stroke-width="2"/><circle cx="150.22135416666669" cy="167.55208333333334" r="10" fill="rgb(229 0 125)" stroke="black" stroke-width="2"/><circle cx="148.01562500000003" cy="230.57291666666669" r="10" fill="rgb(229 0 125)" stroke="black" stroke-width="2"/><circle cx="148.64583333333334" cy="230.57291666666669" r="10" fill="rgb(229 0 125)" stroke="black" stroke-width="2"/><circle cx="149.27604166666669" cy="230.57291666666669" r="10" fill="rgb(229 0 125)" stroke="black" stroke-width="2"/><circle cx="149.90625" cy="230.57291666666669" r="10" fill="rgb(229 0 125)" stroke="black" stroke-width="2"/><circle cx="150.53645833333334" cy="230.57291666666669" r="10" fill="rgb(229 0 125)" stroke="black" stroke-width="2"/><circle cx="151.16666666666666" cy="230.57291666666669" r="10" fill="rgb(229 0 125)" stroke="black" stroke-width="2"/><circle cx="151.796875" cy="230.57291666666669" r="10" fill="rgb(229 0 125)" stroke="black" stroke-width="2"/><circle cx="152.42708333333334" cy="230.57291666666669" r="10" fill="rgb(229 0 125)" stroke="black" stroke-width="2"/><circle cx="155.26302083333334" cy="167.55208333333334" r="10" fill="rgb(229 0 125)" stroke="black" stroke-width="2"/><circle cx="160.30468750000003" cy="167.55208333333334" r="10" fill="rgb(229 0 125)" stroke="black" stroke-width="2"/><circle cx="188.03385416666669" cy="104.53125" r="10" fill="rgb(229 0 125)" stroke="black" stroke-width="2"/><circle cx="238.45052083333334" cy="104.53125" r="10" fill="rgb(229 0 125)" stroke="black" stroke-width="2"/><circle cx="288.8671875" cy="104.53125" r="10" fill="rgb(229 0 125)" stroke="black" stroke-width="2"/><circle cx="339.2838541666667" cy="104.53125" r="10" fill="rgb(229 0 125)" stroke="black" stroke-width="2"/><circle cx="389.70052083333337" cy="104.53125" r="10" fill="rgb(229 0 125)" stroke="black" stroke-width="2"/><circle cx="367.2931134259259" cy="167.55208333333334" r="10" fill="rgb(229 0 125)" stroke="black" stroke-width="2"/><circle cx="372.89496527777777" cy="167.55208333333334" r="10" fill="rgb(229 0 125)" stroke="black" stroke-width="2"/><circle cx="378.4968171296297" cy="167.55208333333334" r="10" fill="rgb(229 0 125)" stroke="black" stroke-width="2"/><circle cx="384.0986689814815" cy="167.55208333333334" r="10" fill="rgb(229 0 125)" stroke="black" stroke-width="2"/><circle cx="389.70052083333337" cy="167.55208333333334" r="10" fill="rgb(229 0 125)" stroke="black" stroke-width="2"/><circle cx="395.3023726851852" cy="167.55208333333334" r="10" fill="rgb(229 0 125)" stroke="black" stroke-width="2"/><circle cx="400.90422453703707" cy="167.55208333333334" r="10" fill="rgb(229 0 125)" stroke="black" stroke-width="2"/><circle cx="406.50607638888897" cy="167.55208333333334" r="10" fill="rgb(229 0 125)" stroke="black" stroke-width="2"/><circle cx="412.10792824074076" cy="167.55208333333334" r="10" fill="rgb(229 0 125)" stroke="black" stroke-width="2"/><circle cx="440.11718750000006" cy="104.53125" r="10" fill="rgb(229 0 125)" stroke="black" stroke-width="2"/><circle cx="418.05989583333337" cy="167.55208333333334" r="10" fill="rgb(229 0 125)" stroke="black" stroke-width="2"/><circle cx="424.3619791666667" cy="167.55208333333334" r="10" fill="rgb(229 0 125)" stroke="black" stroke-width="2"/><circle cx="430.66406250000006" cy="167.55208333333334" r="10" fill="rgb(229 0 125)" stroke="black" stroke-width="2"/><circle cx="436.96614583333337" cy="167.55208333333334" r="10" fill="rgb(229 0 125)" stroke="black" stroke-width="2"/><circle cx="443.2682291666667" cy="167.55208333333334" r="10" fill="rgb(229 0 125)" stroke="black" stroke-width="2"/><circle cx="449.57031250000006" cy="167.55208333333334" r="10" fill="rgb(229 0 125)" stroke="black" stroke-width="2"/><circle cx="455.87239583333337" cy="167.55208333333334" r="10" fill="rgb(229 0 125)" stroke="black" stroke-width="2"/><circle cx="462.1744791666667" cy="167.55208333333334" r="10" fill="rgb(229 0 125)" stroke="black" stroke-width="2"/><circle cx="490.5338541666667" cy="104.53125" r="10" fill="rgb(229 0 125)" stroke="black" stroke-width="2"/><circle cx="468.47656250000006" cy="167.55208333333334" r="10" fill="rgb(229 0 125)" stroke="black" stroke-width="2"/><circle cx="474.77864583333337" cy="167.55208333333334" r="10" fill="rgb(229 0 125)" stroke="black" stroke-width="2"/><circle cx="481.0807291666667" cy="167.55208333333334" r="10" fill="rgb(229 0 125)" stroke="black" stroke-width="2"/><circle cx="487.38281250000006" cy="167.55208333333334" r="10" fill="rgb(229 0 125)" stroke="black" stroke-width="2"/><circle cx="493.68489583333337" cy="167.55208333333334" r="10" fill="rgb(229 0 125)" stroke="black" stroke-width="2"/><circle cx="499.9869791666667" cy="167.55208333333334" r="10" fill="rgb(229 0 125)" stroke="black" stroke-width="2"/><circle cx="506.28906250000006" cy="167.55208333333334" r="10" fill="rgb(229 0 125)" stroke="black" stroke-width="2"/><circle cx="512.5911458333334" cy="167.55208333333334" r="10" fill="rgb(229 0 125)" stroke="black" stroke-width="2"/><line x1="263.6588541666667" y1="451.1458333333333" x2="490.5338541666667" y2="388.125" stroke="rgb(0 159 227)" stroke-width="5"/><line x1="263.6588541666667" y1="451.1458333333333" x2="440.1171875" y2="388.125" stroke="rgb(0 159 227)" stroke-width="5"/><line x1="263.6588541666667" y1="451.1458333333333" x2="389.70052083333337" y2="388.125" stroke="rgb(0 159 227)" stroke-width="5"/><line x1="263.6588541666667" y1="451.1458333333333" x2="339.2838541666667" y2="388.125" stroke="rgb(0 159 227)" stroke-width="5"/><line x1="263.6588541666667" y1="451.1458333333333" x2="288.8671875" y2="388.125" stroke="rgb(0 159 227)" stroke-width="5"/><line x1="263.6588541666667" y1="451.1458333333333" x2="238.45052083333337" y2="388.125" stroke="rgb(0 159 227)" stroke-width="5"/><line x1="263.6588541666667" y1="451.1458333333333" x2="188.03385416666669" y2="388.125" stroke="rgb(0 159 227)" stroke-width="5"/><line x1="263.6588541666667" y1="451.1458333333333" x2="137.6171875" y2="388.125" stroke="rgb(0 159 227)" stroke-width="5"/><line x1="263.6588541666667" y1="451.1458333333333" x2="87.20052083333331" y2="388.125" stroke="rgb(0 159 227)" stroke-width="5"/><line x1="263.6588541666667" y1="451.1458333333333" x2="36.783854166666686" y2="388.125" stroke="rgb(0 159 227)" stroke-width="5"/><line x1="490.5338541666667" y1="388.125" x2="513.2213541666667" y2="325.10416666666663" stroke="rgb(0 159 227)" stroke-width="5"/><line x1="490.5338541666667" y1="388.125" x2="508.17968750000006" y2="325.10416666666663" stroke="rgb(0 159 227)" stroke-width="5"/><line x1="490.5338541666667" y1="388.125" x2="503.13802083333337" y2="325.10416666666663" stroke="rgb(0 159 227)" stroke-width="5"/><line x1="490.5338541666667" y1="388.125" x2="498.0963541666667" y2="325.10416666666663" stroke="rgb(0 159 227)" stroke-width="5"/><line x1="490.5338541666667" y1="388.125" x2="493.05468750000006" y2="325.10416666666663" stroke="rgb(0 159 227)" stroke-width="5"/><line x1="490.5338541666667" y1="388.125" x2="488.01302083333337" y2="325.10416666666663" stroke="rgb(0 159 227)" stroke-width="5"/><line x1="490.5338541666667" y1="388.125" x2="482.9713541666667" y2="325.10416666666663" stroke="rgb(0 159 227)" stroke-width="5"/><line x1="490.5338541666667" y1="388.125" x2="477.92968750000006" y2="325.10416666666663" stroke="rgb(0 159 227)" stroke-width="5"/><line x1="490.5338541666667" y1="388.125" x2="472.88802083333337" y2="325.10416666666663" stroke="rgb(0 159 227)" stroke-width="5"/><line x1="490.5338541666667" y1="388.125" x2="467.8463541666667" y2="325.10416666666663" stroke="rgb(0 159 227)" stroke-width="5"/><line x1="440.1171875" y1="388.125" x2="462.8046875" y2="325.10416666666663" stroke="rgb(0 159 227)" stroke-width="5"/><line x1="440.1171875" y1="388.125" x2="457.76302083333337" y2="325.10416666666663" stroke="rgb(0 159 227)" stroke-width="5"/><line x1="440.1171875" y1="388.125" x2="452.7213541666667" y2="325.10416666666663" stroke="rgb(0 159 227)" stroke-width="5"/><line x1="440.1171875" y1="388.125" x2="447.6796875" y2="325.10416666666663" stroke="rgb(0 159 227)" stroke-width="5"/><line x1="440.1171875" y1="388.125" x2="442.63802083333337" y2="325.10416666666663" stroke="rgb(0 159 227)" stroke-width="5"/><line x1="440.1171875" y1="388.125" x2="437.5963541666667" y2="325.10416666666663" stroke="rgb(0 159 227)" stroke-width="5"/><line x1="440.1171875" y1="388.125" x2="432.5546875" y2="325.10416666666663" stroke="rgb(0 159 227)" stroke-width="5"/><line x1="440.1171875" y1="388.125" x2="427.51302083333337" y2="325.10416666666663" stroke="rgb(0 159 227)" stroke-width="5"/><line x1="440.1171875" y1="388.125" x2="422.4713541666667" y2="325.10416666666663" stroke="rgb(0 159 227)" stroke-width="5"/><line x1="440.1171875" y1="388.125" x2="417.4296875" y2="325.10416666666663" stroke="rgb(0 159 227)" stroke-width="5"/><line x1="389.70052083333337" y1="388.125" x2="412.38802083333337" y2="325.10416666666663" stroke="rgb(0 159 227)" stroke-width="5"/><line x1="389.70052083333337" y1="388.125" x2="407.3463541666667" y2="325.10416666666663" stroke="rgb(0 159 227)" stroke-width="5"/><line x1="389.70052083333337" y1="388.125" x2="402.3046875" y2="325.10416666666663" stroke="rgb(0 159 227)" stroke-width="5"/><line x1="389.70052083333337" y1="388.125" x2="397.26302083333337" y2="325.10416666666663" stroke="rgb(0 159 227)" stroke-width="5"/><line x1="389.70052083333337" y1="388.125" x2="392.2213541666667" y2="325.10416666666663" stroke="rgb(0 159 227)" stroke-width="5"/><line x1="389.70052083333337" y1="388.125" x2="387.1796875" y2="325.10416666666663" stroke="rgb(0 159 227)" stroke-width="5"/><line x1="389.70052083333337" y1="388.125" x2="382.13802083333337" y2="325.10416666666663" stroke="rgb(0 159 227)" stroke-width="5"/><line x1="389.70052083333337" y1="388.125" x2="377.0963541666667" y2="325.10416666666663" stroke="rgb(0 159 227)" stroke-width="5"/><line x1="389.70052083333337" y1="388.125" x2="372.0546875" y2="325.10416666666663" stroke="rgb(0 159 227)" stroke-width="5"/><line x1="389.70052083333337" y1="388.125" x2="367.01302083333337" y2="325.10416666666663" stroke="rgb(0 159 227)" stroke-width="5"/><line x1="412.38802083333337" y1="325.10416666666663" x2="414.62876157407413" y2="262.0833333333333" stroke="rgb(0 159 227)" stroke-width="5"/><line x1="412.38802083333337" y1="325.10416666666663" x2="414.0685763888889" y2="262.0833333333333" stroke="rgb(0 159 227)" stroke-width="5"/><line x1="412.38802083333337" y1="325.10416666666663" x2="413.50839120370375" y2="262.0833333333333" stroke="rgb(0 159 227)" stroke-width="5"/><line x1="412.38802083333337" y1="325.10416666666663" x2="412.94820601851853" y2="262.0833333333333" stroke="rgb(0 159 227)" stroke-width="5"/><line x1="412.38802083333337" y1="325.10416666666663" x2="412.38802083333337" y2="262.0833333333333" stroke="rgb(0 159 227)" stroke-width="5"/><line x1="412.38802083333337" y1="325.10416666666663" x2="411.82783564814815" y2="262.0833333333333" stroke="rgb(0 159 227)" stroke-width="5"/><line x1="412.38802083333337" y1="325.10416666666663" x2="411.267650462963" y2="262.0833333333333" stroke="rgb(0 159 227)" stroke-width="5"/><line x1="412.38802083333337" y1="325.10416666666663" x2="410.7074652777778" y2="262.0833333333333" stroke="rgb(0 159 227)" stroke-width="5"/><line x1="412.38802083333337" y1="325.10416666666663" x2="410.1472800925926" y2="262.0833333333333" stroke="rgb(0 159 227)" stroke-width="5"/><line x1="407.3463541666667" y1="325.10416666666663" x2="409.58709490740745" y2="262.0833333333333" stroke="rgb(0 159 227)" stroke-width="5"/><line x1="407.3463541666667" y1="325.10416666666663" x2="409.02690972222223" y2="262.0833333333333" stroke="rgb(0 159 227)" stroke-width="5"/><line x1="407.3463541666667" y1="325.10416666666663" x2="408.46672453703707" y2="262.0833333333333" stroke="rgb(0 159 227)" stroke-width="5"/><line x1="407.3463541666667" y1="325.10416666666663" x2="407.90653935185185" y2="262.0833333333333" stroke="rgb(0 159 227)" stroke-width="5"/><line x1="407.3463541666667" y1="325.10416666666663" x2="407.3463541666667" y2="262.0833333333333" stroke="rgb(0 159 227)" stroke-width="5"/><line x1="407.3463541666667" y1="325.10416666666663" x2="406.7861689814815" y2="262.0833333333333" stroke="rgb(0 159 227)" stroke-width="5"/><line x1="407.3463541666667" y1="325.10416666666663" x2="406.2259837962963" y2="262.0833333333333" stroke="rgb(0 159 227)" stroke-width="5"/><line x1="407.3463541666667" y1="325.10416666666663" x2="405.66579861111114" y2="262.0833333333333" stroke="rgb(0 159 227)" stroke-width="5"/><line x1="407.3463541666667" y1="325.10416666666663" x2="405.1056134259259" y2="262.0833333333333" stroke="rgb(0 159 227)" stroke-width="5"/><line x1="377.0963541666667" y1="325.10416666666663" x2="379.30208333333337" y2="262.0833333333333" stroke="rgb(0 159 227)" stroke-width="5"/><line x1="377.0963541666667" y1="325.10416666666663" x2="378.671875" y2="262.0833333333333" stroke="rgb(0 159 227)" stroke-width="5"/><line x1="377.0963541666667" y1="325.10416666666663" x2="378.0416666666667" y2="262.0833333333333" stroke="rgb(0 159 227)" stroke-width="5"/><line x1="377.0963541666667" y1="325.10416666666663" x2="377.41145833333337" y2="262.0833333333333" stroke="rgb(0 159 227)" stroke-width="5"/><line x1="377.0963541666667" y1="325.10416666666663" x2="376.78125" y2="262.0833333333333" stroke="rgb(0 159 227)" stroke-width="5"/><line x1="377.0963541666667" y1="325.10416666666663" x2="376.15104166666674" y2="262.0833333333333" stroke="rgb(0 159 227)" stroke-width="5"/><line x1="377.0963541666667" y1="325.10416666666663" x2="375.52083333333337" y2="262.0833333333333" stroke="rgb(0 159 227)" stroke-width="5"/><line x1="377.0963541666667" y1="325.10416666666663" x2="374.890625" y2="262.0833333333333" stroke="rgb(0 159 227)" stroke-width="5"/><line x1="137.6171875" y1="388.125" x2="160.02459490740745" y2="325.10416666666663" stroke="rgb(0 159 227)" stroke-width="5"/><line x1="137.6171875" y1="388.125" x2="154.4227430555556" y2="325.10416666666663" stroke="rgb(0 159 227)" stroke-width="5"/><line x1="137.6171875" y1="388.125" x2="148.8208912037037" y2="325.10416666666663" stroke="rgb(0 159 227)" stroke-width="5"/><line x1="137.6171875" y1="388.125" x2="143.21903935185185" y2="325.10416666666663" stroke="rgb(0 159 227)" stroke-width="5"/><line x1="137.6171875" y1="388.125" x2="137.6171875" y2="325.10416666666663" stroke="rgb(0 159 227)" stroke-width="5"/><line x1="137.6171875" y1="388.125" x2="132.01533564814815" y2="325.10416666666663" stroke="rgb(0 159 227)" stroke-width="5"/><line x1="137.6171875" y1="388.125" x2="126.4134837962963" y2="325.10416666666663" stroke="rgb(0 159 227)" stroke-width="5"/><line x1="137.6171875" y1="388.125" x2="120.8116319444444" y2="325.10416666666663" stroke="rgb(0 159 227)" stroke-width="5"/><line x1="137.6171875" y1="388.125" x2="115.20978009259261" y2="325.10416666666663" stroke="rgb(0 159 227)" stroke-width="5"/><line x1="87.20052083333331" y1="388.125" x2="109.2578125" y2="325.10416666666663" stroke="rgb(0 159 227)" stroke-width="5"/><line x1="87.20052083333331" y1="388.125" x2="102.95572916666669" y2="325.10416666666663" stroke="rgb(0 159 227)" stroke-width="5"/><line x1="87.20052083333331" y1="388.125" x2="96.65364583333331" y2="325.10416666666663" stroke="rgb(0 159 227)" stroke-width="5"/><line x1="87.20052083333331" y1="388.125" x2="90.3515625" y2="325.10416666666663" stroke="rgb(0 159 227)" stroke-width="5"/><line x1="87.20052083333331" y1="388.125" x2="84.04947916666669" y2="325.10416666666663" stroke="rgb(0 159 227)" stroke-width="5"/><line x1="87.20052083333331" y1="388.125" x2="77.74739583333331" y2="325.10416666666663" stroke="rgb(0 159 227)" stroke-width="5"/><line x1="87.20052083333331" y1="388.125" x2="71.4453125" y2="325.10416666666663" stroke="rgb(0 159 227)" stroke-width="5"/><line x1="87.20052083333331" y1="388.125" x2="65.14322916666669" y2="325.10416666666663" stroke="rgb(0 159 227)" stroke-width="5"/><line x1="36.783854166666686" y1="388.125" x2="58.841145833333314" y2="325.10416666666663" stroke="rgb(0 159 227)" stroke-width="5"/><line x1="36.783854166666686" y1="388.125" x2="52.5390625" y2="325.10416666666663" stroke="rgb(0 159 227)" stroke-width="5"/><line x1="36.783854166666686" y1="388.125" x2="46.236979166666686" y2="325.10416666666663" stroke="rgb(0 159 227)" stroke-width="5"/><line x1="36.783854166666686" y1="388.125" x2="39.934895833333314" y2="325.10416666666663" stroke="rgb(0 159 227)" stroke-width="5"/><line x1="36.783854166666686" y1="388.125" x2="33.6328125" y2="325.10416666666663" stroke="rgb(0 159 227)" stroke-width="5"/><line x1="36.783854166666686" y1="388.125" x2="27.330729166666686" y2="325.10416666666663" stroke="rgb(0 159 227)" stroke-width="5"/><line x1="36.783854166666686" y1="388.125" x2="21.028645833333314" y2="325.10416666666663" stroke="rgb(0 159 227)" stroke-width="5"/><line x1="36.783854166666686" y1="388.125" x2="14.7265625" y2="325.10416666666663" stroke="rgb(0 159 227)" stroke-width="5"/><line x1="263.6588541666667" y1="451.1458333333333" x2="490.5338541666667" y2="388.125" stroke="black"/><line x1="263.6588541666667" y1="451.1458333333333" x2="440.1171875" y2="388.125" stroke="black"/><line x1="263.6588541666667" y1="451.1458333333333" x2="389.70052083333337" y2="388.125" stroke="black"/><line x1="263.6588541666667" y1="451.1458333333333" x2="339.2838541666667" y2="388.125" stroke="black"/><line x1="263.6588541666667" y1="451.1458333333333" x2="288.8671875" y2="388.125" stroke="black"/><line x1="263.6588541666667" y1="451.1458333333333" x2="238.45052083333337" y2="388.125" stroke="black"/><line x1="263.6588541666667" y1="451.1458333333333" x2="188.03385416666669" y2="388.125" stroke="black"/><line x1="263.6588541666667" y1="451.1458333333333" x2="137.6171875" y2="388.125" stroke="black"/><line x1="263.6588541666667" y1="451.1458333333333" x2="87.20052083333331" y2="388.125" stroke="black"/><line x1="263.6588541666667" y1="451.1458333333333" x2="36.783854166666686" y2="388.125" stroke="black"/><line x1="490.5338541666667" y1="388.125" x2="513.2213541666667" y2="325.10416666666663" stroke="black"/><line x1="490.5338541666667" y1="388.125" x2="508.17968750000006" y2="325.10416666666663" stroke="black"/><line x1="490.5338541666667" y1="388.125" x2="503.13802083333337" y2="325.10416666666663" stroke="black"/><line x1="490.5338541666667" y1="388.125" x2="498.0963541666667" y2="325.10416666666663" stroke="black"/><line x1="490.5338541666667" y1="388.125" x2="493.05468750000006" y2="325.10416666666663" stroke="black"/><line x1="490.5338541666667" y1="388.125" x2="488.01302083333337" y2="325.10416666666663" stroke="black"/><line x1="490.5338541666667" y1="388.125" x2="482.9713541666667" y2="325.10416666666663" stroke="black"/><line x1="490.5338541666667" y1="388.125" x2="477.92968750000006" y2="325.10416666666663" stroke="black"/><line x1="490.5338541666667" y1="388.125" x2="472.88802083333337" y2="325.10416666666663" stroke="black"/><line x1="490.5338541666667" y1="388.125" x2="467.8463541666667" y2="325.10416666666663" stroke="black"/><line x1="440.1171875" y1="388.125" x2="462.8046875" y2="325.10416666666663" stroke="black"/><line x1="440.1171875" y1="388.125" x2="457.76302083333337" y2="325.10416666666663" stroke="black"/><line x1="440.1171875" y1="388.125" x2="452.7213541666667" y2="325.10416666666663" stroke="black"/><line x1="440.1171875" y1="388.125" x2="447.6796875" y2="325.10416666666663" stroke="black"/><line x1="440.1171875" y1="388.125" x2="442.63802083333337" y2="325.10416666666663" stroke="black"/><line x1="440.1171875" y1="388.125" x2="437.5963541666667" y2="325.10416666666663" stroke="black"/><line x1="440.1171875" y1="388.125" x2="432.5546875" y2="325.10416666666663" stroke="black"/><line x1="440.1171875" y1="388.125" x2="427.51302083333337" y2="325.10416666666663" stroke="black"/><line x1="440.1171875" y1="388.125" x2="422.4713541666667" y2="325.10416666666663" stroke="black"/><line x1="440.1171875" y1="388.125" x2="417.4296875" y2="325.10416666666663" stroke="black"/><line x1="389.70052083333337" y1="388.125" x2="412.38802083333337" y2="325.10416666666663" stroke="black"/><line x1="389.70052083333337" y1="388.125" x2="407.3463541666667" y2="325.10416666666663" stroke="black"/><line x1="389.70052083333337" y1="388.125" x2="402.3046875" y2="325.10416666666663" stroke="black"/><line x1="389.70052083333337" y1="388.125" x2="397.26302083333337" y2="325.10416666666663" stroke="black"/><line x1="389.70052083333337" y1="388.125" x2="392.2213541666667" y2="325.10416666666663" stroke="black"/><line x1="389.70052083333337" y1="388.125" x2="387.1796875" y2="325.10416666666663" stroke="black"/><line x1="389.70052083333337" y1="388.125" x2="382.13802083333337" y2="325.10416666666663" stroke="black"/><line x1="389.70052083333337" y1="388.125" x2="377.0963541666667" y2="325.10416666666663" stroke="black"/><line x1="389.70052083333337" y1="388.125" x2="372.0546875" y2="325.10416666666663" stroke="black"/><line x1="389.70052083333337" y1="388.125" x2="367.01302083333337" y2="325.10416666666663" stroke="black"/><line x1="412.38802083333337" y1="325.10416666666663" x2="414.62876157407413" y2="262.0833333333333" stroke="black"/><line x1="412.38802083333337" y1="325.10416666666663" x2="414.0685763888889" y2="262.0833333333333" stroke="black"/><line x1="412.38802083333337" y1="325.10416666666663" x2="413.50839120370375" y2="262.0833333333333" stroke="black"/><line x1="412.38802083333337" y1="325.10416666666663" x2="412.94820601851853" y2="262.0833333333333" stroke="black"/><line x1="412.38802083333337" y1="325.10416666666663" x2="412.38802083333337" y2="262.0833333333333" stroke="black"/><line x1="412.38802083333337" y1="325.10416666666663" x2="411.82783564814815" y2="262.0833333333333" stroke="black"/><line x1="412.38802083333337" y1="325.10416666666663" x2="411.267650462963" y2="262.0833333333333" stroke="black"/><line x1="412.38802083333337" y1="325.10416666666663" x2="410.7074652777778" y2="262.0833333333333" stroke="black"/><line x1="412.38802083333337" y1="325.10416666666663" x2="410.1472800925926" y2="262.0833333333333" stroke="black"/><line x1="407.3463541666667" y1="325.10416666666663" x2="409.58709490740745" y2="262.0833333333333" stroke="black"/><line x1="407.3463541666667" y1="325.10416666666663" x2="409.02690972222223" y2="262.0833333333333" stroke="black"/><line x1="407.3463541666667" y1="325.10416666666663" x2="408.46672453703707" y2="262.0833333333333" stroke="black"/><line x1="407.3463541666667" y1="325.10416666666663" x2="407.90653935185185" y2="262.0833333333333" stroke="black"/><line x1="407.3463541666667" y1="325.10416666666663" x2="407.3463541666667" y2="262.0833333333333" stroke="black"/><line x1="407.3463541666667" y1="325.10416666666663" x2="406.7861689814815" y2="262.0833333333333" stroke="black"/><line x1="407.3463541666667" y1="325.10416666666663" x2="406.2259837962963" y2="262.0833333333333" stroke="black"/><line x1="407.3463541666667" y1="325.10416666666663" x2="405.66579861111114" y2="262.0833333333333" stroke="black"/><line x1="407.3463541666667" y1="325.10416666666663" x2="405.1056134259259" y2="262.0833333333333" stroke="black"/><line x1="377.0963541666667" y1="325.10416666666663" x2="379.30208333333337" y2="262.0833333333333" stroke="black"/><line x1="377.0963541666667" y1="325.10416666666663" x2="378.671875" y2="262.0833333333333" stroke="black"/><line x1="377.0963541666667" y1="325.10416666666663" x2="378.0416666666667" y2="262.0833333333333" stroke="black"/><line x1="377.0963541666667" y1="325.10416666666663" x2="377.41145833333337" y2="262.0833333333333" stroke="black"/><line x1="377.0963541666667" y1="325.10416666666663" x2="376.78125" y2="262.0833333333333" stroke="black"/><line x1="377.0963541666667" y1="325.10416666666663" x2="376.15104166666674" y2="262.0833333333333" stroke="black"/><line x1="377.0963541666667" y1="325.10416666666663" x2="375.52083333333337" y2="262.0833333333333" stroke="black"/><line x1="377.0963541666667" y1="325.10416666666663" x2="374.890625" y2="262.0833333333333" stroke="black"/><line x1="137.6171875" y1="388.125" x2="160.02459490740745" y2="325.10416666666663" stroke="black"/><line x1="137.6171875" y1="388.125" x2="154.4227430555556" y2="325.10416666666663" stroke="black"/><line x1="137.6171875" y1="388.125" x2="148.8208912037037" y2="325.10416666666663" stroke="black"/><line x1="137.6171875" y1="388.125" x2="143.21903935185185" y2="325.10416666666663" stroke="black"/><line x1="137.6171875" y1="388.125" x2="137.6171875" y2="325.10416666666663" stroke="black"/><line x1="137.6171875" y1="388.125" x2="132.01533564814815" y2="325.10416666666663" stroke="black"/><line x1="137.6171875" y1="388.125" x2="126.4134837962963" y2="325.10416666666663" stroke="black"/><line x1="137.6171875" y1="388.125" x2="120.8116319444444" y2="325.10416666666663" stroke="black"/><line x1="137.6171875" y1="388.125" x2="115.20978009259261" y2="325.10416666666663" stroke="black"/><line x1="87.20052083333331" y1="388.125" x2="109.2578125" y2="325.10416666666663" stroke="black"/><line x1="87.20052083333331" y1="388.125" x2="102.95572916666669" y2="325.10416666666663" stroke="black"/><line x1="87.20052083333331" y1="388.125" x2="96.65364583333331" y2="325.10416666666663" stroke="black"/><line x1="87.20052083333331" y1="388.125" x2="90.3515625" y2="325.10416666666663" stroke="black"/><line x1="87.20052083333331" y1="388.125" x2="84.04947916666669" y2="325.10416666666663" stroke="black"/><line x1="87.20052083333331" y1="388.125" x2="77.74739583333331" y2="325.10416666666663" stroke="black"/><line x1="87.20052083333331" y1="388.125" x2="71.4453125" y2="325.10416666666663" stroke="black"/><line x1="87.20052083333331" y1="388.125" x2="65.14322916666669" y2="325.10416666666663" stroke="black"/><line x1="36.783854166666686" y1="388.125" x2="58.841145833333314" y2="325.10416666666663" stroke="black"/><line x1="36.783854166666686" y1="388.125" x2="52.5390625" y2="325.10416666666663" stroke="black"/><line x1="36.783854166666686" y1="388.125" x2="46.236979166666686" y2="325.10416666666663" stroke="black"/><line x1="36.783854166666686" y1="388.125" x2="39.934895833333314" y2="325.10416666666663" stroke="black"/><line x1="36.783854166666686" y1="388.125" x2="33.6328125" y2="325.10416666666663" stroke="black"/><line x1="36.783854166666686" y1="388.125" x2="27.330729166666686" y2="325.10416666666663" stroke="black"/><line x1="36.783854166666686" y1="388.125" x2="21.028645833333314" y2="325.10416666666663" stroke="black"/><line x1="36.783854166666686" y1="388.125" x2="14.7265625" y2="325.10416666666663" stroke="black"/><circle cx="263.6588541666667" cy="451.1458333333333" r="10" fill="rgb(229 0 125)" stroke="black" stroke-width="2"/><circle cx="490.5338541666667" cy="388.125" r="10" fill="rgb(229 0 125)" stroke="black" stroke-width="2"/><circle cx="513.2213541666667" cy="325.10416666666663" r="10" fill="rgb(229 0 125)" stroke="black" stroke-width="2"/><circle cx="508.17968750000006" cy="325.10416666666663" r="10" fill="rgb(229 0 125)" stroke="black" stroke-width="2"/><circle cx="503.13802083333337" cy="325.10416666666663" r="10" fill="rgb(229 0 125)" stroke="black" stroke-width="2"/><circle cx="498.0963541666667" cy="325.10416666666663" r="10" fill="rgb(229 0 125)" stroke="black" stroke-width="2"/><circle cx="493.05468750000006" cy="325.10416666666663" r="10" fill="rgb(229 0 125)" stroke="black" stroke-width="2"/><circle cx="488.01302083333337" cy="325.10416666666663" r="10" fill="rgb(229 0 125)" stroke="black" stroke-width="2"/><circle cx="482.9713541666667" cy="325.10416666666663" r="10" fill="rgb(229 0 125)" stroke="black" stroke-width="2"/><circle cx="477.92968750000006" cy="325.10416666666663" r="10" fill="rgb(229 0 125)" stroke="black" stroke-width="2"/><circle cx="472.88802083333337" cy="325.10416666666663" r="10" fill="rgb(229 0 125)" stroke="black" stroke-width="2"/><circle cx="467.8463541666667" cy="325.10416666666663" r="10" fill="rgb(229 0 125)" stroke="black" stroke-width="2"/><circle cx="440.1171875" cy="388.125" r="10" fill="rgb(229 0 125)" stroke="black" stroke-width="2"/><circle cx="462.8046875" cy="325.10416666666663" r="10" fill="rgb(229 0 125)" stroke="black" stroke-width="2"/><circle cx="457.76302083333337" cy="325.10416666666663" r="10" fill="rgb(229 0 125)" stroke="black" stroke-width="2"/><circle cx="452.7213541666667" cy="325.10416666666663" r="10" fill="rgb(229 0 125)" stroke="black" stroke-width="2"/><circle cx="447.6796875" cy="325.10416666666663" r="10" fill="rgb(229 0 125)" stroke="black" stroke-width="2"/><circle cx="442.63802083333337" cy="325.10416666666663" r="10" fill="rgb(229 0 125)" stroke="black" stroke-width="2"/><circle cx="437.5963541666667" cy="325.10416666666663" r="10" fill="rgb(229 0 125)" stroke="black" stroke-width="2"/><circle cx="432.5546875" cy="325.10416666666663" r="10" fill="rgb(229 0 125)" stroke="black" stroke-width="2"/><circle cx="427.51302083333337" cy="325.10416666666663" r="10" fill="rgb(229 0 125)" stroke="black" stroke-width="2"/><circle cx="422.4713541666667" cy="325.10416666666663" r="10" fill="rgb(229 0 125)" stroke="black" stroke-width="2"/><circle cx="417.4296875" cy="325.10416666666663" r="10" fill="rgb(229 0 125)" stroke="black" stroke-width="2"/><circle cx="389.70052083333337" cy="388.125" r="10" fill="rgb(229 0 125)" stroke="black" stroke-width="2"/><circle cx="412.38802083333337" cy="325.10416666666663" r="10" fill="rgb(229 0 125)" stroke="black" stroke-width="2"/><circle cx="414.62876157407413" cy="262.0833333333333" r="10" fill="rgb(229 0 125)" stroke="black" stroke-width="2"/><circle cx="414.0685763888889" cy="262.0833333333333" r="10" fill="rgb(229 0 125)" stroke="black" stroke-width="2"/><circle cx="413.50839120370375" cy="262.0833333333333" r="10" fill="rgb(229 0 125)" stroke="black" stroke-width="2"/><circle cx="412.94820601851853" cy="262.0833333333333" r="10" fill="rgb(229 0 125)" stroke="black" stroke-width="2"/><circle cx="412.38802083333337" cy="262.0833333333333" r="10" fill="rgb(229 0 125)" stroke="black" stroke-width="2"/><circle cx="411.82783564814815" cy="262.0833333333333" r="10" fill="rgb(229 0 125)" stroke="black" stroke-width="2"/><circle cx="411.267650462963" cy="262.0833333333333" r="10" fill="rgb(229 0 125)" stroke="black" stroke-width="2"/><circle cx="410.7074652777778" cy="262.0833333333333" r="10" fill="rgb(229 0 125)" stroke="black" stroke-width="2"/><circle cx="410.1472800925926" cy="262.0833333333333" r="10" fill="rgb(229 0 125)" stroke="black" stroke-width="2"/><circle cx="407.3463541666667" cy="325.10416666666663" r="10" fill="rgb(229 0 125)" stroke="black" stroke-width="2"/><circle cx="409.58709490740745" cy="262.0833333333333" r="10" fill="rgb(229 0 125)" stroke="black" stroke-width="2"/><circle cx="409.02690972222223" cy="262.0833333333333" r="10" fill="rgb(229 0 125)" stroke="black" stroke-width="2"/><circle cx="408.46672453703707" cy="262.0833333333333" r="10" fill="rgb(229 0 125)" stroke="black" stroke-width="2"/><circle cx="407.90653935185185" cy="262.0833333333333" r="10" fill="rgb(229 0 125)" stroke="black" stroke-width="2"/><circle cx="407.3463541666667" cy="262.0833333333333" r="10" fill="rgb(229 0 125)" stroke="black" stroke-width="2"/><circle cx="406.7861689814815" cy="262.0833333333333" r="10" fill="rgb(229 0 125)" stroke="black" stroke-width="2"/><circle cx="406.2259837962963" cy="262.0833333333333" r="10" fill="rgb(229 0 125)" stroke="black" stroke-width="2"/><circle cx="405.66579861111114" cy="262.0833333333333" r="10" fill="rgb(229 0 125)" stroke="black" stroke-width="2"/><circle cx="405.1056134259259" cy="262.0833333333333" r="10" fill="rgb(229 0 125)" stroke="black" stroke-width="2"/><circle cx="402.3046875" cy="325.10416666666663" r="10" fill="rgb(229 0 125)" stroke="black" stroke-width="2"/><circle cx="397.26302083333337" cy="325.10416666666663" r="10" fill="rgb(229 0 125)" stroke="black" stroke-width="2"/><circle cx="392.2213541666667" cy="325.10416666666663" r="10" fill="rgb(229 0 125)" stroke="black" stroke-width="2"/><circle cx="387.1796875" cy="325.10416666666663" r="10" fill="rgb(229 0 125)" stroke="black" stroke-width="2"/><circle cx="382.13802083333337" cy="325.10416666666663" r="10" fill="rgb(229 0 125)" stroke="black" stroke-width="2"/><circle cx="377.0963541666667" cy="325.10416666666663" r="10" fill="rgb(229 0 125)" stroke="black" stroke-width="2"/><circle cx="379.30208333333337" cy="262.0833333333333" r="10" fill="rgb(229 0 125)" stroke="black" stroke-width="2"/><circle cx="378.671875" cy="262.0833333333333" r="10" fill="rgb(229 0 125)" stroke="black" stroke-width="2"/><circle cx="378.0416666666667" cy="262.0833333333333" r="10" fill="rgb(229 0 125)" stroke="black" stroke-width="2"/><circle cx="377.41145833333337" cy="262.0833333333333" r="10" fill="rgb(229 0 125)" stroke="black" stroke-width="2"/><circle cx="376.78125" cy="262.0833333333333" r="10" fill="rgb(229 0 125)" stroke="black" stroke-width="2"/><circle cx="376.15104166666674" cy="262.0833333333333" r="10" fill="rgb(229 0 125)" stroke="black" stroke-width="2"/><circle cx="375.52083333333337" cy="262.0833333333333" r="10" fill="rgb(229 0 125)" stroke="black" stroke-width="2"/><circle cx="374.890625" cy="262.0833333333333" r="10" fill="rgb(229 0 125)" stroke="black" stroke-width="2"/><circle cx="372.0546875" cy="325.10416666666663" r="10" fill="rgb(229 0 125)" stroke="black" stroke-width="2"/><circle cx="367.01302083333337" cy="325.10416666666663" r="10" fill="rgb(229 0 125)" stroke="black" stroke-width="2"/><circle cx="339.2838541666667" cy="388.125" r="10" fill="rgb(229 0 125)" stroke="black" stroke-width="2"/><circle cx="288.8671875" cy="388.125" r="10" fill="rgb(229 0 125)" stroke="black" stroke-width="2"/><circle cx="238.45052083333337" cy="388.125" r="10" fill="rgb(229 0 125)" stroke="black" stroke-width="2"/><circle cx="188.03385416666669" cy="388.125" r="10" fill="rgb(229 0 125)" stroke="black" stroke-width="2"/><circle cx="137.6171875" cy="388.125" r="10" fill="rgb(229 0 125)" stroke="black" stroke-width="2"/><circle cx="160.02459490740745" cy="325.10416666666663" r="10" fill="rgb(229 0 125)" stroke="black" stroke-width="2"/><circle cx="154.4227430555556" cy="325.10416666666663" r="10" fill="rgb(229 0 125)" stroke="black" stroke-width="2"/><circle cx="148.8208912037037" cy="325.10416666666663" r="10" fill="rgb(229 0 125)" stroke="black" stroke-width="2"/><circle cx="143.21903935185185" cy="325.10416666666663" r="10" fill="rgb(229 0 125)" stroke="black" stroke-width="2"/><circle cx="137.6171875" cy="325.10416666666663" r="10" fill="rgb(229 0 125)" stroke="black" stroke-width="2"/><circle cx="132.01533564814815" cy="325.10416666666663" r="10" fill="rgb(229 0 125)" stroke="black" stroke-width="2"/><circle cx="126.4134837962963" cy="325.10416666666663" r="10" fill="rgb(229 0 125)" stroke="black" stroke-width="2"/><circle cx="120.8116319444444" cy="325.10416666666663" r="10" fill="rgb(229 0 125)" stroke="black" stroke-width="2"/><circle cx="115.20978009259261" cy="325.10416666666663" r="10" fill="rgb(229 0 125)" stroke="black" stroke-width="2"/><circle cx="87.20052083333331" cy="388.125" r="10" fill="rgb(229 0 125)" stroke="black" stroke-width="2"/><circle cx="109.2578125" cy="325.10416666666663" r="10" fill="rgb(229 0 125)" stroke="black" stroke-width="2"/><circle cx="102.95572916666669" cy="325.10416666666663" r="10" fill="rgb(229 0 125)" stroke="black" stroke-width="2"/><circle cx="96.65364583333331" cy="325.10416666666663" r="10" fill="rgb(229 0 125)" stroke="black" stroke-width="2"/><circle cx="90.3515625" cy="325.10416666666663" r="10" fill="rgb(229 0 125)" stroke="black" stroke-width="2"/><circle cx="84.04947916666669" cy="325.10416666666663" r="10" fill="rgb(229 0 125)" stroke="black" stroke-width="2"/><circle cx="77.74739583333331" cy="325.10416666666663" r="10" fill="rgb(229 0 125)" stroke="black" stroke-width="2"/><circle cx="71.4453125" cy="325.10416666666663" r="10" fill="rgb(229 0 125)" stroke="black" stroke-width="2"/><circle cx="65.14322916666669" cy="325.10416666666663" r="10" fill="rgb(229 0 125)" stroke="black" stroke-width="2"/><circle cx="36.783854166666686" cy="388.125" r="10" fill="rgb(229 0 125)" stroke="black" stroke-width="2"/><circle cx="58.841145833333314" cy="325.10416666666663" r="10" fill="rgb(229 0 125)" stroke="black" stroke-width="2"/><circle cx="52.5390625" cy="325.10416666666663" r="10" fill="rgb(229 0 125)" stroke="black" stroke-width="2"/><circle cx="46.236979166666686" cy="325.10416666666663" r="10" fill="rgb(229 0 125)" stroke="black" stroke-width="2"/><circle cx="39.934895833333314" cy="325.10416666666663" r="10" fill="rgb(229 0 125)" stroke="black" stroke-width="2"/><circle cx="33.6328125" cy="325.10416666666663" r="10" fill="rgb(229 0 125)" stroke="black" stroke-width="2"/><circle cx="27.330729166666686" cy="325.10416666666663" r="10" fill="rgb(229 0 125)" stroke="black" stroke-width="2"/><circle cx="21.028645833333314" cy="325.10416666666663" r="10" fill="rgb(229 0 125)" stroke="black" stroke-width="2"/><circle cx="14.7265625" cy="325.10416666666663" r="10" fill="rgb(229 0 125)" stroke="black" stroke-width="2"/></svg>