<svg xmlns="http://www.w3.org/2000/svg" width="531.1689814814815" height="510.1620370370371" style="background: white;"><line x1="265.58449074074076" y1="24.004629629629633" x2="139.5428240740741" y2="52.01388888888889" stroke="rgb(0 159 227)" stroke-width="5"/><line x1="265.58449074074076" y1="24.004629629629633" x2="391.62615740740745" y2="52.01388888888889" stroke="rgb(0 159 227)" stroke-width="5"/><line x1="139.5428240740741" y1="52.01388888888889" x2="76.52199074074075" y2="80.02314814814815" stroke="rgb(0 159 227)" stroke-width="5"/><line x1="139.5428240740741" y1="52.01388888888889" x2="202.56365740740745" y2="80.02314814814815" stroke="rgb(0 159 227)" stroke-width="5"/><line x1="76.52199074074075" y1="80.02314814814815" x2="45.011574074074076" y2="108.03240740740742" stroke="rgb(0 159 227)" stroke-width="5"/><line x1="76.52199074074075" y1="80.02314814814815" x2="108.03240740740742" y2="108.03240740740742" stroke="rgb(0 159 227)" stroke-width="5"/><line x1="45.011574074074076" y1="108.03240740740742" x2="29.256365740740744" y2="136.04166666666669" stroke="rgb(0 159 227)" stroke-width="5"/><line x1="45.011574074074076" y1="108.03240740740742" x2="60.76678240740741" y2="136.04166666666669" stroke="rgb(0 159 227)" stroke-width="5"/><line x1="29.256365740740744" y1="136.04166666666669" x2="21.378761574074076" y2="164.05092592592595" stroke="rgb(0 159 227)" stroke-width="5"/><line x1="29.256365740740744" y1="136.04166666666669" x2="37.13396990740741" y2="164.05092592592595" stroke="rgb(0 159 227)" stroke-width="5"/><line x1="21.378761574074076" y1="164.05092592592595" x2="17.43995949074074" y2="192.06018518518522" stroke="rgb(0 159 227)" stroke-width="5"/><line x1="21.378761574074076" y1="164.05092592592595" x2="25.317563657407412" y2="192.06018518518522" stroke="rgb(0 159 227)" stroke-width="5"/><line x1="17.43995949074074" y1="192.06018518518522" x2="15.470558449074074" y2="220.06944444444449" stroke="rgb(0 159 227)" stroke-width="5"/><line x1="17.43995949074074" y1="192.06018518518522" x2="19.40936053240741" y2="220.06944444444449" stroke="rgb(0 159 227)" stroke-width="5"/><line x1="15.470558449074074" y1="220.06944444444449" x2="14.48585792824074" y2="248.07870370370372" stroke="rgb(0 159 227)" stroke-width="5"/><line x1="15.470558449074074" y1="220.06944444444449" x2="16.45525896990741" y2="248.07870370370372" stroke="rgb(0 159 227)" stroke-width="5"/><line x1="108.03240740740742" y1="108.03240740740742" x2="92.27719907407409" y2="136.04166666666669" stroke="rgb(0 159 227)" stroke-width="5"/><line x1="108.03240740740742" y1="108.03240740740742" x2="123.78761574074076" y2="136.04166666666669" stroke="rgb(0 159 227)" stroke-width="5"/><line x1="202.56365740740745" y1="80.02314814814815" x2="171.05324074074076" y2="108.03240740740742" stroke="rgb(0 159 227)" stroke-width="5"/><line x1="202.56365740740745" y1="80.02314814814815" x2="234.0740740740741" y2="108.03240740740742" stroke="rgb(0 159 227)" stroke-width="5"/><line x1="391.62615740740745" y1="52.01388888888889" x2="328.60532407407413" y2="80.02314814814815" stroke="rgb(0 159 227)" stroke-width="5"/><line x1="391.62615740740745" y1="52.01388888888889" x2="454.6469907407408" y2="80.02314814814815" stroke="rgb(0 159 227)" stroke-width="5"/><line x1="328.60532407407413" y1="80.02314814814815" x2="297.09490740740745" y2="108.03240740740742" stroke="rgb(0 159 227)" stroke-width="5"/><line x1="328.60532407407413" y1="80.02314814814815" x2="360.11574074074076" y2="108.03240740740742" stroke="rgb(0 159 227)" stroke-width="5"/><line x1="297.09490740740745" y1="108.03240740740742" x2="281.33969907407413" y2="136.04166666666669" stroke="rgb(0 159 227)" stroke-width="5"/><line x1="297.09490740740745" y1="108.03240740740742" x2="312.85011574074076" y2="136.04166666666669" stroke="rgb(0 159 227)" stroke-width="5"/><line x1="265.58449074074076" y1="24.004629629629633" x2="139.5428240740741" y2="52.01388888888889" stroke="black"/><line x1="265.58449074074076" y1="24.004629629629633" x2="391.62615740740745" y2="52.01388888888889" stroke="black"/><line x1="139.5428240740741" y1="52.01388888888889" x2="76.52199074074075" y2="80.02314814814815" stroke="black"/><line x1="139.5428240740741" y1="52.01388888888889" x2="202.56365740740745" y2="80.02314814814815" stroke="black"/><line x1="76.52199074074075" y1="80.02314814814815" x2="45.011574074074076" y2="108.03240740740742" stroke="black"/><line x1="76.52199074074075" y1="80.02314814814815" x2="108.03240740740742" y2="108.03240740740742" stroke="black"/><line x1="45.011574074074076" y1="108.03240740740742" x2="29.256365740740744" y2="136.04166666666669" stroke="black"/><line x1="45.011574074074076" y1="108.03240740740742" x2="60.76678240740741" y2="136.04166666666669" stroke="black"/><line x1="29.256365740740744" y1="136.04166666666669" x2="21.378761574074076" y2="164.05092592592595" stroke="black"/><line x1="29.256365740740744" y1="136.04166666666669" x2="37.13396990740741" y2="164.05092592592595" stroke="black"/><line x1="21.378761574074076" y1="164.05092592592595" x2="17.43995949074074" y2="192.06018518518522" stroke="black"/><line x1="21.378761574074076" y1="164.05092592592595" x2="25.317563657407412" y2="192.06018518518522" stroke="black"/><line x1="17.43995949074074" y1="192.06018518518522" x2="15.470558449074074" y2="220.06944444444449" stroke="black"/><line x1="17.43995949074074" y1="192.06018518518522" x2="19.40936053240741" y2="220.06944444444449" stroke="black"/><line x1="15.470558449074074" y1="220.06944444444449" x2="14.48585792824074" y2="248.07870370370372" stroke="black"/><line x1="15.470558449074074" y1="220.06944444444449" x2="16.45525896990741" y2="248.07870370370372" stroke="black"/><line x1="108.03240740740742" y1="108.03240740740742" x2="92.27719907407409" y2="136.04166666666669" stroke="black"/><line x1="108.03240740740742" y1="108.03240740740742" x2="123.78761574074076" y2="136.04166666666669" stroke="black"/><line x1="202.56365740740745" y1="80.02314814814815" x2="171.05324074074076" y2="108.03240740740742" stroke="black"/><line x1="202.56365740740745" y1="80.02314814814815" x2="234.0740740740741" y2="108.03240740740742" stroke="black"/><line x1="391.62615740740745" y1="52.01388888888889" x2="328.60532407407413" y2="80.02314814814815" stroke="black"/><line x1="391.62615740740745" y1="52.01388888888889" x2="454.6469907407408" y2="80.02314814814815" stroke="black"/><line x1="328.60532407407413" y1="80.02314814814815" x2="297.09490740740745" y2="108.03240740740742" stroke="black"/><line x1="328.60532407407413" y1="80.02314814814815" x2="360.11574074074076" y2="108.03240740740742" stroke="black"/><line x1="297.09490740740745" y1="108.03240740740742" x2="281.33969907407413" y2="136.04166666666669" stroke="black"/><line x1="297.09490740740745" y1="108.03240740740742" x2="312.85011574074076" y2="136.04166666666669" stroke="black"/><circle cx="265.58449074074076" cy="24.004629629629633" r="10" fill="rgb(229 0 125)" stroke="black" stroke-width="2"/><circle cx="139.5428240740741" cy="52.01388888888889" r="10" fill="rgb(229 0 125)" stroke="black" stroke-width="2"/><circle cx="76.52199074074075" cy="80.02314814814815" r="10" fill="rgb(229 0 125)" stroke="black" stroke-width="2"/><circle cx="45.011574074074076" cy="108.03240740740742" r="10" fill="rgb(229 0 125)" stroke="black" stroke-width="2"/><circle cx="29.256365740740744" cy="136.04166666666669" r="10" fill="rgb(229 0 125)" stroke="black" stroke-width="2"/><circle cx="21.378761574074076" cy="164.05092592592595" r="10" fill="rgb(229 0 125)" stroke="black" stroke-width="2"/><circle cx="17.43995949074074" cy="192.06018518518522" r="10" fill="rgb(229 0 125)" stroke="black" stroke-width="2"/><circle cx="15.470558449074074" cy="220.06944444444449" r="10" fill="rgb(229 0 125)" stroke="black" stroke-width="2"/><circle cx="14.48585792824074" cy="248.07870370370372" r="10" fill="rgb(229 0 125)" stroke="black" stroke-width="2"/><circle cx="16.45525896990741" cy="248.07870370370372" r="10" fill="rgb(229 0 125)" stroke="black" stroke-width="2"/><circle cx="19.40936053240741" cy="220.06944444444449" r="10" fill="rgb(229 0 125)" stroke="black" stroke-width="2"/><circle cx="25.317563657407412" cy="192.06018518518522" r="10" fill="rgb(229 0 125)" stroke="black" stroke-width="2"/><circle cx="37.13396990740741" cy="164.05092592592595" r="10" fill="rgb(229 0 125)" stroke="black" stroke-width="2"/><circle cx="60.76678240740741" cy="136.04166666666669" r="10" fill="rgb(229 0 125)" stroke="black" stroke-width="2"/><circle cx="108.03240740740742" cy="108.03240740740742" r="10" fill="rgb(229 0 125)" stroke="black" stroke-width="2"/><circle cx="92.27719907407409" cy="136.04166666666669" r="10" fill="rgb(229 0 125)" stroke="black" stroke-width="2"/><circle cx="123.78761574074076" cy="136.04166666666669" r="10" fill="rgb(229 0 125)" stroke="black" stroke-width="2"/><circle cx="202.56365740740745" cy="80.02314814814815" r="10" fill="rgb(229 0 125)" stroke="black" stroke-width="2"/><circle cx="171.05324074074076" cy="108.03240740740742" r="10" fill="rgb(229 0 125)" stroke="black" stroke-width="2"/><circle cx="234.0740740740741" cy="108.03240740740742" r="10" fill="rgb(229 0 125)" stroke="black" stroke-width="2"/><circle cx="391.62615740740745" cy="52.01388888888889" r="10" fill="rgb(229 0 125)" stroke="black" stroke-width="2"/><circle cx="328.60532407407413" cy="80.02314814814815" r="10" fill="rgb(229 0 125)" stroke="black" stroke-width="2"/><circle cx="297.09490740740745" cy="108.03240740740742" r="10" fill="rgb(229 0 125)" stroke="black" stroke-width="2"/><circle cx="281.33969907407413" cy="136.04166666666669" r="10" fill="rgb(229 0 125)" stroke="black" stroke-width="2"/><circle cx="312.85011574074076" cy="136.04166666666669" r="10" fill="rgb(229 0 125)" stroke="black" stroke-width="2"/><circle cx="360.11574074074076" cy="108.03240740740742" r="10" fill="rgb(229 0 125)" stroke="black" stroke-width="2"/><circle cx="454.6469907407408" cy="80.02314814814815" r="10" fill="rgb(229 0 125)" stroke="black" stroke-width="2"/><line x1="265.58449074074076" y1="486.1574074074075" x2="391.6261574074074" y2="458.1481481481482" stroke="rgb(0 159 227)" stroke-width="5"/><line x1="265.58449074074076" y1="486.1574074074075" x2="139.54282407407408" y2="458.1481481481482" stroke="rgb(0 159 227)" stroke-width="5"/><line x1="391.6261574074074" y1="458.1481481481482" x2="454.64699074074076" y2="430.13888888888897" stroke="rgb(0 159 227)" stroke-width="5"/><line x1="391.6261574074074" y1="458.1481481481482" x2="328.6053240740741" y2="430.13888888888897" stroke="rgb(0 159 227)" stroke-width="5"/><line x1="454.64699074074076" y1="430.13888888888897" x2="486.15740740740745" y2="402.1296296296297" stroke="rgb(0 159 227)" stroke-width="5"/><line x1="454.64699074074076" y1="430.13888888888897" x2="423.13657407407413" y2="402.1296296296297" stroke="rgb(0 159 227)" stroke-width="5"/><line x1="486.15740740740745" y1="402.1296296296297" x2="501.91261574074076" y2="374.12037037037044" stroke="rgb(0 159 227)" stroke-width="5"/><line x1="486.15740740740745" y1="402.1296296296297" x2="470.40219907407413" y2="374.12037037037044" stroke="rgb(0 159 227)" stroke-width="5"/><line x1="501.91261574074076" y1="374.12037037037044" x2="509.79021990740745" y2="346.1111111111112" stroke="rgb(0 159 227)" stroke-width="5"/><line x1="501.91261574074076" y1="374.12037037037044" x2="494.03501157407413" y2="346.1111111111112" stroke="rgb(0 159 227)" stroke-width="5"/><line x1="509.79021990740745" y1="346.1111111111112" x2="513.7290219907408" y2="318.1018518518519" stroke="rgb(0 159 227)" stroke-width="5"/><line x1="509.79021990740745" y1="346.1111111111112" x2="505.85141782407413" y2="318.1018518518519" stroke="rgb(0 159 227)" stroke-width="5"/><line x1="513.7290219907408" y1="318.1018518518519" x2="515.6984230324075" y2="290.0925925925926" stroke="rgb(0 159 227)" stroke-width="5"/><line x1="513.7290219907408" y1="318.1018518518519" x2="511.75962094907413" y2="290.0925925925926" stroke="rgb(0 159 227)" stroke-width="5"/><line x1="515.6984230324075" y1="290.0925925925926" x2="516.6831235532408" y2="262.08333333333337" stroke="rgb(0 159 227)" stroke-width="5"/><line x1="515.6984230324075" y1="290.0925925925926" x2="514.7137225115741" y2="262.08333333333337" stroke="rgb(0 159 227)" stroke-width="5"/><line x1="423.13657407407413" y1="402.1296296296297" x2="438.89178240740745" y2="374.12037037037044" stroke="rgb(0 159 227)" stroke-width="5"/><line x1="423.13657407407413" y1="402.1296296296297" x2="407.38136574074076" y2="374.12037037037044" stroke="rgb(0 159 227)" stroke-width="5"/><line x1="328.6053240740741" y1="430.13888888888897" x2="360.11574074074076" y2="402.1296296296297" stroke="rgb(0 159 227)" stroke-width="5"/><line x1="328.6053240740741" y1="430.13888888888897" x2="297.0949074074074" y2="402.1296296296297" stroke="rgb(0 159 227)" stroke-width="5"/><line x1="139.54282407407408" y1="458.1481481481482" x2="202.5636574074074" y2="430.13888888888897" stroke="rgb(0 159 227)" stroke-width="5"/><line x1="139.54282407407408" y1="458.1481481481482" x2="76.5219907407407" y2="430.13888888888897" stroke="rgb(0 159 227)" stroke-width="5"/><line x1="202.5636574074074" y1="430.13888888888897" x2="234.07407407407408" y2="402.1296296296297" stroke="rgb(0 159 227)" stroke-width="5"/><line x1="202.5636574074074" y1="430.13888888888897" x2="171.05324074074076" y2="402.1296296296297" stroke="rgb(0 159 227)" stroke-width="5"/><line x1="234.07407407407408" y1="402.1296296296297" x2="249.8292824074074" y2="374.12037037037044" stroke="rgb(0 159 227)" stroke-width="5"/><line x1="234.07407407407408" y1="402.1296296296297" x2="218.31886574074076" y2="374.12037037037044" stroke="rgb(0 159 227)" stroke-width="5"/><line x1="265.58449074074076" y1="486.1574074074075" x2="391.6261574074074" y2="458.1481481481482" stroke="black"/><line x1="265.58449074074076" y1="486.1574074074075" x2="139.54282407407408" y2="458.1481481481482" stroke="black"/><line x1="391.6261574074074" y1="458.1481481481482" x2="454.64699074074076" y2="430.13888888888897" stroke="black"/><line x1="391.6261574074074" y1="458.1481481481482" x2="328.6053240740741" y2="430.13888888888897" stroke="black"/><line x1="454.64699074074076" y1="430.13888888888897" x2="486.15740740740745" y2="402.1296296296297" stroke="black"/><line x1="454.64699074074076" y1="430.13888888888897" x2="423.13657407407413" y2="402.1296296296297" stroke="black"/><line x1="486.15740740740745" y1="402.1296296296297" x2="501.91261574074076" y2="374.12037037037044" stroke="black"/><line x1="486.15740740740745" y1="402.1296296296297" x2="470.40219907407413" y2="374.12037037037044" stroke="black"/><line x1="501.91261574074076" y1="374.12037037037044" x2="509.79021990740745" y2="346.1111111111112" stroke="black"/><line x1="501.91261574074076" y1="374.12037037037044" x2="494.03501157407413" y2="346.1111111111112" stroke="black"/><line x1="509.79021990740745" y1="346.1111111111112" x2="513.7290219907408" y2="318.1018518518519" stroke="black"/><line x1="509.79021990740745" y1="346.1111111111112" x2="505.85141782407413" y2="318.1018518518519" stroke="black"/><line x1="513.7290219907408" y1="318.1018518518519" x2="515.6984230324075" y2="290.0925925925926" stroke="black"/><line x1="513.7290219907408" y1="318.1018518518519" x2="511.75962094907413" y2="290.0925925925926" stroke="black"/><line x1="515.6984230324075" y1="290.0925925925926" x2="516.6831235532408" y2="262.08333333333337" stroke="black"/><line x1="515.6984230324075" y1="290.0925925925926" x2="514.7137225115741" y2="262.08333333333337" stroke="black"/><line x1="423.13657407407413" y1="402.1296296296297" x2="438.89178240740745" y2="374.12037037037044" stroke="black"/><line x1="423.13657407407413" y1="402.1296296296297" x2="407.38136574074076" y2="374.12037037037044" stroke="black"/><line x1="328.6053240740741" y1="430.13888888888897" x2="360.11574074074076" y2="402.1296296296297" stroke="black"/><line x1="328.6053240740741" y1="430.13888888888897" x2="297.0949074074074" y2="402.1296296296297" stroke="black"/><line x1="139.54282407407408" y1="458.1481481481482" x2="202.5636574074074" y2="430.13888888888897" stroke="black"/><line x1="139.54282407407408" y1="458.1481481481482" x2="76.5219907407407" y2="430.13888888888897" stroke="black"/><line x1="202.5636574074074" y1="430.13888888888897" x2="234.07407407407408" y2="402.1296296296297" stroke="black"/><line x1="202.5636574074074" y1="430.13888888888897" x2="171.05324074074076" y2="402.1296296296297" stroke="black"/><line x1="234.07407407407408" y1="402.1296296296297" x2="249.8292824074074" y2="374.12037037037044" stroke="black"/><line x1="234.07407407407408" y1="402.1296296296297" x2="218.31886574074076" y2="374.12037037037044" stroke="black"/><circle cx="265.58449074074076" cy="486.1574074074075" r="10" fill="rgb(229 0 125)" stroke="black" stroke-width="2"/><circle cx="391.6261574074074" cy="458.1481481481482" r="10" fill="rgb(229 0 125)" stroke="black" stroke-width="2"/><circle cx="454.64699074074076" cy="430.13888888888897" r="10" fill="rgb(229 0 125)" stroke="black" stroke-width="2"/><circle cx="486.15740740740745" cy="402.1296296296297" r="10" fill="rgb(229 0 125)" stroke="black" stroke-width="2"/><circle cx="501.91261574074076" cy="374.12037037037044" r="10" fill="rgb(229 0 125)" stroke="black" stroke-width="2"/><circle cx="509.79021990740745" cy="346.1111111111112" r="10" fill="rgb(229 0 125)" stroke="black" stroke-width="2"/><circle cx="513.7290219907408" cy="318.1018518518519" r="10" fill="rgb(229 0 125)" stroke="black" stroke-width="2"/><circle cx="515.6984230324075" cy="290.0925925925926" r="10" fill="rgb(229 0 125)" stroke="black" stroke-width="2"/><circle cx="516.6831235532408" cy="262.08333333333337" r="10" fill="rgb(229 0 125)" stroke="black" stroke-width="2"/><circle cx="514.7137225115741" cy="262.08333333333337" r="10" fill="rgb(229 0 125)" stroke="black" stroke-width="2"/><circle cx="511.75962094907413" cy="290.0925925925926" r="10" fill="rgb(229 0 125)" stroke="black" stroke-width="2"/><circle cx="505.85141782407413" cy="318.1018518518519" r="10" fill="rgb(229 0 125)" stroke="black" stroke-width="2"/><circle cx="494.03501157407413" cy="346.1111111111112" r="10" fill="rgb(229 0 125)" stroke="black" stroke-width="2"/><circle cx="470.40219907407413" cy="374.12037037037044" r="10" fill="rgb(229 0 125)" stroke="black" stroke-width="2"/><circle cx="423.13657407407413" cy="402.1296296296297" r="10" fill="rgb(229 0 125)" stroke="black" stroke-width="2"/><circle cx="438.89178240740745" cy="374.12037037037044" r="10" fill="rgb(229 0 125)" stroke="black" stroke-width="2"/><circle cx="407.38136574074076" cy="374.12037037037044" r="10" fill="rgb(229 0 125)" stroke="black" stroke-width="2"/><circle cx="328.6053240740741" cy="430.13888888888897" r="10" fill="rgb(229 0 125)" stroke="black" stroke-width="2"/><circle cx="360.11574074074076" cy="402.1296296296297" r="10" fill="rgb(229 0 125)" stroke="black" stroke-width="2"/><circle cx="297.0949074074074" cy="402.1296296296297" r="10" fill="rgb(229 0 125)" stroke="black" stroke-width="2"/><circle cx="139.54282407407408" cy="458.1481481481482" r="10" fill="rgb(229 0 125)" stroke="black" stroke-width="2"/><circle cx="202.5636574074074" cy="430.13888888888897" r="10" fill="rgb(229 0 125)" stroke="black" stroke-width="2"/><circle cx="234.07407407407408" cy="402.1296296296297" r="10" fill="rgb(229 0 125)" stroke="black" stroke-width="2"/><circle cx="249.8292824074074" cy="374.12037037037044" r="10" fill="rgb(229 0 125)" stroke="black" stroke-width="2"/><circle cx="218.31886574074076" cy="374.12037037037044" r="10" fill="rgb(229 0 125)" stroke="black" stroke-width="2"/><circle cx="171.05324074074076" cy="402.1296296296297" r="10" fill="rgb(229 0 125)" stroke="black" stroke-width="2"/><circle cx="76.5219907407407" cy="430.13888888888897" r="10" fill="rgb(229 0 125)" stroke="black" stroke-width="2"/></svg>