<svg xmlns="http://www.w3.org/2000/svg" width="574.5833333333334" height="498.95833333333337" style="background: white;"><line x1="287.2916666666667" y1="35.208333333333336" x2="85.625" y2="85.625" stroke="rgb(0 159 227)" stroke-width="5"/><line x1="287.2916666666667" y1="35.208333333333336" x2="186.45833333333334" y2="85.625" stroke="rgb(0 159 227)" stroke-width="5"/><line x1="287.2916666666667" y1="35.208333333333336" x2="287.2916666666667" y2="85.625" stroke="rgb(0 159 227)" stroke-width="5"/><line x1="287.2916666666667" y1="35.208333333333336" x2="388.12500000000006" y2="85.625" stroke="rgb(0 159 227)" stroke-width="5"/><line x1="287.2916666666667" y1="35.208333333333336" x2="488.95833333333337" y2="85.625" stroke="rgb(0 159 227)" stroke-width="5"/><line x1="85.625" y1="85.625" x2="45.291666666666664" y2="136.04166666666669" stroke="rgb(0 159 227)" stroke-width="5"/><line x1="85.625" y1="85.625" x2="65.45833333333334" y2="136.04166666666669" stroke="rgb(0 159 227)" stroke-width="5"/><line x1="85.625" y1="85.625" x2="85.625" y2="136.04166666666669" stroke="rgb(0 159 227)" stroke-width="5"/><line x1="85.625" y1="85.625" x2="105.79166666666669" y2="136.04166666666669" stroke="rgb(0 159 227)" stroke-width="5"/><line x1="85.625" y1="85.625" x2="125.95833333333333" y2="136.04166666666669" stroke="rgb(0 159 227)" stroke-width="5"/><line x1="186.45833333333334" y1="85.625" x2="146.12500000000003" y2="136.04166666666669" stroke="rgb(0 159 227)" stroke-width="5"/><line x1="186.45833333333334" y1="85.625" x2="166.29166666666666" y2="136.04166666666669" stroke="rgb(0 159 227)" stroke-width="5"/><line x1="186.45833333333334" y1="85.625" x2="186.45833333333334" y2="136.04166666666669" stroke="rgb(0 159 227)" stroke-width="5"/><line x1="186.45833333333334" y1="85.625" x2="206.62500000000003" y2="136.04166666666669" stroke="rgb(0 159 227)" stroke-width="5"/><line x1="186.45833333333334" y1="85.625" x2="226.79166666666669" y2="136.04166666666669" stroke="rgb(0 159 227)" stroke-width="5"/><line x1="287.2916666666667" y1="85.625" x2="246.95833333333337" y2="136.04166666666669" stroke="rgb(0 159 227)" stroke-width="5"/><line x1="287.2916666666667" y1="85.625" x2="267.125" y2="136.04166666666669" stroke="rgb(0 159 227)" stroke-width="5"/><line x1="287.2916666666667" y1="85.625" x2="287.2916666666667" y2="136.04166666666669" stroke="rgb(0 159 227)" stroke-width="5"/><line x1="287.2916666666667" y1="85.625" x2="307.45833333333337" y2="136.04166666666669" stroke="rgb(0 159 227)" stroke-width="5"/><line x1="287.2916666666667" y1="85.625" x2="327.625" y2="136.04166666666669" stroke="rgb(0 159 227)" stroke-width="5"/><line x1="246.95833333333337" y1="136.04166666666669" x2="238.89166666666668" y2="186.45833333333334" stroke="rgb(0 159 227)" stroke-width="5"/><line x1="246.95833333333337" y1="136.04166666666669" x2="242.92500000000004" y2="186.45833333333334" stroke="rgb(0 159 227)" stroke-width="5"/><line x1="246.95833333333337" y1="136.04166666666669" x2="246.95833333333337" y2="186.45833333333334" stroke="rgb(0 159 227)" stroke-width="5"/><line x1="246.95833333333337" y1="136.04166666666669" x2="250.9916666666667" y2="186.45833333333334" stroke="rgb(0 159 227)" stroke-width="5"/><line x1="246.95833333333337" y1="136.04166666666669" x2="255.02500000000003" y2="186.45833333333334" stroke="rgb(0 159 227)" stroke-width="5"/><line x1="267.125" y1="136.04166666666669" x2="259.0583333333334" y2="186.45833333333334" stroke="rgb(0 159 227)" stroke-width="5"/><line x1="267.125" y1="136.04166666666669" x2="263.0916666666667" y2="186.45833333333334" stroke="rgb(0 159 227)" stroke-width="5"/><line x1="267.125" y1="136.04166666666669" x2="267.125" y2="186.45833333333334" stroke="rgb(0 159 227)" stroke-width="5"/><line x1="267.125" y1="136.04166666666669" x2="271.15833333333336" y2="186.45833333333334" stroke="rgb(0 159 227)" stroke-width="5"/><line x1="267.125" y1="136.04166666666669" x2="275.19166666666666" y2="186.45833333333334" stroke="rgb(0 159 227)" stroke-width="5"/><line x1="287.2916666666667" y1="136.04166666666669" x2="279.225" y2="186.45833333333334" stroke="rgb(0 159 227)" stroke-width="5"/><line x1="287.2916666666667" y1="136.04166666666669" x2="283.2583333333334" y2="186.45833333333334" stroke="rgb(0 159 227)" stroke-width="5"/><line x1="287.2916666666667" y1="136.04166666666669" x2="287.2916666666667" y2="186.45833333333334" stroke="rgb(0 159 227)" stroke-width="5"/><line x1="287.2916666666667" y1="136.04166666666669" x2="291.32500000000005" y2="186.45833333333334" stroke="rgb(0 159 227)" stroke-width="5"/><line x1="287.2916666666667" y1="136.04166666666669" x2="295.35833333333335" y2="186.45833333333334" stroke="rgb(0 159 227)" stroke-width="5"/><line x1="307.45833333333337" y1="136.04166666666669" x2="299.3916666666667" y2="186.45833333333334" stroke="rgb(0 159 227)" stroke-width="5"/><line x1="307.45833333333337" y1="136.04166666666669" x2="303.42500000000007" y2="186.45833333333334" stroke="rgb(0 159 227)" stroke-width="5"/><line x1="307.45833333333337" y1="136.04166666666669" x2="307.45833333333337" y2="186.45833333333334" stroke="rgb(0 159 227)" stroke-width="5"/><line x1="307.45833333333337" y1="136.04166666666669" x2="311.4916666666667" y2="186.45833333333334" stroke="rgb(0 159 227)" stroke-width="5"/><line x1="307.45833333333337" y1="136.04166666666669" x2="315.52500000000003" y2="186.45833333333334" stroke="rgb(0 159 227)" stroke-width="5"/><line x1="299.3916666666667" y1="186.45833333333334" x2="297.77833333333336" y2="236.87500000000003" stroke="rgb(0 159 227)" stroke-width="5"/><line x1="299.3916666666667" y1="186.45833333333334" x2="298.58500000000004" y2="236.87500000000003" stroke="rgb(0 159 227)" stroke-width="5"/><line x1="299.3916666666667" y1="186.45833333333334" x2="299.3916666666667" y2="236.87500000000003" stroke="rgb(0 159 227)" stroke-width="5"/><line x1="299.3916666666667" y1="186.45833333333334" x2="300.1983333333334" y2="236.87500000000003" stroke="rgb(0 159 227)" stroke-width="5"/><line x1="299.3916666666667" y1="186.45833333333334" x2="301.00500000000005" y2="236.87500000000003" stroke="rgb(0 159 227)" stroke-width="5"/><line x1="303.42500000000007" y1="186.45833333333334" x2="301.8116666666667" y2="236.87500000000003" stroke="rgb(0 159 227)" stroke-width="5"/><line x1="303.42500000000007" y1="186.45833333333334" x2="302.6183333333334" y2="236.87500000000003" stroke="rgb(0 159 227)" stroke-width="5"/><line x1="303.42500000000007" y1="186.45833333333334" x2="303.42500000000007" y2="236.87500000000003" stroke="rgb(0 159 227)" stroke-width="5"/><line x1="303.42500000000007" y1="186.45833333333334" x2="304.2316666666667" y2="236.87500000000003" stroke="rgb(0 159 227)" stroke-width="5"/><line x1="303.42500000000007" y1="186.45833333333334" x2="305.03833333333336" y2="236.87500000000003" stroke="rgb(0 159 227)" stroke-width="5"/><line x1="307.45833333333337" y1="186.45833333333334" x2="305.845" y2="236.87500000000003" stroke="rgb(0 159 227)" stroke-width="5"/><line x1="307.45833333333337" y1="186.45833333333334" x2="306.6516666666667" y2="236.87500000000003" stroke="rgb(0 159 227)" stroke-width="5"/><line x1="307.45833333333337" y1="186.45833333333334" x2="307.45833333333337" y2="236.87500000000003" stroke="rgb(0 159 227)" stroke-width="5"/><line x1="307.45833333333337" y1="186.45833333333334" x2="308.265" y2="236.87500000000003" stroke="rgb(0 159 227)" stroke-width="5"/><line x1="307.45833333333337" y1="186.45833333333334" x2="309.07166666666666" y2="236.87500000000003" stroke="rgb(0 159 227)" stroke-width="5"/><line x1="287.2916666666667" y1="35.208333333333336" x2="85.625" y2="85.625" stroke="black"/><line x1="287.2916666666667" y1="35.208333333333336" x2="186.45833333333334" y2="85.625" stroke="black"/><line x1="287.2916666666667" y1="35.208333333333336" x2="287.2916666666667" y2="85.625" stroke="black"/><line x1="287.2916666666667" y1="35.208333333333336" x2="388.12500000000006" y2="85.625" stroke="black"/><line x1="287.2916666666667" y1="35.208333333333336" x2="488.95833333333337" y2="85.625" stroke="black"/><line x1="85.625" y1="85.625" x2="45.291666666666664" y2="136.04166666666669" stroke="black"/><line x1="85.625" y1="85.625" x2="65.45833333333334" y2="136.04166666666669" stroke="black"/><line x1="85.625" y1="85.625" x2="85.625" y2="136.04166666666669" stroke="black"/><line x1="85.625" y1="85.625" x2="105.79166666666669" y2="136.04166666666669" stroke="black"/><line x1="85.625" y1="85.625" x2="125.95833333333333" y2="136.04166666666669" stroke="black"/><line x1="186.45833333333334" y1="85.625" x2="146.12500000000003" y2="136.04166666666669" stroke="black"/><line x1="186.45833333333334" y1="85.625" x2="166.29166666666666" y2="136.04166666666669" stroke="black"/><line x1="186.45833333333334" y1="85.625" x2="186.45833333333334" y2="136.04166666666669" stroke="black"/><line x1="186.45833333333334" y1="85.625" x2="206.62500000000003" y2="136.04166666666669" stroke="black"/><line x1="186.45833333333334" y1="85.625" x2="226.79166666666669" y2="136.04166666666669" stroke="black"/><line x1="287.2916666666667" y1="85.625" x2="246.95833333333337" y2="136.04166666666669" stroke="black"/><line x1="287.2916666666667" y1="85.625" x2="267.125" y2="136.04166666666669" stroke="black"/><line x1="287.2916666666667" y1="85.625" x2="287.2916666666667" y2="136.04166666666669" stroke="black"/><line x1="287.2916666666667" y1="85.625" x2="307.45833333333337" y2="136.04166666666669" stroke="black"/><line x1="287.2916666666667" y1="85.625" x2="327.625" y2="136.04166666666669" stroke="black"/><line x1="246.95833333333337" y1="136.04166666666669" x2="238.89166666666668" y2="186.45833333333334" stroke="black"/><line x1="246.95833333333337" y1="136.04166666666669" x2="242.92500000000004" y2="186.45833333333334" stroke="black"/><line x1="246.95833333333337" y1="136.04166666666669" x2="246.95833333333337" y2="186.45833333333334" stroke="black"/><line x1="246.95833333333337" y1="136.04166666666669" x2="250.9916666666667" y2="186.45833333333334" stroke="black"/><line x1="246.95833333333337" y1="136.04166666666669" x2="255.02500000000003" y2="186.45833333333334" stroke="black"/><line x1="267.125" y1="136.04166666666669" x2="259.0583333333334" y2="186.45833333333334" stroke="black"/><line x1="267.125" y1="136.04166666666669" x2="263.0916666666667" y2="186.45833333333334" stroke="black"/><line x1="267.125" y1="136.04166666666669" x2="267.125" y2="186.45833333333334" stroke="black"/><line x1="267.125" y1="136.04166666666669" x2="271.15833333333336" y2="186.45833333333334" stroke="black"/><line x1="267.125" y1="136.04166666666669" x2="275.19166666666666" y2="186.45833333333334" stroke="black"/><line x1="287.2916666666667" y1="136.04166666666669" x2="279.225" y2="186.45833333333334" stroke="black"/><line x1="287.2916666666667" y1="136.04166666666669" x2="283.2583333333334" y2="186.45833333333334" stroke="black"/><line x1="287.2916666666667" y1="136.04166666666669" x2="287.2916666666667" y2="186.45833333333334" stroke="black"/><line x1="287.2916666666667" y1="136.04166666666669" x2="291.32500000000005" y2="186.45833333333334" stroke="black"/><line x1="287.2916666666667" y1="136.04166666666669" x2="295.35833333333335" y2="186.45833333333334" stroke="black"/><line x1="307.45833333333337" y1="136.04166666666669" x2="299.3916666666667" y2="186.45833333333334" stroke="black"/><line x1="307.45833333333337" y1="136.04166666666669" x2="303.42500000000007" y2="186.45833333333334" stroke="black"/><line x1="307.45833333333337" y1="136.04166666666669" x2="307.45833333333337" y2="186.45833333333334" stroke="black"/><line x1="307.45833333333337" y1="136.04166666666669" x2="311.4916666666667" y2="186.45833333333334" stroke="black"/><line x1="307.45833333333337" y1="136.04166666666669" x2="315.52500000000003" y2="186.45833333333334" stroke="black"/><line x1="299.3916666666667" y1="186.45833333333334" x2="297.77833333333336" y2="236.87500000000003" stroke="black"/><line x1="299.3916666666667" y1="186.45833333333334" x2="298.58500000000004" y2="236.87500000000003" stroke="black"/><line x1="299.3916666666667" y1="186.45833333333334" x2="299.3916666666667" y2="236.87500000000003" stroke="black"/><line x1="299.3916666666667" y1="186.45833333333334" x2="300.1983333333334" y2="236.87500000000003" stroke="black"/><line x1="299.3916666666667" y1="186.45833333333334" x2="301.00500000000005" y2="236.87500000000003" stroke="black"/><line x1="303.42500000000007" y1="186.45833333333334" x2="301.8116666666667" y2="236.87500000000003" stroke="black"/><line x1="303.42500000000007" y1="186.45833333333334" x2="302.6183333333334" y2="236.87500000000003" stroke="black"/><line x1="303.42500000000007" y1="186.45833333333334" x2="303.42500000000007" y2="236.87500000000003" stroke="black"/><line x1="303.42500000000007" y1="186.45833333333334" x2="304.2316666666667" y2="236.87500000000003" stroke="black"/><line x1="303.42500000000007" y1="186.45833333333334" x2="305.03833333333336" y2="236.87500000000003" stroke="black"/><line x1="307.45833333333337" y1="186.45833333333334" x2="305.845" y2="236.87500000000003" stroke="black"/><line x1="307.45833333333337" y1="186.45833333333334" x2="306.6516666666667" y2="236.87500000000003" stroke="black"/><line x1="307.45833333333337" y1="186.45833333333334" x2="307.45833333333337" y2="236.87500000000003" stroke="black"/><line x1="307.45833333333337" y1="186.45833333333334" x2="308.265" y2="236.87500000000003" stroke="black"/><line x1="307.45833333333337" y1="186.45833333333334" x2="309.07166666666666" y2="236.87500000000003" stroke="black"/><circle cx="287.2916666666667" cy="35.208333333333336" r="10" fill="rgb(229 0 125)" stroke="black" stroke-width="2"/><circle cx="85.625" cy="85.625" r="10" fill="rgb(229 0 125)" stroke="black" stroke-width="2"/><circle cx="45.291666666666664" cy="136.04166666666669" r="10" fill="rgb(229 0 125)" stroke="black" stroke-width="2"/><circle cx="65.45833333333334" cy="136.04166666666669" r="10" fill="rgb(229 0 125)" stroke="black" stroke-width="2"/><circle cx="85.625" cy="136.04166666666669" r="10" fill="rgb(229 0 125)" stroke="black" stroke-width="2"/><circle cx="105.79166666666669" cy="136.04166666666669" r="10" fill="rgb(229 0 125)" stroke="black" stroke-width="2"/><circle cx="125.95833333333333" cy="136.04166666666669" r="10" fill="rgb(229 0 125)" stroke="black" stroke-width="2"/><circle cx="186.45833333333334" cy="85.625" r="10" fill="rgb(229 0 125)" stroke="black" stroke-width="2"/><circle cx="146.12500000000003" cy="136.04166666666669" r="10" fill="rgb(229 0 125)" stroke="black" stroke-width="2"/><circle cx="166.29166666666666" cy="136.04166666666669" r="10" fill="rgb(229 0 125)" stroke="black" stroke-width="2"/><circle cx="186.45833333333334" cy="136.04166666666669" r="10" fill="rgb(229 0 125)" stroke="black" stroke-width="2"/><circle cx="206.62500000000003" cy="136.04166666666669" r="10" fill="rgb(229 0 125)" stroke="black" stroke-width="2"/><circle cx="226.79166666666669" cy="136.04166666666669" r="10" fill="rgb(229 0 125)" stroke="black" stroke-width="2"/><circle cx="287.2916666666667" cy="85.625" r="10" fill="rgb(229 0 125)" stroke="black" stroke-width="2"/><circle cx="246.95833333333337" cy="136.04166666666669" r="10" fill="rgb(229 0 125)" stroke="black" stroke-width="2"/><circle cx="238.89166666666668" cy="186.45833333333334" r="10" fill="rgb(229 0 125)" stroke="black" stroke-width="2"/><circle cx="242.92500000000004" cy="186.45833333333334" r="10" fill="rgb(229 0 125)" stroke="black" stroke-width="2"/><circle cx="246.95833333333337" cy="186.45833333333334" r="10" fill="rgb(229 0 125)" stroke="black" stroke-width="2"/><circle cx="250.9916666666667" cy="186.45833333333334" r="10" fill="rgb(229 0 125)" stroke="black" stroke-width="2"/><circle cx="255.02500000000003" cy="186.45833333333334" r="10" fill="rgb(229 0 125)" stroke="black" stroke-width="2"/><circle cx="267.125" cy="136.04166666666669" r="10" fill="rgb(229 0 125)" stroke="black" stroke-width="2"/><circle cx="259.0583333333334" cy="186.45833333333334" r="10" fill="rgb(229 0 125)" stroke="black" stroke-width="2"/><circle cx="263.0916666666667" cy="186.45833333333334" r="10" fill="rgb(229 0 125)" stroke="black" stroke-width="2"/><circle cx="267.125" cy="186.45833333333334" r="10" fill="rgb(229 0 125)" stroke="black" stroke-width="2"/><circle cx="271.15833333333336" cy="186.45833333333334" r="10" fill="rgb(229 0 125)" stroke="black" stroke-width="2"/><circle cx="275.19166666666666" cy="186.45833333333334" r="10" fill="rgb(229 0 125)" stroke="black" stroke-width="2"/><circle cx="287.2916666666667" cy="136.04166666666669" r="10" fill="rgb(229 0 125)" stroke="black" stroke-width="2"/><circle cx="279.225" cy="186.45833333333334" r="10" fill="rgb(229 0 125)" stroke="black" stroke-width="2"/><circle cx="283.2583333333334" cy="186.45833333333334" r="10" fill="rgb(229 0 125)" stroke="black" stroke-width="2"/><circle cx="287.2916666666667" cy="186.45833333333334" r="10" fill="rgb(229 0 125)" stroke="black" stroke-width="2"/><circle cx="291.32500000000005" cy="186.45833333333334" r="10" fill="rgb(229 0 125)" stroke="black" stroke-width="2"/><circle cx="295.35833333333335" cy="186.45833333333334" r="10" fill="rgb(229 0 125)" stroke="black" stroke-width="2"/><circle cx="307.45833333333337" cy="136.04166666666669" r="10" fill="rgb(229 0 125)" stroke="black" stroke-width="2"/><circle cx="299.3916666666667" cy="186.45833333333334" r="10" fill="rgb(229 0 125)" stroke="black" stroke-width="2"/><circle cx="297.77833333333336" cy="236.87500000000003" r="10" fill="rgb(229 0 125)" stroke="black" stroke-width="2"/><circle cx="298.58500000000004" cy="236.87500000000003" r="10" fill="rgb(229 0 125)" stroke="black" stroke-width="2"/><circle cx="299.3916666666667" cy="236.87500000000003" r="10" fill="rgb(229 0 125)" stroke="black" stroke-width="2"/><circle cx="300.1983333333334" cy="236.87500000000003" r="10" fill="rgb(229 0 125)" stroke="black" stroke-width="2"/><circle cx="301.00500000000005" cy="236.87500000000003" r="10" fill="rgb(229 0 125)" stroke="black" stroke-width="2"/><circle cx="303.42500000000007" cy="186.45833333333334" r="10" fill="rgb(229 0 125)" stroke="black" stroke-width="2"/><circle cx="301.8116666666667" cy="236.87500000000003" r="10" fill="rgb(229 0 125)" stroke="black" stroke-width="2"/><circle cx="302.6183333333334" cy="236.87500000000003" r="10" fill="rgb(229 0 125)" stroke="black" stroke-width="2"/><circle cx="303.42500000000007" cy="236.87500000000003" r="10" fill="rgb(229 0 125)" stroke="black" stroke-width="2"/><circle cx="304.2316666666667" cy="236.87500000000003" r="10" fill="rgb(229 0 125)" stroke="black" stroke-width="2"/><circle cx="305.03833333333336" cy="236.87500000000003" r="10" fill="rgb(229 0 125)" stroke="black" stroke-width="2"/><circle cx="307.45833333333337" cy="186.45833333333334" r="10" fill="rgb(229 0 125)" stroke="black" stroke-width="2"/><circle cx="305.845" cy="236.87500000000003" r="10" fill="rgb(229 0 125)" stroke="black" stroke-width="2"/><circle cx="306.6516666666667" cy="236.87500000000003" r="10" fill="rgb(229 0 125)" stroke="black" stroke-width="2"/><circle cx="307.45833333333337" cy="236.87500000000003" r="10" fill="rgb(229 0 125)" stroke="black" stroke-width="2"/><circle cx="308.265" cy="236.87500000000003" r="10" fill="rgb(229 0 125)" stroke="black" stroke-width="2"/><circle cx="309.07166666666666" cy="236.87500000000003" r="10" fill="rgb(229 0 125)" stroke="black" stroke-width="2"/><circle cx="311.4916666666667" cy="186.45833333333334" r="10" fill="rgb(229 0 125)" stroke="black" stroke-width="2"/><circle cx="315.52500000000003" cy="186.45833333333334" r="10" fill="rgb(229 0 125)" stroke="black" stroke-width="2"/><circle cx="327.625" cy="136.04166666666669" r="10" fill="rgb(229 0 125)" stroke="black" stroke-width="2"/><circle cx="388.12500000000006" cy="85.625" r="10" fill="rgb(229 0 125)" stroke="black" stroke-width="2"/><circle cx="488.95833333333337" cy="85.625" r="10" fill="rgb(229 0 125)" stroke="black" stroke-width="2"/><line x1="287.2916666666667" y1="463.75000000000006" x2="488.95833333333337" y2="413.33333333333337" stroke="rgb(0 159 227)" stroke-width="5"/><line x1="287.2916666666667" y1="463.75000000000006" x2="388.125" y2="413.33333333333337" stroke="rgb(0 159 227)" stroke-width="5"/><line x1="287.2916666666667" y1="463.75000000000006" x2="287.2916666666667" y2="413.33333333333337" stroke="rgb(0 159 227)" stroke-width="5"/><line x1="287.2916666666667" y1="463.75000000000006" x2="186.45833333333331" y2="413.33333333333337" stroke="rgb(0 159 227)" stroke-width="5"/><line x1="287.2916666666667" y1="463.75000000000006" x2="85.625" y2="413.33333333333337" stroke="rgb(0 159 227)" stroke-width="5"/><line x1="488.95833333333337" y1="413.33333333333337" x2="529.2916666666667" y2="362.9166666666667" stroke="rgb(0 159 227)" stroke-width="5"/><line x1="488.95833333333337" y1="413.33333333333337" x2="509.125" y2="362.9166666666667" stroke="rgb(0 159 227)" stroke-width="5"/><line x1="488.95833333333337" y1="413.33333333333337" x2="488.95833333333337" y2="362.9166666666667" stroke="rgb(0 159 227)" stroke-width="5"/><line x1="488.95833333333337" y1="413.33333333333337" x2="468.7916666666667" y2="362.9166666666667" stroke="rgb(0 159 227)" stroke-width="5"/><line x1="488.95833333333337" y1="413.33333333333337" x2="448.62500000000006" y2="362.9166666666667" stroke="rgb(0 159 227)" stroke-width="5"/><line x1="388.125" y1="413.33333333333337" x2="428.45833333333337" y2="362.9166666666667" stroke="rgb(0 159 227)" stroke-width="5"/><line x1="388.125" y1="413.33333333333337" x2="408.29166666666674" y2="362.9166666666667" stroke="rgb(0 159 227)" stroke-width="5"/><line x1="388.125" y1="413.33333333333337" x2="388.125" y2="362.9166666666667" stroke="rgb(0 159 227)" stroke-width="5"/><line x1="388.125" y1="413.33333333333337" x2="367.95833333333337" y2="362.9166666666667" stroke="rgb(0 159 227)" stroke-width="5"/><line x1="388.125" y1="413.33333333333337" x2="347.7916666666667" y2="362.9166666666667" stroke="rgb(0 159 227)" stroke-width="5"/><line x1="287.2916666666667" y1="413.33333333333337" x2="327.625" y2="362.9166666666667" stroke="rgb(0 159 227)" stroke-width="5"/><line x1="287.2916666666667" y1="413.33333333333337" x2="307.45833333333337" y2="362.9166666666667" stroke="rgb(0 159 227)" stroke-width="5"/><line x1="287.2916666666667" y1="413.33333333333337" x2="287.2916666666667" y2="362.9166666666667" stroke="rgb(0 159 227)" stroke-width="5"/><line x1="287.2916666666667" y1="413.33333333333337" x2="267.125" y2="362.9166666666667" stroke="rgb(0 159 227)" stroke-width="5"/><line x1="287.2916666666667" y1="413.33333333333337" x2="246.95833333333337" y2="362.9166666666667" stroke="rgb(0 159 227)" stroke-width="5"/><line x1="327.625" y1="362.9166666666667" x2="335.6916666666667" y2="312.5" stroke="rgb(0 159 227)" stroke-width="5"/><line x1="327.625" y1="362.9166666666667" x2="331.6583333333333" y2="312.5" stroke="rgb(0 159 227)" stroke-width="5"/><line x1="327.625" y1="362.9166666666667" x2="327.625" y2="312.5" stroke="rgb(0 159 227)" stroke-width="5"/><line x1="327.625" y1="362.9166666666667" x2="323.5916666666667" y2="312.5" stroke="rgb(0 159 227)" stroke-width="5"/><line x1="327.625" y1="362.9166666666667" x2="319.55833333333334" y2="312.5" stroke="rgb(0 159 227)" stroke-width="5"/><line x1="307.45833333333337" y1="362.9166666666667" x2="315.525" y2="312.5" stroke="rgb(0 159 227)" stroke-width="5"/><line x1="307.45833333333337" y1="362.9166666666667" x2="311.4916666666667" y2="312.5" stroke="rgb(0 159 227)" stroke-width="5"/><line x1="307.45833333333337" y1="362.9166666666667" x2="307.45833333333337" y2="312.5" stroke="rgb(0 159 227)" stroke-width="5"/><line x1="307.45833333333337" y1="362.9166666666667" x2="303.425" y2="312.5" stroke="rgb(0 159 227)" stroke-width="5"/><line x1="307.45833333333337" y1="362.9166666666667" x2="299.3916666666667" y2="312.5" stroke="rgb(0 159 227)" stroke-width="5"/><line x1="287.2916666666667" y1="362.9166666666667" x2="295.35833333333335" y2="312.5" stroke="rgb(0 159 227)" stroke-width="5"/><line x1="287.2916666666667" y1="362.9166666666667" x2="291.325" y2="312.5" stroke="rgb(0 159 227)" stroke-width="5"/><line x1="287.2916666666667" y1="362.9166666666667" x2="287.2916666666667" y2="312.5" stroke="rgb(0 159 227)" stroke-width="5"/><line x1="287.2916666666667" y1="362.9166666666667" x2="283.2583333333333" y2="312.5" stroke="rgb(0 159 227)" stroke-width="5"/><line x1="287.2916666666667" y1="362.9166666666667" x2="279.225" y2="312.5" stroke="rgb(0 159 227)" stroke-width="5"/><line x1="267.125" y1="362.9166666666667" x2="275.19166666666666" y2="312.5" stroke="rgb(0 159 227)" stroke-width="5"/><line x1="267.125" y1="362.9166666666667" x2="271.1583333333333" y2="312.5" stroke="rgb(0 159 227)" stroke-width="5"/><line x1="267.125" y1="362.9166666666667" x2="267.125" y2="312.5" stroke="rgb(0 159 227)" stroke-width="5"/><line x1="267.125" y1="362.9166666666667" x2="263.0916666666667" y2="312.5" stroke="rgb(0 159 227)" stroke-width="5"/><line x1="267.125" y1="362.9166666666667" x2="259.05833333333334" y2="312.5" stroke="rgb(0 159 227)" stroke-width="5"/><line x1="275.19166666666666" y1="312.5" x2="276.805" y2="262.08333333333337" stroke="rgb(0 159 227)" stroke-width="5"/><line x1="275.19166666666666" y1="312.5" x2="275.99833333333333" y2="262.08333333333337" stroke="rgb(0 159 227)" stroke-width="5"/><line x1="275.19166666666666" y1="312.5" x2="275.19166666666666" y2="262.08333333333337" stroke="rgb(0 159 227)" stroke-width="5"/><line x1="275.19166666666666" y1="312.5" x2="274.385" y2="262.08333333333337" stroke="rgb(0 159 227)" stroke-width="5"/><line x1="275.19166666666666" y1="312.5" x2="273.5783333333333" y2="262.08333333333337" stroke="rgb(0 159 227)" stroke-width="5"/><line x1="271.1583333333333" y1="312.5" x2="272.77166666666665" y2="262.08333333333337" stroke="rgb(0 159 227)" stroke-width="5"/><line x1="271.1583333333333" y1="312.5" x2="271.965" y2="262.08333333333337" stroke="rgb(0 159 227)" stroke-width="5"/><line x1="271.1583333333333" y1="312.5" x2="271.1583333333333" y2="262.08333333333337" stroke="rgb(0 159 227)" stroke-width="5"/><line x1="271.1583333333333" y1="312.5" x2="270.3516666666667" y2="262.08333333333337" stroke="rgb(0 159 227)" stroke-width="5"/><line x1="271.1583333333333" y1="312.5" x2="269.545" y2="262.08333333333337" stroke="rgb(0 159 227)" stroke-width="5"/><line x1="267.125" y1="312.5" x2="268.73833333333334" y2="262.08333333333337" stroke="rgb(0 159 227)" stroke-width="5"/><line x1="267.125" y1="312.5" x2="267.9316666666667" y2="262.08333333333337" stroke="rgb(0 159 227)" stroke-width="5"/><line x1="267.125" y1="312.5" x2="267.125" y2="262.08333333333337" stroke="rgb(0 159 227)" stroke-width="5"/><line x1="267.125" y1="312.5" x2="266.3183333333334" y2="262.08333333333337" stroke="rgb(0 159 227)" stroke-width="5"/><line x1="267.125" y1="312.5" x2="265.5116666666667" y2="262.08333333333337" stroke="rgb(0 159 227)" stroke-width="5"/><line x1="287.2916666666667" y1="463.75000000000006" x2="488.95833333333337" y2="413.33333333333337" stroke="black"/><line x1="287.2916666666667" y1="463.75000000000006" x2="388.125" y2="413.33333333333337" stroke="black"/><line x1="287.2916666666667" y1="463.75000000000006" x2="287.2916666666667" y2="413.33333333333337" stroke="black"/><line x1="287.2916666666667" y1="463.75000000000006" x2="186.45833333333331" y2="413.33333333333337" stroke="black"/><line x1="287.2916666666667" y1="463.75000000000006" x2="85.625" y2="413.33333333333337" stroke="black"/><line x1="488.95833333333337" y1="413.33333333333337" x2="529.2916666666667" y2="362.9166666666667" stroke="black"/><line x1="488.95833333333337" y1="413.33333333333337" x2="509.125" y2="362.9166666666667" stroke="black"/><line x1="488.95833333333337" y1="413.33333333333337" x2="488.95833333333337" y2="362.9166666666667" stroke="black"/><line x1="488.95833333333337" y1="413.33333333333337" x2="468.7916666666667" y2="362.9166666666667" stroke="black"/><line x1="488.95833333333337" y1="413.33333333333337" x2="448.62500000000006" y2="362.9166666666667" stroke="black"/><line x1="388.125" y1="413.33333333333337" x2="428.45833333333337" y2="362.9166666666667" stroke="black"/><line x1="388.125" y1="413.33333333333337" x2="408.29166666666674" y2="362.9166666666667" stroke="black"/><line x1="388.125" y1="413.33333333333337" x2="388.125" y2="362.9166666666667" stroke="black"/><line x1="388.125" y1="413.33333333333337" x2="367.95833333333337" y2="362.9166666666667" stroke="black"/><line x1="388.125" y1="413.33333333333337" x2="347.7916666666667" y2="362.9166666666667" stroke="black"/><line x1="287.2916666666667" y1="413.33333333333337" x2="327.625" y2="362.9166666666667" stroke="black"/><line x1="287.2916666666667" y1="413.33333333333337" x2="307.45833333333337" y2="362.9166666666667" stroke="black"/><line x1="287.2916666666667" y1="413.33333333333337" x2="287.2916666666667" y2="362.9166666666667" stroke="black"/><line x1="287.2916666666667" y1="413.33333333333337" x2="267.125" y2="362.9166666666667" stroke="black"/><line x1="287.2916666666667" y1="413.33333333333337" x2="246.95833333333337" y2="362.9166666666667" stroke="black"/><line x1="327.625" y1="362.9166666666667" x2="335.6916666666667" y2="312.5" stroke="black"/><line x1="327.625" y1="362.9166666666667" x2="331.6583333333333" y2="312.5" stroke="black"/><line x1="327.625" y1="362.9166666666667" x2="327.625" y2="312.5" stroke="black"/><line x1="327.625" y1="362.9166666666667" x2="323.5916666666667" y2="312.5" stroke="black"/><line x1="327.625" y1="362.9166666666667" x2="319.55833333333334" y2="312.5" stroke="black"/><line x1="307.45833333333337" y1="362.9166666666667" x2="315.525" y2="312.5" stroke="black"/><line x1="307.45833333333337" y1="362.9166666666667" x2="311.4916666666667" y2="312.5" stroke="black"/><line x1="307.45833333333337" y1="362.9166666666667" x2="307.45833333333337" y2="312.5" stroke="black"/><line x1="307.45833333333337" y1="362.9166666666667" x2="303.425" y2="312.5" stroke="black"/><line x1="307.45833333333337" y1="362.9166666666667" x2="299.3916666666667" y2="312.5" stroke="black"/><line x1="287.2916666666667" y1="362.9166666666667" x2="295.35833333333335" y2="312.5" stroke="black"/><line x1="287.2916666666667" y1="362.9166666666667" x2="291.325" y2="312.5" stroke="black"/><line x1="287.2916666666667" y1="362.9166666666667" x2="287.2916666666667" y2="312.5" stroke="black"/><line x1="287.2916666666667" y1="362.9166666666667" x2="283.2583333333333" y2="312.5" stroke="black"/><line x1="287.2916666666667" y1="362.9166666666667" x2="279.225" y2="312.5" stroke="black"/><line x1="267.125" y1="362.9166666666667" x2="275.19166666666666" y2="312.5" stroke="black"/><line x1="267.125" y1="362.9166666666667" x2="271.1583333333333" y2="312.5" stroke="black"/><line x1="267.125" y1="362.9166666666667" x2="267.125" y2="312.5" stroke="black"/><line x1="267.125" y1="362.9166666666667" x2="263.0916666666667" y2="312.5" stroke="black"/><line x1="267.125" y1="362.9166666666667" x2="259.05833333333334" y2="312.5" stroke="black"/><line x1="275.19166666666666" y1="312.5" x2="276.805" y2="262.08333333333337" stroke="black"/><line x1="275.19166666666666" y1="312.5" x2="275.99833333333333" y2="262.08333333333337" stroke="black"/><line x1="275.19166666666666" y1="312.5" x2="275.19166666666666" y2="262.08333333333337" stroke="black"/><line x1="275.19166666666666" y1="312.5" x2="274.385" y2="262.08333333333337" stroke="black"/><line x1="275.19166666666666" y1="312.5" x2="273.5783333333333" y2="262.08333333333337" stroke="black"/><line x1="271.1583333333333" y1="312.5" x2="272.77166666666665" y2="262.08333333333337" stroke="black"/><line x1="271.1583333333333" y1="312.5" x2="271.965" y2="262.08333333333337" stroke="black"/><line x1="271.1583333333333" y1="312.5" x2="271.1583333333333" y2="262.08333333333337" stroke="black"/><line x1="271.1583333333333" y1="312.5" x2="270.3516666666667" y2="262.08333333333337" stroke="black"/><line x1="271.1583333333333" y1="312.5" x2="269.545" y2="262.08333333333337" stroke="black"/><line x1="267.125" y1="312.5" x2="268.73833333333334" y2="262.08333333333337" stroke="black"/><line x1="267.125" y1="312.5" x2="267.9316666666667" y2="262.08333333333337" stroke="black"/><line x1="267.125" y1="312.5" x2="267.125" y2="262.08333333333337" stroke="black"/><line x1="267.125" y1="312.5" x2="266.3183333333334" y2="262.08333333333337" stroke="black"/><line x1="267.125" y1="312.5" x2="265.5116666666667" y2="262.08333333333337" stroke="black"/><circle cx="287.2916666666667" cy="463.75000000000006" r="10" fill="rgb(229 0 125)" stroke="black" stroke-width="2"/><circle cx="488.95833333333337" cy="413.33333333333337" r="10" fill="rgb(229 0 125)" stroke="black" stroke-width="2"/><circle cx="529.2916666666667" cy="362.9166666666667" r="10" fill="rgb(229 0 125)" stroke="black" stroke-width="2"/><circle cx="509.125" cy="362.9166666666667" r="10" fill="rgb(229 0 125)" stroke="black" stroke-width="2"/><circle cx="488.95833333333337" cy="362.9166666666667" r="10" fill="rgb(229 0 125)" stroke="black" stroke-width="2"/><circle cx="468.7916666666667" cy="362.9166666666667" r="10" fill="rgb(229 0 125)" stroke="black" stroke-width="2"/><circle cx="448.62500000000006" cy="362.9166666666667" r="10" fill="rgb(229 0 125)" stroke="black" stroke-width="2"/><circle cx="388.125" cy="413.33333333333337" r="10" fill="rgb(229 0 125)" stroke="black" stroke-width="2"/><circle cx="428.45833333333337" cy="362.9166666666667" r="10" fill="rgb(229 0 125)" stroke="black" stroke-width="2"/><circle cx="408.29166666666674" cy="362.9166666666667" r="10" fill="rgb(229 0 125)" stroke="black" stroke-width="2"/><circle cx="388.125" cy="362.9166666666667" r="10" fill="rgb(229 0 125)" stroke="black" stroke-width="2"/><circle cx="367.95833333333337" cy="362.9166666666667" r="10" fill="rgb(229 0 125)" stroke="black" stroke-width="2"/><circle cx="347.7916666666667" cy="362.9166666666667" r="10" fill="rgb(229 0 125)" stroke="black" stroke-width="2"/><circle cx="287.2916666666667" cy="413.33333333333337" r="10" fill="rgb(229 0 125)" stroke="black" stroke-width="2"/><circle cx="327.625" cy="362.9166666666667" r="10" fill="rgb(229 0 125)" stroke="black" stroke-width="2"/><circle cx="335.6916666666667" cy="312.5" r="10" fill="rgb(229 0 125)" stroke="black" stroke-width="2"/><circle cx="331.6583333333333" cy="312.5" r="10" fill="rgb(229 0 125)" stroke="black" stroke-width="2"/><circle cx="327.625" cy="312.5" r="10" fill="rgb(229 0 125)" stroke="black" stroke-width="2"/><circle cx="323.5916666666667" cy="312.5" r="10" fill="rgb(229 0 125)" stroke="black" stroke-width="2"/><circle cx="319.55833333333334" cy="312.5" r="10" fill="rgb(229 0 125)" stroke="black" stroke-width="2"/><circle cx="307.45833333333337" cy="362.9166666666667" r="10" fill="rgb(229 0 125)" stroke="black" stroke-width="2"/><circle cx="315.525" cy="312.5" r="10" fill="rgb(229 0 125)" stroke="black" stroke-width="2"/><circle cx="311.4916666666667" cy="312.5" r="10" fill="rgb(229 0 125)" stroke="black" stroke-width="2"/><circle cx="307.45833333333337" cy="312.5" r="10" fill="rgb(229 0 125)" stroke="black" stroke-width="2"/><circle cx="303.425" cy="312.5" r="10" fill="rgb(229 0 125)" stroke="black" stroke-width="2"/><circle cx="299.3916666666667" cy="312.5" r="10" fill="rgb(229 0 125)" stroke="black" stroke-width="2"/><circle cx="287.2916666666667" cy="362.9166666666667" r="10" fill="rgb(229 0 125)" stroke="black" stroke-width="2"/><circle cx="295.35833333333335" cy="312.5" r="10" fill="rgb(229 0 125)" stroke="black" stroke-width="2"/><circle cx="291.325" cy="312.5" r="10" fill="rgb(229 0 125)" stroke="black" stroke-width="2"/><circle cx="287.2916666666667" cy="312.5" r="10" fill="rgb(229 0 125)" stroke="black" stroke-width="2"/><circle cx="283.2583333333333" cy="312.5" r="10" fill="rgb(229 0 125)" stroke="black" stroke-width="2"/><circle cx="279.225" cy="312.5" r="10" fill="rgb(229 0 125)" stroke="black" stroke-width="2"/><circle cx="267.125" cy="362.9166666666667" r="10" fill="rgb(229 0 125)" stroke="black" stroke-width="2"/><circle cx="275.19166666666666" cy="312.5" r="10" fill="rgb(229 0 125)" stroke="black" stroke-width="2"/><circle cx="276.805" cy="262.08333333333337" r="10" fill="rgb(229 0 125)" stroke="black" stroke-width="2"/><circle cx="275.99833333333333" cy="262.08333333333337" r="10" fill="rgb(229 0 125)" stroke="black" stroke-width="2"/><circle cx="275.19166666666666" cy="262.08333333333337" r="10" fill="rgb(229 0 125)" stroke="black" stroke-width="2"/><circle cx="274.385" cy="262.08333333333337" r="10" fill="rgb(229 0 125)" stroke="black" stroke-width="2"/><circle cx="273.5783333333333" cy="262.08333333333337" r="10" fill="rgb(229 0 125)" stroke="black" stroke-width="2"/><circle cx="271.1583333333333" cy="312.5" r="10" fill="rgb(229 0 125)" stroke="black" stroke-width="2"/><circle cx="272.77166666666665" cy="262.08333333333337" r="10" fill="rgb(229 0 125)" stroke="black" stroke-width="2"/><circle cx="271.965" cy="262.08333333333337" r="10" fill="rgb(229 0 125)" stroke="black" stroke-width="2"/><circle cx="271.1583333333333" cy="262.08333333333337" r="10" fill="rgb(229 0 125)" stroke="black" stroke-width="2"/><circle cx="270.3516666666667" cy="262.08333333333337" r="10" fill="rgb(229 0 125)" stroke="black" stroke-width="2"/><circle cx="269.545" cy="262.08333333333337" r="10" fill="rgb(229 0 125)" stroke="black" stroke-width="2"/><circle cx="267.125" cy="312.5" r="10" fill="rgb(229 0 125)" stroke="black" stroke-width="2"/><circle cx="268.73833333333334" cy="262.08333333333337" r="10" fill="rgb(229 0 125)" stroke="black" stroke-width="2"/><circle cx="267.9316666666667" cy="262.08333333333337" r="10" fill="rgb(229 0 125)" stroke="black" stroke-width="2"/><circle cx="267.125" cy="262.08333333333337" r="10" fill="rgb(229 0 125)" stroke="black" stroke-width="2"/><circle cx="266.3183333333334" cy="262.08333333333337" r="10" fill="rgb(229 0 125)" stroke="black" stroke-width="2"/><circle cx="265.5116666666667" cy="262.08333333333337" r="10" fill="rgb(229 0 125)" stroke="black" stroke-width="2"/><circle cx="263.0916666666667" cy="312.5" r="10" fill="rgb(229 0 125)" stroke="black" stroke-width="2"/><circle cx="259.05833333333334" cy="312.5" r="10" fill="rgb(229 0 125)" stroke="black" stroke-width="2"/><circle cx="246.95833333333337" cy="362.9166666666667" r="10" fill="rgb(229 0 125)" stroke="black" stroke-width="2"/><circle cx="186.45833333333331" cy="413.33333333333337" r="10" fill="rgb(229 0 125)" stroke="black" stroke-width="2"/><circle cx="85.625" cy="413.33333333333337" r="10" fill="rgb(229 0 125)" stroke="black" stroke-width="2"/></svg>