<svg xmlns="http://www.w3.org/2000/svg" width="527.1676587301588" height="492.65625" style="background: white;"><line x1="263.5838293650794" y1="41.51041666666667" x2="47.5124007936508" y2="104.53125" stroke="rgb(0 159 227)" stroke-width="5"/><line x1="263.5838293650794" y1="41.51041666666667" x2="119.53621031746033" y2="104.53125" stroke="rgb(0 159 227)" stroke-width="5"/><line x1="263.5838293650794" y1="41.51041666666667" x2="191.56001984126985" y2="104.53125" stroke="rgb(0 159 227)" stroke-width="5"/><line x1="263.5838293650794" y1="41.51041666666667" x2="263.5838293650794" y2="104.53125" stroke="rgb(0 159 227)" stroke-width="5"/><line x1="263.5838293650794" y1="41.51041666666667" x2="335.6076388888889" y2="104.53125" stroke="rgb(0 159 227)" stroke-width="5"/><line x1="263.5838293650794" y1="41.51041666666667" x2="407.63144841269843" y2="104.53125" stroke="rgb(0 159 227)" stroke-width="5"/><line x1="263.5838293650794" y1="41.51041666666667" x2="479.65525793650795" y2="104.53125" stroke="rgb(0 159 227)" stroke-width="5"/><line x1="47.5124007936508" y1="104.53125" x2="16.645053854875286" y2="167.55208333333334" stroke="rgb(0 159 227)" stroke-width="5"/><line x1="47.5124007936508" y1="104.53125" x2="26.934169501133788" y2="167.55208333333334" stroke="rgb(0 159 227)" stroke-width="5"/><line x1="47.5124007936508" y1="104.53125" x2="37.22328514739229" y2="167.55208333333334" stroke="rgb(0 159 227)" stroke-width="5"/><line x1="47.5124007936508" y1="104.53125" x2="47.5124007936508" y2="167.55208333333334" stroke="rgb(0 159 227)" stroke-width="5"/><line x1="47.5124007936508" y1="104.53125" x2="57.80151643990929" y2="167.55208333333334" stroke="rgb(0 159 227)" stroke-width="5"/><line x1="47.5124007936508" y1="104.53125" x2="68.0906320861678" y2="167.55208333333334" stroke="rgb(0 159 227)" stroke-width="5"/><line x1="47.5124007936508" y1="104.53125" x2="78.37974773242631" y2="167.55208333333334" stroke="rgb(0 159 227)" stroke-width="5"/><line x1="119.53621031746033" y1="104.53125" x2="88.66886337868482" y2="167.55208333333334" stroke="rgb(0 159 227)" stroke-width="5"/><line x1="119.53621031746033" y1="104.53125" x2="98.95797902494331" y2="167.55208333333334" stroke="rgb(0 159 227)" stroke-width="5"/><line x1="119.53621031746033" y1="104.53125" x2="109.24709467120182" y2="167.55208333333334" stroke="rgb(0 159 227)" stroke-width="5"/><line x1="119.53621031746033" y1="104.53125" x2="119.53621031746033" y2="167.55208333333334" stroke="rgb(0 159 227)" stroke-width="5"/><line x1="119.53621031746033" y1="104.53125" x2="129.82532596371885" y2="167.55208333333334" stroke="rgb(0 159 227)" stroke-width="5"/><line x1="119.53621031746033" y1="104.53125" x2="140.11444160997732" y2="167.55208333333334" stroke="rgb(0 159 227)" stroke-width="5"/><line x1="119.53621031746033" y1="104.53125" x2="150.40355725623584" y2="167.55208333333334" stroke="rgb(0 159 227)" stroke-width="5"/><line x1="88.66886337868482" y1="167.55208333333334" x2="84.38173185941044" y2="230.57291666666669" stroke="rgb(0 159 227)" stroke-width="5"/><line x1="88.66886337868482" y1="167.55208333333334" x2="86.09658446712018" y2="230.57291666666669" stroke="rgb(0 159 227)" stroke-width="5"/><line x1="88.66886337868482" y1="167.55208333333334" x2="87.81143707482994" y2="230.57291666666669" stroke="rgb(0 159 227)" stroke-width="5"/><line x1="88.66886337868482" y1="167.55208333333334" x2="89.52628968253968" y2="230.57291666666669" stroke="rgb(0 159 227)" stroke-width="5"/><line x1="88.66886337868482" y1="167.55208333333334" x2="91.24114229024943" y2="230.57291666666669" stroke="rgb(0 159 227)" stroke-width="5"/><line x1="88.66886337868482" y1="167.55208333333334" x2="92.95599489795917" y2="230.57291666666669" stroke="rgb(0 159 227)" stroke-width="5"/><line x1="98.95797902494331" y1="167.55208333333334" x2="94.67084750566895" y2="230.57291666666669" stroke="rgb(0 159 227)" stroke-width="5"/><line x1="98.95797902494331" y1="167.55208333333334" x2="96.38570011337869" y2="230.57291666666669" stroke="rgb(0 159 227)" stroke-width="5"/><line x1="98.95797902494331" y1="167.55208333333334" x2="98.10055272108843" y2="230.57291666666669" stroke="rgb(0 159 227)" stroke-width="5"/><line x1="98.95797902494331" y1="167.55208333333334" x2="99.81540532879819" y2="230.57291666666669" stroke="rgb(0 159 227)" stroke-width="5"/><line x1="98.95797902494331" y1="167.55208333333334" x2="101.53025793650794" y2="230.57291666666669" stroke="rgb(0 159 227)" stroke-width="5"/><line x1="98.95797902494331" y1="167.55208333333334" x2="103.24511054421768" y2="230.57291666666669" stroke="rgb(0 159 227)" stroke-width="5"/><line x1="140.11444160997732" y1="167.55208333333334" x2="136.68473639455783" y2="230.57291666666669" stroke="rgb(0 159 227)" stroke-width="5"/><line x1="140.11444160997732" y1="167.55208333333334" x2="140.11444160997732" y2="230.57291666666669" stroke="rgb(0 159 227)" stroke-width="5"/><line x1="140.11444160997732" y1="167.55208333333334" x2="143.54414682539684" y2="230.57291666666669" stroke="rgb(0 159 227)" stroke-width="5"/><line x1="191.56001984126985" y1="104.53125" x2="161.55009920634922" y2="167.55208333333334" stroke="rgb(0 159 227)" stroke-width="5"/><line x1="191.56001984126985" y1="104.53125" x2="173.55406746031747" y2="167.55208333333334" stroke="rgb(0 159 227)" stroke-width="5"/><line x1="191.56001984126985" y1="104.53125" x2="185.55803571428572" y2="167.55208333333334" stroke="rgb(0 159 227)" stroke-width="5"/><line x1="191.56001984126985" y1="104.53125" x2="197.56200396825398" y2="167.55208333333334" stroke="rgb(0 159 227)" stroke-width="5"/><line x1="191.56001984126985" y1="104.53125" x2="209.56597222222223" y2="167.55208333333334" stroke="rgb(0 159 227)" stroke-width="5"/><line x1="191.56001984126985" y1="104.53125" x2="221.56994047619048" y2="167.55208333333334" stroke="rgb(0 159 227)" stroke-width="5"/><line x1="407.63144841269843" y1="104.53125" x2="380.6225198412699" y2="167.55208333333334" stroke="rgb(0 159 227)" stroke-width="5"/><line x1="407.63144841269843" y1="104.53125" x2="398.62847222222223" y2="167.55208333333334" stroke="rgb(0 159 227)" stroke-width="5"/><line x1="407.63144841269843" y1="104.53125" x2="416.63442460317464" y2="167.55208333333334" stroke="rgb(0 159 227)" stroke-width="5"/><line x1="407.63144841269843" y1="104.53125" x2="434.640376984127" y2="167.55208333333334" stroke="rgb(0 159 227)" stroke-width="5"/><line x1="479.65525793650795" y1="104.53125" x2="455.64732142857144" y2="167.55208333333334" stroke="rgb(0 159 227)" stroke-width="5"/><line x1="479.65525793650795" y1="104.53125" x2="479.65525793650795" y2="167.55208333333334" stroke="rgb(0 159 227)" stroke-width="5"/><line x1="479.65525793650795" y1="104.53125" x2="503.66319444444446" y2="167.55208333333334" stroke="rgb(0 159 227)" stroke-width="5"/><line x1="263.5838293650794" y1="41.51041666666667" x2="47.5124007936508" y2="104.53125" stroke="black"/><line x1="263.5838293650794" y1="41.51041666666667" x2="119.53621031746033" y2="104.53125" stroke="black"/><line x1="263.5838293650794" y1="41.51041666666667" x2="191.56001984126985" y2="104.53125" stroke="black"/><line x1="263.5838293650794" y1="41.51041666666667" x2="263.5838293650794" y2="104.53125" stroke="black"/><line x1="263.5838293650794" y1="41.51041666666667" x2="335.6076388888889" y2="104.53125" stroke="black"/><line x1="263.5838293650794" y1="41.51041666666667" x2="407.63144841269843" y2="104.53125" stroke="black"/><line x1="263.5838293650794" y1="41.51041666666667" x2="479.65525793650795" y2="104.53125" stroke="black"/><line x1="47.5124007936508" y1="104.53125" x2="16.645053854875286" y2="167.55208333333334" stroke="black"/><line x1="47.5124007936508" y1="104.53125" x2="26.934169501133788" y2="167.55208333333334" stroke="black"/><line x1="47.5124007936508" y1="104.53125" x2="37.22328514739229" y2="167.55208333333334" stroke="black"/><line x1="47.5124007936508" y1="104.53125" x2="47.5124007936508" y2="167.55208333333334" stroke="black"/><line x1="47.5124007936508" y1="104.53125" x2="57.80151643990929" y2="167.55208333333334" stroke="black"/><line x1="47.5124007936508" y1="104.53125" x2="68.0906320861678" y2="167.55208333333334" stroke="black"/><line x1="47.5124007936508" y1="104.53125" x2="78.37974773242631" y2="167.55208333333334" stroke="black"/><line x1="119.53621031746033" y1="104.53125" x2="88.66886337868482" y2="167.55208333333334" stroke="black"/><line x1="119.53621031746033" y1="104.53125" x2="98.95797902494331" y2="167.55208333333334" stroke="black"/><line x1="119.53621031746033" y1="104.53125" x2="109.24709467120182" y2="167.55208333333334" stroke="black"/><line x1="119.53621031746033" y1="104.53125" x2="119.53621031746033" y2="167.55208333333334" stroke="black"/><line x1="119.53621031746033" y1="104.53125" x2="129.82532596371885" y2="167.55208333333334" stroke="black"/><line x1="119.53621031746033" y1="104.53125" x2="140.11444160997732" y2="167.55208333333334" stroke="black"/><line x1="119.53621031746033" y1="104.53125" x2="150.40355725623584" y2="167.55208333333334" stroke="black"/><line x1="88.66886337868482" y1="167.55208333333334" x2="84.38173185941044" y2="230.57291666666669" stroke="black"/><line x1="88.66886337868482" y1="167.55208333333334" x2="86.09658446712018" y2="230.57291666666669" stroke="black"/><line x1="88.66886337868482" y1="167.55208333333334" x2="87.81143707482994" y2="230.57291666666669" stroke="black"/><line x1="88.66886337868482" y1="167.55208333333334" x2="89.52628968253968" y2="230.57291666666669" stroke="black"/><line x1="88.66886337868482" y1="167.55208333333334" x2="91.24114229024943" y2="230.57291666666669" stroke="black"/><line x1="88.66886337868482" y1="167.55208333333334" x2="92.95599489795917" y2="230.57291666666669" stroke="black"/><line x1="98.95797902494331" y1="167.55208333333334" x2="94.67084750566895" y2="230.57291666666669" stroke="black"/><line x1="98.95797902494331" y1="167.55208333333334" x2="96.38570011337869" y2="230.57291666666669" stroke="black"/><line x1="98.95797902494331" y1="167.55208333333334" x2="98.10055272108843" y2="230.57291666666669" stroke="black"/><line x1="98.95797902494331" y1="167.55208333333334" x2="99.81540532879819" y2="230.57291666666669" stroke="black"/><line x1="98.95797902494331" y1="167.55208333333334" x2="101.53025793650794" y2="230.57291666666669" stroke="black"/><line x1="98.95797902494331" y1="167.55208333333334" x2="103.24511054421768" y2="230.57291666666669" stroke="black"/><line x1="140.11444160997732" y1="167.55208333333334" x2="136.68473639455783" y2="230.57291666666669" stroke="black"/><line x1="140.11444160997732" y1="167.55208333333334" x2="140.11444160997732" y2="230.57291666666669" stroke="black"/><line x1="140.11444160997732" y1="167.55208333333334" x2="143.54414682539684" y2="230.57291666666669" stroke="black"/><line x1="191.56001984126985" y1="104.53125" x2="161.55009920634922" y2="167.55208333333334" stroke="black"/><line x1="191.56001984126985" y1="104.53125" x2="173.55406746031747" y2="167.55208333333334" stroke="black"/><line x1="191.56001984126985" y1="104.53125" x2="185.55803571428572" y2="167.55208333333334" stroke="black"/><line x1="191.56001984126985" y1="104.53125" x2="197.56200396825398" y2="167.55208333333334" stroke="black"/><line x1="191.56001984126985" y1="104.53125" x2="209.56597222222223" y2="167.55208333333334" stroke="black"/><line x1="191.56001984126985" y1="104.53125" x2="221.56994047619048" y2="167.55208333333334" stroke="black"/><line x1="407.63144841269843" y1="104.53125" x2="380.6225198412699" y2="167.55208333333334" stroke="black"/><line x1="407.63144841269843" y1="104.53125" x2="398.62847222222223" y2="167.55208333333334" stroke="black"/><line x1="407.63144841269843" y1="104.53125" x2="416.63442460317464" y2="167.55208333333334" stroke="black"/><line x1="407.63144841269843" y1="104.53125" x2="434.640376984127" y2="167.55208333333334" stroke="black"/><line x1="479.65525793650795" y1="104.53125" x2="455.64732142857144" y2="167.55208333333334" stroke="black"/><line x1="479.65525793650795" y1="104.53125" x2="479.65525793650795" y2="167.55208333333334" stroke="black"/><line x1="479.65525793650795" y1="104.53125" x2="503.66319444444446" y2="167.55208333333334" stroke="black"/><circle cx="263.5838293650794" cy="41.51041666666667" r="10" fill="rgb(229 0 125)" stroke="black" stroke-width="2"/><circle cx="47.5124007936508" cy="104.53125" r="10" fill="rgb(229 0 125)" stroke="black" stroke-width="2"/><circle cx="16.645053854875286" cy="167.55208333333334" r="10" fill="rgb(229 0 125)" stroke="black" stroke-width="2"/><circle cx="26.934169501133788" cy="167.55208333333334" r="10" fill="rgb(229 0 125)" stroke="black" stroke-width="2"/><circle cx="37.22328514739229" cy="167.55208333333334" r="10" fill="rgb(229 0 125)" stroke="black" stroke-width="2"/><circle cx="47.5124007936508" cy="167.55208333333334" r="10" fill="rgb(229 0 125)" stroke="black" stroke-width="2"/><circle cx="57.80151643990929" cy="167.55208333333334" r="10" fill="rgb(229 0 125)" stroke="black" stroke-width="2"/><circle cx="68.0906320861678" cy="167.55208333333334" r="10" fill="rgb(229 0 125)" stroke="black" stroke-width="2"/><circle cx="78.37974773242631" cy="167.55208333333334" r="10" fill="rgb(229 0 125)" stroke="black" stroke-width="2"/><circle cx="119.53621031746033" cy="104.53125" r="10" fill="rgb(229 0 125)" stroke="black" stroke-width="2"/><circle cx="88.66886337868482" cy="167.55208333333334" r="10" fill="rgb(229 0 125)" stroke="black" stroke-width="2"/><circle cx="84.38173185941044" cy="230.57291666666669" r="10" fill="rgb(229 0 125)" stroke="black" stroke-width="2"/><circle cx="86.09658446712018" cy="230.57291666666669" r="10" fill="rgb(229 0 125)" stroke="black" stroke-width="2"/><circle cx="87.81143707482994" cy="230.57291666666669" r="10" fill="rgb(229 0 125)" stroke="black" stroke-width="2"/><circle cx="89.52628968253968" cy="230.57291666666669" r="10" fill="rgb(229 0 125)" stroke="black" stroke-width="2"/><circle cx="91.24114229024943" cy="230.57291666666669" r="10" fill="rgb(229 0 125)" stroke="black" stroke-width="2"/><circle cx="92.95599489795917" cy="230.57291666666669" r="10" fill="rgb(229 0 125)" stroke="black" stroke-width="2"/><circle cx="98.95797902494331" cy="167.55208333333334" r="10" fill="rgb(229 0 125)" stroke="black" stroke-width="2"/><circle cx="94.67084750566895" cy="230.57291666666669" r="10" fill="rgb(229 0 125)" stroke="black" stroke-width="2"/><circle cx="96.38570011337869" cy="230.57291666666669" r="10" fill="rgb(229 0 125)" stroke="black" stroke-width="2"/><circle cx="98.10055272108843" cy="230.57291666666669" r="10" fill="rgb(229 0 125)" stroke="black" stroke-width="2"/><circle cx="99.81540532879819" cy="230.57291666666669" r="10" fill="rgb(229 0 125)" stroke="black" stroke-width="2"/><circle cx="101.53025793650794" cy="230.57291666666669" r="10" fill="rgb(229 0 125)" stroke="black" stroke-width="2"/><circle cx="103.24511054421768" cy="230.57291666666669" r="10" fill="rgb(229 0 125)" stroke="black" stroke-width="2"/><circle cx="109.24709467120182" cy="167.55208333333334" r="10" fill="rgb(229 0 125)" stroke="black" stroke-width="2"/><circle cx="119.53621031746033" cy="167.55208333333334" r="10" fill="rgb(229 0 125)" stroke="black" stroke-width="2"/><circle cx="129.82532596371885" cy="167.55208333333334" r="10" fill="rgb(229 0 125)" stroke="black" stroke-width="2"/><circle cx="140.11444160997732" cy="167.55208333333334" r="10" fill="rgb(229 0 125)" stroke="black" stroke-width="2"/><circle cx="136.68473639455783" cy="230.57291666666669" r="10" fill="rgb(229 0 125)" stroke="black" stroke-width="2"/><circle cx="140.11444160997732" cy="230.57291666666669" r="10" fill="rgb(229 0 125)" stroke="black" stroke-width="2"/><circle cx="143.54414682539684" cy="230.57291666666669" r="10" fill="rgb(229 0 125)" stroke="black" stroke-width="2"/><circle cx="150.40355725623584" cy="167.55208333333334" r="10" fill="rgb(229 0 125)" stroke="black" stroke-width="2"/><circle cx="191.56001984126985" cy="104.53125" r="10" fill="rgb(229 0 125)" stroke="black" stroke-width="2"/><circle cx="161.55009920634922" cy="167.55208333333334" r="10" fill="rgb(229 0 125)" stroke="black" stroke-width="2"/><circle cx="173.55406746031747" cy="167.55208333333334" r="10" fill="rgb(229 0 125)" stroke="black" stroke-width="2"/><circle cx="185.55803571428572" cy="167.55208333333334" r="10" fill="rgb(229 0 125)" stroke="black" stroke-width="2"/><circle cx="197.56200396825398" cy="167.55208333333334" r="10" fill="rgb(229 0 125)" stroke="black" stroke-width="2"/><circle cx="209.56597222222223" cy="167.55208333333334" r="10" fill="rgb(229 0 125)" stroke="black" stroke-width="2"/><circle cx="221.56994047619048" cy="167.55208333333334" r="10" fill="rgb(229 0 125)" stroke="black" stroke-width="2"/><circle cx="263.5838293650794" cy="104.53125" r="10" fill="rgb(229 0 125)" stroke="black" stroke-width="2"/><circle cx="335.6076388888889" cy="104.53125" r="10" fill="rgb(229 0 125)" stroke="black" stroke-width="2"/><circle cx="407.63144841269843" cy="104.53125" r="10" fill="rgb(229 0 125)" stroke="black" stroke-width="2"/><circle cx="380.6225198412699" cy="167.55208333333334" r="10" fill="rgb(229 0 125)" stroke="black" stroke-width="2"/><circle cx="398.62847222222223" cy="167.55208333333334" r="10" fill="rgb(229 0 125)" stroke="black" stroke-width="2"/><circle cx="416.63442460317464" cy="167.55208333333334" r="10" fill="rgb(229 0 125)" stroke="black" stroke-width="2"/><circle cx="434.640376984127" cy="167.55208333333334" r="10" fill="rgb(229 0 125)" stroke="black" stroke-width="2"/><circle cx="479.65525793650795" cy="104.53125" r="10" fill="rgb(229 0 125)" stroke="black" stroke-width="2"/><circle cx="455.64732142857144" cy="167.55208333333334" r="10" fill="rgb(229 0 125)" stroke="black" stroke-width="2"/><circle cx="479.65525793650795" cy="167.55208333333334" r="10" fill="rgb(229 0 125)" stroke="black" stroke-width="2"/><circle cx="503.66319444444446" cy="167.55208333333334" r="10" fill="rgb(229 0 125)" stroke="black" stroke-width="2"/><line x1="263.5838293650794" y1="451.1458333333333" x2="479.655257936508" y2="388.125" stroke="rgb(0 159 227)" stroke-width="5"/><line x1="263.5838293650794" y1="451.1458333333333" x2="407.63144841269843" y2="388.125" stroke="rgb(0 159 227)" stroke-width="5"/><line x1="263.5838293650794" y1="451.1458333333333" x2="335.6076388888889" y2="388.125" stroke="rgb(0 159 227)" stroke-width="5"/><line x1="263.5838293650794" y1="451.1458333333333" x2="263.5838293650794" y2="388.125" stroke="rgb(0 159 227)" stroke-width="5"/><line x1="263.5838293650794" y1="451.1458333333333" x2="191.56001984126988" y2="388.125" stroke="rgb(0 159 227)" stroke-width="5"/><line x1="263.5838293650794" y1="451.1458333333333" x2="119.53621031746036" y2="388.125" stroke="rgb(0 159 227)" stroke-width="5"/><line x1="263.5838293650794" y1="451.1458333333333" x2="47.51240079365084" y2="388.125" stroke="rgb(0 159 227)" stroke-width="5"/><line x1="479.655257936508" y1="388.125" x2="510.5226048752835" y2="325.10416666666663" stroke="rgb(0 159 227)" stroke-width="5"/><line x1="479.655257936508" y1="388.125" x2="500.233489229025" y2="325.10416666666663" stroke="rgb(0 159 227)" stroke-width="5"/><line x1="479.655257936508" y1="388.125" x2="489.9443735827665" y2="325.10416666666663" stroke="rgb(0 159 227)" stroke-width="5"/><line x1="479.655257936508" y1="388.125" x2="479.655257936508" y2="325.10416666666663" stroke="rgb(0 159 227)" stroke-width="5"/><line x1="479.655257936508" y1="388.125" x2="469.3661422902495" y2="325.10416666666663" stroke="rgb(0 159 227)" stroke-width="5"/><line x1="479.655257936508" y1="388.125" x2="459.07702664399096" y2="325.10416666666663" stroke="rgb(0 159 227)" stroke-width="5"/><line x1="479.655257936508" y1="388.125" x2="448.78791099773247" y2="325.10416666666663" stroke="rgb(0 159 227)" stroke-width="5"/><line x1="407.63144841269843" y1="388.125" x2="438.498795351474" y2="325.10416666666663" stroke="rgb(0 159 227)" stroke-width="5"/><line x1="407.63144841269843" y1="388.125" x2="428.2096797052155" y2="325.10416666666663" stroke="rgb(0 159 227)" stroke-width="5"/><line x1="407.63144841269843" y1="388.125" x2="417.920564058957" y2="325.10416666666663" stroke="rgb(0 159 227)" stroke-width="5"/><line x1="407.63144841269843" y1="388.125" x2="407.63144841269843" y2="325.10416666666663" stroke="rgb(0 159 227)" stroke-width="5"/><line x1="407.63144841269843" y1="388.125" x2="397.34233276643994" y2="325.10416666666663" stroke="rgb(0 159 227)" stroke-width="5"/><line x1="407.63144841269843" y1="388.125" x2="387.05321712018144" y2="325.10416666666663" stroke="rgb(0 159 227)" stroke-width="5"/><line x1="407.63144841269843" y1="388.125" x2="376.76410147392295" y2="325.10416666666663" stroke="rgb(0 159 227)" stroke-width="5"/><line x1="438.498795351474" y1="325.10416666666663" x2="442.78592687074837" y2="262.0833333333333" stroke="rgb(0 159 227)" stroke-width="5"/><line x1="438.498795351474" y1="325.10416666666663" x2="441.0710742630386" y2="262.0833333333333" stroke="rgb(0 159 227)" stroke-width="5"/><line x1="438.498795351474" y1="325.10416666666663" x2="439.35622165532885" y2="262.0833333333333" stroke="rgb(0 159 227)" stroke-width="5"/><line x1="438.498795351474" y1="325.10416666666663" x2="437.6413690476191" y2="262.0833333333333" stroke="rgb(0 159 227)" stroke-width="5"/><line x1="438.498795351474" y1="325.10416666666663" x2="435.9265164399094" y2="262.0833333333333" stroke="rgb(0 159 227)" stroke-width="5"/><line x1="438.498795351474" y1="325.10416666666663" x2="434.21166383219963" y2="262.0833333333333" stroke="rgb(0 159 227)" stroke-width="5"/><line x1="428.2096797052155" y1="325.10416666666663" x2="432.4968112244899" y2="262.0833333333333" stroke="rgb(0 159 227)" stroke-width="5"/><line x1="428.2096797052155" y1="325.10416666666663" x2="430.7819586167801" y2="262.0833333333333" stroke="rgb(0 159 227)" stroke-width="5"/><line x1="428.2096797052155" y1="325.10416666666663" x2="429.06710600907036" y2="262.0833333333333" stroke="rgb(0 159 227)" stroke-width="5"/><line x1="428.2096797052155" y1="325.10416666666663" x2="427.3522534013606" y2="262.0833333333333" stroke="rgb(0 159 227)" stroke-width="5"/><line x1="428.2096797052155" y1="325.10416666666663" x2="425.63740079365084" y2="262.0833333333333" stroke="rgb(0 159 227)" stroke-width="5"/><line x1="428.2096797052155" y1="325.10416666666663" x2="423.9225481859411" y2="262.0833333333333" stroke="rgb(0 159 227)" stroke-width="5"/><line x1="387.05321712018144" y1="325.10416666666663" x2="390.48292233560096" y2="262.0833333333333" stroke="rgb(0 159 227)" stroke-width="5"/><line x1="387.05321712018144" y1="325.10416666666663" x2="387.05321712018144" y2="262.0833333333333" stroke="rgb(0 159 227)" stroke-width="5"/><line x1="387.05321712018144" y1="325.10416666666663" x2="383.6235119047619" y2="262.0833333333333" stroke="rgb(0 159 227)" stroke-width="5"/><line x1="335.6076388888889" y1="388.125" x2="365.6175595238096" y2="325.10416666666663" stroke="rgb(0 159 227)" stroke-width="5"/><line x1="335.6076388888889" y1="388.125" x2="353.6135912698413" y2="325.10416666666663" stroke="rgb(0 159 227)" stroke-width="5"/><line x1="335.6076388888889" y1="388.125" x2="341.60962301587307" y2="325.10416666666663" stroke="rgb(0 159 227)" stroke-width="5"/><line x1="335.6076388888889" y1="388.125" x2="329.6056547619048" y2="325.10416666666663" stroke="rgb(0 159 227)" stroke-width="5"/><line x1="335.6076388888889" y1="388.125" x2="317.60168650793656" y2="325.10416666666663" stroke="rgb(0 159 227)" stroke-width="5"/><line x1="335.6076388888889" y1="388.125" x2="305.5977182539683" y2="325.10416666666663" stroke="rgb(0 159 227)" stroke-width="5"/><line x1="119.53621031746036" y1="388.125" x2="146.5451388888889" y2="325.10416666666663" stroke="rgb(0 159 227)" stroke-width="5"/><line x1="119.53621031746036" y1="388.125" x2="128.53918650793656" y2="325.10416666666663" stroke="rgb(0 159 227)" stroke-width="5"/><line x1="119.53621031746036" y1="388.125" x2="110.53323412698415" y2="325.10416666666663" stroke="rgb(0 159 227)" stroke-width="5"/><line x1="119.53621031746036" y1="388.125" x2="92.5272817460318" y2="325.10416666666663" stroke="rgb(0 159 227)" stroke-width="5"/><line x1="47.51240079365084" y1="388.125" x2="71.52033730158735" y2="325.10416666666663" stroke="rgb(0 159 227)" stroke-width="5"/><line x1="47.51240079365084" y1="388.125" x2="47.51240079365084" y2="325.10416666666663" stroke="rgb(0 159 227)" stroke-width="5"/><line x1="47.51240079365084" y1="388.125" x2="23.504464285714334" y2="325.10416666666663" stroke="rgb(0 159 227)" stroke-width="5"/><line x1="263.5838293650794" y1="451.1458333333333" x2="479.655257936508" y2="388.125" stroke="black"/><line x1="263.5838293650794" y1="451.1458333333333" x2="407.63144841269843" y2="388.125" stroke="black"/><line x1="263.5838293650794" y1="451.1458333333333" x2="335.6076388888889" y2="388.125" stroke="black"/><line x1="263.5838293650794" y1="451.1458333333333" x2="263.5838293650794" y2="388.125" stroke="black"/><line x1="263.5838293650794" y1="451.1458333333333" x2="191.56001984126988" y2="388.125" stroke="black"/><line x1="263.5838293650794" y1="451.1458333333333" x2="119.53621031746036" y2="388.125" stroke="black"/><line x1="263.5838293650794" y1="451.1458333333333" x2="47.51240079365084" y2="388.125" stroke="black"/><line x1="479.655257936508" y1="388.125" x2="510.5226048752835" y2="325.10416666666663" stroke="black"/><line x1="479.655257936508" y1="388.125" x2="500.233489229025" y2="325.10416666666663" stroke="black"/><line x1="479.655257936508" y1="388.125" x2="489.9443735827665" y2="325.10416666666663" stroke="black"/><line x1="479.655257936508" y1="388.125" x2="479.655257936508" y2="325.10416666666663" stroke="black"/><line x1="479.655257936508" y1="388.125" x2="469.3661422902495" y2="325.10416666666663" stroke="black"/><line x1="479.655257936508" y1="388.125" x2="459.07702664399096" y2="325.10416666666663" stroke="black"/><line x1="479.655257936508" y1="388.125" x2="448.78791099773247" y2="325.10416666666663" stroke="black"/><line x1="407.63144841269843" y1="388.125" x2="438.498795351474" y2="325.10416666666663" stroke="black"/><line x1="407.63144841269843" y1="388.125" x2="428.2096797052155" y2="325.10416666666663" stroke="black"/><line x1="407.63144841269843" y1="388.125" x2="417.920564058957" y2="325.10416666666663" stroke="black"/><line x1="407.63144841269843" y1="388.125" x2="407.63144841269843" y2="325.10416666666663" stroke="black"/><line x1="407.63144841269843" y1="388.125" x2="397.34233276643994" y2="325.10416666666663" stroke="black"/><line x1="407.63144841269843" y1="388.125" x2="387.05321712018144" y2="325.10416666666663" stroke="black"/><line x1="407.63144841269843" y1="388.125" x2="376.76410147392295" y2="325.10416666666663" stroke="black"/><line x1="438.498795351474" y1="325.10416666666663" x2="442.78592687074837" y2="262.0833333333333" stroke="black"/><line x1="438.498795351474" y1="325.10416666666663" x2="441.0710742630386" y2="262.0833333333333" stroke="black"/><line x1="438.498795351474" y1="325.10416666666663" x2="439.35622165532885" y2="262.0833333333333" stroke="black"/><line x1="438.498795351474" y1="325.10416666666663" x2="437.6413690476191" y2="262.0833333333333" stroke="black"/><line x1="438.498795351474" y1="325.10416666666663" x2="435.9265164399094" y2="262.0833333333333" stroke="black"/><line x1="438.498795351474" y1="325.10416666666663" x2="434.21166383219963" y2="262.0833333333333" stroke="black"/><line x1="428.2096797052155" y1="325.10416666666663" x2="432.4968112244899" y2="262.0833333333333" stroke="black"/><line x1="428.2096797052155" y1="325.10416666666663" x2="430.7819586167801" y2="262.0833333333333" stroke="black"/><line x1="428.2096797052155" y1="325.10416666666663" x2="429.06710600907036" y2="262.0833333333333" stroke="black"/><line x1="428.2096797052155" y1="325.10416666666663" x2="427.3522534013606" y2="262.0833333333333" stroke="black"/><line x1="428.2096797052155" y1="325.10416666666663" x2="425.63740079365084" y2="262.0833333333333" stroke="black"/><line x1="428.2096797052155" y1="325.10416666666663" x2="423.9225481859411" y2="262.0833333333333" stroke="black"/><line x1="387.05321712018144" y1="325.10416666666663" x2="390.48292233560096" y2="262.0833333333333" stroke="black"/><line x1="387.05321712018144" y1="325.10416666666663" x2="387.05321712018144" y2="262.0833333333333" stroke="black"/><line x1="387.05321712018144" y1="325.10416666666663" x2="383.6235119047619" y2="262.0833333333333" stroke="black"/><line x1="335.6076388888889" y1="388.125" x2="365.6175595238096" y2="325.10416666666663" stroke="black"/><line x1="335.6076388888889" y1="388.125" x2="353.6135912698413" y2="325.10416666666663" stroke="black"/><line x1="335.6076388888889" y1="388.125" x2="341.60962301587307" y2="325.10416666666663" stroke="black"/><line x1="335.6076388888889" y1="388.125" x2="329.6056547619048" y2="325.10416666666663" stroke="black"/><line x1="335.6076388888889" y1="388.125" x2="317.60168650793656" y2="325.10416666666663" stroke="black"/><line x1="335.6076388888889" y1="388.125" x2="305.5977182539683" y2="325.10416666666663" stroke="black"/><line x1="119.53621031746036" y1="388.125" x2="146.5451388888889" y2="325.10416666666663" stroke="black"/><line x1="119.53621031746036" y1="388.125" x2="128.53918650793656" y2="325.10416666666663" stroke="black"/><line x1="119.53621031746036" y1="388.125" x2="110.53323412698415" y2="325.10416666666663" stroke="black"/><line x1="119.53621031746036" y1="388.125" x2="92.5272817460318" y2="325.10416666666663" stroke="black"/><line x1="47.51240079365084" y1="388.125" x2="71.52033730158735" y2="325.10416666666663" stroke="black"/><line x1="47.51240079365084" y1="388.125" x2="47.51240079365084" y2="325.10416666666663" stroke="black"/><line x1="47.51240079365084" y1="388.125" x2="23.504464285714334" y2="325.10416666666663" stroke="black"/><circle cx="263.5838293650794" cy="451.1458333333333" r="10" fill="rgb(229 0 125)" stroke="black" stroke-width="2"/><circle cx="479.655257936508" cy="388.125" r="10" fill="rgb(229 0 125)" stroke="black" stroke-width="2"/><circle cx="510.5226048752835" cy="325.10416666666663" r="10" fill="rgb(229 0 125)" stroke="black" stroke-width="2"/><circle cx="500.233489229025" cy="325.10416666666663" r="10" fill="rgb(229 0 125)" stroke="black" stroke-width="2"/><circle cx="489.9443735827665" cy="325.10416666666663" r="10" fill="rgb(229 0 125)" stroke="black" stroke-width="2"/><circle cx="479.655257936508" cy="325.10416666666663" r="10" fill="rgb(229 0 125)" stroke="black" stroke-width="2"/><circle cx="469.3661422902495" cy="325.10416666666663" r="10" fill="rgb(229 0 125)" stroke="black" stroke-width="2"/><circle cx="459.07702664399096" cy="325.10416666666663" r="10" fill="rgb(229 0 125)" stroke="black" stroke-width="2"/><circle cx="448.78791099773247" cy="325.10416666666663" r="10" fill="rgb(229 0 125)" stroke="black" stroke-width="2"/><circle cx="407.63144841269843" cy="388.125" r="10" fill="rgb(229 0 125)" stroke="black" stroke-width="2"/><circle cx="438.498795351474" cy="325.10416666666663" r="10" fill="rgb(229 0 125)" stroke="black" stroke-width="2"/><circle cx="442.78592687074837" cy="262.0833333333333" r="10" fill="rgb(229 0 125)" stroke="black" stroke-width="2"/><circle cx="441.0710742630386" cy="262.0833333333333" r="10" fill="rgb(229 0 125)" stroke="black" stroke-width="2"/><circle cx="439.35622165532885" cy="262.0833333333333" r="10" fill="rgb(229 0 125)" stroke="black" stroke-width="2"/><circle cx="437.6413690476191" cy="262.0833333333333" r="10" fill="rgb(229 0 125)" stroke="black" stroke-width="2"/><circle cx="435.9265164399094" cy="262.0833333333333" r="10" fill="rgb(229 0 125)" stroke="black" stroke-width="2"/><circle cx="434.21166383219963" cy="262.0833333333333" r="10" fill="rgb(229 0 125)" stroke="black" stroke-width="2"/><circle cx="428.2096797052155" cy="325.10416666666663" r="10" fill="rgb(229 0 125)" stroke="black" stroke-width="2"/><circle cx="432.4968112244899" cy="262.0833333333333" r="10" fill="rgb(229 0 125)" stroke="black" stroke-width="2"/><circle cx="430.7819586167801" cy="262.0833333333333" r="10" fill="rgb(229 0 125)" stroke="black" stroke-width="2"/><circle cx="429.06710600907036" cy="262.0833333333333" r="10" fill="rgb(229 0 125)" stroke="black" stroke-width="2"/><circle cx="427.3522534013606" cy="262.0833333333333" r="10" fill="rgb(229 0 125)" stroke="black" stroke-width="2"/><circle cx="425.63740079365084" cy="262.0833333333333" r="10" fill="rgb(229 0 125)" stroke="black" stroke-width="2"/><circle cx="423.9225481859411" cy="262.0833333333333" r="10" fill="rgb(229 0 125)" stroke="black" stroke-width="2"/><circle cx="417.920564058957" cy="325.10416666666663" r="10" fill="rgb(229 0 125)" stroke="black" stroke-width="2"/><circle cx="407.63144841269843" cy="325.10416666666663" r="10" fill="rgb(229 0 125)" stroke="black" stroke-width="2"/><circle cx="397.34233276643994" cy="325.10416666666663" r="10" fill="rgb(229 0 125)" stroke="black" stroke-width="2"/><circle cx="387.05321712018144" cy="325.10416666666663" r="10" fill="rgb(229 0 125)" stroke="black" stroke-width="2"/><circle cx="390.48292233560096" cy="262.0833333333333" r="10" fill="rgb(229 0 125)" stroke="black" stroke-width="2"/><circle cx="387.05321712018144" cy="262.0833333333333" r="10" fill="rgb(229 0 125)" stroke="black" stroke-width="2"/><circle cx="383.6235119047619" cy="262.0833333333333" r="10" fill="rgb(229 0 125)" stroke="black" stroke-width="2"/><circle cx="376.76410147392295" cy="325.10416666666663" r="10" fill="rgb(229 0 125)" stroke="black" stroke-width="2"/><circle cx="335.6076388888889" cy="388.125" r="10" fill="rgb(229 0 125)" stroke="black" stroke-width="2"/><circle cx="365.6175595238096" cy="325.10416666666663" r="10" fill="rgb(229 0 125)" stroke="black" stroke-width="2"/><circle cx="353.6135912698413" cy="325.10416666666663" r="10" fill="rgb(229 0 125)" stroke="black" stroke-width="2"/><circle cx="341.60962301587307" cy="325.10416666666663" r="10" fill="rgb(229 0 125)" stroke="black" stroke-width="2"/><circle cx="329.6056547619048" cy="325.10416666666663" r="10" fill="rgb(229 0 125)" stroke="black" stroke-width="2"/><circle cx="317.60168650793656" cy="325.10416666666663" r="10" fill="rgb(229 0 125)" stroke="black" stroke-width="2"/><circle cx="305.5977182539683" cy="325.10416666666663" r="10" fill="rgb(229 0 125)" stroke="black" stroke-width="2"/><circle cx="263.5838293650794" cy="388.125" r="10" fill="rgb(229 0 125)" stroke="black" stroke-width="2"/><circle cx="191.56001984126988" cy="388.125" r="10" fill="rgb(229 0 125)" stroke="black" stroke-width="2"/><circle cx="119.53621031746036" cy="388.125" r="10" fill="rgb(229 0 125)" stroke="black" stroke-width="2"/><circle cx="146.5451388888889" cy="325.10416666666663" r="10" fill="rgb(229 0 125)" stroke="black" stroke-width="2"/><circle cx="128.53918650793656" cy="325.10416666666663" r="10" fill="rgb(229 0 125)" stroke="black" stroke-width="2"/><circle cx="110.53323412698415" cy="325.10416666666663" r="10" fill="rgb(229 0 125)" stroke="black" stroke-width="2"/><circle cx="92.5272817460318" cy="325.10416666666663" r="10" fill="rgb(229 0 125)" stroke="black" stroke-width="2"/><circle cx="47.51240079365084" cy="388.125" r="10" fill="rgb(229 0 125)" stroke="black" stroke-width="2"/><circle cx="71.52033730158735" cy="325.10416666666663" r="10" fill="rgb(229 0 125)" stroke="black" stroke-width="2"/><circle cx="47.51240079365084" cy="325.10416666666663" r="10" fill="rgb(229 0 125)" stroke="black" stroke-width="2"/><circle cx="23.504464285714334" cy="325.10416666666663" r="10" fill="rgb(229 0 125)" stroke="black" stroke-width="2"/></svg>