<svg xmlns="http://www.w3.org/2000/svg" width="529.7685185185187" height="498.95833333333337" style="background: white;"><line x1="264.88425925925935" y1="35.208333333333336" x2="96.82870370370372" y2="85.625" stroke="rgb(0 159 227)" stroke-width="5"/><line x1="264.88425925925935" y1="35.208333333333336" x2="264.88425925925935" y2="85.625" stroke="rgb(0 159 227)" stroke-width="5"/><line x1="264.88425925925935" y1="35.208333333333336" x2="432.9398148148149" y2="85.625" stroke="rgb(0 159 227)" stroke-width="5"/><line x1="96.82870370370372" y1="85.625" x2="40.81018518518519" y2="136.04166666666669" stroke="rgb(0 159 227)" stroke-width="5"/><line x1="96.82870370370372" y1="85.625" x2="96.82870370370372" y2="136.04166666666669" stroke="rgb(0 159 227)" stroke-width="5"/><line x1="96.82870370370372" y1="85.625" x2="152.84722222222226" y2="136.04166666666669" stroke="rgb(0 159 227)" stroke-width="5"/><line x1="40.81018518518519" y1="136.04166666666669" x2="22.13734567901235" y2="186.45833333333334" stroke="rgb(0 159 227)" stroke-width="5"/><line x1="40.81018518518519" y1="136.04166666666669" x2="40.81018518518519" y2="186.45833333333334" stroke="rgb(0 159 227)" stroke-width="5"/><line x1="40.81018518518519" y1="136.04166666666669" x2="59.48302469135804" y2="186.45833333333334" stroke="rgb(0 159 227)" stroke-width="5"/><line x1="22.13734567901235" y1="186.45833333333334" x2="15.9130658436214" y2="236.87500000000003" stroke="rgb(0 159 227)" stroke-width="5"/><line x1="22.13734567901235" y1="186.45833333333334" x2="22.13734567901235" y2="236.87500000000003" stroke="rgb(0 159 227)" stroke-width="5"/><line x1="22.13734567901235" y1="186.45833333333334" x2="28.361625514403297" y2="236.87500000000003" stroke="rgb(0 159 227)" stroke-width="5"/><line x1="40.81018518518519" y1="186.45833333333334" x2="34.585905349794245" y2="236.87500000000003" stroke="rgb(0 159 227)" stroke-width="5"/><line x1="40.81018518518519" y1="186.45833333333334" x2="40.81018518518519" y2="236.87500000000003" stroke="rgb(0 159 227)" stroke-width="5"/><line x1="40.81018518518519" y1="186.45833333333334" x2="47.034465020576135" y2="236.87500000000003" stroke="rgb(0 159 227)" stroke-width="5"/><line x1="59.48302469135804" y1="186.45833333333334" x2="54.814814814814824" y2="236.87500000000003" stroke="rgb(0 159 227)" stroke-width="5"/><line x1="59.48302469135804" y1="186.45833333333334" x2="64.15123456790126" y2="236.87500000000003" stroke="rgb(0 159 227)" stroke-width="5"/><line x1="152.84722222222226" y1="136.04166666666669" x2="134.1743827160494" y2="186.45833333333334" stroke="rgb(0 159 227)" stroke-width="5"/><line x1="152.84722222222226" y1="136.04166666666669" x2="152.84722222222226" y2="186.45833333333334" stroke="rgb(0 159 227)" stroke-width="5"/><line x1="152.84722222222226" y1="136.04166666666669" x2="171.52006172839512" y2="186.45833333333334" stroke="rgb(0 159 227)" stroke-width="5"/><line x1="264.88425925925935" y1="85.625" x2="208.8657407407408" y2="136.04166666666669" stroke="rgb(0 159 227)" stroke-width="5"/><line x1="264.88425925925935" y1="85.625" x2="264.88425925925935" y2="136.04166666666669" stroke="rgb(0 159 227)" stroke-width="5"/><line x1="264.88425925925935" y1="85.625" x2="320.9027777777778" y2="136.04166666666669" stroke="rgb(0 159 227)" stroke-width="5"/><line x1="208.8657407407408" y1="136.04166666666669" x2="190.19290123456796" y2="186.45833333333334" stroke="rgb(0 159 227)" stroke-width="5"/><line x1="208.8657407407408" y1="136.04166666666669" x2="208.8657407407408" y2="186.45833333333334" stroke="rgb(0 159 227)" stroke-width="5"/><line x1="208.8657407407408" y1="136.04166666666669" x2="227.5385802469136" y2="186.45833333333334" stroke="rgb(0 159 227)" stroke-width="5"/><line x1="264.88425925925935" y1="136.04166666666669" x2="246.2114197530865" y2="186.45833333333334" stroke="rgb(0 159 227)" stroke-width="5"/><line x1="264.88425925925935" y1="136.04166666666669" x2="264.88425925925935" y2="186.45833333333334" stroke="rgb(0 159 227)" stroke-width="5"/><line x1="264.88425925925935" y1="136.04166666666669" x2="283.5570987654321" y2="186.45833333333334" stroke="rgb(0 159 227)" stroke-width="5"/><line x1="283.5570987654321" y1="186.45833333333334" x2="278.8888888888889" y2="236.87500000000003" stroke="rgb(0 159 227)" stroke-width="5"/><line x1="283.5570987654321" y1="186.45833333333334" x2="288.22530864197535" y2="236.87500000000003" stroke="rgb(0 159 227)" stroke-width="5"/><line x1="320.9027777777778" y1="136.04166666666669" x2="302.229938271605" y2="186.45833333333334" stroke="rgb(0 159 227)" stroke-width="5"/><line x1="320.9027777777778" y1="136.04166666666669" x2="320.9027777777778" y2="186.45833333333334" stroke="rgb(0 159 227)" stroke-width="5"/><line x1="320.9027777777778" y1="136.04166666666669" x2="339.57561728395063" y2="186.45833333333334" stroke="rgb(0 159 227)" stroke-width="5"/><line x1="432.9398148148149" y1="85.625" x2="376.92129629629636" y2="136.04166666666669" stroke="rgb(0 159 227)" stroke-width="5"/><line x1="432.9398148148149" y1="85.625" x2="432.9398148148149" y2="136.04166666666669" stroke="rgb(0 159 227)" stroke-width="5"/><line x1="432.9398148148149" y1="85.625" x2="488.9583333333334" y2="136.04166666666669" stroke="rgb(0 159 227)" stroke-width="5"/><line x1="264.88425925925935" y1="35.208333333333336" x2="96.82870370370372" y2="85.625" stroke="black"/><line x1="264.88425925925935" y1="35.208333333333336" x2="264.88425925925935" y2="85.625" stroke="black"/><line x1="264.88425925925935" y1="35.208333333333336" x2="432.9398148148149" y2="85.625" stroke="black"/><line x1="96.82870370370372" y1="85.625" x2="40.81018518518519" y2="136.04166666666669" stroke="black"/><line x1="96.82870370370372" y1="85.625" x2="96.82870370370372" y2="136.04166666666669" stroke="black"/><line x1="96.82870370370372" y1="85.625" x2="152.84722222222226" y2="136.04166666666669" stroke="black"/><line x1="40.81018518518519" y1="136.04166666666669" x2="22.13734567901235" y2="186.45833333333334" stroke="black"/><line x1="40.81018518518519" y1="136.04166666666669" x2="40.81018518518519" y2="186.45833333333334" stroke="black"/><line x1="40.81018518518519" y1="136.04166666666669" x2="59.48302469135804" y2="186.45833333333334" stroke="black"/><line x1="22.13734567901235" y1="186.45833333333334" x2="15.9130658436214" y2="236.87500000000003" stroke="black"/><line x1="22.13734567901235" y1="186.45833333333334" x2="22.13734567901235" y2="236.87500000000003" stroke="black"/><line x1="22.13734567901235" y1="186.45833333333334" x2="28.361625514403297" y2="236.87500000000003" stroke="black"/><line x1="40.81018518518519" y1="186.45833333333334" x2="34.585905349794245" y2="236.87500000000003" stroke="black"/><line x1="40.81018518518519" y1="186.45833333333334" x2="40.81018518518519" y2="236.87500000000003" stroke="black"/><line x1="40.81018518518519" y1="186.45833333333334" x2="47.034465020576135" y2="236.87500000000003" stroke="black"/><line x1="59.48302469135804" y1="186.45833333333334" x2="54.814814814814824" y2="236.87500000000003" stroke="black"/><line x1="59.48302469135804" y1="186.45833333333334" x2="64.15123456790126" y2="236.87500000000003" stroke="black"/><line x1="152.84722222222226" y1="136.04166666666669" x2="134.1743827160494" y2="186.45833333333334" stroke="black"/><line x1="152.84722222222226" y1="136.04166666666669" x2="152.84722222222226" y2="186.45833333333334" stroke="black"/><line x1="152.84722222222226" y1="136.04166666666669" x2="171.52006172839512" y2="186.45833333333334" stroke="black"/><line x1="264.88425925925935" y1="85.625" x2="208.8657407407408" y2="136.04166666666669" stroke="black"/><line x1="264.88425925925935" y1="85.625" x2="264.88425925925935" y2="136.04166666666669" stroke="black"/><line x1="264.88425925925935" y1="85.625" x2="320.9027777777778" y2="136.04166666666669" stroke="black"/><line x1="208.8657407407408" y1="136.04166666666669" x2="190.19290123456796" y2="186.45833333333334" stroke="black"/><line x1="208.8657407407408" y1="136.04166666666669" x2="208.8657407407408" y2="186.45833333333334" stroke="black"/><line x1="208.8657407407408" y1="136.04166666666669" x2="227.5385802469136" y2="186.45833333333334" stroke="black"/><line x1="264.88425925925935" y1="136.04166666666669" x2="246.2114197530865" y2="186.45833333333334" stroke="black"/><line x1="264.88425925925935" y1="136.04166666666669" x2="264.88425925925935" y2="186.45833333333334" stroke="black"/><line x1="264.88425925925935" y1="136.04166666666669" x2="283.5570987654321" y2="186.45833333333334" stroke="black"/><line x1="283.5570987654321" y1="186.45833333333334" x2="278.8888888888889" y2="236.87500000000003" stroke="black"/><line x1="283.5570987654321" y1="186.45833333333334" x2="288.22530864197535" y2="236.87500000000003" stroke="black"/><line x1="320.9027777777778" y1="136.04166666666669" x2="302.229938271605" y2="186.45833333333334" stroke="black"/><line x1="320.9027777777778" y1="136.04166666666669" x2="320.9027777777778" y2="186.45833333333334" stroke="black"/><line x1="320.9027777777778" y1="136.04166666666669" x2="339.57561728395063" y2="186.45833333333334" stroke="black"/><line x1="432.9398148148149" y1="85.625" x2="376.92129629629636" y2="136.04166666666669" stroke="black"/><line x1="432.9398148148149" y1="85.625" x2="432.9398148148149" y2="136.04166666666669" stroke="black"/><line x1="432.9398148148149" y1="85.625" x2="488.9583333333334" y2="136.04166666666669" stroke="black"/><circle cx="264.88425925925935" cy="35.208333333333336" r="10" fill="rgb(229 0 125)" stroke="black" stroke-width="2"/><circle cx="96.82870370370372" cy="85.625" r="10" fill="rgb(229 0 125)" stroke="black" stroke-width="2"/><circle cx="40.81018518518519" cy="136.04166666666669" r="10" fill="rgb(229 0 125)" stroke="black" stroke-width="2"/><circle cx="22.13734567901235" cy="186.45833333333334" r="10" fill="rgb(229 0 125)" stroke="black" stroke-width="2"/><circle cx="15.9130658436214" cy="236.87500000000003" r="10" fill="rgb(229 0 125)" stroke="black" stroke-width="2"/><circle cx="22.13734567901235" cy="236.87500000000003" r="10" fill="rgb(229 0 125)" stroke="black" stroke-width="2"/><circle cx="28.361625514403297" cy="236.87500000000003" r="10" fill="rgb(229 0 125)" stroke="black" stroke-width="2"/><circle cx="40.81018518518519" cy="186.45833333333334" r="10" fill="rgb(229 0 125)" stroke="black" stroke-width="2"/><circle cx="34.585905349794245" cy="236.87500000000003" r="10" fill="rgb(229 0 125)" stroke="black" stroke-width="2"/><circle cx="40.81018518518519" cy="236.87500000000003" r="10" fill="rgb(229 0 125)" stroke="black" stroke-width="2"/><circle cx="47.034465020576135" cy="236.87500000000003" r="10" fill="rgb(229 0 125)" stroke="black" stroke-width="2"/><circle cx="59.48302469135804" cy="186.45833333333334" r="10" fill="rgb(229 0 125)" stroke="black" stroke-width="2"/><circle cx="54.814814814814824" cy="236.87500000000003" r="10" fill="rgb(229 0 125)" stroke="black" stroke-width="2"/><circle cx="64.15123456790126" cy="236.87500000000003" r="10" fill="rgb(229 0 125)" stroke="black" stroke-width="2"/><circle cx="96.82870370370372" cy="136.04166666666669" r="10" fill="rgb(229 0 125)" stroke="black" stroke-width="2"/><circle cx="152.84722222222226" cy="136.04166666666669" r="10" fill="rgb(229 0 125)" stroke="black" stroke-width="2"/><circle cx="134.1743827160494" cy="186.45833333333334" r="10" fill="rgb(229 0 125)" stroke="black" stroke-width="2"/><circle cx="152.84722222222226" cy="186.45833333333334" r="10" fill="rgb(229 0 125)" stroke="black" stroke-width="2"/><circle cx="171.52006172839512" cy="186.45833333333334" r="10" fill="rgb(229 0 125)" stroke="black" stroke-width="2"/><circle cx="264.88425925925935" cy="85.625" r="10" fill="rgb(229 0 125)" stroke="black" stroke-width="2"/><circle cx="208.8657407407408" cy="136.04166666666669" r="10" fill="rgb(229 0 125)" stroke="black" stroke-width="2"/><circle cx="190.19290123456796" cy="186.45833333333334" r="10" fill="rgb(229 0 125)" stroke="black" stroke-width="2"/><circle cx="208.8657407407408" cy="186.45833333333334" r="10" fill="rgb(229 0 125)" stroke="black" stroke-width="2"/><circle cx="227.5385802469136" cy="186.45833333333334" r="10" fill="rgb(229 0 125)" stroke="black" stroke-width="2"/><circle cx="264.88425925925935" cy="136.04166666666669" r="10" fill="rgb(229 0 125)" stroke="black" stroke-width="2"/><circle cx="246.2114197530865" cy="186.45833333333334" r="10" fill="rgb(229 0 125)" stroke="black" stroke-width="2"/><circle cx="264.88425925925935" cy="186.45833333333334" r="10" fill="rgb(229 0 125)" stroke="black" stroke-width="2"/><circle cx="283.5570987654321" cy="186.45833333333334" r="10" fill="rgb(229 0 125)" stroke="black" stroke-width="2"/><circle cx="278.8888888888889" cy="236.87500000000003" r="10" fill="rgb(229 0 125)" stroke="black" stroke-width="2"/><circle cx="288.22530864197535" cy="236.87500000000003" r="10" fill="rgb(229 0 125)" stroke="black" stroke-width="2"/><circle cx="320.9027777777778" cy="136.04166666666669" r="10" fill="rgb(229 0 125)" stroke="black" stroke-width="2"/><circle cx="302.229938271605" cy="186.45833333333334" r="10" fill="rgb(229 0 125)" stroke="black" stroke-width="2"/><circle cx="320.9027777777778" cy="186.45833333333334" r="10" fill="rgb(229 0 125)" stroke="black" stroke-width="2"/><circle cx="339.57561728395063" cy="186.45833333333334" r="10" fill="rgb(229 0 125)" stroke="black" stroke-width="2"/><circle cx="432.9398148148149" cy="85.625" r="10" fill="rgb(229 0 125)" stroke="black" stroke-width="2"/><circle cx="376.92129629629636" cy="136.04166666666669" r="10" fill="rgb(229 0 125)" stroke="black" stroke-width="2"/><circle cx="432.9398148148149" cy="136.04166666666669" r="10" fill="rgb(229 0 125)" stroke="black" stroke-width="2"/><circle cx="488.9583333333334" cy="136.04166666666669" r="10" fill="rgb(229 0 125)" stroke="black" stroke-width="2"/><line x1="264.88425925925935" y1="463.75000000000006" x2="432.939814814815" y2="413.33333333333337" stroke="rgb(0 159 227)" stroke-width="5"/><line x1="264.88425925925935" y1="463.75000000000006" x2="264.88425925925935" y2="413.33333333333337" stroke="rgb(0 159 227)" stroke-width="5"/><line x1="264.88425925925935" y1="463.75000000000006" x2="96.82870370370381" y2="413.33333333333337" stroke="rgb(0 159 227)" stroke-width="5"/><line x1="432.939814814815" y1="413.33333333333337" x2="488.9583333333335" y2="362.9166666666667" stroke="rgb(0 159 227)" stroke-width="5"/><line x1="432.939814814815" y1="413.33333333333337" x2="432.939814814815" y2="362.9166666666667" stroke="rgb(0 159 227)" stroke-width="5"/><line x1="432.939814814815" y1="413.33333333333337" x2="376.9212962962964" y2="362.9166666666667" stroke="rgb(0 159 227)" stroke-width="5"/><line x1="488.9583333333335" y1="362.9166666666667" x2="507.63117283950635" y2="312.5" stroke="rgb(0 159 227)" stroke-width="5"/><line x1="488.9583333333335" y1="362.9166666666667" x2="488.9583333333335" y2="312.5" stroke="rgb(0 159 227)" stroke-width="5"/><line x1="488.9583333333335" y1="362.9166666666667" x2="470.2854938271607" y2="312.5" stroke="rgb(0 159 227)" stroke-width="5"/><line x1="507.63117283950635" y1="312.5" x2="513.8554526748973" y2="262.08333333333337" stroke="rgb(0 159 227)" stroke-width="5"/><line x1="507.63117283950635" y1="312.5" x2="507.63117283950635" y2="262.08333333333337" stroke="rgb(0 159 227)" stroke-width="5"/><line x1="507.63117283950635" y1="312.5" x2="501.40689300411543" y2="262.08333333333337" stroke="rgb(0 159 227)" stroke-width="5"/><line x1="488.9583333333335" y1="312.5" x2="495.18261316872446" y2="262.08333333333337" stroke="rgb(0 159 227)" stroke-width="5"/><line x1="488.9583333333335" y1="312.5" x2="488.9583333333335" y2="262.08333333333337" stroke="rgb(0 159 227)" stroke-width="5"/><line x1="488.9583333333335" y1="312.5" x2="482.73405349794257" y2="262.08333333333337" stroke="rgb(0 159 227)" stroke-width="5"/><line x1="470.2854938271607" y1="312.5" x2="474.95370370370387" y2="262.08333333333337" stroke="rgb(0 159 227)" stroke-width="5"/><line x1="470.2854938271607" y1="312.5" x2="465.61728395061743" y2="262.08333333333337" stroke="rgb(0 159 227)" stroke-width="5"/><line x1="376.9212962962964" y1="362.9166666666667" x2="395.5941358024693" y2="312.5" stroke="rgb(0 159 227)" stroke-width="5"/><line x1="376.9212962962964" y1="362.9166666666667" x2="376.9212962962964" y2="312.5" stroke="rgb(0 159 227)" stroke-width="5"/><line x1="376.9212962962964" y1="362.9166666666667" x2="358.24845679012356" y2="312.5" stroke="rgb(0 159 227)" stroke-width="5"/><line x1="264.88425925925935" y1="413.33333333333337" x2="320.90277777777794" y2="362.9166666666667" stroke="rgb(0 159 227)" stroke-width="5"/><line x1="264.88425925925935" y1="413.33333333333337" x2="264.88425925925935" y2="362.9166666666667" stroke="rgb(0 159 227)" stroke-width="5"/><line x1="264.88425925925935" y1="413.33333333333337" x2="208.86574074074088" y2="362.9166666666667" stroke="rgb(0 159 227)" stroke-width="5"/><line x1="320.90277777777794" y1="362.9166666666667" x2="339.57561728395075" y2="312.5" stroke="rgb(0 159 227)" stroke-width="5"/><line x1="320.90277777777794" y1="362.9166666666667" x2="320.90277777777794" y2="312.5" stroke="rgb(0 159 227)" stroke-width="5"/><line x1="320.90277777777794" y1="362.9166666666667" x2="302.2299382716051" y2="312.5" stroke="rgb(0 159 227)" stroke-width="5"/><line x1="264.88425925925935" y1="362.9166666666667" x2="283.5570987654322" y2="312.5" stroke="rgb(0 159 227)" stroke-width="5"/><line x1="264.88425925925935" y1="362.9166666666667" x2="264.88425925925935" y2="312.5" stroke="rgb(0 159 227)" stroke-width="5"/><line x1="264.88425925925935" y1="362.9166666666667" x2="246.2114197530866" y2="312.5" stroke="rgb(0 159 227)" stroke-width="5"/><line x1="246.2114197530866" y1="312.5" x2="250.8796296296298" y2="262.08333333333337" stroke="rgb(0 159 227)" stroke-width="5"/><line x1="246.2114197530866" y1="312.5" x2="241.54320987654336" y2="262.08333333333337" stroke="rgb(0 159 227)" stroke-width="5"/><line x1="208.86574074074088" y1="362.9166666666667" x2="227.53858024691368" y2="312.5" stroke="rgb(0 159 227)" stroke-width="5"/><line x1="208.86574074074088" y1="362.9166666666667" x2="208.86574074074088" y2="312.5" stroke="rgb(0 159 227)" stroke-width="5"/><line x1="208.86574074074088" y1="362.9166666666667" x2="190.19290123456807" y2="312.5" stroke="rgb(0 159 227)" stroke-width="5"/><line x1="96.82870370370381" y1="413.33333333333337" x2="152.84722222222234" y2="362.9166666666667" stroke="rgb(0 159 227)" stroke-width="5"/><line x1="96.82870370370381" y1="413.33333333333337" x2="96.82870370370381" y2="362.9166666666667" stroke="rgb(0 159 227)" stroke-width="5"/><line x1="96.82870370370381" y1="413.33333333333337" x2="40.810185185185276" y2="362.9166666666667" stroke="rgb(0 159 227)" stroke-width="5"/><line x1="264.88425925925935" y1="463.75000000000006" x2="432.939814814815" y2="413.33333333333337" stroke="black"/><line x1="264.88425925925935" y1="463.75000000000006" x2="264.88425925925935" y2="413.33333333333337" stroke="black"/><line x1="264.88425925925935" y1="463.75000000000006" x2="96.82870370370381" y2="413.33333333333337" stroke="black"/><line x1="432.939814814815" y1="413.33333333333337" x2="488.9583333333335" y2="362.9166666666667" stroke="black"/><line x1="432.939814814815" y1="413.33333333333337" x2="432.939814814815" y2="362.9166666666667" stroke="black"/><line x1="432.939814814815" y1="413.33333333333337" x2="376.9212962962964" y2="362.9166666666667" stroke="black"/><line x1="488.9583333333335" y1="362.9166666666667" x2="507.63117283950635" y2="312.5" stroke="black"/><line x1="488.9583333333335" y1="362.9166666666667" x2="488.9583333333335" y2="312.5" stroke="black"/><line x1="488.9583333333335" y1="362.9166666666667" x2="470.2854938271607" y2="312.5" stroke="black"/><line x1="507.63117283950635" y1="312.5" x2="513.8554526748973" y2="262.08333333333337" stroke="black"/><line x1="507.63117283950635" y1="312.5" x2="507.63117283950635" y2="262.08333333333337" stroke="black"/><line x1="507.63117283950635" y1="312.5" x2="501.40689300411543" y2="262.08333333333337" stroke="black"/><line x1="488.9583333333335" y1="312.5" x2="495.18261316872446" y2="262.08333333333337" stroke="black"/><line x1="488.9583333333335" y1="312.5" x2="488.9583333333335" y2="262.08333333333337" stroke="black"/><line x1="488.9583333333335" y1="312.5" x2="482.73405349794257" y2="262.08333333333337" stroke="black"/><line x1="470.2854938271607" y1="312.5" x2="474.95370370370387" y2="262.08333333333337" stroke="black"/><line x1="470.2854938271607" y1="312.5" x2="465.61728395061743" y2="262.08333333333337" stroke="black"/><line x1="376.9212962962964" y1="362.9166666666667" x2="395.5941358024693" y2="312.5" stroke="black"/><line x1="376.9212962962964" y1="362.9166666666667" x2="376.9212962962964" y2="312.5" stroke="black"/><line x1="376.9212962962964" y1="362.9166666666667" x2="358.24845679012356" y2="312.5" stroke="black"/><line x1="264.88425925925935" y1="413.33333333333337" x2="320.90277777777794" y2="362.9166666666667" stroke="black"/><line x1="264.88425925925935" y1="413.33333333333337" x2="264.88425925925935" y2="362.9166666666667" stroke="black"/><line x1="264.88425925925935" y1="413.33333333333337" x2="208.86574074074088" y2="362.9166666666667" stroke="black"/><line x1="320.90277777777794" y1="362.9166666666667" x2="339.57561728395075" y2="312.5" stroke="black"/><line x1="320.90277777777794" y1="362.9166666666667" x2="320.90277777777794" y2="312.5" stroke="black"/><line x1="320.90277777777794" y1="362.9166666666667" x2="302.2299382716051" y2="312.5" stroke="black"/><line x1="264.88425925925935" y1="362.9166666666667" x2="283.5570987654322" y2="312.5" stroke="black"/><line x1="264.88425925925935" y1="362.9166666666667" x2="264.88425925925935" y2="312.5" stroke="black"/><line x1="264.88425925925935" y1="362.9166666666667" x2="246.2114197530866" y2="312.5" stroke="black"/><line x1="246.2114197530866" y1="312.5" x2="250.8796296296298" y2="262.08333333333337" stroke="black"/><line x1="246.2114197530866" y1="312.5" x2="241.54320987654336" y2="262.08333333333337" stroke="black"/><line x1="208.86574074074088" y1="362.9166666666667" x2="227.53858024691368" y2="312.5" stroke="black"/><line x1="208.86574074074088" y1="362.9166666666667" x2="208.86574074074088" y2="312.5" stroke="black"/><line x1="208.86574074074088" y1="362.9166666666667" x2="190.19290123456807" y2="312.5" stroke="black"/><line x1="96.82870370370381" y1="413.33333333333337" x2="152.84722222222234" y2="362.9166666666667" stroke="black"/><line x1="96.82870370370381" y1="413.33333333333337" x2="96.82870370370381" y2="362.9166666666667" stroke="black"/><line x1="96.82870370370381" y1="413.33333333333337" x2="40.810185185185276" y2="362.9166666666667" stroke="black"/><circle cx="264.88425925925935" cy="463.75000000000006" r="10" fill="rgb(229 0 125)" stroke="black" stroke-width="2"/><circle cx="432.939814814815" cy="413.33333333333337" r="10" fill="rgb(229 0 125)" stroke="black" stroke-width="2"/><circle cx="488.9583333333335" cy="362.9166666666667" r="10" fill="rgb(229 0 125)" stroke="black" stroke-width="2"/><circle cx="507.63117283950635" cy="312.5" r="10" fill="rgb(229 0 125)" stroke="black" stroke-width="2"/><circle cx="513.8554526748973" cy="262.08333333333337" r="10" fill="rgb(229 0 125)" stroke="black" stroke-width="2"/><circle cx="507.63117283950635" cy="262.08333333333337" r="10" fill="rgb(229 0 125)" stroke="black" stroke-width="2"/><circle cx="501.40689300411543" cy="262.08333333333337" r="10" fill="rgb(229 0 125)" stroke="black" stroke-width="2"/><circle cx="488.9583333333335" cy="312.5" r="10" fill="rgb(229 0 125)" stroke="black" stroke-width="2"/><circle cx="495.18261316872446" cy="262.08333333333337" r="10" fill="rgb(229 0 125)" stroke="black" stroke-width="2"/><circle cx="488.9583333333335" cy="262.08333333333337" r="10" fill="rgb(229 0 125)" stroke="black" stroke-width="2"/><circle cx="482.73405349794257" cy="262.08333333333337" r="10" fill="rgb(229 0 125)" stroke="black" stroke-width="2"/><circle cx="470.2854938271607" cy="312.5" r="10" fill="rgb(229 0 125)" stroke="black" stroke-width="2"/><circle cx="474.95370370370387" cy="262.08333333333337" r="10" fill="rgb(229 0 125)" stroke="black" stroke-width="2"/><circle cx="465.61728395061743" cy="262.08333333333337" r="10" fill="rgb(229 0 125)" stroke="black" stroke-width="2"/><circle cx="432.939814814815" cy="362.9166666666667" r="10" fill="rgb(229 0 125)" stroke="black" stroke-width="2"/><circle cx="376.9212962962964" cy="362.9166666666667" r="10" fill="rgb(229 0 125)" stroke="black" stroke-width="2"/><circle cx="395.5941358024693" cy="312.5" r="10" fill="rgb(229 0 125)" stroke="black" stroke-width="2"/><circle cx="376.9212962962964" cy="312.5" r="10" fill="rgb(229 0 125)" stroke="black" stroke-width="2"/><circle cx="358.24845679012356" cy="312.5" r="10" fill="rgb(229 0 125)" stroke="black" stroke-width="2"/><circle cx="264.88425925925935" cy="413.33333333333337" r="10" fill="rgb(229 0 125)" stroke="black" stroke-width="2"/><circle cx="320.90277777777794" cy="362.9166666666667" r="10" fill="rgb(229 0 125)" stroke="black" stroke-width="2"/><circle cx="339.57561728395075" cy="312.5" r="10" fill="rgb(229 0 125)" stroke="black" stroke-width="2"/><circle cx="320.90277777777794" cy="312.5" r="10" fill="rgb(229 0 125)" stroke="black" stroke-width="2"/><circle cx="302.2299382716051" cy="312.5" r="10" fill="rgb(229 0 125)" stroke="black" stroke-width="2"/><circle cx="264.88425925925935" cy="362.9166666666667" r="10" fill="rgb(229 0 125)" stroke="black" stroke-width="2"/><circle cx="283.5570987654322" cy="312.5" r="10" fill="rgb(229 0 125)" stroke="black" stroke-width="2"/><circle cx="264.88425925925935" cy="312.5" r="10" fill="rgb(229 0 125)" stroke="black" stroke-width="2"/><circle cx="246.2114197530866" cy="312.5" r="10" fill="rgb(229 0 125)" stroke="black" stroke-width="2"/><circle cx="250.8796296296298" cy="262.08333333333337" r="10" fill="rgb(229 0 125)" stroke="black" stroke-width="2"/><circle cx="241.54320987654336" cy="262.08333333333337" r="10" fill="rgb(229 0 125)" stroke="black" stroke-width="2"/><circle cx="208.86574074074088" cy="362.9166666666667" r="10" fill="rgb(229 0 125)" stroke="black" stroke-width="2"/><circle cx="227.53858024691368" cy="312.5" r="10" fill="rgb(229 0 125)" stroke="black" stroke-width="2"/><circle cx="208.86574074074088" cy="312.5" r="10" fill="rgb(229 0 125)" stroke="black" stroke-width="2"/><circle cx="190.19290123456807" cy="312.5" r="10" fill="rgb(229 0 125)" stroke="black" stroke-width="2"/><circle cx="96.82870370370381" cy="413.33333333333337" r="10" fill="rgb(229 0 125)" stroke="black" stroke-width="2"/><circle cx="152.84722222222234" cy="362.9166666666667" r="10" fill="rgb(229 0 125)" stroke="black" stroke-width="2"/><circle cx="96.82870370370381" cy="362.9166666666667" r="10" fill="rgb(229 0 125)" stroke="black" stroke-width="2"/><circle cx="40.810185185185276" cy="362.9166666666667" r="10" fill="rgb(229 0 125)" stroke="black" stroke-width="2"/></svg>