<svg xmlns="http://www.w3.org/2000/svg" width="528.8348765432099" height="503.1597222222222" style="background: white;"><line x1="264.41743827160496" y1="31.006944444444443" x2="96.36188271604938" y2="73.02083333333333" stroke="rgb(0 159 227)" stroke-width="5"/><line x1="264.41743827160496" y1="31.006944444444443" x2="264.41743827160496" y2="73.02083333333333" stroke="rgb(0 159 227)" stroke-width="5"/><line x1="264.41743827160496" y1="31.006944444444443" x2="432.47299382716045" y2="73.02083333333333" stroke="rgb(0 159 227)" stroke-width="5"/><line x1="96.36188271604938" y1="73.02083333333333" x2="40.34336419753086" y2="115.03472222222221" stroke="rgb(0 159 227)" stroke-width="5"/><line x1="96.36188271604938" y1="73.02083333333333" x2="96.36188271604938" y2="115.03472222222221" stroke="rgb(0 159 227)" stroke-width="5"/><line x1="96.36188271604938" y1="73.02083333333333" x2="152.3804012345679" y2="115.03472222222221" stroke="rgb(0 159 227)" stroke-width="5"/><line x1="264.41743827160496" y1="73.02083333333333" x2="208.3989197530864" y2="115.03472222222221" stroke="rgb(0 159 227)" stroke-width="5"/><line x1="264.41743827160496" y1="73.02083333333333" x2="264.41743827160496" y2="115.03472222222221" stroke="rgb(0 159 227)" stroke-width="5"/><line x1="264.41743827160496" y1="73.02083333333333" x2="320.43595679012344" y2="115.03472222222221" stroke="rgb(0 159 227)" stroke-width="5"/><line x1="208.3989197530864" y1="115.03472222222221" x2="189.72608024691357" y2="157.0486111111111" stroke="rgb(0 159 227)" stroke-width="5"/><line x1="208.3989197530864" y1="115.03472222222221" x2="208.3989197530864" y2="157.0486111111111" stroke="rgb(0 159 227)" stroke-width="5"/><line x1="208.3989197530864" y1="115.03472222222221" x2="227.07175925925924" y2="157.0486111111111" stroke="rgb(0 159 227)" stroke-width="5"/><line x1="189.72608024691357" y1="157.0486111111111" x2="183.50180041152265" y2="199.0625" stroke="rgb(0 159 227)" stroke-width="5"/><line x1="189.72608024691357" y1="157.0486111111111" x2="189.72608024691357" y2="199.0625" stroke="rgb(0 159 227)" stroke-width="5"/><line x1="189.72608024691357" y1="157.0486111111111" x2="195.95036008230448" y2="199.0625" stroke="rgb(0 159 227)" stroke-width="5"/><line x1="208.3989197530864" y1="157.0486111111111" x2="202.1746399176955" y2="199.0625" stroke="rgb(0 159 227)" stroke-width="5"/><line x1="208.3989197530864" y1="157.0486111111111" x2="208.3989197530864" y2="199.0625" stroke="rgb(0 159 227)" stroke-width="5"/><line x1="208.3989197530864" y1="157.0486111111111" x2="214.62319958847732" y2="199.0625" stroke="rgb(0 159 227)" stroke-width="5"/><line x1="227.07175925925924" y1="157.0486111111111" x2="220.84747942386832" y2="199.0625" stroke="rgb(0 159 227)" stroke-width="5"/><line x1="227.07175925925924" y1="157.0486111111111" x2="227.07175925925924" y2="199.0625" stroke="rgb(0 159 227)" stroke-width="5"/><line x1="227.07175925925924" y1="157.0486111111111" x2="233.29603909465018" y2="199.0625" stroke="rgb(0 159 227)" stroke-width="5"/><line x1="220.84747942386832" y1="199.0625" x2="218.77271947873797" y2="241.07638888888886" stroke="rgb(0 159 227)" stroke-width="5"/><line x1="220.84747942386832" y1="199.0625" x2="220.84747942386832" y2="241.07638888888886" stroke="rgb(0 159 227)" stroke-width="5"/><line x1="220.84747942386832" y1="199.0625" x2="222.92223936899862" y2="241.07638888888886" stroke="rgb(0 159 227)" stroke-width="5"/><line x1="227.07175925925924" y1="199.0625" x2="224.99699931412894" y2="241.07638888888886" stroke="rgb(0 159 227)" stroke-width="5"/><line x1="227.07175925925924" y1="199.0625" x2="227.07175925925924" y2="241.07638888888886" stroke="rgb(0 159 227)" stroke-width="5"/><line x1="227.07175925925924" y1="199.0625" x2="229.14651920438956" y2="241.07638888888886" stroke="rgb(0 159 227)" stroke-width="5"/><line x1="233.29603909465018" y1="199.0625" x2="231.73996913580245" y2="241.07638888888886" stroke="rgb(0 159 227)" stroke-width="5"/><line x1="233.29603909465018" y1="199.0625" x2="234.8521090534979" y2="241.07638888888886" stroke="rgb(0 159 227)" stroke-width="5"/><line x1="432.47299382716045" y1="73.02083333333333" x2="376.454475308642" y2="115.03472222222221" stroke="rgb(0 159 227)" stroke-width="5"/><line x1="432.47299382716045" y1="73.02083333333333" x2="432.47299382716045" y2="115.03472222222221" stroke="rgb(0 159 227)" stroke-width="5"/><line x1="432.47299382716045" y1="73.02083333333333" x2="488.491512345679" y2="115.03472222222221" stroke="rgb(0 159 227)" stroke-width="5"/><line x1="376.454475308642" y1="115.03472222222221" x2="357.7816358024691" y2="157.0486111111111" stroke="rgb(0 159 227)" stroke-width="5"/><line x1="376.454475308642" y1="115.03472222222221" x2="376.454475308642" y2="157.0486111111111" stroke="rgb(0 159 227)" stroke-width="5"/><line x1="376.454475308642" y1="115.03472222222221" x2="395.1273148148148" y2="157.0486111111111" stroke="rgb(0 159 227)" stroke-width="5"/><line x1="432.47299382716045" y1="115.03472222222221" x2="413.80015432098764" y2="157.0486111111111" stroke="rgb(0 159 227)" stroke-width="5"/><line x1="432.47299382716045" y1="115.03472222222221" x2="432.47299382716045" y2="157.0486111111111" stroke="rgb(0 159 227)" stroke-width="5"/><line x1="432.47299382716045" y1="115.03472222222221" x2="451.1458333333333" y2="157.0486111111111" stroke="rgb(0 159 227)" stroke-width="5"/><line x1="488.491512345679" y1="115.03472222222221" x2="469.8186728395061" y2="157.0486111111111" stroke="rgb(0 159 227)" stroke-width="5"/><line x1="488.491512345679" y1="115.03472222222221" x2="488.491512345679" y2="157.0486111111111" stroke="rgb(0 159 227)" stroke-width="5"/><line x1="488.491512345679" y1="115.03472222222221" x2="507.16435185185185" y2="157.0486111111111" stroke="rgb(0 159 227)" stroke-width="5"/><line x1="264.41743827160496" y1="31.006944444444443" x2="96.36188271604938" y2="73.02083333333333" stroke="black"/><line x1="264.41743827160496" y1="31.006944444444443" x2="264.41743827160496" y2="73.02083333333333" stroke="black"/><line x1="264.41743827160496" y1="31.006944444444443" x2="432.47299382716045" y2="73.02083333333333" stroke="black"/><line x1="96.36188271604938" y1="73.02083333333333" x2="40.34336419753086" y2="115.03472222222221" stroke="black"/><line x1="96.36188271604938" y1="73.02083333333333" x2="96.36188271604938" y2="115.03472222222221" stroke="black"/><line x1="96.36188271604938" y1="73.02083333333333" x2="152.3804012345679" y2="115.03472222222221" stroke="black"/><line x1="264.41743827160496" y1="73.02083333333333" x2="208.3989197530864" y2="115.03472222222221" stroke="black"/><line x1="264.41743827160496" y1="73.02083333333333" x2="264.41743827160496" y2="115.03472222222221" stroke="black"/><line x1="264.41743827160496" y1="73.02083333333333" x2="320.43595679012344" y2="115.03472222222221" stroke="black"/><line x1="208.3989197530864" y1="115.03472222222221" x2="189.72608024691357" y2="157.0486111111111" stroke="black"/><line x1="208.3989197530864" y1="115.03472222222221" x2="208.3989197530864" y2="157.0486111111111" stroke="black"/><line x1="208.3989197530864" y1="115.03472222222221" x2="227.07175925925924" y2="157.0486111111111" stroke="black"/><line x1="189.72608024691357" y1="157.0486111111111" x2="183.50180041152265" y2="199.0625" stroke="black"/><line x1="189.72608024691357" y1="157.0486111111111" x2="189.72608024691357" y2="199.0625" stroke="black"/><line x1="189.72608024691357" y1="157.0486111111111" x2="195.95036008230448" y2="199.0625" stroke="black"/><line x1="208.3989197530864" y1="157.0486111111111" x2="202.1746399176955" y2="199.0625" stroke="black"/><line x1="208.3989197530864" y1="157.0486111111111" x2="208.3989197530864" y2="199.0625" stroke="black"/><line x1="208.3989197530864" y1="157.0486111111111" x2="214.62319958847732" y2="199.0625" stroke="black"/><line x1="227.07175925925924" y1="157.0486111111111" x2="220.84747942386832" y2="199.0625" stroke="black"/><line x1="227.07175925925924" y1="157.0486111111111" x2="227.07175925925924" y2="199.0625" stroke="black"/><line x1="227.07175925925924" y1="157.0486111111111" x2="233.29603909465018" y2="199.0625" stroke="black"/><line x1="220.84747942386832" y1="199.0625" x2="218.77271947873797" y2="241.07638888888886" stroke="black"/><line x1="220.84747942386832" y1="199.0625" x2="220.84747942386832" y2="241.07638888888886" stroke="black"/><line x1="220.84747942386832" y1="199.0625" x2="222.92223936899862" y2="241.07638888888886" stroke="black"/><line x1="227.07175925925924" y1="199.0625" x2="224.99699931412894" y2="241.07638888888886" stroke="black"/><line x1="227.07175925925924" y1="199.0625" x2="227.07175925925924" y2="241.07638888888886" stroke="black"/><line x1="227.07175925925924" y1="199.0625" x2="229.14651920438956" y2="241.07638888888886" stroke="black"/><line x1="233.29603909465018" y1="199.0625" x2="231.73996913580245" y2="241.07638888888886" stroke="black"/><line x1="233.29603909465018" y1="199.0625" x2="234.8521090534979" y2="241.07638888888886" stroke="black"/><line x1="432.47299382716045" y1="73.02083333333333" x2="376.454475308642" y2="115.03472222222221" stroke="black"/><line x1="432.47299382716045" y1="73.02083333333333" x2="432.47299382716045" y2="115.03472222222221" stroke="black"/><line x1="432.47299382716045" y1="73.02083333333333" x2="488.491512345679" y2="115.03472222222221" stroke="black"/><line x1="376.454475308642" y1="115.03472222222221" x2="357.7816358024691" y2="157.0486111111111" stroke="black"/><line x1="376.454475308642" y1="115.03472222222221" x2="376.454475308642" y2="157.0486111111111" stroke="black"/><line x1="376.454475308642" y1="115.03472222222221" x2="395.1273148148148" y2="157.0486111111111" stroke="black"/><line x1="432.47299382716045" y1="115.03472222222221" x2="413.80015432098764" y2="157.0486111111111" stroke="black"/><line x1="432.47299382716045" y1="115.03472222222221" x2="432.47299382716045" y2="157.0486111111111" stroke="black"/><line x1="432.47299382716045" y1="115.03472222222221" x2="451.1458333333333" y2="157.0486111111111" stroke="black"/><line x1="488.491512345679" y1="115.03472222222221" x2="469.8186728395061" y2="157.0486111111111" stroke="black"/><line x1="488.491512345679" y1="115.03472222222221" x2="488.491512345679" y2="157.0486111111111" stroke="black"/><line x1="488.491512345679" y1="115.03472222222221" x2="507.16435185185185" y2="157.0486111111111" stroke="black"/><circle cx="264.41743827160496" cy="31.006944444444443" r="10" fill="rgb(229 0 125)" stroke="black" stroke-width="2"/><circle cx="96.36188271604938" cy="73.02083333333333" r="10" fill="rgb(229 0 125)" stroke="black" stroke-width="2"/><circle cx="40.34336419753086" cy="115.03472222222221" r="10" fill="rgb(229 0 125)" stroke="black" stroke-width="2"/><circle cx="96.36188271604938" cy="115.03472222222221" r="10" fill="rgb(229 0 125)" stroke="black" stroke-width="2"/><circle cx="152.3804012345679" cy="115.03472222222221" r="10" fill="rgb(229 0 125)" stroke="black" stroke-width="2"/><circle cx="264.41743827160496" cy="73.02083333333333" r="10" fill="rgb(229 0 125)" stroke="black" stroke-width="2"/><circle cx="208.3989197530864" cy="115.03472222222221" r="10" fill="rgb(229 0 125)" stroke="black" stroke-width="2"/><circle cx="189.72608024691357" cy="157.0486111111111" r="10" fill="rgb(229 0 125)" stroke="black" stroke-width="2"/><circle cx="183.50180041152265" cy="199.0625" r="10" fill="rgb(229 0 125)" stroke="black" stroke-width="2"/><circle cx="189.72608024691357" cy="199.0625" r="10" fill="rgb(229 0 125)" stroke="black" stroke-width="2"/><circle cx="195.95036008230448" cy="199.0625" r="10" fill="rgb(229 0 125)" stroke="black" stroke-width="2"/><circle cx="208.3989197530864" cy="157.0486111111111" r="10" fill="rgb(229 0 125)" stroke="black" stroke-width="2"/><circle cx="202.1746399176955" cy="199.0625" r="10" fill="rgb(229 0 125)" stroke="black" stroke-width="2"/><circle cx="208.3989197530864" cy="199.0625" r="10" fill="rgb(229 0 125)" stroke="black" stroke-width="2"/><circle cx="214.62319958847732" cy="199.0625" r="10" fill="rgb(229 0 125)" stroke="black" stroke-width="2"/><circle cx="227.07175925925924" cy="157.0486111111111" r="10" fill="rgb(229 0 125)" stroke="black" stroke-width="2"/><circle cx="220.84747942386832" cy="199.0625" r="10" fill="rgb(229 0 125)" stroke="black" stroke-width="2"/><circle cx="218.77271947873797" cy="241.07638888888886" r="10" fill="rgb(229 0 125)" stroke="black" stroke-width="2"/><circle cx="220.84747942386832" cy="241.07638888888886" r="10" fill="rgb(229 0 125)" stroke="black" stroke-width="2"/><circle cx="222.92223936899862" cy="241.07638888888886" r="10" fill="rgb(229 0 125)" stroke="black" stroke-width="2"/><circle cx="227.07175925925924" cy="199.0625" r="10" fill="rgb(229 0 125)" stroke="black" stroke-width="2"/><circle cx="224.99699931412894" cy="241.07638888888886" r="10" fill="rgb(229 0 125)" stroke="black" stroke-width="2"/><circle cx="227.07175925925924" cy="241.07638888888886" r="10" fill="rgb(229 0 125)" stroke="black" stroke-width="2"/><circle cx="229.14651920438956" cy="241.07638888888886" r="10" fill="rgb(229 0 125)" stroke="black" stroke-width="2"/><circle cx="233.29603909465018" cy="199.0625" r="10" fill="rgb(229 0 125)" stroke="black" stroke-width="2"/><circle cx="231.73996913580245" cy="241.07638888888886" r="10" fill="rgb(229 0 125)" stroke="black" stroke-width="2"/><circle cx="234.8521090534979" cy="241.07638888888886" r="10" fill="rgb(229 0 125)" stroke="black" stroke-width="2"/><circle cx="264.41743827160496" cy="115.03472222222221" r="10" fill="rgb(229 0 125)" stroke="black" stroke-width="2"/><circle cx="320.43595679012344" cy="115.03472222222221" r="10" fill="rgb(229 0 125)" stroke="black" stroke-width="2"/><circle cx="432.47299382716045" cy="73.02083333333333" r="10" fill="rgb(229 0 125)" stroke="black" stroke-width="2"/><circle cx="376.454475308642" cy="115.03472222222221" r="10" fill="rgb(229 0 125)" stroke="black" stroke-width="2"/><circle cx="357.7816358024691" cy="157.0486111111111" r="10" fill="rgb(229 0 125)" stroke="black" stroke-width="2"/><circle cx="376.454475308642" cy="157.0486111111111" r="10" fill="rgb(229 0 125)" stroke="black" stroke-width="2"/><circle cx="395.1273148148148" cy="157.0486111111111" r="10" fill="rgb(229 0 125)" stroke="black" stroke-width="2"/><circle cx="432.47299382716045" cy="115.03472222222221" r="10" fill="rgb(229 0 125)" stroke="black" stroke-width="2"/><circle cx="413.80015432098764" cy="157.0486111111111" r="10" fill="rgb(229 0 125)" stroke="black" stroke-width="2"/><circle cx="432.47299382716045" cy="157.0486111111111" r="10" fill="rgb(229 0 125)" stroke="black" stroke-width="2"/><circle cx="451.1458333333333" cy="157.0486111111111" r="10" fill="rgb(229 0 125)" stroke="black" stroke-width="2"/><circle cx="488.491512345679" cy="115.03472222222221" r="10" fill="rgb(229 0 125)" stroke="black" stroke-width="2"/><circle cx="469.8186728395061" cy="157.0486111111111" r="10" fill="rgb(229 0 125)" stroke="black" stroke-width="2"/><circle cx="488.491512345679" cy="157.0486111111111" r="10" fill="rgb(229 0 125)" stroke="black" stroke-width="2"/><circle cx="507.16435185185185" cy="157.0486111111111" r="10" fill="rgb(229 0 125)" stroke="black" stroke-width="2"/><line x1="264.41743827160496" y1="472.1527777777777" x2="432.47299382716056" y2="430.13888888888886" stroke="rgb(0 159 227)" stroke-width="5"/><line x1="264.41743827160496" y1="472.1527777777777" x2="264.41743827160496" y2="430.13888888888886" stroke="rgb(0 159 227)" stroke-width="5"/><line x1="264.41743827160496" y1="472.1527777777777" x2="96.36188271604948" y2="430.13888888888886" stroke="rgb(0 159 227)" stroke-width="5"/><line x1="432.47299382716056" y1="430.13888888888886" x2="488.4915123456791" y2="388.12499999999994" stroke="rgb(0 159 227)" stroke-width="5"/><line x1="432.47299382716056" y1="430.13888888888886" x2="432.47299382716056" y2="388.12499999999994" stroke="rgb(0 159 227)" stroke-width="5"/><line x1="432.47299382716056" y1="430.13888888888886" x2="376.45447530864203" y2="388.12499999999994" stroke="rgb(0 159 227)" stroke-width="5"/><line x1="264.41743827160496" y1="430.13888888888886" x2="320.43595679012356" y2="388.12499999999994" stroke="rgb(0 159 227)" stroke-width="5"/><line x1="264.41743827160496" y1="430.13888888888886" x2="264.41743827160496" y2="388.12499999999994" stroke="rgb(0 159 227)" stroke-width="5"/><line x1="264.41743827160496" y1="430.13888888888886" x2="208.3989197530865" y2="388.12499999999994" stroke="rgb(0 159 227)" stroke-width="5"/><line x1="320.43595679012356" y1="388.12499999999994" x2="339.10879629629636" y2="346.1111111111111" stroke="rgb(0 159 227)" stroke-width="5"/><line x1="320.43595679012356" y1="388.12499999999994" x2="320.43595679012356" y2="346.1111111111111" stroke="rgb(0 159 227)" stroke-width="5"/><line x1="320.43595679012356" y1="388.12499999999994" x2="301.7631172839507" y2="346.1111111111111" stroke="rgb(0 159 227)" stroke-width="5"/><line x1="339.10879629629636" y1="346.1111111111111" x2="345.3330761316873" y2="304.0972222222222" stroke="rgb(0 159 227)" stroke-width="5"/><line x1="339.10879629629636" y1="346.1111111111111" x2="339.10879629629636" y2="304.0972222222222" stroke="rgb(0 159 227)" stroke-width="5"/><line x1="339.10879629629636" y1="346.1111111111111" x2="332.88451646090545" y2="304.0972222222222" stroke="rgb(0 159 227)" stroke-width="5"/><line x1="320.43595679012356" y1="346.1111111111111" x2="326.6602366255145" y2="304.0972222222222" stroke="rgb(0 159 227)" stroke-width="5"/><line x1="320.43595679012356" y1="346.1111111111111" x2="320.43595679012356" y2="304.0972222222222" stroke="rgb(0 159 227)" stroke-width="5"/><line x1="320.43595679012356" y1="346.1111111111111" x2="314.21167695473264" y2="304.0972222222222" stroke="rgb(0 159 227)" stroke-width="5"/><line x1="301.7631172839507" y1="346.1111111111111" x2="307.9873971193416" y2="304.0972222222222" stroke="rgb(0 159 227)" stroke-width="5"/><line x1="301.7631172839507" y1="346.1111111111111" x2="301.7631172839507" y2="304.0972222222222" stroke="rgb(0 159 227)" stroke-width="5"/><line x1="301.7631172839507" y1="346.1111111111111" x2="295.5388374485598" y2="304.0972222222222" stroke="rgb(0 159 227)" stroke-width="5"/><line x1="307.9873971193416" y1="304.0972222222222" x2="310.062157064472" y2="262.0833333333333" stroke="rgb(0 159 227)" stroke-width="5"/><line x1="307.9873971193416" y1="304.0972222222222" x2="307.9873971193416" y2="262.0833333333333" stroke="rgb(0 159 227)" stroke-width="5"/><line x1="307.9873971193416" y1="304.0972222222222" x2="305.91263717421134" y2="262.0833333333333" stroke="rgb(0 159 227)" stroke-width="5"/><line x1="301.7631172839507" y1="304.0972222222222" x2="303.83787722908096" y2="262.0833333333333" stroke="rgb(0 159 227)" stroke-width="5"/><line x1="301.7631172839507" y1="304.0972222222222" x2="301.7631172839507" y2="262.0833333333333" stroke="rgb(0 159 227)" stroke-width="5"/><line x1="301.7631172839507" y1="304.0972222222222" x2="299.68835733882037" y2="262.0833333333333" stroke="rgb(0 159 227)" stroke-width="5"/><line x1="295.5388374485598" y1="304.0972222222222" x2="297.0949074074075" y2="262.0833333333333" stroke="rgb(0 159 227)" stroke-width="5"/><line x1="295.5388374485598" y1="304.0972222222222" x2="293.98276748971205" y2="262.0833333333333" stroke="rgb(0 159 227)" stroke-width="5"/><line x1="96.36188271604948" y1="430.13888888888886" x2="152.38040123456796" y2="388.12499999999994" stroke="rgb(0 159 227)" stroke-width="5"/><line x1="96.36188271604948" y1="430.13888888888886" x2="96.36188271604948" y2="388.12499999999994" stroke="rgb(0 159 227)" stroke-width="5"/><line x1="96.36188271604948" y1="430.13888888888886" x2="40.343364197530946" y2="388.12499999999994" stroke="rgb(0 159 227)" stroke-width="5"/><line x1="152.38040123456796" y1="388.12499999999994" x2="171.05324074074082" y2="346.1111111111111" stroke="rgb(0 159 227)" stroke-width="5"/><line x1="152.38040123456796" y1="388.12499999999994" x2="152.38040123456796" y2="346.1111111111111" stroke="rgb(0 159 227)" stroke-width="5"/><line x1="152.38040123456796" y1="388.12499999999994" x2="133.70756172839515" y2="346.1111111111111" stroke="rgb(0 159 227)" stroke-width="5"/><line x1="96.36188271604948" y1="388.12499999999994" x2="115.03472222222229" y2="346.1111111111111" stroke="rgb(0 159 227)" stroke-width="5"/><line x1="96.36188271604948" y1="388.12499999999994" x2="96.36188271604948" y2="346.1111111111111" stroke="rgb(0 159 227)" stroke-width="5"/><line x1="96.36188271604948" y1="388.12499999999994" x2="77.68904320987662" y2="346.1111111111111" stroke="rgb(0 159 227)" stroke-width="5"/><line x1="40.343364197530946" y1="388.12499999999994" x2="59.01620370370381" y2="346.1111111111111" stroke="rgb(0 159 227)" stroke-width="5"/><line x1="40.343364197530946" y1="388.12499999999994" x2="40.343364197530946" y2="346.1111111111111" stroke="rgb(0 159 227)" stroke-width="5"/><line x1="40.343364197530946" y1="388.12499999999994" x2="21.670524691358082" y2="346.1111111111111" stroke="rgb(0 159 227)" stroke-width="5"/><line x1="264.41743827160496" y1="472.1527777777777" x2="432.47299382716056" y2="430.13888888888886" stroke="black"/><line x1="264.41743827160496" y1="472.1527777777777" x2="264.41743827160496" y2="430.13888888888886" stroke="black"/><line x1="264.41743827160496" y1="472.1527777777777" x2="96.36188271604948" y2="430.13888888888886" stroke="black"/><line x1="432.47299382716056" y1="430.13888888888886" x2="488.4915123456791" y2="388.12499999999994" stroke="black"/><line x1="432.47299382716056" y1="430.13888888888886" x2="432.47299382716056" y2="388.12499999999994" stroke="black"/><line x1="432.47299382716056" y1="430.13888888888886" x2="376.45447530864203" y2="388.12499999999994" stroke="black"/><line x1="264.41743827160496" y1="430.13888888888886" x2="320.43595679012356" y2="388.12499999999994" stroke="black"/><line x1="264.41743827160496" y1="430.13888888888886" x2="264.41743827160496" y2="388.12499999999994" stroke="black"/><line x1="264.41743827160496" y1="430.13888888888886" x2="208.3989197530865" y2="388.12499999999994" stroke="black"/><line x1="320.43595679012356" y1="388.12499999999994" x2="339.10879629629636" y2="346.1111111111111" stroke="black"/><line x1="320.43595679012356" y1="388.12499999999994" x2="320.43595679012356" y2="346.1111111111111" stroke="black"/><line x1="320.43595679012356" y1="388.12499999999994" x2="301.7631172839507" y2="346.1111111111111" stroke="black"/><line x1="339.10879629629636" y1="346.1111111111111" x2="345.3330761316873" y2="304.0972222222222" stroke="black"/><line x1="339.10879629629636" y1="346.1111111111111" x2="339.10879629629636" y2="304.0972222222222" stroke="black"/><line x1="339.10879629629636" y1="346.1111111111111" x2="332.88451646090545" y2="304.0972222222222" stroke="black"/><line x1="320.43595679012356" y1="346.1111111111111" x2="326.6602366255145" y2="304.0972222222222" stroke="black"/><line x1="320.43595679012356" y1="346.1111111111111" x2="320.43595679012356" y2="304.0972222222222" stroke="black"/><line x1="320.43595679012356" y1="346.1111111111111" x2="314.21167695473264" y2="304.0972222222222" stroke="black"/><line x1="301.7631172839507" y1="346.1111111111111" x2="307.9873971193416" y2="304.0972222222222" stroke="black"/><line x1="301.7631172839507" y1="346.1111111111111" x2="301.7631172839507" y2="304.0972222222222" stroke="black"/><line x1="301.7631172839507" y1="346.1111111111111" x2="295.5388374485598" y2="304.0972222222222" stroke="black"/><line x1="307.9873971193416" y1="304.0972222222222" x2="310.062157064472" y2="262.0833333333333" stroke="black"/><line x1="307.9873971193416" y1="304.0972222222222" x2="307.9873971193416" y2="262.0833333333333" stroke="black"/><line x1="307.9873971193416" y1="304.0972222222222" x2="305.91263717421134" y2="262.0833333333333" stroke="black"/><line x1="301.7631172839507" y1="304.0972222222222" x2="303.83787722908096" y2="262.0833333333333" stroke="black"/><line x1="301.7631172839507" y1="304.0972222222222" x2="301.7631172839507" y2="262.0833333333333" stroke="black"/><line x1="301.7631172839507" y1="304.0972222222222" x2="299.68835733882037" y2="262.0833333333333" stroke="black"/><line x1="295.5388374485598" y1="304.0972222222222" x2="297.0949074074075" y2="262.0833333333333" stroke="black"/><line x1="295.5388374485598" y1="304.0972222222222" x2="293.98276748971205" y2="262.0833333333333" stroke="black"/><line x1="96.36188271604948" y1="430.13888888888886" x2="152.38040123456796" y2="388.12499999999994" stroke="black"/><line x1="96.36188271604948" y1="430.13888888888886" x2="96.36188271604948" y2="388.12499999999994" stroke="black"/><line x1="96.36188271604948" y1="430.13888888888886" x2="40.343364197530946" y2="388.12499999999994" stroke="black"/><line x1="152.38040123456796" y1="388.12499999999994" x2="171.05324074074082" y2="346.1111111111111" stroke="black"/><line x1="152.38040123456796" y1="388.12499999999994" x2="152.38040123456796" y2="346.1111111111111" stroke="black"/><line x1="152.38040123456796" y1="388.12499999999994" x2="133.70756172839515" y2="346.1111111111111" stroke="black"/><line x1="96.36188271604948" y1="388.12499999999994" x2="115.03472222222229" y2="346.1111111111111" stroke="black"/><line x1="96.36188271604948" y1="388.12499999999994" x2="96.36188271604948" y2="346.1111111111111" stroke="black"/><line x1="96.36188271604948" y1="388.12499999999994" x2="77.68904320987662" y2="346.1111111111111" stroke="black"/><line x1="40.343364197530946" y1="388.12499999999994" x2="59.01620370370381" y2="346.1111111111111" stroke="black"/><line x1="40.343364197530946" y1="388.12499999999994" x2="40.343364197530946" y2="346.1111111111111" stroke="black"/><line x1="40.343364197530946" y1="388.12499999999994" x2="21.670524691358082" y2="346.1111111111111" stroke="black"/><circle cx="264.41743827160496" cy="472.1527777777777" r="10" fill="rgb(229 0 125)" stroke="black" stroke-width="2"/><circle cx="432.47299382716056" cy="430.13888888888886" r="10" fill="rgb(229 0 125)" stroke="black" stroke-width="2"/><circle cx="488.4915123456791" cy="388.12499999999994" r="10" fill="rgb(229 0 125)" stroke="black" stroke-width="2"/><circle cx="432.47299382716056" cy="388.12499999999994" r="10" fill="rgb(229 0 125)" stroke="black" stroke-width="2"/><circle cx="376.45447530864203" cy="388.12499999999994" r="10" fill="rgb(229 0 125)" stroke="black" stroke-width="2"/><circle cx="264.41743827160496" cy="430.13888888888886" r="10" fill="rgb(229 0 125)" stroke="black" stroke-width="2"/><circle cx="320.43595679012356" cy="388.12499999999994" r="10" fill="rgb(229 0 125)" stroke="black" stroke-width="2"/><circle cx="339.10879629629636" cy="346.1111111111111" r="10" fill="rgb(229 0 125)" stroke="black" stroke-width="2"/><circle cx="345.3330761316873" cy="304.0972222222222" r="10" fill="rgb(229 0 125)" stroke="black" stroke-width="2"/><circle cx="339.10879629629636" cy="304.0972222222222" r="10" fill="rgb(229 0 125)" stroke="black" stroke-width="2"/><circle cx="332.88451646090545" cy="304.0972222222222" r="10" fill="rgb(229 0 125)" stroke="black" stroke-width="2"/><circle cx="320.43595679012356" cy="346.1111111111111" r="10" fill="rgb(229 0 125)" stroke="black" stroke-width="2"/><circle cx="326.6602366255145" cy="304.0972222222222" r="10" fill="rgb(229 0 125)" stroke="black" stroke-width="2"/><circle cx="320.43595679012356" cy="304.0972222222222" r="10" fill="rgb(229 0 125)" stroke="black" stroke-width="2"/><circle cx="314.21167695473264" cy="304.0972222222222" r="10" fill="rgb(229 0 125)" stroke="black" stroke-width="2"/><circle cx="301.7631172839507" cy="346.1111111111111" r="10" fill="rgb(229 0 125)" stroke="black" stroke-width="2"/><circle cx="307.9873971193416" cy="304.0972222222222" r="10" fill="rgb(229 0 125)" stroke="black" stroke-width="2"/><circle cx="310.062157064472" cy="262.0833333333333" r="10" fill="rgb(229 0 125)" stroke="black" stroke-width="2"/><circle cx="307.9873971193416" cy="262.0833333333333" r="10" fill="rgb(229 0 125)" stroke="black" stroke-width="2"/><circle cx="305.91263717421134" cy="262.0833333333333" r="10" fill="rgb(229 0 125)" stroke="black" stroke-width="2"/><circle cx="301.7631172839507" cy="304.0972222222222" r="10" fill="rgb(229 0 125)" stroke="black" stroke-width="2"/><circle cx="303.83787722908096" cy="262.0833333333333" r="10" fill="rgb(229 0 125)" stroke="black" stroke-width="2"/><circle cx="301.7631172839507" cy="262.0833333333333" r="10" fill="rgb(229 0 125)" stroke="black" stroke-width="2"/><circle cx="299.68835733882037" cy="262.0833333333333" r="10" fill="rgb(229 0 125)" stroke="black" stroke-width="2"/><circle cx="295.5388374485598" cy="304.0972222222222" r="10" fill="rgb(229 0 125)" stroke="black" stroke-width="2"/><circle cx="297.0949074074075" cy="262.0833333333333" r="10" fill="rgb(229 0 125)" stroke="black" stroke-width="2"/><circle cx="293.98276748971205" cy="262.0833333333333" r="10" fill="rgb(229 0 125)" stroke="black" stroke-width="2"/><circle cx="264.41743827160496" cy="388.12499999999994" r="10" fill="rgb(229 0 125)" stroke="black" stroke-width="2"/><circle cx="208.3989197530865" cy="388.12499999999994" r="10" fill="rgb(229 0 125)" stroke="black" stroke-width="2"/><circle cx="96.36188271604948" cy="430.13888888888886" r="10" fill="rgb(229 0 125)" stroke="black" stroke-width="2"/><circle cx="152.38040123456796" cy="388.12499999999994" r="10" fill="rgb(229 0 125)" stroke="black" stroke-width="2"/><circle cx="171.05324074074082" cy="346.1111111111111" r="10" fill="rgb(229 0 125)" stroke="black" stroke-width="2"/><circle cx="152.38040123456796" cy="346.1111111111111" r="10" fill="rgb(229 0 125)" stroke="black" stroke-width="2"/><circle cx="133.70756172839515" cy="346.1111111111111" r="10" fill="rgb(229 0 125)" stroke="black" stroke-width="2"/><circle cx="96.36188271604948" cy="388.12499999999994" r="10" fill="rgb(229 0 125)" stroke="black" stroke-width="2"/><circle cx="115.03472222222229" cy="346.1111111111111" r="10" fill="rgb(229 0 125)" stroke="black" stroke-width="2"/><circle cx="96.36188271604948" cy="346.1111111111111" r="10" fill="rgb(229 0 125)" stroke="black" stroke-width="2"/><circle cx="77.68904320987662" cy="346.1111111111111" r="10" fill="rgb(229 0 125)" stroke="black" stroke-width="2"/><circle cx="40.343364197530946" cy="388.12499999999994" r="10" fill="rgb(229 0 125)" stroke="black" stroke-width="2"/><circle cx="59.01620370370381" cy="346.1111111111111" r="10" fill="rgb(229 0 125)" stroke="black" stroke-width="2"/><circle cx="40.343364197530946" cy="346.1111111111111" r="10" fill="rgb(229 0 125)" stroke="black" stroke-width="2"/><circle cx="21.670524691358082" cy="346.1111111111111" r="10" fill="rgb(229 0 125)" stroke="black" stroke-width="2"/></svg>