<svg xmlns="http://www.w3.org/2000/svg" width="531.1689814814815" height="492.65625" style="background: white;"><line x1="265.58449074074076" y1="41.51041666666667" x2="97.52893518518519" y2="104.53125" stroke="rgb(0 159 227)" stroke-width="5"/><line x1="265.58449074074076" y1="41.51041666666667" x2="265.58449074074076" y2="104.53125" stroke="rgb(0 159 227)" stroke-width="5"/><line x1="265.58449074074076" y1="41.51041666666667" x2="433.6400462962963" y2="104.53125" stroke="rgb(0 159 227)" stroke-width="5"/><line x1="97.52893518518519" y1="104.53125" x2="41.51041666666667" y2="167.55208333333334" stroke="rgb(0 159 227)" stroke-width="5"/><line x1="97.52893518518519" y1="104.53125" x2="97.52893518518519" y2="167.55208333333334" stroke="rgb(0 159 227)" stroke-width="5"/><line x1="97.52893518518519" y1="104.53125" x2="153.5474537037037" y2="167.55208333333334" stroke="rgb(0 159 227)" stroke-width="5"/><line x1="153.5474537037037" y1="167.55208333333334" x2="134.8746141975309" y2="230.57291666666669" stroke="rgb(0 159 227)" stroke-width="5"/><line x1="153.5474537037037" y1="167.55208333333334" x2="153.5474537037037" y2="230.57291666666669" stroke="rgb(0 159 227)" stroke-width="5"/><line x1="153.5474537037037" y1="167.55208333333334" x2="172.22029320987653" y2="230.57291666666669" stroke="rgb(0 159 227)" stroke-width="5"/><line x1="433.6400462962963" y1="104.53125" x2="377.62152777777777" y2="167.55208333333334" stroke="rgb(0 159 227)" stroke-width="5"/><line x1="433.6400462962963" y1="104.53125" x2="433.6400462962963" y2="167.55208333333334" stroke="rgb(0 159 227)" stroke-width="5"/><line x1="433.6400462962963" y1="104.53125" x2="489.65856481481484" y2="167.55208333333334" stroke="rgb(0 159 227)" stroke-width="5"/><line x1="265.58449074074076" y1="41.51041666666667" x2="97.52893518518519" y2="104.53125" stroke="black"/><line x1="265.58449074074076" y1="41.51041666666667" x2="265.58449074074076" y2="104.53125" stroke="black"/><line x1="265.58449074074076" y1="41.51041666666667" x2="433.6400462962963" y2="104.53125" stroke="black"/><line x1="97.52893518518519" y1="104.53125" x2="41.51041666666667" y2="167.55208333333334" stroke="black"/><line x1="97.52893518518519" y1="104.53125" x2="97.52893518518519" y2="167.55208333333334" stroke="black"/><line x1="97.52893518518519" y1="104.53125" x2="153.5474537037037" y2="167.55208333333334" stroke="black"/><line x1="153.5474537037037" y1="167.55208333333334" x2="134.8746141975309" y2="230.57291666666669" stroke="black"/><line x1="153.5474537037037" y1="167.55208333333334" x2="153.5474537037037" y2="230.57291666666669" stroke="black"/><line x1="153.5474537037037" y1="167.55208333333334" x2="172.22029320987653" y2="230.57291666666669" stroke="black"/><line x1="433.6400462962963" y1="104.53125" x2="377.62152777777777" y2="167.55208333333334" stroke="black"/><line x1="433.6400462962963" y1="104.53125" x2="433.6400462962963" y2="167.55208333333334" stroke="black"/><line x1="433.6400462962963" y1="104.53125" x2="489.65856481481484" y2="167.55208333333334" stroke="black"/><circle cx="265.58449074074076" cy="41.51041666666667" r="10" fill="rgb(229 0 125)" stroke="black" stroke-width="2"/><circle cx="97.52893518518519" cy="104.53125" r="10" fill="rgb(229 0 125)" stroke="black" stroke-width="2"/><circle cx="41.51041666666667" cy="167.55208333333334" r="10" fill="rgb(229 0 125)" stroke="black" stroke-width="2"/><circle cx="97.52893518518519" cy="167.55208333333334" r="10" fill="rgb(229 0 125)" stroke="black" stroke-width="2"/><circle cx="153.5474537037037" cy="167.55208333333334" r="10" fill="rgb(229 0 125)" stroke="black" stroke-width="2"/><circle cx="134.8746141975309" cy="230.57291666666669" r="10" fill="rgb(229 0 125)" stroke="black" stroke-width="2"/><circle cx="153.5474537037037" cy="230.57291666666669" r="10" fill="rgb(229 0 125)" stroke="black" stroke-width="2"/><circle cx="172.22029320987653" cy="230.57291666666669" r="10" fill="rgb(229 0 125)" stroke="black" stroke-width="2"/><circle cx="265.58449074074076" cy="104.53125" r="10" fill="rgb(229 0 125)" stroke="black" stroke-width="2"/><circle cx="433.6400462962963" cy="104.53125" r="10" fill="rgb(229 0 125)" stroke="black" stroke-width="2"/><circle cx="377.62152777777777" cy="167.55208333333334" r="10" fill="rgb(229 0 125)" stroke="black" stroke-width="2"/><circle cx="433.6400462962963" cy="167.55208333333334" r="10" fill="rgb(229 0 125)" stroke="black" stroke-width="2"/><circle cx="489.65856481481484" cy="167.55208333333334" r="10" fill="rgb(229 0 125)" stroke="black" stroke-width="2"/><line x1="265.58449074074076" y1="451.1458333333333" x2="433.6400462962963" y2="388.125" stroke="rgb(0 159 227)" stroke-width="5"/><line x1="265.58449074074076" y1="451.1458333333333" x2="265.58449074074076" y2="388.125" stroke="rgb(0 159 227)" stroke-width="5"/><line x1="265.58449074074076" y1="451.1458333333333" x2="97.52893518518522" y2="388.125" stroke="rgb(0 159 227)" stroke-width="5"/><line x1="433.6400462962963" y1="388.125" x2="489.65856481481484" y2="325.10416666666663" stroke="rgb(0 159 227)" stroke-width="5"/><line x1="433.6400462962963" y1="388.125" x2="433.6400462962963" y2="325.10416666666663" stroke="rgb(0 159 227)" stroke-width="5"/><line x1="433.6400462962963" y1="388.125" x2="377.6215277777778" y2="325.10416666666663" stroke="rgb(0 159 227)" stroke-width="5"/><line x1="377.6215277777778" y1="325.10416666666663" x2="396.29436728395063" y2="262.0833333333333" stroke="rgb(0 159 227)" stroke-width="5"/><line x1="377.6215277777778" y1="325.10416666666663" x2="377.6215277777778" y2="262.0833333333333" stroke="rgb(0 159 227)" stroke-width="5"/><line x1="377.6215277777778" y1="325.10416666666663" x2="358.94868827160496" y2="262.0833333333333" stroke="rgb(0 159 227)" stroke-width="5"/><line x1="97.52893518518522" y1="388.125" x2="153.54745370370375" y2="325.10416666666663" stroke="rgb(0 159 227)" stroke-width="5"/><line x1="97.52893518518522" y1="388.125" x2="97.52893518518522" y2="325.10416666666663" stroke="rgb(0 159 227)" stroke-width="5"/><line x1="97.52893518518522" y1="388.125" x2="41.510416666666686" y2="325.10416666666663" stroke="rgb(0 159 227)" stroke-width="5"/><line x1="265.58449074074076" y1="451.1458333333333" x2="433.6400462962963" y2="388.125" stroke="black"/><line x1="265.58449074074076" y1="451.1458333333333" x2="265.58449074074076" y2="388.125" stroke="black"/><line x1="265.58449074074076" y1="451.1458333333333" x2="97.52893518518522" y2="388.125" stroke="black"/><line x1="433.6400462962963" y1="388.125" x2="489.65856481481484" y2="325.10416666666663" stroke="black"/><line x1="433.6400462962963" y1="388.125" x2="433.6400462962963" y2="325.10416666666663" stroke="black"/><line x1="433.6400462962963" y1="388.125" x2="377.6215277777778" y2="325.10416666666663" stroke="black"/><line x1="377.6215277777778" y1="325.10416666666663" x2="396.29436728395063" y2="262.0833333333333" stroke="black"/><line x1="377.6215277777778" y1="325.10416666666663" x2="377.6215277777778" y2="262.0833333333333" stroke="black"/><line x1="377.6215277777778" y1="325.10416666666663" x2="358.94868827160496" y2="262.0833333333333" stroke="black"/><line x1="97.52893518518522" y1="388.125" x2="153.54745370370375" y2="325.10416666666663" stroke="black"/><line x1="97.52893518518522" y1="388.125" x2="97.52893518518522" y2="325.10416666666663" stroke="black"/><line x1="97.52893518518522" y1="388.125" x2="41.510416666666686" y2="325.10416666666663" stroke="black"/><circle cx="265.58449074074076" cy="451.1458333333333" r="10" fill="rgb(229 0 125)" stroke="black" stroke-width="2"/><circle cx="433.6400462962963" cy="388.125" r="10" fill="rgb(229 0 125)" stroke="black" stroke-width="2"/><circle cx="489.65856481481484" cy="325.10416666666663" r="10" fill="rgb(229 0 125)" stroke="black" stroke-width="2"/><circle cx="433.6400462962963" cy="325.10416666666663" r="10" fill="rgb(229 0 125)" stroke="black" stroke-width="2"/><circle cx="377.6215277777778" cy="325.10416666666663" r="10" fill="rgb(229 0 125)" stroke="black" stroke-width="2"/><circle cx="396.29436728395063" cy="262.0833333333333" r="10" fill="rgb(229 0 125)" stroke="black" stroke-width="2"/><circle cx="377.6215277777778" cy="262.0833333333333" r="10" fill="rgb(229 0 125)" stroke="black" stroke-width="2"/><circle cx="358.94868827160496" cy="262.0833333333333" r="10" fill="rgb(229 0 125)" stroke="black" stroke-width="2"/><circle cx="265.58449074074076" cy="388.125" r="10" fill="rgb(229 0 125)" stroke="black" stroke-width="2"/><circle cx="97.52893518518522" cy="388.125" r="10" fill="rgb(229 0 125)" stroke="black" stroke-width="2"/><circle cx="153.54745370370375" cy="325.10416666666663" r="10" fill="rgb(229 0 125)" stroke="black" stroke-width="2"/><circle cx="97.52893518518522" cy="325.10416666666663" r="10" fill="rgb(229 0 125)" stroke="black" stroke-width="2"/><circle cx="41.510416666666686" cy="325.10416666666663" r="10" fill="rgb(229 0 125)" stroke="black" stroke-width="2"/></svg>