<svg xmlns="http://www.w3.org/2000/svg" width="538.1712962962962" height="503.1597222222222" style="background: white;"><line x1="269.0856481481481" y1="31.006944444444443" x2="101.03009259259258" y2="73.02083333333333" stroke="rgb(0 159 227)" stroke-width="5"/><line x1="269.0856481481481" y1="31.006944444444443" x2="269.0856481481481" y2="73.02083333333333" stroke="rgb(0 159 227)" stroke-width="5"/><line x1="269.0856481481481" y1="31.006944444444443" x2="437.14120370370364" y2="73.02083333333333" stroke="rgb(0 159 227)" stroke-width="5"/><line x1="101.03009259259258" y1="73.02083333333333" x2="45.01157407407407" y2="115.03472222222221" stroke="rgb(0 159 227)" stroke-width="5"/><line x1="101.03009259259258" y1="73.02083333333333" x2="101.03009259259258" y2="115.03472222222221" stroke="rgb(0 159 227)" stroke-width="5"/><line x1="101.03009259259258" y1="73.02083333333333" x2="157.0486111111111" y2="115.03472222222221" stroke="rgb(0 159 227)" stroke-width="5"/><line x1="45.01157407407407" y1="115.03472222222221" x2="26.33873456790123" y2="157.0486111111111" stroke="rgb(0 159 227)" stroke-width="5"/><line x1="45.01157407407407" y1="115.03472222222221" x2="45.01157407407407" y2="157.0486111111111" stroke="rgb(0 159 227)" stroke-width="5"/><line x1="45.01157407407407" y1="115.03472222222221" x2="63.684413580246904" y2="157.0486111111111" stroke="rgb(0 159 227)" stroke-width="5"/><line x1="26.33873456790123" y1="157.0486111111111" x2="20.11445473251029" y2="199.0625" stroke="rgb(0 159 227)" stroke-width="5"/><line x1="26.33873456790123" y1="157.0486111111111" x2="26.33873456790123" y2="199.0625" stroke="rgb(0 159 227)" stroke-width="5"/><line x1="26.33873456790123" y1="157.0486111111111" x2="32.56301440329218" y2="199.0625" stroke="rgb(0 159 227)" stroke-width="5"/><line x1="20.11445473251029" y1="199.0625" x2="18.039694787379972" y2="241.07638888888886" stroke="rgb(0 159 227)" stroke-width="5"/><line x1="20.11445473251029" y1="199.0625" x2="20.11445473251029" y2="241.07638888888886" stroke="rgb(0 159 227)" stroke-width="5"/><line x1="20.11445473251029" y1="199.0625" x2="22.1892146776406" y2="241.07638888888886" stroke="rgb(0 159 227)" stroke-width="5"/><line x1="45.01157407407407" y1="157.0486111111111" x2="38.78729423868312" y2="199.0625" stroke="rgb(0 159 227)" stroke-width="5"/><line x1="45.01157407407407" y1="157.0486111111111" x2="45.01157407407407" y2="199.0625" stroke="rgb(0 159 227)" stroke-width="5"/><line x1="45.01157407407407" y1="157.0486111111111" x2="51.23585390946502" y2="199.0625" stroke="rgb(0 159 227)" stroke-width="5"/><line x1="63.684413580246904" y1="157.0486111111111" x2="57.46013374485596" y2="199.0625" stroke="rgb(0 159 227)" stroke-width="5"/><line x1="63.684413580246904" y1="157.0486111111111" x2="63.684413580246904" y2="199.0625" stroke="rgb(0 159 227)" stroke-width="5"/><line x1="63.684413580246904" y1="157.0486111111111" x2="69.90869341563786" y2="199.0625" stroke="rgb(0 159 227)" stroke-width="5"/><line x1="101.03009259259258" y1="115.03472222222221" x2="82.35725308641973" y2="157.0486111111111" stroke="rgb(0 159 227)" stroke-width="5"/><line x1="101.03009259259258" y1="115.03472222222221" x2="101.03009259259258" y2="157.0486111111111" stroke="rgb(0 159 227)" stroke-width="5"/><line x1="101.03009259259258" y1="115.03472222222221" x2="119.70293209876542" y2="157.0486111111111" stroke="rgb(0 159 227)" stroke-width="5"/><line x1="82.35725308641973" y1="157.0486111111111" x2="76.1329732510288" y2="199.0625" stroke="rgb(0 159 227)" stroke-width="5"/><line x1="82.35725308641973" y1="157.0486111111111" x2="82.35725308641973" y2="199.0625" stroke="rgb(0 159 227)" stroke-width="5"/><line x1="82.35725308641973" y1="157.0486111111111" x2="88.58153292181069" y2="199.0625" stroke="rgb(0 159 227)" stroke-width="5"/><line x1="157.0486111111111" y1="115.03472222222221" x2="138.37577160493828" y2="157.0486111111111" stroke="rgb(0 159 227)" stroke-width="5"/><line x1="157.0486111111111" y1="115.03472222222221" x2="157.0486111111111" y2="157.0486111111111" stroke="rgb(0 159 227)" stroke-width="5"/><line x1="157.0486111111111" y1="115.03472222222221" x2="175.72145061728392" y2="157.0486111111111" stroke="rgb(0 159 227)" stroke-width="5"/><line x1="269.0856481481481" y1="73.02083333333333" x2="213.06712962962962" y2="115.03472222222221" stroke="rgb(0 159 227)" stroke-width="5"/><line x1="269.0856481481481" y1="73.02083333333333" x2="269.0856481481481" y2="115.03472222222221" stroke="rgb(0 159 227)" stroke-width="5"/><line x1="269.0856481481481" y1="73.02083333333333" x2="325.10416666666663" y2="115.03472222222221" stroke="rgb(0 159 227)" stroke-width="5"/><line x1="213.06712962962962" y1="115.03472222222221" x2="194.39429012345678" y2="157.0486111111111" stroke="rgb(0 159 227)" stroke-width="5"/><line x1="213.06712962962962" y1="115.03472222222221" x2="213.06712962962962" y2="157.0486111111111" stroke="rgb(0 159 227)" stroke-width="5"/><line x1="213.06712962962962" y1="115.03472222222221" x2="231.73996913580243" y2="157.0486111111111" stroke="rgb(0 159 227)" stroke-width="5"/><line x1="194.39429012345678" y1="157.0486111111111" x2="188.1700102880658" y2="199.0625" stroke="rgb(0 159 227)" stroke-width="5"/><line x1="194.39429012345678" y1="157.0486111111111" x2="194.39429012345678" y2="199.0625" stroke="rgb(0 159 227)" stroke-width="5"/><line x1="194.39429012345678" y1="157.0486111111111" x2="200.6185699588477" y2="199.0625" stroke="rgb(0 159 227)" stroke-width="5"/><line x1="213.06712962962962" y1="157.0486111111111" x2="208.3989197530864" y2="199.0625" stroke="rgb(0 159 227)" stroke-width="5"/><line x1="213.06712962962962" y1="157.0486111111111" x2="217.7353395061728" y2="199.0625" stroke="rgb(0 159 227)" stroke-width="5"/><line x1="269.0856481481481" y1="115.03472222222221" x2="250.41280864197526" y2="157.0486111111111" stroke="rgb(0 159 227)" stroke-width="5"/><line x1="269.0856481481481" y1="115.03472222222221" x2="269.0856481481481" y2="157.0486111111111" stroke="rgb(0 159 227)" stroke-width="5"/><line x1="269.0856481481481" y1="115.03472222222221" x2="287.758487654321" y2="157.0486111111111" stroke="rgb(0 159 227)" stroke-width="5"/><line x1="325.10416666666663" y1="115.03472222222221" x2="306.43132716049377" y2="157.0486111111111" stroke="rgb(0 159 227)" stroke-width="5"/><line x1="325.10416666666663" y1="115.03472222222221" x2="325.10416666666663" y2="157.0486111111111" stroke="rgb(0 159 227)" stroke-width="5"/><line x1="325.10416666666663" y1="115.03472222222221" x2="343.7770061728395" y2="157.0486111111111" stroke="rgb(0 159 227)" stroke-width="5"/><line x1="437.14120370370364" y1="73.02083333333333" x2="381.12268518518516" y2="115.03472222222221" stroke="rgb(0 159 227)" stroke-width="5"/><line x1="437.14120370370364" y1="73.02083333333333" x2="437.14120370370364" y2="115.03472222222221" stroke="rgb(0 159 227)" stroke-width="5"/><line x1="437.14120370370364" y1="73.02083333333333" x2="493.1597222222222" y2="115.03472222222221" stroke="rgb(0 159 227)" stroke-width="5"/><line x1="269.0856481481481" y1="31.006944444444443" x2="101.03009259259258" y2="73.02083333333333" stroke="black"/><line x1="269.0856481481481" y1="31.006944444444443" x2="269.0856481481481" y2="73.02083333333333" stroke="black"/><line x1="269.0856481481481" y1="31.006944444444443" x2="437.14120370370364" y2="73.02083333333333" stroke="black"/><line x1="101.03009259259258" y1="73.02083333333333" x2="45.01157407407407" y2="115.03472222222221" stroke="black"/><line x1="101.03009259259258" y1="73.02083333333333" x2="101.03009259259258" y2="115.03472222222221" stroke="black"/><line x1="101.03009259259258" y1="73.02083333333333" x2="157.0486111111111" y2="115.03472222222221" stroke="black"/><line x1="45.01157407407407" y1="115.03472222222221" x2="26.33873456790123" y2="157.0486111111111" stroke="black"/><line x1="45.01157407407407" y1="115.03472222222221" x2="45.01157407407407" y2="157.0486111111111" stroke="black"/><line x1="45.01157407407407" y1="115.03472222222221" x2="63.684413580246904" y2="157.0486111111111" stroke="black"/><line x1="26.33873456790123" y1="157.0486111111111" x2="20.11445473251029" y2="199.0625" stroke="black"/><line x1="26.33873456790123" y1="157.0486111111111" x2="26.33873456790123" y2="199.0625" stroke="black"/><line x1="26.33873456790123" y1="157.0486111111111" x2="32.56301440329218" y2="199.0625" stroke="black"/><line x1="20.11445473251029" y1="199.0625" x2="18.039694787379972" y2="241.07638888888886" stroke="black"/><line x1="20.11445473251029" y1="199.0625" x2="20.11445473251029" y2="241.07638888888886" stroke="black"/><line x1="20.11445473251029" y1="199.0625" x2="22.1892146776406" y2="241.07638888888886" stroke="black"/><line x1="45.01157407407407" y1="157.0486111111111" x2="38.78729423868312" y2="199.0625" stroke="black"/><line x1="45.01157407407407" y1="157.0486111111111" x2="45.01157407407407" y2="199.0625" stroke="black"/><line x1="45.01157407407407" y1="157.0486111111111" x2="51.23585390946502" y2="199.0625" stroke="black"/><line x1="63.684413580246904" y1="157.0486111111111" x2="57.46013374485596" y2="199.0625" stroke="black"/><line x1="63.684413580246904" y1="157.0486111111111" x2="63.684413580246904" y2="199.0625" stroke="black"/><line x1="63.684413580246904" y1="157.0486111111111" x2="69.90869341563786" y2="199.0625" stroke="black"/><line x1="101.03009259259258" y1="115.03472222222221" x2="82.35725308641973" y2="157.0486111111111" stroke="black"/><line x1="101.03009259259258" y1="115.03472222222221" x2="101.03009259259258" y2="157.0486111111111" stroke="black"/><line x1="101.03009259259258" y1="115.03472222222221" x2="119.70293209876542" y2="157.0486111111111" stroke="black"/><line x1="82.35725308641973" y1="157.0486111111111" x2="76.1329732510288" y2="199.0625" stroke="black"/><line x1="82.35725308641973" y1="157.0486111111111" x2="82.35725308641973" y2="199.0625" stroke="black"/><line x1="82.35725308641973" y1="157.0486111111111" x2="88.58153292181069" y2="199.0625" stroke="black"/><line x1="157.0486111111111" y1="115.03472222222221" x2="138.37577160493828" y2="157.0486111111111" stroke="black"/><line x1="157.0486111111111" y1="115.03472222222221" x2="157.0486111111111" y2="157.0486111111111" stroke="black"/><line x1="157.0486111111111" y1="115.03472222222221" x2="175.72145061728392" y2="157.0486111111111" stroke="black"/><line x1="269.0856481481481" y1="73.02083333333333" x2="213.06712962962962" y2="115.03472222222221" stroke="black"/><line x1="269.0856481481481" y1="73.02083333333333" x2="269.0856481481481" y2="115.03472222222221" stroke="black"/><line x1="269.0856481481481" y1="73.02083333333333" x2="325.10416666666663" y2="115.03472222222221" stroke="black"/><line x1="213.06712962962962" y1="115.03472222222221" x2="194.39429012345678" y2="157.0486111111111" stroke="black"/><line x1="213.06712962962962" y1="115.03472222222221" x2="213.06712962962962" y2="157.0486111111111" stroke="black"/><line x1="213.06712962962962" y1="115.03472222222221" x2="231.73996913580243" y2="157.0486111111111" stroke="black"/><line x1="194.39429012345678" y1="157.0486111111111" x2="188.1700102880658" y2="199.0625" stroke="black"/><line x1="194.39429012345678" y1="157.0486111111111" x2="194.39429012345678" y2="199.0625" stroke="black"/><line x1="194.39429012345678" y1="157.0486111111111" x2="200.6185699588477" y2="199.0625" stroke="black"/><line x1="213.06712962962962" y1="157.0486111111111" x2="208.3989197530864" y2="199.0625" stroke="black"/><line x1="213.06712962962962" y1="157.0486111111111" x2="217.7353395061728" y2="199.0625" stroke="black"/><line x1="269.0856481481481" y1="115.03472222222221" x2="250.41280864197526" y2="157.0486111111111" stroke="black"/><line x1="269.0856481481481" y1="115.03472222222221" x2="269.0856481481481" y2="157.0486111111111" stroke="black"/><line x1="269.0856481481481" y1="115.03472222222221" x2="287.758487654321" y2="157.0486111111111" stroke="black"/><line x1="325.10416666666663" y1="115.03472222222221" x2="306.43132716049377" y2="157.0486111111111" stroke="black"/><line x1="325.10416666666663" y1="115.03472222222221" x2="325.10416666666663" y2="157.0486111111111" stroke="black"/><line x1="325.10416666666663" y1="115.03472222222221" x2="343.7770061728395" y2="157.0486111111111" stroke="black"/><line x1="437.14120370370364" y1="73.02083333333333" x2="381.12268518518516" y2="115.03472222222221" stroke="black"/><line x1="437.14120370370364" y1="73.02083333333333" x2="437.14120370370364" y2="115.03472222222221" stroke="black"/><line x1="437.14120370370364" y1="73.02083333333333" x2="493.1597222222222" y2="115.03472222222221" stroke="black"/><circle cx="269.0856481481481" cy="31.006944444444443" r="10" fill="rgb(229 0 125)" stroke="black" stroke-width="2"/><circle cx="101.03009259259258" cy="73.02083333333333" r="10" fill="rgb(229 0 125)" stroke="black" stroke-width="2"/><circle cx="45.01157407407407" cy="115.03472222222221" r="10" fill="rgb(229 0 125)" stroke="black" stroke-width="2"/><circle cx="26.33873456790123" cy="157.0486111111111" r="10" fill="rgb(229 0 125)" stroke="black" stroke-width="2"/><circle cx="20.11445473251029" cy="199.0625" r="10" fill="rgb(229 0 125)" stroke="black" stroke-width="2"/><circle cx="18.039694787379972" cy="241.07638888888886" r="10" fill="rgb(229 0 125)" stroke="black" stroke-width="2"/><circle cx="20.11445473251029" cy="241.07638888888886" r="10" fill="rgb(229 0 125)" stroke="black" stroke-width="2"/><circle cx="22.1892146776406" cy="241.07638888888886" r="10" fill="rgb(229 0 125)" stroke="black" stroke-width="2"/><circle cx="26.33873456790123" cy="199.0625" r="10" fill="rgb(229 0 125)" stroke="black" stroke-width="2"/><circle cx="32.56301440329218" cy="199.0625" r="10" fill="rgb(229 0 125)" stroke="black" stroke-width="2"/><circle cx="45.01157407407407" cy="157.0486111111111" r="10" fill="rgb(229 0 125)" stroke="black" stroke-width="2"/><circle cx="38.78729423868312" cy="199.0625" r="10" fill="rgb(229 0 125)" stroke="black" stroke-width="2"/><circle cx="45.01157407407407" cy="199.0625" r="10" fill="rgb(229 0 125)" stroke="black" stroke-width="2"/><circle cx="51.23585390946502" cy="199.0625" r="10" fill="rgb(229 0 125)" stroke="black" stroke-width="2"/><circle cx="63.684413580246904" cy="157.0486111111111" r="10" fill="rgb(229 0 125)" stroke="black" stroke-width="2"/><circle cx="57.46013374485596" cy="199.0625" r="10" fill="rgb(229 0 125)" stroke="black" stroke-width="2"/><circle cx="63.684413580246904" cy="199.0625" r="10" fill="rgb(229 0 125)" stroke="black" stroke-width="2"/><circle cx="69.90869341563786" cy="199.0625" r="10" fill="rgb(229 0 125)" stroke="black" stroke-width="2"/><circle cx="101.03009259259258" cy="115.03472222222221" r="10" fill="rgb(229 0 125)" stroke="black" stroke-width="2"/><circle cx="82.35725308641973" cy="157.0486111111111" r="10" fill="rgb(229 0 125)" stroke="black" stroke-width="2"/><circle cx="76.1329732510288" cy="199.0625" r="10" fill="rgb(229 0 125)" stroke="black" stroke-width="2"/><circle cx="82.35725308641973" cy="199.0625" r="10" fill="rgb(229 0 125)" stroke="black" stroke-width="2"/><circle cx="88.58153292181069" cy="199.0625" r="10" fill="rgb(229 0 125)" stroke="black" stroke-width="2"/><circle cx="101.03009259259258" cy="157.0486111111111" r="10" fill="rgb(229 0 125)" stroke="black" stroke-width="2"/><circle cx="119.70293209876542" cy="157.0486111111111" r="10" fill="rgb(229 0 125)" stroke="black" stroke-width="2"/><circle cx="157.0486111111111" cy="115.03472222222221" r="10" fill="rgb(229 0 125)" stroke="black" stroke-width="2"/><circle cx="138.37577160493828" cy="157.0486111111111" r="10" fill="rgb(229 0 125)" stroke="black" stroke-width="2"/><circle cx="157.0486111111111" cy="157.0486111111111" r="10" fill="rgb(229 0 125)" stroke="black" stroke-width="2"/><circle cx="175.72145061728392" cy="157.0486111111111" r="10" fill="rgb(229 0 125)" stroke="black" stroke-width="2"/><circle cx="269.0856481481481" cy="73.02083333333333" r="10" fill="rgb(229 0 125)" stroke="black" stroke-width="2"/><circle cx="213.06712962962962" cy="115.03472222222221" r="10" fill="rgb(229 0 125)" stroke="black" stroke-width="2"/><circle cx="194.39429012345678" cy="157.0486111111111" r="10" fill="rgb(229 0 125)" stroke="black" stroke-width="2"/><circle cx="188.1700102880658" cy="199.0625" r="10" fill="rgb(229 0 125)" stroke="black" stroke-width="2"/><circle cx="194.39429012345678" cy="199.0625" r="10" fill="rgb(229 0 125)" stroke="black" stroke-width="2"/><circle cx="200.6185699588477" cy="199.0625" r="10" fill="rgb(229 0 125)" stroke="black" stroke-width="2"/><circle cx="213.06712962962962" cy="157.0486111111111" r="10" fill="rgb(229 0 125)" stroke="black" stroke-width="2"/><circle cx="208.3989197530864" cy="199.0625" r="10" fill="rgb(229 0 125)" stroke="black" stroke-width="2"/><circle cx="217.7353395061728" cy="199.0625" r="10" fill="rgb(229 0 125)" stroke="black" stroke-width="2"/><circle cx="231.73996913580243" cy="157.0486111111111" r="10" fill="rgb(229 0 125)" stroke="black" stroke-width="2"/><circle cx="269.0856481481481" cy="115.03472222222221" r="10" fill="rgb(229 0 125)" stroke="black" stroke-width="2"/><circle cx="250.41280864197526" cy="157.0486111111111" r="10" fill="rgb(229 0 125)" stroke="black" stroke-width="2"/><circle cx="269.0856481481481" cy="157.0486111111111" r="10" fill="rgb(229 0 125)" stroke="black" stroke-width="2"/><circle cx="287.758487654321" cy="157.0486111111111" r="10" fill="rgb(229 0 125)" stroke="black" stroke-width="2"/><circle cx="325.10416666666663" cy="115.03472222222221" r="10" fill="rgb(229 0 125)" stroke="black" stroke-width="2"/><circle cx="306.43132716049377" cy="157.0486111111111" r="10" fill="rgb(229 0 125)" stroke="black" stroke-width="2"/><circle cx="325.10416666666663" cy="157.0486111111111" r="10" fill="rgb(229 0 125)" stroke="black" stroke-width="2"/><circle cx="343.7770061728395" cy="157.0486111111111" r="10" fill="rgb(229 0 125)" stroke="black" stroke-width="2"/><circle cx="437.14120370370364" cy="73.02083333333333" r="10" fill="rgb(229 0 125)" stroke="black" stroke-width="2"/><circle cx="381.12268518518516" cy="115.03472222222221" r="10" fill="rgb(229 0 125)" stroke="black" stroke-width="2"/><circle cx="437.14120370370364" cy="115.03472222222221" r="10" fill="rgb(229 0 125)" stroke="black" stroke-width="2"/><circle cx="493.1597222222222" cy="115.03472222222221" r="10" fill="rgb(229 0 125)" stroke="black" stroke-width="2"/><line x1="269.0856481481481" y1="472.1527777777777" x2="437.1412037037036" y2="430.13888888888886" stroke="rgb(0 159 227)" stroke-width="5"/><line x1="269.0856481481481" y1="472.1527777777777" x2="269.0856481481481" y2="430.13888888888886" stroke="rgb(0 159 227)" stroke-width="5"/><line x1="269.0856481481481" y1="472.1527777777777" x2="101.03009259259255" y2="430.13888888888886" stroke="rgb(0 159 227)" stroke-width="5"/><line x1="437.1412037037036" y1="430.13888888888886" x2="493.1597222222221" y2="388.12499999999994" stroke="rgb(0 159 227)" stroke-width="5"/><line x1="437.1412037037036" y1="430.13888888888886" x2="437.1412037037036" y2="388.12499999999994" stroke="rgb(0 159 227)" stroke-width="5"/><line x1="437.1412037037036" y1="430.13888888888886" x2="381.1226851851851" y2="388.12499999999994" stroke="rgb(0 159 227)" stroke-width="5"/><line x1="493.1597222222221" y1="388.12499999999994" x2="511.832561728395" y2="346.1111111111111" stroke="rgb(0 159 227)" stroke-width="5"/><line x1="493.1597222222221" y1="388.12499999999994" x2="493.1597222222221" y2="346.1111111111111" stroke="rgb(0 159 227)" stroke-width="5"/><line x1="493.1597222222221" y1="388.12499999999994" x2="474.4868827160493" y2="346.1111111111111" stroke="rgb(0 159 227)" stroke-width="5"/><line x1="511.832561728395" y1="346.1111111111111" x2="518.056841563786" y2="304.0972222222222" stroke="rgb(0 159 227)" stroke-width="5"/><line x1="511.832561728395" y1="346.1111111111111" x2="511.832561728395" y2="304.0972222222222" stroke="rgb(0 159 227)" stroke-width="5"/><line x1="511.832561728395" y1="346.1111111111111" x2="505.608281893004" y2="304.0972222222222" stroke="rgb(0 159 227)" stroke-width="5"/><line x1="518.056841563786" y1="304.0972222222222" x2="520.1316015089162" y2="262.0833333333333" stroke="rgb(0 159 227)" stroke-width="5"/><line x1="518.056841563786" y1="304.0972222222222" x2="518.056841563786" y2="262.0833333333333" stroke="rgb(0 159 227)" stroke-width="5"/><line x1="518.056841563786" y1="304.0972222222222" x2="515.9820816186556" y2="262.0833333333333" stroke="rgb(0 159 227)" stroke-width="5"/><line x1="493.1597222222221" y1="346.1111111111111" x2="499.3840020576131" y2="304.0972222222222" stroke="rgb(0 159 227)" stroke-width="5"/><line x1="493.1597222222221" y1="346.1111111111111" x2="493.1597222222221" y2="304.0972222222222" stroke="rgb(0 159 227)" stroke-width="5"/><line x1="493.1597222222221" y1="346.1111111111111" x2="486.93544238683114" y2="304.0972222222222" stroke="rgb(0 159 227)" stroke-width="5"/><line x1="474.4868827160493" y1="346.1111111111111" x2="480.7111625514402" y2="304.0972222222222" stroke="rgb(0 159 227)" stroke-width="5"/><line x1="474.4868827160493" y1="346.1111111111111" x2="474.4868827160493" y2="304.0972222222222" stroke="rgb(0 159 227)" stroke-width="5"/><line x1="474.4868827160493" y1="346.1111111111111" x2="468.26260288065833" y2="304.0972222222222" stroke="rgb(0 159 227)" stroke-width="5"/><line x1="437.1412037037036" y1="388.12499999999994" x2="455.81404320987644" y2="346.1111111111111" stroke="rgb(0 159 227)" stroke-width="5"/><line x1="437.1412037037036" y1="388.12499999999994" x2="437.1412037037036" y2="346.1111111111111" stroke="rgb(0 159 227)" stroke-width="5"/><line x1="437.1412037037036" y1="388.12499999999994" x2="418.4683641975308" y2="346.1111111111111" stroke="rgb(0 159 227)" stroke-width="5"/><line x1="455.81404320987644" y1="346.1111111111111" x2="462.03832304526736" y2="304.0972222222222" stroke="rgb(0 159 227)" stroke-width="5"/><line x1="455.81404320987644" y1="346.1111111111111" x2="455.81404320987644" y2="304.0972222222222" stroke="rgb(0 159 227)" stroke-width="5"/><line x1="455.81404320987644" y1="346.1111111111111" x2="449.5897633744855" y2="304.0972222222222" stroke="rgb(0 159 227)" stroke-width="5"/><line x1="381.1226851851851" y1="388.12499999999994" x2="399.7955246913579" y2="346.1111111111111" stroke="rgb(0 159 227)" stroke-width="5"/><line x1="381.1226851851851" y1="388.12499999999994" x2="381.1226851851851" y2="346.1111111111111" stroke="rgb(0 159 227)" stroke-width="5"/><line x1="381.1226851851851" y1="388.12499999999994" x2="362.44984567901224" y2="346.1111111111111" stroke="rgb(0 159 227)" stroke-width="5"/><line x1="269.0856481481481" y1="430.13888888888886" x2="325.1041666666666" y2="388.12499999999994" stroke="rgb(0 159 227)" stroke-width="5"/><line x1="269.0856481481481" y1="430.13888888888886" x2="269.0856481481481" y2="388.12499999999994" stroke="rgb(0 159 227)" stroke-width="5"/><line x1="269.0856481481481" y1="430.13888888888886" x2="213.06712962962956" y2="388.12499999999994" stroke="rgb(0 159 227)" stroke-width="5"/><line x1="325.1041666666666" y1="388.12499999999994" x2="343.7770061728394" y2="346.1111111111111" stroke="rgb(0 159 227)" stroke-width="5"/><line x1="325.1041666666666" y1="388.12499999999994" x2="325.1041666666666" y2="346.1111111111111" stroke="rgb(0 159 227)" stroke-width="5"/><line x1="325.1041666666666" y1="388.12499999999994" x2="306.43132716049377" y2="346.1111111111111" stroke="rgb(0 159 227)" stroke-width="5"/><line x1="343.7770061728394" y1="346.1111111111111" x2="350.0012860082304" y2="304.0972222222222" stroke="rgb(0 159 227)" stroke-width="5"/><line x1="343.7770061728394" y1="346.1111111111111" x2="343.7770061728394" y2="304.0972222222222" stroke="rgb(0 159 227)" stroke-width="5"/><line x1="343.7770061728394" y1="346.1111111111111" x2="337.55272633744846" y2="304.0972222222222" stroke="rgb(0 159 227)" stroke-width="5"/><line x1="325.1041666666666" y1="346.1111111111111" x2="329.7723765432098" y2="304.0972222222222" stroke="rgb(0 159 227)" stroke-width="5"/><line x1="325.1041666666666" y1="346.1111111111111" x2="320.4359567901234" y2="304.0972222222222" stroke="rgb(0 159 227)" stroke-width="5"/><line x1="269.0856481481481" y1="388.12499999999994" x2="287.7584876543209" y2="346.1111111111111" stroke="rgb(0 159 227)" stroke-width="5"/><line x1="269.0856481481481" y1="388.12499999999994" x2="269.0856481481481" y2="346.1111111111111" stroke="rgb(0 159 227)" stroke-width="5"/><line x1="269.0856481481481" y1="388.12499999999994" x2="250.41280864197518" y2="346.1111111111111" stroke="rgb(0 159 227)" stroke-width="5"/><line x1="213.06712962962956" y1="388.12499999999994" x2="231.73996913580243" y2="346.1111111111111" stroke="rgb(0 159 227)" stroke-width="5"/><line x1="213.06712962962956" y1="388.12499999999994" x2="213.06712962962956" y2="346.1111111111111" stroke="rgb(0 159 227)" stroke-width="5"/><line x1="213.06712962962956" y1="388.12499999999994" x2="194.3942901234567" y2="346.1111111111111" stroke="rgb(0 159 227)" stroke-width="5"/><line x1="101.03009259259255" y1="430.13888888888886" x2="157.04861111111103" y2="388.12499999999994" stroke="rgb(0 159 227)" stroke-width="5"/><line x1="101.03009259259255" y1="430.13888888888886" x2="101.03009259259255" y2="388.12499999999994" stroke="rgb(0 159 227)" stroke-width="5"/><line x1="101.03009259259255" y1="430.13888888888886" x2="45.01157407407402" y2="388.12499999999994" stroke="rgb(0 159 227)" stroke-width="5"/><line x1="269.0856481481481" y1="472.1527777777777" x2="437.1412037037036" y2="430.13888888888886" stroke="black"/><line x1="269.0856481481481" y1="472.1527777777777" x2="269.0856481481481" y2="430.13888888888886" stroke="black"/><line x1="269.0856481481481" y1="472.1527777777777" x2="101.03009259259255" y2="430.13888888888886" stroke="black"/><line x1="437.1412037037036" y1="430.13888888888886" x2="493.1597222222221" y2="388.12499999999994" stroke="black"/><line x1="437.1412037037036" y1="430.13888888888886" x2="437.1412037037036" y2="388.12499999999994" stroke="black"/><line x1="437.1412037037036" y1="430.13888888888886" x2="381.1226851851851" y2="388.12499999999994" stroke="black"/><line x1="493.1597222222221" y1="388.12499999999994" x2="511.832561728395" y2="346.1111111111111" stroke="black"/><line x1="493.1597222222221" y1="388.12499999999994" x2="493.1597222222221" y2="346.1111111111111" stroke="black"/><line x1="493.1597222222221" y1="388.12499999999994" x2="474.4868827160493" y2="346.1111111111111" stroke="black"/><line x1="511.832561728395" y1="346.1111111111111" x2="518.056841563786" y2="304.0972222222222" stroke="black"/><line x1="511.832561728395" y1="346.1111111111111" x2="511.832561728395" y2="304.0972222222222" stroke="black"/><line x1="511.832561728395" y1="346.1111111111111" x2="505.608281893004" y2="304.0972222222222" stroke="black"/><line x1="518.056841563786" y1="304.0972222222222" x2="520.1316015089162" y2="262.0833333333333" stroke="black"/><line x1="518.056841563786" y1="304.0972222222222" x2="518.056841563786" y2="262.0833333333333" stroke="black"/><line x1="518.056841563786" y1="304.0972222222222" x2="515.9820816186556" y2="262.0833333333333" stroke="black"/><line x1="493.1597222222221" y1="346.1111111111111" x2="499.3840020576131" y2="304.0972222222222" stroke="black"/><line x1="493.1597222222221" y1="346.1111111111111" x2="493.1597222222221" y2="304.0972222222222" stroke="black"/><line x1="493.1597222222221" y1="346.1111111111111" x2="486.93544238683114" y2="304.0972222222222" stroke="black"/><line x1="474.4868827160493" y1="346.1111111111111" x2="480.7111625514402" y2="304.0972222222222" stroke="black"/><line x1="474.4868827160493" y1="346.1111111111111" x2="474.4868827160493" y2="304.0972222222222" stroke="black"/><line x1="474.4868827160493" y1="346.1111111111111" x2="468.26260288065833" y2="304.0972222222222" stroke="black"/><line x1="437.1412037037036" y1="388.12499999999994" x2="455.81404320987644" y2="346.1111111111111" stroke="black"/><line x1="437.1412037037036" y1="388.12499999999994" x2="437.1412037037036" y2="346.1111111111111" stroke="black"/><line x1="437.1412037037036" y1="388.12499999999994" x2="418.4683641975308" y2="346.1111111111111" stroke="black"/><line x1="455.81404320987644" y1="346.1111111111111" x2="462.03832304526736" y2="304.0972222222222" stroke="black"/><line x1="455.81404320987644" y1="346.1111111111111" x2="455.81404320987644" y2="304.0972222222222" stroke="black"/><line x1="455.81404320987644" y1="346.1111111111111" x2="449.5897633744855" y2="304.0972222222222" stroke="black"/><line x1="381.1226851851851" y1="388.12499999999994" x2="399.7955246913579" y2="346.1111111111111" stroke="black"/><line x1="381.1226851851851" y1="388.12499999999994" x2="381.1226851851851" y2="346.1111111111111" stroke="black"/><line x1="381.1226851851851" y1="388.12499999999994" x2="362.44984567901224" y2="346.1111111111111" stroke="black"/><line x1="269.0856481481481" y1="430.13888888888886" x2="325.1041666666666" y2="388.12499999999994" stroke="black"/><line x1="269.0856481481481" y1="430.13888888888886" x2="269.0856481481481" y2="388.12499999999994" stroke="black"/><line x1="269.0856481481481" y1="430.13888888888886" x2="213.06712962962956" y2="388.12499999999994" stroke="black"/><line x1="325.1041666666666" y1="388.12499999999994" x2="343.7770061728394" y2="346.1111111111111" stroke="black"/><line x1="325.1041666666666" y1="388.12499999999994" x2="325.1041666666666" y2="346.1111111111111" stroke="black"/><line x1="325.1041666666666" y1="388.12499999999994" x2="306.43132716049377" y2="346.1111111111111" stroke="black"/><line x1="343.7770061728394" y1="346.1111111111111" x2="350.0012860082304" y2="304.0972222222222" stroke="black"/><line x1="343.7770061728394" y1="346.1111111111111" x2="343.7770061728394" y2="304.0972222222222" stroke="black"/><line x1="343.7770061728394" y1="346.1111111111111" x2="337.55272633744846" y2="304.0972222222222" stroke="black"/><line x1="325.1041666666666" y1="346.1111111111111" x2="329.7723765432098" y2="304.0972222222222" stroke="black"/><line x1="325.1041666666666" y1="346.1111111111111" x2="320.4359567901234" y2="304.0972222222222" stroke="black"/><line x1="269.0856481481481" y1="388.12499999999994" x2="287.7584876543209" y2="346.1111111111111" stroke="black"/><line x1="269.0856481481481" y1="388.12499999999994" x2="269.0856481481481" y2="346.1111111111111" stroke="black"/><line x1="269.0856481481481" y1="388.12499999999994" x2="250.41280864197518" y2="346.1111111111111" stroke="black"/><line x1="213.06712962962956" y1="388.12499999999994" x2="231.73996913580243" y2="346.1111111111111" stroke="black"/><line x1="213.06712962962956" y1="388.12499999999994" x2="213.06712962962956" y2="346.1111111111111" stroke="black"/><line x1="213.06712962962956" y1="388.12499999999994" x2="194.3942901234567" y2="346.1111111111111" stroke="black"/><line x1="101.03009259259255" y1="430.13888888888886" x2="157.04861111111103" y2="388.12499999999994" stroke="black"/><line x1="101.03009259259255" y1="430.13888888888886" x2="101.03009259259255" y2="388.12499999999994" stroke="black"/><line x1="101.03009259259255" y1="430.13888888888886" x2="45.01157407407402" y2="388.12499999999994" stroke="black"/><circle cx="269.0856481481481" cy="472.1527777777777" r="10" fill="rgb(229 0 125)" stroke="black" stroke-width="2"/><circle cx="437.1412037037036" cy="430.13888888888886" r="10" fill="rgb(229 0 125)" stroke="black" stroke-width="2"/><circle cx="493.1597222222221" cy="388.12499999999994" r="10" fill="rgb(229 0 125)" stroke="black" stroke-width="2"/><circle cx="511.832561728395" cy="346.1111111111111" r="10" fill="rgb(229 0 125)" stroke="black" stroke-width="2"/><circle cx="518.056841563786" cy="304.0972222222222" r="10" fill="rgb(229 0 125)" stroke="black" stroke-width="2"/><circle cx="520.1316015089162" cy="262.0833333333333" r="10" fill="rgb(229 0 125)" stroke="black" stroke-width="2"/><circle cx="518.056841563786" cy="262.0833333333333" r="10" fill="rgb(229 0 125)" stroke="black" stroke-width="2"/><circle cx="515.9820816186556" cy="262.0833333333333" r="10" fill="rgb(229 0 125)" stroke="black" stroke-width="2"/><circle cx="511.832561728395" cy="304.0972222222222" r="10" fill="rgb(229 0 125)" stroke="black" stroke-width="2"/><circle cx="505.608281893004" cy="304.0972222222222" r="10" fill="rgb(229 0 125)" stroke="black" stroke-width="2"/><circle cx="493.1597222222221" cy="346.1111111111111" r="10" fill="rgb(229 0 125)" stroke="black" stroke-width="2"/><circle cx="499.3840020576131" cy="304.0972222222222" r="10" fill="rgb(229 0 125)" stroke="black" stroke-width="2"/><circle cx="493.1597222222221" cy="304.0972222222222" r="10" fill="rgb(229 0 125)" stroke="black" stroke-width="2"/><circle cx="486.93544238683114" cy="304.0972222222222" r="10" fill="rgb(229 0 125)" stroke="black" stroke-width="2"/><circle cx="474.4868827160493" cy="346.1111111111111" r="10" fill="rgb(229 0 125)" stroke="black" stroke-width="2"/><circle cx="480.7111625514402" cy="304.0972222222222" r="10" fill="rgb(229 0 125)" stroke="black" stroke-width="2"/><circle cx="474.4868827160493" cy="304.0972222222222" r="10" fill="rgb(229 0 125)" stroke="black" stroke-width="2"/><circle cx="468.26260288065833" cy="304.0972222222222" r="10" fill="rgb(229 0 125)" stroke="black" stroke-width="2"/><circle cx="437.1412037037036" cy="388.12499999999994" r="10" fill="rgb(229 0 125)" stroke="black" stroke-width="2"/><circle cx="455.81404320987644" cy="346.1111111111111" r="10" fill="rgb(229 0 125)" stroke="black" stroke-width="2"/><circle cx="462.03832304526736" cy="304.0972222222222" r="10" fill="rgb(229 0 125)" stroke="black" stroke-width="2"/><circle cx="455.81404320987644" cy="304.0972222222222" r="10" fill="rgb(229 0 125)" stroke="black" stroke-width="2"/><circle cx="449.5897633744855" cy="304.0972222222222" r="10" fill="rgb(229 0 125)" stroke="black" stroke-width="2"/><circle cx="437.1412037037036" cy="346.1111111111111" r="10" fill="rgb(229 0 125)" stroke="black" stroke-width="2"/><circle cx="418.4683641975308" cy="346.1111111111111" r="10" fill="rgb(229 0 125)" stroke="black" stroke-width="2"/><circle cx="381.1226851851851" cy="388.12499999999994" r="10" fill="rgb(229 0 125)" stroke="black" stroke-width="2"/><circle cx="399.7955246913579" cy="346.1111111111111" r="10" fill="rgb(229 0 125)" stroke="black" stroke-width="2"/><circle cx="381.1226851851851" cy="346.1111111111111" r="10" fill="rgb(229 0 125)" stroke="black" stroke-width="2"/><circle cx="362.44984567901224" cy="346.1111111111111" r="10" fill="rgb(229 0 125)" stroke="black" stroke-width="2"/><circle cx="269.0856481481481" cy="430.13888888888886" r="10" fill="rgb(229 0 125)" stroke="black" stroke-width="2"/><circle cx="325.1041666666666" cy="388.12499999999994" r="10" fill="rgb(229 0 125)" stroke="black" stroke-width="2"/><circle cx="343.7770061728394" cy="346.1111111111111" r="10" fill="rgb(229 0 125)" stroke="black" stroke-width="2"/><circle cx="350.0012860082304" cy="304.0972222222222" r="10" fill="rgb(229 0 125)" stroke="black" stroke-width="2"/><circle cx="343.7770061728394" cy="304.0972222222222" r="10" fill="rgb(229 0 125)" stroke="black" stroke-width="2"/><circle cx="337.55272633744846" cy="304.0972222222222" r="10" fill="rgb(229 0 125)" stroke="black" stroke-width="2"/><circle cx="325.1041666666666" cy="346.1111111111111" r="10" fill="rgb(229 0 125)" stroke="black" stroke-width="2"/><circle cx="329.7723765432098" cy="304.0972222222222" r="10" fill="rgb(229 0 125)" stroke="black" stroke-width="2"/><circle cx="320.4359567901234" cy="304.0972222222222" r="10" fill="rgb(229 0 125)" stroke="black" stroke-width="2"/><circle cx="306.43132716049377" cy="346.1111111111111" r="10" fill="rgb(229 0 125)" stroke="black" stroke-width="2"/><circle cx="269.0856481481481" cy="388.12499999999994" r="10" fill="rgb(229 0 125)" stroke="black" stroke-width="2"/><circle cx="287.7584876543209" cy="346.1111111111111" r="10" fill="rgb(229 0 125)" stroke="black" stroke-width="2"/><circle cx="269.0856481481481" cy="346.1111111111111" r="10" fill="rgb(229 0 125)" stroke="black" stroke-width="2"/><circle cx="250.41280864197518" cy="346.1111111111111" r="10" fill="rgb(229 0 125)" stroke="black" stroke-width="2"/><circle cx="213.06712962962956" cy="388.12499999999994" r="10" fill="rgb(229 0 125)" stroke="black" stroke-width="2"/><circle cx="231.73996913580243" cy="346.1111111111111" r="10" fill="rgb(229 0 125)" stroke="black" stroke-width="2"/><circle cx="213.06712962962956" cy="346.1111111111111" r="10" fill="rgb(229 0 125)" stroke="black" stroke-width="2"/><circle cx="194.3942901234567" cy="346.1111111111111" r="10" fill="rgb(229 0 125)" stroke="black" stroke-width="2"/><circle cx="101.03009259259255" cy="430.13888888888886" r="10" fill="rgb(229 0 125)" stroke="black" stroke-width="2"/><circle cx="157.04861111111103" cy="388.12499999999994" r="10" fill="rgb(229 0 125)" stroke="black" stroke-width="2"/><circle cx="101.03009259259255" cy="388.12499999999994" r="10" fill="rgb(229 0 125)" stroke="black" stroke-width="2"/><circle cx="45.01157407407402" cy="388.12499999999994" r="10" fill="rgb(229 0 125)" stroke="black" stroke-width="2"/></svg>