<svg xmlns="http://www.w3.org/2000/svg" width="788.59375" height="310.1388888888889" style="background: white;"><line x1="8.046875" y1="155.06944444444446" x2="40.234375" y2="14.097222222222223" stroke="black" stroke-opacity="0.3333333333333333"/><line x1="8.046875" y1="155.06944444444446" x2="136.796875" y2="296.0416666666667" stroke="black" stroke-opacity="0.3333333333333333"/><line x1="40.234375" y1="14.097222222222223" x2="72.421875" y2="14.097222222222223" stroke="black" stroke-opacity="0.3333333333333333"/><line x1="40.234375" y1="14.097222222222223" x2="168.984375" y2="296.0416666666667" stroke="black" stroke-opacity="0.3333333333333333"/><line x1="72.421875" y1="14.097222222222223" x2="104.609375" y2="14.097222222222223" stroke="black" stroke-opacity="0.3333333333333333"/><line x1="72.421875" y1="14.097222222222223" x2="201.171875" y2="296.0416666666667" stroke="black" stroke-opacity="0.3333333333333333"/><line x1="104.609375" y1="14.097222222222223" x2="136.796875" y2="14.097222222222223" stroke="black" stroke-opacity="0.3333333333333333"/><line x1="104.609375" y1="14.097222222222223" x2="233.359375" y2="296.0416666666667" stroke="black" stroke-opacity="0.3333333333333333"/><line x1="136.796875" y1="14.097222222222223" x2="168.984375" y2="14.097222222222223" stroke="black" stroke-opacity="0.3333333333333333"/><line x1="136.796875" y1="14.097222222222223" x2="265.546875" y2="296.0416666666667" stroke="black" stroke-opacity="0.3333333333333333"/><line x1="136.796875" y1="296.0416666666667" x2="168.984375" y2="14.097222222222223" stroke="black" stroke-opacity="0.3333333333333333"/><line x1="136.796875" y1="296.0416666666667" x2="265.546875" y2="296.0416666666667" stroke="black" stroke-opacity="0.3333333333333333"/><line x1="168.984375" y1="14.097222222222223" x2="201.171875" y2="14.097222222222223" stroke="black" stroke-opacity="0.3333333333333333"/><line x1="168.984375" y1="14.097222222222223" x2="297.734375" y2="296.0416666666667" stroke="black" stroke-opacity="0.3333333333333333"/><line x1="168.984375" y1="296.0416666666667" x2="201.171875" y2="14.097222222222223" stroke="black" stroke-opacity="0.3333333333333333"/><line x1="168.984375" y1="296.0416666666667" x2="297.734375" y2="296.0416666666667" stroke="black" stroke-opacity="0.3333333333333333"/><line x1="201.171875" y1="14.097222222222223" x2="233.359375" y2="14.097222222222223" stroke="black" stroke-opacity="0.3333333333333333"/><line x1="201.171875" y1="14.097222222222223" x2="329.921875" y2="296.0416666666667" stroke="black" stroke-opacity="0.3333333333333333"/><line x1="201.171875" y1="296.0416666666667" x2="233.359375" y2="14.097222222222223" stroke="black" stroke-opacity="0.3333333333333333"/><line x1="201.171875" y1="296.0416666666667" x2="329.921875" y2="296.0416666666667" stroke="black" stroke-opacity="0.3333333333333333"/><line x1="233.359375" y1="14.097222222222223" x2="265.546875" y2="14.097222222222223" stroke="black" stroke-opacity="0.3333333333333333"/><line x1="233.359375" y1="14.097222222222223" x2="362.109375" y2="296.0416666666667" stroke="black" stroke-opacity="0.3333333333333333"/><line x1="233.359375" y1="296.0416666666667" x2="265.546875" y2="14.097222222222223" stroke="black" stroke-opacity="0.3333333333333333"/><line x1="233.359375" y1="296.0416666666667" x2="362.109375" y2="296.0416666666667" stroke="black" stroke-opacity="0.3333333333333333"/><line x1="265.546875" y1="14.097222222222223" x2="297.734375" y2="14.097222222222223" stroke="black" stroke-opacity="0.3333333333333333"/><line x1="265.546875" y1="14.097222222222223" x2="394.296875" y2="296.0416666666667" stroke="black" stroke-opacity="0.3333333333333333"/><line x1="265.546875" y1="296.0416666666667" x2="297.734375" y2="14.097222222222223" stroke="black" stroke-opacity="0.3333333333333333"/><line x1="265.546875" y1="296.0416666666667" x2="394.296875" y2="296.0416666666667" stroke="black" stroke-opacity="0.3333333333333333"/><line x1="297.734375" y1="14.097222222222223" x2="329.921875" y2="14.097222222222223" stroke="black" stroke-opacity="0.3333333333333333"/><line x1="297.734375" y1="14.097222222222223" x2="426.484375" y2="296.0416666666667" stroke="black" stroke-opacity="0.3333333333333333"/><line x1="297.734375" y1="296.0416666666667" x2="329.921875" y2="14.097222222222223" stroke="black" stroke-opacity="0.3333333333333333"/><line x1="297.734375" y1="296.0416666666667" x2="426.484375" y2="296.0416666666667" stroke="black" stroke-opacity="0.3333333333333333"/><line x1="329.921875" y1="14.097222222222223" x2="362.109375" y2="14.097222222222223" stroke="black" stroke-opacity="0.3333333333333333"/><line x1="329.921875" y1="14.097222222222223" x2="458.671875" y2="296.0416666666667" stroke="black" stroke-opacity="0.3333333333333333"/><line x1="329.921875" y1="296.0416666666667" x2="362.109375" y2="14.097222222222223" stroke="black" stroke-opacity="0.3333333333333333"/><line x1="329.921875" y1="296.0416666666667" x2="458.671875" y2="296.0416666666667" stroke="black" stroke-opacity="0.3333333333333333"/><line x1="362.109375" y1="14.097222222222223" x2="394.296875" y2="14.097222222222223" stroke="black" stroke-opacity="0.3333333333333333"/><line x1="362.109375" y1="14.097222222222223" x2="490.859375" y2="296.0416666666667" stroke="black" stroke-opacity="0.3333333333333333"/><line x1="362.109375" y1="296.0416666666667" x2="394.296875" y2="14.097222222222223" stroke="black" stroke-opacity="0.3333333333333333"/><line x1="362.109375" y1="296.0416666666667" x2="490.859375" y2="296.0416666666667" stroke="black" stroke-opacity="0.3333333333333333"/><line x1="394.296875" y1="14.097222222222223" x2="426.484375" y2="14.097222222222223" stroke="black" stroke-opacity="0.3333333333333333"/><line x1="394.296875" y1="14.097222222222223" x2="523.046875" y2="296.0416666666667" stroke="black" stroke-opacity="0.3333333333333333"/><line x1="394.296875" y1="296.0416666666667" x2="426.484375" y2="14.097222222222223" stroke="black" stroke-opacity="0.3333333333333333"/><line x1="394.296875" y1="296.0416666666667" x2="523.046875" y2="296.0416666666667" stroke="black" stroke-opacity="0.3333333333333333"/><line x1="426.484375" y1="14.097222222222223" x2="458.671875" y2="14.097222222222223" stroke="black" stroke-opacity="0.3333333333333333"/><line x1="426.484375" y1="14.097222222222223" x2="555.234375" y2="296.0416666666667" stroke="black" stroke-opacity="0.3333333333333333"/><line x1="426.484375" y1="296.0416666666667" x2="458.671875" y2="14.097222222222223" stroke="black" stroke-opacity="0.3333333333333333"/><line x1="426.484375" y1="296.0416666666667" x2="555.234375" y2="296.0416666666667" stroke="black" stroke-opacity="0.3333333333333333"/><line x1="458.671875" y1="14.097222222222223" x2="490.859375" y2="14.097222222222223" stroke="black" stroke-opacity="0.3333333333333333"/><line x1="458.671875" y1="14.097222222222223" x2="587.421875" y2="296.0416666666667" stroke="black" stroke-opacity="0.3333333333333333"/><line x1="458.671875" y1="296.0416666666667" x2="490.859375" y2="14.097222222222223" stroke="black" stroke-opacity="0.3333333333333333"/><line x1="458.671875" y1="296.0416666666667" x2="587.421875" y2="296.0416666666667" stroke="black" stroke-opacity="0.3333333333333333"/><line x1="490.859375" y1="14.097222222222223" x2="523.046875" y2="14.097222222222223" stroke="black" stroke-opacity="0.3333333333333333"/><line x1="490.859375" y1="14.097222222222223" x2="619.609375" y2="296.0416666666667" stroke="black" stroke-opacity="0.3333333333333333"/><line x1="490.859375" y1="296.0416666666667" x2="523.046875" y2="14.097222222222223" stroke="black" stroke-opacity="0.3333333333333333"/><line x1="490.859375" y1="296.0416666666667" x2="619.609375" y2="296.0416666666667" stroke="black" stroke-opacity="0.3333333333333333"/><line x1="523.046875" y1="14.097222222222223" x2="555.234375" y2="14.097222222222223" stroke="black" stroke-opacity="0.3333333333333333"/><line x1="523.046875" y1="14.097222222222223" x2="651.796875" y2="296.0416666666667" stroke="black" stroke-opacity="0.3333333333333333"/><line x1="523.046875" y1="296.0416666666667" x2="555.234375" y2="14.097222222222223" stroke="black" stroke-opacity="0.3333333333333333"/><line x1="523.046875" y1="296.0416666666667" x2="651.796875" y2="296.0416666666667" stroke="black" stroke-opacity="0.3333333333333333"/><line x1="555.234375" y1="14.097222222222223" x2="587.421875" y2="14.097222222222223" stroke="black" stroke-opacity="0.3333333333333333"/><line x1="555.234375" y1="14.097222222222223" x2="683.984375" y2="296.0416666666667" stroke="black" stroke-opacity="0.3333333333333333"/><line x1="555.234375" y1="296.0416666666667" x2="587.421875" y2="14.097222222222223" stroke="black" stroke-opacity="0.3333333333333333"/><line x1="555.234375" y1="296.0416666666667" x2="683.984375" y2="296.0416666666667" stroke="black" stroke-opacity="0.3333333333333333"/><line x1="587.421875" y1="14.097222222222223" x2="619.609375" y2="14.097222222222223" stroke="black" stroke-opacity="0.3333333333333333"/><line x1="587.421875" y1="14.097222222222223" x2="716.171875" y2="296.0416666666667" stroke="black" stroke-opacity="0.3333333333333333"/><line x1="587.421875" y1="296.0416666666667" x2="619.609375" y2="14.097222222222223" stroke="black" stroke-opacity="0.3333333333333333"/><line x1="587.421875" y1="296.0416666666667" x2="716.171875" y2="296.0416666666667" stroke="black" stroke-opacity="0.3333333333333333"/><line x1="619.609375" y1="14.097222222222223" x2="651.796875" y2="14.097222222222223" stroke="black" stroke-opacity="0.3333333333333333"/><line x1="619.609375" y1="14.097222222222223" x2="748.359375" y2="296.0416666666667" stroke="black" stroke-opacity="0.3333333333333333"/><line x1="619.609375" y1="296.0416666666667" x2="651.796875" y2="14.097222222222223" stroke="black" stroke-opacity="0.3333333333333333"/><line x1="619.609375" y1="296.0416666666667" x2="748.359375" y2="296.0416666666667" stroke="black" stroke-opacity="0.3333333333333333"/><line x1="651.796875" y1="14.097222222222223" x2="683.984375" y2="14.097222222222223" stroke="black" stroke-opacity="0.3333333333333333"/><line x1="651.796875" y1="14.097222222222223" x2="780.546875" y2="296.0416666666667" stroke="black" stroke-opacity="0.3333333333333333"/><line x1="651.796875" y1="296.0416666666667" x2="683.984375" y2="14.097222222222223" stroke="black" stroke-opacity="0.3333333333333333"/><line x1="651.796875" y1="296.0416666666667" x2="780.546875" y2="296.0416666666667" stroke="black" stroke-opacity="0.3333333333333333"/><line x1="683.984375" y1="14.097222222222223" x2="716.171875" y2="14.097222222222223" stroke="black" stroke-opacity="0.3333333333333333"/><line x1="683.984375" y1="296.0416666666667" x2="716.171875" y2="14.097222222222223" stroke="black" stroke-opacity="0.3333333333333333"/><line x1="716.171875" y1="14.097222222222223" x2="748.359375" y2="14.097222222222223" stroke="black" stroke-opacity="0.3333333333333333"/><line x1="716.171875" y1="296.0416666666667" x2="748.359375" y2="14.097222222222223" stroke="black" stroke-opacity="0.3333333333333333"/><line x1="748.359375" y1="14.097222222222223" x2="780.546875" y2="14.097222222222223" stroke="black" stroke-opacity="0.3333333333333333"/><line x1="748.359375" y1="296.0416666666667" x2="780.546875" y2="14.097222222222223" stroke="black" stroke-opacity="0.3333333333333333"/><line x1="8.046875" y1="156.19722222222222" x2="136.796875" y2="297.1694444444445" stroke="rgb(255 0 255)"/><line x1="136.796875" y1="297.1694444444445" x2="168.984375" y2="15.225000000000001" stroke="rgb(255 0 255)"/><line x1="168.984375" y1="15.225000000000001" x2="201.171875" y2="15.225000000000001" stroke="rgb(255 0 255)"/><line x1="201.171875" y1="15.225000000000001" x2="233.359375" y2="15.225000000000001" stroke="rgb(255 0 255)"/><line x1="233.359375" y1="15.225000000000001" x2="265.546875" y2="15.225000000000001" stroke="rgb(255 0 255)"/><line x1="265.546875" y1="15.225000000000001" x2="297.734375" y2="15.225000000000001" stroke="rgb(255 0 255)"/><line x1="297.734375" y1="15.225000000000001" x2="329.921875" y2="15.225000000000001" stroke="rgb(255 0 255)"/><line x1="329.921875" y1="15.225000000000001" x2="362.109375" y2="15.225000000000001" stroke="rgb(255 0 255)"/><line x1="362.109375" y1="15.225000000000001" x2="394.296875" y2="15.225000000000001" stroke="rgb(255 0 255)"/><line x1="394.296875" y1="15.225000000000001" x2="426.484375" y2="15.225000000000001" stroke="rgb(255 0 255)"/><line x1="426.484375" y1="15.225000000000001" x2="458.671875" y2="15.225000000000001" stroke="rgb(255 0 255)"/><line x1="458.671875" y1="15.225000000000001" x2="490.859375" y2="15.225000000000001" stroke="rgb(255 0 255)"/><line x1="490.859375" y1="15.225000000000001" x2="523.046875" y2="15.225000000000001" stroke="rgb(255 0 255)"/><line x1="523.046875" y1="15.225000000000001" x2="555.234375" y2="15.225000000000001" stroke="rgb(255 0 255)"/><line x1="555.234375" y1="15.225000000000001" x2="587.421875" y2="15.225000000000001" stroke="rgb(255 0 255)"/><line x1="587.421875" y1="15.225000000000001" x2="619.609375" y2="15.225000000000001" stroke="rgb(255 0 255)"/><line x1="619.609375" y1="15.225000000000001" x2="651.796875" y2="15.225000000000001" stroke="rgb(255 0 255)"/><line x1="651.796875" y1="15.225000000000001" x2="683.984375" y2="15.225000000000001" stroke="rgb(255 0 255)"/><line x1="683.984375" y1="15.225000000000001" x2="716.171875" y2="15.225000000000001" stroke="rgb(255 0 255)"/><line x1="716.171875" y1="15.225000000000001" x2="748.359375" y2="15.225000000000001" stroke="rgb(255 0 255)"/><line x1="748.359375" y1="15.225000000000001" x2="780.546875" y2="15.225000000000001" stroke="rgb(255 0 255)"/><line x1="8.046875" y1="157.32500000000002" x2="40.234375" y2="16.352777777777778" stroke="rgb(255 255 0)"/><line x1="40.234375" y1="16.352777777777778" x2="72.421875" y2="16.352777777777778" stroke="rgb(255 255 0)"/><line x1="72.421875" y1="16.352777777777778" x2="104.609375" y2="16.352777777777778" stroke="rgb(255 255 0)"/><line x1="104.609375" y1="16.352777777777778" x2="136.796875" y2="16.352777777777778" stroke="rgb(255 255 0)"/><line x1="136.796875" y1="16.352777777777778" x2="168.984375" y2="16.352777777777778" stroke="rgb(255 255 0)"/><line x1="168.984375" y1="16.352777777777778" x2="201.171875" y2="16.352777777777778" stroke="rgb(255 255 0)"/><line x1="201.171875" y1="16.352777777777778" x2="233.359375" y2="16.352777777777778" stroke="rgb(255 255 0)"/><line x1="233.359375" y1="16.352777777777778" x2="265.546875" y2="16.352777777777778" stroke="rgb(255 255 0)"/><line x1="265.546875" y1="16.352777777777778" x2="297.734375" y2="16.352777777777778" stroke="rgb(255 255 0)"/><line x1="297.734375" y1="16.352777777777778" x2="329.921875" y2="16.352777777777778" stroke="rgb(255 255 0)"/><line x1="329.921875" y1="16.352777777777778" x2="362.109375" y2="16.352777777777778" stroke="rgb(255 255 0)"/><line x1="362.109375" y1="16.352777777777778" x2="394.296875" y2="16.352777777777778" stroke="rgb(255 255 0)"/><line x1="394.296875" y1="16.352777777777778" x2="426.484375" y2="16.352777777777778" stroke="rgb(255 255 0)"/><line x1="426.484375" y1="16.352777777777778" x2="458.671875" y2="16.352777777777778" stroke="rgb(255 255 0)"/><line x1="458.671875" y1="16.352777777777778" x2="490.859375" y2="16.352777777777778" stroke="rgb(255 255 0)"/><line x1="490.859375" y1="16.352777777777778" x2="523.046875" y2="16.352777777777778" stroke="rgb(255 255 0)"/><line x1="523.046875" y1="16.352777777777778" x2="555.234375" y2="16.352777777777778" stroke="rgb(255 255 0)"/><line x1="555.234375" y1="16.352777777777778" x2="587.421875" y2="16.352777777777778" stroke="rgb(255 255 0)"/><line x1="587.421875" y1="16.352777777777778" x2="619.609375" y2="16.352777777777778" stroke="rgb(255 255 0)"/><line x1="619.609375" y1="16.352777777777778" x2="651.796875" y2="16.352777777777778" stroke="rgb(255 255 0)"/><line x1="651.796875" y1="16.352777777777778" x2="683.984375" y2="16.352777777777778" stroke="rgb(255 255 0)"/><line x1="683.984375" y1="16.352777777777778" x2="716.171875" y2="16.352777777777778" stroke="rgb(255 255 0)"/><line x1="716.171875" y1="16.352777777777778" x2="748.359375" y2="16.352777777777778" stroke="rgb(255 255 0)"/><line x1="748.359375" y1="16.352777777777778" x2="780.546875" y2="16.352777777777778" stroke="rgb(255 255 0)"/><line x1="8.046875" y1="158.45277777777778" x2="136.796875" y2="299.425" stroke="rgb(0 0 255)"/><line x1="136.796875" y1="299.425" x2="265.546875" y2="299.425" stroke="rgb(0 0 255)"/><line x1="265.546875" y1="299.425" x2="394.296875" y2="299.425" stroke="rgb(0 0 255)"/><line x1="394.296875" y1="299.425" x2="523.046875" y2="299.425" stroke="rgb(0 0 255)"/><line x1="523.046875" y1="299.425" x2="651.796875" y2="299.425" stroke="rgb(0 0 255)"/><line x1="651.796875" y1="299.425" x2="780.546875" y2="299.425" stroke="rgb(0 0 255)"/><line x1="8.046875" y1="159.58055555555558" x2="40.234375" y2="18.608333333333334" stroke="rgb(0 255 0)"/><line x1="40.234375" y1="18.608333333333334" x2="72.421875" y2="18.608333333333334" stroke="rgb(0 255 0)"/><line x1="72.421875" y1="18.608333333333334" x2="104.609375" y2="18.608333333333334" stroke="rgb(0 255 0)"/><line x1="104.609375" y1="18.608333333333334" x2="136.796875" y2="18.608333333333334" stroke="rgb(0 255 0)"/><line x1="136.796875" y1="18.608333333333334" x2="168.984375" y2="18.608333333333334" stroke="rgb(0 255 0)"/><line x1="168.984375" y1="18.608333333333334" x2="201.171875" y2="18.608333333333334" stroke="rgb(0 255 0)"/><line x1="201.171875" y1="18.608333333333334" x2="233.359375" y2="18.608333333333334" stroke="rgb(0 255 0)"/><line x1="233.359375" y1="18.608333333333334" x2="265.546875" y2="18.608333333333334" stroke="rgb(0 255 0)"/><line x1="265.546875" y1="18.608333333333334" x2="297.734375" y2="18.608333333333334" stroke="rgb(0 255 0)"/><line x1="297.734375" y1="18.608333333333334" x2="329.921875" y2="18.608333333333334" stroke="rgb(0 255 0)"/><line x1="329.921875" y1="18.608333333333334" x2="362.109375" y2="18.608333333333334" stroke="rgb(0 255 0)"/><line x1="362.109375" y1="18.608333333333334" x2="394.296875" y2="18.608333333333334" stroke="rgb(0 255 0)"/><line x1="394.296875" y1="18.608333333333334" x2="426.484375" y2="18.608333333333334" stroke="rgb(0 255 0)"/><line x1="426.484375" y1="18.608333333333334" x2="458.671875" y2="18.608333333333334" stroke="rgb(0 255 0)"/><line x1="458.671875" y1="18.608333333333334" x2="490.859375" y2="18.608333333333334" stroke="rgb(0 255 0)"/><line x1="490.859375" y1="18.608333333333334" x2="523.046875" y2="18.608333333333334" stroke="rgb(0 255 0)"/><line x1="523.046875" y1="18.608333333333334" x2="555.234375" y2="18.608333333333334" stroke="rgb(0 255 0)"/><line x1="555.234375" y1="18.608333333333334" x2="587.421875" y2="18.608333333333334" stroke="rgb(0 255 0)"/><line x1="587.421875" y1="18.608333333333334" x2="619.609375" y2="18.608333333333334" stroke="rgb(0 255 0)"/><line x1="619.609375" y1="18.608333333333334" x2="651.796875" y2="18.608333333333334" stroke="rgb(0 255 0)"/><line x1="651.796875" y1="18.608333333333334" x2="683.984375" y2="18.608333333333334" stroke="rgb(0 255 0)"/><line x1="683.984375" y1="18.608333333333334" x2="716.171875" y2="18.608333333333334" stroke="rgb(0 255 0)"/><line x1="716.171875" y1="18.608333333333334" x2="748.359375" y2="18.608333333333334" stroke="rgb(0 255 0)"/><line x1="748.359375" y1="18.608333333333334" x2="780.546875" y2="18.608333333333334" stroke="rgb(0 255 0)"/><line x1="8.046875" y1="160.70833333333334" x2="136.796875" y2="301.6805555555556" stroke="rgb(255 0 0)"/><line x1="136.796875" y1="301.6805555555556" x2="265.546875" y2="301.6805555555556" stroke="rgb(255 0 0)"/><line x1="265.546875" y1="301.6805555555556" x2="394.296875" y2="301.6805555555556" stroke="rgb(255 0 0)"/><line x1="394.296875" y1="301.6805555555556" x2="523.046875" y2="301.6805555555556" stroke="rgb(255 0 0)"/><line x1="523.046875" y1="301.6805555555556" x2="651.796875" y2="301.6805555555556" stroke="rgb(255 0 0)"/><line x1="651.796875" y1="301.6805555555556" x2="780.546875" y2="301.6805555555556" stroke="rgb(255 0 0)"/></svg>