<svg xmlns="http://www.w3.org/2000/svg" width="796.640625" height="304.5" style="background: white;"><line x1="12.0703125" y1="152.25" x2="108.6328125" y2="16.916666666666668" stroke="black" stroke-opacity="0.1"/><line x1="12.0703125" y1="152.25" x2="60.3515625" y2="84.58333333333334" stroke="black" stroke-opacity="0.1"/><line x1="12.0703125" y1="152.25" x2="205.1953125" y2="152.25" stroke="black" stroke-opacity="0.1"/><line x1="12.0703125" y1="152.25" x2="60.3515625" y2="219.91666666666669" stroke="black" stroke-opacity="0.1"/><line x1="12.0703125" y1="152.25" x2="205.1953125" y2="287.58333333333337" stroke="black" stroke-opacity="0.1"/><line x1="60.3515625" y1="84.58333333333334" x2="156.9140625" y2="16.916666666666668" stroke="black" stroke-opacity="0.1"/><line x1="60.3515625" y1="84.58333333333334" x2="108.6328125" y2="84.58333333333334" stroke="black" stroke-opacity="0.1"/><line x1="60.3515625" y1="84.58333333333334" x2="253.4765625" y2="152.25" stroke="black" stroke-opacity="0.1"/><line x1="60.3515625" y1="84.58333333333334" x2="108.6328125" y2="219.91666666666669" stroke="black" stroke-opacity="0.1"/><line x1="60.3515625" y1="84.58333333333334" x2="253.4765625" y2="287.58333333333337" stroke="black" stroke-opacity="0.1"/><line x1="60.3515625" y1="219.91666666666669" x2="156.9140625" y2="16.916666666666668" stroke="black" stroke-opacity="0.1"/><line x1="60.3515625" y1="219.91666666666669" x2="108.6328125" y2="84.58333333333334" stroke="black" stroke-opacity="0.1"/><line x1="60.3515625" y1="219.91666666666669" x2="253.4765625" y2="152.25" stroke="black" stroke-opacity="0.1"/><line x1="60.3515625" y1="219.91666666666669" x2="108.6328125" y2="219.91666666666669" stroke="black" stroke-opacity="0.1"/><line x1="60.3515625" y1="219.91666666666669" x2="253.4765625" y2="287.58333333333337" stroke="black" stroke-opacity="0.1"/><line x1="108.6328125" y1="16.916666666666668" x2="205.1953125" y2="16.916666666666668" stroke="black" stroke-opacity="0.1"/><line x1="108.6328125" y1="16.916666666666668" x2="156.9140625" y2="84.58333333333334" stroke="black" stroke-opacity="0.1"/><line x1="108.6328125" y1="16.916666666666668" x2="301.7578125" y2="152.25" stroke="black" stroke-opacity="0.1"/><line x1="108.6328125" y1="16.916666666666668" x2="156.9140625" y2="219.91666666666669" stroke="black" stroke-opacity="0.1"/><line x1="108.6328125" y1="16.916666666666668" x2="301.7578125" y2="287.58333333333337" stroke="black" stroke-opacity="0.1"/><line x1="108.6328125" y1="84.58333333333334" x2="205.1953125" y2="16.916666666666668" stroke="black" stroke-opacity="0.1"/><line x1="108.6328125" y1="84.58333333333334" x2="156.9140625" y2="84.58333333333334" stroke="black" stroke-opacity="0.1"/><line x1="108.6328125" y1="84.58333333333334" x2="301.7578125" y2="152.25" stroke="black" stroke-opacity="0.1"/><line x1="108.6328125" y1="84.58333333333334" x2="156.9140625" y2="219.91666666666669" stroke="black" stroke-opacity="0.1"/><line x1="108.6328125" y1="84.58333333333334" x2="301.7578125" y2="287.58333333333337" stroke="black" stroke-opacity="0.1"/><line x1="108.6328125" y1="219.91666666666669" x2="205.1953125" y2="16.916666666666668" stroke="black" stroke-opacity="0.1"/><line x1="108.6328125" y1="219.91666666666669" x2="156.9140625" y2="84.58333333333334" stroke="black" stroke-opacity="0.1"/><line x1="108.6328125" y1="219.91666666666669" x2="301.7578125" y2="152.25" stroke="black" stroke-opacity="0.1"/><line x1="108.6328125" y1="219.91666666666669" x2="156.9140625" y2="219.91666666666669" stroke="black" stroke-opacity="0.1"/><line x1="108.6328125" y1="219.91666666666669" x2="301.7578125" y2="287.58333333333337" stroke="black" stroke-opacity="0.1"/><line x1="156.9140625" y1="16.916666666666668" x2="253.4765625" y2="16.916666666666668" stroke="black" stroke-opacity="0.1"/><line x1="156.9140625" y1="16.916666666666668" x2="205.1953125" y2="84.58333333333334" stroke="black" stroke-opacity="0.1"/><line x1="156.9140625" y1="16.916666666666668" x2="350.0390625" y2="152.25" stroke="black" stroke-opacity="0.1"/><line x1="156.9140625" y1="16.916666666666668" x2="205.1953125" y2="219.91666666666669" stroke="black" stroke-opacity="0.1"/><line x1="156.9140625" y1="16.916666666666668" x2="350.0390625" y2="287.58333333333337" stroke="black" stroke-opacity="0.1"/><line x1="156.9140625" y1="84.58333333333334" x2="253.4765625" y2="16.916666666666668" stroke="black" stroke-opacity="0.11627906976744186"/><line x1="156.9140625" y1="84.58333333333334" x2="205.1953125" y2="84.58333333333334" stroke="black" stroke-opacity="0.11627906976744186"/><line x1="156.9140625" y1="84.58333333333334" x2="350.0390625" y2="152.25" stroke="black" stroke-opacity="0.11627906976744186"/><line x1="156.9140625" y1="84.58333333333334" x2="205.1953125" y2="219.91666666666669" stroke="black" stroke-opacity="0.11627906976744186"/><line x1="156.9140625" y1="84.58333333333334" x2="350.0390625" y2="287.58333333333337" stroke="black" stroke-opacity="0.11627906976744186"/><line x1="156.9140625" y1="219.91666666666669" x2="253.4765625" y2="16.916666666666668" stroke="black" stroke-opacity="0.11627906976744186"/><line x1="156.9140625" y1="219.91666666666669" x2="205.1953125" y2="84.58333333333334" stroke="black" stroke-opacity="0.11627906976744186"/><line x1="156.9140625" y1="219.91666666666669" x2="350.0390625" y2="152.25" stroke="black" stroke-opacity="0.11627906976744186"/><line x1="156.9140625" y1="219.91666666666669" x2="205.1953125" y2="219.91666666666669" stroke="black" stroke-opacity="0.11627906976744186"/><line x1="156.9140625" y1="219.91666666666669" x2="350.0390625" y2="287.58333333333337" stroke="black" stroke-opacity="0.11627906976744186"/><line x1="205.1953125" y1="16.916666666666668" x2="301.7578125" y2="16.916666666666668" stroke="black" stroke-opacity="0.11627906976744186"/><line x1="205.1953125" y1="16.916666666666668" x2="253.4765625" y2="84.58333333333334" stroke="black" stroke-opacity="0.11627906976744186"/><line x1="205.1953125" y1="16.916666666666668" x2="398.3203125" y2="152.25" stroke="black" stroke-opacity="0.11627906976744186"/><line x1="205.1953125" y1="16.916666666666668" x2="253.4765625" y2="219.91666666666669" stroke="black" stroke-opacity="0.11627906976744186"/><line x1="205.1953125" y1="16.916666666666668" x2="398.3203125" y2="287.58333333333337" stroke="black" stroke-opacity="0.11627906976744186"/><line x1="205.1953125" y1="84.58333333333334" x2="301.7578125" y2="16.916666666666668" stroke="black" stroke-opacity="0.18604651162790697"/><line x1="205.1953125" y1="84.58333333333334" x2="253.4765625" y2="84.58333333333334" stroke="black" stroke-opacity="0.18604651162790697"/><line x1="205.1953125" y1="84.58333333333334" x2="398.3203125" y2="152.25" stroke="black" stroke-opacity="0.18604651162790697"/><line x1="205.1953125" y1="84.58333333333334" x2="253.4765625" y2="219.91666666666669" stroke="black" stroke-opacity="0.18604651162790697"/><line x1="205.1953125" y1="84.58333333333334" x2="398.3203125" y2="287.58333333333337" stroke="black" stroke-opacity="0.18604651162790697"/><line x1="205.1953125" y1="152.25" x2="301.7578125" y2="16.916666666666668" stroke="black" stroke-opacity="0.1"/><line x1="205.1953125" y1="152.25" x2="253.4765625" y2="84.58333333333334" stroke="black" stroke-opacity="0.1"/><line x1="205.1953125" y1="152.25" x2="398.3203125" y2="152.25" stroke="black" stroke-opacity="0.1"/><line x1="205.1953125" y1="152.25" x2="253.4765625" y2="219.91666666666669" stroke="black" stroke-opacity="0.1"/><line x1="205.1953125" y1="152.25" x2="398.3203125" y2="287.58333333333337" stroke="black" stroke-opacity="0.1"/><line x1="205.1953125" y1="219.91666666666669" x2="301.7578125" y2="16.916666666666668" stroke="black" stroke-opacity="0.18604651162790697"/><line x1="205.1953125" y1="219.91666666666669" x2="253.4765625" y2="84.58333333333334" stroke="black" stroke-opacity="0.18604651162790697"/><line x1="205.1953125" y1="219.91666666666669" x2="398.3203125" y2="152.25" stroke="black" stroke-opacity="0.18604651162790697"/><line x1="205.1953125" y1="219.91666666666669" x2="253.4765625" y2="219.91666666666669" stroke="black" stroke-opacity="0.18604651162790697"/><line x1="205.1953125" y1="219.91666666666669" x2="398.3203125" y2="287.58333333333337" stroke="black" stroke-opacity="0.18604651162790697"/><line x1="205.1953125" y1="287.58333333333337" x2="301.7578125" y2="16.916666666666668" stroke="black" stroke-opacity="0.1"/><line x1="205.1953125" y1="287.58333333333337" x2="253.4765625" y2="84.58333333333334" stroke="black" stroke-opacity="0.1"/><line x1="205.1953125" y1="287.58333333333337" x2="398.3203125" y2="152.25" stroke="black" stroke-opacity="0.1"/><line x1="205.1953125" y1="287.58333333333337" x2="253.4765625" y2="219.91666666666669" stroke="black" stroke-opacity="0.1"/><line x1="205.1953125" y1="287.58333333333337" x2="398.3203125" y2="287.58333333333337" stroke="black" stroke-opacity="0.1"/><line x1="253.4765625" y1="16.916666666666668" x2="350.0390625" y2="16.916666666666668" stroke="black" stroke-opacity="0.18604651162790697"/><line x1="253.4765625" y1="16.916666666666668" x2="301.7578125" y2="84.58333333333334" stroke="black" stroke-opacity="0.18604651162790697"/><line x1="253.4765625" y1="16.916666666666668" x2="446.6015625" y2="152.25" stroke="black" stroke-opacity="0.16279069767441862"/><line x1="253.4765625" y1="16.916666666666668" x2="301.7578125" y2="219.91666666666669" stroke="black" stroke-opacity="0.18604651162790697"/><line x1="253.4765625" y1="16.916666666666668" x2="446.6015625" y2="287.58333333333337" stroke="black" stroke-opacity="0.11627906976744186"/><line x1="253.4765625" y1="84.58333333333334" x2="350.0390625" y2="16.916666666666668" stroke="black" stroke-opacity="0.3488372093023256"/><line x1="253.4765625" y1="84.58333333333334" x2="301.7578125" y2="84.58333333333334" stroke="black" stroke-opacity="0.3488372093023256"/><line x1="253.4765625" y1="84.58333333333334" x2="446.6015625" y2="152.25" stroke="black" stroke-opacity="0.2558139534883721"/><line x1="253.4765625" y1="84.58333333333334" x2="301.7578125" y2="219.91666666666669" stroke="black" stroke-opacity="0.3488372093023256"/><line x1="253.4765625" y1="84.58333333333334" x2="446.6015625" y2="287.58333333333337" stroke="black" stroke-opacity="0.2558139534883721"/><line x1="253.4765625" y1="152.25" x2="350.0390625" y2="16.916666666666668" stroke="black" stroke-opacity="0.1"/><line x1="253.4765625" y1="152.25" x2="301.7578125" y2="84.58333333333334" stroke="black" stroke-opacity="0.1"/><line x1="253.4765625" y1="152.25" x2="446.6015625" y2="152.25" stroke="black" stroke-opacity="0.1"/><line x1="253.4765625" y1="152.25" x2="301.7578125" y2="219.91666666666669" stroke="black" stroke-opacity="0.1"/><line x1="253.4765625" y1="219.91666666666669" x2="350.0390625" y2="16.916666666666668" stroke="black" stroke-opacity="0.3488372093023256"/><line x1="253.4765625" y1="219.91666666666669" x2="301.7578125" y2="84.58333333333334" stroke="black" stroke-opacity="0.3488372093023256"/><line x1="253.4765625" y1="219.91666666666669" x2="446.6015625" y2="152.25" stroke="black" stroke-opacity="0.32558139534883723"/><line x1="253.4765625" y1="219.91666666666669" x2="301.7578125" y2="219.91666666666669" stroke="black" stroke-opacity="0.3488372093023256"/><line x1="253.4765625" y1="219.91666666666669" x2="446.6015625" y2="287.58333333333337" stroke="black" stroke-opacity="0.2558139534883721"/><line x1="253.4765625" y1="287.58333333333337" x2="350.0390625" y2="16.916666666666668" stroke="black" stroke-opacity="0.1"/><line x1="253.4765625" y1="287.58333333333337" x2="301.7578125" y2="84.58333333333334" stroke="black" stroke-opacity="0.1"/><line x1="253.4765625" y1="287.58333333333337" x2="301.7578125" y2="219.91666666666669" stroke="black" stroke-opacity="0.1"/><line x1="253.4765625" y1="287.58333333333337" x2="446.6015625" y2="287.58333333333337" stroke="black" stroke-opacity="0.1"/><line x1="301.7578125" y1="16.916666666666668" x2="398.3203125" y2="16.916666666666668" stroke="black" stroke-opacity="0.3488372093023256"/><line x1="301.7578125" y1="16.916666666666668" x2="350.0390625" y2="84.58333333333334" stroke="black" stroke-opacity="0.3488372093023256"/><line x1="301.7578125" y1="16.916666666666668" x2="494.8828125" y2="152.25" stroke="black" stroke-opacity="0.2558139534883721"/><line x1="301.7578125" y1="16.916666666666668" x2="350.0390625" y2="219.91666666666669" stroke="black" stroke-opacity="0.3488372093023256"/><line x1="301.7578125" y1="16.916666666666668" x2="494.8828125" y2="287.58333333333337" stroke="black" stroke-opacity="0.16279069767441862"/><line x1="301.7578125" y1="84.58333333333334" x2="398.3203125" y2="16.916666666666668" stroke="black" stroke-opacity="0.5116279069767442"/><line x1="301.7578125" y1="84.58333333333334" x2="350.0390625" y2="84.58333333333334" stroke="black" stroke-opacity="0.5116279069767442"/><line x1="301.7578125" y1="84.58333333333334" x2="494.8828125" y2="152.25" stroke="black" stroke-opacity="0.27906976744186046"/><line x1="301.7578125" y1="84.58333333333334" x2="350.0390625" y2="219.91666666666669" stroke="black" stroke-opacity="0.5116279069767442"/><line x1="301.7578125" y1="84.58333333333334" x2="494.8828125" y2="287.58333333333337" stroke="black" stroke-opacity="0.2558139534883721"/><line x1="301.7578125" y1="152.25" x2="398.3203125" y2="16.916666666666668" stroke="black" stroke-opacity="0.11627906976744186"/><line x1="301.7578125" y1="152.25" x2="350.0390625" y2="84.58333333333334" stroke="black" stroke-opacity="0.11627906976744186"/><line x1="301.7578125" y1="152.25" x2="494.8828125" y2="152.25" stroke="black" stroke-opacity="0.11627906976744186"/><line x1="301.7578125" y1="152.25" x2="350.0390625" y2="219.91666666666669" stroke="black" stroke-opacity="0.11627906976744186"/><line x1="301.7578125" y1="152.25" x2="494.8828125" y2="287.58333333333337" stroke="black" stroke-opacity="0.1"/><line x1="301.7578125" y1="219.91666666666669" x2="398.3203125" y2="16.916666666666668" stroke="black" stroke-opacity="0.5116279069767442"/><line x1="301.7578125" y1="219.91666666666669" x2="350.0390625" y2="84.58333333333334" stroke="black" stroke-opacity="0.5116279069767442"/><line x1="301.7578125" y1="219.91666666666669" x2="494.8828125" y2="152.25" stroke="black" stroke-opacity="0.3488372093023256"/><line x1="301.7578125" y1="219.91666666666669" x2="350.0390625" y2="219.91666666666669" stroke="black" stroke-opacity="0.5116279069767442"/><line x1="301.7578125" y1="219.91666666666669" x2="494.8828125" y2="287.58333333333337" stroke="black" stroke-opacity="0.23255813953488372"/><line x1="301.7578125" y1="287.58333333333337" x2="398.3203125" y2="16.916666666666668" stroke="black" stroke-opacity="0.11627906976744186"/><line x1="301.7578125" y1="287.58333333333337" x2="350.0390625" y2="84.58333333333334" stroke="black" stroke-opacity="0.11627906976744186"/><line x1="301.7578125" y1="287.58333333333337" x2="494.8828125" y2="152.25" stroke="black" stroke-opacity="0.1"/><line x1="301.7578125" y1="287.58333333333337" x2="350.0390625" y2="219.91666666666669" stroke="black" stroke-opacity="0.11627906976744186"/><line x1="301.7578125" y1="287.58333333333337" x2="494.8828125" y2="287.58333333333337" stroke="black" stroke-opacity="0.11627906976744186"/><line x1="350.0390625" y1="16.916666666666668" x2="446.6015625" y2="16.916666666666668" stroke="black" stroke-opacity="0.3953488372093023"/><line x1="350.0390625" y1="16.916666666666668" x2="398.3203125" y2="84.58333333333334" stroke="black" stroke-opacity="0.5116279069767442"/><line x1="350.0390625" y1="16.916666666666668" x2="543.1640625" y2="152.25" stroke="black" stroke-opacity="0.23255813953488372"/><line x1="350.0390625" y1="16.916666666666668" x2="398.3203125" y2="219.91666666666669" stroke="black" stroke-opacity="0.5116279069767442"/><line x1="350.0390625" y1="16.916666666666668" x2="543.1640625" y2="287.58333333333337" stroke="black" stroke-opacity="0.11627906976744186"/><line x1="350.0390625" y1="84.58333333333334" x2="446.6015625" y2="16.916666666666668" stroke="black" stroke-opacity="0.627906976744186"/><line x1="350.0390625" y1="84.58333333333334" x2="398.3203125" y2="84.58333333333334" stroke="black" stroke-opacity="0.7674418604651163"/><line x1="350.0390625" y1="84.58333333333334" x2="543.1640625" y2="152.25" stroke="black" stroke-opacity="0.27906976744186046"/><line x1="350.0390625" y1="84.58333333333334" x2="398.3203125" y2="219.91666666666669" stroke="black" stroke-opacity="0.7441860465116279"/><line x1="350.0390625" y1="84.58333333333334" x2="543.1640625" y2="287.58333333333337" stroke="black" stroke-opacity="0.2558139534883721"/><line x1="350.0390625" y1="152.25" x2="446.6015625" y2="16.916666666666668" stroke="black" stroke-opacity="0.16279069767441862"/><line x1="350.0390625" y1="152.25" x2="398.3203125" y2="84.58333333333334" stroke="black" stroke-opacity="0.18604651162790697"/><line x1="350.0390625" y1="152.25" x2="543.1640625" y2="152.25" stroke="black" stroke-opacity="0.16279069767441862"/><line x1="350.0390625" y1="152.25" x2="398.3203125" y2="219.91666666666669" stroke="black" stroke-opacity="0.18604651162790697"/><line x1="350.0390625" y1="219.91666666666669" x2="446.6015625" y2="16.916666666666668" stroke="black" stroke-opacity="0.7441860465116279"/><line x1="350.0390625" y1="219.91666666666669" x2="398.3203125" y2="84.58333333333334" stroke="black" stroke-opacity="0.7441860465116279"/><line x1="350.0390625" y1="219.91666666666669" x2="543.1640625" y2="152.25" stroke="black" stroke-opacity="0.3488372093023256"/><line x1="350.0390625" y1="219.91666666666669" x2="398.3203125" y2="219.91666666666669" stroke="black" stroke-opacity="0.7674418604651163"/><line x1="350.0390625" y1="219.91666666666669" x2="543.1640625" y2="287.58333333333337" stroke="black" stroke-opacity="0.2558139534883721"/><line x1="350.0390625" y1="287.58333333333337" x2="446.6015625" y2="16.916666666666668" stroke="black" stroke-opacity="0.1"/><line x1="350.0390625" y1="287.58333333333337" x2="398.3203125" y2="84.58333333333334" stroke="black" stroke-opacity="0.18604651162790697"/><line x1="350.0390625" y1="287.58333333333337" x2="398.3203125" y2="219.91666666666669" stroke="black" stroke-opacity="0.18604651162790697"/><line x1="350.0390625" y1="287.58333333333337" x2="543.1640625" y2="287.58333333333337" stroke="black" stroke-opacity="0.16279069767441862"/><line x1="398.3203125" y1="16.916666666666668" x2="494.8828125" y2="16.916666666666668" stroke="black" stroke-opacity="0.46511627906976744"/><line x1="398.3203125" y1="16.916666666666668" x2="446.6015625" y2="84.58333333333334" stroke="black" stroke-opacity="0.627906976744186"/><line x1="398.3203125" y1="16.916666666666668" x2="591.4453125" y2="152.25" stroke="black" stroke-opacity="0.2558139534883721"/><line x1="398.3203125" y1="16.916666666666668" x2="446.6015625" y2="219.91666666666669" stroke="black" stroke-opacity="0.7441860465116279"/><line x1="398.3203125" y1="16.916666666666668" x2="591.4453125" y2="287.58333333333337" stroke="black" stroke-opacity="0.16279069767441862"/><line x1="398.3203125" y1="84.58333333333334" x2="494.8828125" y2="16.916666666666668" stroke="black" stroke-opacity="0.627906976744186"/><line x1="398.3203125" y1="84.58333333333334" x2="446.6015625" y2="84.58333333333334" stroke="black" stroke-opacity="1"/><line x1="398.3203125" y1="84.58333333333334" x2="591.4453125" y2="152.25" stroke="black" stroke-opacity="0.2558139534883721"/><line x1="398.3203125" y1="84.58333333333334" x2="446.6015625" y2="219.91666666666669" stroke="black" stroke-opacity="0.813953488372093"/><line x1="398.3203125" y1="84.58333333333334" x2="591.4453125" y2="287.58333333333337" stroke="black" stroke-opacity="0.2558139534883721"/><line x1="398.3203125" y1="152.25" x2="494.8828125" y2="16.916666666666668" stroke="black" stroke-opacity="0.2558139534883721"/><line x1="398.3203125" y1="152.25" x2="446.6015625" y2="84.58333333333334" stroke="black" stroke-opacity="0.2558139534883721"/><line x1="398.3203125" y1="152.25" x2="591.4453125" y2="152.25" stroke="black" stroke-opacity="0.2558139534883721"/><line x1="398.3203125" y1="152.25" x2="446.6015625" y2="219.91666666666669" stroke="black" stroke-opacity="0.32558139534883723"/><line x1="398.3203125" y1="152.25" x2="591.4453125" y2="287.58333333333337" stroke="black" stroke-opacity="0.1"/><line x1="398.3203125" y1="219.91666666666669" x2="494.8828125" y2="16.916666666666668" stroke="black" stroke-opacity="0.7441860465116279"/><line x1="398.3203125" y1="219.91666666666669" x2="446.6015625" y2="84.58333333333334" stroke="black" stroke-opacity="0.813953488372093"/><line x1="398.3203125" y1="219.91666666666669" x2="591.4453125" y2="152.25" stroke="black" stroke-opacity="0.32558139534883723"/><line x1="398.3203125" y1="219.91666666666669" x2="446.6015625" y2="219.91666666666669" stroke="black" stroke-opacity="0.8837209302325582"/><line x1="398.3203125" y1="219.91666666666669" x2="591.4453125" y2="287.58333333333337" stroke="black" stroke-opacity="0.27906976744186046"/><line x1="398.3203125" y1="287.58333333333337" x2="494.8828125" y2="16.916666666666668" stroke="black" stroke-opacity="0.16279069767441862"/><line x1="398.3203125" y1="287.58333333333337" x2="446.6015625" y2="84.58333333333334" stroke="black" stroke-opacity="0.2558139534883721"/><line x1="398.3203125" y1="287.58333333333337" x2="591.4453125" y2="152.25" stroke="black" stroke-opacity="0.1"/><line x1="398.3203125" y1="287.58333333333337" x2="446.6015625" y2="219.91666666666669" stroke="black" stroke-opacity="0.27906976744186046"/><line x1="398.3203125" y1="287.58333333333337" x2="591.4453125" y2="287.58333333333337" stroke="black" stroke-opacity="0.2558139534883721"/><line x1="446.6015625" y1="16.916666666666668" x2="543.1640625" y2="16.916666666666668" stroke="black" stroke-opacity="0.3953488372093023"/><line x1="446.6015625" y1="16.916666666666668" x2="494.8828125" y2="84.58333333333334" stroke="black" stroke-opacity="0.627906976744186"/><line x1="446.6015625" y1="16.916666666666668" x2="639.7265625" y2="152.25" stroke="black" stroke-opacity="0.16279069767441862"/><line x1="446.6015625" y1="16.916666666666668" x2="494.8828125" y2="219.91666666666669" stroke="black" stroke-opacity="0.7441860465116279"/><line x1="446.6015625" y1="16.916666666666668" x2="639.7265625" y2="287.58333333333337" stroke="black" stroke-opacity="0.1"/><line x1="446.6015625" y1="84.58333333333334" x2="543.1640625" y2="16.916666666666668" stroke="black" stroke-opacity="0.5116279069767442"/><line x1="446.6015625" y1="84.58333333333334" x2="494.8828125" y2="84.58333333333334" stroke="black" stroke-opacity="0.7674418604651163"/><line x1="446.6015625" y1="84.58333333333334" x2="639.7265625" y2="152.25" stroke="black" stroke-opacity="0.18604651162790697"/><line x1="446.6015625" y1="84.58333333333334" x2="494.8828125" y2="219.91666666666669" stroke="black" stroke-opacity="0.7441860465116279"/><line x1="446.6015625" y1="84.58333333333334" x2="639.7265625" y2="287.58333333333337" stroke="black" stroke-opacity="0.18604651162790697"/><line x1="446.6015625" y1="152.25" x2="543.1640625" y2="16.916666666666668" stroke="black" stroke-opacity="0.23255813953488372"/><line x1="446.6015625" y1="152.25" x2="494.8828125" y2="84.58333333333334" stroke="black" stroke-opacity="0.27906976744186046"/><line x1="446.6015625" y1="152.25" x2="639.7265625" y2="152.25" stroke="black" stroke-opacity="0.16279069767441862"/><line x1="446.6015625" y1="152.25" x2="494.8828125" y2="219.91666666666669" stroke="black" stroke-opacity="0.3488372093023256"/><line x1="446.6015625" y1="219.91666666666669" x2="543.1640625" y2="16.916666666666668" stroke="black" stroke-opacity="0.5116279069767442"/><line x1="446.6015625" y1="219.91666666666669" x2="494.8828125" y2="84.58333333333334" stroke="black" stroke-opacity="0.7441860465116279"/><line x1="446.6015625" y1="219.91666666666669" x2="639.7265625" y2="152.25" stroke="black" stroke-opacity="0.18604651162790697"/><line x1="446.6015625" y1="219.91666666666669" x2="494.8828125" y2="219.91666666666669" stroke="black" stroke-opacity="0.7674418604651163"/><line x1="446.6015625" y1="219.91666666666669" x2="639.7265625" y2="287.58333333333337" stroke="black" stroke-opacity="0.18604651162790697"/><line x1="446.6015625" y1="287.58333333333337" x2="543.1640625" y2="16.916666666666668" stroke="black" stroke-opacity="0.11627906976744186"/><line x1="446.6015625" y1="287.58333333333337" x2="494.8828125" y2="84.58333333333334" stroke="black" stroke-opacity="0.2558139534883721"/><line x1="446.6015625" y1="287.58333333333337" x2="494.8828125" y2="219.91666666666669" stroke="black" stroke-opacity="0.2558139534883721"/><line x1="446.6015625" y1="287.58333333333337" x2="639.7265625" y2="287.58333333333337" stroke="black" stroke-opacity="0.16279069767441862"/><line x1="494.8828125" y1="16.916666666666668" x2="591.4453125" y2="16.916666666666668" stroke="black" stroke-opacity="0.3488372093023256"/><line x1="494.8828125" y1="16.916666666666668" x2="543.1640625" y2="84.58333333333334" stroke="black" stroke-opacity="0.5116279069767442"/><line x1="494.8828125" y1="16.916666666666668" x2="688.0078125" y2="152.25" stroke="black" stroke-opacity="0.11627906976744186"/><line x1="494.8828125" y1="16.916666666666668" x2="543.1640625" y2="219.91666666666669" stroke="black" stroke-opacity="0.5116279069767442"/><line x1="494.8828125" y1="16.916666666666668" x2="688.0078125" y2="287.58333333333337" stroke="black" stroke-opacity="0.11627906976744186"/><line x1="494.8828125" y1="84.58333333333334" x2="591.4453125" y2="16.916666666666668" stroke="black" stroke-opacity="0.3488372093023256"/><line x1="494.8828125" y1="84.58333333333334" x2="543.1640625" y2="84.58333333333334" stroke="black" stroke-opacity="0.5116279069767442"/><line x1="494.8828125" y1="84.58333333333334" x2="688.0078125" y2="152.25" stroke="black" stroke-opacity="0.11627906976744186"/><line x1="494.8828125" y1="84.58333333333334" x2="543.1640625" y2="219.91666666666669" stroke="black" stroke-opacity="0.5116279069767442"/><line x1="494.8828125" y1="84.58333333333334" x2="688.0078125" y2="287.58333333333337" stroke="black" stroke-opacity="0.11627906976744186"/><line x1="494.8828125" y1="152.25" x2="591.4453125" y2="16.916666666666668" stroke="black" stroke-opacity="0.2558139534883721"/><line x1="494.8828125" y1="152.25" x2="543.1640625" y2="84.58333333333334" stroke="black" stroke-opacity="0.27906976744186046"/><line x1="494.8828125" y1="152.25" x2="688.0078125" y2="152.25" stroke="black" stroke-opacity="0.11627906976744186"/><line x1="494.8828125" y1="152.25" x2="543.1640625" y2="219.91666666666669" stroke="black" stroke-opacity="0.3488372093023256"/><line x1="494.8828125" y1="152.25" x2="688.0078125" y2="287.58333333333337" stroke="black" stroke-opacity="0.1"/><line x1="494.8828125" y1="219.91666666666669" x2="591.4453125" y2="16.916666666666668" stroke="black" stroke-opacity="0.3488372093023256"/><line x1="494.8828125" y1="219.91666666666669" x2="543.1640625" y2="84.58333333333334" stroke="black" stroke-opacity="0.5116279069767442"/><line x1="494.8828125" y1="219.91666666666669" x2="688.0078125" y2="152.25" stroke="black" stroke-opacity="0.11627906976744186"/><line x1="494.8828125" y1="219.91666666666669" x2="543.1640625" y2="219.91666666666669" stroke="black" stroke-opacity="0.5116279069767442"/><line x1="494.8828125" y1="219.91666666666669" x2="688.0078125" y2="287.58333333333337" stroke="black" stroke-opacity="0.11627906976744186"/><line x1="494.8828125" y1="287.58333333333337" x2="591.4453125" y2="16.916666666666668" stroke="black" stroke-opacity="0.16279069767441862"/><line x1="494.8828125" y1="287.58333333333337" x2="543.1640625" y2="84.58333333333334" stroke="black" stroke-opacity="0.2558139534883721"/><line x1="494.8828125" y1="287.58333333333337" x2="688.0078125" y2="152.25" stroke="black" stroke-opacity="0.1"/><line x1="494.8828125" y1="287.58333333333337" x2="543.1640625" y2="219.91666666666669" stroke="black" stroke-opacity="0.23255813953488372"/><line x1="494.8828125" y1="287.58333333333337" x2="688.0078125" y2="287.58333333333337" stroke="black" stroke-opacity="0.11627906976744186"/><line x1="543.1640625" y1="16.916666666666668" x2="639.7265625" y2="16.916666666666668" stroke="black" stroke-opacity="0.18604651162790697"/><line x1="543.1640625" y1="16.916666666666668" x2="591.4453125" y2="84.58333333333334" stroke="black" stroke-opacity="0.3488372093023256"/><line x1="543.1640625" y1="16.916666666666668" x2="736.2890625" y2="152.25" stroke="black" stroke-opacity="0.1"/><line x1="543.1640625" y1="16.916666666666668" x2="591.4453125" y2="219.91666666666669" stroke="black" stroke-opacity="0.3488372093023256"/><line x1="543.1640625" y1="16.916666666666668" x2="736.2890625" y2="287.58333333333337" stroke="black" stroke-opacity="0.1"/><line x1="543.1640625" y1="84.58333333333334" x2="639.7265625" y2="16.916666666666668" stroke="black" stroke-opacity="0.18604651162790697"/><line x1="543.1640625" y1="84.58333333333334" x2="591.4453125" y2="84.58333333333334" stroke="black" stroke-opacity="0.3488372093023256"/><line x1="543.1640625" y1="84.58333333333334" x2="736.2890625" y2="152.25" stroke="black" stroke-opacity="0.1"/><line x1="543.1640625" y1="84.58333333333334" x2="591.4453125" y2="219.91666666666669" stroke="black" stroke-opacity="0.3488372093023256"/><line x1="543.1640625" y1="84.58333333333334" x2="736.2890625" y2="287.58333333333337" stroke="black" stroke-opacity="0.1"/><line x1="543.1640625" y1="152.25" x2="639.7265625" y2="16.916666666666668" stroke="black" stroke-opacity="0.16279069767441862"/><line x1="543.1640625" y1="152.25" x2="591.4453125" y2="84.58333333333334" stroke="black" stroke-opacity="0.2558139534883721"/><line x1="543.1640625" y1="152.25" x2="736.2890625" y2="152.25" stroke="black" stroke-opacity="0.1"/><line x1="543.1640625" y1="152.25" x2="591.4453125" y2="219.91666666666669" stroke="black" stroke-opacity="0.32558139534883723"/><line x1="543.1640625" y1="219.91666666666669" x2="639.7265625" y2="16.916666666666668" stroke="black" stroke-opacity="0.18604651162790697"/><line x1="543.1640625" y1="219.91666666666669" x2="591.4453125" y2="84.58333333333334" stroke="black" stroke-opacity="0.3488372093023256"/><line x1="543.1640625" y1="219.91666666666669" x2="736.2890625" y2="152.25" stroke="black" stroke-opacity="0.1"/><line x1="543.1640625" y1="219.91666666666669" x2="591.4453125" y2="219.91666666666669" stroke="black" stroke-opacity="0.3488372093023256"/><line x1="543.1640625" y1="219.91666666666669" x2="736.2890625" y2="287.58333333333337" stroke="black" stroke-opacity="0.1"/><line x1="543.1640625" y1="287.58333333333337" x2="639.7265625" y2="16.916666666666668" stroke="black" stroke-opacity="0.11627906976744186"/><line x1="543.1640625" y1="287.58333333333337" x2="591.4453125" y2="84.58333333333334" stroke="black" stroke-opacity="0.2558139534883721"/><line x1="543.1640625" y1="287.58333333333337" x2="591.4453125" y2="219.91666666666669" stroke="black" stroke-opacity="0.2558139534883721"/><line x1="543.1640625" y1="287.58333333333337" x2="736.2890625" y2="287.58333333333337" stroke="black" stroke-opacity="0.1"/><line x1="591.4453125" y1="16.916666666666668" x2="688.0078125" y2="16.916666666666668" stroke="black" stroke-opacity="0.11627906976744186"/><line x1="591.4453125" y1="16.916666666666668" x2="639.7265625" y2="84.58333333333334" stroke="black" stroke-opacity="0.18604651162790697"/><line x1="591.4453125" y1="16.916666666666668" x2="784.5703125" y2="152.25" stroke="black" stroke-opacity="0.1"/><line x1="591.4453125" y1="16.916666666666668" x2="639.7265625" y2="219.91666666666669" stroke="black" stroke-opacity="0.18604651162790697"/><line x1="591.4453125" y1="16.916666666666668" x2="784.5703125" y2="287.58333333333337" stroke="black" stroke-opacity="0.1"/><line x1="591.4453125" y1="84.58333333333334" x2="688.0078125" y2="16.916666666666668" stroke="black" stroke-opacity="0.11627906976744186"/><line x1="591.4453125" y1="84.58333333333334" x2="639.7265625" y2="84.58333333333334" stroke="black" stroke-opacity="0.18604651162790697"/><line x1="591.4453125" y1="84.58333333333334" x2="784.5703125" y2="152.25" stroke="black" stroke-opacity="0.1"/><line x1="591.4453125" y1="84.58333333333334" x2="639.7265625" y2="219.91666666666669" stroke="black" stroke-opacity="0.18604651162790697"/><line x1="591.4453125" y1="84.58333333333334" x2="784.5703125" y2="287.58333333333337" stroke="black" stroke-opacity="0.1"/><line x1="591.4453125" y1="152.25" x2="688.0078125" y2="16.916666666666668" stroke="black" stroke-opacity="0.11627906976744186"/><line x1="591.4453125" y1="152.25" x2="639.7265625" y2="84.58333333333334" stroke="black" stroke-opacity="0.18604651162790697"/><line x1="591.4453125" y1="152.25" x2="784.5703125" y2="152.25" stroke="black" stroke-opacity="0.1"/><line x1="591.4453125" y1="152.25" x2="639.7265625" y2="219.91666666666669" stroke="black" stroke-opacity="0.18604651162790697"/><line x1="591.4453125" y1="152.25" x2="784.5703125" y2="287.58333333333337" stroke="black" stroke-opacity="0.1"/><line x1="591.4453125" y1="219.91666666666669" x2="688.0078125" y2="16.916666666666668" stroke="black" stroke-opacity="0.11627906976744186"/><line x1="591.4453125" y1="219.91666666666669" x2="639.7265625" y2="84.58333333333334" stroke="black" stroke-opacity="0.18604651162790697"/><line x1="591.4453125" y1="219.91666666666669" x2="784.5703125" y2="152.25" stroke="black" stroke-opacity="0.1"/><line x1="591.4453125" y1="219.91666666666669" x2="639.7265625" y2="219.91666666666669" stroke="black" stroke-opacity="0.18604651162790697"/><line x1="591.4453125" y1="219.91666666666669" x2="784.5703125" y2="287.58333333333337" stroke="black" stroke-opacity="0.1"/><line x1="591.4453125" y1="287.58333333333337" x2="688.0078125" y2="16.916666666666668" stroke="black" stroke-opacity="0.11627906976744186"/><line x1="591.4453125" y1="287.58333333333337" x2="639.7265625" y2="84.58333333333334" stroke="black" stroke-opacity="0.18604651162790697"/><line x1="591.4453125" y1="287.58333333333337" x2="784.5703125" y2="152.25" stroke="black" stroke-opacity="0.1"/><line x1="591.4453125" y1="287.58333333333337" x2="639.7265625" y2="219.91666666666669" stroke="black" stroke-opacity="0.18604651162790697"/><line x1="591.4453125" y1="287.58333333333337" x2="784.5703125" y2="287.58333333333337" stroke="black" stroke-opacity="0.1"/><line x1="639.7265625" y1="16.916666666666668" x2="736.2890625" y2="16.916666666666668" stroke="black" stroke-opacity="0.1"/><line x1="639.7265625" y1="16.916666666666668" x2="688.0078125" y2="84.58333333333334" stroke="black" stroke-opacity="0.11627906976744186"/><line x1="639.7265625" y1="16.916666666666668" x2="688.0078125" y2="219.91666666666669" stroke="black" stroke-opacity="0.11627906976744186"/><line x1="639.7265625" y1="84.58333333333334" x2="736.2890625" y2="16.916666666666668" stroke="black" stroke-opacity="0.1"/><line x1="639.7265625" y1="84.58333333333334" x2="688.0078125" y2="84.58333333333334" stroke="black" stroke-opacity="0.11627906976744186"/><line x1="639.7265625" y1="84.58333333333334" x2="688.0078125" y2="219.91666666666669" stroke="black" stroke-opacity="0.11627906976744186"/><line x1="639.7265625" y1="152.25" x2="736.2890625" y2="16.916666666666668" stroke="black" stroke-opacity="0.1"/><line x1="639.7265625" y1="152.25" x2="688.0078125" y2="84.58333333333334" stroke="black" stroke-opacity="0.11627906976744186"/><line x1="639.7265625" y1="152.25" x2="688.0078125" y2="219.91666666666669" stroke="black" stroke-opacity="0.11627906976744186"/><line x1="639.7265625" y1="219.91666666666669" x2="736.2890625" y2="16.916666666666668" stroke="black" stroke-opacity="0.1"/><line x1="639.7265625" y1="219.91666666666669" x2="688.0078125" y2="84.58333333333334" stroke="black" stroke-opacity="0.11627906976744186"/><line x1="639.7265625" y1="219.91666666666669" x2="688.0078125" y2="219.91666666666669" stroke="black" stroke-opacity="0.11627906976744186"/><line x1="639.7265625" y1="287.58333333333337" x2="736.2890625" y2="16.916666666666668" stroke="black" stroke-opacity="0.1"/><line x1="639.7265625" y1="287.58333333333337" x2="688.0078125" y2="84.58333333333334" stroke="black" stroke-opacity="0.11627906976744186"/><line x1="639.7265625" y1="287.58333333333337" x2="688.0078125" y2="219.91666666666669" stroke="black" stroke-opacity="0.11627906976744186"/><line x1="688.0078125" y1="16.916666666666668" x2="784.5703125" y2="16.916666666666668" stroke="black" stroke-opacity="0.1"/><line x1="688.0078125" y1="16.916666666666668" x2="736.2890625" y2="84.58333333333334" stroke="black" stroke-opacity="0.1"/><line x1="688.0078125" y1="16.916666666666668" x2="736.2890625" y2="219.91666666666669" stroke="black" stroke-opacity="0.1"/><line x1="688.0078125" y1="84.58333333333334" x2="784.5703125" y2="16.916666666666668" stroke="black" stroke-opacity="0.1"/><line x1="688.0078125" y1="84.58333333333334" x2="736.2890625" y2="84.58333333333334" stroke="black" stroke-opacity="0.1"/><line x1="688.0078125" y1="84.58333333333334" x2="736.2890625" y2="219.91666666666669" stroke="black" stroke-opacity="0.1"/><line x1="688.0078125" y1="152.25" x2="784.5703125" y2="16.916666666666668" stroke="black" stroke-opacity="0.1"/><line x1="688.0078125" y1="152.25" x2="736.2890625" y2="84.58333333333334" stroke="black" stroke-opacity="0.1"/><line x1="688.0078125" y1="152.25" x2="736.2890625" y2="219.91666666666669" stroke="black" stroke-opacity="0.1"/><line x1="688.0078125" y1="219.91666666666669" x2="784.5703125" y2="16.916666666666668" stroke="black" stroke-opacity="0.1"/><line x1="688.0078125" y1="219.91666666666669" x2="736.2890625" y2="84.58333333333334" stroke="black" stroke-opacity="0.1"/><line x1="688.0078125" y1="219.91666666666669" x2="736.2890625" y2="219.91666666666669" stroke="black" stroke-opacity="0.1"/><line x1="688.0078125" y1="287.58333333333337" x2="784.5703125" y2="16.916666666666668" stroke="black" stroke-opacity="0.1"/><line x1="688.0078125" y1="287.58333333333337" x2="736.2890625" y2="84.58333333333334" stroke="black" stroke-opacity="0.1"/><line x1="688.0078125" y1="287.58333333333337" x2="736.2890625" y2="219.91666666666669" stroke="black" stroke-opacity="0.1"/><line x1="736.2890625" y1="16.916666666666668" x2="784.5703125" y2="84.58333333333334" stroke="black" stroke-opacity="0.1"/><line x1="736.2890625" y1="16.916666666666668" x2="784.5703125" y2="219.91666666666669" stroke="black" stroke-opacity="0.1"/><line x1="736.2890625" y1="84.58333333333334" x2="784.5703125" y2="84.58333333333334" stroke="black" stroke-opacity="0.1"/><line x1="736.2890625" y1="84.58333333333334" x2="784.5703125" y2="219.91666666666669" stroke="black" stroke-opacity="0.1"/><line x1="736.2890625" y1="152.25" x2="784.5703125" y2="84.58333333333334" stroke="black" stroke-opacity="0.1"/><line x1="736.2890625" y1="152.25" x2="784.5703125" y2="219.91666666666669" stroke="black" stroke-opacity="0.1"/><line x1="736.2890625" y1="219.91666666666669" x2="784.5703125" y2="84.58333333333334" stroke="black" stroke-opacity="0.1"/><line x1="736.2890625" y1="219.91666666666669" x2="784.5703125" y2="219.91666666666669" stroke="black" stroke-opacity="0.1"/><line x1="736.2890625" y1="287.58333333333337" x2="784.5703125" y2="84.58333333333334" stroke="black" stroke-opacity="0.1"/><line x1="736.2890625" y1="287.58333333333337" x2="784.5703125" y2="219.91666666666669" stroke="black" stroke-opacity="0.1"/><line x1="12.0703125" y1="153.37777777777777" x2="60.3515625" y2="221.04444444444445" stroke="rgb(255 0 255)"/><line x1="60.3515625" y1="221.04444444444445" x2="108.6328125" y2="221.04444444444445" stroke="rgb(255 0 255)"/><line x1="108.6328125" y1="221.04444444444445" x2="156.9140625" y2="221.04444444444445" stroke="rgb(255 0 255)"/><line x1="156.9140625" y1="221.04444444444445" x2="205.1953125" y2="221.04444444444445" stroke="rgb(255 0 255)"/><line x1="205.1953125" y1="221.04444444444445" x2="398.3203125" y2="153.37777777777777" stroke="rgb(255 0 255)"/><line x1="398.3203125" y1="153.37777777777777" x2="446.6015625" y2="85.71111111111112" stroke="rgb(255 0 255)"/><line x1="446.6015625" y1="85.71111111111112" x2="494.8828125" y2="85.71111111111112" stroke="rgb(255 0 255)"/><line x1="494.8828125" y1="85.71111111111112" x2="591.4453125" y2="18.044444444444444" stroke="rgb(255 0 255)"/><line x1="591.4453125" y1="18.044444444444444" x2="688.0078125" y2="18.044444444444444" stroke="rgb(255 0 255)"/><line x1="688.0078125" y1="18.044444444444444" x2="784.5703125" y2="18.044444444444444" stroke="rgb(255 0 255)"/><line x1="12.0703125" y1="154.50555555555556" x2="60.3515625" y2="86.8388888888889" stroke="rgb(255 255 0)"/><line x1="60.3515625" y1="86.8388888888889" x2="108.6328125" y2="86.8388888888889" stroke="rgb(255 255 0)"/><line x1="108.6328125" y1="86.8388888888889" x2="156.9140625" y2="86.8388888888889" stroke="rgb(255 255 0)"/><line x1="156.9140625" y1="86.8388888888889" x2="205.1953125" y2="86.8388888888889" stroke="rgb(255 255 0)"/><line x1="205.1953125" y1="86.8388888888889" x2="253.4765625" y2="86.8388888888889" stroke="rgb(255 255 0)"/><line x1="253.4765625" y1="86.8388888888889" x2="301.7578125" y2="86.8388888888889" stroke="rgb(255 255 0)"/><line x1="301.7578125" y1="86.8388888888889" x2="350.0390625" y2="86.8388888888889" stroke="rgb(255 255 0)"/><line x1="350.0390625" y1="86.8388888888889" x2="398.3203125" y2="86.8388888888889" stroke="rgb(255 255 0)"/><line x1="398.3203125" y1="86.8388888888889" x2="446.6015625" y2="86.8388888888889" stroke="rgb(255 255 0)"/><line x1="446.6015625" y1="86.8388888888889" x2="494.8828125" y2="86.8388888888889" stroke="rgb(255 255 0)"/><line x1="494.8828125" y1="86.8388888888889" x2="543.1640625" y2="86.8388888888889" stroke="rgb(255 255 0)"/><line x1="543.1640625" y1="86.8388888888889" x2="591.4453125" y2="86.8388888888889" stroke="rgb(255 255 0)"/><line x1="591.4453125" y1="86.8388888888889" x2="639.7265625" y2="86.8388888888889" stroke="rgb(255 255 0)"/><line x1="639.7265625" y1="86.8388888888889" x2="688.0078125" y2="86.8388888888889" stroke="rgb(255 255 0)"/><line x1="688.0078125" y1="86.8388888888889" x2="736.2890625" y2="86.8388888888889" stroke="rgb(255 255 0)"/><line x1="736.2890625" y1="86.8388888888889" x2="784.5703125" y2="86.8388888888889" stroke="rgb(255 255 0)"/><line x1="12.0703125" y1="155.63333333333333" x2="205.1953125" y2="155.63333333333333" stroke="rgb(0 0 255)"/><line x1="205.1953125" y1="155.63333333333333" x2="398.3203125" y2="155.63333333333333" stroke="rgb(0 0 255)"/><line x1="398.3203125" y1="155.63333333333333" x2="591.4453125" y2="155.63333333333333" stroke="rgb(0 0 255)"/><line x1="591.4453125" y1="155.63333333333333" x2="784.5703125" y2="155.63333333333333" stroke="rgb(0 0 255)"/><line x1="12.0703125" y1="156.76111111111112" x2="108.6328125" y2="21.42777777777778" stroke="rgb(0 255 0)"/><line x1="108.6328125" y1="21.42777777777778" x2="205.1953125" y2="21.42777777777778" stroke="rgb(0 255 0)"/><line x1="205.1953125" y1="21.42777777777778" x2="301.7578125" y2="21.42777777777778" stroke="rgb(0 255 0)"/><line x1="301.7578125" y1="21.42777777777778" x2="398.3203125" y2="21.42777777777778" stroke="rgb(0 255 0)"/><line x1="398.3203125" y1="21.42777777777778" x2="494.8828125" y2="21.42777777777778" stroke="rgb(0 255 0)"/><line x1="494.8828125" y1="21.42777777777778" x2="591.4453125" y2="21.42777777777778" stroke="rgb(0 255 0)"/><line x1="591.4453125" y1="21.42777777777778" x2="688.0078125" y2="21.42777777777778" stroke="rgb(0 255 0)"/><line x1="688.0078125" y1="21.42777777777778" x2="784.5703125" y2="21.42777777777778" stroke="rgb(0 255 0)"/><line x1="12.0703125" y1="157.88888888888889" x2="60.3515625" y2="90.22222222222223" stroke="rgb(255 0 0)"/><line x1="60.3515625" y1="90.22222222222223" x2="108.6328125" y2="90.22222222222223" stroke="rgb(255 0 0)"/><line x1="108.6328125" y1="90.22222222222223" x2="156.9140625" y2="90.22222222222223" stroke="rgb(255 0 0)"/><line x1="156.9140625" y1="90.22222222222223" x2="205.1953125" y2="90.22222222222223" stroke="rgb(255 0 0)"/><line x1="205.1953125" y1="90.22222222222223" x2="253.4765625" y2="90.22222222222223" stroke="rgb(255 0 0)"/><line x1="253.4765625" y1="90.22222222222223" x2="301.7578125" y2="90.22222222222223" stroke="rgb(255 0 0)"/><line x1="301.7578125" y1="90.22222222222223" x2="350.0390625" y2="90.22222222222223" stroke="rgb(255 0 0)"/><line x1="350.0390625" y1="90.22222222222223" x2="398.3203125" y2="90.22222222222223" stroke="rgb(255 0 0)"/><line x1="398.3203125" y1="90.22222222222223" x2="446.6015625" y2="90.22222222222223" stroke="rgb(255 0 0)"/><line x1="446.6015625" y1="90.22222222222223" x2="494.8828125" y2="90.22222222222223" stroke="rgb(255 0 0)"/><line x1="494.8828125" y1="90.22222222222223" x2="543.1640625" y2="90.22222222222223" stroke="rgb(255 0 0)"/><line x1="543.1640625" y1="90.22222222222223" x2="591.4453125" y2="90.22222222222223" stroke="rgb(255 0 0)"/><line x1="591.4453125" y1="90.22222222222223" x2="639.7265625" y2="90.22222222222223" stroke="rgb(255 0 0)"/><line x1="639.7265625" y1="90.22222222222223" x2="688.0078125" y2="90.22222222222223" stroke="rgb(255 0 0)"/><line x1="688.0078125" y1="90.22222222222223" x2="736.2890625" y2="90.22222222222223" stroke="rgb(255 0 0)"/><line x1="736.2890625" y1="90.22222222222223" x2="784.5703125" y2="90.22222222222223" stroke="rgb(255 0 0)"/></svg>