<svg xmlns="http://www.w3.org/2000/svg" width="784.5703125" height="560.625" style="background: white;"><line x1="6.03515625" y1="280.3125" x2="54.31640625" y2="93.4375" stroke="black" stroke-opacity="0.25"/><line x1="6.03515625" y1="280.3125" x2="102.59765625" y2="467.1875" stroke="black" stroke-opacity="0.25"/><line x1="54.31640625" y1="93.4375" x2="102.59765625" y2="93.4375" stroke="black" stroke-opacity="0.25"/><line x1="54.31640625" y1="93.4375" x2="150.87890625" y2="467.1875" stroke="black" stroke-opacity="0.25"/><line x1="102.59765625" y1="93.4375" x2="150.87890625" y2="93.4375" stroke="black" stroke-opacity="0.25"/><line x1="102.59765625" y1="93.4375" x2="199.16015625" y2="467.1875" stroke="black" stroke-opacity="0.25"/><line x1="102.59765625" y1="467.1875" x2="150.87890625" y2="93.4375" stroke="black" stroke-opacity="0.25"/><line x1="150.87890625" y1="93.4375" x2="199.16015625" y2="93.4375" stroke="black" stroke-opacity="0.5"/><line x1="150.87890625" y1="93.4375" x2="247.44140625" y2="467.1875" stroke="black" stroke-opacity="0.5"/><line x1="150.87890625" y1="467.1875" x2="199.16015625" y2="93.4375" stroke="black" stroke-opacity="0.25"/><line x1="199.16015625" y1="93.4375" x2="247.44140625" y2="93.4375" stroke="black" stroke-opacity="0.75"/><line x1="199.16015625" y1="93.4375" x2="295.72265625" y2="467.1875" stroke="black" stroke-opacity="0.5"/><line x1="199.16015625" y1="467.1875" x2="247.44140625" y2="93.4375" stroke="black" stroke-opacity="0.25"/><line x1="247.44140625" y1="93.4375" x2="295.72265625" y2="93.4375" stroke="black" stroke-opacity="0.75"/><line x1="247.44140625" y1="93.4375" x2="344.00390625" y2="467.1875" stroke="black" stroke-opacity="0.5"/><line x1="247.44140625" y1="467.1875" x2="295.72265625" y2="93.4375" stroke="black" stroke-opacity="0.5"/><line x1="295.72265625" y1="93.4375" x2="344.00390625" y2="93.4375" stroke="black" stroke-opacity="1"/><line x1="295.72265625" y1="93.4375" x2="392.28515625" y2="467.1875" stroke="black" stroke-opacity="0.5"/><line x1="295.72265625" y1="467.1875" x2="344.00390625" y2="93.4375" stroke="black" stroke-opacity="0.5"/><line x1="344.00390625" y1="93.4375" x2="392.28515625" y2="93.4375" stroke="black" stroke-opacity="1"/><line x1="344.00390625" y1="93.4375" x2="440.56640625" y2="467.1875" stroke="black" stroke-opacity="0.5"/><line x1="344.00390625" y1="467.1875" x2="392.28515625" y2="93.4375" stroke="black" stroke-opacity="0.5"/><line x1="392.28515625" y1="93.4375" x2="440.56640625" y2="93.4375" stroke="black" stroke-opacity="0.75"/><line x1="392.28515625" y1="93.4375" x2="488.84765625" y2="467.1875" stroke="black" stroke-opacity="0.5"/><line x1="392.28515625" y1="467.1875" x2="440.56640625" y2="93.4375" stroke="black" stroke-opacity="0.5"/><line x1="440.56640625" y1="93.4375" x2="488.84765625" y2="93.4375" stroke="black" stroke-opacity="1"/><line x1="440.56640625" y1="93.4375" x2="537.12890625" y2="467.1875" stroke="black" stroke-opacity="0.5"/><line x1="440.56640625" y1="467.1875" x2="488.84765625" y2="93.4375" stroke="black" stroke-opacity="0.5"/><line x1="488.84765625" y1="93.4375" x2="537.12890625" y2="93.4375" stroke="black" stroke-opacity="1"/><line x1="488.84765625" y1="93.4375" x2="585.41015625" y2="467.1875" stroke="black" stroke-opacity="0.5"/><line x1="488.84765625" y1="467.1875" x2="537.12890625" y2="93.4375" stroke="black" stroke-opacity="0.5"/><line x1="537.12890625" y1="93.4375" x2="585.41015625" y2="93.4375" stroke="black" stroke-opacity="0.75"/><line x1="537.12890625" y1="93.4375" x2="633.69140625" y2="467.1875" stroke="black" stroke-opacity="0.5"/><line x1="537.12890625" y1="467.1875" x2="585.41015625" y2="93.4375" stroke="black" stroke-opacity="0.5"/><line x1="585.41015625" y1="93.4375" x2="633.69140625" y2="93.4375" stroke="black" stroke-opacity="0.75"/><line x1="585.41015625" y1="93.4375" x2="681.97265625" y2="467.1875" stroke="black" stroke-opacity="0.25"/><line x1="585.41015625" y1="467.1875" x2="633.69140625" y2="93.4375" stroke="black" stroke-opacity="0.5"/><line x1="633.69140625" y1="93.4375" x2="681.97265625" y2="93.4375" stroke="black" stroke-opacity="0.5"/><line x1="633.69140625" y1="93.4375" x2="730.25390625" y2="467.1875" stroke="black" stroke-opacity="0.25"/><line x1="633.69140625" y1="467.1875" x2="681.97265625" y2="93.4375" stroke="black" stroke-opacity="0.5"/><line x1="681.97265625" y1="93.4375" x2="730.25390625" y2="93.4375" stroke="black" stroke-opacity="0.25"/><line x1="681.97265625" y1="93.4375" x2="778.53515625" y2="467.1875" stroke="black" stroke-opacity="0.25"/><line x1="681.97265625" y1="467.1875" x2="730.25390625" y2="93.4375" stroke="black" stroke-opacity="0.25"/><line x1="730.25390625" y1="93.4375" x2="778.53515625" y2="93.4375" stroke="black" stroke-opacity="0.25"/><line x1="730.25390625" y1="467.1875" x2="778.53515625" y2="93.4375" stroke="black" stroke-opacity="0.25"/><line x1="6.03515625" y1="282.8041666666667" x2="102.59765625" y2="469.6791666666667" stroke="rgb(255 0 255)"/><line x1="102.59765625" y1="469.6791666666667" x2="150.87890625" y2="95.92916666666666" stroke="rgb(255 0 255)"/><line x1="150.87890625" y1="95.92916666666666" x2="247.44140625" y2="469.6791666666667" stroke="rgb(255 0 255)"/><line x1="247.44140625" y1="469.6791666666667" x2="295.72265625" y2="95.92916666666666" stroke="rgb(255 0 255)"/><line x1="295.72265625" y1="95.92916666666666" x2="392.28515625" y2="469.6791666666667" stroke="rgb(255 0 255)"/><line x1="392.28515625" y1="469.6791666666667" x2="440.56640625" y2="95.92916666666666" stroke="rgb(255 0 255)"/><line x1="440.56640625" y1="95.92916666666666" x2="537.12890625" y2="469.6791666666667" stroke="rgb(255 0 255)"/><line x1="537.12890625" y1="469.6791666666667" x2="585.41015625" y2="95.92916666666666" stroke="rgb(255 0 255)"/><line x1="585.41015625" y1="95.92916666666666" x2="633.69140625" y2="95.92916666666666" stroke="rgb(255 0 255)"/><line x1="633.69140625" y1="95.92916666666666" x2="681.97265625" y2="95.92916666666666" stroke="rgb(255 0 255)"/><line x1="681.97265625" y1="95.92916666666666" x2="730.25390625" y2="95.92916666666666" stroke="rgb(255 0 255)"/><line x1="730.25390625" y1="95.92916666666666" x2="778.53515625" y2="95.92916666666666" stroke="rgb(255 0 255)"/><line x1="6.03515625" y1="285.29583333333335" x2="54.31640625" y2="98.42083333333333" stroke="rgb(255 255 0)"/><line x1="54.31640625" y1="98.42083333333333" x2="102.59765625" y2="98.42083333333333" stroke="rgb(255 255 0)"/><line x1="102.59765625" y1="98.42083333333333" x2="150.87890625" y2="98.42083333333333" stroke="rgb(255 255 0)"/><line x1="150.87890625" y1="98.42083333333333" x2="199.16015625" y2="98.42083333333333" stroke="rgb(255 255 0)"/><line x1="199.16015625" y1="98.42083333333333" x2="247.44140625" y2="98.42083333333333" stroke="rgb(255 255 0)"/><line x1="247.44140625" y1="98.42083333333333" x2="295.72265625" y2="98.42083333333333" stroke="rgb(255 255 0)"/><line x1="295.72265625" y1="98.42083333333333" x2="344.00390625" y2="98.42083333333333" stroke="rgb(255 255 0)"/><line x1="344.00390625" y1="98.42083333333333" x2="392.28515625" y2="98.42083333333333" stroke="rgb(255 255 0)"/><line x1="392.28515625" y1="98.42083333333333" x2="440.56640625" y2="98.42083333333333" stroke="rgb(255 255 0)"/><line x1="440.56640625" y1="98.42083333333333" x2="488.84765625" y2="98.42083333333333" stroke="rgb(255 255 0)"/><line x1="488.84765625" y1="98.42083333333333" x2="537.12890625" y2="98.42083333333333" stroke="rgb(255 255 0)"/><line x1="537.12890625" y1="98.42083333333333" x2="585.41015625" y2="98.42083333333333" stroke="rgb(255 255 0)"/><line x1="585.41015625" y1="98.42083333333333" x2="633.69140625" y2="98.42083333333333" stroke="rgb(255 255 0)"/><line x1="633.69140625" y1="98.42083333333333" x2="681.97265625" y2="98.42083333333333" stroke="rgb(255 255 0)"/><line x1="681.97265625" y1="98.42083333333333" x2="730.25390625" y2="98.42083333333333" stroke="rgb(255 255 0)"/><line x1="730.25390625" y1="98.42083333333333" x2="778.53515625" y2="98.42083333333333" stroke="rgb(255 255 0)"/><line x1="6.03515625" y1="287.7875" x2="102.59765625" y2="474.6625" stroke="rgb(0 0 255)"/><line x1="102.59765625" y1="474.6625" x2="150.87890625" y2="100.9125" stroke="rgb(0 0 255)"/><line x1="150.87890625" y1="100.9125" x2="247.44140625" y2="474.6625" stroke="rgb(0 0 255)"/><line x1="247.44140625" y1="474.6625" x2="295.72265625" y2="100.9125" stroke="rgb(0 0 255)"/><line x1="295.72265625" y1="100.9125" x2="392.28515625" y2="474.6625" stroke="rgb(0 0 255)"/><line x1="392.28515625" y1="474.6625" x2="440.56640625" y2="100.9125" stroke="rgb(0 0 255)"/><line x1="440.56640625" y1="100.9125" x2="537.12890625" y2="474.6625" stroke="rgb(0 0 255)"/><line x1="537.12890625" y1="474.6625" x2="585.41015625" y2="100.9125" stroke="rgb(0 0 255)"/><line x1="585.41015625" y1="100.9125" x2="633.69140625" y2="100.9125" stroke="rgb(0 0 255)"/><line x1="633.69140625" y1="100.9125" x2="681.97265625" y2="100.9125" stroke="rgb(0 0 255)"/><line x1="681.97265625" y1="100.9125" x2="730.25390625" y2="100.9125" stroke="rgb(0 0 255)"/><line x1="730.25390625" y1="100.9125" x2="778.53515625" y2="100.9125" stroke="rgb(0 0 255)"/><line x1="6.03515625" y1="290.27916666666664" x2="54.31640625" y2="103.40416666666667" stroke="rgb(0 255 0)"/><line x1="54.31640625" y1="103.40416666666667" x2="102.59765625" y2="103.40416666666667" stroke="rgb(0 255 0)"/><line x1="102.59765625" y1="103.40416666666667" x2="150.87890625" y2="103.40416666666667" stroke="rgb(0 255 0)"/><line x1="150.87890625" y1="103.40416666666667" x2="199.16015625" y2="103.40416666666667" stroke="rgb(0 255 0)"/><line x1="199.16015625" y1="103.40416666666667" x2="247.44140625" y2="103.40416666666667" stroke="rgb(0 255 0)"/><line x1="247.44140625" y1="103.40416666666667" x2="295.72265625" y2="103.40416666666667" stroke="rgb(0 255 0)"/><line x1="295.72265625" y1="103.40416666666667" x2="344.00390625" y2="103.40416666666667" stroke="rgb(0 255 0)"/><line x1="344.00390625" y1="103.40416666666667" x2="392.28515625" y2="103.40416666666667" stroke="rgb(0 255 0)"/><line x1="392.28515625" y1="103.40416666666667" x2="440.56640625" y2="103.40416666666667" stroke="rgb(0 255 0)"/><line x1="440.56640625" y1="103.40416666666667" x2="488.84765625" y2="103.40416666666667" stroke="rgb(0 255 0)"/><line x1="488.84765625" y1="103.40416666666667" x2="537.12890625" y2="103.40416666666667" stroke="rgb(0 255 0)"/><line x1="537.12890625" y1="103.40416666666667" x2="585.41015625" y2="103.40416666666667" stroke="rgb(0 255 0)"/><line x1="585.41015625" y1="103.40416666666667" x2="633.69140625" y2="103.40416666666667" stroke="rgb(0 255 0)"/><line x1="633.69140625" y1="103.40416666666667" x2="681.97265625" y2="103.40416666666667" stroke="rgb(0 255 0)"/><line x1="681.97265625" y1="103.40416666666667" x2="730.25390625" y2="103.40416666666667" stroke="rgb(0 255 0)"/><line x1="730.25390625" y1="103.40416666666667" x2="778.53515625" y2="103.40416666666667" stroke="rgb(0 255 0)"/><line x1="6.03515625" y1="292.7708333333333" x2="102.59765625" y2="479.6458333333333" stroke="rgb(255 0 0)"/><line x1="102.59765625" y1="479.6458333333333" x2="150.87890625" y2="105.89583333333333" stroke="rgb(255 0 0)"/><line x1="150.87890625" y1="105.89583333333333" x2="247.44140625" y2="479.6458333333333" stroke="rgb(255 0 0)"/><line x1="247.44140625" y1="479.6458333333333" x2="295.72265625" y2="105.89583333333333" stroke="rgb(255 0 0)"/><line x1="295.72265625" y1="105.89583333333333" x2="392.28515625" y2="479.6458333333333" stroke="rgb(255 0 0)"/><line x1="392.28515625" y1="479.6458333333333" x2="440.56640625" y2="105.89583333333333" stroke="rgb(255 0 0)"/><line x1="440.56640625" y1="105.89583333333333" x2="537.12890625" y2="479.6458333333333" stroke="rgb(255 0 0)"/><line x1="537.12890625" y1="479.6458333333333" x2="585.41015625" y2="105.89583333333333" stroke="rgb(255 0 0)"/><line x1="585.41015625" y1="105.89583333333333" x2="633.69140625" y2="105.89583333333333" stroke="rgb(255 0 0)"/><line x1="633.69140625" y1="105.89583333333333" x2="681.97265625" y2="105.89583333333333" stroke="rgb(255 0 0)"/><line x1="681.97265625" y1="105.89583333333333" x2="730.25390625" y2="105.89583333333333" stroke="rgb(255 0 0)"/><line x1="730.25390625" y1="105.89583333333333" x2="778.53515625" y2="105.89583333333333" stroke="rgb(255 0 0)"/></svg>