<svg xmlns="http://www.w3.org/2000/svg" width="784.5703125" height="310.1388888888889" style="background: white;"><line x1="6.03515625" y1="155.06944444444446" x2="102.59765625" y2="14.097222222222223" stroke="black" stroke-opacity="0.3333333333333333"/><line x1="6.03515625" y1="155.06944444444446" x2="102.59765625" y2="70.48611111111111" stroke="black" stroke-opacity="0.3333333333333333"/><line x1="6.03515625" y1="155.06944444444446" x2="199.16015625" y2="126.87500000000001" stroke="black" stroke-opacity="0.3333333333333333"/><line x1="6.03515625" y1="155.06944444444446" x2="126.73828125" y2="183.2638888888889" stroke="black" stroke-opacity="0.3333333333333333"/><line x1="6.03515625" y1="155.06944444444446" x2="102.59765625" y2="239.6527777777778" stroke="black" stroke-opacity="0.3333333333333333"/><line x1="6.03515625" y1="155.06944444444446" x2="30.17578125" y2="296.0416666666667" stroke="black" stroke-opacity="0.3333333333333333"/><line x1="30.17578125" y1="296.0416666666667" x2="126.73828125" y2="70.48611111111111" stroke="black" stroke-opacity="0.3333333333333333"/><line x1="30.17578125" y1="296.0416666666667" x2="223.30078125" y2="126.87500000000001" stroke="black" stroke-opacity="0.3333333333333333"/><line x1="30.17578125" y1="296.0416666666667" x2="150.87890625" y2="183.2638888888889" stroke="black" stroke-opacity="0.3333333333333333"/><line x1="30.17578125" y1="296.0416666666667" x2="54.31640625" y2="296.0416666666667" stroke="black" stroke-opacity="0.3333333333333333"/><line x1="54.31640625" y1="296.0416666666667" x2="247.44140625" y2="126.87500000000001" stroke="black" stroke-opacity="0.3333333333333333"/><line x1="54.31640625" y1="296.0416666666667" x2="175.01953125" y2="183.2638888888889" stroke="black" stroke-opacity="0.3333333333333333"/><line x1="54.31640625" y1="296.0416666666667" x2="78.45703125" y2="296.0416666666667" stroke="black" stroke-opacity="0.3333333333333333"/><line x1="78.45703125" y1="296.0416666666667" x2="271.58203125" y2="126.87500000000001" stroke="black" stroke-opacity="0.3333333333333333"/><line x1="78.45703125" y1="296.0416666666667" x2="102.59765625" y2="296.0416666666667" stroke="black" stroke-opacity="0.3333333333333333"/><line x1="102.59765625" y1="14.097222222222223" x2="126.73828125" y2="296.0416666666667" stroke="black" stroke-opacity="0.3333333333333333"/><line x1="102.59765625" y1="70.48611111111111" x2="126.73828125" y2="296.0416666666667" stroke="black" stroke-opacity="0.3333333333333333"/><line x1="102.59765625" y1="239.6527777777778" x2="199.16015625" y2="14.097222222222223" stroke="black" stroke-opacity="0.3333333333333333"/><line x1="102.59765625" y1="296.0416666666667" x2="295.72265625" y2="126.87500000000001" stroke="black" stroke-opacity="0.3333333333333333"/><line x1="126.73828125" y1="70.48611111111111" x2="150.87890625" y2="296.0416666666667" stroke="black" stroke-opacity="0.3333333333333333"/><line x1="126.73828125" y1="183.2638888888889" x2="150.87890625" y2="296.0416666666667" stroke="black" stroke-opacity="0.3333333333333333"/><line x1="126.73828125" y1="296.0416666666667" x2="150.87890625" y2="296.0416666666667" stroke="black" stroke-opacity="0.6666666666666666"/><line x1="150.87890625" y1="183.2638888888889" x2="175.01953125" y2="296.0416666666667" stroke="black" stroke-opacity="0.3333333333333333"/><line x1="150.87890625" y1="296.0416666666667" x2="247.44140625" y2="70.48611111111111" stroke="black" stroke-opacity="0.3333333333333333"/><line x1="150.87890625" y1="296.0416666666667" x2="271.58203125" y2="183.2638888888889" stroke="black" stroke-opacity="0.3333333333333333"/><line x1="150.87890625" y1="296.0416666666667" x2="175.01953125" y2="296.0416666666667" stroke="black" stroke-opacity="0.6666666666666666"/><line x1="175.01953125" y1="183.2638888888889" x2="199.16015625" y2="296.0416666666667" stroke="black" stroke-opacity="0.3333333333333333"/><line x1="175.01953125" y1="296.0416666666667" x2="271.58203125" y2="70.48611111111111" stroke="black" stroke-opacity="0.3333333333333333"/><line x1="175.01953125" y1="296.0416666666667" x2="199.16015625" y2="296.0416666666667" stroke="black" stroke-opacity="0.6666666666666666"/><line x1="199.16015625" y1="14.097222222222223" x2="223.30078125" y2="296.0416666666667" stroke="black" stroke-opacity="0.3333333333333333"/><line x1="199.16015625" y1="126.87500000000001" x2="295.72265625" y2="239.6527777777778" stroke="black" stroke-opacity="0.3333333333333333"/><line x1="199.16015625" y1="296.0416666666667" x2="295.72265625" y2="70.48611111111111" stroke="black" stroke-opacity="0.3333333333333333"/><line x1="199.16015625" y1="296.0416666666667" x2="392.28515625" y2="126.87500000000001" stroke="black" stroke-opacity="0.3333333333333333"/><line x1="199.16015625" y1="296.0416666666667" x2="223.30078125" y2="296.0416666666667" stroke="black" stroke-opacity="0.3333333333333333"/><line x1="223.30078125" y1="126.87500000000001" x2="319.86328125" y2="239.6527777777778" stroke="black" stroke-opacity="0.3333333333333333"/><line x1="223.30078125" y1="296.0416666666667" x2="416.42578125" y2="126.87500000000001" stroke="black" stroke-opacity="0.3333333333333333"/><line x1="223.30078125" y1="296.0416666666667" x2="247.44140625" y2="296.0416666666667" stroke="black" stroke-opacity="0.3333333333333333"/><line x1="247.44140625" y1="70.48611111111111" x2="271.58203125" y2="296.0416666666667" stroke="black" stroke-opacity="0.3333333333333333"/><line x1="247.44140625" y1="126.87500000000001" x2="344.00390625" y2="239.6527777777778" stroke="black" stroke-opacity="0.3333333333333333"/><line x1="247.44140625" y1="296.0416666666667" x2="368.14453125" y2="183.2638888888889" stroke="black" stroke-opacity="0.3333333333333333"/><line x1="271.58203125" y1="70.48611111111111" x2="295.72265625" y2="296.0416666666667" stroke="black" stroke-opacity="0.3333333333333333"/><line x1="271.58203125" y1="126.87500000000001" x2="368.14453125" y2="239.6527777777778" stroke="black" stroke-opacity="0.3333333333333333"/><line x1="271.58203125" y1="183.2638888888889" x2="295.72265625" y2="296.0416666666667" stroke="black" stroke-opacity="0.3333333333333333"/><line x1="271.58203125" y1="296.0416666666667" x2="295.72265625" y2="296.0416666666667" stroke="black" stroke-opacity="0.3333333333333333"/><line x1="295.72265625" y1="70.48611111111111" x2="319.86328125" y2="296.0416666666667" stroke="black" stroke-opacity="0.3333333333333333"/><line x1="295.72265625" y1="126.87500000000001" x2="392.28515625" y2="239.6527777777778" stroke="black" stroke-opacity="0.3333333333333333"/><line x1="295.72265625" y1="239.6527777777778" x2="392.28515625" y2="14.097222222222223" stroke="black" stroke-opacity="0.3333333333333333"/><line x1="295.72265625" y1="296.0416666666667" x2="392.28515625" y2="70.48611111111111" stroke="black" stroke-opacity="0.3333333333333333"/><line x1="295.72265625" y1="296.0416666666667" x2="319.86328125" y2="296.0416666666667" stroke="black" stroke-opacity="0.6666666666666666"/><line x1="319.86328125" y1="239.6527777777778" x2="416.42578125" y2="14.097222222222223" stroke="black" stroke-opacity="0.3333333333333333"/><line x1="319.86328125" y1="296.0416666666667" x2="344.00390625" y2="296.0416666666667" stroke="black" stroke-opacity="1"/><line x1="344.00390625" y1="239.6527777777778" x2="440.56640625" y2="14.097222222222223" stroke="black" stroke-opacity="0.3333333333333333"/><line x1="344.00390625" y1="296.0416666666667" x2="537.12890625" y2="126.87500000000001" stroke="black" stroke-opacity="0.3333333333333333"/><line x1="344.00390625" y1="296.0416666666667" x2="368.14453125" y2="296.0416666666667" stroke="black" stroke-opacity="0.6666666666666666"/><line x1="368.14453125" y1="183.2638888888889" x2="392.28515625" y2="296.0416666666667" stroke="black" stroke-opacity="0.3333333333333333"/><line x1="368.14453125" y1="239.6527777777778" x2="464.70703125" y2="14.097222222222223" stroke="black" stroke-opacity="0.3333333333333333"/><line x1="368.14453125" y1="296.0416666666667" x2="561.26953125" y2="126.87500000000001" stroke="black" stroke-opacity="0.3333333333333333"/><line x1="368.14453125" y1="296.0416666666667" x2="392.28515625" y2="296.0416666666667" stroke="black" stroke-opacity="0.3333333333333333"/><line x1="392.28515625" y1="14.097222222222223" x2="416.42578125" y2="296.0416666666667" stroke="black" stroke-opacity="0.3333333333333333"/><line x1="392.28515625" y1="70.48611111111111" x2="416.42578125" y2="296.0416666666667" stroke="black" stroke-opacity="0.3333333333333333"/><line x1="392.28515625" y1="126.87500000000001" x2="488.84765625" y2="239.6527777777778" stroke="black" stroke-opacity="0.3333333333333333"/><line x1="392.28515625" y1="239.6527777777778" x2="488.84765625" y2="14.097222222222223" stroke="black" stroke-opacity="0.3333333333333333"/><line x1="392.28515625" y1="296.0416666666667" x2="488.84765625" y2="70.48611111111111" stroke="black" stroke-opacity="0.3333333333333333"/><line x1="392.28515625" y1="296.0416666666667" x2="585.41015625" y2="126.87500000000001" stroke="black" stroke-opacity="0.3333333333333333"/><line x1="416.42578125" y1="14.097222222222223" x2="440.56640625" y2="296.0416666666667" stroke="black" stroke-opacity="0.3333333333333333"/><line x1="416.42578125" y1="126.87500000000001" x2="512.98828125" y2="239.6527777777778" stroke="black" stroke-opacity="0.3333333333333333"/><line x1="416.42578125" y1="296.0416666666667" x2="440.56640625" y2="296.0416666666667" stroke="black" stroke-opacity="0.6666666666666666"/><line x1="440.56640625" y1="14.097222222222223" x2="464.70703125" y2="296.0416666666667" stroke="black" stroke-opacity="0.3333333333333333"/><line x1="440.56640625" y1="296.0416666666667" x2="561.26953125" y2="183.2638888888889" stroke="black" stroke-opacity="0.3333333333333333"/><line x1="440.56640625" y1="296.0416666666667" x2="464.70703125" y2="296.0416666666667" stroke="black" stroke-opacity="0.6666666666666666"/><line x1="464.70703125" y1="14.097222222222223" x2="488.84765625" y2="296.0416666666667" stroke="black" stroke-opacity="0.3333333333333333"/><line x1="464.70703125" y1="296.0416666666667" x2="585.41015625" y2="183.2638888888889" stroke="black" stroke-opacity="0.3333333333333333"/><line x1="464.70703125" y1="296.0416666666667" x2="488.84765625" y2="296.0416666666667" stroke="black" stroke-opacity="0.6666666666666666"/><line x1="488.84765625" y1="14.097222222222223" x2="512.98828125" y2="296.0416666666667" stroke="black" stroke-opacity="0.3333333333333333"/><line x1="488.84765625" y1="70.48611111111111" x2="512.98828125" y2="296.0416666666667" stroke="black" stroke-opacity="0.3333333333333333"/><line x1="488.84765625" y1="239.6527777777778" x2="585.41015625" y2="14.097222222222223" stroke="black" stroke-opacity="0.3333333333333333"/><line x1="488.84765625" y1="296.0416666666667" x2="681.97265625" y2="126.87500000000001" stroke="black" stroke-opacity="0.3333333333333333"/><line x1="488.84765625" y1="296.0416666666667" x2="609.55078125" y2="183.2638888888889" stroke="black" stroke-opacity="0.3333333333333333"/><line x1="488.84765625" y1="296.0416666666667" x2="512.98828125" y2="296.0416666666667" stroke="black" stroke-opacity="0.3333333333333333"/><line x1="512.98828125" y1="239.6527777777778" x2="609.55078125" y2="14.097222222222223" stroke="black" stroke-opacity="0.3333333333333333"/><line x1="512.98828125" y1="296.0416666666667" x2="633.69140625" y2="183.2638888888889" stroke="black" stroke-opacity="0.3333333333333333"/><line x1="512.98828125" y1="296.0416666666667" x2="537.12890625" y2="296.0416666666667" stroke="black" stroke-opacity="0.6666666666666666"/><line x1="537.12890625" y1="126.87500000000001" x2="633.69140625" y2="239.6527777777778" stroke="black" stroke-opacity="0.3333333333333333"/><line x1="537.12890625" y1="296.0416666666667" x2="657.83203125" y2="183.2638888888889" stroke="black" stroke-opacity="0.3333333333333333"/><line x1="537.12890625" y1="296.0416666666667" x2="561.26953125" y2="296.0416666666667" stroke="black" stroke-opacity="0.3333333333333333"/><line x1="561.26953125" y1="126.87500000000001" x2="657.83203125" y2="239.6527777777778" stroke="black" stroke-opacity="0.3333333333333333"/><line x1="561.26953125" y1="183.2638888888889" x2="585.41015625" y2="296.0416666666667" stroke="black" stroke-opacity="0.3333333333333333"/><line x1="561.26953125" y1="296.0416666666667" x2="585.41015625" y2="296.0416666666667" stroke="black" stroke-opacity="0.3333333333333333"/><line x1="585.41015625" y1="14.097222222222223" x2="609.55078125" y2="296.0416666666667" stroke="black" stroke-opacity="0.3333333333333333"/><line x1="585.41015625" y1="126.87500000000001" x2="681.97265625" y2="239.6527777777778" stroke="black" stroke-opacity="0.3333333333333333"/><line x1="585.41015625" y1="183.2638888888889" x2="609.55078125" y2="296.0416666666667" stroke="black" stroke-opacity="0.3333333333333333"/><line x1="585.41015625" y1="296.0416666666667" x2="681.97265625" y2="70.48611111111111" stroke="black" stroke-opacity="0.3333333333333333"/><line x1="585.41015625" y1="296.0416666666667" x2="778.53515625" y2="126.87500000000001" stroke="black" stroke-opacity="0.3333333333333333"/><line x1="609.55078125" y1="14.097222222222223" x2="633.69140625" y2="296.0416666666667" stroke="black" stroke-opacity="0.3333333333333333"/><line x1="609.55078125" y1="183.2638888888889" x2="633.69140625" y2="296.0416666666667" stroke="black" stroke-opacity="0.3333333333333333"/><line x1="609.55078125" y1="296.0416666666667" x2="706.11328125" y2="70.48611111111111" stroke="black" stroke-opacity="0.3333333333333333"/><line x1="609.55078125" y1="296.0416666666667" x2="633.69140625" y2="296.0416666666667" stroke="black" stroke-opacity="0.3333333333333333"/><line x1="633.69140625" y1="183.2638888888889" x2="657.83203125" y2="296.0416666666667" stroke="black" stroke-opacity="0.3333333333333333"/><line x1="633.69140625" y1="239.6527777777778" x2="730.25390625" y2="14.097222222222223" stroke="black" stroke-opacity="0.3333333333333333"/><line x1="633.69140625" y1="296.0416666666667" x2="730.25390625" y2="70.48611111111111" stroke="black" stroke-opacity="0.3333333333333333"/><line x1="633.69140625" y1="296.0416666666667" x2="754.39453125" y2="183.2638888888889" stroke="black" stroke-opacity="0.3333333333333333"/><line x1="633.69140625" y1="296.0416666666667" x2="657.83203125" y2="296.0416666666667" stroke="black" stroke-opacity="0.3333333333333333"/><line x1="657.83203125" y1="183.2638888888889" x2="681.97265625" y2="296.0416666666667" stroke="black" stroke-opacity="0.3333333333333333"/><line x1="657.83203125" y1="239.6527777777778" x2="754.39453125" y2="14.097222222222223" stroke="black" stroke-opacity="0.3333333333333333"/><line x1="657.83203125" y1="296.0416666666667" x2="754.39453125" y2="70.48611111111111" stroke="black" stroke-opacity="0.3333333333333333"/><line x1="657.83203125" y1="296.0416666666667" x2="778.53515625" y2="183.2638888888889" stroke="black" stroke-opacity="0.3333333333333333"/><line x1="681.97265625" y1="70.48611111111111" x2="706.11328125" y2="296.0416666666667" stroke="black" stroke-opacity="0.3333333333333333"/><line x1="681.97265625" y1="126.87500000000001" x2="778.53515625" y2="239.6527777777778" stroke="black" stroke-opacity="0.3333333333333333"/><line x1="681.97265625" y1="239.6527777777778" x2="778.53515625" y2="14.097222222222223" stroke="black" stroke-opacity="0.3333333333333333"/><line x1="681.97265625" y1="296.0416666666667" x2="778.53515625" y2="70.48611111111111" stroke="black" stroke-opacity="0.3333333333333333"/><line x1="706.11328125" y1="70.48611111111111" x2="730.25390625" y2="296.0416666666667" stroke="black" stroke-opacity="0.3333333333333333"/><line x1="706.11328125" y1="296.0416666666667" x2="730.25390625" y2="296.0416666666667" stroke="black" stroke-opacity="0.3333333333333333"/><line x1="730.25390625" y1="14.097222222222223" x2="754.39453125" y2="296.0416666666667" stroke="black" stroke-opacity="0.3333333333333333"/><line x1="730.25390625" y1="70.48611111111111" x2="754.39453125" y2="296.0416666666667" stroke="black" stroke-opacity="0.3333333333333333"/><line x1="730.25390625" y1="296.0416666666667" x2="754.39453125" y2="296.0416666666667" stroke="black" stroke-opacity="0.3333333333333333"/><line x1="754.39453125" y1="14.097222222222223" x2="778.53515625" y2="296.0416666666667" stroke="black" stroke-opacity="0.3333333333333333"/><line x1="754.39453125" y1="70.48611111111111" x2="778.53515625" y2="296.0416666666667" stroke="black" stroke-opacity="0.3333333333333333"/><line x1="754.39453125" y1="183.2638888888889" x2="778.53515625" y2="296.0416666666667" stroke="black" stroke-opacity="0.3333333333333333"/><line x1="754.39453125" y1="296.0416666666667" x2="778.53515625" y2="296.0416666666667" stroke="black" stroke-opacity="0.3333333333333333"/><line x1="6.03515625" y1="156.19722222222222" x2="30.17578125" y2="297.1694444444445" stroke="rgb(255 0 255)"/><line x1="30.17578125" y1="297.1694444444445" x2="54.31640625" y2="297.1694444444445" stroke="rgb(255 0 255)"/><line x1="54.31640625" y1="297.1694444444445" x2="175.01953125" y2="184.39166666666668" stroke="rgb(255 0 255)"/><line x1="175.01953125" y1="184.39166666666668" x2="199.16015625" y2="297.1694444444445" stroke="rgb(255 0 255)"/><line x1="199.16015625" y1="297.1694444444445" x2="295.72265625" y2="71.6138888888889" stroke="rgb(255 0 255)"/><line x1="295.72265625" y1="71.6138888888889" x2="319.86328125" y2="297.1694444444445" stroke="rgb(255 0 255)"/><line x1="319.86328125" y1="297.1694444444445" x2="344.00390625" y2="297.1694444444445" stroke="rgb(255 0 255)"/><line x1="344.00390625" y1="297.1694444444445" x2="368.14453125" y2="297.1694444444445" stroke="rgb(255 0 255)"/><line x1="368.14453125" y1="297.1694444444445" x2="392.28515625" y2="297.1694444444445" stroke="rgb(255 0 255)"/><line x1="392.28515625" y1="297.1694444444445" x2="585.41015625" y2="128.0027777777778" stroke="rgb(255 0 255)"/><line x1="585.41015625" y1="128.0027777777778" x2="681.97265625" y2="240.78055555555557" stroke="rgb(255 0 255)"/><line x1="681.97265625" y1="240.78055555555557" x2="778.53515625" y2="15.225000000000001" stroke="rgb(255 0 255)"/><line x1="6.03515625" y1="157.32500000000002" x2="30.17578125" y2="298.2972222222222" stroke="rgb(255 255 0)"/><line x1="30.17578125" y1="298.2972222222222" x2="54.31640625" y2="298.2972222222222" stroke="rgb(255 255 0)"/><line x1="54.31640625" y1="298.2972222222222" x2="175.01953125" y2="185.51944444444447" stroke="rgb(255 255 0)"/><line x1="175.01953125" y1="185.51944444444447" x2="199.16015625" y2="298.2972222222222" stroke="rgb(255 255 0)"/><line x1="199.16015625" y1="298.2972222222222" x2="295.72265625" y2="72.74166666666667" stroke="rgb(255 255 0)"/><line x1="295.72265625" y1="72.74166666666667" x2="319.86328125" y2="298.2972222222222" stroke="rgb(255 255 0)"/><line x1="319.86328125" y1="298.2972222222222" x2="344.00390625" y2="298.2972222222222" stroke="rgb(255 255 0)"/><line x1="344.00390625" y1="298.2972222222222" x2="368.14453125" y2="298.2972222222222" stroke="rgb(255 255 0)"/><line x1="368.14453125" y1="298.2972222222222" x2="392.28515625" y2="298.2972222222222" stroke="rgb(255 255 0)"/><line x1="392.28515625" y1="298.2972222222222" x2="585.41015625" y2="129.13055555555556" stroke="rgb(255 255 0)"/><line x1="585.41015625" y1="129.13055555555556" x2="681.97265625" y2="241.90833333333336" stroke="rgb(255 255 0)"/><line x1="681.97265625" y1="241.90833333333336" x2="778.53515625" y2="16.352777777777778" stroke="rgb(255 255 0)"/><line x1="6.03515625" y1="158.45277777777778" x2="30.17578125" y2="299.425" stroke="rgb(0 0 255)"/><line x1="30.17578125" y1="299.425" x2="54.31640625" y2="299.425" stroke="rgb(0 0 255)"/><line x1="54.31640625" y1="299.425" x2="175.01953125" y2="186.64722222222224" stroke="rgb(0 0 255)"/><line x1="175.01953125" y1="186.64722222222224" x2="199.16015625" y2="299.425" stroke="rgb(0 0 255)"/><line x1="199.16015625" y1="299.425" x2="295.72265625" y2="73.86944444444445" stroke="rgb(0 0 255)"/><line x1="295.72265625" y1="73.86944444444445" x2="319.86328125" y2="299.425" stroke="rgb(0 0 255)"/><line x1="319.86328125" y1="299.425" x2="344.00390625" y2="299.425" stroke="rgb(0 0 255)"/><line x1="344.00390625" y1="299.425" x2="368.14453125" y2="299.425" stroke="rgb(0 0 255)"/><line x1="368.14453125" y1="299.425" x2="392.28515625" y2="299.425" stroke="rgb(0 0 255)"/><line x1="392.28515625" y1="299.425" x2="585.41015625" y2="130.25833333333335" stroke="rgb(0 0 255)"/><line x1="585.41015625" y1="130.25833333333335" x2="681.97265625" y2="243.03611111111113" stroke="rgb(0 0 255)"/><line x1="681.97265625" y1="243.03611111111113" x2="778.53515625" y2="17.480555555555558" stroke="rgb(0 0 255)"/><line x1="6.03515625" y1="159.58055555555558" x2="30.17578125" y2="300.5527777777778" stroke="rgb(0 255 0)"/><line x1="30.17578125" y1="300.5527777777778" x2="54.31640625" y2="300.5527777777778" stroke="rgb(0 255 0)"/><line x1="54.31640625" y1="300.5527777777778" x2="175.01953125" y2="187.77500000000003" stroke="rgb(0 255 0)"/><line x1="175.01953125" y1="187.77500000000003" x2="199.16015625" y2="300.5527777777778" stroke="rgb(0 255 0)"/><line x1="199.16015625" y1="300.5527777777778" x2="295.72265625" y2="74.99722222222222" stroke="rgb(0 255 0)"/><line x1="295.72265625" y1="74.99722222222222" x2="319.86328125" y2="300.5527777777778" stroke="rgb(0 255 0)"/><line x1="319.86328125" y1="300.5527777777778" x2="344.00390625" y2="300.5527777777778" stroke="rgb(0 255 0)"/><line x1="344.00390625" y1="300.5527777777778" x2="368.14453125" y2="300.5527777777778" stroke="rgb(0 255 0)"/><line x1="368.14453125" y1="300.5527777777778" x2="392.28515625" y2="300.5527777777778" stroke="rgb(0 255 0)"/><line x1="392.28515625" y1="300.5527777777778" x2="585.41015625" y2="131.38611111111112" stroke="rgb(0 255 0)"/><line x1="585.41015625" y1="131.38611111111112" x2="681.97265625" y2="244.16388888888892" stroke="rgb(0 255 0)"/><line x1="681.97265625" y1="244.16388888888892" x2="778.53515625" y2="18.608333333333334" stroke="rgb(0 255 0)"/><line x1="6.03515625" y1="160.70833333333334" x2="30.17578125" y2="301.6805555555556" stroke="rgb(255 0 0)"/><line x1="30.17578125" y1="301.6805555555556" x2="54.31640625" y2="301.6805555555556" stroke="rgb(255 0 0)"/><line x1="54.31640625" y1="301.6805555555556" x2="175.01953125" y2="188.9027777777778" stroke="rgb(255 0 0)"/><line x1="175.01953125" y1="188.9027777777778" x2="199.16015625" y2="301.6805555555556" stroke="rgb(255 0 0)"/><line x1="199.16015625" y1="301.6805555555556" x2="295.72265625" y2="76.125" stroke="rgb(255 0 0)"/><line x1="295.72265625" y1="76.125" x2="319.86328125" y2="301.6805555555556" stroke="rgb(255 0 0)"/><line x1="319.86328125" y1="301.6805555555556" x2="344.00390625" y2="301.6805555555556" stroke="rgb(255 0 0)"/><line x1="344.00390625" y1="301.6805555555556" x2="368.14453125" y2="301.6805555555556" stroke="rgb(255 0 0)"/><line x1="368.14453125" y1="301.6805555555556" x2="392.28515625" y2="301.6805555555556" stroke="rgb(255 0 0)"/><line x1="392.28515625" y1="301.6805555555556" x2="585.41015625" y2="132.5138888888889" stroke="rgb(255 0 0)"/><line x1="585.41015625" y1="132.5138888888889" x2="681.97265625" y2="245.29166666666669" stroke="rgb(255 0 0)"/><line x1="681.97265625" y1="245.29166666666669" x2="778.53515625" y2="19.736111111111114" stroke="rgb(255 0 0)"/></svg>