<svg xmlns="http://www.w3.org/2000/svg" width="520.6436518579746" height="622.5" style="background: white;"><line x1="439.78301075065104" y1="255.47152363650994" x2="245.77091905155515" y2="250.62122134403253" stroke="red" stroke-width="16.212213440325364"/><circle cx="439.78301075065104" cy="255.47152363650994" r="8.106106720162682" fill="red" stroke-width="0"/><circle cx="245.77091905155515" cy="250.62122134403253" r="8.106106720162682" fill="red" stroke-width="0"/><line x1="245.77091905155515" y1="250.62122134403253" x2="464.03452221303803" y2="187.5672915418264" stroke="red" stroke-width="16.212213440325364"/><circle cx="245.77091905155515" cy="250.62122134403253" r="8.106106720162682" fill="red" stroke-width="0"/><circle cx="464.03452221303803" cy="187.5672915418264" r="8.106106720162682" fill="red" stroke-width="0"/><line x1="439.78301075065104" y1="255.47152363650994" x2="255.47152363650994" y2="313.6751511462387" stroke="red" stroke-width="16.212213440325364"/><circle cx="439.78301075065104" cy="255.47152363650994" r="8.106106720162682" fill="red" stroke-width="0"/><circle cx="255.47152363650994" cy="313.6751511462387" r="8.106106720162682" fill="red" stroke-width="0"/><line x1="439.78301075065104" y1="255.47152363650994" x2="464.03452221303803" y2="187.5672915418264" stroke="red" stroke-width="16.212213440325364"/><circle cx="439.78301075065104" cy="255.47152363650994" r="8.106106720162682" fill="red" stroke-width="0"/><circle cx="464.03452221303803" cy="187.5672915418264" r="8.106106720162682" fill="red" stroke-width="0"/><line x1="245.77091905155515" y1="250.62122134403253" x2="255.47152363650994" y2="313.6751511462387" stroke="red" stroke-width="16.212213440325364"/><circle cx="245.77091905155515" cy="250.62122134403253" r="8.106106720162682" fill="red" stroke-width="0"/><circle cx="255.47152363650994" cy="313.6751511462387" r="8.106106720162682" fill="red" stroke-width="0"/><line x1="255.47152363650994" y1="313.6751511462387" x2="61.459431937414045" y2="337.9266626086257" stroke="red" stroke-width="16.212213440325364"/><circle cx="255.47152363650994" cy="313.6751511462387" r="8.106106720162682" fill="red" stroke-width="0"/><circle cx="61.459431937414045" cy="337.9266626086257" r="8.106106720162682" fill="red" stroke-width="0"/><line x1="245.77091905155515" y1="250.62122134403253" x2="61.459431937414045" y2="337.9266626086257" stroke="red" stroke-width="16.212213440325364"/><circle cx="245.77091905155515" cy="250.62122134403253" r="8.106106720162682" fill="red" stroke-width="0"/><circle cx="61.459431937414045" cy="337.9266626086257" r="8.106106720162682" fill="red" stroke-width="0"/><line x1="255.47152363650994" y1="313.6751511462387" x2="279.7230350988969" y2="459.1842199205606" stroke="red" stroke-width="16.212213440325364"/><circle cx="255.47152363650994" cy="313.6751511462387" r="8.106106720162682" fill="red" stroke-width="0"/><circle cx="279.7230350988969" cy="459.1842199205606" r="8.106106720162682" fill="red" stroke-width="0"/><line x1="255.47152363650994" y1="313.6751511462387" x2="134.213966324575" y2="425.2321038732188" stroke="red" stroke-width="16.212213440325364"/><circle cx="255.47152363650994" cy="313.6751511462387" r="8.106106720162682" fill="red" stroke-width="0"/><circle cx="134.213966324575" cy="425.2321038732188" r="8.106106720162682" fill="red" stroke-width="0"/><line x1="245.77091905155515" y1="250.62122134403253" x2="105.11215256971063" y2="158.465477786962" stroke="red" stroke-width="16.212213440325364"/><circle cx="245.77091905155515" cy="250.62122134403253" r="8.106106720162682" fill="red" stroke-width="0"/><circle cx="105.11215256971063" cy="158.465477786962" r="8.106106720162682" fill="red" stroke-width="0"/><line x1="439.78301075065104" y1="255.47152363650994" x2="337.9266626086257" y2="362.1781740710127" stroke="red" stroke-width="16.212213440325364"/><circle cx="439.78301075065104" cy="255.47152363650994" r="8.106106720162682" fill="red" stroke-width="0"/><circle cx="337.9266626086257" cy="362.1781740710127" r="8.106106720162682" fill="red" stroke-width="0"/><line x1="105.11215256971063" y1="158.465477786962" x2="85.71094339980104" y2="8.106106720162682" stroke="red" stroke-width="16.212213440325364"/><circle cx="105.11215256971063" cy="158.465477786962" r="8.106106720162682" fill="red" stroke-width="0"/><circle cx="85.71094339980104" cy="8.106106720162682" r="8.106106720162682" fill="red" stroke-width="0"/><line x1="85.71094339980104" y1="8.106106720162682" x2="12.956409012640078" y2="187.5672915418264" stroke="red" stroke-width="16.212213440325364"/><circle cx="85.71094339980104" cy="8.106106720162682" r="8.106106720162682" fill="red" stroke-width="0"/><circle cx="12.956409012640078" cy="187.5672915418264" r="8.106106720162682" fill="red" stroke-width="0"/><line x1="12.956409012640078" y1="187.5672915418264" x2="245.77091905155515" y2="250.62122134403253" stroke="red" stroke-width="16.212213440325364"/><circle cx="12.956409012640078" cy="187.5672915418264" r="8.106106720162682" fill="red" stroke-width="0"/><circle cx="245.77091905155515" cy="250.62122134403253" r="8.106106720162682" fill="red" stroke-width="0"/><line x1="245.77091905155515" y1="250.62122134403253" x2="85.71094339980104" y2="8.106106720162682" stroke="red" stroke-width="16.212213440325364"/><circle cx="245.77091905155515" cy="250.62122134403253" r="8.106106720162682" fill="red" stroke-width="0"/><circle cx="85.71094339980104" cy="8.106106720162682" r="8.106106720162682" fill="red" stroke-width="0"/><line x1="255.47152363650994" y1="313.6751511462387" x2="337.9266626086257" y2="362.1781740710127" stroke="red" stroke-width="16.212213440325364"/><circle cx="255.47152363650994" cy="313.6751511462387" r="8.106106720162682" fill="red" stroke-width="0"/><circle cx="337.9266626086257" cy="362.1781740710127" r="8.106106720162682" fill="red" stroke-width="0"/><line x1="337.9266626086257" y1="362.1781740710127" x2="279.7230350988969" y2="459.1842199205606" stroke="red" stroke-width="16.212213440325364"/><circle cx="337.9266626086257" cy="362.1781740710127" r="8.106106720162682" fill="red" stroke-width="0"/><circle cx="279.7230350988969" cy="459.1842199205606" r="8.106106720162682" fill="red" stroke-width="0"/><line x1="245.77091905155515" y1="250.62122134403253" x2="323.3757557311935" y2="56.60912964493665" stroke="red" stroke-width="16.212213440325364"/><circle cx="245.77091905155515" cy="250.62122134403253" r="8.106106720162682" fill="red" stroke-width="0"/><circle cx="323.3757557311935" cy="56.60912964493665" r="8.106106720162682" fill="red" stroke-width="0"/><line x1="85.71094339980104" y1="8.106106720162682" x2="240.92061675907775" y2="109.96245486218803" stroke="red" stroke-width="16.212213440325364"/><circle cx="85.71094339980104" cy="8.106106720162682" r="8.106106720162682" fill="red" stroke-width="0"/><circle cx="240.92061675907775" cy="109.96245486218803" r="8.106106720162682" fill="red" stroke-width="0"/><line x1="279.7230350988969" y1="459.1842199205606" x2="134.213966324575" y2="425.2321038732188" stroke="red" stroke-width="16.212213440325364"/><circle cx="279.7230350988969" cy="459.1842199205606" r="8.106106720162682" fill="red" stroke-width="0"/><circle cx="134.213966324575" cy="425.2321038732188" r="8.106106720162682" fill="red" stroke-width="0"/><line x1="85.71094339980104" y1="8.106106720162682" x2="323.3757557311935" y2="56.60912964493665" stroke="red" stroke-width="16.212213440325364"/><circle cx="85.71094339980104" cy="8.106106720162682" r="8.106106720162682" fill="red" stroke-width="0"/><circle cx="323.3757557311935" cy="56.60912964493665" r="8.106106720162682" fill="red" stroke-width="0"/><line x1="245.77091905155515" y1="250.62122134403253" x2="240.92061675907775" y2="109.96245486218803" stroke="red" stroke-width="16.212213440325364"/><circle cx="245.77091905155515" cy="250.62122134403253" r="8.106106720162682" fill="red" stroke-width="0"/><circle cx="240.92061675907775" cy="109.96245486218803" r="8.106106720162682" fill="red" stroke-width="0"/><line x1="439.78301075065104" y1="255.47152363650994" x2="245.77091905155515" y2="250.62122134403253" stroke="black" stroke-width="4.850302292477397"/><circle cx="439.78301075065104" cy="255.47152363650994" r="2.4251511462386985" fill="black" stroke-width="0"/><circle cx="245.77091905155515" cy="250.62122134403253" r="2.4251511462386985" fill="black" stroke-width="0"/><line x1="245.77091905155515" y1="250.62122134403253" x2="464.03452221303803" y2="187.5672915418264" stroke="black" stroke-width="4.850302292477397"/><circle cx="245.77091905155515" cy="250.62122134403253" r="2.4251511462386985" fill="black" stroke-width="0"/><circle cx="464.03452221303803" cy="187.5672915418264" r="2.4251511462386985" fill="black" stroke-width="0"/><line x1="439.78301075065104" y1="255.47152363650994" x2="255.47152363650994" y2="313.6751511462387" stroke="black" stroke-width="4.850302292477397"/><circle cx="439.78301075065104" cy="255.47152363650994" r="2.4251511462386985" fill="black" stroke-width="0"/><circle cx="255.47152363650994" cy="313.6751511462387" r="2.4251511462386985" fill="black" stroke-width="0"/><line x1="439.78301075065104" y1="255.47152363650994" x2="464.03452221303803" y2="187.5672915418264" stroke="black" stroke-width="4.850302292477397"/><circle cx="439.78301075065104" cy="255.47152363650994" r="2.4251511462386985" fill="black" stroke-width="0"/><circle cx="464.03452221303803" cy="187.5672915418264" r="2.4251511462386985" fill="black" stroke-width="0"/><line x1="245.77091905155515" y1="250.62122134403253" x2="255.47152363650994" y2="313.6751511462387" stroke="black" stroke-width="4.850302292477397"/><circle cx="245.77091905155515" cy="250.62122134403253" r="2.4251511462386985" fill="black" stroke-width="0"/><circle cx="255.47152363650994" cy="313.6751511462387" r="2.4251511462386985" fill="black" stroke-width="0"/><line x1="255.47152363650994" y1="313.6751511462387" x2="61.459431937414045" y2="337.9266626086257" stroke="black" stroke-width="4.850302292477397"/><circle cx="255.47152363650994" cy="313.6751511462387" r="2.4251511462386985" fill="black" stroke-width="0"/><circle cx="61.459431937414045" cy="337.9266626086257" r="2.4251511462386985" fill="black" stroke-width="0"/><line x1="245.77091905155515" y1="250.62122134403253" x2="61.459431937414045" y2="337.9266626086257" stroke="black" stroke-width="4.850302292477397"/><circle cx="245.77091905155515" cy="250.62122134403253" r="2.4251511462386985" fill="black" stroke-width="0"/><circle cx="61.459431937414045" cy="337.9266626086257" r="2.4251511462386985" fill="black" stroke-width="0"/><line x1="255.47152363650994" y1="313.6751511462387" x2="279.7230350988969" y2="459.1842199205606" stroke="black" stroke-width="4.850302292477397"/><circle cx="255.47152363650994" cy="313.6751511462387" r="2.4251511462386985" fill="black" stroke-width="0"/><circle cx="279.7230350988969" cy="459.1842199205606" r="2.4251511462386985" fill="black" stroke-width="0"/><line x1="255.47152363650994" y1="313.6751511462387" x2="134.213966324575" y2="425.2321038732188" stroke="black" stroke-width="4.850302292477397"/><circle cx="255.47152363650994" cy="313.6751511462387" r="2.4251511462386985" fill="black" stroke-width="0"/><circle cx="134.213966324575" cy="425.2321038732188" r="2.4251511462386985" fill="black" stroke-width="0"/><line x1="245.77091905155515" y1="250.62122134403253" x2="105.11215256971063" y2="158.465477786962" stroke="black" stroke-width="4.850302292477397"/><circle cx="245.77091905155515" cy="250.62122134403253" r="2.4251511462386985" fill="black" stroke-width="0"/><circle cx="105.11215256971063" cy="158.465477786962" r="2.4251511462386985" fill="black" stroke-width="0"/><line x1="439.78301075065104" y1="255.47152363650994" x2="337.9266626086257" y2="362.1781740710127" stroke="black" stroke-width="4.850302292477397"/><circle cx="439.78301075065104" cy="255.47152363650994" r="2.4251511462386985" fill="black" stroke-width="0"/><circle cx="337.9266626086257" cy="362.1781740710127" r="2.4251511462386985" fill="black" stroke-width="0"/><line x1="105.11215256971063" y1="158.465477786962" x2="85.71094339980104" y2="8.106106720162682" stroke="black" stroke-width="4.850302292477397"/><circle cx="105.11215256971063" cy="158.465477786962" r="2.4251511462386985" fill="black" stroke-width="0"/><circle cx="85.71094339980104" cy="8.106106720162682" r="2.4251511462386985" fill="black" stroke-width="0"/><line x1="85.71094339980104" y1="8.106106720162682" x2="12.956409012640078" y2="187.5672915418264" stroke="black" stroke-width="4.850302292477397"/><circle cx="85.71094339980104" cy="8.106106720162682" r="2.4251511462386985" fill="black" stroke-width="0"/><circle cx="12.956409012640078" cy="187.5672915418264" r="2.4251511462386985" fill="black" stroke-width="0"/><line x1="12.956409012640078" y1="187.5672915418264" x2="245.77091905155515" y2="250.62122134403253" stroke="black" stroke-width="4.850302292477397"/><circle cx="12.956409012640078" cy="187.5672915418264" r="2.4251511462386985" fill="black" stroke-width="0"/><circle cx="245.77091905155515" cy="250.62122134403253" r="2.4251511462386985" fill="black" stroke-width="0"/><line x1="245.77091905155515" y1="250.62122134403253" x2="85.71094339980104" y2="8.106106720162682" stroke="black" stroke-width="4.850302292477397"/><circle cx="245.77091905155515" cy="250.62122134403253" r="2.4251511462386985" fill="black" stroke-width="0"/><circle cx="85.71094339980104" cy="8.106106720162682" r="2.4251511462386985" fill="black" stroke-width="0"/><line x1="255.47152363650994" y1="313.6751511462387" x2="337.9266626086257" y2="362.1781740710127" stroke="black" stroke-width="4.850302292477397"/><circle cx="255.47152363650994" cy="313.6751511462387" r="2.4251511462386985" fill="black" stroke-width="0"/><circle cx="337.9266626086257" cy="362.1781740710127" r="2.4251511462386985" fill="black" stroke-width="0"/><line x1="337.9266626086257" y1="362.1781740710127" x2="279.7230350988969" y2="459.1842199205606" stroke="black" stroke-width="4.850302292477397"/><circle cx="337.9266626086257" cy="362.1781740710127" r="2.4251511462386985" fill="black" stroke-width="0"/><circle cx="279.7230350988969" cy="459.1842199205606" r="2.4251511462386985" fill="black" stroke-width="0"/><line x1="245.77091905155515" y1="250.62122134403253" x2="323.3757557311935" y2="56.60912964493665" stroke="black" stroke-width="4.850302292477397"/><circle cx="245.77091905155515" cy="250.62122134403253" r="2.4251511462386985" fill="black" stroke-width="0"/><circle cx="323.3757557311935" cy="56.60912964493665" r="2.4251511462386985" fill="black" stroke-width="0"/><line x1="85.71094339980104" y1="8.106106720162682" x2="240.92061675907775" y2="109.96245486218803" stroke="black" stroke-width="4.850302292477397"/><circle cx="85.71094339980104" cy="8.106106720162682" r="2.4251511462386985" fill="black" stroke-width="0"/><circle cx="240.92061675907775" cy="109.96245486218803" r="2.4251511462386985" fill="black" stroke-width="0"/><line x1="279.7230350988969" y1="459.1842199205606" x2="134.213966324575" y2="425.2321038732188" stroke="black" stroke-width="4.850302292477397"/><circle cx="279.7230350988969" cy="459.1842199205606" r="2.4251511462386985" fill="black" stroke-width="0"/><circle cx="134.213966324575" cy="425.2321038732188" r="2.4251511462386985" fill="black" stroke-width="0"/><line x1="85.71094339980104" y1="8.106106720162682" x2="323.3757557311935" y2="56.60912964493665" stroke="black" stroke-width="4.850302292477397"/><circle cx="85.71094339980104" cy="8.106106720162682" r="2.4251511462386985" fill="black" stroke-width="0"/><circle cx="323.3757557311935" cy="56.60912964493665" r="2.4251511462386985" fill="black" stroke-width="0"/><line x1="245.77091905155515" y1="250.62122134403253" x2="240.92061675907775" y2="109.96245486218803" stroke="black" stroke-width="4.850302292477397"/><circle cx="245.77091905155515" cy="250.62122134403253" r="2.4251511462386985" fill="black" stroke-width="0"/><circle cx="240.92061675907775" cy="109.96245486218803" r="2.4251511462386985" fill="black" stroke-width="0"/><polygon points="260.3218259289873,236.07031446660037 337.9266626086257,46.908525059981855 512.537545137812,114.81275715466542 478.5854290904702,173.0163846643942 " fill="blue" stroke-width="0"/><polygon points="386.42968553339966,502.8369405528572 415.53149928826406,531.9387543077215 376.72908094844485,599.8429864024051 391.2799878258771,527.0884520152442 342.7769649011031,536.7890566001989 333.0763603161483,614.3938932798374 318.5254534387161,517.3878474302894 " fill="blue" stroke-width="0"/><polygon points="46.908525059981855,226.36970988164555 109.96245486218803,250.62122134403253 27.50731589007227,303.9745465612839 " fill="blue" stroke-width="0"/><polygon points="100.26185027723324,371.8787786559675 148.7648732020072,347.6272671935805 8.106106720162682,493.13633596790237 " fill="blue" stroke-width="0"/></svg>