<svg xmlns="http://www.w3.org/2000/svg" width="643.3333333333334" height="571.9946748739296" style="background: white;"><line x1="71.98136205875366" y1="250.32800820726297" x2="357.33599589636856" y2="71.98136205875366" stroke="red" stroke-width="143.96272411750732"/><circle cx="71.98136205875366" cy="250.32800820726297" r="71.98136205875366" fill="red" stroke-width="0"/><circle cx="357.33599589636856" cy="71.98136205875366" r="71.98136205875366" fill="red" stroke-width="0"/><line x1="357.33599589636856" y1="71.98136205875366" x2="393.0053251260704" y2="268.1626728221139" stroke="red" stroke-width="143.96272411750732"/><circle cx="357.33599589636856" cy="71.98136205875366" r="71.98136205875366" fill="red" stroke-width="0"/><circle cx="393.0053251260704" cy="268.1626728221139" r="71.98136205875366" fill="red" stroke-width="0"/><line x1="393.0053251260704" y1="268.1626728221139" x2="571.3519712745797" y2="464.3439835854741" stroke="red" stroke-width="143.96272411750732"/><circle cx="393.0053251260704" cy="268.1626728221139" r="71.98136205875366" fill="red" stroke-width="0"/><circle cx="571.3519712745797" cy="464.3439835854741" r="71.98136205875366" fill="red" stroke-width="0"/><line x1="571.3519712745797" y1="464.3439835854741" x2="143.32002051815738" y2="500.013312815176" stroke="red" stroke-width="143.96272411750732"/><circle cx="571.3519712745797" cy="464.3439835854741" r="71.98136205875366" fill="red" stroke-width="0"/><circle cx="143.32002051815738" cy="500.013312815176" r="71.98136205875366" fill="red" stroke-width="0"/><line x1="143.32002051815738" y1="500.013312815176" x2="71.98136205875366" y2="250.32800820726297" stroke="red" stroke-width="143.96272411750732"/><circle cx="143.32002051815738" cy="500.013312815176" r="71.98136205875366" fill="red" stroke-width="0"/><circle cx="71.98136205875366" cy="250.32800820726297" r="71.98136205875366" fill="red" stroke-width="0"/><line x1="71.98136205875366" y1="250.32800820726297" x2="357.33599589636856" y2="71.98136205875366" stroke="black" stroke-width="17.83466461485093"/><circle cx="71.98136205875366" cy="250.32800820726297" r="8.917332307425465" fill="black" stroke-width="0"/><circle cx="357.33599589636856" cy="71.98136205875366" r="8.917332307425465" fill="black" stroke-width="0"/><line x1="357.33599589636856" y1="71.98136205875366" x2="393.0053251260704" y2="268.1626728221139" stroke="black" stroke-width="17.83466461485093"/><circle cx="357.33599589636856" cy="71.98136205875366" r="8.917332307425465" fill="black" stroke-width="0"/><circle cx="393.0053251260704" cy="268.1626728221139" r="8.917332307425465" fill="black" stroke-width="0"/><line x1="393.0053251260704" y1="268.1626728221139" x2="571.3519712745797" y2="464.3439835854741" stroke="black" stroke-width="17.83466461485093"/><circle cx="393.0053251260704" cy="268.1626728221139" r="8.917332307425465" fill="black" stroke-width="0"/><circle cx="571.3519712745797" cy="464.3439835854741" r="8.917332307425465" fill="black" stroke-width="0"/><line x1="571.3519712745797" y1="464.3439835854741" x2="143.32002051815738" y2="500.013312815176" stroke="black" stroke-width="17.83466461485093"/><circle cx="571.3519712745797" cy="464.3439835854741" r="8.917332307425465" fill="black" stroke-width="0"/><circle cx="143.32002051815738" cy="500.013312815176" r="8.917332307425465" fill="black" stroke-width="0"/><line x1="143.32002051815738" y1="500.013312815176" x2="71.98136205875366" y2="250.32800820726297" stroke="black" stroke-width="17.83466461485093"/><circle cx="143.32002051815738" cy="500.013312815176" r="8.917332307425465" fill="black" stroke-width="0"/><circle cx="71.98136205875366" cy="250.32800820726297" r="8.917332307425465" fill="black" stroke-width="0"/><polygon points="250.32800820726297,268.1626728221139 393.0053251260704,375.17066051121947 214.6586789775611,410.83998974092134 " fill="blue" stroke-width="0"/></svg>