<svg xmlns="http://www.w3.org/2000/svg" width="643.3333333333334" height="610.1923595858324" style="background: white;"><line x1="487.3715354041713" y1="354.8076404141676" x2="382.42511853708504" y2="509.46551790250527" stroke="red" stroke-width="24.701823379982677"/><circle cx="487.3715354041713" cy="354.8076404141676" r="12.350911689991339" fill="red" stroke-width="0"/><circle cx="382.42511853708504" cy="509.46551790250527" r="12.350911689991339" fill="red" stroke-width="0"/><line x1="382.42511853708504" y1="509.46551790250527" x2="194.62626730124643" y2="526.0360047762557" stroke="red" stroke-width="24.701823379982677"/><circle cx="382.42511853708504" cy="509.46551790250527" r="12.350911689991339" fill="red" stroke-width="0"/><circle cx="194.62626730124643" cy="526.0360047762557" r="12.350911689991339" fill="red" stroke-width="0"/><line x1="382.42511853708504" y1="509.46551790250527" x2="310.6196754174997" y2="299.5726841683327" stroke="red" stroke-width="24.701823379982677"/><circle cx="382.42511853708504" cy="509.46551790250527" r="12.350911689991339" fill="red" stroke-width="0"/><circle cx="310.6196754174997" cy="299.5726841683327" r="12.350911689991339" fill="red" stroke-width="0"/><line x1="310.6196754174997" y1="299.5726841683327" x2="194.62626730124643" y2="526.0360047762557" stroke="red" stroke-width="24.701823379982677"/><circle cx="310.6196754174997" cy="299.5726841683327" r="12.350911689991339" fill="red" stroke-width="0"/><circle cx="194.62626730124643" cy="526.0360047762557" r="12.350911689991339" fill="red" stroke-width="0"/><line x1="310.6196754174997" y1="299.5726841683327" x2="487.3715354041713" y2="354.8076404141676" stroke="red" stroke-width="24.701823379982677"/><circle cx="310.6196754174997" cy="299.5726841683327" r="12.350911689991339" fill="red" stroke-width="0"/><circle cx="487.3715354041713" cy="354.8076404141676" r="12.350911689991339" fill="red" stroke-width="0"/><line x1="487.3715354041713" y1="354.8076404141676" x2="371.37812728791806" y2="150.43830230457854" stroke="red" stroke-width="24.701823379982677"/><circle cx="487.3715354041713" cy="354.8076404141676" r="12.350911689991339" fill="red" stroke-width="0"/><circle cx="371.37812728791806" cy="150.43830230457854" r="12.350911689991339" fill="red" stroke-width="0"/><line x1="371.37812728791806" y1="150.43830230457854" x2="178.055780427496" y2="39.96838981290878" stroke="red" stroke-width="24.701823379982677"/><circle cx="371.37812728791806" cy="150.43830230457854" r="12.350911689991339" fill="red" stroke-width="0"/><circle cx="178.055780427496" cy="39.96838981290878" r="12.350911689991339" fill="red" stroke-width="0"/><line x1="194.62626730124643" y1="526.0360047762557" x2="167.008789178329" y2="332.71365791583366" stroke="red" stroke-width="24.701823379982677"/><circle cx="194.62626730124643" cy="526.0360047762557" r="12.350911689991339" fill="red" stroke-width="0"/><circle cx="167.008789178329" cy="332.71365791583366" r="12.350911689991339" fill="red" stroke-width="0"/><line x1="371.37812728791806" y1="150.43830230457854" x2="553.6534828991732" y2="299.5726841683327" stroke="red" stroke-width="24.701823379982677"/><circle cx="371.37812728791806" cy="150.43830230457854" r="12.350911689991339" fill="red" stroke-width="0"/><circle cx="553.6534828991732" cy="299.5726841683327" r="12.350911689991339" fill="red" stroke-width="0"/><line x1="310.6196754174997" y1="299.5726841683327" x2="178.055780427496" y2="39.96838981290878" stroke="red" stroke-width="24.701823379982677"/><circle cx="310.6196754174997" cy="299.5726841683327" r="12.350911689991339" fill="red" stroke-width="0"/><circle cx="178.055780427496" cy="39.96838981290878" r="12.350911689991339" fill="red" stroke-width="0"/><line x1="167.008789178329" y1="332.71365791583366" x2="178.055780427496" y2="39.96838981290878" stroke="red" stroke-width="24.701823379982677"/><circle cx="167.008789178329" cy="332.71365791583366" r="12.350911689991339" fill="red" stroke-width="0"/><circle cx="178.055780427496" cy="39.96838981290878" r="12.350911689991339" fill="red" stroke-width="0"/><line x1="553.6534828991732" y1="299.5726841683327" x2="503.9420222779218" y2="100.72684168332715" stroke="red" stroke-width="24.701823379982677"/><circle cx="553.6534828991732" cy="299.5726841683327" r="12.350911689991339" fill="red" stroke-width="0"/><circle cx="503.9420222779218" cy="100.72684168332715" r="12.350911689991339" fill="red" stroke-width="0"/><line x1="503.9420222779218" y1="100.72684168332715" x2="371.37812728791806" y2="150.43830230457854" stroke="red" stroke-width="24.701823379982677"/><circle cx="503.9420222779218" cy="100.72684168332715" r="12.350911689991339" fill="red" stroke-width="0"/><circle cx="371.37812728791806" cy="150.43830230457854" r="12.350911689991339" fill="red" stroke-width="0"/><line x1="487.3715354041713" y1="354.8076404141676" x2="553.6534828991732" y2="299.5726841683327" stroke="red" stroke-width="24.701823379982677"/><circle cx="487.3715354041713" cy="354.8076404141676" r="12.350911689991339" fill="red" stroke-width="0"/><circle cx="553.6534828991732" cy="299.5726841683327" r="12.350911689991339" fill="red" stroke-width="0"/><line x1="167.008789178329" y1="332.71365791583366" x2="12.350911689991339" y2="205.6732585504134" stroke="red" stroke-width="24.701823379982677"/><circle cx="167.008789178329" cy="332.71365791583366" r="12.350911689991339" fill="red" stroke-width="0"/><circle cx="12.350911689991339" cy="205.6732585504134" r="12.350911689991339" fill="red" stroke-width="0"/><line x1="178.055780427496" y1="39.96838981290878" x2="503.9420222779218" y2="100.72684168332715" stroke="red" stroke-width="24.701823379982677"/><circle cx="178.055780427496" cy="39.96838981290878" r="12.350911689991339" fill="red" stroke-width="0"/><circle cx="503.9420222779218" cy="100.72684168332715" r="12.350911689991339" fill="red" stroke-width="0"/><line x1="12.350911689991339" y1="205.6732585504134" x2="178.055780427496" y2="39.96838981290878" stroke="red" stroke-width="24.701823379982677"/><circle cx="12.350911689991339" cy="205.6732585504134" r="12.350911689991339" fill="red" stroke-width="0"/><circle cx="178.055780427496" cy="39.96838981290878" r="12.350911689991339" fill="red" stroke-width="0"/><line x1="553.6534828991732" y1="299.5726841683327" x2="553.6534828991732" y2="509.46551790250527" stroke="red" stroke-width="24.701823379982677"/><circle cx="553.6534828991732" cy="299.5726841683327" r="12.350911689991339" fill="red" stroke-width="0"/><circle cx="553.6534828991732" cy="509.46551790250527" r="12.350911689991339" fill="red" stroke-width="0"/><line x1="167.008789178329" y1="332.71365791583366" x2="34.44489418832529" y2="465.27755290583735" stroke="red" stroke-width="24.701823379982677"/><circle cx="167.008789178329" cy="332.71365791583366" r="12.350911689991339" fill="red" stroke-width="0"/><circle cx="34.44489418832529" cy="465.27755290583735" r="12.350911689991339" fill="red" stroke-width="0"/><line x1="310.6196754174997" y1="299.5726841683327" x2="371.37812728791806" y2="150.43830230457854" stroke="red" stroke-width="24.701823379982677"/><circle cx="310.6196754174997" cy="299.5726841683327" r="12.350911689991339" fill="red" stroke-width="0"/><circle cx="371.37812728791806" cy="150.43830230457854" r="12.350911689991339" fill="red" stroke-width="0"/><line x1="34.44489418832529" y1="465.27755290583735" x2="194.62626730124643" y2="526.0360047762557" stroke="red" stroke-width="24.701823379982677"/><circle cx="34.44489418832529" cy="465.27755290583735" r="12.350911689991339" fill="red" stroke-width="0"/><circle cx="194.62626730124643" cy="526.0360047762557" r="12.350911689991339" fill="red" stroke-width="0"/><line x1="167.008789178329" y1="332.71365791583366" x2="310.6196754174997" y2="299.5726841683327" stroke="red" stroke-width="24.701823379982677"/><circle cx="167.008789178329" cy="332.71365791583366" r="12.350911689991339" fill="red" stroke-width="0"/><circle cx="310.6196754174997" cy="299.5726841683327" r="12.350911689991339" fill="red" stroke-width="0"/><line x1="487.3715354041713" y1="354.8076404141676" x2="553.6534828991732" y2="509.46551790250527" stroke="red" stroke-width="24.701823379982677"/><circle cx="487.3715354041713" cy="354.8076404141676" r="12.350911689991339" fill="red" stroke-width="0"/><circle cx="553.6534828991732" cy="509.46551790250527" r="12.350911689991339" fill="red" stroke-width="0"/><line x1="382.42511853708504" y1="509.46551790250527" x2="553.6534828991732" y2="509.46551790250527" stroke="red" stroke-width="24.701823379982677"/><circle cx="382.42511853708504" cy="509.46551790250527" r="12.350911689991339" fill="red" stroke-width="0"/><circle cx="553.6534828991732" cy="509.46551790250527" r="12.350911689991339" fill="red" stroke-width="0"/><line x1="12.350911689991339" y1="205.6732585504134" x2="39.96838981290878" y2="39.96838981290878" stroke="red" stroke-width="24.701823379982677"/><circle cx="12.350911689991339" cy="205.6732585504134" r="12.350911689991339" fill="red" stroke-width="0"/><circle cx="39.96838981290878" cy="39.96838981290878" r="12.350911689991339" fill="red" stroke-width="0"/><line x1="12.350911689991339" y1="205.6732585504134" x2="34.44489418832529" y2="465.27755290583735" stroke="red" stroke-width="24.701823379982677"/><circle cx="12.350911689991339" cy="205.6732585504134" r="12.350911689991339" fill="red" stroke-width="0"/><circle cx="34.44489418832529" cy="465.27755290583735" r="12.350911689991339" fill="red" stroke-width="0"/><line x1="178.055780427496" y1="39.96838981290878" x2="39.96838981290878" y2="39.96838981290878" stroke="red" stroke-width="24.701823379982677"/><circle cx="178.055780427496" cy="39.96838981290878" r="12.350911689991339" fill="red" stroke-width="0"/><circle cx="39.96838981290878" cy="39.96838981290878" r="12.350911689991339" fill="red" stroke-width="0"/><line x1="178.055780427496" y1="39.96838981290878" x2="111.77383293249413" y2="194.62626730124643" stroke="red" stroke-width="24.701823379982677"/><circle cx="178.055780427496" cy="39.96838981290878" r="12.350911689991339" fill="red" stroke-width="0"/><circle cx="111.77383293249413" cy="194.62626730124643" r="12.350911689991339" fill="red" stroke-width="0"/><line x1="111.77383293249413" y1="194.62626730124643" x2="167.008789178329" y2="332.71365791583366" stroke="red" stroke-width="24.701823379982677"/><circle cx="111.77383293249413" cy="194.62626730124643" r="12.350911689991339" fill="red" stroke-width="0"/><circle cx="167.008789178329" cy="332.71365791583366" r="12.350911689991339" fill="red" stroke-width="0"/><line x1="111.77383293249413" y1="194.62626730124643" x2="12.350911689991339" y2="205.6732585504134" stroke="red" stroke-width="24.701823379982677"/><circle cx="111.77383293249413" cy="194.62626730124643" r="12.350911689991339" fill="red" stroke-width="0"/><circle cx="12.350911689991339" cy="205.6732585504134" r="12.350911689991339" fill="red" stroke-width="0"/><line x1="487.3715354041713" y1="354.8076404141676" x2="382.42511853708504" y2="509.46551790250527" stroke="black" stroke-width="5.5234956245834885"/><circle cx="487.3715354041713" cy="354.8076404141676" r="2.7617478122917443" fill="black" stroke-width="0"/><circle cx="382.42511853708504" cy="509.46551790250527" r="2.7617478122917443" fill="black" stroke-width="0"/><line x1="382.42511853708504" y1="509.46551790250527" x2="194.62626730124643" y2="526.0360047762557" stroke="black" stroke-width="5.5234956245834885"/><circle cx="382.42511853708504" cy="509.46551790250527" r="2.7617478122917443" fill="black" stroke-width="0"/><circle cx="194.62626730124643" cy="526.0360047762557" r="2.7617478122917443" fill="black" stroke-width="0"/><line x1="382.42511853708504" y1="509.46551790250527" x2="310.6196754174997" y2="299.5726841683327" stroke="black" stroke-width="5.5234956245834885"/><circle cx="382.42511853708504" cy="509.46551790250527" r="2.7617478122917443" fill="black" stroke-width="0"/><circle cx="310.6196754174997" cy="299.5726841683327" r="2.7617478122917443" fill="black" stroke-width="0"/><line x1="310.6196754174997" y1="299.5726841683327" x2="194.62626730124643" y2="526.0360047762557" stroke="black" stroke-width="5.5234956245834885"/><circle cx="310.6196754174997" cy="299.5726841683327" r="2.7617478122917443" fill="black" stroke-width="0"/><circle cx="194.62626730124643" cy="526.0360047762557" r="2.7617478122917443" fill="black" stroke-width="0"/><line x1="310.6196754174997" y1="299.5726841683327" x2="487.3715354041713" y2="354.8076404141676" stroke="black" stroke-width="5.5234956245834885"/><circle cx="310.6196754174997" cy="299.5726841683327" r="2.7617478122917443" fill="black" stroke-width="0"/><circle cx="487.3715354041713" cy="354.8076404141676" r="2.7617478122917443" fill="black" stroke-width="0"/><line x1="487.3715354041713" y1="354.8076404141676" x2="371.37812728791806" y2="150.43830230457854" stroke="black" stroke-width="5.5234956245834885"/><circle cx="487.3715354041713" cy="354.8076404141676" r="2.7617478122917443" fill="black" stroke-width="0"/><circle cx="371.37812728791806" cy="150.43830230457854" r="2.7617478122917443" fill="black" stroke-width="0"/><line x1="371.37812728791806" y1="150.43830230457854" x2="178.055780427496" y2="39.96838981290878" stroke="black" stroke-width="5.5234956245834885"/><circle cx="371.37812728791806" cy="150.43830230457854" r="2.7617478122917443" fill="black" stroke-width="0"/><circle cx="178.055780427496" cy="39.96838981290878" r="2.7617478122917443" fill="black" stroke-width="0"/><line x1="194.62626730124643" y1="526.0360047762557" x2="167.008789178329" y2="332.71365791583366" stroke="black" stroke-width="5.5234956245834885"/><circle cx="194.62626730124643" cy="526.0360047762557" r="2.7617478122917443" fill="black" stroke-width="0"/><circle cx="167.008789178329" cy="332.71365791583366" r="2.7617478122917443" fill="black" stroke-width="0"/><line x1="371.37812728791806" y1="150.43830230457854" x2="553.6534828991732" y2="299.5726841683327" stroke="black" stroke-width="5.5234956245834885"/><circle cx="371.37812728791806" cy="150.43830230457854" r="2.7617478122917443" fill="black" stroke-width="0"/><circle cx="553.6534828991732" cy="299.5726841683327" r="2.7617478122917443" fill="black" stroke-width="0"/><line x1="310.6196754174997" y1="299.5726841683327" x2="178.055780427496" y2="39.96838981290878" stroke="black" stroke-width="5.5234956245834885"/><circle cx="310.6196754174997" cy="299.5726841683327" r="2.7617478122917443" fill="black" stroke-width="0"/><circle cx="178.055780427496" cy="39.96838981290878" r="2.7617478122917443" fill="black" stroke-width="0"/><line x1="167.008789178329" y1="332.71365791583366" x2="178.055780427496" y2="39.96838981290878" stroke="black" stroke-width="5.5234956245834885"/><circle cx="167.008789178329" cy="332.71365791583366" r="2.7617478122917443" fill="black" stroke-width="0"/><circle cx="178.055780427496" cy="39.96838981290878" r="2.7617478122917443" fill="black" stroke-width="0"/><line x1="553.6534828991732" y1="299.5726841683327" x2="503.9420222779218" y2="100.72684168332715" stroke="black" stroke-width="5.5234956245834885"/><circle cx="553.6534828991732" cy="299.5726841683327" r="2.7617478122917443" fill="black" stroke-width="0"/><circle cx="503.9420222779218" cy="100.72684168332715" r="2.7617478122917443" fill="black" stroke-width="0"/><line x1="503.9420222779218" y1="100.72684168332715" x2="371.37812728791806" y2="150.43830230457854" stroke="black" stroke-width="5.5234956245834885"/><circle cx="503.9420222779218" cy="100.72684168332715" r="2.7617478122917443" fill="black" stroke-width="0"/><circle cx="371.37812728791806" cy="150.43830230457854" r="2.7617478122917443" fill="black" stroke-width="0"/><line x1="487.3715354041713" y1="354.8076404141676" x2="553.6534828991732" y2="299.5726841683327" stroke="black" stroke-width="5.5234956245834885"/><circle cx="487.3715354041713" cy="354.8076404141676" r="2.7617478122917443" fill="black" stroke-width="0"/><circle cx="553.6534828991732" cy="299.5726841683327" r="2.7617478122917443" fill="black" stroke-width="0"/><line x1="167.008789178329" y1="332.71365791583366" x2="12.350911689991339" y2="205.6732585504134" stroke="black" stroke-width="5.5234956245834885"/><circle cx="167.008789178329" cy="332.71365791583366" r="2.7617478122917443" fill="black" stroke-width="0"/><circle cx="12.350911689991339" cy="205.6732585504134" r="2.7617478122917443" fill="black" stroke-width="0"/><line x1="178.055780427496" y1="39.96838981290878" x2="503.9420222779218" y2="100.72684168332715" stroke="black" stroke-width="5.5234956245834885"/><circle cx="178.055780427496" cy="39.96838981290878" r="2.7617478122917443" fill="black" stroke-width="0"/><circle cx="503.9420222779218" cy="100.72684168332715" r="2.7617478122917443" fill="black" stroke-width="0"/><line x1="12.350911689991339" y1="205.6732585504134" x2="178.055780427496" y2="39.96838981290878" stroke="black" stroke-width="5.5234956245834885"/><circle cx="12.350911689991339" cy="205.6732585504134" r="2.7617478122917443" fill="black" stroke-width="0"/><circle cx="178.055780427496" cy="39.96838981290878" r="2.7617478122917443" fill="black" stroke-width="0"/><line x1="553.6534828991732" y1="299.5726841683327" x2="553.6534828991732" y2="509.46551790250527" stroke="black" stroke-width="5.5234956245834885"/><circle cx="553.6534828991732" cy="299.5726841683327" r="2.7617478122917443" fill="black" stroke-width="0"/><circle cx="553.6534828991732" cy="509.46551790250527" r="2.7617478122917443" fill="black" stroke-width="0"/><line x1="167.008789178329" y1="332.71365791583366" x2="34.44489418832529" y2="465.27755290583735" stroke="black" stroke-width="5.5234956245834885"/><circle cx="167.008789178329" cy="332.71365791583366" r="2.7617478122917443" fill="black" stroke-width="0"/><circle cx="34.44489418832529" cy="465.27755290583735" r="2.7617478122917443" fill="black" stroke-width="0"/><line x1="310.6196754174997" y1="299.5726841683327" x2="371.37812728791806" y2="150.43830230457854" stroke="black" stroke-width="5.5234956245834885"/><circle cx="310.6196754174997" cy="299.5726841683327" r="2.7617478122917443" fill="black" stroke-width="0"/><circle cx="371.37812728791806" cy="150.43830230457854" r="2.7617478122917443" fill="black" stroke-width="0"/><line x1="34.44489418832529" y1="465.27755290583735" x2="194.62626730124643" y2="526.0360047762557" stroke="black" stroke-width="5.5234956245834885"/><circle cx="34.44489418832529" cy="465.27755290583735" r="2.7617478122917443" fill="black" stroke-width="0"/><circle cx="194.62626730124643" cy="526.0360047762557" r="2.7617478122917443" fill="black" stroke-width="0"/><line x1="167.008789178329" y1="332.71365791583366" x2="310.6196754174997" y2="299.5726841683327" stroke="black" stroke-width="5.5234956245834885"/><circle cx="167.008789178329" cy="332.71365791583366" r="2.7617478122917443" fill="black" stroke-width="0"/><circle cx="310.6196754174997" cy="299.5726841683327" r="2.7617478122917443" fill="black" stroke-width="0"/><line x1="487.3715354041713" y1="354.8076404141676" x2="553.6534828991732" y2="509.46551790250527" stroke="black" stroke-width="5.5234956245834885"/><circle cx="487.3715354041713" cy="354.8076404141676" r="2.7617478122917443" fill="black" stroke-width="0"/><circle cx="553.6534828991732" cy="509.46551790250527" r="2.7617478122917443" fill="black" stroke-width="0"/><line x1="382.42511853708504" y1="509.46551790250527" x2="553.6534828991732" y2="509.46551790250527" stroke="black" stroke-width="5.5234956245834885"/><circle cx="382.42511853708504" cy="509.46551790250527" r="2.7617478122917443" fill="black" stroke-width="0"/><circle cx="553.6534828991732" cy="509.46551790250527" r="2.7617478122917443" fill="black" stroke-width="0"/><line x1="12.350911689991339" y1="205.6732585504134" x2="39.96838981290878" y2="39.96838981290878" stroke="black" stroke-width="5.5234956245834885"/><circle cx="12.350911689991339" cy="205.6732585504134" r="2.7617478122917443" fill="black" stroke-width="0"/><circle cx="39.96838981290878" cy="39.96838981290878" r="2.7617478122917443" fill="black" stroke-width="0"/><line x1="12.350911689991339" y1="205.6732585504134" x2="34.44489418832529" y2="465.27755290583735" stroke="black" stroke-width="5.5234956245834885"/><circle cx="12.350911689991339" cy="205.6732585504134" r="2.7617478122917443" fill="black" stroke-width="0"/><circle cx="34.44489418832529" cy="465.27755290583735" r="2.7617478122917443" fill="black" stroke-width="0"/><line x1="178.055780427496" y1="39.96838981290878" x2="39.96838981290878" y2="39.96838981290878" stroke="black" stroke-width="5.5234956245834885"/><circle cx="178.055780427496" cy="39.96838981290878" r="2.7617478122917443" fill="black" stroke-width="0"/><circle cx="39.96838981290878" cy="39.96838981290878" r="2.7617478122917443" fill="black" stroke-width="0"/><line x1="178.055780427496" y1="39.96838981290878" x2="111.77383293249413" y2="194.62626730124643" stroke="black" stroke-width="5.5234956245834885"/><circle cx="178.055780427496" cy="39.96838981290878" r="2.7617478122917443" fill="black" stroke-width="0"/><circle cx="111.77383293249413" cy="194.62626730124643" r="2.7617478122917443" fill="black" stroke-width="0"/><line x1="111.77383293249413" y1="194.62626730124643" x2="167.008789178329" y2="332.71365791583366" stroke="black" stroke-width="5.5234956245834885"/><circle cx="111.77383293249413" cy="194.62626730124643" r="2.7617478122917443" fill="black" stroke-width="0"/><circle cx="167.008789178329" cy="332.71365791583366" r="2.7617478122917443" fill="black" stroke-width="0"/><line x1="111.77383293249413" y1="194.62626730124643" x2="12.350911689991339" y2="205.6732585504134" stroke="black" stroke-width="5.5234956245834885"/><circle cx="111.77383293249413" cy="194.62626730124643" r="2.7617478122917443" fill="black" stroke-width="0"/><circle cx="12.350911689991339" cy="205.6732585504134" r="2.7617478122917443" fill="black" stroke-width="0"/><polygon points="509.46551790250527,17.874407314574828 531.5595004008393,34.44489418832529 531.5595004008393,56.53887668665925 498.4185266533383,28.921398563741803 448.7070660320869,56.53887668665925 443.18357040750345,34.44489418832529 509.46551790250527,12.350911689991339 509.46551790250527,17.874407314574828 " fill="blue" stroke-width="0"/><polygon points="95.20334605874366,316.14317104208317 89.67985043416017,354.8076404141676 51.01538106207576,349.2841447895841 95.20334605874366,316.14317104208317 " fill="blue" stroke-width="0"/><polygon points="73.10936356040972,548.1299872745897 39.96838981290878,520.5125091516722 34.44489418832529,553.6534828991732 34.44489418832529,559.1769785237567 34.44489418832529,514.9890135270888 51.01538106207576,520.5125091516722 78.63285918499321,514.9890135270888 100.72684168332715,520.5125091516722 117.29732855707762,559.1769785237567 89.67985043416017,531.5595004008393 73.10936356040972,548.1299872745897 " fill="blue" stroke-width="0"/><polygon points="299.5726841683327,432.1365791583365 321.6666666666667,432.1365791583365 332.71365791583366,443.18357040750345 321.6666666666667,470.80104853042087 310.6196754174997,465.27755290583735 299.5726841683327,437.66007478291993 299.5726841683327,432.1365791583365 " fill="blue" stroke-width="0"/><polygon points="332.71365791583366,23.397902939158318 371.37812728791806,23.397902939158318 404.519101035419,12.350911689991339 421.0895879091695,39.96838981290878 321.6666666666667,17.874407314574828 332.71365791583366,23.397902939158318 " fill="blue" stroke-width="0"/><polygon points="294.0491885437492,443.18357040750345 294.0491885437492,465.27755290583735 260.90821479624833,476.32454415500433 283.00219729458223,448.7070660320869 294.0491885437492,443.18357040750345 " fill="blue" stroke-width="0"/><polygon points="200.14976292582992,244.33772792249783 200.14976292582992,238.81423229791434 216.7202497995804,205.6732585504134 233.29073667333085,216.7202497995804 200.14976292582992,244.33772792249783 " fill="blue" stroke-width="0"/><polygon points="404.519101035419,376.9016229125016 426.61308353375296,365.8546316633346 393.472109786252,387.94861416166856 382.42511853708504,382.42511853708504 382.42511853708504,360.3311360387511 404.519101035419,376.9016229125016 " fill="blue" stroke-width="0"/><polygon points="238.81423229791434,249.86122354708132 255.3847191716648,255.3847191716648 260.90821479624833,283.00219729458223 244.33772792249783,277.47870166999877 238.81423229791434,283.00219729458223 216.7202497995804,283.00219729458223 233.29073667333085,266.4317104208318 233.29073667333085,260.90821479624833 233.29073667333085,244.33772792249783 238.81423229791434,249.86122354708132 " fill="blue" stroke-width="0"/><polygon points="62.06237231124273,100.72684168332715 62.06237231124273,95.20334605874366 95.20334605874366,67.58586793582623 89.67985043416017,73.10936356040972 62.06237231124273,100.72684168332715 " fill="blue" stroke-width="0"/><polygon points="559.1769785237567,520.5125091516722 614.4119347695915,542.6064916500062 630.982421643342,548.1299872745897 614.4119347695915,575.7474653975072 514.9890135270888,597.8414478958412 531.5595004008393,575.7474653975072 " fill="blue" stroke-width="0"/></svg>