<svg xmlns="http://www.w3.org/2000/svg" width="534.1015126082406" height="622.5" style="background: white;"><line x1="496.8868235226947" y1="390.80863865258345" x2="479.20712604434283" y2="302.410151260824" stroke="red" stroke-width="74.42937817109173"/><circle cx="496.8868235226947" cy="390.80863865258345" r="37.214689085545864" fill="red" stroke-width="0"/><circle cx="479.20712604434283" cy="302.410151260824" r="37.214689085545864" fill="red" stroke-width="0"/><line x1="496.8868235226947" y1="585.2853109144542" x2="496.8868235226947" y2="390.80863865258345" stroke="red" stroke-width="74.42937817109173"/><circle cx="496.8868235226947" cy="585.2853109144542" r="37.214689085545864" fill="red" stroke-width="0"/><circle cx="496.8868235226947" cy="390.80863865258345" r="37.214689085545864" fill="red" stroke-width="0"/><line x1="37.214689085545864" y1="585.2853109144542" x2="496.8868235226947" y2="585.2853109144542" stroke="red" stroke-width="74.42937817109173"/><circle cx="37.214689085545864" cy="585.2853109144542" r="37.214689085545864" fill="red" stroke-width="0"/><circle cx="496.8868235226947" cy="585.2853109144542" r="37.214689085545864" fill="red" stroke-width="0"/><line x1="37.214689085545864" y1="390.80863865258345" x2="37.214689085545864" y2="585.2853109144542" stroke="red" stroke-width="74.42937817109173"/><circle cx="37.214689085545864" cy="390.80863865258345" r="37.214689085545864" fill="red" stroke-width="0"/><circle cx="37.214689085545864" cy="585.2853109144542" r="37.214689085545864" fill="red" stroke-width="0"/><line x1="90.2537815206015" y1="355.4492436958797" x2="37.214689085545864" y2="390.80863865258345" stroke="red" stroke-width="74.42937817109173"/><circle cx="90.2537815206015" cy="355.4492436958797" r="37.214689085545864" fill="red" stroke-width="0"/><circle cx="37.214689085545864" cy="390.80863865258345" r="37.214689085545864" fill="red" stroke-width="0"/><line x1="178.65226891236088" y1="408.48833613093535" x2="90.2537815206015" y2="355.4492436958797" stroke="red" stroke-width="74.42937817109173"/><circle cx="178.65226891236088" cy="408.48833613093535" r="37.214689085545864" fill="red" stroke-width="0"/><circle cx="90.2537815206015" cy="355.4492436958797" r="37.214689085545864" fill="red" stroke-width="0"/><line x1="479.20712604434283" y1="302.410151260824" x2="178.65226891236088" y2="408.48833613093535" stroke="red" stroke-width="74.42937817109173"/><circle cx="479.20712604434283" cy="302.410151260824" r="37.214689085545864" fill="red" stroke-width="0"/><circle cx="178.65226891236088" cy="408.48833613093535" r="37.214689085545864" fill="red" stroke-width="0"/><line x1="337.7695462175278" y1="37.214689085545864" x2="479.20712604434283" y2="302.410151260824" stroke="red" stroke-width="74.42937817109173"/><circle cx="337.7695462175278" cy="37.214689085545864" r="37.214689085545864" fill="red" stroke-width="0"/><circle cx="479.20712604434283" cy="302.410151260824" r="37.214689085545864" fill="red" stroke-width="0"/><line x1="90.2537815206015" y1="355.4492436958797" x2="337.7695462175278" y2="37.214689085545864" stroke="red" stroke-width="74.42937817109173"/><circle cx="90.2537815206015" cy="355.4492436958797" r="37.214689085545864" fill="red" stroke-width="0"/><circle cx="337.7695462175278" cy="37.214689085545864" r="37.214689085545864" fill="red" stroke-width="0"/><line x1="496.8868235226947" y1="390.80863865258345" x2="479.20712604434283" y2="302.410151260824" stroke="black" stroke-width="8.83984873917594"/><circle cx="496.8868235226947" cy="390.80863865258345" r="4.41992436958797" fill="black" stroke-width="0"/><circle cx="479.20712604434283" cy="302.410151260824" r="4.41992436958797" fill="black" stroke-width="0"/><line x1="496.8868235226947" y1="585.2853109144542" x2="496.8868235226947" y2="390.80863865258345" stroke="black" stroke-width="8.83984873917594"/><circle cx="496.8868235226947" cy="585.2853109144542" r="4.41992436958797" fill="black" stroke-width="0"/><circle cx="496.8868235226947" cy="390.80863865258345" r="4.41992436958797" fill="black" stroke-width="0"/><line x1="37.214689085545864" y1="585.2853109144542" x2="496.8868235226947" y2="585.2853109144542" stroke="black" stroke-width="8.83984873917594"/><circle cx="37.214689085545864" cy="585.2853109144542" r="4.41992436958797" fill="black" stroke-width="0"/><circle cx="496.8868235226947" cy="585.2853109144542" r="4.41992436958797" fill="black" stroke-width="0"/><line x1="37.214689085545864" y1="390.80863865258345" x2="37.214689085545864" y2="585.2853109144542" stroke="black" stroke-width="8.83984873917594"/><circle cx="37.214689085545864" cy="390.80863865258345" r="4.41992436958797" fill="black" stroke-width="0"/><circle cx="37.214689085545864" cy="585.2853109144542" r="4.41992436958797" fill="black" stroke-width="0"/><line x1="90.2537815206015" y1="355.4492436958797" x2="37.214689085545864" y2="390.80863865258345" stroke="black" stroke-width="8.83984873917594"/><circle cx="90.2537815206015" cy="355.4492436958797" r="4.41992436958797" fill="black" stroke-width="0"/><circle cx="37.214689085545864" cy="390.80863865258345" r="4.41992436958797" fill="black" stroke-width="0"/><line x1="178.65226891236088" y1="408.48833613093535" x2="90.2537815206015" y2="355.4492436958797" stroke="black" stroke-width="8.83984873917594"/><circle cx="178.65226891236088" cy="408.48833613093535" r="4.41992436958797" fill="black" stroke-width="0"/><circle cx="90.2537815206015" cy="355.4492436958797" r="4.41992436958797" fill="black" stroke-width="0"/><line x1="479.20712604434283" y1="302.410151260824" x2="178.65226891236088" y2="408.48833613093535" stroke="black" stroke-width="8.83984873917594"/><circle cx="479.20712604434283" cy="302.410151260824" r="4.41992436958797" fill="black" stroke-width="0"/><circle cx="178.65226891236088" cy="408.48833613093535" r="4.41992436958797" fill="black" stroke-width="0"/><line x1="337.7695462175278" y1="37.214689085545864" x2="479.20712604434283" y2="302.410151260824" stroke="black" stroke-width="8.83984873917594"/><circle cx="337.7695462175278" cy="37.214689085545864" r="4.41992436958797" fill="black" stroke-width="0"/><circle cx="479.20712604434283" cy="302.410151260824" r="4.41992436958797" fill="black" stroke-width="0"/><line x1="90.2537815206015" y1="355.4492436958797" x2="337.7695462175278" y2="37.214689085545864" stroke="black" stroke-width="8.83984873917594"/><circle cx="90.2537815206015" cy="355.4492436958797" r="4.41992436958797" fill="black" stroke-width="0"/><circle cx="337.7695462175278" cy="37.214689085545864" r="4.41992436958797" fill="black" stroke-width="0"/><polygon points="284.7304537824722,214.01166386906465 328.92969747835184,160.972571434009 373.12894117423156,205.1718151298887 337.7695462175278,222.8515126082406 346.60939495670374,267.0507563041203 337.7695462175278,302.410151260824 249.37105882576842,320.0898487391759 240.53121008659247,222.8515126082406 " fill="blue" stroke-width="0"/><polygon points="355.4492436958797,426.1680336092872 399.6484873917594,373.12894117423156 443.8477310876391,417.3281848701113 408.48833613093535,514.5665210010466 178.65226891236088,523.4063697402225 222.8515126082406,443.8477310876391 " fill="blue" stroke-width="0"/></svg>