<svg xmlns="http://www.w3.org/2000/svg" width="545.1736111111112" height="492.65625" style="background: white;"><line x1="272.5868055555556" y1="41.51041666666667" x2="146.5451388888889" y2="104.53125" stroke="rgb(0 159 227)" stroke-width="5"/><line x1="272.5868055555556" y1="41.51041666666667" x2="398.6284722222223" y2="104.53125" stroke="rgb(0 159 227)" stroke-width="5"/><line x1="146.5451388888889" y1="104.53125" x2="41.51041666666667" y2="167.55208333333334" stroke="rgb(0 159 227)" stroke-width="5"/><line x1="146.5451388888889" y1="104.53125" x2="83.52430555555556" y2="167.55208333333334" stroke="rgb(0 159 227)" stroke-width="5"/><line x1="146.5451388888889" y1="104.53125" x2="125.53819444444446" y2="167.55208333333334" stroke="rgb(0 159 227)" stroke-width="5"/><line x1="146.5451388888889" y1="104.53125" x2="167.55208333333334" y2="167.55208333333334" stroke="rgb(0 159 227)" stroke-width="5"/><line x1="146.5451388888889" y1="104.53125" x2="209.56597222222223" y2="167.55208333333334" stroke="rgb(0 159 227)" stroke-width="5"/><line x1="146.5451388888889" y1="104.53125" x2="251.57986111111114" y2="167.55208333333334" stroke="rgb(0 159 227)" stroke-width="5"/><line x1="398.6284722222223" y1="104.53125" x2="314.60069444444446" y2="167.55208333333334" stroke="rgb(0 159 227)" stroke-width="5"/><line x1="398.6284722222223" y1="104.53125" x2="398.6284722222223" y2="167.55208333333334" stroke="rgb(0 159 227)" stroke-width="5"/><line x1="398.6284722222223" y1="104.53125" x2="482.65625000000006" y2="167.55208333333334" stroke="rgb(0 159 227)" stroke-width="5"/><line x1="314.60069444444446" y1="167.55208333333334" x2="293.59375" y2="230.57291666666669" stroke="rgb(0 159 227)" stroke-width="5"/><line x1="314.60069444444446" y1="167.55208333333334" x2="335.6076388888889" y2="230.57291666666669" stroke="rgb(0 159 227)" stroke-width="5"/><line x1="398.6284722222223" y1="167.55208333333334" x2="377.6215277777778" y2="230.57291666666669" stroke="rgb(0 159 227)" stroke-width="5"/><line x1="398.6284722222223" y1="167.55208333333334" x2="419.6354166666667" y2="230.57291666666669" stroke="rgb(0 159 227)" stroke-width="5"/><line x1="482.65625000000006" y1="167.55208333333334" x2="461.6493055555556" y2="230.57291666666669" stroke="rgb(0 159 227)" stroke-width="5"/><line x1="482.65625000000006" y1="167.55208333333334" x2="503.6631944444445" y2="230.57291666666669" stroke="rgb(0 159 227)" stroke-width="5"/><line x1="272.5868055555556" y1="41.51041666666667" x2="146.5451388888889" y2="104.53125" stroke="black"/><line x1="272.5868055555556" y1="41.51041666666667" x2="398.6284722222223" y2="104.53125" stroke="black"/><line x1="146.5451388888889" y1="104.53125" x2="41.51041666666667" y2="167.55208333333334" stroke="black"/><line x1="146.5451388888889" y1="104.53125" x2="83.52430555555556" y2="167.55208333333334" stroke="black"/><line x1="146.5451388888889" y1="104.53125" x2="125.53819444444446" y2="167.55208333333334" stroke="black"/><line x1="146.5451388888889" y1="104.53125" x2="167.55208333333334" y2="167.55208333333334" stroke="black"/><line x1="146.5451388888889" y1="104.53125" x2="209.56597222222223" y2="167.55208333333334" stroke="black"/><line x1="146.5451388888889" y1="104.53125" x2="251.57986111111114" y2="167.55208333333334" stroke="black"/><line x1="398.6284722222223" y1="104.53125" x2="314.60069444444446" y2="167.55208333333334" stroke="black"/><line x1="398.6284722222223" y1="104.53125" x2="398.6284722222223" y2="167.55208333333334" stroke="black"/><line x1="398.6284722222223" y1="104.53125" x2="482.65625000000006" y2="167.55208333333334" stroke="black"/><line x1="314.60069444444446" y1="167.55208333333334" x2="293.59375" y2="230.57291666666669" stroke="black"/><line x1="314.60069444444446" y1="167.55208333333334" x2="335.6076388888889" y2="230.57291666666669" stroke="black"/><line x1="398.6284722222223" y1="167.55208333333334" x2="377.6215277777778" y2="230.57291666666669" stroke="black"/><line x1="398.6284722222223" y1="167.55208333333334" x2="419.6354166666667" y2="230.57291666666669" stroke="black"/><line x1="482.65625000000006" y1="167.55208333333334" x2="461.6493055555556" y2="230.57291666666669" stroke="black"/><line x1="482.65625000000006" y1="167.55208333333334" x2="503.6631944444445" y2="230.57291666666669" stroke="black"/><circle cx="272.5868055555556" cy="41.51041666666667" r="10" fill="rgb(229 0 125)" stroke="black" stroke-width="2"/><circle cx="146.5451388888889" cy="104.53125" r="10" fill="rgb(229 0 125)" stroke="black" stroke-width="2"/><circle cx="41.51041666666667" cy="167.55208333333334" r="10" fill="rgb(229 0 125)" stroke="black" stroke-width="2"/><circle cx="83.52430555555556" cy="167.55208333333334" r="10" fill="rgb(229 0 125)" stroke="black" stroke-width="2"/><circle cx="125.53819444444446" cy="167.55208333333334" r="10" fill="rgb(229 0 125)" stroke="black" stroke-width="2"/><circle cx="167.55208333333334" cy="167.55208333333334" r="10" fill="rgb(229 0 125)" stroke="black" stroke-width="2"/><circle cx="209.56597222222223" cy="167.55208333333334" r="10" fill="rgb(229 0 125)" stroke="black" stroke-width="2"/><circle cx="251.57986111111114" cy="167.55208333333334" r="10" fill="rgb(229 0 125)" stroke="black" stroke-width="2"/><circle cx="398.6284722222223" cy="104.53125" r="10" fill="rgb(229 0 125)" stroke="black" stroke-width="2"/><circle cx="314.60069444444446" cy="167.55208333333334" r="10" fill="rgb(229 0 125)" stroke="black" stroke-width="2"/><circle cx="293.59375" cy="230.57291666666669" r="10" fill="rgb(229 0 125)" stroke="black" stroke-width="2"/><circle cx="335.6076388888889" cy="230.57291666666669" r="10" fill="rgb(229 0 125)" stroke="black" stroke-width="2"/><circle cx="398.6284722222223" cy="167.55208333333334" r="10" fill="rgb(229 0 125)" stroke="black" stroke-width="2"/><circle cx="377.6215277777778" cy="230.57291666666669" r="10" fill="rgb(229 0 125)" stroke="black" stroke-width="2"/><circle cx="419.6354166666667" cy="230.57291666666669" r="10" fill="rgb(229 0 125)" stroke="black" stroke-width="2"/><circle cx="482.65625000000006" cy="167.55208333333334" r="10" fill="rgb(229 0 125)" stroke="black" stroke-width="2"/><circle cx="461.6493055555556" cy="230.57291666666669" r="10" fill="rgb(229 0 125)" stroke="black" stroke-width="2"/><circle cx="503.6631944444445" cy="230.57291666666669" r="10" fill="rgb(229 0 125)" stroke="black" stroke-width="2"/><line x1="272.5868055555556" y1="451.1458333333333" x2="398.6284722222223" y2="388.125" stroke="rgb(0 159 227)" stroke-width="5"/><line x1="272.5868055555556" y1="451.1458333333333" x2="146.5451388888889" y2="388.125" stroke="rgb(0 159 227)" stroke-width="5"/><line x1="398.6284722222223" y1="388.125" x2="503.6631944444445" y2="325.10416666666663" stroke="rgb(0 159 227)" stroke-width="5"/><line x1="398.6284722222223" y1="388.125" x2="461.64930555555566" y2="325.10416666666663" stroke="rgb(0 159 227)" stroke-width="5"/><line x1="398.6284722222223" y1="388.125" x2="419.63541666666674" y2="325.10416666666663" stroke="rgb(0 159 227)" stroke-width="5"/><line x1="398.6284722222223" y1="388.125" x2="377.6215277777778" y2="325.10416666666663" stroke="rgb(0 159 227)" stroke-width="5"/><line x1="398.6284722222223" y1="388.125" x2="335.60763888888897" y2="325.10416666666663" stroke="rgb(0 159 227)" stroke-width="5"/><line x1="398.6284722222223" y1="388.125" x2="293.59375000000006" y2="325.10416666666663" stroke="rgb(0 159 227)" stroke-width="5"/><line x1="146.5451388888889" y1="388.125" x2="230.57291666666674" y2="325.10416666666663" stroke="rgb(0 159 227)" stroke-width="5"/><line x1="146.5451388888889" y1="388.125" x2="146.5451388888889" y2="325.10416666666663" stroke="rgb(0 159 227)" stroke-width="5"/><line x1="146.5451388888889" y1="388.125" x2="62.51736111111114" y2="325.10416666666663" stroke="rgb(0 159 227)" stroke-width="5"/><line x1="230.57291666666674" y1="325.10416666666663" x2="251.5798611111112" y2="262.0833333333333" stroke="rgb(0 159 227)" stroke-width="5"/><line x1="230.57291666666674" y1="325.10416666666663" x2="209.56597222222229" y2="262.0833333333333" stroke="rgb(0 159 227)" stroke-width="5"/><line x1="146.5451388888889" y1="325.10416666666663" x2="167.55208333333337" y2="262.0833333333333" stroke="rgb(0 159 227)" stroke-width="5"/><line x1="146.5451388888889" y1="325.10416666666663" x2="125.53819444444451" y2="262.0833333333333" stroke="rgb(0 159 227)" stroke-width="5"/><line x1="62.51736111111114" y1="325.10416666666663" x2="83.5243055555556" y2="262.0833333333333" stroke="rgb(0 159 227)" stroke-width="5"/><line x1="62.51736111111114" y1="325.10416666666663" x2="41.510416666666686" y2="262.0833333333333" stroke="rgb(0 159 227)" stroke-width="5"/><line x1="272.5868055555556" y1="451.1458333333333" x2="398.6284722222223" y2="388.125" stroke="black"/><line x1="272.5868055555556" y1="451.1458333333333" x2="146.5451388888889" y2="388.125" stroke="black"/><line x1="398.6284722222223" y1="388.125" x2="503.6631944444445" y2="325.10416666666663" stroke="black"/><line x1="398.6284722222223" y1="388.125" x2="461.64930555555566" y2="325.10416666666663" stroke="black"/><line x1="398.6284722222223" y1="388.125" x2="419.63541666666674" y2="325.10416666666663" stroke="black"/><line x1="398.6284722222223" y1="388.125" x2="377.6215277777778" y2="325.10416666666663" stroke="black"/><line x1="398.6284722222223" y1="388.125" x2="335.60763888888897" y2="325.10416666666663" stroke="black"/><line x1="398.6284722222223" y1="388.125" x2="293.59375000000006" y2="325.10416666666663" stroke="black"/><line x1="146.5451388888889" y1="388.125" x2="230.57291666666674" y2="325.10416666666663" stroke="black"/><line x1="146.5451388888889" y1="388.125" x2="146.5451388888889" y2="325.10416666666663" stroke="black"/><line x1="146.5451388888889" y1="388.125" x2="62.51736111111114" y2="325.10416666666663" stroke="black"/><line x1="230.57291666666674" y1="325.10416666666663" x2="251.5798611111112" y2="262.0833333333333" stroke="black"/><line x1="230.57291666666674" y1="325.10416666666663" x2="209.56597222222229" y2="262.0833333333333" stroke="black"/><line x1="146.5451388888889" y1="325.10416666666663" x2="167.55208333333337" y2="262.0833333333333" stroke="black"/><line x1="146.5451388888889" y1="325.10416666666663" x2="125.53819444444451" y2="262.0833333333333" stroke="black"/><line x1="62.51736111111114" y1="325.10416666666663" x2="83.5243055555556" y2="262.0833333333333" stroke="black"/><line x1="62.51736111111114" y1="325.10416666666663" x2="41.510416666666686" y2="262.0833333333333" stroke="black"/><circle cx="272.5868055555556" cy="451.1458333333333" r="10" fill="rgb(229 0 125)" stroke="black" stroke-width="2"/><circle cx="398.6284722222223" cy="388.125" r="10" fill="rgb(229 0 125)" stroke="black" stroke-width="2"/><circle cx="503.6631944444445" cy="325.10416666666663" r="10" fill="rgb(229 0 125)" stroke="black" stroke-width="2"/><circle cx="461.64930555555566" cy="325.10416666666663" r="10" fill="rgb(229 0 125)" stroke="black" stroke-width="2"/><circle cx="419.63541666666674" cy="325.10416666666663" r="10" fill="rgb(229 0 125)" stroke="black" stroke-width="2"/><circle cx="377.6215277777778" cy="325.10416666666663" r="10" fill="rgb(229 0 125)" stroke="black" stroke-width="2"/><circle cx="335.60763888888897" cy="325.10416666666663" r="10" fill="rgb(229 0 125)" stroke="black" stroke-width="2"/><circle cx="293.59375000000006" cy="325.10416666666663" r="10" fill="rgb(229 0 125)" stroke="black" stroke-width="2"/><circle cx="146.5451388888889" cy="388.125" r="10" fill="rgb(229 0 125)" stroke="black" stroke-width="2"/><circle cx="230.57291666666674" cy="325.10416666666663" r="10" fill="rgb(229 0 125)" stroke="black" stroke-width="2"/><circle cx="251.5798611111112" cy="262.0833333333333" r="10" fill="rgb(229 0 125)" stroke="black" stroke-width="2"/><circle cx="209.56597222222229" cy="262.0833333333333" r="10" fill="rgb(229 0 125)" stroke="black" stroke-width="2"/><circle cx="146.5451388888889" cy="325.10416666666663" r="10" fill="rgb(229 0 125)" stroke="black" stroke-width="2"/><circle cx="167.55208333333337" cy="262.0833333333333" r="10" fill="rgb(229 0 125)" stroke="black" stroke-width="2"/><circle cx="125.53819444444451" cy="262.0833333333333" r="10" fill="rgb(229 0 125)" stroke="black" stroke-width="2"/><circle cx="62.51736111111114" cy="325.10416666666663" r="10" fill="rgb(229 0 125)" stroke="black" stroke-width="2"/><circle cx="83.5243055555556" cy="262.0833333333333" r="10" fill="rgb(229 0 125)" stroke="black" stroke-width="2"/><circle cx="41.510416666666686" cy="262.0833333333333" r="10" fill="rgb(229 0 125)" stroke="black" stroke-width="2"/></svg>