<svg xmlns="http://www.w3.org/2000/svg" width="531.1689814814815" height="492.65625" style="background: white;"><line x1="265.58449074074076" y1="41.51041666666667" x2="97.52893518518519" y2="104.53125" stroke="rgb(0 159 227)" stroke-width="5"/><line x1="265.58449074074076" y1="41.51041666666667" x2="265.58449074074076" y2="104.53125" stroke="rgb(0 159 227)" stroke-width="5"/><line x1="265.58449074074076" y1="41.51041666666667" x2="433.6400462962963" y2="104.53125" stroke="rgb(0 159 227)" stroke-width="5"/><line x1="97.52893518518519" y1="104.53125" x2="41.51041666666667" y2="167.55208333333334" stroke="rgb(0 159 227)" stroke-width="5"/><line x1="97.52893518518519" y1="104.53125" x2="97.52893518518519" y2="167.55208333333334" stroke="rgb(0 159 227)" stroke-width="5"/><line x1="97.52893518518519" y1="104.53125" x2="153.5474537037037" y2="167.55208333333334" stroke="rgb(0 159 227)" stroke-width="5"/><line x1="41.51041666666667" y1="167.55208333333334" x2="27.505787037037038" y2="230.57291666666669" stroke="rgb(0 159 227)" stroke-width="5"/><line x1="41.51041666666667" y1="167.55208333333334" x2="55.5150462962963" y2="230.57291666666669" stroke="rgb(0 159 227)" stroke-width="5"/><line x1="97.52893518518519" y1="167.55208333333334" x2="83.52430555555556" y2="230.57291666666669" stroke="rgb(0 159 227)" stroke-width="5"/><line x1="97.52893518518519" y1="167.55208333333334" x2="111.53356481481481" y2="230.57291666666669" stroke="rgb(0 159 227)" stroke-width="5"/><line x1="153.5474537037037" y1="167.55208333333334" x2="139.54282407407408" y2="230.57291666666669" stroke="rgb(0 159 227)" stroke-width="5"/><line x1="153.5474537037037" y1="167.55208333333334" x2="167.55208333333334" y2="230.57291666666669" stroke="rgb(0 159 227)" stroke-width="5"/><line x1="265.58449074074076" y1="104.53125" x2="209.56597222222223" y2="167.55208333333334" stroke="rgb(0 159 227)" stroke-width="5"/><line x1="265.58449074074076" y1="104.53125" x2="265.58449074074076" y2="167.55208333333334" stroke="rgb(0 159 227)" stroke-width="5"/><line x1="265.58449074074076" y1="104.53125" x2="321.60300925925924" y2="167.55208333333334" stroke="rgb(0 159 227)" stroke-width="5"/><line x1="209.56597222222223" y1="167.55208333333334" x2="190.8931327160494" y2="230.57291666666669" stroke="rgb(0 159 227)" stroke-width="5"/><line x1="209.56597222222223" y1="167.55208333333334" x2="209.56597222222223" y2="230.57291666666669" stroke="rgb(0 159 227)" stroke-width="5"/><line x1="209.56597222222223" y1="167.55208333333334" x2="228.23881172839504" y2="230.57291666666669" stroke="rgb(0 159 227)" stroke-width="5"/><line x1="265.58449074074076" y1="167.55208333333334" x2="251.57986111111111" y2="230.57291666666669" stroke="rgb(0 159 227)" stroke-width="5"/><line x1="265.58449074074076" y1="167.55208333333334" x2="279.5891203703704" y2="230.57291666666669" stroke="rgb(0 159 227)" stroke-width="5"/><line x1="321.60300925925924" y1="167.55208333333334" x2="307.5983796296296" y2="230.57291666666669" stroke="rgb(0 159 227)" stroke-width="5"/><line x1="321.60300925925924" y1="167.55208333333334" x2="335.6076388888889" y2="230.57291666666669" stroke="rgb(0 159 227)" stroke-width="5"/><line x1="433.6400462962963" y1="104.53125" x2="391.6261574074074" y2="167.55208333333334" stroke="rgb(0 159 227)" stroke-width="5"/><line x1="433.6400462962963" y1="104.53125" x2="475.65393518518516" y2="167.55208333333334" stroke="rgb(0 159 227)" stroke-width="5"/><line x1="391.6261574074074" y1="167.55208333333334" x2="363.61689814814815" y2="230.57291666666669" stroke="rgb(0 159 227)" stroke-width="5"/><line x1="391.6261574074074" y1="167.55208333333334" x2="391.6261574074074" y2="230.57291666666669" stroke="rgb(0 159 227)" stroke-width="5"/><line x1="391.6261574074074" y1="167.55208333333334" x2="419.6354166666667" y2="230.57291666666669" stroke="rgb(0 159 227)" stroke-width="5"/><line x1="475.65393518518516" y1="167.55208333333334" x2="447.6446759259259" y2="230.57291666666669" stroke="rgb(0 159 227)" stroke-width="5"/><line x1="475.65393518518516" y1="167.55208333333334" x2="475.65393518518516" y2="230.57291666666669" stroke="rgb(0 159 227)" stroke-width="5"/><line x1="475.65393518518516" y1="167.55208333333334" x2="503.66319444444446" y2="230.57291666666669" stroke="rgb(0 159 227)" stroke-width="5"/><line x1="265.58449074074076" y1="41.51041666666667" x2="97.52893518518519" y2="104.53125" stroke="black"/><line x1="265.58449074074076" y1="41.51041666666667" x2="265.58449074074076" y2="104.53125" stroke="black"/><line x1="265.58449074074076" y1="41.51041666666667" x2="433.6400462962963" y2="104.53125" stroke="black"/><line x1="97.52893518518519" y1="104.53125" x2="41.51041666666667" y2="167.55208333333334" stroke="black"/><line x1="97.52893518518519" y1="104.53125" x2="97.52893518518519" y2="167.55208333333334" stroke="black"/><line x1="97.52893518518519" y1="104.53125" x2="153.5474537037037" y2="167.55208333333334" stroke="black"/><line x1="41.51041666666667" y1="167.55208333333334" x2="27.505787037037038" y2="230.57291666666669" stroke="black"/><line x1="41.51041666666667" y1="167.55208333333334" x2="55.5150462962963" y2="230.57291666666669" stroke="black"/><line x1="97.52893518518519" y1="167.55208333333334" x2="83.52430555555556" y2="230.57291666666669" stroke="black"/><line x1="97.52893518518519" y1="167.55208333333334" x2="111.53356481481481" y2="230.57291666666669" stroke="black"/><line x1="153.5474537037037" y1="167.55208333333334" x2="139.54282407407408" y2="230.57291666666669" stroke="black"/><line x1="153.5474537037037" y1="167.55208333333334" x2="167.55208333333334" y2="230.57291666666669" stroke="black"/><line x1="265.58449074074076" y1="104.53125" x2="209.56597222222223" y2="167.55208333333334" stroke="black"/><line x1="265.58449074074076" y1="104.53125" x2="265.58449074074076" y2="167.55208333333334" stroke="black"/><line x1="265.58449074074076" y1="104.53125" x2="321.60300925925924" y2="167.55208333333334" stroke="black"/><line x1="209.56597222222223" y1="167.55208333333334" x2="190.8931327160494" y2="230.57291666666669" stroke="black"/><line x1="209.56597222222223" y1="167.55208333333334" x2="209.56597222222223" y2="230.57291666666669" stroke="black"/><line x1="209.56597222222223" y1="167.55208333333334" x2="228.23881172839504" y2="230.57291666666669" stroke="black"/><line x1="265.58449074074076" y1="167.55208333333334" x2="251.57986111111111" y2="230.57291666666669" stroke="black"/><line x1="265.58449074074076" y1="167.55208333333334" x2="279.5891203703704" y2="230.57291666666669" stroke="black"/><line x1="321.60300925925924" y1="167.55208333333334" x2="307.5983796296296" y2="230.57291666666669" stroke="black"/><line x1="321.60300925925924" y1="167.55208333333334" x2="335.6076388888889" y2="230.57291666666669" stroke="black"/><line x1="433.6400462962963" y1="104.53125" x2="391.6261574074074" y2="167.55208333333334" stroke="black"/><line x1="433.6400462962963" y1="104.53125" x2="475.65393518518516" y2="167.55208333333334" stroke="black"/><line x1="391.6261574074074" y1="167.55208333333334" x2="363.61689814814815" y2="230.57291666666669" stroke="black"/><line x1="391.6261574074074" y1="167.55208333333334" x2="391.6261574074074" y2="230.57291666666669" stroke="black"/><line x1="391.6261574074074" y1="167.55208333333334" x2="419.6354166666667" y2="230.57291666666669" stroke="black"/><line x1="475.65393518518516" y1="167.55208333333334" x2="447.6446759259259" y2="230.57291666666669" stroke="black"/><line x1="475.65393518518516" y1="167.55208333333334" x2="475.65393518518516" y2="230.57291666666669" stroke="black"/><line x1="475.65393518518516" y1="167.55208333333334" x2="503.66319444444446" y2="230.57291666666669" stroke="black"/><circle cx="265.58449074074076" cy="41.51041666666667" r="10" fill="rgb(229 0 125)" stroke="black" stroke-width="2"/><circle cx="97.52893518518519" cy="104.53125" r="10" fill="rgb(229 0 125)" stroke="black" stroke-width="2"/><circle cx="41.51041666666667" cy="167.55208333333334" r="10" fill="rgb(229 0 125)" stroke="black" stroke-width="2"/><circle cx="27.505787037037038" cy="230.57291666666669" r="10" fill="rgb(229 0 125)" stroke="black" stroke-width="2"/><circle cx="55.5150462962963" cy="230.57291666666669" r="10" fill="rgb(229 0 125)" stroke="black" stroke-width="2"/><circle cx="97.52893518518519" cy="167.55208333333334" r="10" fill="rgb(229 0 125)" stroke="black" stroke-width="2"/><circle cx="83.52430555555556" cy="230.57291666666669" r="10" fill="rgb(229 0 125)" stroke="black" stroke-width="2"/><circle cx="111.53356481481481" cy="230.57291666666669" r="10" fill="rgb(229 0 125)" stroke="black" stroke-width="2"/><circle cx="153.5474537037037" cy="167.55208333333334" r="10" fill="rgb(229 0 125)" stroke="black" stroke-width="2"/><circle cx="139.54282407407408" cy="230.57291666666669" r="10" fill="rgb(229 0 125)" stroke="black" stroke-width="2"/><circle cx="167.55208333333334" cy="230.57291666666669" r="10" fill="rgb(229 0 125)" stroke="black" stroke-width="2"/><circle cx="265.58449074074076" cy="104.53125" r="10" fill="rgb(229 0 125)" stroke="black" stroke-width="2"/><circle cx="209.56597222222223" cy="167.55208333333334" r="10" fill="rgb(229 0 125)" stroke="black" stroke-width="2"/><circle cx="190.8931327160494" cy="230.57291666666669" r="10" fill="rgb(229 0 125)" stroke="black" stroke-width="2"/><circle cx="209.56597222222223" cy="230.57291666666669" r="10" fill="rgb(229 0 125)" stroke="black" stroke-width="2"/><circle cx="228.23881172839504" cy="230.57291666666669" r="10" fill="rgb(229 0 125)" stroke="black" stroke-width="2"/><circle cx="265.58449074074076" cy="167.55208333333334" r="10" fill="rgb(229 0 125)" stroke="black" stroke-width="2"/><circle cx="251.57986111111111" cy="230.57291666666669" r="10" fill="rgb(229 0 125)" stroke="black" stroke-width="2"/><circle cx="279.5891203703704" cy="230.57291666666669" r="10" fill="rgb(229 0 125)" stroke="black" stroke-width="2"/><circle cx="321.60300925925924" cy="167.55208333333334" r="10" fill="rgb(229 0 125)" stroke="black" stroke-width="2"/><circle cx="307.5983796296296" cy="230.57291666666669" r="10" fill="rgb(229 0 125)" stroke="black" stroke-width="2"/><circle cx="335.6076388888889" cy="230.57291666666669" r="10" fill="rgb(229 0 125)" stroke="black" stroke-width="2"/><circle cx="433.6400462962963" cy="104.53125" r="10" fill="rgb(229 0 125)" stroke="black" stroke-width="2"/><circle cx="391.6261574074074" cy="167.55208333333334" r="10" fill="rgb(229 0 125)" stroke="black" stroke-width="2"/><circle cx="363.61689814814815" cy="230.57291666666669" r="10" fill="rgb(229 0 125)" stroke="black" stroke-width="2"/><circle cx="391.6261574074074" cy="230.57291666666669" r="10" fill="rgb(229 0 125)" stroke="black" stroke-width="2"/><circle cx="419.6354166666667" cy="230.57291666666669" r="10" fill="rgb(229 0 125)" stroke="black" stroke-width="2"/><circle cx="475.65393518518516" cy="167.55208333333334" r="10" fill="rgb(229 0 125)" stroke="black" stroke-width="2"/><circle cx="447.6446759259259" cy="230.57291666666669" r="10" fill="rgb(229 0 125)" stroke="black" stroke-width="2"/><circle cx="475.65393518518516" cy="230.57291666666669" r="10" fill="rgb(229 0 125)" stroke="black" stroke-width="2"/><circle cx="503.66319444444446" cy="230.57291666666669" r="10" fill="rgb(229 0 125)" stroke="black" stroke-width="2"/><line x1="265.58449074074076" y1="451.1458333333333" x2="433.6400462962963" y2="388.125" stroke="rgb(0 159 227)" stroke-width="5"/><line x1="265.58449074074076" y1="451.1458333333333" x2="265.58449074074076" y2="388.125" stroke="rgb(0 159 227)" stroke-width="5"/><line x1="265.58449074074076" y1="451.1458333333333" x2="97.52893518518522" y2="388.125" stroke="rgb(0 159 227)" stroke-width="5"/><line x1="433.6400462962963" y1="388.125" x2="489.65856481481484" y2="325.10416666666663" stroke="rgb(0 159 227)" stroke-width="5"/><line x1="433.6400462962963" y1="388.125" x2="433.6400462962963" y2="325.10416666666663" stroke="rgb(0 159 227)" stroke-width="5"/><line x1="433.6400462962963" y1="388.125" x2="377.6215277777778" y2="325.10416666666663" stroke="rgb(0 159 227)" stroke-width="5"/><line x1="489.65856481481484" y1="325.10416666666663" x2="503.66319444444446" y2="262.0833333333333" stroke="rgb(0 159 227)" stroke-width="5"/><line x1="489.65856481481484" y1="325.10416666666663" x2="475.6539351851852" y2="262.0833333333333" stroke="rgb(0 159 227)" stroke-width="5"/><line x1="433.6400462962963" y1="325.10416666666663" x2="447.644675925926" y2="262.0833333333333" stroke="rgb(0 159 227)" stroke-width="5"/><line x1="433.6400462962963" y1="325.10416666666663" x2="419.63541666666674" y2="262.0833333333333" stroke="rgb(0 159 227)" stroke-width="5"/><line x1="377.6215277777778" y1="325.10416666666663" x2="391.62615740740745" y2="262.0833333333333" stroke="rgb(0 159 227)" stroke-width="5"/><line x1="377.6215277777778" y1="325.10416666666663" x2="363.61689814814815" y2="262.0833333333333" stroke="rgb(0 159 227)" stroke-width="5"/><line x1="265.58449074074076" y1="388.125" x2="321.6030092592593" y2="325.10416666666663" stroke="rgb(0 159 227)" stroke-width="5"/><line x1="265.58449074074076" y1="388.125" x2="265.58449074074076" y2="325.10416666666663" stroke="rgb(0 159 227)" stroke-width="5"/><line x1="265.58449074074076" y1="388.125" x2="209.56597222222229" y2="325.10416666666663" stroke="rgb(0 159 227)" stroke-width="5"/><line x1="321.6030092592593" y1="325.10416666666663" x2="340.2758487654321" y2="262.0833333333333" stroke="rgb(0 159 227)" stroke-width="5"/><line x1="321.6030092592593" y1="325.10416666666663" x2="321.6030092592593" y2="262.0833333333333" stroke="rgb(0 159 227)" stroke-width="5"/><line x1="321.6030092592593" y1="325.10416666666663" x2="302.9301697530865" y2="262.0833333333333" stroke="rgb(0 159 227)" stroke-width="5"/><line x1="265.58449074074076" y1="325.10416666666663" x2="279.58912037037044" y2="262.0833333333333" stroke="rgb(0 159 227)" stroke-width="5"/><line x1="265.58449074074076" y1="325.10416666666663" x2="251.57986111111114" y2="262.0833333333333" stroke="rgb(0 159 227)" stroke-width="5"/><line x1="209.56597222222229" y1="325.10416666666663" x2="223.5706018518519" y2="262.0833333333333" stroke="rgb(0 159 227)" stroke-width="5"/><line x1="209.56597222222229" y1="325.10416666666663" x2="195.5613425925926" y2="262.0833333333333" stroke="rgb(0 159 227)" stroke-width="5"/><line x1="97.52893518518522" y1="388.125" x2="139.54282407407413" y2="325.10416666666663" stroke="rgb(0 159 227)" stroke-width="5"/><line x1="97.52893518518522" y1="388.125" x2="55.51504629629636" y2="325.10416666666663" stroke="rgb(0 159 227)" stroke-width="5"/><line x1="139.54282407407413" y1="325.10416666666663" x2="167.55208333333337" y2="262.0833333333333" stroke="rgb(0 159 227)" stroke-width="5"/><line x1="139.54282407407413" y1="325.10416666666663" x2="139.54282407407413" y2="262.0833333333333" stroke="rgb(0 159 227)" stroke-width="5"/><line x1="139.54282407407413" y1="325.10416666666663" x2="111.53356481481484" y2="262.0833333333333" stroke="rgb(0 159 227)" stroke-width="5"/><line x1="55.51504629629636" y1="325.10416666666663" x2="83.5243055555556" y2="262.0833333333333" stroke="rgb(0 159 227)" stroke-width="5"/><line x1="55.51504629629636" y1="325.10416666666663" x2="55.51504629629636" y2="262.0833333333333" stroke="rgb(0 159 227)" stroke-width="5"/><line x1="55.51504629629636" y1="325.10416666666663" x2="27.505787037037067" y2="262.0833333333333" stroke="rgb(0 159 227)" stroke-width="5"/><line x1="265.58449074074076" y1="451.1458333333333" x2="433.6400462962963" y2="388.125" stroke="black"/><line x1="265.58449074074076" y1="451.1458333333333" x2="265.58449074074076" y2="388.125" stroke="black"/><line x1="265.58449074074076" y1="451.1458333333333" x2="97.52893518518522" y2="388.125" stroke="black"/><line x1="433.6400462962963" y1="388.125" x2="489.65856481481484" y2="325.10416666666663" stroke="black"/><line x1="433.6400462962963" y1="388.125" x2="433.6400462962963" y2="325.10416666666663" stroke="black"/><line x1="433.6400462962963" y1="388.125" x2="377.6215277777778" y2="325.10416666666663" stroke="black"/><line x1="489.65856481481484" y1="325.10416666666663" x2="503.66319444444446" y2="262.0833333333333" stroke="black"/><line x1="489.65856481481484" y1="325.10416666666663" x2="475.6539351851852" y2="262.0833333333333" stroke="black"/><line x1="433.6400462962963" y1="325.10416666666663" x2="447.644675925926" y2="262.0833333333333" stroke="black"/><line x1="433.6400462962963" y1="325.10416666666663" x2="419.63541666666674" y2="262.0833333333333" stroke="black"/><line x1="377.6215277777778" y1="325.10416666666663" x2="391.62615740740745" y2="262.0833333333333" stroke="black"/><line x1="377.6215277777778" y1="325.10416666666663" x2="363.61689814814815" y2="262.0833333333333" stroke="black"/><line x1="265.58449074074076" y1="388.125" x2="321.6030092592593" y2="325.10416666666663" stroke="black"/><line x1="265.58449074074076" y1="388.125" x2="265.58449074074076" y2="325.10416666666663" stroke="black"/><line x1="265.58449074074076" y1="388.125" x2="209.56597222222229" y2="325.10416666666663" stroke="black"/><line x1="321.6030092592593" y1="325.10416666666663" x2="340.2758487654321" y2="262.0833333333333" stroke="black"/><line x1="321.6030092592593" y1="325.10416666666663" x2="321.6030092592593" y2="262.0833333333333" stroke="black"/><line x1="321.6030092592593" y1="325.10416666666663" x2="302.9301697530865" y2="262.0833333333333" stroke="black"/><line x1="265.58449074074076" y1="325.10416666666663" x2="279.58912037037044" y2="262.0833333333333" stroke="black"/><line x1="265.58449074074076" y1="325.10416666666663" x2="251.57986111111114" y2="262.0833333333333" stroke="black"/><line x1="209.56597222222229" y1="325.10416666666663" x2="223.5706018518519" y2="262.0833333333333" stroke="black"/><line x1="209.56597222222229" y1="325.10416666666663" x2="195.5613425925926" y2="262.0833333333333" stroke="black"/><line x1="97.52893518518522" y1="388.125" x2="139.54282407407413" y2="325.10416666666663" stroke="black"/><line x1="97.52893518518522" y1="388.125" x2="55.51504629629636" y2="325.10416666666663" stroke="black"/><line x1="139.54282407407413" y1="325.10416666666663" x2="167.55208333333337" y2="262.0833333333333" stroke="black"/><line x1="139.54282407407413" y1="325.10416666666663" x2="139.54282407407413" y2="262.0833333333333" stroke="black"/><line x1="139.54282407407413" y1="325.10416666666663" x2="111.53356481481484" y2="262.0833333333333" stroke="black"/><line x1="55.51504629629636" y1="325.10416666666663" x2="83.5243055555556" y2="262.0833333333333" stroke="black"/><line x1="55.51504629629636" y1="325.10416666666663" x2="55.51504629629636" y2="262.0833333333333" stroke="black"/><line x1="55.51504629629636" y1="325.10416666666663" x2="27.505787037037067" y2="262.0833333333333" stroke="black"/><circle cx="265.58449074074076" cy="451.1458333333333" r="10" fill="rgb(229 0 125)" stroke="black" stroke-width="2"/><circle cx="433.6400462962963" cy="388.125" r="10" fill="rgb(229 0 125)" stroke="black" stroke-width="2"/><circle cx="489.65856481481484" cy="325.10416666666663" r="10" fill="rgb(229 0 125)" stroke="black" stroke-width="2"/><circle cx="503.66319444444446" cy="262.0833333333333" r="10" fill="rgb(229 0 125)" stroke="black" stroke-width="2"/><circle cx="475.6539351851852" cy="262.0833333333333" r="10" fill="rgb(229 0 125)" stroke="black" stroke-width="2"/><circle cx="433.6400462962963" cy="325.10416666666663" r="10" fill="rgb(229 0 125)" stroke="black" stroke-width="2"/><circle cx="447.644675925926" cy="262.0833333333333" r="10" fill="rgb(229 0 125)" stroke="black" stroke-width="2"/><circle cx="419.63541666666674" cy="262.0833333333333" r="10" fill="rgb(229 0 125)" stroke="black" stroke-width="2"/><circle cx="377.6215277777778" cy="325.10416666666663" r="10" fill="rgb(229 0 125)" stroke="black" stroke-width="2"/><circle cx="391.62615740740745" cy="262.0833333333333" r="10" fill="rgb(229 0 125)" stroke="black" stroke-width="2"/><circle cx="363.61689814814815" cy="262.0833333333333" r="10" fill="rgb(229 0 125)" stroke="black" stroke-width="2"/><circle cx="265.58449074074076" cy="388.125" r="10" fill="rgb(229 0 125)" stroke="black" stroke-width="2"/><circle cx="321.6030092592593" cy="325.10416666666663" r="10" fill="rgb(229 0 125)" stroke="black" stroke-width="2"/><circle cx="340.2758487654321" cy="262.0833333333333" r="10" fill="rgb(229 0 125)" stroke="black" stroke-width="2"/><circle cx="321.6030092592593" cy="262.0833333333333" r="10" fill="rgb(229 0 125)" stroke="black" stroke-width="2"/><circle cx="302.9301697530865" cy="262.0833333333333" r="10" fill="rgb(229 0 125)" stroke="black" stroke-width="2"/><circle cx="265.58449074074076" cy="325.10416666666663" r="10" fill="rgb(229 0 125)" stroke="black" stroke-width="2"/><circle cx="279.58912037037044" cy="262.0833333333333" r="10" fill="rgb(229 0 125)" stroke="black" stroke-width="2"/><circle cx="251.57986111111114" cy="262.0833333333333" r="10" fill="rgb(229 0 125)" stroke="black" stroke-width="2"/><circle cx="209.56597222222229" cy="325.10416666666663" r="10" fill="rgb(229 0 125)" stroke="black" stroke-width="2"/><circle cx="223.5706018518519" cy="262.0833333333333" r="10" fill="rgb(229 0 125)" stroke="black" stroke-width="2"/><circle cx="195.5613425925926" cy="262.0833333333333" r="10" fill="rgb(229 0 125)" stroke="black" stroke-width="2"/><circle cx="97.52893518518522" cy="388.125" r="10" fill="rgb(229 0 125)" stroke="black" stroke-width="2"/><circle cx="139.54282407407413" cy="325.10416666666663" r="10" fill="rgb(229 0 125)" stroke="black" stroke-width="2"/><circle cx="167.55208333333337" cy="262.0833333333333" r="10" fill="rgb(229 0 125)" stroke="black" stroke-width="2"/><circle cx="139.54282407407413" cy="262.0833333333333" r="10" fill="rgb(229 0 125)" stroke="black" stroke-width="2"/><circle cx="111.53356481481484" cy="262.0833333333333" r="10" fill="rgb(229 0 125)" stroke="black" stroke-width="2"/><circle cx="55.51504629629636" cy="325.10416666666663" r="10" fill="rgb(229 0 125)" stroke="black" stroke-width="2"/><circle cx="83.5243055555556" cy="262.0833333333333" r="10" fill="rgb(229 0 125)" stroke="black" stroke-width="2"/><circle cx="55.51504629629636" cy="262.0833333333333" r="10" fill="rgb(229 0 125)" stroke="black" stroke-width="2"/><circle cx="27.505787037037067" cy="262.0833333333333" r="10" fill="rgb(229 0 125)" stroke="black" stroke-width="2"/></svg>