<svg xmlns="http://www.w3.org/2000/svg" width="587.1875" height="492.65625" style="background: white;"><line x1="293.59375" y1="41.51041666666667" x2="167.55208333333334" y2="104.53125" stroke="rgb(0 159 227)" stroke-width="5"/><line x1="293.59375" y1="41.51041666666667" x2="419.6354166666667" y2="104.53125" stroke="rgb(0 159 227)" stroke-width="5"/><line x1="167.55208333333334" y1="104.53125" x2="104.53125" y2="167.55208333333334" stroke="rgb(0 159 227)" stroke-width="5"/><line x1="167.55208333333334" y1="104.53125" x2="230.57291666666669" y2="167.55208333333334" stroke="rgb(0 159 227)" stroke-width="5"/><line x1="419.6354166666667" y1="104.53125" x2="356.61458333333337" y2="167.55208333333334" stroke="rgb(0 159 227)" stroke-width="5"/><line x1="419.6354166666667" y1="104.53125" x2="482.65625" y2="167.55208333333334" stroke="rgb(0 159 227)" stroke-width="5"/><line x1="356.61458333333337" y1="167.55208333333334" x2="325.1041666666667" y2="230.57291666666669" stroke="rgb(0 159 227)" stroke-width="5"/><line x1="356.61458333333337" y1="167.55208333333334" x2="388.125" y2="230.57291666666669" stroke="rgb(0 159 227)" stroke-width="5"/><line x1="293.59375" y1="41.51041666666667" x2="167.55208333333334" y2="104.53125" stroke="black"/><line x1="293.59375" y1="41.51041666666667" x2="419.6354166666667" y2="104.53125" stroke="black"/><line x1="167.55208333333334" y1="104.53125" x2="104.53125" y2="167.55208333333334" stroke="black"/><line x1="167.55208333333334" y1="104.53125" x2="230.57291666666669" y2="167.55208333333334" stroke="black"/><line x1="419.6354166666667" y1="104.53125" x2="356.61458333333337" y2="167.55208333333334" stroke="black"/><line x1="419.6354166666667" y1="104.53125" x2="482.65625" y2="167.55208333333334" stroke="black"/><line x1="356.61458333333337" y1="167.55208333333334" x2="325.1041666666667" y2="230.57291666666669" stroke="black"/><line x1="356.61458333333337" y1="167.55208333333334" x2="388.125" y2="230.57291666666669" stroke="black"/><circle cx="293.59375" cy="41.51041666666667" r="10" fill="rgb(229 0 125)" stroke="black" stroke-width="2"/><circle cx="167.55208333333334" cy="104.53125" r="10" fill="rgb(229 0 125)" stroke="black" stroke-width="2"/><circle cx="104.53125" cy="167.55208333333334" r="10" fill="rgb(229 0 125)" stroke="black" stroke-width="2"/><circle cx="230.57291666666669" cy="167.55208333333334" r="10" fill="rgb(229 0 125)" stroke="black" stroke-width="2"/><circle cx="419.6354166666667" cy="104.53125" r="10" fill="rgb(229 0 125)" stroke="black" stroke-width="2"/><circle cx="356.61458333333337" cy="167.55208333333334" r="10" fill="rgb(229 0 125)" stroke="black" stroke-width="2"/><circle cx="325.1041666666667" cy="230.57291666666669" r="10" fill="rgb(229 0 125)" stroke="black" stroke-width="2"/><circle cx="388.125" cy="230.57291666666669" r="10" fill="rgb(229 0 125)" stroke="black" stroke-width="2"/><circle cx="482.65625" cy="167.55208333333334" r="10" fill="rgb(229 0 125)" stroke="black" stroke-width="2"/><line x1="293.59375" y1="451.1458333333333" x2="419.63541666666663" y2="388.125" stroke="rgb(0 159 227)" stroke-width="5"/><line x1="293.59375" y1="451.1458333333333" x2="167.55208333333331" y2="388.125" stroke="rgb(0 159 227)" stroke-width="5"/><line x1="419.63541666666663" y1="388.125" x2="482.65625" y2="325.10416666666663" stroke="rgb(0 159 227)" stroke-width="5"/><line x1="419.63541666666663" y1="388.125" x2="356.6145833333333" y2="325.10416666666663" stroke="rgb(0 159 227)" stroke-width="5"/><line x1="167.55208333333331" y1="388.125" x2="230.57291666666663" y2="325.10416666666663" stroke="rgb(0 159 227)" stroke-width="5"/><line x1="167.55208333333331" y1="388.125" x2="104.53125" y2="325.10416666666663" stroke="rgb(0 159 227)" stroke-width="5"/><line x1="230.57291666666663" y1="325.10416666666663" x2="262.0833333333333" y2="262.0833333333333" stroke="rgb(0 159 227)" stroke-width="5"/><line x1="230.57291666666663" y1="325.10416666666663" x2="199.0625" y2="262.0833333333333" stroke="rgb(0 159 227)" stroke-width="5"/><line x1="293.59375" y1="451.1458333333333" x2="419.63541666666663" y2="388.125" stroke="black"/><line x1="293.59375" y1="451.1458333333333" x2="167.55208333333331" y2="388.125" stroke="black"/><line x1="419.63541666666663" y1="388.125" x2="482.65625" y2="325.10416666666663" stroke="black"/><line x1="419.63541666666663" y1="388.125" x2="356.6145833333333" y2="325.10416666666663" stroke="black"/><line x1="167.55208333333331" y1="388.125" x2="230.57291666666663" y2="325.10416666666663" stroke="black"/><line x1="167.55208333333331" y1="388.125" x2="104.53125" y2="325.10416666666663" stroke="black"/><line x1="230.57291666666663" y1="325.10416666666663" x2="262.0833333333333" y2="262.0833333333333" stroke="black"/><line x1="230.57291666666663" y1="325.10416666666663" x2="199.0625" y2="262.0833333333333" stroke="black"/><circle cx="293.59375" cy="451.1458333333333" r="10" fill="rgb(229 0 125)" stroke="black" stroke-width="2"/><circle cx="419.63541666666663" cy="388.125" r="10" fill="rgb(229 0 125)" stroke="black" stroke-width="2"/><circle cx="482.65625" cy="325.10416666666663" r="10" fill="rgb(229 0 125)" stroke="black" stroke-width="2"/><circle cx="356.6145833333333" cy="325.10416666666663" r="10" fill="rgb(229 0 125)" stroke="black" stroke-width="2"/><circle cx="167.55208333333331" cy="388.125" r="10" fill="rgb(229 0 125)" stroke="black" stroke-width="2"/><circle cx="230.57291666666663" cy="325.10416666666663" r="10" fill="rgb(229 0 125)" stroke="black" stroke-width="2"/><circle cx="262.0833333333333" cy="262.0833333333333" r="10" fill="rgb(229 0 125)" stroke="black" stroke-width="2"/><circle cx="199.0625" cy="262.0833333333333" r="10" fill="rgb(229 0 125)" stroke="black" stroke-width="2"/><circle cx="104.53125" cy="325.10416666666663" r="10" fill="rgb(229 0 125)" stroke="black" stroke-width="2"/></svg>