<svg xmlns="http://www.w3.org/2000/svg" width="545.1736111111111" height="503.1597222222222" style="background: white;"><line x1="272.58680555555554" y1="31.006944444444443" x2="146.54513888888889" y2="73.02083333333333" stroke="rgb(0 159 227)" stroke-width="5"/><line x1="272.58680555555554" y1="31.006944444444443" x2="398.6284722222222" y2="73.02083333333333" stroke="rgb(0 159 227)" stroke-width="5"/><line x1="146.54513888888889" y1="73.02083333333333" x2="83.52430555555554" y2="115.03472222222221" stroke="rgb(0 159 227)" stroke-width="5"/><line x1="146.54513888888889" y1="73.02083333333333" x2="209.5659722222222" y2="115.03472222222221" stroke="rgb(0 159 227)" stroke-width="5"/><line x1="209.5659722222222" y1="115.03472222222221" x2="178.05555555555554" y2="157.0486111111111" stroke="rgb(0 159 227)" stroke-width="5"/><line x1="209.5659722222222" y1="115.03472222222221" x2="241.07638888888886" y2="157.0486111111111" stroke="rgb(0 159 227)" stroke-width="5"/><line x1="241.07638888888886" y1="157.0486111111111" x2="225.32118055555554" y2="199.0625" stroke="rgb(0 159 227)" stroke-width="5"/><line x1="241.07638888888886" y1="157.0486111111111" x2="256.8315972222222" y2="199.0625" stroke="rgb(0 159 227)" stroke-width="5"/><line x1="225.32118055555554" y1="199.0625" x2="217.44357638888889" y2="241.07638888888886" stroke="rgb(0 159 227)" stroke-width="5"/><line x1="225.32118055555554" y1="199.0625" x2="233.1987847222222" y2="241.07638888888886" stroke="rgb(0 159 227)" stroke-width="5"/><line x1="398.6284722222222" y1="73.02083333333333" x2="398.6284722222222" y2="115.03472222222221" stroke="rgb(0 159 227)" stroke-width="5"/><line x1="398.6284722222222" y1="115.03472222222221" x2="335.60763888888886" y2="157.0486111111111" stroke="rgb(0 159 227)" stroke-width="5"/><line x1="398.6284722222222" y1="115.03472222222221" x2="461.64930555555554" y2="157.0486111111111" stroke="rgb(0 159 227)" stroke-width="5"/><line x1="335.60763888888886" y1="157.0486111111111" x2="304.0972222222222" y2="199.0625" stroke="rgb(0 159 227)" stroke-width="5"/><line x1="335.60763888888886" y1="157.0486111111111" x2="367.11805555555554" y2="199.0625" stroke="rgb(0 159 227)" stroke-width="5"/><line x1="304.0972222222222" y1="199.0625" x2="288.34201388888886" y2="241.07638888888886" stroke="rgb(0 159 227)" stroke-width="5"/><line x1="304.0972222222222" y1="199.0625" x2="319.85243055555554" y2="241.07638888888886" stroke="rgb(0 159 227)" stroke-width="5"/><line x1="272.58680555555554" y1="31.006944444444443" x2="146.54513888888889" y2="73.02083333333333" stroke="black"/><line x1="272.58680555555554" y1="31.006944444444443" x2="398.6284722222222" y2="73.02083333333333" stroke="black"/><line x1="146.54513888888889" y1="73.02083333333333" x2="83.52430555555554" y2="115.03472222222221" stroke="black"/><line x1="146.54513888888889" y1="73.02083333333333" x2="209.5659722222222" y2="115.03472222222221" stroke="black"/><line x1="209.5659722222222" y1="115.03472222222221" x2="178.05555555555554" y2="157.0486111111111" stroke="black"/><line x1="209.5659722222222" y1="115.03472222222221" x2="241.07638888888886" y2="157.0486111111111" stroke="black"/><line x1="241.07638888888886" y1="157.0486111111111" x2="225.32118055555554" y2="199.0625" stroke="black"/><line x1="241.07638888888886" y1="157.0486111111111" x2="256.8315972222222" y2="199.0625" stroke="black"/><line x1="225.32118055555554" y1="199.0625" x2="217.44357638888889" y2="241.07638888888886" stroke="black"/><line x1="225.32118055555554" y1="199.0625" x2="233.1987847222222" y2="241.07638888888886" stroke="black"/><line x1="398.6284722222222" y1="73.02083333333333" x2="398.6284722222222" y2="115.03472222222221" stroke="black"/><line x1="398.6284722222222" y1="115.03472222222221" x2="335.60763888888886" y2="157.0486111111111" stroke="black"/><line x1="398.6284722222222" y1="115.03472222222221" x2="461.64930555555554" y2="157.0486111111111" stroke="black"/><line x1="335.60763888888886" y1="157.0486111111111" x2="304.0972222222222" y2="199.0625" stroke="black"/><line x1="335.60763888888886" y1="157.0486111111111" x2="367.11805555555554" y2="199.0625" stroke="black"/><line x1="304.0972222222222" y1="199.0625" x2="288.34201388888886" y2="241.07638888888886" stroke="black"/><line x1="304.0972222222222" y1="199.0625" x2="319.85243055555554" y2="241.07638888888886" stroke="black"/><circle cx="272.58680555555554" cy="31.006944444444443" r="10" fill="rgb(229 0 125)" stroke="black" stroke-width="2"/><circle cx="146.54513888888889" cy="73.02083333333333" r="10" fill="rgb(229 0 125)" stroke="black" stroke-width="2"/><circle cx="83.52430555555554" cy="115.03472222222221" r="10" fill="rgb(229 0 125)" stroke="black" stroke-width="2"/><circle cx="209.5659722222222" cy="115.03472222222221" r="10" fill="rgb(229 0 125)" stroke="black" stroke-width="2"/><circle cx="178.05555555555554" cy="157.0486111111111" r="10" fill="rgb(229 0 125)" stroke="black" stroke-width="2"/><circle cx="241.07638888888886" cy="157.0486111111111" r="10" fill="rgb(229 0 125)" stroke="black" stroke-width="2"/><circle cx="225.32118055555554" cy="199.0625" r="10" fill="rgb(229 0 125)" stroke="black" stroke-width="2"/><circle cx="217.44357638888889" cy="241.07638888888886" r="10" fill="rgb(229 0 125)" stroke="black" stroke-width="2"/><circle cx="233.1987847222222" cy="241.07638888888886" r="10" fill="rgb(229 0 125)" stroke="black" stroke-width="2"/><circle cx="256.8315972222222" cy="199.0625" r="10" fill="rgb(229 0 125)" stroke="black" stroke-width="2"/><circle cx="398.6284722222222" cy="73.02083333333333" r="10" fill="rgb(229 0 125)" stroke="black" stroke-width="2"/><circle cx="398.6284722222222" cy="115.03472222222221" r="10" fill="rgb(229 0 125)" stroke="black" stroke-width="2"/><circle cx="335.60763888888886" cy="157.0486111111111" r="10" fill="rgb(229 0 125)" stroke="black" stroke-width="2"/><circle cx="304.0972222222222" cy="199.0625" r="10" fill="rgb(229 0 125)" stroke="black" stroke-width="2"/><circle cx="288.34201388888886" cy="241.07638888888886" r="10" fill="rgb(229 0 125)" stroke="black" stroke-width="2"/><circle cx="319.85243055555554" cy="241.07638888888886" r="10" fill="rgb(229 0 125)" stroke="black" stroke-width="2"/><circle cx="367.11805555555554" cy="199.0625" r="10" fill="rgb(229 0 125)" stroke="black" stroke-width="2"/><circle cx="461.64930555555554" cy="157.0486111111111" r="10" fill="rgb(229 0 125)" stroke="black" stroke-width="2"/><line x1="272.58680555555554" y1="472.1527777777777" x2="398.6284722222222" y2="430.13888888888886" stroke="rgb(0 159 227)" stroke-width="5"/><line x1="272.58680555555554" y1="472.1527777777777" x2="146.5451388888889" y2="430.13888888888886" stroke="rgb(0 159 227)" stroke-width="5"/><line x1="398.6284722222222" y1="430.13888888888886" x2="461.64930555555554" y2="388.12499999999994" stroke="rgb(0 159 227)" stroke-width="5"/><line x1="398.6284722222222" y1="430.13888888888886" x2="335.6076388888889" y2="388.12499999999994" stroke="rgb(0 159 227)" stroke-width="5"/><line x1="335.6076388888889" y1="388.12499999999994" x2="367.11805555555554" y2="346.1111111111111" stroke="rgb(0 159 227)" stroke-width="5"/><line x1="335.6076388888889" y1="388.12499999999994" x2="304.09722222222223" y2="346.1111111111111" stroke="rgb(0 159 227)" stroke-width="5"/><line x1="304.09722222222223" y1="346.1111111111111" x2="319.85243055555554" y2="304.0972222222222" stroke="rgb(0 159 227)" stroke-width="5"/><line x1="304.09722222222223" y1="346.1111111111111" x2="288.3420138888889" y2="304.0972222222222" stroke="rgb(0 159 227)" stroke-width="5"/><line x1="319.85243055555554" y1="304.0972222222222" x2="327.7300347222222" y2="262.0833333333333" stroke="rgb(0 159 227)" stroke-width="5"/><line x1="319.85243055555554" y1="304.0972222222222" x2="311.9748263888889" y2="262.0833333333333" stroke="rgb(0 159 227)" stroke-width="5"/><line x1="146.5451388888889" y1="430.13888888888886" x2="146.5451388888889" y2="388.12499999999994" stroke="rgb(0 159 227)" stroke-width="5"/><line x1="146.5451388888889" y1="388.12499999999994" x2="209.56597222222223" y2="346.1111111111111" stroke="rgb(0 159 227)" stroke-width="5"/><line x1="146.5451388888889" y1="388.12499999999994" x2="83.52430555555554" y2="346.1111111111111" stroke="rgb(0 159 227)" stroke-width="5"/><line x1="209.56597222222223" y1="346.1111111111111" x2="241.0763888888889" y2="304.0972222222222" stroke="rgb(0 159 227)" stroke-width="5"/><line x1="209.56597222222223" y1="346.1111111111111" x2="178.05555555555554" y2="304.0972222222222" stroke="rgb(0 159 227)" stroke-width="5"/><line x1="241.0763888888889" y1="304.0972222222222" x2="256.83159722222223" y2="262.0833333333333" stroke="rgb(0 159 227)" stroke-width="5"/><line x1="241.0763888888889" y1="304.0972222222222" x2="225.32118055555554" y2="262.0833333333333" stroke="rgb(0 159 227)" stroke-width="5"/><line x1="272.58680555555554" y1="472.1527777777777" x2="398.6284722222222" y2="430.13888888888886" stroke="black"/><line x1="272.58680555555554" y1="472.1527777777777" x2="146.5451388888889" y2="430.13888888888886" stroke="black"/><line x1="398.6284722222222" y1="430.13888888888886" x2="461.64930555555554" y2="388.12499999999994" stroke="black"/><line x1="398.6284722222222" y1="430.13888888888886" x2="335.6076388888889" y2="388.12499999999994" stroke="black"/><line x1="335.6076388888889" y1="388.12499999999994" x2="367.11805555555554" y2="346.1111111111111" stroke="black"/><line x1="335.6076388888889" y1="388.12499999999994" x2="304.09722222222223" y2="346.1111111111111" stroke="black"/><line x1="304.09722222222223" y1="346.1111111111111" x2="319.85243055555554" y2="304.0972222222222" stroke="black"/><line x1="304.09722222222223" y1="346.1111111111111" x2="288.3420138888889" y2="304.0972222222222" stroke="black"/><line x1="319.85243055555554" y1="304.0972222222222" x2="327.7300347222222" y2="262.0833333333333" stroke="black"/><line x1="319.85243055555554" y1="304.0972222222222" x2="311.9748263888889" y2="262.0833333333333" stroke="black"/><line x1="146.5451388888889" y1="430.13888888888886" x2="146.5451388888889" y2="388.12499999999994" stroke="black"/><line x1="146.5451388888889" y1="388.12499999999994" x2="209.56597222222223" y2="346.1111111111111" stroke="black"/><line x1="146.5451388888889" y1="388.12499999999994" x2="83.52430555555554" y2="346.1111111111111" stroke="black"/><line x1="209.56597222222223" y1="346.1111111111111" x2="241.0763888888889" y2="304.0972222222222" stroke="black"/><line x1="209.56597222222223" y1="346.1111111111111" x2="178.05555555555554" y2="304.0972222222222" stroke="black"/><line x1="241.0763888888889" y1="304.0972222222222" x2="256.83159722222223" y2="262.0833333333333" stroke="black"/><line x1="241.0763888888889" y1="304.0972222222222" x2="225.32118055555554" y2="262.0833333333333" stroke="black"/><circle cx="272.58680555555554" cy="472.1527777777777" r="10" fill="rgb(229 0 125)" stroke="black" stroke-width="2"/><circle cx="398.6284722222222" cy="430.13888888888886" r="10" fill="rgb(229 0 125)" stroke="black" stroke-width="2"/><circle cx="461.64930555555554" cy="388.12499999999994" r="10" fill="rgb(229 0 125)" stroke="black" stroke-width="2"/><circle cx="335.6076388888889" cy="388.12499999999994" r="10" fill="rgb(229 0 125)" stroke="black" stroke-width="2"/><circle cx="367.11805555555554" cy="346.1111111111111" r="10" fill="rgb(229 0 125)" stroke="black" stroke-width="2"/><circle cx="304.09722222222223" cy="346.1111111111111" r="10" fill="rgb(229 0 125)" stroke="black" stroke-width="2"/><circle cx="319.85243055555554" cy="304.0972222222222" r="10" fill="rgb(229 0 125)" stroke="black" stroke-width="2"/><circle cx="327.7300347222222" cy="262.0833333333333" r="10" fill="rgb(229 0 125)" stroke="black" stroke-width="2"/><circle cx="311.9748263888889" cy="262.0833333333333" r="10" fill="rgb(229 0 125)" stroke="black" stroke-width="2"/><circle cx="288.3420138888889" cy="304.0972222222222" r="10" fill="rgb(229 0 125)" stroke="black" stroke-width="2"/><circle cx="146.5451388888889" cy="430.13888888888886" r="10" fill="rgb(229 0 125)" stroke="black" stroke-width="2"/><circle cx="146.5451388888889" cy="388.12499999999994" r="10" fill="rgb(229 0 125)" stroke="black" stroke-width="2"/><circle cx="209.56597222222223" cy="346.1111111111111" r="10" fill="rgb(229 0 125)" stroke="black" stroke-width="2"/><circle cx="241.0763888888889" cy="304.0972222222222" r="10" fill="rgb(229 0 125)" stroke="black" stroke-width="2"/><circle cx="256.83159722222223" cy="262.0833333333333" r="10" fill="rgb(229 0 125)" stroke="black" stroke-width="2"/><circle cx="225.32118055555554" cy="262.0833333333333" r="10" fill="rgb(229 0 125)" stroke="black" stroke-width="2"/><circle cx="178.05555555555554" cy="304.0972222222222" r="10" fill="rgb(229 0 125)" stroke="black" stroke-width="2"/><circle cx="83.52430555555554" cy="346.1111111111111" r="10" fill="rgb(229 0 125)" stroke="black" stroke-width="2"/></svg>