<svg xmlns="http://www.w3.org/2000/svg" width="566.1805555555555" height="482.1527777777777" style="background: white;"><defs><linearGradient id="grad" x1="0%" y1="0%" x2="100%" y2="0%"><stop offset="0%" stop-color="rgb(255 204 0)"/><stop offset="50%" stop-color="white"/><stop offset="100%" stop-color="rgb(255 204 0)"/></linearGradient></defs><rect x="31.006944444444443" y="31.006944444444443" width="504.16666666666663" height="252.08333333333331" fill="url(#grad)" stroke="black"/><rect x="31.006944444444443" y="115.03472222222221" width="252.08333333333331" height="168.05555555555554" fill="url(#grad)" stroke="black"/><rect x="31.006944444444443" y="199.0625" width="84.02777777777777" height="84.02777777777777" fill="url(#grad)" stroke="black"/><rect x="115.03472222222221" y="199.0625" width="84.02777777777777" height="84.02777777777777" fill="url(#grad)" stroke="black"/><rect x="199.0625" y="199.0625" width="84.02777777777777" height="84.02777777777777" fill="url(#grad)" stroke="black"/><rect x="283.09027777777777" y="115.03472222222221" width="252.08333333333331" height="168.05555555555554" fill="url(#grad)" stroke="black"/><rect x="283.09027777777777" y="199.0625" width="84.02777777777777" height="84.02777777777777" fill="url(#grad)" stroke="black"/><rect x="367.11805555555554" y="199.0625" width="84.02777777777777" height="84.02777777777777" fill="url(#grad)" stroke="black"/><rect x="451.1458333333333" y="199.0625" width="84.02777777777777" height="84.02777777777777" fill="url(#grad)" stroke="black"/><defs><linearGradient id="grad" x1="0%" y1="0%" x2="100%" y2="0%"><stop offset="0%" stop-color="rgb(255 204 0)"/><stop offset="50%" stop-color="white"/><stop offset="100%" stop-color="rgb(255 204 0)"/></linearGradient></defs><rect x="31.006944444444443" y="199.0625" width="504.16666666666663" height="252.08333333333331" fill="url(#grad)" stroke="black"/><rect x="283.09027777777777" y="199.0625" width="252.08333333333331" height="168.05555555555554" fill="url(#grad)" stroke="black"/><rect x="451.1458333333333" y="199.0625" width="84.02777777777777" height="84.02777777777777" fill="url(#grad)" stroke="black"/><rect x="367.11805555555554" y="199.0625" width="84.02777777777777" height="84.02777777777777" fill="url(#grad)" stroke="black"/><rect x="283.09027777777777" y="199.0625" width="84.02777777777777" height="84.02777777777777" fill="url(#grad)" stroke="black"/><rect x="31.006944444444443" y="199.0625" width="252.08333333333331" height="168.05555555555554" fill="url(#grad)" stroke="black"/><rect x="199.0625" y="199.0625" width="84.02777777777777" height="84.02777777777777" fill="url(#grad)" stroke="black"/><rect x="115.03472222222221" y="199.0625" width="84.02777777777777" height="84.02777777777777" fill="url(#grad)" stroke="black"/><rect x="31.006944444444443" y="199.0625" width="84.02777777777777" height="84.02777777777777" fill="url(#grad)" stroke="black"/><line x1="283.09027777777777" y1="52.013888888888886" x2="157.0486111111111" y2="136.04166666666666" stroke="rgb(0 159 227)" stroke-width="5"/><line x1="283.09027777777777" y1="52.013888888888886" x2="409.1319444444444" y2="136.04166666666666" stroke="rgb(0 159 227)" stroke-width="5"/><line x1="157.0486111111111" y1="136.04166666666666" x2="73.02083333333333" y2="220.06944444444443" stroke="rgb(0 159 227)" stroke-width="5"/><line x1="157.0486111111111" y1="136.04166666666666" x2="157.0486111111111" y2="220.06944444444443" stroke="rgb(0 159 227)" stroke-width="5"/><line x1="157.0486111111111" y1="136.04166666666666" x2="241.07638888888886" y2="220.06944444444443" stroke="rgb(0 159 227)" stroke-width="5"/><line x1="409.1319444444444" y1="136.04166666666666" x2="325.10416666666663" y2="220.06944444444443" stroke="rgb(0 159 227)" stroke-width="5"/><line x1="409.1319444444444" y1="136.04166666666666" x2="409.1319444444444" y2="220.06944444444443" stroke="rgb(0 159 227)" stroke-width="5"/><line x1="409.1319444444444" y1="136.04166666666666" x2="493.1597222222222" y2="220.06944444444443" stroke="rgb(0 159 227)" stroke-width="5"/><line x1="283.09027777777777" y1="52.013888888888886" x2="157.0486111111111" y2="136.04166666666666" stroke="black"/><line x1="283.09027777777777" y1="52.013888888888886" x2="409.1319444444444" y2="136.04166666666666" stroke="black"/><line x1="157.0486111111111" y1="136.04166666666666" x2="73.02083333333333" y2="220.06944444444443" stroke="black"/><line x1="157.0486111111111" y1="136.04166666666666" x2="157.0486111111111" y2="220.06944444444443" stroke="black"/><line x1="157.0486111111111" y1="136.04166666666666" x2="241.07638888888886" y2="220.06944444444443" stroke="black"/><line x1="409.1319444444444" y1="136.04166666666666" x2="325.10416666666663" y2="220.06944444444443" stroke="black"/><line x1="409.1319444444444" y1="136.04166666666666" x2="409.1319444444444" y2="220.06944444444443" stroke="black"/><line x1="409.1319444444444" y1="136.04166666666666" x2="493.1597222222222" y2="220.06944444444443" stroke="black"/><circle cx="283.09027777777777" cy="52.013888888888886" r="10" fill="rgb(229 0 125)" stroke="black" stroke-width="2"/><circle cx="157.0486111111111" cy="136.04166666666666" r="10" fill="rgb(229 0 125)" stroke="black" stroke-width="2"/><circle cx="73.02083333333333" cy="220.06944444444443" r="10" fill="rgb(229 0 125)" stroke="black" stroke-width="2"/><circle cx="157.0486111111111" cy="220.06944444444443" r="10" fill="rgb(229 0 125)" stroke="black" stroke-width="2"/><circle cx="241.07638888888886" cy="220.06944444444443" r="10" fill="rgb(229 0 125)" stroke="black" stroke-width="2"/><circle cx="409.1319444444444" cy="136.04166666666666" r="10" fill="rgb(229 0 125)" stroke="black" stroke-width="2"/><circle cx="325.10416666666663" cy="220.06944444444443" r="10" fill="rgb(229 0 125)" stroke="black" stroke-width="2"/><circle cx="409.1319444444444" cy="220.06944444444443" r="10" fill="rgb(229 0 125)" stroke="black" stroke-width="2"/><circle cx="493.1597222222222" cy="220.06944444444443" r="10" fill="rgb(229 0 125)" stroke="black" stroke-width="2"/><line x1="283.09027777777777" y1="430.1388888888888" x2="409.13194444444446" y2="346.1111111111111" stroke="rgb(0 159 227)" stroke-width="5"/><line x1="283.09027777777777" y1="430.1388888888888" x2="157.04861111111114" y2="346.1111111111111" stroke="rgb(0 159 227)" stroke-width="5"/><line x1="409.13194444444446" y1="346.1111111111111" x2="493.15972222222223" y2="262.08333333333326" stroke="rgb(0 159 227)" stroke-width="5"/><line x1="409.13194444444446" y1="346.1111111111111" x2="409.13194444444446" y2="262.08333333333326" stroke="rgb(0 159 227)" stroke-width="5"/><line x1="409.13194444444446" y1="346.1111111111111" x2="325.1041666666667" y2="262.08333333333326" stroke="rgb(0 159 227)" stroke-width="5"/><line x1="157.04861111111114" y1="346.1111111111111" x2="241.0763888888889" y2="262.08333333333326" stroke="rgb(0 159 227)" stroke-width="5"/><line x1="157.04861111111114" y1="346.1111111111111" x2="157.04861111111114" y2="262.08333333333326" stroke="rgb(0 159 227)" stroke-width="5"/><line x1="157.04861111111114" y1="346.1111111111111" x2="73.02083333333337" y2="262.08333333333326" stroke="rgb(0 159 227)" stroke-width="5"/><line x1="283.09027777777777" y1="430.1388888888888" x2="409.13194444444446" y2="346.1111111111111" stroke="black"/><line x1="283.09027777777777" y1="430.1388888888888" x2="157.04861111111114" y2="346.1111111111111" stroke="black"/><line x1="409.13194444444446" y1="346.1111111111111" x2="493.15972222222223" y2="262.08333333333326" stroke="black"/><line x1="409.13194444444446" y1="346.1111111111111" x2="409.13194444444446" y2="262.08333333333326" stroke="black"/><line x1="409.13194444444446" y1="346.1111111111111" x2="325.1041666666667" y2="262.08333333333326" stroke="black"/><line x1="157.04861111111114" y1="346.1111111111111" x2="241.0763888888889" y2="262.08333333333326" stroke="black"/><line x1="157.04861111111114" y1="346.1111111111111" x2="157.04861111111114" y2="262.08333333333326" stroke="black"/><line x1="157.04861111111114" y1="346.1111111111111" x2="73.02083333333337" y2="262.08333333333326" stroke="black"/><circle cx="283.09027777777777" cy="430.1388888888888" r="10" fill="rgb(229 0 125)" stroke="black" stroke-width="2"/><circle cx="409.13194444444446" cy="346.1111111111111" r="10" fill="rgb(229 0 125)" stroke="black" stroke-width="2"/><circle cx="493.15972222222223" cy="262.08333333333326" r="10" fill="rgb(229 0 125)" stroke="black" stroke-width="2"/><circle cx="409.13194444444446" cy="262.08333333333326" r="10" fill="rgb(229 0 125)" stroke="black" stroke-width="2"/><circle cx="325.1041666666667" cy="262.08333333333326" r="10" fill="rgb(229 0 125)" stroke="black" stroke-width="2"/><circle cx="157.04861111111114" cy="346.1111111111111" r="10" fill="rgb(229 0 125)" stroke="black" stroke-width="2"/><circle cx="241.0763888888889" cy="262.08333333333326" r="10" fill="rgb(229 0 125)" stroke="black" stroke-width="2"/><circle cx="157.04861111111114" cy="262.08333333333326" r="10" fill="rgb(229 0 125)" stroke="black" stroke-width="2"/><circle cx="73.02083333333337" cy="262.08333333333326" r="10" fill="rgb(229 0 125)" stroke="black" stroke-width="2"/></svg>