<svg xmlns="http://www.w3.org/2000/svg" width="524.8668981481483" height="498.95833333333337" style="background: white;"><line x1="262.43344907407413" y1="35.208333333333336" x2="136.39178240740745" y2="85.625" stroke="rgb(0 159 227)" stroke-width="5"/><line x1="262.43344907407413" y1="35.208333333333336" x2="388.4751157407408" y2="85.625" stroke="rgb(0 159 227)" stroke-width="5"/><line x1="136.39178240740745" y1="85.625" x2="41.86053240740742" y2="136.04166666666669" stroke="rgb(0 159 227)" stroke-width="5"/><line x1="136.39178240740745" y1="85.625" x2="104.88136574074076" y2="136.04166666666669" stroke="rgb(0 159 227)" stroke-width="5"/><line x1="136.39178240740745" y1="85.625" x2="167.9021990740741" y2="136.04166666666669" stroke="rgb(0 159 227)" stroke-width="5"/><line x1="136.39178240740745" y1="85.625" x2="230.92303240740745" y2="136.04166666666669" stroke="rgb(0 159 227)" stroke-width="5"/><line x1="41.86053240740742" y1="136.04166666666669" x2="20.853587962962965" y2="186.45833333333334" stroke="rgb(0 159 227)" stroke-width="5"/><line x1="41.86053240740742" y1="136.04166666666669" x2="41.86053240740742" y2="186.45833333333334" stroke="rgb(0 159 227)" stroke-width="5"/><line x1="41.86053240740742" y1="136.04166666666669" x2="62.86747685185186" y2="186.45833333333334" stroke="rgb(0 159 227)" stroke-width="5"/><line x1="20.853587962962965" y1="186.45833333333334" x2="13.851273148148149" y2="236.87500000000003" stroke="rgb(0 159 227)" stroke-width="5"/><line x1="20.853587962962965" y1="186.45833333333334" x2="20.853587962962965" y2="236.87500000000003" stroke="rgb(0 159 227)" stroke-width="5"/><line x1="20.853587962962965" y1="186.45833333333334" x2="27.855902777777782" y2="236.87500000000003" stroke="rgb(0 159 227)" stroke-width="5"/><line x1="41.86053240740742" y1="186.45833333333334" x2="34.858217592592595" y2="236.87500000000003" stroke="rgb(0 159 227)" stroke-width="5"/><line x1="41.86053240740742" y1="186.45833333333334" x2="41.86053240740742" y2="236.87500000000003" stroke="rgb(0 159 227)" stroke-width="5"/><line x1="41.86053240740742" y1="186.45833333333334" x2="48.86284722222223" y2="236.87500000000003" stroke="rgb(0 159 227)" stroke-width="5"/><line x1="62.86747685185186" y1="186.45833333333334" x2="55.865162037037045" y2="236.87500000000003" stroke="rgb(0 159 227)" stroke-width="5"/><line x1="62.86747685185186" y1="186.45833333333334" x2="62.86747685185186" y2="236.87500000000003" stroke="rgb(0 159 227)" stroke-width="5"/><line x1="62.86747685185186" y1="186.45833333333334" x2="69.86979166666669" y2="236.87500000000003" stroke="rgb(0 159 227)" stroke-width="5"/><line x1="104.88136574074076" y1="136.04166666666669" x2="83.8744212962963" y2="186.45833333333334" stroke="rgb(0 159 227)" stroke-width="5"/><line x1="104.88136574074076" y1="136.04166666666669" x2="104.88136574074076" y2="186.45833333333334" stroke="rgb(0 159 227)" stroke-width="5"/><line x1="104.88136574074076" y1="136.04166666666669" x2="125.8883101851852" y2="186.45833333333334" stroke="rgb(0 159 227)" stroke-width="5"/><line x1="83.8744212962963" y1="186.45833333333334" x2="76.8721064814815" y2="236.87500000000003" stroke="rgb(0 159 227)" stroke-width="5"/><line x1="83.8744212962963" y1="186.45833333333334" x2="83.8744212962963" y2="236.87500000000003" stroke="rgb(0 159 227)" stroke-width="5"/><line x1="83.8744212962963" y1="186.45833333333334" x2="90.87673611111113" y2="236.87500000000003" stroke="rgb(0 159 227)" stroke-width="5"/><line x1="104.88136574074076" y1="186.45833333333334" x2="97.87905092592594" y2="236.87500000000003" stroke="rgb(0 159 227)" stroke-width="5"/><line x1="104.88136574074076" y1="186.45833333333334" x2="104.88136574074076" y2="236.87500000000003" stroke="rgb(0 159 227)" stroke-width="5"/><line x1="104.88136574074076" y1="186.45833333333334" x2="111.88368055555557" y2="236.87500000000003" stroke="rgb(0 159 227)" stroke-width="5"/><line x1="125.8883101851852" y1="186.45833333333334" x2="118.8859953703704" y2="236.87500000000003" stroke="rgb(0 159 227)" stroke-width="5"/><line x1="125.8883101851852" y1="186.45833333333334" x2="125.8883101851852" y2="236.87500000000003" stroke="rgb(0 159 227)" stroke-width="5"/><line x1="125.8883101851852" y1="186.45833333333334" x2="132.89062500000003" y2="236.87500000000003" stroke="rgb(0 159 227)" stroke-width="5"/><line x1="167.9021990740741" y1="136.04166666666669" x2="146.89525462962965" y2="186.45833333333334" stroke="rgb(0 159 227)" stroke-width="5"/><line x1="167.9021990740741" y1="136.04166666666669" x2="167.9021990740741" y2="186.45833333333334" stroke="rgb(0 159 227)" stroke-width="5"/><line x1="167.9021990740741" y1="136.04166666666669" x2="188.90914351851856" y2="186.45833333333334" stroke="rgb(0 159 227)" stroke-width="5"/><line x1="146.89525462962965" y1="186.45833333333334" x2="139.89293981481484" y2="236.87500000000003" stroke="rgb(0 159 227)" stroke-width="5"/><line x1="146.89525462962965" y1="186.45833333333334" x2="146.89525462962965" y2="236.87500000000003" stroke="rgb(0 159 227)" stroke-width="5"/><line x1="146.89525462962965" y1="186.45833333333334" x2="153.89756944444449" y2="236.87500000000003" stroke="rgb(0 159 227)" stroke-width="5"/><line x1="167.9021990740741" y1="186.45833333333334" x2="160.8998842592593" y2="236.87500000000003" stroke="rgb(0 159 227)" stroke-width="5"/><line x1="167.9021990740741" y1="186.45833333333334" x2="167.9021990740741" y2="236.87500000000003" stroke="rgb(0 159 227)" stroke-width="5"/><line x1="167.9021990740741" y1="186.45833333333334" x2="174.9045138888889" y2="236.87500000000003" stroke="rgb(0 159 227)" stroke-width="5"/><line x1="188.90914351851856" y1="186.45833333333334" x2="181.90682870370375" y2="236.87500000000003" stroke="rgb(0 159 227)" stroke-width="5"/><line x1="188.90914351851856" y1="186.45833333333334" x2="188.90914351851856" y2="236.87500000000003" stroke="rgb(0 159 227)" stroke-width="5"/><line x1="188.90914351851856" y1="186.45833333333334" x2="195.91145833333337" y2="236.87500000000003" stroke="rgb(0 159 227)" stroke-width="5"/><line x1="230.92303240740745" y1="136.04166666666669" x2="209.916087962963" y2="186.45833333333334" stroke="rgb(0 159 227)" stroke-width="5"/><line x1="230.92303240740745" y1="136.04166666666669" x2="230.92303240740745" y2="186.45833333333334" stroke="rgb(0 159 227)" stroke-width="5"/><line x1="230.92303240740745" y1="136.04166666666669" x2="251.9299768518519" y2="186.45833333333334" stroke="rgb(0 159 227)" stroke-width="5"/><line x1="209.916087962963" y1="186.45833333333334" x2="202.91377314814818" y2="236.87500000000003" stroke="rgb(0 159 227)" stroke-width="5"/><line x1="209.916087962963" y1="186.45833333333334" x2="209.916087962963" y2="236.87500000000003" stroke="rgb(0 159 227)" stroke-width="5"/><line x1="209.916087962963" y1="186.45833333333334" x2="216.91840277777783" y2="236.87500000000003" stroke="rgb(0 159 227)" stroke-width="5"/><line x1="230.92303240740745" y1="186.45833333333334" x2="223.92071759259264" y2="236.87500000000003" stroke="rgb(0 159 227)" stroke-width="5"/><line x1="230.92303240740745" y1="186.45833333333334" x2="230.92303240740745" y2="236.87500000000003" stroke="rgb(0 159 227)" stroke-width="5"/><line x1="230.92303240740745" y1="186.45833333333334" x2="237.92534722222226" y2="236.87500000000003" stroke="rgb(0 159 227)" stroke-width="5"/><line x1="251.9299768518519" y1="186.45833333333334" x2="244.9276620370371" y2="236.87500000000003" stroke="rgb(0 159 227)" stroke-width="5"/><line x1="251.9299768518519" y1="186.45833333333334" x2="251.9299768518519" y2="236.87500000000003" stroke="rgb(0 159 227)" stroke-width="5"/><line x1="251.9299768518519" y1="186.45833333333334" x2="258.93229166666674" y2="236.87500000000003" stroke="rgb(0 159 227)" stroke-width="5"/><line x1="388.4751157407408" y1="85.625" x2="283.4403935185186" y2="136.04166666666669" stroke="rgb(0 159 227)" stroke-width="5"/><line x1="388.4751157407408" y1="85.625" x2="325.45428240740745" y2="136.04166666666669" stroke="rgb(0 159 227)" stroke-width="5"/><line x1="388.4751157407408" y1="85.625" x2="367.46817129629636" y2="136.04166666666669" stroke="rgb(0 159 227)" stroke-width="5"/><line x1="388.4751157407408" y1="85.625" x2="409.4820601851853" y2="136.04166666666669" stroke="rgb(0 159 227)" stroke-width="5"/><line x1="388.4751157407408" y1="85.625" x2="451.4959490740742" y2="136.04166666666669" stroke="rgb(0 159 227)" stroke-width="5"/><line x1="388.4751157407408" y1="85.625" x2="493.50983796296305" y2="136.04166666666669" stroke="rgb(0 159 227)" stroke-width="5"/><line x1="283.4403935185186" y1="136.04166666666669" x2="265.9346064814815" y2="186.45833333333334" stroke="rgb(0 159 227)" stroke-width="5"/><line x1="283.4403935185186" y1="136.04166666666669" x2="272.93692129629636" y2="186.45833333333334" stroke="rgb(0 159 227)" stroke-width="5"/><line x1="283.4403935185186" y1="136.04166666666669" x2="279.93923611111114" y2="186.45833333333334" stroke="rgb(0 159 227)" stroke-width="5"/><line x1="283.4403935185186" y1="136.04166666666669" x2="286.941550925926" y2="186.45833333333334" stroke="rgb(0 159 227)" stroke-width="5"/><line x1="283.4403935185186" y1="136.04166666666669" x2="293.9438657407408" y2="186.45833333333334" stroke="rgb(0 159 227)" stroke-width="5"/><line x1="283.4403935185186" y1="136.04166666666669" x2="300.9461805555556" y2="186.45833333333334" stroke="rgb(0 159 227)" stroke-width="5"/><line x1="325.45428240740745" y1="136.04166666666669" x2="307.94849537037044" y2="186.45833333333334" stroke="rgb(0 159 227)" stroke-width="5"/><line x1="325.45428240740745" y1="136.04166666666669" x2="314.9508101851852" y2="186.45833333333334" stroke="rgb(0 159 227)" stroke-width="5"/><line x1="325.45428240740745" y1="136.04166666666669" x2="321.95312500000006" y2="186.45833333333334" stroke="rgb(0 159 227)" stroke-width="5"/><line x1="325.45428240740745" y1="136.04166666666669" x2="328.9554398148149" y2="186.45833333333334" stroke="rgb(0 159 227)" stroke-width="5"/><line x1="325.45428240740745" y1="136.04166666666669" x2="335.9577546296297" y2="186.45833333333334" stroke="rgb(0 159 227)" stroke-width="5"/><line x1="325.45428240740745" y1="136.04166666666669" x2="342.9600694444445" y2="186.45833333333334" stroke="rgb(0 159 227)" stroke-width="5"/><line x1="367.46817129629636" y1="136.04166666666669" x2="349.96238425925935" y2="186.45833333333334" stroke="rgb(0 159 227)" stroke-width="5"/><line x1="367.46817129629636" y1="136.04166666666669" x2="356.96469907407413" y2="186.45833333333334" stroke="rgb(0 159 227)" stroke-width="5"/><line x1="367.46817129629636" y1="136.04166666666669" x2="363.96701388888897" y2="186.45833333333334" stroke="rgb(0 159 227)" stroke-width="5"/><line x1="367.46817129629636" y1="136.04166666666669" x2="370.96932870370375" y2="186.45833333333334" stroke="rgb(0 159 227)" stroke-width="5"/><line x1="367.46817129629636" y1="136.04166666666669" x2="377.9716435185186" y2="186.45833333333334" stroke="rgb(0 159 227)" stroke-width="5"/><line x1="367.46817129629636" y1="136.04166666666669" x2="384.9739583333334" y2="186.45833333333334" stroke="rgb(0 159 227)" stroke-width="5"/><line x1="409.4820601851853" y1="136.04166666666669" x2="391.9762731481482" y2="186.45833333333334" stroke="rgb(0 159 227)" stroke-width="5"/><line x1="409.4820601851853" y1="136.04166666666669" x2="398.97858796296305" y2="186.45833333333334" stroke="rgb(0 159 227)" stroke-width="5"/><line x1="409.4820601851853" y1="136.04166666666669" x2="405.9809027777779" y2="186.45833333333334" stroke="rgb(0 159 227)" stroke-width="5"/><line x1="409.4820601851853" y1="136.04166666666669" x2="412.98321759259267" y2="186.45833333333334" stroke="rgb(0 159 227)" stroke-width="5"/><line x1="409.4820601851853" y1="136.04166666666669" x2="419.9855324074075" y2="186.45833333333334" stroke="rgb(0 159 227)" stroke-width="5"/><line x1="409.4820601851853" y1="136.04166666666669" x2="426.9878472222223" y2="186.45833333333334" stroke="rgb(0 159 227)" stroke-width="5"/><line x1="451.4959490740742" y1="136.04166666666669" x2="433.9901620370371" y2="186.45833333333334" stroke="rgb(0 159 227)" stroke-width="5"/><line x1="451.4959490740742" y1="136.04166666666669" x2="440.99247685185196" y2="186.45833333333334" stroke="rgb(0 159 227)" stroke-width="5"/><line x1="451.4959490740742" y1="136.04166666666669" x2="447.99479166666674" y2="186.45833333333334" stroke="rgb(0 159 227)" stroke-width="5"/><line x1="451.4959490740742" y1="136.04166666666669" x2="454.9971064814816" y2="186.45833333333334" stroke="rgb(0 159 227)" stroke-width="5"/><line x1="451.4959490740742" y1="136.04166666666669" x2="461.99942129629636" y2="186.45833333333334" stroke="rgb(0 159 227)" stroke-width="5"/><line x1="451.4959490740742" y1="136.04166666666669" x2="469.0017361111112" y2="186.45833333333334" stroke="rgb(0 159 227)" stroke-width="5"/><line x1="493.50983796296305" y1="136.04166666666669" x2="476.00405092592604" y2="186.45833333333334" stroke="rgb(0 159 227)" stroke-width="5"/><line x1="493.50983796296305" y1="136.04166666666669" x2="483.0063657407408" y2="186.45833333333334" stroke="rgb(0 159 227)" stroke-width="5"/><line x1="493.50983796296305" y1="136.04166666666669" x2="490.00868055555566" y2="186.45833333333334" stroke="rgb(0 159 227)" stroke-width="5"/><line x1="493.50983796296305" y1="136.04166666666669" x2="497.0109953703705" y2="186.45833333333334" stroke="rgb(0 159 227)" stroke-width="5"/><line x1="493.50983796296305" y1="136.04166666666669" x2="504.0133101851853" y2="186.45833333333334" stroke="rgb(0 159 227)" stroke-width="5"/><line x1="493.50983796296305" y1="136.04166666666669" x2="511.0156250000001" y2="186.45833333333334" stroke="rgb(0 159 227)" stroke-width="5"/><line x1="262.43344907407413" y1="35.208333333333336" x2="136.39178240740745" y2="85.625" stroke="black"/><line x1="262.43344907407413" y1="35.208333333333336" x2="388.4751157407408" y2="85.625" stroke="black"/><line x1="136.39178240740745" y1="85.625" x2="41.86053240740742" y2="136.04166666666669" stroke="black"/><line x1="136.39178240740745" y1="85.625" x2="104.88136574074076" y2="136.04166666666669" stroke="black"/><line x1="136.39178240740745" y1="85.625" x2="167.9021990740741" y2="136.04166666666669" stroke="black"/><line x1="136.39178240740745" y1="85.625" x2="230.92303240740745" y2="136.04166666666669" stroke="black"/><line x1="41.86053240740742" y1="136.04166666666669" x2="20.853587962962965" y2="186.45833333333334" stroke="black"/><line x1="41.86053240740742" y1="136.04166666666669" x2="41.86053240740742" y2="186.45833333333334" stroke="black"/><line x1="41.86053240740742" y1="136.04166666666669" x2="62.86747685185186" y2="186.45833333333334" stroke="black"/><line x1="20.853587962962965" y1="186.45833333333334" x2="13.851273148148149" y2="236.87500000000003" stroke="black"/><line x1="20.853587962962965" y1="186.45833333333334" x2="20.853587962962965" y2="236.87500000000003" stroke="black"/><line x1="20.853587962962965" y1="186.45833333333334" x2="27.855902777777782" y2="236.87500000000003" stroke="black"/><line x1="41.86053240740742" y1="186.45833333333334" x2="34.858217592592595" y2="236.87500000000003" stroke="black"/><line x1="41.86053240740742" y1="186.45833333333334" x2="41.86053240740742" y2="236.87500000000003" stroke="black"/><line x1="41.86053240740742" y1="186.45833333333334" x2="48.86284722222223" y2="236.87500000000003" stroke="black"/><line x1="62.86747685185186" y1="186.45833333333334" x2="55.865162037037045" y2="236.87500000000003" stroke="black"/><line x1="62.86747685185186" y1="186.45833333333334" x2="62.86747685185186" y2="236.87500000000003" stroke="black"/><line x1="62.86747685185186" y1="186.45833333333334" x2="69.86979166666669" y2="236.87500000000003" stroke="black"/><line x1="104.88136574074076" y1="136.04166666666669" x2="83.8744212962963" y2="186.45833333333334" stroke="black"/><line x1="104.88136574074076" y1="136.04166666666669" x2="104.88136574074076" y2="186.45833333333334" stroke="black"/><line x1="104.88136574074076" y1="136.04166666666669" x2="125.8883101851852" y2="186.45833333333334" stroke="black"/><line x1="83.8744212962963" y1="186.45833333333334" x2="76.8721064814815" y2="236.87500000000003" stroke="black"/><line x1="83.8744212962963" y1="186.45833333333334" x2="83.8744212962963" y2="236.87500000000003" stroke="black"/><line x1="83.8744212962963" y1="186.45833333333334" x2="90.87673611111113" y2="236.87500000000003" stroke="black"/><line x1="104.88136574074076" y1="186.45833333333334" x2="97.87905092592594" y2="236.87500000000003" stroke="black"/><line x1="104.88136574074076" y1="186.45833333333334" x2="104.88136574074076" y2="236.87500000000003" stroke="black"/><line x1="104.88136574074076" y1="186.45833333333334" x2="111.88368055555557" y2="236.87500000000003" stroke="black"/><line x1="125.8883101851852" y1="186.45833333333334" x2="118.8859953703704" y2="236.87500000000003" stroke="black"/><line x1="125.8883101851852" y1="186.45833333333334" x2="125.8883101851852" y2="236.87500000000003" stroke="black"/><line x1="125.8883101851852" y1="186.45833333333334" x2="132.89062500000003" y2="236.87500000000003" stroke="black"/><line x1="167.9021990740741" y1="136.04166666666669" x2="146.89525462962965" y2="186.45833333333334" stroke="black"/><line x1="167.9021990740741" y1="136.04166666666669" x2="167.9021990740741" y2="186.45833333333334" stroke="black"/><line x1="167.9021990740741" y1="136.04166666666669" x2="188.90914351851856" y2="186.45833333333334" stroke="black"/><line x1="146.89525462962965" y1="186.45833333333334" x2="139.89293981481484" y2="236.87500000000003" stroke="black"/><line x1="146.89525462962965" y1="186.45833333333334" x2="146.89525462962965" y2="236.87500000000003" stroke="black"/><line x1="146.89525462962965" y1="186.45833333333334" x2="153.89756944444449" y2="236.87500000000003" stroke="black"/><line x1="167.9021990740741" y1="186.45833333333334" x2="160.8998842592593" y2="236.87500000000003" stroke="black"/><line x1="167.9021990740741" y1="186.45833333333334" x2="167.9021990740741" y2="236.87500000000003" stroke="black"/><line x1="167.9021990740741" y1="186.45833333333334" x2="174.9045138888889" y2="236.87500000000003" stroke="black"/><line x1="188.90914351851856" y1="186.45833333333334" x2="181.90682870370375" y2="236.87500000000003" stroke="black"/><line x1="188.90914351851856" y1="186.45833333333334" x2="188.90914351851856" y2="236.87500000000003" stroke="black"/><line x1="188.90914351851856" y1="186.45833333333334" x2="195.91145833333337" y2="236.87500000000003" stroke="black"/><line x1="230.92303240740745" y1="136.04166666666669" x2="209.916087962963" y2="186.45833333333334" stroke="black"/><line x1="230.92303240740745" y1="136.04166666666669" x2="230.92303240740745" y2="186.45833333333334" stroke="black"/><line x1="230.92303240740745" y1="136.04166666666669" x2="251.9299768518519" y2="186.45833333333334" stroke="black"/><line x1="209.916087962963" y1="186.45833333333334" x2="202.91377314814818" y2="236.87500000000003" stroke="black"/><line x1="209.916087962963" y1="186.45833333333334" x2="209.916087962963" y2="236.87500000000003" stroke="black"/><line x1="209.916087962963" y1="186.45833333333334" x2="216.91840277777783" y2="236.87500000000003" stroke="black"/><line x1="230.92303240740745" y1="186.45833333333334" x2="223.92071759259264" y2="236.87500000000003" stroke="black"/><line x1="230.92303240740745" y1="186.45833333333334" x2="230.92303240740745" y2="236.87500000000003" stroke="black"/><line x1="230.92303240740745" y1="186.45833333333334" x2="237.92534722222226" y2="236.87500000000003" stroke="black"/><line x1="251.9299768518519" y1="186.45833333333334" x2="244.9276620370371" y2="236.87500000000003" stroke="black"/><line x1="251.9299768518519" y1="186.45833333333334" x2="251.9299768518519" y2="236.87500000000003" stroke="black"/><line x1="251.9299768518519" y1="186.45833333333334" x2="258.93229166666674" y2="236.87500000000003" stroke="black"/><line x1="388.4751157407408" y1="85.625" x2="283.4403935185186" y2="136.04166666666669" stroke="black"/><line x1="388.4751157407408" y1="85.625" x2="325.45428240740745" y2="136.04166666666669" stroke="black"/><line x1="388.4751157407408" y1="85.625" x2="367.46817129629636" y2="136.04166666666669" stroke="black"/><line x1="388.4751157407408" y1="85.625" x2="409.4820601851853" y2="136.04166666666669" stroke="black"/><line x1="388.4751157407408" y1="85.625" x2="451.4959490740742" y2="136.04166666666669" stroke="black"/><line x1="388.4751157407408" y1="85.625" x2="493.50983796296305" y2="136.04166666666669" stroke="black"/><line x1="283.4403935185186" y1="136.04166666666669" x2="265.9346064814815" y2="186.45833333333334" stroke="black"/><line x1="283.4403935185186" y1="136.04166666666669" x2="272.93692129629636" y2="186.45833333333334" stroke="black"/><line x1="283.4403935185186" y1="136.04166666666669" x2="279.93923611111114" y2="186.45833333333334" stroke="black"/><line x1="283.4403935185186" y1="136.04166666666669" x2="286.941550925926" y2="186.45833333333334" stroke="black"/><line x1="283.4403935185186" y1="136.04166666666669" x2="293.9438657407408" y2="186.45833333333334" stroke="black"/><line x1="283.4403935185186" y1="136.04166666666669" x2="300.9461805555556" y2="186.45833333333334" stroke="black"/><line x1="325.45428240740745" y1="136.04166666666669" x2="307.94849537037044" y2="186.45833333333334" stroke="black"/><line x1="325.45428240740745" y1="136.04166666666669" x2="314.9508101851852" y2="186.45833333333334" stroke="black"/><line x1="325.45428240740745" y1="136.04166666666669" x2="321.95312500000006" y2="186.45833333333334" stroke="black"/><line x1="325.45428240740745" y1="136.04166666666669" x2="328.9554398148149" y2="186.45833333333334" stroke="black"/><line x1="325.45428240740745" y1="136.04166666666669" x2="335.9577546296297" y2="186.45833333333334" stroke="black"/><line x1="325.45428240740745" y1="136.04166666666669" x2="342.9600694444445" y2="186.45833333333334" stroke="black"/><line x1="367.46817129629636" y1="136.04166666666669" x2="349.96238425925935" y2="186.45833333333334" stroke="black"/><line x1="367.46817129629636" y1="136.04166666666669" x2="356.96469907407413" y2="186.45833333333334" stroke="black"/><line x1="367.46817129629636" y1="136.04166666666669" x2="363.96701388888897" y2="186.45833333333334" stroke="black"/><line x1="367.46817129629636" y1="136.04166666666669" x2="370.96932870370375" y2="186.45833333333334" stroke="black"/><line x1="367.46817129629636" y1="136.04166666666669" x2="377.9716435185186" y2="186.45833333333334" stroke="black"/><line x1="367.46817129629636" y1="136.04166666666669" x2="384.9739583333334" y2="186.45833333333334" stroke="black"/><line x1="409.4820601851853" y1="136.04166666666669" x2="391.9762731481482" y2="186.45833333333334" stroke="black"/><line x1="409.4820601851853" y1="136.04166666666669" x2="398.97858796296305" y2="186.45833333333334" stroke="black"/><line x1="409.4820601851853" y1="136.04166666666669" x2="405.9809027777779" y2="186.45833333333334" stroke="black"/><line x1="409.4820601851853" y1="136.04166666666669" x2="412.98321759259267" y2="186.45833333333334" stroke="black"/><line x1="409.4820601851853" y1="136.04166666666669" x2="419.9855324074075" y2="186.45833333333334" stroke="black"/><line x1="409.4820601851853" y1="136.04166666666669" x2="426.9878472222223" y2="186.45833333333334" stroke="black"/><line x1="451.4959490740742" y1="136.04166666666669" x2="433.9901620370371" y2="186.45833333333334" stroke="black"/><line x1="451.4959490740742" y1="136.04166666666669" x2="440.99247685185196" y2="186.45833333333334" stroke="black"/><line x1="451.4959490740742" y1="136.04166666666669" x2="447.99479166666674" y2="186.45833333333334" stroke="black"/><line x1="451.4959490740742" y1="136.04166666666669" x2="454.9971064814816" y2="186.45833333333334" stroke="black"/><line x1="451.4959490740742" y1="136.04166666666669" x2="461.99942129629636" y2="186.45833333333334" stroke="black"/><line x1="451.4959490740742" y1="136.04166666666669" x2="469.0017361111112" y2="186.45833333333334" stroke="black"/><line x1="493.50983796296305" y1="136.04166666666669" x2="476.00405092592604" y2="186.45833333333334" stroke="black"/><line x1="493.50983796296305" y1="136.04166666666669" x2="483.0063657407408" y2="186.45833333333334" stroke="black"/><line x1="493.50983796296305" y1="136.04166666666669" x2="490.00868055555566" y2="186.45833333333334" stroke="black"/><line x1="493.50983796296305" y1="136.04166666666669" x2="497.0109953703705" y2="186.45833333333334" stroke="black"/><line x1="493.50983796296305" y1="136.04166666666669" x2="504.0133101851853" y2="186.45833333333334" stroke="black"/><line x1="493.50983796296305" y1="136.04166666666669" x2="511.0156250000001" y2="186.45833333333334" stroke="black"/><circle cx="262.43344907407413" cy="35.208333333333336" r="10" fill="rgb(229 0 125)" stroke="black" stroke-width="2"/><circle cx="136.39178240740745" cy="85.625" r="10" fill="rgb(229 0 125)" stroke="black" stroke-width="2"/><circle cx="41.86053240740742" cy="136.04166666666669" r="10" fill="rgb(229 0 125)" stroke="black" stroke-width="2"/><circle cx="20.853587962962965" cy="186.45833333333334" r="10" fill="rgb(229 0 125)" stroke="black" stroke-width="2"/><circle cx="13.851273148148149" cy="236.87500000000003" r="10" fill="rgb(229 0 125)" stroke="black" stroke-width="2"/><circle cx="20.853587962962965" cy="236.87500000000003" r="10" fill="rgb(229 0 125)" stroke="black" stroke-width="2"/><circle cx="27.855902777777782" cy="236.87500000000003" r="10" fill="rgb(229 0 125)" stroke="black" stroke-width="2"/><circle cx="41.86053240740742" cy="186.45833333333334" r="10" fill="rgb(229 0 125)" stroke="black" stroke-width="2"/><circle cx="34.858217592592595" cy="236.87500000000003" r="10" fill="rgb(229 0 125)" stroke="black" stroke-width="2"/><circle cx="41.86053240740742" cy="236.87500000000003" r="10" fill="rgb(229 0 125)" stroke="black" stroke-width="2"/><circle cx="48.86284722222223" cy="236.87500000000003" r="10" fill="rgb(229 0 125)" stroke="black" stroke-width="2"/><circle cx="62.86747685185186" cy="186.45833333333334" r="10" fill="rgb(229 0 125)" stroke="black" stroke-width="2"/><circle cx="55.865162037037045" cy="236.87500000000003" r="10" fill="rgb(229 0 125)" stroke="black" stroke-width="2"/><circle cx="62.86747685185186" cy="236.87500000000003" r="10" fill="rgb(229 0 125)" stroke="black" stroke-width="2"/><circle cx="69.86979166666669" cy="236.87500000000003" r="10" fill="rgb(229 0 125)" stroke="black" stroke-width="2"/><circle cx="104.88136574074076" cy="136.04166666666669" r="10" fill="rgb(229 0 125)" stroke="black" stroke-width="2"/><circle cx="83.8744212962963" cy="186.45833333333334" r="10" fill="rgb(229 0 125)" stroke="black" stroke-width="2"/><circle cx="76.8721064814815" cy="236.87500000000003" r="10" fill="rgb(229 0 125)" stroke="black" stroke-width="2"/><circle cx="83.8744212962963" cy="236.87500000000003" r="10" fill="rgb(229 0 125)" stroke="black" stroke-width="2"/><circle cx="90.87673611111113" cy="236.87500000000003" r="10" fill="rgb(229 0 125)" stroke="black" stroke-width="2"/><circle cx="104.88136574074076" cy="186.45833333333334" r="10" fill="rgb(229 0 125)" stroke="black" stroke-width="2"/><circle cx="97.87905092592594" cy="236.87500000000003" r="10" fill="rgb(229 0 125)" stroke="black" stroke-width="2"/><circle cx="104.88136574074076" cy="236.87500000000003" r="10" fill="rgb(229 0 125)" stroke="black" stroke-width="2"/><circle cx="111.88368055555557" cy="236.87500000000003" r="10" fill="rgb(229 0 125)" stroke="black" stroke-width="2"/><circle cx="125.8883101851852" cy="186.45833333333334" r="10" fill="rgb(229 0 125)" stroke="black" stroke-width="2"/><circle cx="118.8859953703704" cy="236.87500000000003" r="10" fill="rgb(229 0 125)" stroke="black" stroke-width="2"/><circle cx="125.8883101851852" cy="236.87500000000003" r="10" fill="rgb(229 0 125)" stroke="black" stroke-width="2"/><circle cx="132.89062500000003" cy="236.87500000000003" r="10" fill="rgb(229 0 125)" stroke="black" stroke-width="2"/><circle cx="167.9021990740741" cy="136.04166666666669" r="10" fill="rgb(229 0 125)" stroke="black" stroke-width="2"/><circle cx="146.89525462962965" cy="186.45833333333334" r="10" fill="rgb(229 0 125)" stroke="black" stroke-width="2"/><circle cx="139.89293981481484" cy="236.87500000000003" r="10" fill="rgb(229 0 125)" stroke="black" stroke-width="2"/><circle cx="146.89525462962965" cy="236.87500000000003" r="10" fill="rgb(229 0 125)" stroke="black" stroke-width="2"/><circle cx="153.89756944444449" cy="236.87500000000003" r="10" fill="rgb(229 0 125)" stroke="black" stroke-width="2"/><circle cx="167.9021990740741" cy="186.45833333333334" r="10" fill="rgb(229 0 125)" stroke="black" stroke-width="2"/><circle cx="160.8998842592593" cy="236.87500000000003" r="10" fill="rgb(229 0 125)" stroke="black" stroke-width="2"/><circle cx="167.9021990740741" cy="236.87500000000003" r="10" fill="rgb(229 0 125)" stroke="black" stroke-width="2"/><circle cx="174.9045138888889" cy="236.87500000000003" r="10" fill="rgb(229 0 125)" stroke="black" stroke-width="2"/><circle cx="188.90914351851856" cy="186.45833333333334" r="10" fill="rgb(229 0 125)" stroke="black" stroke-width="2"/><circle cx="181.90682870370375" cy="236.87500000000003" r="10" fill="rgb(229 0 125)" stroke="black" stroke-width="2"/><circle cx="188.90914351851856" cy="236.87500000000003" r="10" fill="rgb(229 0 125)" stroke="black" stroke-width="2"/><circle cx="195.91145833333337" cy="236.87500000000003" r="10" fill="rgb(229 0 125)" stroke="black" stroke-width="2"/><circle cx="230.92303240740745" cy="136.04166666666669" r="10" fill="rgb(229 0 125)" stroke="black" stroke-width="2"/><circle cx="209.916087962963" cy="186.45833333333334" r="10" fill="rgb(229 0 125)" stroke="black" stroke-width="2"/><circle cx="202.91377314814818" cy="236.87500000000003" r="10" fill="rgb(229 0 125)" stroke="black" stroke-width="2"/><circle cx="209.916087962963" cy="236.87500000000003" r="10" fill="rgb(229 0 125)" stroke="black" stroke-width="2"/><circle cx="216.91840277777783" cy="236.87500000000003" r="10" fill="rgb(229 0 125)" stroke="black" stroke-width="2"/><circle cx="230.92303240740745" cy="186.45833333333334" r="10" fill="rgb(229 0 125)" stroke="black" stroke-width="2"/><circle cx="223.92071759259264" cy="236.87500000000003" r="10" fill="rgb(229 0 125)" stroke="black" stroke-width="2"/><circle cx="230.92303240740745" cy="236.87500000000003" r="10" fill="rgb(229 0 125)" stroke="black" stroke-width="2"/><circle cx="237.92534722222226" cy="236.87500000000003" r="10" fill="rgb(229 0 125)" stroke="black" stroke-width="2"/><circle cx="251.9299768518519" cy="186.45833333333334" r="10" fill="rgb(229 0 125)" stroke="black" stroke-width="2"/><circle cx="244.9276620370371" cy="236.87500000000003" r="10" fill="rgb(229 0 125)" stroke="black" stroke-width="2"/><circle cx="251.9299768518519" cy="236.87500000000003" r="10" fill="rgb(229 0 125)" stroke="black" stroke-width="2"/><circle cx="258.93229166666674" cy="236.87500000000003" r="10" fill="rgb(229 0 125)" stroke="black" stroke-width="2"/><circle cx="388.4751157407408" cy="85.625" r="10" fill="rgb(229 0 125)" stroke="black" stroke-width="2"/><circle cx="283.4403935185186" cy="136.04166666666669" r="10" fill="rgb(229 0 125)" stroke="black" stroke-width="2"/><circle cx="265.9346064814815" cy="186.45833333333334" r="10" fill="rgb(229 0 125)" stroke="black" stroke-width="2"/><circle cx="272.93692129629636" cy="186.45833333333334" r="10" fill="rgb(229 0 125)" stroke="black" stroke-width="2"/><circle cx="279.93923611111114" cy="186.45833333333334" r="10" fill="rgb(229 0 125)" stroke="black" stroke-width="2"/><circle cx="286.941550925926" cy="186.45833333333334" r="10" fill="rgb(229 0 125)" stroke="black" stroke-width="2"/><circle cx="293.9438657407408" cy="186.45833333333334" r="10" fill="rgb(229 0 125)" stroke="black" stroke-width="2"/><circle cx="300.9461805555556" cy="186.45833333333334" r="10" fill="rgb(229 0 125)" stroke="black" stroke-width="2"/><circle cx="325.45428240740745" cy="136.04166666666669" r="10" fill="rgb(229 0 125)" stroke="black" stroke-width="2"/><circle cx="307.94849537037044" cy="186.45833333333334" r="10" fill="rgb(229 0 125)" stroke="black" stroke-width="2"/><circle cx="314.9508101851852" cy="186.45833333333334" r="10" fill="rgb(229 0 125)" stroke="black" stroke-width="2"/><circle cx="321.95312500000006" cy="186.45833333333334" r="10" fill="rgb(229 0 125)" stroke="black" stroke-width="2"/><circle cx="328.9554398148149" cy="186.45833333333334" r="10" fill="rgb(229 0 125)" stroke="black" stroke-width="2"/><circle cx="335.9577546296297" cy="186.45833333333334" r="10" fill="rgb(229 0 125)" stroke="black" stroke-width="2"/><circle cx="342.9600694444445" cy="186.45833333333334" r="10" fill="rgb(229 0 125)" stroke="black" stroke-width="2"/><circle cx="367.46817129629636" cy="136.04166666666669" r="10" fill="rgb(229 0 125)" stroke="black" stroke-width="2"/><circle cx="349.96238425925935" cy="186.45833333333334" r="10" fill="rgb(229 0 125)" stroke="black" stroke-width="2"/><circle cx="356.96469907407413" cy="186.45833333333334" r="10" fill="rgb(229 0 125)" stroke="black" stroke-width="2"/><circle cx="363.96701388888897" cy="186.45833333333334" r="10" fill="rgb(229 0 125)" stroke="black" stroke-width="2"/><circle cx="370.96932870370375" cy="186.45833333333334" r="10" fill="rgb(229 0 125)" stroke="black" stroke-width="2"/><circle cx="377.9716435185186" cy="186.45833333333334" r="10" fill="rgb(229 0 125)" stroke="black" stroke-width="2"/><circle cx="384.9739583333334" cy="186.45833333333334" r="10" fill="rgb(229 0 125)" stroke="black" stroke-width="2"/><circle cx="409.4820601851853" cy="136.04166666666669" r="10" fill="rgb(229 0 125)" stroke="black" stroke-width="2"/><circle cx="391.9762731481482" cy="186.45833333333334" r="10" fill="rgb(229 0 125)" stroke="black" stroke-width="2"/><circle cx="398.97858796296305" cy="186.45833333333334" r="10" fill="rgb(229 0 125)" stroke="black" stroke-width="2"/><circle cx="405.9809027777779" cy="186.45833333333334" r="10" fill="rgb(229 0 125)" stroke="black" stroke-width="2"/><circle cx="412.98321759259267" cy="186.45833333333334" r="10" fill="rgb(229 0 125)" stroke="black" stroke-width="2"/><circle cx="419.9855324074075" cy="186.45833333333334" r="10" fill="rgb(229 0 125)" stroke="black" stroke-width="2"/><circle cx="426.9878472222223" cy="186.45833333333334" r="10" fill="rgb(229 0 125)" stroke="black" stroke-width="2"/><circle cx="451.4959490740742" cy="136.04166666666669" r="10" fill="rgb(229 0 125)" stroke="black" stroke-width="2"/><circle cx="433.9901620370371" cy="186.45833333333334" r="10" fill="rgb(229 0 125)" stroke="black" stroke-width="2"/><circle cx="440.99247685185196" cy="186.45833333333334" r="10" fill="rgb(229 0 125)" stroke="black" stroke-width="2"/><circle cx="447.99479166666674" cy="186.45833333333334" r="10" fill="rgb(229 0 125)" stroke="black" stroke-width="2"/><circle cx="454.9971064814816" cy="186.45833333333334" r="10" fill="rgb(229 0 125)" stroke="black" stroke-width="2"/><circle cx="461.99942129629636" cy="186.45833333333334" r="10" fill="rgb(229 0 125)" stroke="black" stroke-width="2"/><circle cx="469.0017361111112" cy="186.45833333333334" r="10" fill="rgb(229 0 125)" stroke="black" stroke-width="2"/><circle cx="493.50983796296305" cy="136.04166666666669" r="10" fill="rgb(229 0 125)" stroke="black" stroke-width="2"/><circle cx="476.00405092592604" cy="186.45833333333334" r="10" fill="rgb(229 0 125)" stroke="black" stroke-width="2"/><circle cx="483.0063657407408" cy="186.45833333333334" r="10" fill="rgb(229 0 125)" stroke="black" stroke-width="2"/><circle cx="490.00868055555566" cy="186.45833333333334" r="10" fill="rgb(229 0 125)" stroke="black" stroke-width="2"/><circle cx="497.0109953703705" cy="186.45833333333334" r="10" fill="rgb(229 0 125)" stroke="black" stroke-width="2"/><circle cx="504.0133101851853" cy="186.45833333333334" r="10" fill="rgb(229 0 125)" stroke="black" stroke-width="2"/><circle cx="511.0156250000001" cy="186.45833333333334" r="10" fill="rgb(229 0 125)" stroke="black" stroke-width="2"/><line x1="262.43344907407413" y1="463.75000000000006" x2="388.4751157407408" y2="413.33333333333337" stroke="rgb(0 159 227)" stroke-width="5"/><line x1="262.43344907407413" y1="463.75000000000006" x2="136.39178240740745" y2="413.33333333333337" stroke="rgb(0 159 227)" stroke-width="5"/><line x1="388.4751157407408" y1="413.33333333333337" x2="483.0063657407409" y2="362.9166666666667" stroke="rgb(0 159 227)" stroke-width="5"/><line x1="388.4751157407408" y1="413.33333333333337" x2="419.9855324074075" y2="362.9166666666667" stroke="rgb(0 159 227)" stroke-width="5"/><line x1="388.4751157407408" y1="413.33333333333337" x2="356.96469907407413" y2="362.9166666666667" stroke="rgb(0 159 227)" stroke-width="5"/><line x1="388.4751157407408" y1="413.33333333333337" x2="293.9438657407408" y2="362.9166666666667" stroke="rgb(0 159 227)" stroke-width="5"/><line x1="483.0063657407409" y1="362.9166666666667" x2="504.0133101851853" y2="312.5" stroke="rgb(0 159 227)" stroke-width="5"/><line x1="483.0063657407409" y1="362.9166666666667" x2="483.0063657407409" y2="312.5" stroke="rgb(0 159 227)" stroke-width="5"/><line x1="483.0063657407409" y1="362.9166666666667" x2="461.9994212962964" y2="312.5" stroke="rgb(0 159 227)" stroke-width="5"/><line x1="504.0133101851853" y1="312.5" x2="511.0156250000001" y2="262.08333333333337" stroke="rgb(0 159 227)" stroke-width="5"/><line x1="504.0133101851853" y1="312.5" x2="504.0133101851853" y2="262.08333333333337" stroke="rgb(0 159 227)" stroke-width="5"/><line x1="504.0133101851853" y1="312.5" x2="497.0109953703705" y2="262.08333333333337" stroke="rgb(0 159 227)" stroke-width="5"/><line x1="483.0063657407409" y1="312.5" x2="490.00868055555566" y2="262.08333333333337" stroke="rgb(0 159 227)" stroke-width="5"/><line x1="483.0063657407409" y1="312.5" x2="483.0063657407409" y2="262.08333333333337" stroke="rgb(0 159 227)" stroke-width="5"/><line x1="483.0063657407409" y1="312.5" x2="476.00405092592604" y2="262.08333333333337" stroke="rgb(0 159 227)" stroke-width="5"/><line x1="461.9994212962964" y1="312.5" x2="469.0017361111112" y2="262.08333333333337" stroke="rgb(0 159 227)" stroke-width="5"/><line x1="461.9994212962964" y1="312.5" x2="461.9994212962964" y2="262.08333333333337" stroke="rgb(0 159 227)" stroke-width="5"/><line x1="461.9994212962964" y1="312.5" x2="454.9971064814816" y2="262.08333333333337" stroke="rgb(0 159 227)" stroke-width="5"/><line x1="419.9855324074075" y1="362.9166666666667" x2="440.99247685185196" y2="312.5" stroke="rgb(0 159 227)" stroke-width="5"/><line x1="419.9855324074075" y1="362.9166666666667" x2="419.9855324074075" y2="312.5" stroke="rgb(0 159 227)" stroke-width="5"/><line x1="419.9855324074075" y1="362.9166666666667" x2="398.97858796296305" y2="312.5" stroke="rgb(0 159 227)" stroke-width="5"/><line x1="440.99247685185196" y1="312.5" x2="447.99479166666674" y2="262.08333333333337" stroke="rgb(0 159 227)" stroke-width="5"/><line x1="440.99247685185196" y1="312.5" x2="440.99247685185196" y2="262.08333333333337" stroke="rgb(0 159 227)" stroke-width="5"/><line x1="440.99247685185196" y1="312.5" x2="433.9901620370371" y2="262.08333333333337" stroke="rgb(0 159 227)" stroke-width="5"/><line x1="419.9855324074075" y1="312.5" x2="426.98784722222234" y2="262.08333333333337" stroke="rgb(0 159 227)" stroke-width="5"/><line x1="419.9855324074075" y1="312.5" x2="419.9855324074075" y2="262.08333333333337" stroke="rgb(0 159 227)" stroke-width="5"/><line x1="419.9855324074075" y1="312.5" x2="412.9832175925927" y2="262.08333333333337" stroke="rgb(0 159 227)" stroke-width="5"/><line x1="398.97858796296305" y1="312.5" x2="405.9809027777779" y2="262.08333333333337" stroke="rgb(0 159 227)" stroke-width="5"/><line x1="398.97858796296305" y1="312.5" x2="398.97858796296305" y2="262.08333333333337" stroke="rgb(0 159 227)" stroke-width="5"/><line x1="398.97858796296305" y1="312.5" x2="391.97627314814827" y2="262.08333333333337" stroke="rgb(0 159 227)" stroke-width="5"/><line x1="356.96469907407413" y1="362.9166666666667" x2="377.9716435185186" y2="312.5" stroke="rgb(0 159 227)" stroke-width="5"/><line x1="356.96469907407413" y1="362.9166666666667" x2="356.96469907407413" y2="312.5" stroke="rgb(0 159 227)" stroke-width="5"/><line x1="356.96469907407413" y1="362.9166666666667" x2="335.9577546296297" y2="312.5" stroke="rgb(0 159 227)" stroke-width="5"/><line x1="377.9716435185186" y1="312.5" x2="384.9739583333334" y2="262.08333333333337" stroke="rgb(0 159 227)" stroke-width="5"/><line x1="377.9716435185186" y1="312.5" x2="377.9716435185186" y2="262.08333333333337" stroke="rgb(0 159 227)" stroke-width="5"/><line x1="377.9716435185186" y1="312.5" x2="370.9693287037038" y2="262.08333333333337" stroke="rgb(0 159 227)" stroke-width="5"/><line x1="356.96469907407413" y1="312.5" x2="363.96701388888897" y2="262.08333333333337" stroke="rgb(0 159 227)" stroke-width="5"/><line x1="356.96469907407413" y1="312.5" x2="356.96469907407413" y2="262.08333333333337" stroke="rgb(0 159 227)" stroke-width="5"/><line x1="356.96469907407413" y1="312.5" x2="349.96238425925935" y2="262.08333333333337" stroke="rgb(0 159 227)" stroke-width="5"/><line x1="335.9577546296297" y1="312.5" x2="342.9600694444445" y2="262.08333333333337" stroke="rgb(0 159 227)" stroke-width="5"/><line x1="335.9577546296297" y1="312.5" x2="335.9577546296297" y2="262.08333333333337" stroke="rgb(0 159 227)" stroke-width="5"/><line x1="335.9577546296297" y1="312.5" x2="328.9554398148149" y2="262.08333333333337" stroke="rgb(0 159 227)" stroke-width="5"/><line x1="293.9438657407408" y1="362.9166666666667" x2="314.9508101851853" y2="312.5" stroke="rgb(0 159 227)" stroke-width="5"/><line x1="293.9438657407408" y1="362.9166666666667" x2="293.9438657407408" y2="312.5" stroke="rgb(0 159 227)" stroke-width="5"/><line x1="293.9438657407408" y1="362.9166666666667" x2="272.93692129629636" y2="312.5" stroke="rgb(0 159 227)" stroke-width="5"/><line x1="314.9508101851853" y1="312.5" x2="321.9531250000001" y2="262.08333333333337" stroke="rgb(0 159 227)" stroke-width="5"/><line x1="314.9508101851853" y1="312.5" x2="314.9508101851853" y2="262.08333333333337" stroke="rgb(0 159 227)" stroke-width="5"/><line x1="314.9508101851853" y1="312.5" x2="307.94849537037044" y2="262.08333333333337" stroke="rgb(0 159 227)" stroke-width="5"/><line x1="293.9438657407408" y1="312.5" x2="300.94618055555566" y2="262.08333333333337" stroke="rgb(0 159 227)" stroke-width="5"/><line x1="293.9438657407408" y1="312.5" x2="293.9438657407408" y2="262.08333333333337" stroke="rgb(0 159 227)" stroke-width="5"/><line x1="293.9438657407408" y1="312.5" x2="286.941550925926" y2="262.08333333333337" stroke="rgb(0 159 227)" stroke-width="5"/><line x1="272.93692129629636" y1="312.5" x2="279.9392361111112" y2="262.08333333333337" stroke="rgb(0 159 227)" stroke-width="5"/><line x1="272.93692129629636" y1="312.5" x2="272.93692129629636" y2="262.08333333333337" stroke="rgb(0 159 227)" stroke-width="5"/><line x1="272.93692129629636" y1="312.5" x2="265.9346064814815" y2="262.08333333333337" stroke="rgb(0 159 227)" stroke-width="5"/><line x1="136.39178240740745" y1="413.33333333333337" x2="241.42650462962968" y2="362.9166666666667" stroke="rgb(0 159 227)" stroke-width="5"/><line x1="136.39178240740745" y1="413.33333333333337" x2="199.41261574074082" y2="362.9166666666667" stroke="rgb(0 159 227)" stroke-width="5"/><line x1="136.39178240740745" y1="413.33333333333337" x2="157.3987268518519" y2="362.9166666666667" stroke="rgb(0 159 227)" stroke-width="5"/><line x1="136.39178240740745" y1="413.33333333333337" x2="115.38483796296299" y2="362.9166666666667" stroke="rgb(0 159 227)" stroke-width="5"/><line x1="136.39178240740745" y1="413.33333333333337" x2="73.37094907407408" y2="362.9166666666667" stroke="rgb(0 159 227)" stroke-width="5"/><line x1="136.39178240740745" y1="413.33333333333337" x2="31.35706018518522" y2="362.9166666666667" stroke="rgb(0 159 227)" stroke-width="5"/><line x1="241.42650462962968" y1="362.9166666666667" x2="258.93229166666674" y2="312.5" stroke="rgb(0 159 227)" stroke-width="5"/><line x1="241.42650462962968" y1="362.9166666666667" x2="251.9299768518519" y2="312.5" stroke="rgb(0 159 227)" stroke-width="5"/><line x1="241.42650462962968" y1="362.9166666666667" x2="244.92766203703712" y2="312.5" stroke="rgb(0 159 227)" stroke-width="5"/><line x1="241.42650462962968" y1="362.9166666666667" x2="237.92534722222229" y2="312.5" stroke="rgb(0 159 227)" stroke-width="5"/><line x1="241.42650462962968" y1="362.9166666666667" x2="230.92303240740745" y2="312.5" stroke="rgb(0 159 227)" stroke-width="5"/><line x1="241.42650462962968" y1="362.9166666666667" x2="223.92071759259267" y2="312.5" stroke="rgb(0 159 227)" stroke-width="5"/><line x1="199.41261574074082" y1="362.9166666666667" x2="216.91840277777783" y2="312.5" stroke="rgb(0 159 227)" stroke-width="5"/><line x1="199.41261574074082" y1="362.9166666666667" x2="209.91608796296305" y2="312.5" stroke="rgb(0 159 227)" stroke-width="5"/><line x1="199.41261574074082" y1="362.9166666666667" x2="202.9137731481482" y2="312.5" stroke="rgb(0 159 227)" stroke-width="5"/><line x1="199.41261574074082" y1="362.9166666666667" x2="195.91145833333337" y2="312.5" stroke="rgb(0 159 227)" stroke-width="5"/><line x1="199.41261574074082" y1="362.9166666666667" x2="188.9091435185186" y2="312.5" stroke="rgb(0 159 227)" stroke-width="5"/><line x1="199.41261574074082" y1="362.9166666666667" x2="181.90682870370375" y2="312.5" stroke="rgb(0 159 227)" stroke-width="5"/><line x1="157.3987268518519" y1="362.9166666666667" x2="174.9045138888889" y2="312.5" stroke="rgb(0 159 227)" stroke-width="5"/><line x1="157.3987268518519" y1="362.9166666666667" x2="167.90219907407413" y2="312.5" stroke="rgb(0 159 227)" stroke-width="5"/><line x1="157.3987268518519" y1="362.9166666666667" x2="160.8998842592593" y2="312.5" stroke="rgb(0 159 227)" stroke-width="5"/><line x1="157.3987268518519" y1="362.9166666666667" x2="153.8975694444445" y2="312.5" stroke="rgb(0 159 227)" stroke-width="5"/><line x1="157.3987268518519" y1="362.9166666666667" x2="146.89525462962968" y2="312.5" stroke="rgb(0 159 227)" stroke-width="5"/><line x1="157.3987268518519" y1="362.9166666666667" x2="139.89293981481484" y2="312.5" stroke="rgb(0 159 227)" stroke-width="5"/><line x1="115.38483796296299" y1="362.9166666666667" x2="132.89062500000006" y2="312.5" stroke="rgb(0 159 227)" stroke-width="5"/><line x1="115.38483796296299" y1="362.9166666666667" x2="125.88831018518522" y2="312.5" stroke="rgb(0 159 227)" stroke-width="5"/><line x1="115.38483796296299" y1="362.9166666666667" x2="118.88599537037038" y2="312.5" stroke="rgb(0 159 227)" stroke-width="5"/><line x1="115.38483796296299" y1="362.9166666666667" x2="111.8836805555556" y2="312.5" stroke="rgb(0 159 227)" stroke-width="5"/><line x1="115.38483796296299" y1="362.9166666666667" x2="104.88136574074076" y2="312.5" stroke="rgb(0 159 227)" stroke-width="5"/><line x1="115.38483796296299" y1="362.9166666666667" x2="97.87905092592598" y2="312.5" stroke="rgb(0 159 227)" stroke-width="5"/><line x1="73.37094907407408" y1="362.9166666666667" x2="90.87673611111114" y2="312.5" stroke="rgb(0 159 227)" stroke-width="5"/><line x1="73.37094907407408" y1="362.9166666666667" x2="83.8744212962963" y2="312.5" stroke="rgb(0 159 227)" stroke-width="5"/><line x1="73.37094907407408" y1="362.9166666666667" x2="76.87210648148152" y2="312.5" stroke="rgb(0 159 227)" stroke-width="5"/><line x1="73.37094907407408" y1="362.9166666666667" x2="69.86979166666669" y2="312.5" stroke="rgb(0 159 227)" stroke-width="5"/><line x1="73.37094907407408" y1="362.9166666666667" x2="62.867476851851904" y2="312.5" stroke="rgb(0 159 227)" stroke-width="5"/><line x1="73.37094907407408" y1="362.9166666666667" x2="55.86516203703707" y2="312.5" stroke="rgb(0 159 227)" stroke-width="5"/><line x1="31.35706018518522" y1="362.9166666666667" x2="48.86284722222223" y2="312.5" stroke="rgb(0 159 227)" stroke-width="5"/><line x1="31.35706018518522" y1="362.9166666666667" x2="41.86053240740745" y2="312.5" stroke="rgb(0 159 227)" stroke-width="5"/><line x1="31.35706018518522" y1="362.9166666666667" x2="34.85821759259261" y2="312.5" stroke="rgb(0 159 227)" stroke-width="5"/><line x1="31.35706018518522" y1="362.9166666666667" x2="27.85590277777777" y2="312.5" stroke="rgb(0 159 227)" stroke-width="5"/><line x1="31.35706018518522" y1="362.9166666666667" x2="20.85358796296299" y2="312.5" stroke="rgb(0 159 227)" stroke-width="5"/><line x1="31.35706018518522" y1="362.9166666666667" x2="13.851273148148152" y2="312.5" stroke="rgb(0 159 227)" stroke-width="5"/><line x1="262.43344907407413" y1="463.75000000000006" x2="388.4751157407408" y2="413.33333333333337" stroke="black"/><line x1="262.43344907407413" y1="463.75000000000006" x2="136.39178240740745" y2="413.33333333333337" stroke="black"/><line x1="388.4751157407408" y1="413.33333333333337" x2="483.0063657407409" y2="362.9166666666667" stroke="black"/><line x1="388.4751157407408" y1="413.33333333333337" x2="419.9855324074075" y2="362.9166666666667" stroke="black"/><line x1="388.4751157407408" y1="413.33333333333337" x2="356.96469907407413" y2="362.9166666666667" stroke="black"/><line x1="388.4751157407408" y1="413.33333333333337" x2="293.9438657407408" y2="362.9166666666667" stroke="black"/><line x1="483.0063657407409" y1="362.9166666666667" x2="504.0133101851853" y2="312.5" stroke="black"/><line x1="483.0063657407409" y1="362.9166666666667" x2="483.0063657407409" y2="312.5" stroke="black"/><line x1="483.0063657407409" y1="362.9166666666667" x2="461.9994212962964" y2="312.5" stroke="black"/><line x1="504.0133101851853" y1="312.5" x2="511.0156250000001" y2="262.08333333333337" stroke="black"/><line x1="504.0133101851853" y1="312.5" x2="504.0133101851853" y2="262.08333333333337" stroke="black"/><line x1="504.0133101851853" y1="312.5" x2="497.0109953703705" y2="262.08333333333337" stroke="black"/><line x1="483.0063657407409" y1="312.5" x2="490.00868055555566" y2="262.08333333333337" stroke="black"/><line x1="483.0063657407409" y1="312.5" x2="483.0063657407409" y2="262.08333333333337" stroke="black"/><line x1="483.0063657407409" y1="312.5" x2="476.00405092592604" y2="262.08333333333337" stroke="black"/><line x1="461.9994212962964" y1="312.5" x2="469.0017361111112" y2="262.08333333333337" stroke="black"/><line x1="461.9994212962964" y1="312.5" x2="461.9994212962964" y2="262.08333333333337" stroke="black"/><line x1="461.9994212962964" y1="312.5" x2="454.9971064814816" y2="262.08333333333337" stroke="black"/><line x1="419.9855324074075" y1="362.9166666666667" x2="440.99247685185196" y2="312.5" stroke="black"/><line x1="419.9855324074075" y1="362.9166666666667" x2="419.9855324074075" y2="312.5" stroke="black"/><line x1="419.9855324074075" y1="362.9166666666667" x2="398.97858796296305" y2="312.5" stroke="black"/><line x1="440.99247685185196" y1="312.5" x2="447.99479166666674" y2="262.08333333333337" stroke="black"/><line x1="440.99247685185196" y1="312.5" x2="440.99247685185196" y2="262.08333333333337" stroke="black"/><line x1="440.99247685185196" y1="312.5" x2="433.9901620370371" y2="262.08333333333337" stroke="black"/><line x1="419.9855324074075" y1="312.5" x2="426.98784722222234" y2="262.08333333333337" stroke="black"/><line x1="419.9855324074075" y1="312.5" x2="419.9855324074075" y2="262.08333333333337" stroke="black"/><line x1="419.9855324074075" y1="312.5" x2="412.9832175925927" y2="262.08333333333337" stroke="black"/><line x1="398.97858796296305" y1="312.5" x2="405.9809027777779" y2="262.08333333333337" stroke="black"/><line x1="398.97858796296305" y1="312.5" x2="398.97858796296305" y2="262.08333333333337" stroke="black"/><line x1="398.97858796296305" y1="312.5" x2="391.97627314814827" y2="262.08333333333337" stroke="black"/><line x1="356.96469907407413" y1="362.9166666666667" x2="377.9716435185186" y2="312.5" stroke="black"/><line x1="356.96469907407413" y1="362.9166666666667" x2="356.96469907407413" y2="312.5" stroke="black"/><line x1="356.96469907407413" y1="362.9166666666667" x2="335.9577546296297" y2="312.5" stroke="black"/><line x1="377.9716435185186" y1="312.5" x2="384.9739583333334" y2="262.08333333333337" stroke="black"/><line x1="377.9716435185186" y1="312.5" x2="377.9716435185186" y2="262.08333333333337" stroke="black"/><line x1="377.9716435185186" y1="312.5" x2="370.9693287037038" y2="262.08333333333337" stroke="black"/><line x1="356.96469907407413" y1="312.5" x2="363.96701388888897" y2="262.08333333333337" stroke="black"/><line x1="356.96469907407413" y1="312.5" x2="356.96469907407413" y2="262.08333333333337" stroke="black"/><line x1="356.96469907407413" y1="312.5" x2="349.96238425925935" y2="262.08333333333337" stroke="black"/><line x1="335.9577546296297" y1="312.5" x2="342.9600694444445" y2="262.08333333333337" stroke="black"/><line x1="335.9577546296297" y1="312.5" x2="335.9577546296297" y2="262.08333333333337" stroke="black"/><line x1="335.9577546296297" y1="312.5" x2="328.9554398148149" y2="262.08333333333337" stroke="black"/><line x1="293.9438657407408" y1="362.9166666666667" x2="314.9508101851853" y2="312.5" stroke="black"/><line x1="293.9438657407408" y1="362.9166666666667" x2="293.9438657407408" y2="312.5" stroke="black"/><line x1="293.9438657407408" y1="362.9166666666667" x2="272.93692129629636" y2="312.5" stroke="black"/><line x1="314.9508101851853" y1="312.5" x2="321.9531250000001" y2="262.08333333333337" stroke="black"/><line x1="314.9508101851853" y1="312.5" x2="314.9508101851853" y2="262.08333333333337" stroke="black"/><line x1="314.9508101851853" y1="312.5" x2="307.94849537037044" y2="262.08333333333337" stroke="black"/><line x1="293.9438657407408" y1="312.5" x2="300.94618055555566" y2="262.08333333333337" stroke="black"/><line x1="293.9438657407408" y1="312.5" x2="293.9438657407408" y2="262.08333333333337" stroke="black"/><line x1="293.9438657407408" y1="312.5" x2="286.941550925926" y2="262.08333333333337" stroke="black"/><line x1="272.93692129629636" y1="312.5" x2="279.9392361111112" y2="262.08333333333337" stroke="black"/><line x1="272.93692129629636" y1="312.5" x2="272.93692129629636" y2="262.08333333333337" stroke="black"/><line x1="272.93692129629636" y1="312.5" x2="265.9346064814815" y2="262.08333333333337" stroke="black"/><line x1="136.39178240740745" y1="413.33333333333337" x2="241.42650462962968" y2="362.9166666666667" stroke="black"/><line x1="136.39178240740745" y1="413.33333333333337" x2="199.41261574074082" y2="362.9166666666667" stroke="black"/><line x1="136.39178240740745" y1="413.33333333333337" x2="157.3987268518519" y2="362.9166666666667" stroke="black"/><line x1="136.39178240740745" y1="413.33333333333337" x2="115.38483796296299" y2="362.9166666666667" stroke="black"/><line x1="136.39178240740745" y1="413.33333333333337" x2="73.37094907407408" y2="362.9166666666667" stroke="black"/><line x1="136.39178240740745" y1="413.33333333333337" x2="31.35706018518522" y2="362.9166666666667" stroke="black"/><line x1="241.42650462962968" y1="362.9166666666667" x2="258.93229166666674" y2="312.5" stroke="black"/><line x1="241.42650462962968" y1="362.9166666666667" x2="251.9299768518519" y2="312.5" stroke="black"/><line x1="241.42650462962968" y1="362.9166666666667" x2="244.92766203703712" y2="312.5" stroke="black"/><line x1="241.42650462962968" y1="362.9166666666667" x2="237.92534722222229" y2="312.5" stroke="black"/><line x1="241.42650462962968" y1="362.9166666666667" x2="230.92303240740745" y2="312.5" stroke="black"/><line x1="241.42650462962968" y1="362.9166666666667" x2="223.92071759259267" y2="312.5" stroke="black"/><line x1="199.41261574074082" y1="362.9166666666667" x2="216.91840277777783" y2="312.5" stroke="black"/><line x1="199.41261574074082" y1="362.9166666666667" x2="209.91608796296305" y2="312.5" stroke="black"/><line x1="199.41261574074082" y1="362.9166666666667" x2="202.9137731481482" y2="312.5" stroke="black"/><line x1="199.41261574074082" y1="362.9166666666667" x2="195.91145833333337" y2="312.5" stroke="black"/><line x1="199.41261574074082" y1="362.9166666666667" x2="188.9091435185186" y2="312.5" stroke="black"/><line x1="199.41261574074082" y1="362.9166666666667" x2="181.90682870370375" y2="312.5" stroke="black"/><line x1="157.3987268518519" y1="362.9166666666667" x2="174.9045138888889" y2="312.5" stroke="black"/><line x1="157.3987268518519" y1="362.9166666666667" x2="167.90219907407413" y2="312.5" stroke="black"/><line x1="157.3987268518519" y1="362.9166666666667" x2="160.8998842592593" y2="312.5" stroke="black"/><line x1="157.3987268518519" y1="362.9166666666667" x2="153.8975694444445" y2="312.5" stroke="black"/><line x1="157.3987268518519" y1="362.9166666666667" x2="146.89525462962968" y2="312.5" stroke="black"/><line x1="157.3987268518519" y1="362.9166666666667" x2="139.89293981481484" y2="312.5" stroke="black"/><line x1="115.38483796296299" y1="362.9166666666667" x2="132.89062500000006" y2="312.5" stroke="black"/><line x1="115.38483796296299" y1="362.9166666666667" x2="125.88831018518522" y2="312.5" stroke="black"/><line x1="115.38483796296299" y1="362.9166666666667" x2="118.88599537037038" y2="312.5" stroke="black"/><line x1="115.38483796296299" y1="362.9166666666667" x2="111.8836805555556" y2="312.5" stroke="black"/><line x1="115.38483796296299" y1="362.9166666666667" x2="104.88136574074076" y2="312.5" stroke="black"/><line x1="115.38483796296299" y1="362.9166666666667" x2="97.87905092592598" y2="312.5" stroke="black"/><line x1="73.37094907407408" y1="362.9166666666667" x2="90.87673611111114" y2="312.5" stroke="black"/><line x1="73.37094907407408" y1="362.9166666666667" x2="83.8744212962963" y2="312.5" stroke="black"/><line x1="73.37094907407408" y1="362.9166666666667" x2="76.87210648148152" y2="312.5" stroke="black"/><line x1="73.37094907407408" y1="362.9166666666667" x2="69.86979166666669" y2="312.5" stroke="black"/><line x1="73.37094907407408" y1="362.9166666666667" x2="62.867476851851904" y2="312.5" stroke="black"/><line x1="73.37094907407408" y1="362.9166666666667" x2="55.86516203703707" y2="312.5" stroke="black"/><line x1="31.35706018518522" y1="362.9166666666667" x2="48.86284722222223" y2="312.5" stroke="black"/><line x1="31.35706018518522" y1="362.9166666666667" x2="41.86053240740745" y2="312.5" stroke="black"/><line x1="31.35706018518522" y1="362.9166666666667" x2="34.85821759259261" y2="312.5" stroke="black"/><line x1="31.35706018518522" y1="362.9166666666667" x2="27.85590277777777" y2="312.5" stroke="black"/><line x1="31.35706018518522" y1="362.9166666666667" x2="20.85358796296299" y2="312.5" stroke="black"/><line x1="31.35706018518522" y1="362.9166666666667" x2="13.851273148148152" y2="312.5" stroke="black"/><circle cx="262.43344907407413" cy="463.75000000000006" r="10" fill="rgb(229 0 125)" stroke="black" stroke-width="2"/><circle cx="388.4751157407408" cy="413.33333333333337" r="10" fill="rgb(229 0 125)" stroke="black" stroke-width="2"/><circle cx="483.0063657407409" cy="362.9166666666667" r="10" fill="rgb(229 0 125)" stroke="black" stroke-width="2"/><circle cx="504.0133101851853" cy="312.5" r="10" fill="rgb(229 0 125)" stroke="black" stroke-width="2"/><circle cx="511.0156250000001" cy="262.08333333333337" r="10" fill="rgb(229 0 125)" stroke="black" stroke-width="2"/><circle cx="504.0133101851853" cy="262.08333333333337" r="10" fill="rgb(229 0 125)" stroke="black" stroke-width="2"/><circle cx="497.0109953703705" cy="262.08333333333337" r="10" fill="rgb(229 0 125)" stroke="black" stroke-width="2"/><circle cx="483.0063657407409" cy="312.5" r="10" fill="rgb(229 0 125)" stroke="black" stroke-width="2"/><circle cx="490.00868055555566" cy="262.08333333333337" r="10" fill="rgb(229 0 125)" stroke="black" stroke-width="2"/><circle cx="483.0063657407409" cy="262.08333333333337" r="10" fill="rgb(229 0 125)" stroke="black" stroke-width="2"/><circle cx="476.00405092592604" cy="262.08333333333337" r="10" fill="rgb(229 0 125)" stroke="black" stroke-width="2"/><circle cx="461.9994212962964" cy="312.5" r="10" fill="rgb(229 0 125)" stroke="black" stroke-width="2"/><circle cx="469.0017361111112" cy="262.08333333333337" r="10" fill="rgb(229 0 125)" stroke="black" stroke-width="2"/><circle cx="461.9994212962964" cy="262.08333333333337" r="10" fill="rgb(229 0 125)" stroke="black" stroke-width="2"/><circle cx="454.9971064814816" cy="262.08333333333337" r="10" fill="rgb(229 0 125)" stroke="black" stroke-width="2"/><circle cx="419.9855324074075" cy="362.9166666666667" r="10" fill="rgb(229 0 125)" stroke="black" stroke-width="2"/><circle cx="440.99247685185196" cy="312.5" r="10" fill="rgb(229 0 125)" stroke="black" stroke-width="2"/><circle cx="447.99479166666674" cy="262.08333333333337" r="10" fill="rgb(229 0 125)" stroke="black" stroke-width="2"/><circle cx="440.99247685185196" cy="262.08333333333337" r="10" fill="rgb(229 0 125)" stroke="black" stroke-width="2"/><circle cx="433.9901620370371" cy="262.08333333333337" r="10" fill="rgb(229 0 125)" stroke="black" stroke-width="2"/><circle cx="419.9855324074075" cy="312.5" r="10" fill="rgb(229 0 125)" stroke="black" stroke-width="2"/><circle cx="426.98784722222234" cy="262.08333333333337" r="10" fill="rgb(229 0 125)" stroke="black" stroke-width="2"/><circle cx="419.9855324074075" cy="262.08333333333337" r="10" fill="rgb(229 0 125)" stroke="black" stroke-width="2"/><circle cx="412.9832175925927" cy="262.08333333333337" r="10" fill="rgb(229 0 125)" stroke="black" stroke-width="2"/><circle cx="398.97858796296305" cy="312.5" r="10" fill="rgb(229 0 125)" stroke="black" stroke-width="2"/><circle cx="405.9809027777779" cy="262.08333333333337" r="10" fill="rgb(229 0 125)" stroke="black" stroke-width="2"/><circle cx="398.97858796296305" cy="262.08333333333337" r="10" fill="rgb(229 0 125)" stroke="black" stroke-width="2"/><circle cx="391.97627314814827" cy="262.08333333333337" r="10" fill="rgb(229 0 125)" stroke="black" stroke-width="2"/><circle cx="356.96469907407413" cy="362.9166666666667" r="10" fill="rgb(229 0 125)" stroke="black" stroke-width="2"/><circle cx="377.9716435185186" cy="312.5" r="10" fill="rgb(229 0 125)" stroke="black" stroke-width="2"/><circle cx="384.9739583333334" cy="262.08333333333337" r="10" fill="rgb(229 0 125)" stroke="black" stroke-width="2"/><circle cx="377.9716435185186" cy="262.08333333333337" r="10" fill="rgb(229 0 125)" stroke="black" stroke-width="2"/><circle cx="370.9693287037038" cy="262.08333333333337" r="10" fill="rgb(229 0 125)" stroke="black" stroke-width="2"/><circle cx="356.96469907407413" cy="312.5" r="10" fill="rgb(229 0 125)" stroke="black" stroke-width="2"/><circle cx="363.96701388888897" cy="262.08333333333337" r="10" fill="rgb(229 0 125)" stroke="black" stroke-width="2"/><circle cx="356.96469907407413" cy="262.08333333333337" r="10" fill="rgb(229 0 125)" stroke="black" stroke-width="2"/><circle cx="349.96238425925935" cy="262.08333333333337" r="10" fill="rgb(229 0 125)" stroke="black" stroke-width="2"/><circle cx="335.9577546296297" cy="312.5" r="10" fill="rgb(229 0 125)" stroke="black" stroke-width="2"/><circle cx="342.9600694444445" cy="262.08333333333337" r="10" fill="rgb(229 0 125)" stroke="black" stroke-width="2"/><circle cx="335.9577546296297" cy="262.08333333333337" r="10" fill="rgb(229 0 125)" stroke="black" stroke-width="2"/><circle cx="328.9554398148149" cy="262.08333333333337" r="10" fill="rgb(229 0 125)" stroke="black" stroke-width="2"/><circle cx="293.9438657407408" cy="362.9166666666667" r="10" fill="rgb(229 0 125)" stroke="black" stroke-width="2"/><circle cx="314.9508101851853" cy="312.5" r="10" fill="rgb(229 0 125)" stroke="black" stroke-width="2"/><circle cx="321.9531250000001" cy="262.08333333333337" r="10" fill="rgb(229 0 125)" stroke="black" stroke-width="2"/><circle cx="314.9508101851853" cy="262.08333333333337" r="10" fill="rgb(229 0 125)" stroke="black" stroke-width="2"/><circle cx="307.94849537037044" cy="262.08333333333337" r="10" fill="rgb(229 0 125)" stroke="black" stroke-width="2"/><circle cx="293.9438657407408" cy="312.5" r="10" fill="rgb(229 0 125)" stroke="black" stroke-width="2"/><circle cx="300.94618055555566" cy="262.08333333333337" r="10" fill="rgb(229 0 125)" stroke="black" stroke-width="2"/><circle cx="293.9438657407408" cy="262.08333333333337" r="10" fill="rgb(229 0 125)" stroke="black" stroke-width="2"/><circle cx="286.941550925926" cy="262.08333333333337" r="10" fill="rgb(229 0 125)" stroke="black" stroke-width="2"/><circle cx="272.93692129629636" cy="312.5" r="10" fill="rgb(229 0 125)" stroke="black" stroke-width="2"/><circle cx="279.9392361111112" cy="262.08333333333337" r="10" fill="rgb(229 0 125)" stroke="black" stroke-width="2"/><circle cx="272.93692129629636" cy="262.08333333333337" r="10" fill="rgb(229 0 125)" stroke="black" stroke-width="2"/><circle cx="265.9346064814815" cy="262.08333333333337" r="10" fill="rgb(229 0 125)" stroke="black" stroke-width="2"/><circle cx="136.39178240740745" cy="413.33333333333337" r="10" fill="rgb(229 0 125)" stroke="black" stroke-width="2"/><circle cx="241.42650462962968" cy="362.9166666666667" r="10" fill="rgb(229 0 125)" stroke="black" stroke-width="2"/><circle cx="258.93229166666674" cy="312.5" r="10" fill="rgb(229 0 125)" stroke="black" stroke-width="2"/><circle cx="251.9299768518519" cy="312.5" r="10" fill="rgb(229 0 125)" stroke="black" stroke-width="2"/><circle cx="244.92766203703712" cy="312.5" r="10" fill="rgb(229 0 125)" stroke="black" stroke-width="2"/><circle cx="237.92534722222229" cy="312.5" r="10" fill="rgb(229 0 125)" stroke="black" stroke-width="2"/><circle cx="230.92303240740745" cy="312.5" r="10" fill="rgb(229 0 125)" stroke="black" stroke-width="2"/><circle cx="223.92071759259267" cy="312.5" r="10" fill="rgb(229 0 125)" stroke="black" stroke-width="2"/><circle cx="199.41261574074082" cy="362.9166666666667" r="10" fill="rgb(229 0 125)" stroke="black" stroke-width="2"/><circle cx="216.91840277777783" cy="312.5" r="10" fill="rgb(229 0 125)" stroke="black" stroke-width="2"/><circle cx="209.91608796296305" cy="312.5" r="10" fill="rgb(229 0 125)" stroke="black" stroke-width="2"/><circle cx="202.9137731481482" cy="312.5" r="10" fill="rgb(229 0 125)" stroke="black" stroke-width="2"/><circle cx="195.91145833333337" cy="312.5" r="10" fill="rgb(229 0 125)" stroke="black" stroke-width="2"/><circle cx="188.9091435185186" cy="312.5" r="10" fill="rgb(229 0 125)" stroke="black" stroke-width="2"/><circle cx="181.90682870370375" cy="312.5" r="10" fill="rgb(229 0 125)" stroke="black" stroke-width="2"/><circle cx="157.3987268518519" cy="362.9166666666667" r="10" fill="rgb(229 0 125)" stroke="black" stroke-width="2"/><circle cx="174.9045138888889" cy="312.5" r="10" fill="rgb(229 0 125)" stroke="black" stroke-width="2"/><circle cx="167.90219907407413" cy="312.5" r="10" fill="rgb(229 0 125)" stroke="black" stroke-width="2"/><circle cx="160.8998842592593" cy="312.5" r="10" fill="rgb(229 0 125)" stroke="black" stroke-width="2"/><circle cx="153.8975694444445" cy="312.5" r="10" fill="rgb(229 0 125)" stroke="black" stroke-width="2"/><circle cx="146.89525462962968" cy="312.5" r="10" fill="rgb(229 0 125)" stroke="black" stroke-width="2"/><circle cx="139.89293981481484" cy="312.5" r="10" fill="rgb(229 0 125)" stroke="black" stroke-width="2"/><circle cx="115.38483796296299" cy="362.9166666666667" r="10" fill="rgb(229 0 125)" stroke="black" stroke-width="2"/><circle cx="132.89062500000006" cy="312.5" r="10" fill="rgb(229 0 125)" stroke="black" stroke-width="2"/><circle cx="125.88831018518522" cy="312.5" r="10" fill="rgb(229 0 125)" stroke="black" stroke-width="2"/><circle cx="118.88599537037038" cy="312.5" r="10" fill="rgb(229 0 125)" stroke="black" stroke-width="2"/><circle cx="111.8836805555556" cy="312.5" r="10" fill="rgb(229 0 125)" stroke="black" stroke-width="2"/><circle cx="104.88136574074076" cy="312.5" r="10" fill="rgb(229 0 125)" stroke="black" stroke-width="2"/><circle cx="97.87905092592598" cy="312.5" r="10" fill="rgb(229 0 125)" stroke="black" stroke-width="2"/><circle cx="73.37094907407408" cy="362.9166666666667" r="10" fill="rgb(229 0 125)" stroke="black" stroke-width="2"/><circle cx="90.87673611111114" cy="312.5" r="10" fill="rgb(229 0 125)" stroke="black" stroke-width="2"/><circle cx="83.8744212962963" cy="312.5" r="10" fill="rgb(229 0 125)" stroke="black" stroke-width="2"/><circle cx="76.87210648148152" cy="312.5" r="10" fill="rgb(229 0 125)" stroke="black" stroke-width="2"/><circle cx="69.86979166666669" cy="312.5" r="10" fill="rgb(229 0 125)" stroke="black" stroke-width="2"/><circle cx="62.867476851851904" cy="312.5" r="10" fill="rgb(229 0 125)" stroke="black" stroke-width="2"/><circle cx="55.86516203703707" cy="312.5" r="10" fill="rgb(229 0 125)" stroke="black" stroke-width="2"/><circle cx="31.35706018518522" cy="362.9166666666667" r="10" fill="rgb(229 0 125)" stroke="black" stroke-width="2"/><circle cx="48.86284722222223" cy="312.5" r="10" fill="rgb(229 0 125)" stroke="black" stroke-width="2"/><circle cx="41.86053240740745" cy="312.5" r="10" fill="rgb(229 0 125)" stroke="black" stroke-width="2"/><circle cx="34.85821759259261" cy="312.5" r="10" fill="rgb(229 0 125)" stroke="black" stroke-width="2"/><circle cx="27.85590277777777" cy="312.5" r="10" fill="rgb(229 0 125)" stroke="black" stroke-width="2"/><circle cx="20.85358796296299" cy="312.5" r="10" fill="rgb(229 0 125)" stroke="black" stroke-width="2"/><circle cx="13.851273148148152" cy="312.5" r="10" fill="rgb(229 0 125)" stroke="black" stroke-width="2"/></svg>