<svg xmlns="http://www.w3.org/2000/svg" width="531.1689814814815" height="492.65625" style="background: white;"><defs><linearGradient id="grad" x1="0%" y1="0%" x2="100%" y2="0%"><stop offset="0%" stop-color="rgb(255 204 0)"/><stop offset="50%" stop-color="white"/><stop offset="100%" stop-color="rgb(255 204 0)"/></linearGradient></defs><rect x="13.501157407407408" y="25.755208333333336" width="504.1666666666667" height="252.08333333333334" fill="url(#grad)" stroke="black"/><rect x="13.501157407407408" y="88.77604166666667" width="168.05555555555554" height="189.0625" fill="url(#grad)" stroke="black"/><rect x="13.501157407407408" y="151.796875" width="56.01851851851852" height="126.04166666666667" fill="url(#grad)" stroke="black"/><rect x="13.501157407407408" y="214.81770833333334" width="28.00925925925926" height="63.020833333333336" fill="url(#grad)" stroke="black"/><rect x="41.51041666666667" y="214.81770833333334" width="28.00925925925926" height="63.020833333333336" fill="url(#grad)" stroke="black"/><rect x="69.51967592592592" y="151.796875" width="56.01851851851852" height="126.04166666666667" fill="url(#grad)" stroke="black"/><rect x="69.51967592592592" y="214.81770833333334" width="28.00925925925926" height="63.020833333333336" fill="url(#grad)" stroke="black"/><rect x="97.52893518518519" y="214.81770833333334" width="28.00925925925926" height="63.020833333333336" fill="url(#grad)" stroke="black"/><rect x="125.53819444444444" y="151.796875" width="56.01851851851852" height="126.04166666666667" fill="url(#grad)" stroke="black"/><rect x="125.53819444444444" y="214.81770833333334" width="28.00925925925926" height="63.020833333333336" fill="url(#grad)" stroke="black"/><rect x="153.5474537037037" y="214.81770833333334" width="28.00925925925926" height="63.020833333333336" fill="url(#grad)" stroke="black"/><rect x="181.55671296296296" y="88.77604166666667" width="168.05555555555554" height="189.0625" fill="url(#grad)" stroke="black"/><rect x="181.55671296296296" y="151.796875" width="84.02777777777777" height="126.04166666666667" fill="url(#grad)" stroke="black"/><rect x="181.55671296296296" y="214.81770833333334" width="42.013888888888886" height="63.020833333333336" fill="url(#grad)" stroke="black"/><rect x="223.57060185185185" y="214.81770833333334" width="42.013888888888886" height="63.020833333333336" fill="url(#grad)" stroke="black"/><rect x="265.58449074074076" y="151.796875" width="84.02777777777777" height="126.04166666666667" fill="url(#grad)" stroke="black"/><rect x="265.58449074074076" y="214.81770833333334" width="42.013888888888886" height="63.020833333333336" fill="url(#grad)" stroke="black"/><rect x="307.5983796296296" y="214.81770833333334" width="42.013888888888886" height="63.020833333333336" fill="url(#grad)" stroke="black"/><rect x="349.61226851851853" y="88.77604166666667" width="168.05555555555554" height="189.0625" fill="url(#grad)" stroke="black"/><rect x="349.61226851851853" y="151.796875" width="84.02777777777777" height="126.04166666666667" fill="url(#grad)" stroke="black"/><rect x="349.61226851851853" y="214.81770833333334" width="28.00925925925926" height="63.020833333333336" fill="url(#grad)" stroke="black"/><rect x="377.62152777777777" y="214.81770833333334" width="28.00925925925926" height="63.020833333333336" fill="url(#grad)" stroke="black"/><rect x="405.63078703703707" y="214.81770833333334" width="28.00925925925926" height="63.020833333333336" fill="url(#grad)" stroke="black"/><rect x="433.6400462962963" y="151.796875" width="84.02777777777777" height="126.04166666666667" fill="url(#grad)" stroke="black"/><rect x="433.6400462962963" y="214.81770833333334" width="28.00925925925926" height="63.020833333333336" fill="url(#grad)" stroke="black"/><rect x="461.64930555555554" y="214.81770833333334" width="28.00925925925926" height="63.020833333333336" fill="url(#grad)" stroke="black"/><rect x="489.65856481481484" y="214.81770833333334" width="28.00925925925926" height="63.020833333333336" fill="url(#grad)" stroke="black"/><defs><linearGradient id="grad" x1="0%" y1="0%" x2="100%" y2="0%"><stop offset="0%" stop-color="rgb(255 204 0)"/><stop offset="50%" stop-color="white"/><stop offset="100%" stop-color="rgb(255 204 0)"/></linearGradient></defs><rect x="13.501157407407408" y="214.81770833333334" width="504.1666666666667" height="252.08333333333334" fill="url(#grad)" stroke="black"/><rect x="349.61226851851853" y="214.81770833333334" width="168.05555555555554" height="189.0625" fill="url(#grad)" stroke="black"/><rect x="461.64930555555554" y="214.81770833333334" width="56.01851851851852" height="126.04166666666667" fill="url(#grad)" stroke="black"/><rect x="489.65856481481484" y="214.81770833333334" width="28.00925925925926" height="63.020833333333336" fill="url(#grad)" stroke="black"/><rect x="461.64930555555554" y="214.81770833333334" width="28.00925925925926" height="63.020833333333336" fill="url(#grad)" stroke="black"/><rect x="405.63078703703707" y="214.81770833333334" width="56.01851851851852" height="126.04166666666667" fill="url(#grad)" stroke="black"/><rect x="433.6400462962963" y="214.81770833333334" width="28.00925925925926" height="63.020833333333336" fill="url(#grad)" stroke="black"/><rect x="405.63078703703707" y="214.81770833333334" width="28.00925925925926" height="63.020833333333336" fill="url(#grad)" stroke="black"/><rect x="349.61226851851853" y="214.81770833333334" width="56.01851851851852" height="126.04166666666667" fill="url(#grad)" stroke="black"/><rect x="377.62152777777777" y="214.81770833333334" width="28.00925925925926" height="63.020833333333336" fill="url(#grad)" stroke="black"/><rect x="349.61226851851853" y="214.81770833333334" width="28.00925925925926" height="63.020833333333336" fill="url(#grad)" stroke="black"/><rect x="181.55671296296296" y="214.81770833333334" width="168.05555555555554" height="189.0625" fill="url(#grad)" stroke="black"/><rect x="265.58449074074076" y="214.81770833333334" width="84.02777777777777" height="126.04166666666667" fill="url(#grad)" stroke="black"/><rect x="307.5983796296296" y="214.81770833333334" width="42.013888888888886" height="63.020833333333336" fill="url(#grad)" stroke="black"/><rect x="265.58449074074076" y="214.81770833333334" width="42.013888888888886" height="63.020833333333336" fill="url(#grad)" stroke="black"/><rect x="181.55671296296296" y="214.81770833333334" width="84.02777777777777" height="126.04166666666667" fill="url(#grad)" stroke="black"/><rect x="223.57060185185185" y="214.81770833333334" width="42.013888888888886" height="63.020833333333336" fill="url(#grad)" stroke="black"/><rect x="181.55671296296296" y="214.81770833333334" width="42.013888888888886" height="63.020833333333336" fill="url(#grad)" stroke="black"/><rect x="13.501157407407408" y="214.81770833333334" width="168.05555555555554" height="189.0625" fill="url(#grad)" stroke="black"/><rect x="97.52893518518519" y="214.81770833333334" width="84.02777777777777" height="126.04166666666667" fill="url(#grad)" stroke="black"/><rect x="153.5474537037037" y="214.81770833333334" width="28.00925925925926" height="63.020833333333336" fill="url(#grad)" stroke="black"/><rect x="125.53819444444444" y="214.81770833333334" width="28.00925925925926" height="63.020833333333336" fill="url(#grad)" stroke="black"/><rect x="97.52893518518519" y="214.81770833333334" width="28.00925925925926" height="63.020833333333336" fill="url(#grad)" stroke="black"/><rect x="13.501157407407408" y="214.81770833333334" width="84.02777777777777" height="126.04166666666667" fill="url(#grad)" stroke="black"/><rect x="69.51967592592592" y="214.81770833333334" width="28.00925925925926" height="63.020833333333336" fill="url(#grad)" stroke="black"/><rect x="41.51041666666667" y="214.81770833333334" width="28.00925925925926" height="63.020833333333336" fill="url(#grad)" stroke="black"/><rect x="13.501157407407408" y="214.81770833333334" width="28.00925925925926" height="63.020833333333336" fill="url(#grad)" stroke="black"/><line x1="265.58449074074076" y1="41.51041666666667" x2="97.52893518518519" y2="104.53125" stroke="rgb(0 159 227)" stroke-width="5"/><line x1="265.58449074074076" y1="41.51041666666667" x2="265.58449074074076" y2="104.53125" stroke="rgb(0 159 227)" stroke-width="5"/><line x1="265.58449074074076" y1="41.51041666666667" x2="433.6400462962963" y2="104.53125" stroke="rgb(0 159 227)" stroke-width="5"/><line x1="97.52893518518519" y1="104.53125" x2="41.51041666666667" y2="167.55208333333334" stroke="rgb(0 159 227)" stroke-width="5"/><line x1="97.52893518518519" y1="104.53125" x2="97.52893518518519" y2="167.55208333333334" stroke="rgb(0 159 227)" stroke-width="5"/><line x1="97.52893518518519" y1="104.53125" x2="153.5474537037037" y2="167.55208333333334" stroke="rgb(0 159 227)" stroke-width="5"/><line x1="41.51041666666667" y1="167.55208333333334" x2="27.505787037037038" y2="230.57291666666669" stroke="rgb(0 159 227)" stroke-width="5"/><line x1="41.51041666666667" y1="167.55208333333334" x2="55.5150462962963" y2="230.57291666666669" stroke="rgb(0 159 227)" stroke-width="5"/><line x1="97.52893518518519" y1="167.55208333333334" x2="83.52430555555556" y2="230.57291666666669" stroke="rgb(0 159 227)" stroke-width="5"/><line x1="97.52893518518519" y1="167.55208333333334" x2="111.53356481481481" y2="230.57291666666669" stroke="rgb(0 159 227)" stroke-width="5"/><line x1="153.5474537037037" y1="167.55208333333334" x2="139.54282407407408" y2="230.57291666666669" stroke="rgb(0 159 227)" stroke-width="5"/><line x1="153.5474537037037" y1="167.55208333333334" x2="167.55208333333334" y2="230.57291666666669" stroke="rgb(0 159 227)" stroke-width="5"/><line x1="265.58449074074076" y1="104.53125" x2="223.57060185185185" y2="167.55208333333334" stroke="rgb(0 159 227)" stroke-width="5"/><line x1="265.58449074074076" y1="104.53125" x2="307.5983796296296" y2="167.55208333333334" stroke="rgb(0 159 227)" stroke-width="5"/><line x1="223.57060185185185" y1="167.55208333333334" x2="202.56365740740742" y2="230.57291666666669" stroke="rgb(0 159 227)" stroke-width="5"/><line x1="223.57060185185185" y1="167.55208333333334" x2="244.5775462962963" y2="230.57291666666669" stroke="rgb(0 159 227)" stroke-width="5"/><line x1="307.5983796296296" y1="167.55208333333334" x2="286.59143518518516" y2="230.57291666666669" stroke="rgb(0 159 227)" stroke-width="5"/><line x1="307.5983796296296" y1="167.55208333333334" x2="328.6053240740741" y2="230.57291666666669" stroke="rgb(0 159 227)" stroke-width="5"/><line x1="433.6400462962963" y1="104.53125" x2="391.6261574074074" y2="167.55208333333334" stroke="rgb(0 159 227)" stroke-width="5"/><line x1="433.6400462962963" y1="104.53125" x2="475.65393518518516" y2="167.55208333333334" stroke="rgb(0 159 227)" stroke-width="5"/><line x1="391.6261574074074" y1="167.55208333333334" x2="363.61689814814815" y2="230.57291666666669" stroke="rgb(0 159 227)" stroke-width="5"/><line x1="391.6261574074074" y1="167.55208333333334" x2="391.6261574074074" y2="230.57291666666669" stroke="rgb(0 159 227)" stroke-width="5"/><line x1="391.6261574074074" y1="167.55208333333334" x2="419.6354166666667" y2="230.57291666666669" stroke="rgb(0 159 227)" stroke-width="5"/><line x1="475.65393518518516" y1="167.55208333333334" x2="447.6446759259259" y2="230.57291666666669" stroke="rgb(0 159 227)" stroke-width="5"/><line x1="475.65393518518516" y1="167.55208333333334" x2="475.65393518518516" y2="230.57291666666669" stroke="rgb(0 159 227)" stroke-width="5"/><line x1="475.65393518518516" y1="167.55208333333334" x2="503.66319444444446" y2="230.57291666666669" stroke="rgb(0 159 227)" stroke-width="5"/><line x1="265.58449074074076" y1="41.51041666666667" x2="97.52893518518519" y2="104.53125" stroke="black"/><line x1="265.58449074074076" y1="41.51041666666667" x2="265.58449074074076" y2="104.53125" stroke="black"/><line x1="265.58449074074076" y1="41.51041666666667" x2="433.6400462962963" y2="104.53125" stroke="black"/><line x1="97.52893518518519" y1="104.53125" x2="41.51041666666667" y2="167.55208333333334" stroke="black"/><line x1="97.52893518518519" y1="104.53125" x2="97.52893518518519" y2="167.55208333333334" stroke="black"/><line x1="97.52893518518519" y1="104.53125" x2="153.5474537037037" y2="167.55208333333334" stroke="black"/><line x1="41.51041666666667" y1="167.55208333333334" x2="27.505787037037038" y2="230.57291666666669" stroke="black"/><line x1="41.51041666666667" y1="167.55208333333334" x2="55.5150462962963" y2="230.57291666666669" stroke="black"/><line x1="97.52893518518519" y1="167.55208333333334" x2="83.52430555555556" y2="230.57291666666669" stroke="black"/><line x1="97.52893518518519" y1="167.55208333333334" x2="111.53356481481481" y2="230.57291666666669" stroke="black"/><line x1="153.5474537037037" y1="167.55208333333334" x2="139.54282407407408" y2="230.57291666666669" stroke="black"/><line x1="153.5474537037037" y1="167.55208333333334" x2="167.55208333333334" y2="230.57291666666669" stroke="black"/><line x1="265.58449074074076" y1="104.53125" x2="223.57060185185185" y2="167.55208333333334" stroke="black"/><line x1="265.58449074074076" y1="104.53125" x2="307.5983796296296" y2="167.55208333333334" stroke="black"/><line x1="223.57060185185185" y1="167.55208333333334" x2="202.56365740740742" y2="230.57291666666669" stroke="black"/><line x1="223.57060185185185" y1="167.55208333333334" x2="244.5775462962963" y2="230.57291666666669" stroke="black"/><line x1="307.5983796296296" y1="167.55208333333334" x2="286.59143518518516" y2="230.57291666666669" stroke="black"/><line x1="307.5983796296296" y1="167.55208333333334" x2="328.6053240740741" y2="230.57291666666669" stroke="black"/><line x1="433.6400462962963" y1="104.53125" x2="391.6261574074074" y2="167.55208333333334" stroke="black"/><line x1="433.6400462962963" y1="104.53125" x2="475.65393518518516" y2="167.55208333333334" stroke="black"/><line x1="391.6261574074074" y1="167.55208333333334" x2="363.61689814814815" y2="230.57291666666669" stroke="black"/><line x1="391.6261574074074" y1="167.55208333333334" x2="391.6261574074074" y2="230.57291666666669" stroke="black"/><line x1="391.6261574074074" y1="167.55208333333334" x2="419.6354166666667" y2="230.57291666666669" stroke="black"/><line x1="475.65393518518516" y1="167.55208333333334" x2="447.6446759259259" y2="230.57291666666669" stroke="black"/><line x1="475.65393518518516" y1="167.55208333333334" x2="475.65393518518516" y2="230.57291666666669" stroke="black"/><line x1="475.65393518518516" y1="167.55208333333334" x2="503.66319444444446" y2="230.57291666666669" stroke="black"/><circle cx="265.58449074074076" cy="41.51041666666667" r="10" fill="rgb(229 0 125)" stroke="black" stroke-width="2"/><circle cx="97.52893518518519" cy="104.53125" r="10" fill="rgb(229 0 125)" stroke="black" stroke-width="2"/><circle cx="41.51041666666667" cy="167.55208333333334" r="10" fill="rgb(229 0 125)" stroke="black" stroke-width="2"/><circle cx="27.505787037037038" cy="230.57291666666669" r="10" fill="rgb(229 0 125)" stroke="black" stroke-width="2"/><circle cx="55.5150462962963" cy="230.57291666666669" r="10" fill="rgb(229 0 125)" stroke="black" stroke-width="2"/><circle cx="97.52893518518519" cy="167.55208333333334" r="10" fill="rgb(229 0 125)" stroke="black" stroke-width="2"/><circle cx="83.52430555555556" cy="230.57291666666669" r="10" fill="rgb(229 0 125)" stroke="black" stroke-width="2"/><circle cx="111.53356481481481" cy="230.57291666666669" r="10" fill="rgb(229 0 125)" stroke="black" stroke-width="2"/><circle cx="153.5474537037037" cy="167.55208333333334" r="10" fill="rgb(229 0 125)" stroke="black" stroke-width="2"/><circle cx="139.54282407407408" cy="230.57291666666669" r="10" fill="rgb(229 0 125)" stroke="black" stroke-width="2"/><circle cx="167.55208333333334" cy="230.57291666666669" r="10" fill="rgb(229 0 125)" stroke="black" stroke-width="2"/><circle cx="265.58449074074076" cy="104.53125" r="10" fill="rgb(229 0 125)" stroke="black" stroke-width="2"/><circle cx="223.57060185185185" cy="167.55208333333334" r="10" fill="rgb(229 0 125)" stroke="black" stroke-width="2"/><circle cx="202.56365740740742" cy="230.57291666666669" r="10" fill="rgb(229 0 125)" stroke="black" stroke-width="2"/><circle cx="244.5775462962963" cy="230.57291666666669" r="10" fill="rgb(229 0 125)" stroke="black" stroke-width="2"/><circle cx="307.5983796296296" cy="167.55208333333334" r="10" fill="rgb(229 0 125)" stroke="black" stroke-width="2"/><circle cx="286.59143518518516" cy="230.57291666666669" r="10" fill="rgb(229 0 125)" stroke="black" stroke-width="2"/><circle cx="328.6053240740741" cy="230.57291666666669" r="10" fill="rgb(229 0 125)" stroke="black" stroke-width="2"/><circle cx="433.6400462962963" cy="104.53125" r="10" fill="rgb(229 0 125)" stroke="black" stroke-width="2"/><circle cx="391.6261574074074" cy="167.55208333333334" r="10" fill="rgb(229 0 125)" stroke="black" stroke-width="2"/><circle cx="363.61689814814815" cy="230.57291666666669" r="10" fill="rgb(229 0 125)" stroke="black" stroke-width="2"/><circle cx="391.6261574074074" cy="230.57291666666669" r="10" fill="rgb(229 0 125)" stroke="black" stroke-width="2"/><circle cx="419.6354166666667" cy="230.57291666666669" r="10" fill="rgb(229 0 125)" stroke="black" stroke-width="2"/><circle cx="475.65393518518516" cy="167.55208333333334" r="10" fill="rgb(229 0 125)" stroke="black" stroke-width="2"/><circle cx="447.6446759259259" cy="230.57291666666669" r="10" fill="rgb(229 0 125)" stroke="black" stroke-width="2"/><circle cx="475.65393518518516" cy="230.57291666666669" r="10" fill="rgb(229 0 125)" stroke="black" stroke-width="2"/><circle cx="503.66319444444446" cy="230.57291666666669" r="10" fill="rgb(229 0 125)" stroke="black" stroke-width="2"/><line x1="265.58449074074076" y1="451.1458333333333" x2="433.6400462962963" y2="388.125" stroke="rgb(0 159 227)" stroke-width="5"/><line x1="265.58449074074076" y1="451.1458333333333" x2="265.58449074074076" y2="388.125" stroke="rgb(0 159 227)" stroke-width="5"/><line x1="265.58449074074076" y1="451.1458333333333" x2="97.52893518518522" y2="388.125" stroke="rgb(0 159 227)" stroke-width="5"/><line x1="433.6400462962963" y1="388.125" x2="489.65856481481484" y2="325.10416666666663" stroke="rgb(0 159 227)" stroke-width="5"/><line x1="433.6400462962963" y1="388.125" x2="433.6400462962963" y2="325.10416666666663" stroke="rgb(0 159 227)" stroke-width="5"/><line x1="433.6400462962963" y1="388.125" x2="377.6215277777778" y2="325.10416666666663" stroke="rgb(0 159 227)" stroke-width="5"/><line x1="489.65856481481484" y1="325.10416666666663" x2="503.66319444444446" y2="262.0833333333333" stroke="rgb(0 159 227)" stroke-width="5"/><line x1="489.65856481481484" y1="325.10416666666663" x2="475.6539351851852" y2="262.0833333333333" stroke="rgb(0 159 227)" stroke-width="5"/><line x1="433.6400462962963" y1="325.10416666666663" x2="447.644675925926" y2="262.0833333333333" stroke="rgb(0 159 227)" stroke-width="5"/><line x1="433.6400462962963" y1="325.10416666666663" x2="419.63541666666674" y2="262.0833333333333" stroke="rgb(0 159 227)" stroke-width="5"/><line x1="377.6215277777778" y1="325.10416666666663" x2="391.62615740740745" y2="262.0833333333333" stroke="rgb(0 159 227)" stroke-width="5"/><line x1="377.6215277777778" y1="325.10416666666663" x2="363.61689814814815" y2="262.0833333333333" stroke="rgb(0 159 227)" stroke-width="5"/><line x1="265.58449074074076" y1="388.125" x2="307.5983796296297" y2="325.10416666666663" stroke="rgb(0 159 227)" stroke-width="5"/><line x1="265.58449074074076" y1="388.125" x2="223.5706018518519" y2="325.10416666666663" stroke="rgb(0 159 227)" stroke-width="5"/><line x1="307.5983796296297" y1="325.10416666666663" x2="328.60532407407413" y2="262.0833333333333" stroke="rgb(0 159 227)" stroke-width="5"/><line x1="307.5983796296297" y1="325.10416666666663" x2="286.5914351851852" y2="262.0833333333333" stroke="rgb(0 159 227)" stroke-width="5"/><line x1="223.5706018518519" y1="325.10416666666663" x2="244.57754629629636" y2="262.0833333333333" stroke="rgb(0 159 227)" stroke-width="5"/><line x1="223.5706018518519" y1="325.10416666666663" x2="202.56365740740745" y2="262.0833333333333" stroke="rgb(0 159 227)" stroke-width="5"/><line x1="97.52893518518522" y1="388.125" x2="139.54282407407413" y2="325.10416666666663" stroke="rgb(0 159 227)" stroke-width="5"/><line x1="97.52893518518522" y1="388.125" x2="55.51504629629636" y2="325.10416666666663" stroke="rgb(0 159 227)" stroke-width="5"/><line x1="139.54282407407413" y1="325.10416666666663" x2="167.55208333333337" y2="262.0833333333333" stroke="rgb(0 159 227)" stroke-width="5"/><line x1="139.54282407407413" y1="325.10416666666663" x2="139.54282407407413" y2="262.0833333333333" stroke="rgb(0 159 227)" stroke-width="5"/><line x1="139.54282407407413" y1="325.10416666666663" x2="111.53356481481484" y2="262.0833333333333" stroke="rgb(0 159 227)" stroke-width="5"/><line x1="55.51504629629636" y1="325.10416666666663" x2="83.5243055555556" y2="262.0833333333333" stroke="rgb(0 159 227)" stroke-width="5"/><line x1="55.51504629629636" y1="325.10416666666663" x2="55.51504629629636" y2="262.0833333333333" stroke="rgb(0 159 227)" stroke-width="5"/><line x1="55.51504629629636" y1="325.10416666666663" x2="27.505787037037067" y2="262.0833333333333" stroke="rgb(0 159 227)" stroke-width="5"/><line x1="265.58449074074076" y1="451.1458333333333" x2="433.6400462962963" y2="388.125" stroke="black"/><line x1="265.58449074074076" y1="451.1458333333333" x2="265.58449074074076" y2="388.125" stroke="black"/><line x1="265.58449074074076" y1="451.1458333333333" x2="97.52893518518522" y2="388.125" stroke="black"/><line x1="433.6400462962963" y1="388.125" x2="489.65856481481484" y2="325.10416666666663" stroke="black"/><line x1="433.6400462962963" y1="388.125" x2="433.6400462962963" y2="325.10416666666663" stroke="black"/><line x1="433.6400462962963" y1="388.125" x2="377.6215277777778" y2="325.10416666666663" stroke="black"/><line x1="489.65856481481484" y1="325.10416666666663" x2="503.66319444444446" y2="262.0833333333333" stroke="black"/><line x1="489.65856481481484" y1="325.10416666666663" x2="475.6539351851852" y2="262.0833333333333" stroke="black"/><line x1="433.6400462962963" y1="325.10416666666663" x2="447.644675925926" y2="262.0833333333333" stroke="black"/><line x1="433.6400462962963" y1="325.10416666666663" x2="419.63541666666674" y2="262.0833333333333" stroke="black"/><line x1="377.6215277777778" y1="325.10416666666663" x2="391.62615740740745" y2="262.0833333333333" stroke="black"/><line x1="377.6215277777778" y1="325.10416666666663" x2="363.61689814814815" y2="262.0833333333333" stroke="black"/><line x1="265.58449074074076" y1="388.125" x2="307.5983796296297" y2="325.10416666666663" stroke="black"/><line x1="265.58449074074076" y1="388.125" x2="223.5706018518519" y2="325.10416666666663" stroke="black"/><line x1="307.5983796296297" y1="325.10416666666663" x2="328.60532407407413" y2="262.0833333333333" stroke="black"/><line x1="307.5983796296297" y1="325.10416666666663" x2="286.5914351851852" y2="262.0833333333333" stroke="black"/><line x1="223.5706018518519" y1="325.10416666666663" x2="244.57754629629636" y2="262.0833333333333" stroke="black"/><line x1="223.5706018518519" y1="325.10416666666663" x2="202.56365740740745" y2="262.0833333333333" stroke="black"/><line x1="97.52893518518522" y1="388.125" x2="139.54282407407413" y2="325.10416666666663" stroke="black"/><line x1="97.52893518518522" y1="388.125" x2="55.51504629629636" y2="325.10416666666663" stroke="black"/><line x1="139.54282407407413" y1="325.10416666666663" x2="167.55208333333337" y2="262.0833333333333" stroke="black"/><line x1="139.54282407407413" y1="325.10416666666663" x2="139.54282407407413" y2="262.0833333333333" stroke="black"/><line x1="139.54282407407413" y1="325.10416666666663" x2="111.53356481481484" y2="262.0833333333333" stroke="black"/><line x1="55.51504629629636" y1="325.10416666666663" x2="83.5243055555556" y2="262.0833333333333" stroke="black"/><line x1="55.51504629629636" y1="325.10416666666663" x2="55.51504629629636" y2="262.0833333333333" stroke="black"/><line x1="55.51504629629636" y1="325.10416666666663" x2="27.505787037037067" y2="262.0833333333333" stroke="black"/><circle cx="265.58449074074076" cy="451.1458333333333" r="10" fill="rgb(229 0 125)" stroke="black" stroke-width="2"/><circle cx="433.6400462962963" cy="388.125" r="10" fill="rgb(229 0 125)" stroke="black" stroke-width="2"/><circle cx="489.65856481481484" cy="325.10416666666663" r="10" fill="rgb(229 0 125)" stroke="black" stroke-width="2"/><circle cx="503.66319444444446" cy="262.0833333333333" r="10" fill="rgb(229 0 125)" stroke="black" stroke-width="2"/><circle cx="475.6539351851852" cy="262.0833333333333" r="10" fill="rgb(229 0 125)" stroke="black" stroke-width="2"/><circle cx="433.6400462962963" cy="325.10416666666663" r="10" fill="rgb(229 0 125)" stroke="black" stroke-width="2"/><circle cx="447.644675925926" cy="262.0833333333333" r="10" fill="rgb(229 0 125)" stroke="black" stroke-width="2"/><circle cx="419.63541666666674" cy="262.0833333333333" r="10" fill="rgb(229 0 125)" stroke="black" stroke-width="2"/><circle cx="377.6215277777778" cy="325.10416666666663" r="10" fill="rgb(229 0 125)" stroke="black" stroke-width="2"/><circle cx="391.62615740740745" cy="262.0833333333333" r="10" fill="rgb(229 0 125)" stroke="black" stroke-width="2"/><circle cx="363.61689814814815" cy="262.0833333333333" r="10" fill="rgb(229 0 125)" stroke="black" stroke-width="2"/><circle cx="265.58449074074076" cy="388.125" r="10" fill="rgb(229 0 125)" stroke="black" stroke-width="2"/><circle cx="307.5983796296297" cy="325.10416666666663" r="10" fill="rgb(229 0 125)" stroke="black" stroke-width="2"/><circle cx="328.60532407407413" cy="262.0833333333333" r="10" fill="rgb(229 0 125)" stroke="black" stroke-width="2"/><circle cx="286.5914351851852" cy="262.0833333333333" r="10" fill="rgb(229 0 125)" stroke="black" stroke-width="2"/><circle cx="223.5706018518519" cy="325.10416666666663" r="10" fill="rgb(229 0 125)" stroke="black" stroke-width="2"/><circle cx="244.57754629629636" cy="262.0833333333333" r="10" fill="rgb(229 0 125)" stroke="black" stroke-width="2"/><circle cx="202.56365740740745" cy="262.0833333333333" r="10" fill="rgb(229 0 125)" stroke="black" stroke-width="2"/><circle cx="97.52893518518522" cy="388.125" r="10" fill="rgb(229 0 125)" stroke="black" stroke-width="2"/><circle cx="139.54282407407413" cy="325.10416666666663" r="10" fill="rgb(229 0 125)" stroke="black" stroke-width="2"/><circle cx="167.55208333333337" cy="262.0833333333333" r="10" fill="rgb(229 0 125)" stroke="black" stroke-width="2"/><circle cx="139.54282407407413" cy="262.0833333333333" r="10" fill="rgb(229 0 125)" stroke="black" stroke-width="2"/><circle cx="111.53356481481484" cy="262.0833333333333" r="10" fill="rgb(229 0 125)" stroke="black" stroke-width="2"/><circle cx="55.51504629629636" cy="325.10416666666663" r="10" fill="rgb(229 0 125)" stroke="black" stroke-width="2"/><circle cx="83.5243055555556" cy="262.0833333333333" r="10" fill="rgb(229 0 125)" stroke="black" stroke-width="2"/><circle cx="55.51504629629636" cy="262.0833333333333" r="10" fill="rgb(229 0 125)" stroke="black" stroke-width="2"/><circle cx="27.505787037037067" cy="262.0833333333333" r="10" fill="rgb(229 0 125)" stroke="black" stroke-width="2"/></svg>