<svg xmlns="http://www.w3.org/2000/svg" width="531.1689814814815" height="492.65625" style="background: white;"><line x1="265.58449074074076" y1="41.51041666666667" x2="97.52893518518519" y2="104.53125" stroke="rgb(0 159 227)" stroke-width="5"/><line x1="265.58449074074076" y1="41.51041666666667" x2="265.58449074074076" y2="104.53125" stroke="rgb(0 159 227)" stroke-width="5"/><line x1="265.58449074074076" y1="41.51041666666667" x2="433.6400462962963" y2="104.53125" stroke="rgb(0 159 227)" stroke-width="5"/><line x1="97.52893518518519" y1="104.53125" x2="27.505787037037038" y2="167.55208333333334" stroke="rgb(0 159 227)" stroke-width="5"/><line x1="97.52893518518519" y1="104.53125" x2="55.5150462962963" y2="167.55208333333334" stroke="rgb(0 159 227)" stroke-width="5"/><line x1="97.52893518518519" y1="104.53125" x2="83.52430555555556" y2="167.55208333333334" stroke="rgb(0 159 227)" stroke-width="5"/><line x1="97.52893518518519" y1="104.53125" x2="111.53356481481481" y2="167.55208333333334" stroke="rgb(0 159 227)" stroke-width="5"/><line x1="97.52893518518519" y1="104.53125" x2="139.54282407407408" y2="167.55208333333334" stroke="rgb(0 159 227)" stroke-width="5"/><line x1="97.52893518518519" y1="104.53125" x2="167.55208333333334" y2="167.55208333333334" stroke="rgb(0 159 227)" stroke-width="5"/><line x1="27.505787037037038" y1="167.55208333333334" x2="20.50347222222222" y2="230.57291666666669" stroke="rgb(0 159 227)" stroke-width="5"/><line x1="27.505787037037038" y1="167.55208333333334" x2="34.50810185185185" y2="230.57291666666669" stroke="rgb(0 159 227)" stroke-width="5"/><line x1="55.5150462962963" y1="167.55208333333334" x2="48.51273148148148" y2="230.57291666666669" stroke="rgb(0 159 227)" stroke-width="5"/><line x1="55.5150462962963" y1="167.55208333333334" x2="62.517361111111114" y2="230.57291666666669" stroke="rgb(0 159 227)" stroke-width="5"/><line x1="83.52430555555556" y1="167.55208333333334" x2="76.52199074074075" y2="230.57291666666669" stroke="rgb(0 159 227)" stroke-width="5"/><line x1="83.52430555555556" y1="167.55208333333334" x2="90.52662037037037" y2="230.57291666666669" stroke="rgb(0 159 227)" stroke-width="5"/><line x1="111.53356481481481" y1="167.55208333333334" x2="104.53125" y2="230.57291666666669" stroke="rgb(0 159 227)" stroke-width="5"/><line x1="111.53356481481481" y1="167.55208333333334" x2="118.53587962962963" y2="230.57291666666669" stroke="rgb(0 159 227)" stroke-width="5"/><line x1="139.54282407407408" y1="167.55208333333334" x2="130.20640432098764" y2="230.57291666666669" stroke="rgb(0 159 227)" stroke-width="5"/><line x1="139.54282407407408" y1="167.55208333333334" x2="139.54282407407408" y2="230.57291666666669" stroke="rgb(0 159 227)" stroke-width="5"/><line x1="139.54282407407408" y1="167.55208333333334" x2="148.8792438271605" y2="230.57291666666669" stroke="rgb(0 159 227)" stroke-width="5"/><line x1="167.55208333333334" y1="167.55208333333334" x2="160.54976851851853" y2="230.57291666666669" stroke="rgb(0 159 227)" stroke-width="5"/><line x1="167.55208333333334" y1="167.55208333333334" x2="174.55439814814815" y2="230.57291666666669" stroke="rgb(0 159 227)" stroke-width="5"/><line x1="265.58449074074076" y1="104.53125" x2="198.3622685185185" y2="167.55208333333334" stroke="rgb(0 159 227)" stroke-width="5"/><line x1="265.58449074074076" y1="104.53125" x2="231.97337962962965" y2="167.55208333333334" stroke="rgb(0 159 227)" stroke-width="5"/><line x1="265.58449074074076" y1="104.53125" x2="265.58449074074076" y2="167.55208333333334" stroke="rgb(0 159 227)" stroke-width="5"/><line x1="265.58449074074076" y1="104.53125" x2="299.19560185185185" y2="167.55208333333334" stroke="rgb(0 159 227)" stroke-width="5"/><line x1="265.58449074074076" y1="104.53125" x2="332.806712962963" y2="167.55208333333334" stroke="rgb(0 159 227)" stroke-width="5"/><line x1="198.3622685185185" y1="167.55208333333334" x2="189.95949074074073" y2="230.57291666666669" stroke="rgb(0 159 227)" stroke-width="5"/><line x1="198.3622685185185" y1="167.55208333333334" x2="206.7650462962963" y2="230.57291666666669" stroke="rgb(0 159 227)" stroke-width="5"/><line x1="231.97337962962965" y1="167.55208333333334" x2="220.76967592592592" y2="230.57291666666669" stroke="rgb(0 159 227)" stroke-width="5"/><line x1="231.97337962962965" y1="167.55208333333334" x2="231.97337962962965" y2="230.57291666666669" stroke="rgb(0 159 227)" stroke-width="5"/><line x1="231.97337962962965" y1="167.55208333333334" x2="243.17708333333331" y2="230.57291666666669" stroke="rgb(0 159 227)" stroke-width="5"/><line x1="265.58449074074076" y1="167.55208333333334" x2="252.9803240740741" y2="230.57291666666669" stroke="rgb(0 159 227)" stroke-width="5"/><line x1="265.58449074074076" y1="167.55208333333334" x2="261.38310185185185" y2="230.57291666666669" stroke="rgb(0 159 227)" stroke-width="5"/><line x1="265.58449074074076" y1="167.55208333333334" x2="269.7858796296296" y2="230.57291666666669" stroke="rgb(0 159 227)" stroke-width="5"/><line x1="265.58449074074076" y1="167.55208333333334" x2="278.1886574074074" y2="230.57291666666669" stroke="rgb(0 159 227)" stroke-width="5"/><line x1="299.19560185185185" y1="167.55208333333334" x2="287.99189814814815" y2="230.57291666666669" stroke="rgb(0 159 227)" stroke-width="5"/><line x1="299.19560185185185" y1="167.55208333333334" x2="299.19560185185185" y2="230.57291666666669" stroke="rgb(0 159 227)" stroke-width="5"/><line x1="299.19560185185185" y1="167.55208333333334" x2="310.3993055555556" y2="230.57291666666669" stroke="rgb(0 159 227)" stroke-width="5"/><line x1="332.806712962963" y1="167.55208333333334" x2="324.4039351851852" y2="230.57291666666669" stroke="rgb(0 159 227)" stroke-width="5"/><line x1="332.806712962963" y1="167.55208333333334" x2="341.2094907407407" y2="230.57291666666669" stroke="rgb(0 159 227)" stroke-width="5"/><line x1="433.6400462962963" y1="104.53125" x2="370.619212962963" y2="167.55208333333334" stroke="rgb(0 159 227)" stroke-width="5"/><line x1="433.6400462962963" y1="104.53125" x2="412.63310185185185" y2="167.55208333333334" stroke="rgb(0 159 227)" stroke-width="5"/><line x1="433.6400462962963" y1="104.53125" x2="454.64699074074076" y2="167.55208333333334" stroke="rgb(0 159 227)" stroke-width="5"/><line x1="433.6400462962963" y1="104.53125" x2="496.6608796296296" y2="167.55208333333334" stroke="rgb(0 159 227)" stroke-width="5"/><line x1="370.619212962963" y1="167.55208333333334" x2="360.11574074074076" y2="230.57291666666669" stroke="rgb(0 159 227)" stroke-width="5"/><line x1="370.619212962963" y1="167.55208333333334" x2="381.12268518518516" y2="230.57291666666669" stroke="rgb(0 159 227)" stroke-width="5"/><line x1="412.63310185185185" y1="167.55208333333334" x2="398.62847222222223" y2="230.57291666666669" stroke="rgb(0 159 227)" stroke-width="5"/><line x1="412.63310185185185" y1="167.55208333333334" x2="412.63310185185185" y2="230.57291666666669" stroke="rgb(0 159 227)" stroke-width="5"/><line x1="412.63310185185185" y1="167.55208333333334" x2="426.63773148148147" y2="230.57291666666669" stroke="rgb(0 159 227)" stroke-width="5"/><line x1="454.64699074074076" y1="167.55208333333334" x2="440.64236111111114" y2="230.57291666666669" stroke="rgb(0 159 227)" stroke-width="5"/><line x1="454.64699074074076" y1="167.55208333333334" x2="454.64699074074076" y2="230.57291666666669" stroke="rgb(0 159 227)" stroke-width="5"/><line x1="454.64699074074076" y1="167.55208333333334" x2="468.6516203703704" y2="230.57291666666669" stroke="rgb(0 159 227)" stroke-width="5"/><line x1="496.6608796296296" y1="167.55208333333334" x2="482.65625" y2="230.57291666666669" stroke="rgb(0 159 227)" stroke-width="5"/><line x1="496.6608796296296" y1="167.55208333333334" x2="496.6608796296296" y2="230.57291666666669" stroke="rgb(0 159 227)" stroke-width="5"/><line x1="496.6608796296296" y1="167.55208333333334" x2="510.66550925925924" y2="230.57291666666669" stroke="rgb(0 159 227)" stroke-width="5"/><line x1="265.58449074074076" y1="41.51041666666667" x2="97.52893518518519" y2="104.53125" stroke="black"/><line x1="265.58449074074076" y1="41.51041666666667" x2="265.58449074074076" y2="104.53125" stroke="black"/><line x1="265.58449074074076" y1="41.51041666666667" x2="433.6400462962963" y2="104.53125" stroke="black"/><line x1="97.52893518518519" y1="104.53125" x2="27.505787037037038" y2="167.55208333333334" stroke="black"/><line x1="97.52893518518519" y1="104.53125" x2="55.5150462962963" y2="167.55208333333334" stroke="black"/><line x1="97.52893518518519" y1="104.53125" x2="83.52430555555556" y2="167.55208333333334" stroke="black"/><line x1="97.52893518518519" y1="104.53125" x2="111.53356481481481" y2="167.55208333333334" stroke="black"/><line x1="97.52893518518519" y1="104.53125" x2="139.54282407407408" y2="167.55208333333334" stroke="black"/><line x1="97.52893518518519" y1="104.53125" x2="167.55208333333334" y2="167.55208333333334" stroke="black"/><line x1="27.505787037037038" y1="167.55208333333334" x2="20.50347222222222" y2="230.57291666666669" stroke="black"/><line x1="27.505787037037038" y1="167.55208333333334" x2="34.50810185185185" y2="230.57291666666669" stroke="black"/><line x1="55.5150462962963" y1="167.55208333333334" x2="48.51273148148148" y2="230.57291666666669" stroke="black"/><line x1="55.5150462962963" y1="167.55208333333334" x2="62.517361111111114" y2="230.57291666666669" stroke="black"/><line x1="83.52430555555556" y1="167.55208333333334" x2="76.52199074074075" y2="230.57291666666669" stroke="black"/><line x1="83.52430555555556" y1="167.55208333333334" x2="90.52662037037037" y2="230.57291666666669" stroke="black"/><line x1="111.53356481481481" y1="167.55208333333334" x2="104.53125" y2="230.57291666666669" stroke="black"/><line x1="111.53356481481481" y1="167.55208333333334" x2="118.53587962962963" y2="230.57291666666669" stroke="black"/><line x1="139.54282407407408" y1="167.55208333333334" x2="130.20640432098764" y2="230.57291666666669" stroke="black"/><line x1="139.54282407407408" y1="167.55208333333334" x2="139.54282407407408" y2="230.57291666666669" stroke="black"/><line x1="139.54282407407408" y1="167.55208333333334" x2="148.8792438271605" y2="230.57291666666669" stroke="black"/><line x1="167.55208333333334" y1="167.55208333333334" x2="160.54976851851853" y2="230.57291666666669" stroke="black"/><line x1="167.55208333333334" y1="167.55208333333334" x2="174.55439814814815" y2="230.57291666666669" stroke="black"/><line x1="265.58449074074076" y1="104.53125" x2="198.3622685185185" y2="167.55208333333334" stroke="black"/><line x1="265.58449074074076" y1="104.53125" x2="231.97337962962965" y2="167.55208333333334" stroke="black"/><line x1="265.58449074074076" y1="104.53125" x2="265.58449074074076" y2="167.55208333333334" stroke="black"/><line x1="265.58449074074076" y1="104.53125" x2="299.19560185185185" y2="167.55208333333334" stroke="black"/><line x1="265.58449074074076" y1="104.53125" x2="332.806712962963" y2="167.55208333333334" stroke="black"/><line x1="198.3622685185185" y1="167.55208333333334" x2="189.95949074074073" y2="230.57291666666669" stroke="black"/><line x1="198.3622685185185" y1="167.55208333333334" x2="206.7650462962963" y2="230.57291666666669" stroke="black"/><line x1="231.97337962962965" y1="167.55208333333334" x2="220.76967592592592" y2="230.57291666666669" stroke="black"/><line x1="231.97337962962965" y1="167.55208333333334" x2="231.97337962962965" y2="230.57291666666669" stroke="black"/><line x1="231.97337962962965" y1="167.55208333333334" x2="243.17708333333331" y2="230.57291666666669" stroke="black"/><line x1="265.58449074074076" y1="167.55208333333334" x2="252.9803240740741" y2="230.57291666666669" stroke="black"/><line x1="265.58449074074076" y1="167.55208333333334" x2="261.38310185185185" y2="230.57291666666669" stroke="black"/><line x1="265.58449074074076" y1="167.55208333333334" x2="269.7858796296296" y2="230.57291666666669" stroke="black"/><line x1="265.58449074074076" y1="167.55208333333334" x2="278.1886574074074" y2="230.57291666666669" stroke="black"/><line x1="299.19560185185185" y1="167.55208333333334" x2="287.99189814814815" y2="230.57291666666669" stroke="black"/><line x1="299.19560185185185" y1="167.55208333333334" x2="299.19560185185185" y2="230.57291666666669" stroke="black"/><line x1="299.19560185185185" y1="167.55208333333334" x2="310.3993055555556" y2="230.57291666666669" stroke="black"/><line x1="332.806712962963" y1="167.55208333333334" x2="324.4039351851852" y2="230.57291666666669" stroke="black"/><line x1="332.806712962963" y1="167.55208333333334" x2="341.2094907407407" y2="230.57291666666669" stroke="black"/><line x1="433.6400462962963" y1="104.53125" x2="370.619212962963" y2="167.55208333333334" stroke="black"/><line x1="433.6400462962963" y1="104.53125" x2="412.63310185185185" y2="167.55208333333334" stroke="black"/><line x1="433.6400462962963" y1="104.53125" x2="454.64699074074076" y2="167.55208333333334" stroke="black"/><line x1="433.6400462962963" y1="104.53125" x2="496.6608796296296" y2="167.55208333333334" stroke="black"/><line x1="370.619212962963" y1="167.55208333333334" x2="360.11574074074076" y2="230.57291666666669" stroke="black"/><line x1="370.619212962963" y1="167.55208333333334" x2="381.12268518518516" y2="230.57291666666669" stroke="black"/><line x1="412.63310185185185" y1="167.55208333333334" x2="398.62847222222223" y2="230.57291666666669" stroke="black"/><line x1="412.63310185185185" y1="167.55208333333334" x2="412.63310185185185" y2="230.57291666666669" stroke="black"/><line x1="412.63310185185185" y1="167.55208333333334" x2="426.63773148148147" y2="230.57291666666669" stroke="black"/><line x1="454.64699074074076" y1="167.55208333333334" x2="440.64236111111114" y2="230.57291666666669" stroke="black"/><line x1="454.64699074074076" y1="167.55208333333334" x2="454.64699074074076" y2="230.57291666666669" stroke="black"/><line x1="454.64699074074076" y1="167.55208333333334" x2="468.6516203703704" y2="230.57291666666669" stroke="black"/><line x1="496.6608796296296" y1="167.55208333333334" x2="482.65625" y2="230.57291666666669" stroke="black"/><line x1="496.6608796296296" y1="167.55208333333334" x2="496.6608796296296" y2="230.57291666666669" stroke="black"/><line x1="496.6608796296296" y1="167.55208333333334" x2="510.66550925925924" y2="230.57291666666669" stroke="black"/><circle cx="265.58449074074076" cy="41.51041666666667" r="10" fill="rgb(229 0 125)" stroke="black" stroke-width="2"/><circle cx="97.52893518518519" cy="104.53125" r="10" fill="rgb(229 0 125)" stroke="black" stroke-width="2"/><circle cx="27.505787037037038" cy="167.55208333333334" r="10" fill="rgb(229 0 125)" stroke="black" stroke-width="2"/><circle cx="20.50347222222222" cy="230.57291666666669" r="10" fill="rgb(229 0 125)" stroke="black" stroke-width="2"/><circle cx="34.50810185185185" cy="230.57291666666669" r="10" fill="rgb(229 0 125)" stroke="black" stroke-width="2"/><circle cx="55.5150462962963" cy="167.55208333333334" r="10" fill="rgb(229 0 125)" stroke="black" stroke-width="2"/><circle cx="48.51273148148148" cy="230.57291666666669" r="10" fill="rgb(229 0 125)" stroke="black" stroke-width="2"/><circle cx="62.517361111111114" cy="230.57291666666669" r="10" fill="rgb(229 0 125)" stroke="black" stroke-width="2"/><circle cx="83.52430555555556" cy="167.55208333333334" r="10" fill="rgb(229 0 125)" stroke="black" stroke-width="2"/><circle cx="76.52199074074075" cy="230.57291666666669" r="10" fill="rgb(229 0 125)" stroke="black" stroke-width="2"/><circle cx="90.52662037037037" cy="230.57291666666669" r="10" fill="rgb(229 0 125)" stroke="black" stroke-width="2"/><circle cx="111.53356481481481" cy="167.55208333333334" r="10" fill="rgb(229 0 125)" stroke="black" stroke-width="2"/><circle cx="104.53125" cy="230.57291666666669" r="10" fill="rgb(229 0 125)" stroke="black" stroke-width="2"/><circle cx="118.53587962962963" cy="230.57291666666669" r="10" fill="rgb(229 0 125)" stroke="black" stroke-width="2"/><circle cx="139.54282407407408" cy="167.55208333333334" r="10" fill="rgb(229 0 125)" stroke="black" stroke-width="2"/><circle cx="130.20640432098764" cy="230.57291666666669" r="10" fill="rgb(229 0 125)" stroke="black" stroke-width="2"/><circle cx="139.54282407407408" cy="230.57291666666669" r="10" fill="rgb(229 0 125)" stroke="black" stroke-width="2"/><circle cx="148.8792438271605" cy="230.57291666666669" r="10" fill="rgb(229 0 125)" stroke="black" stroke-width="2"/><circle cx="167.55208333333334" cy="167.55208333333334" r="10" fill="rgb(229 0 125)" stroke="black" stroke-width="2"/><circle cx="160.54976851851853" cy="230.57291666666669" r="10" fill="rgb(229 0 125)" stroke="black" stroke-width="2"/><circle cx="174.55439814814815" cy="230.57291666666669" r="10" fill="rgb(229 0 125)" stroke="black" stroke-width="2"/><circle cx="265.58449074074076" cy="104.53125" r="10" fill="rgb(229 0 125)" stroke="black" stroke-width="2"/><circle cx="198.3622685185185" cy="167.55208333333334" r="10" fill="rgb(229 0 125)" stroke="black" stroke-width="2"/><circle cx="189.95949074074073" cy="230.57291666666669" r="10" fill="rgb(229 0 125)" stroke="black" stroke-width="2"/><circle cx="206.7650462962963" cy="230.57291666666669" r="10" fill="rgb(229 0 125)" stroke="black" stroke-width="2"/><circle cx="231.97337962962965" cy="167.55208333333334" r="10" fill="rgb(229 0 125)" stroke="black" stroke-width="2"/><circle cx="220.76967592592592" cy="230.57291666666669" r="10" fill="rgb(229 0 125)" stroke="black" stroke-width="2"/><circle cx="231.97337962962965" cy="230.57291666666669" r="10" fill="rgb(229 0 125)" stroke="black" stroke-width="2"/><circle cx="243.17708333333331" cy="230.57291666666669" r="10" fill="rgb(229 0 125)" stroke="black" stroke-width="2"/><circle cx="265.58449074074076" cy="167.55208333333334" r="10" fill="rgb(229 0 125)" stroke="black" stroke-width="2"/><circle cx="252.9803240740741" cy="230.57291666666669" r="10" fill="rgb(229 0 125)" stroke="black" stroke-width="2"/><circle cx="261.38310185185185" cy="230.57291666666669" r="10" fill="rgb(229 0 125)" stroke="black" stroke-width="2"/><circle cx="269.7858796296296" cy="230.57291666666669" r="10" fill="rgb(229 0 125)" stroke="black" stroke-width="2"/><circle cx="278.1886574074074" cy="230.57291666666669" r="10" fill="rgb(229 0 125)" stroke="black" stroke-width="2"/><circle cx="299.19560185185185" cy="167.55208333333334" r="10" fill="rgb(229 0 125)" stroke="black" stroke-width="2"/><circle cx="287.99189814814815" cy="230.57291666666669" r="10" fill="rgb(229 0 125)" stroke="black" stroke-width="2"/><circle cx="299.19560185185185" cy="230.57291666666669" r="10" fill="rgb(229 0 125)" stroke="black" stroke-width="2"/><circle cx="310.3993055555556" cy="230.57291666666669" r="10" fill="rgb(229 0 125)" stroke="black" stroke-width="2"/><circle cx="332.806712962963" cy="167.55208333333334" r="10" fill="rgb(229 0 125)" stroke="black" stroke-width="2"/><circle cx="324.4039351851852" cy="230.57291666666669" r="10" fill="rgb(229 0 125)" stroke="black" stroke-width="2"/><circle cx="341.2094907407407" cy="230.57291666666669" r="10" fill="rgb(229 0 125)" stroke="black" stroke-width="2"/><circle cx="433.6400462962963" cy="104.53125" r="10" fill="rgb(229 0 125)" stroke="black" stroke-width="2"/><circle cx="370.619212962963" cy="167.55208333333334" r="10" fill="rgb(229 0 125)" stroke="black" stroke-width="2"/><circle cx="360.11574074074076" cy="230.57291666666669" r="10" fill="rgb(229 0 125)" stroke="black" stroke-width="2"/><circle cx="381.12268518518516" cy="230.57291666666669" r="10" fill="rgb(229 0 125)" stroke="black" stroke-width="2"/><circle cx="412.63310185185185" cy="167.55208333333334" r="10" fill="rgb(229 0 125)" stroke="black" stroke-width="2"/><circle cx="398.62847222222223" cy="230.57291666666669" r="10" fill="rgb(229 0 125)" stroke="black" stroke-width="2"/><circle cx="412.63310185185185" cy="230.57291666666669" r="10" fill="rgb(229 0 125)" stroke="black" stroke-width="2"/><circle cx="426.63773148148147" cy="230.57291666666669" r="10" fill="rgb(229 0 125)" stroke="black" stroke-width="2"/><circle cx="454.64699074074076" cy="167.55208333333334" r="10" fill="rgb(229 0 125)" stroke="black" stroke-width="2"/><circle cx="440.64236111111114" cy="230.57291666666669" r="10" fill="rgb(229 0 125)" stroke="black" stroke-width="2"/><circle cx="454.64699074074076" cy="230.57291666666669" r="10" fill="rgb(229 0 125)" stroke="black" stroke-width="2"/><circle cx="468.6516203703704" cy="230.57291666666669" r="10" fill="rgb(229 0 125)" stroke="black" stroke-width="2"/><circle cx="496.6608796296296" cy="167.55208333333334" r="10" fill="rgb(229 0 125)" stroke="black" stroke-width="2"/><circle cx="482.65625" cy="230.57291666666669" r="10" fill="rgb(229 0 125)" stroke="black" stroke-width="2"/><circle cx="496.6608796296296" cy="230.57291666666669" r="10" fill="rgb(229 0 125)" stroke="black" stroke-width="2"/><circle cx="510.66550925925924" cy="230.57291666666669" r="10" fill="rgb(229 0 125)" stroke="black" stroke-width="2"/><line x1="265.58449074074076" y1="451.1458333333333" x2="433.6400462962963" y2="388.125" stroke="rgb(0 159 227)" stroke-width="5"/><line x1="265.58449074074076" y1="451.1458333333333" x2="265.58449074074076" y2="388.125" stroke="rgb(0 159 227)" stroke-width="5"/><line x1="265.58449074074076" y1="451.1458333333333" x2="97.52893518518522" y2="388.125" stroke="rgb(0 159 227)" stroke-width="5"/><line x1="433.6400462962963" y1="388.125" x2="503.66319444444446" y2="325.10416666666663" stroke="rgb(0 159 227)" stroke-width="5"/><line x1="433.6400462962963" y1="388.125" x2="475.6539351851852" y2="325.10416666666663" stroke="rgb(0 159 227)" stroke-width="5"/><line x1="433.6400462962963" y1="388.125" x2="447.644675925926" y2="325.10416666666663" stroke="rgb(0 159 227)" stroke-width="5"/><line x1="433.6400462962963" y1="388.125" x2="419.63541666666674" y2="325.10416666666663" stroke="rgb(0 159 227)" stroke-width="5"/><line x1="433.6400462962963" y1="388.125" x2="391.62615740740745" y2="325.10416666666663" stroke="rgb(0 159 227)" stroke-width="5"/><line x1="433.6400462962963" y1="388.125" x2="363.61689814814815" y2="325.10416666666663" stroke="rgb(0 159 227)" stroke-width="5"/><line x1="503.66319444444446" y1="325.10416666666663" x2="510.6655092592593" y2="262.0833333333333" stroke="rgb(0 159 227)" stroke-width="5"/><line x1="503.66319444444446" y1="325.10416666666663" x2="496.6608796296297" y2="262.0833333333333" stroke="rgb(0 159 227)" stroke-width="5"/><line x1="475.6539351851852" y1="325.10416666666663" x2="482.65625000000006" y2="262.0833333333333" stroke="rgb(0 159 227)" stroke-width="5"/><line x1="475.6539351851852" y1="325.10416666666663" x2="468.65162037037044" y2="262.0833333333333" stroke="rgb(0 159 227)" stroke-width="5"/><line x1="447.644675925926" y1="325.10416666666663" x2="454.64699074074076" y2="262.0833333333333" stroke="rgb(0 159 227)" stroke-width="5"/><line x1="447.644675925926" y1="325.10416666666663" x2="440.64236111111114" y2="262.0833333333333" stroke="rgb(0 159 227)" stroke-width="5"/><line x1="419.63541666666674" y1="325.10416666666663" x2="426.6377314814815" y2="262.0833333333333" stroke="rgb(0 159 227)" stroke-width="5"/><line x1="419.63541666666674" y1="325.10416666666663" x2="412.6331018518519" y2="262.0833333333333" stroke="rgb(0 159 227)" stroke-width="5"/><line x1="391.62615740740745" y1="325.10416666666663" x2="400.9625771604939" y2="262.0833333333333" stroke="rgb(0 159 227)" stroke-width="5"/><line x1="391.62615740740745" y1="325.10416666666663" x2="391.62615740740745" y2="262.0833333333333" stroke="rgb(0 159 227)" stroke-width="5"/><line x1="391.62615740740745" y1="325.10416666666663" x2="382.289737654321" y2="262.0833333333333" stroke="rgb(0 159 227)" stroke-width="5"/><line x1="363.61689814814815" y1="325.10416666666663" x2="370.619212962963" y2="262.0833333333333" stroke="rgb(0 159 227)" stroke-width="5"/><line x1="363.61689814814815" y1="325.10416666666663" x2="356.61458333333337" y2="262.0833333333333" stroke="rgb(0 159 227)" stroke-width="5"/><line x1="265.58449074074076" y1="388.125" x2="332.80671296296305" y2="325.10416666666663" stroke="rgb(0 159 227)" stroke-width="5"/><line x1="265.58449074074076" y1="388.125" x2="299.19560185185185" y2="325.10416666666663" stroke="rgb(0 159 227)" stroke-width="5"/><line x1="265.58449074074076" y1="388.125" x2="265.58449074074076" y2="325.10416666666663" stroke="rgb(0 159 227)" stroke-width="5"/><line x1="265.58449074074076" y1="388.125" x2="231.97337962962968" y2="325.10416666666663" stroke="rgb(0 159 227)" stroke-width="5"/><line x1="265.58449074074076" y1="388.125" x2="198.36226851851853" y2="325.10416666666663" stroke="rgb(0 159 227)" stroke-width="5"/><line x1="332.80671296296305" y1="325.10416666666663" x2="341.20949074074076" y2="262.0833333333333" stroke="rgb(0 159 227)" stroke-width="5"/><line x1="332.80671296296305" y1="325.10416666666663" x2="324.4039351851852" y2="262.0833333333333" stroke="rgb(0 159 227)" stroke-width="5"/><line x1="299.19560185185185" y1="325.10416666666663" x2="310.3993055555556" y2="262.0833333333333" stroke="rgb(0 159 227)" stroke-width="5"/><line x1="299.19560185185185" y1="325.10416666666663" x2="299.19560185185185" y2="262.0833333333333" stroke="rgb(0 159 227)" stroke-width="5"/><line x1="299.19560185185185" y1="325.10416666666663" x2="287.9918981481482" y2="262.0833333333333" stroke="rgb(0 159 227)" stroke-width="5"/><line x1="265.58449074074076" y1="325.10416666666663" x2="278.1886574074074" y2="262.0833333333333" stroke="rgb(0 159 227)" stroke-width="5"/><line x1="265.58449074074076" y1="325.10416666666663" x2="269.7858796296297" y2="262.0833333333333" stroke="rgb(0 159 227)" stroke-width="5"/><line x1="265.58449074074076" y1="325.10416666666663" x2="261.3831018518519" y2="262.0833333333333" stroke="rgb(0 159 227)" stroke-width="5"/><line x1="265.58449074074076" y1="325.10416666666663" x2="252.98032407407413" y2="262.0833333333333" stroke="rgb(0 159 227)" stroke-width="5"/><line x1="231.97337962962968" y1="325.10416666666663" x2="243.17708333333337" y2="262.0833333333333" stroke="rgb(0 159 227)" stroke-width="5"/><line x1="231.97337962962968" y1="325.10416666666663" x2="231.97337962962968" y2="262.0833333333333" stroke="rgb(0 159 227)" stroke-width="5"/><line x1="231.97337962962968" y1="325.10416666666663" x2="220.76967592592592" y2="262.0833333333333" stroke="rgb(0 159 227)" stroke-width="5"/><line x1="198.36226851851853" y1="325.10416666666663" x2="206.7650462962963" y2="262.0833333333333" stroke="rgb(0 159 227)" stroke-width="5"/><line x1="198.36226851851853" y1="325.10416666666663" x2="189.95949074074082" y2="262.0833333333333" stroke="rgb(0 159 227)" stroke-width="5"/><line x1="97.52893518518522" y1="388.125" x2="160.54976851851853" y2="325.10416666666663" stroke="rgb(0 159 227)" stroke-width="5"/><line x1="97.52893518518522" y1="388.125" x2="118.53587962962968" y2="325.10416666666663" stroke="rgb(0 159 227)" stroke-width="5"/><line x1="97.52893518518522" y1="388.125" x2="76.52199074074076" y2="325.10416666666663" stroke="rgb(0 159 227)" stroke-width="5"/><line x1="97.52893518518522" y1="388.125" x2="34.508101851851904" y2="325.10416666666663" stroke="rgb(0 159 227)" stroke-width="5"/><line x1="160.54976851851853" y1="325.10416666666663" x2="171.05324074074076" y2="262.0833333333333" stroke="rgb(0 159 227)" stroke-width="5"/><line x1="160.54976851851853" y1="325.10416666666663" x2="150.04629629629636" y2="262.0833333333333" stroke="rgb(0 159 227)" stroke-width="5"/><line x1="118.53587962962968" y1="325.10416666666663" x2="132.5405092592593" y2="262.0833333333333" stroke="rgb(0 159 227)" stroke-width="5"/><line x1="118.53587962962968" y1="325.10416666666663" x2="118.53587962962968" y2="262.0833333333333" stroke="rgb(0 159 227)" stroke-width="5"/><line x1="118.53587962962968" y1="325.10416666666663" x2="104.53125000000006" y2="262.0833333333333" stroke="rgb(0 159 227)" stroke-width="5"/><line x1="76.52199074074076" y1="325.10416666666663" x2="90.52662037037038" y2="262.0833333333333" stroke="rgb(0 159 227)" stroke-width="5"/><line x1="76.52199074074076" y1="325.10416666666663" x2="76.52199074074076" y2="262.0833333333333" stroke="rgb(0 159 227)" stroke-width="5"/><line x1="76.52199074074076" y1="325.10416666666663" x2="62.51736111111114" y2="262.0833333333333" stroke="rgb(0 159 227)" stroke-width="5"/><line x1="34.508101851851904" y1="325.10416666666663" x2="48.512731481481524" y2="262.0833333333333" stroke="rgb(0 159 227)" stroke-width="5"/><line x1="34.508101851851904" y1="325.10416666666663" x2="34.508101851851904" y2="262.0833333333333" stroke="rgb(0 159 227)" stroke-width="5"/><line x1="34.508101851851904" y1="325.10416666666663" x2="20.503472222222285" y2="262.0833333333333" stroke="rgb(0 159 227)" stroke-width="5"/><line x1="265.58449074074076" y1="451.1458333333333" x2="433.6400462962963" y2="388.125" stroke="black"/><line x1="265.58449074074076" y1="451.1458333333333" x2="265.58449074074076" y2="388.125" stroke="black"/><line x1="265.58449074074076" y1="451.1458333333333" x2="97.52893518518522" y2="388.125" stroke="black"/><line x1="433.6400462962963" y1="388.125" x2="503.66319444444446" y2="325.10416666666663" stroke="black"/><line x1="433.6400462962963" y1="388.125" x2="475.6539351851852" y2="325.10416666666663" stroke="black"/><line x1="433.6400462962963" y1="388.125" x2="447.644675925926" y2="325.10416666666663" stroke="black"/><line x1="433.6400462962963" y1="388.125" x2="419.63541666666674" y2="325.10416666666663" stroke="black"/><line x1="433.6400462962963" y1="388.125" x2="391.62615740740745" y2="325.10416666666663" stroke="black"/><line x1="433.6400462962963" y1="388.125" x2="363.61689814814815" y2="325.10416666666663" stroke="black"/><line x1="503.66319444444446" y1="325.10416666666663" x2="510.6655092592593" y2="262.0833333333333" stroke="black"/><line x1="503.66319444444446" y1="325.10416666666663" x2="496.6608796296297" y2="262.0833333333333" stroke="black"/><line x1="475.6539351851852" y1="325.10416666666663" x2="482.65625000000006" y2="262.0833333333333" stroke="black"/><line x1="475.6539351851852" y1="325.10416666666663" x2="468.65162037037044" y2="262.0833333333333" stroke="black"/><line x1="447.644675925926" y1="325.10416666666663" x2="454.64699074074076" y2="262.0833333333333" stroke="black"/><line x1="447.644675925926" y1="325.10416666666663" x2="440.64236111111114" y2="262.0833333333333" stroke="black"/><line x1="419.63541666666674" y1="325.10416666666663" x2="426.6377314814815" y2="262.0833333333333" stroke="black"/><line x1="419.63541666666674" y1="325.10416666666663" x2="412.6331018518519" y2="262.0833333333333" stroke="black"/><line x1="391.62615740740745" y1="325.10416666666663" x2="400.9625771604939" y2="262.0833333333333" stroke="black"/><line x1="391.62615740740745" y1="325.10416666666663" x2="391.62615740740745" y2="262.0833333333333" stroke="black"/><line x1="391.62615740740745" y1="325.10416666666663" x2="382.289737654321" y2="262.0833333333333" stroke="black"/><line x1="363.61689814814815" y1="325.10416666666663" x2="370.619212962963" y2="262.0833333333333" stroke="black"/><line x1="363.61689814814815" y1="325.10416666666663" x2="356.61458333333337" y2="262.0833333333333" stroke="black"/><line x1="265.58449074074076" y1="388.125" x2="332.80671296296305" y2="325.10416666666663" stroke="black"/><line x1="265.58449074074076" y1="388.125" x2="299.19560185185185" y2="325.10416666666663" stroke="black"/><line x1="265.58449074074076" y1="388.125" x2="265.58449074074076" y2="325.10416666666663" stroke="black"/><line x1="265.58449074074076" y1="388.125" x2="231.97337962962968" y2="325.10416666666663" stroke="black"/><line x1="265.58449074074076" y1="388.125" x2="198.36226851851853" y2="325.10416666666663" stroke="black"/><line x1="332.80671296296305" y1="325.10416666666663" x2="341.20949074074076" y2="262.0833333333333" stroke="black"/><line x1="332.80671296296305" y1="325.10416666666663" x2="324.4039351851852" y2="262.0833333333333" stroke="black"/><line x1="299.19560185185185" y1="325.10416666666663" x2="310.3993055555556" y2="262.0833333333333" stroke="black"/><line x1="299.19560185185185" y1="325.10416666666663" x2="299.19560185185185" y2="262.0833333333333" stroke="black"/><line x1="299.19560185185185" y1="325.10416666666663" x2="287.9918981481482" y2="262.0833333333333" stroke="black"/><line x1="265.58449074074076" y1="325.10416666666663" x2="278.1886574074074" y2="262.0833333333333" stroke="black"/><line x1="265.58449074074076" y1="325.10416666666663" x2="269.7858796296297" y2="262.0833333333333" stroke="black"/><line x1="265.58449074074076" y1="325.10416666666663" x2="261.3831018518519" y2="262.0833333333333" stroke="black"/><line x1="265.58449074074076" y1="325.10416666666663" x2="252.98032407407413" y2="262.0833333333333" stroke="black"/><line x1="231.97337962962968" y1="325.10416666666663" x2="243.17708333333337" y2="262.0833333333333" stroke="black"/><line x1="231.97337962962968" y1="325.10416666666663" x2="231.97337962962968" y2="262.0833333333333" stroke="black"/><line x1="231.97337962962968" y1="325.10416666666663" x2="220.76967592592592" y2="262.0833333333333" stroke="black"/><line x1="198.36226851851853" y1="325.10416666666663" x2="206.7650462962963" y2="262.0833333333333" stroke="black"/><line x1="198.36226851851853" y1="325.10416666666663" x2="189.95949074074082" y2="262.0833333333333" stroke="black"/><line x1="97.52893518518522" y1="388.125" x2="160.54976851851853" y2="325.10416666666663" stroke="black"/><line x1="97.52893518518522" y1="388.125" x2="118.53587962962968" y2="325.10416666666663" stroke="black"/><line x1="97.52893518518522" y1="388.125" x2="76.52199074074076" y2="325.10416666666663" stroke="black"/><line x1="97.52893518518522" y1="388.125" x2="34.508101851851904" y2="325.10416666666663" stroke="black"/><line x1="160.54976851851853" y1="325.10416666666663" x2="171.05324074074076" y2="262.0833333333333" stroke="black"/><line x1="160.54976851851853" y1="325.10416666666663" x2="150.04629629629636" y2="262.0833333333333" stroke="black"/><line x1="118.53587962962968" y1="325.10416666666663" x2="132.5405092592593" y2="262.0833333333333" stroke="black"/><line x1="118.53587962962968" y1="325.10416666666663" x2="118.53587962962968" y2="262.0833333333333" stroke="black"/><line x1="118.53587962962968" y1="325.10416666666663" x2="104.53125000000006" y2="262.0833333333333" stroke="black"/><line x1="76.52199074074076" y1="325.10416666666663" x2="90.52662037037038" y2="262.0833333333333" stroke="black"/><line x1="76.52199074074076" y1="325.10416666666663" x2="76.52199074074076" y2="262.0833333333333" stroke="black"/><line x1="76.52199074074076" y1="325.10416666666663" x2="62.51736111111114" y2="262.0833333333333" stroke="black"/><line x1="34.508101851851904" y1="325.10416666666663" x2="48.512731481481524" y2="262.0833333333333" stroke="black"/><line x1="34.508101851851904" y1="325.10416666666663" x2="34.508101851851904" y2="262.0833333333333" stroke="black"/><line x1="34.508101851851904" y1="325.10416666666663" x2="20.503472222222285" y2="262.0833333333333" stroke="black"/><circle cx="265.58449074074076" cy="451.1458333333333" r="10" fill="rgb(229 0 125)" stroke="black" stroke-width="2"/><circle cx="433.6400462962963" cy="388.125" r="10" fill="rgb(229 0 125)" stroke="black" stroke-width="2"/><circle cx="503.66319444444446" cy="325.10416666666663" r="10" fill="rgb(229 0 125)" stroke="black" stroke-width="2"/><circle cx="510.6655092592593" cy="262.0833333333333" r="10" fill="rgb(229 0 125)" stroke="black" stroke-width="2"/><circle cx="496.6608796296297" cy="262.0833333333333" r="10" fill="rgb(229 0 125)" stroke="black" stroke-width="2"/><circle cx="475.6539351851852" cy="325.10416666666663" r="10" fill="rgb(229 0 125)" stroke="black" stroke-width="2"/><circle cx="482.65625000000006" cy="262.0833333333333" r="10" fill="rgb(229 0 125)" stroke="black" stroke-width="2"/><circle cx="468.65162037037044" cy="262.0833333333333" r="10" fill="rgb(229 0 125)" stroke="black" stroke-width="2"/><circle cx="447.644675925926" cy="325.10416666666663" r="10" fill="rgb(229 0 125)" stroke="black" stroke-width="2"/><circle cx="454.64699074074076" cy="262.0833333333333" r="10" fill="rgb(229 0 125)" stroke="black" stroke-width="2"/><circle cx="440.64236111111114" cy="262.0833333333333" r="10" fill="rgb(229 0 125)" stroke="black" stroke-width="2"/><circle cx="419.63541666666674" cy="325.10416666666663" r="10" fill="rgb(229 0 125)" stroke="black" stroke-width="2"/><circle cx="426.6377314814815" cy="262.0833333333333" r="10" fill="rgb(229 0 125)" stroke="black" stroke-width="2"/><circle cx="412.6331018518519" cy="262.0833333333333" r="10" fill="rgb(229 0 125)" stroke="black" stroke-width="2"/><circle cx="391.62615740740745" cy="325.10416666666663" r="10" fill="rgb(229 0 125)" stroke="black" stroke-width="2"/><circle cx="400.9625771604939" cy="262.0833333333333" r="10" fill="rgb(229 0 125)" stroke="black" stroke-width="2"/><circle cx="391.62615740740745" cy="262.0833333333333" r="10" fill="rgb(229 0 125)" stroke="black" stroke-width="2"/><circle cx="382.289737654321" cy="262.0833333333333" r="10" fill="rgb(229 0 125)" stroke="black" stroke-width="2"/><circle cx="363.61689814814815" cy="325.10416666666663" r="10" fill="rgb(229 0 125)" stroke="black" stroke-width="2"/><circle cx="370.619212962963" cy="262.0833333333333" r="10" fill="rgb(229 0 125)" stroke="black" stroke-width="2"/><circle cx="356.61458333333337" cy="262.0833333333333" r="10" fill="rgb(229 0 125)" stroke="black" stroke-width="2"/><circle cx="265.58449074074076" cy="388.125" r="10" fill="rgb(229 0 125)" stroke="black" stroke-width="2"/><circle cx="332.80671296296305" cy="325.10416666666663" r="10" fill="rgb(229 0 125)" stroke="black" stroke-width="2"/><circle cx="341.20949074074076" cy="262.0833333333333" r="10" fill="rgb(229 0 125)" stroke="black" stroke-width="2"/><circle cx="324.4039351851852" cy="262.0833333333333" r="10" fill="rgb(229 0 125)" stroke="black" stroke-width="2"/><circle cx="299.19560185185185" cy="325.10416666666663" r="10" fill="rgb(229 0 125)" stroke="black" stroke-width="2"/><circle cx="310.3993055555556" cy="262.0833333333333" r="10" fill="rgb(229 0 125)" stroke="black" stroke-width="2"/><circle cx="299.19560185185185" cy="262.0833333333333" r="10" fill="rgb(229 0 125)" stroke="black" stroke-width="2"/><circle cx="287.9918981481482" cy="262.0833333333333" r="10" fill="rgb(229 0 125)" stroke="black" stroke-width="2"/><circle cx="265.58449074074076" cy="325.10416666666663" r="10" fill="rgb(229 0 125)" stroke="black" stroke-width="2"/><circle cx="278.1886574074074" cy="262.0833333333333" r="10" fill="rgb(229 0 125)" stroke="black" stroke-width="2"/><circle cx="269.7858796296297" cy="262.0833333333333" r="10" fill="rgb(229 0 125)" stroke="black" stroke-width="2"/><circle cx="261.3831018518519" cy="262.0833333333333" r="10" fill="rgb(229 0 125)" stroke="black" stroke-width="2"/><circle cx="252.98032407407413" cy="262.0833333333333" r="10" fill="rgb(229 0 125)" stroke="black" stroke-width="2"/><circle cx="231.97337962962968" cy="325.10416666666663" r="10" fill="rgb(229 0 125)" stroke="black" stroke-width="2"/><circle cx="243.17708333333337" cy="262.0833333333333" r="10" fill="rgb(229 0 125)" stroke="black" stroke-width="2"/><circle cx="231.97337962962968" cy="262.0833333333333" r="10" fill="rgb(229 0 125)" stroke="black" stroke-width="2"/><circle cx="220.76967592592592" cy="262.0833333333333" r="10" fill="rgb(229 0 125)" stroke="black" stroke-width="2"/><circle cx="198.36226851851853" cy="325.10416666666663" r="10" fill="rgb(229 0 125)" stroke="black" stroke-width="2"/><circle cx="206.7650462962963" cy="262.0833333333333" r="10" fill="rgb(229 0 125)" stroke="black" stroke-width="2"/><circle cx="189.95949074074082" cy="262.0833333333333" r="10" fill="rgb(229 0 125)" stroke="black" stroke-width="2"/><circle cx="97.52893518518522" cy="388.125" r="10" fill="rgb(229 0 125)" stroke="black" stroke-width="2"/><circle cx="160.54976851851853" cy="325.10416666666663" r="10" fill="rgb(229 0 125)" stroke="black" stroke-width="2"/><circle cx="171.05324074074076" cy="262.0833333333333" r="10" fill="rgb(229 0 125)" stroke="black" stroke-width="2"/><circle cx="150.04629629629636" cy="262.0833333333333" r="10" fill="rgb(229 0 125)" stroke="black" stroke-width="2"/><circle cx="118.53587962962968" cy="325.10416666666663" r="10" fill="rgb(229 0 125)" stroke="black" stroke-width="2"/><circle cx="132.5405092592593" cy="262.0833333333333" r="10" fill="rgb(229 0 125)" stroke="black" stroke-width="2"/><circle cx="118.53587962962968" cy="262.0833333333333" r="10" fill="rgb(229 0 125)" stroke="black" stroke-width="2"/><circle cx="104.53125000000006" cy="262.0833333333333" r="10" fill="rgb(229 0 125)" stroke="black" stroke-width="2"/><circle cx="76.52199074074076" cy="325.10416666666663" r="10" fill="rgb(229 0 125)" stroke="black" stroke-width="2"/><circle cx="90.52662037037038" cy="262.0833333333333" r="10" fill="rgb(229 0 125)" stroke="black" stroke-width="2"/><circle cx="76.52199074074076" cy="262.0833333333333" r="10" fill="rgb(229 0 125)" stroke="black" stroke-width="2"/><circle cx="62.51736111111114" cy="262.0833333333333" r="10" fill="rgb(229 0 125)" stroke="black" stroke-width="2"/><circle cx="34.508101851851904" cy="325.10416666666663" r="10" fill="rgb(229 0 125)" stroke="black" stroke-width="2"/><circle cx="48.512731481481524" cy="262.0833333333333" r="10" fill="rgb(229 0 125)" stroke="black" stroke-width="2"/><circle cx="34.508101851851904" cy="262.0833333333333" r="10" fill="rgb(229 0 125)" stroke="black" stroke-width="2"/><circle cx="20.503472222222285" cy="262.0833333333333" r="10" fill="rgb(229 0 125)" stroke="black" stroke-width="2"/></svg>