<svg xmlns="http://www.w3.org/2000/svg" width="531.1689814814815" height="492.65625" style="background: white;"><defs><linearGradient id="grad" x1="0%" y1="0%" x2="100%" y2="0%"><stop offset="0%" stop-color="rgb(255 204 0)"/><stop offset="50%" stop-color="white"/><stop offset="100%" stop-color="rgb(255 204 0)"/></linearGradient></defs><rect x="13.501157407407408" y="25.755208333333336" width="504.1666666666667" height="252.08333333333334" fill="url(#grad)" stroke="black"/><rect x="13.501157407407408" y="88.77604166666667" width="168.05555555555554" height="189.0625" fill="url(#grad)" stroke="black"/><rect x="13.501157407407408" y="151.796875" width="28.00925925925926" height="126.04166666666667" fill="url(#grad)" stroke="black"/><rect x="13.501157407407408" y="214.81770833333334" width="14.00462962962963" height="63.020833333333336" fill="url(#grad)" stroke="black"/><rect x="27.505787037037038" y="214.81770833333334" width="14.00462962962963" height="63.020833333333336" fill="url(#grad)" stroke="black"/><rect x="41.51041666666667" y="151.796875" width="28.00925925925926" height="126.04166666666667" fill="url(#grad)" stroke="black"/><rect x="41.51041666666667" y="214.81770833333334" width="14.00462962962963" height="63.020833333333336" fill="url(#grad)" stroke="black"/><rect x="55.5150462962963" y="214.81770833333334" width="14.00462962962963" height="63.020833333333336" fill="url(#grad)" stroke="black"/><rect x="69.51967592592592" y="151.796875" width="28.00925925925926" height="126.04166666666667" fill="url(#grad)" stroke="black"/><rect x="69.51967592592592" y="214.81770833333334" width="14.00462962962963" height="63.020833333333336" fill="url(#grad)" stroke="black"/><rect x="83.52430555555556" y="214.81770833333334" width="14.00462962962963" height="63.020833333333336" fill="url(#grad)" stroke="black"/><rect x="97.52893518518519" y="151.796875" width="28.00925925925926" height="126.04166666666667" fill="url(#grad)" stroke="black"/><rect x="97.52893518518519" y="214.81770833333334" width="14.00462962962963" height="63.020833333333336" fill="url(#grad)" stroke="black"/><rect x="111.53356481481481" y="214.81770833333334" width="14.00462962962963" height="63.020833333333336" fill="url(#grad)" stroke="black"/><rect x="125.53819444444444" y="151.796875" width="28.00925925925926" height="126.04166666666667" fill="url(#grad)" stroke="black"/><rect x="125.53819444444444" y="214.81770833333334" width="14.00462962962963" height="63.020833333333336" fill="url(#grad)" stroke="black"/><rect x="139.54282407407408" y="214.81770833333334" width="14.00462962962963" height="63.020833333333336" fill="url(#grad)" stroke="black"/><rect x="153.5474537037037" y="151.796875" width="28.00925925925926" height="126.04166666666667" fill="url(#grad)" stroke="black"/><rect x="153.5474537037037" y="214.81770833333334" width="14.00462962962963" height="63.020833333333336" fill="url(#grad)" stroke="black"/><rect x="167.55208333333334" y="214.81770833333334" width="14.00462962962963" height="63.020833333333336" fill="url(#grad)" stroke="black"/><rect x="181.55671296296296" y="88.77604166666667" width="168.05555555555554" height="189.0625" fill="url(#grad)" stroke="black"/><rect x="181.55671296296296" y="151.796875" width="33.61111111111111" height="126.04166666666667" fill="url(#grad)" stroke="black"/><rect x="181.55671296296296" y="214.81770833333334" width="8.402777777777777" height="63.020833333333336" fill="url(#grad)" stroke="black"/><rect x="189.95949074074073" y="214.81770833333334" width="8.402777777777777" height="63.020833333333336" fill="url(#grad)" stroke="black"/><rect x="198.3622685185185" y="214.81770833333334" width="8.402777777777777" height="63.020833333333336" fill="url(#grad)" stroke="black"/><rect x="206.7650462962963" y="214.81770833333334" width="8.402777777777777" height="63.020833333333336" fill="url(#grad)" stroke="black"/><rect x="215.16782407407408" y="151.796875" width="33.61111111111111" height="126.04166666666667" fill="url(#grad)" stroke="black"/><rect x="215.16782407407408" y="214.81770833333334" width="16.805555555555554" height="63.020833333333336" fill="url(#grad)" stroke="black"/><rect x="231.97337962962965" y="214.81770833333334" width="16.805555555555554" height="63.020833333333336" fill="url(#grad)" stroke="black"/><rect x="248.7789351851852" y="151.796875" width="33.61111111111111" height="126.04166666666667" fill="url(#grad)" stroke="black"/><rect x="248.7789351851852" y="214.81770833333334" width="11.203703703703704" height="63.020833333333336" fill="url(#grad)" stroke="black"/><rect x="259.9826388888889" y="214.81770833333334" width="11.203703703703704" height="63.020833333333336" fill="url(#grad)" stroke="black"/><rect x="271.18634259259255" y="214.81770833333334" width="11.203703703703704" height="63.020833333333336" fill="url(#grad)" stroke="black"/><rect x="282.3900462962963" y="151.796875" width="33.61111111111111" height="126.04166666666667" fill="url(#grad)" stroke="black"/><rect x="282.3900462962963" y="214.81770833333334" width="16.805555555555554" height="63.020833333333336" fill="url(#grad)" stroke="black"/><rect x="299.19560185185185" y="214.81770833333334" width="16.805555555555554" height="63.020833333333336" fill="url(#grad)" stroke="black"/><rect x="316.00115740740745" y="151.796875" width="33.61111111111111" height="126.04166666666667" fill="url(#grad)" stroke="black"/><rect x="316.00115740740745" y="214.81770833333334" width="8.402777777777777" height="63.020833333333336" fill="url(#grad)" stroke="black"/><rect x="324.4039351851852" y="214.81770833333334" width="8.402777777777777" height="63.020833333333336" fill="url(#grad)" stroke="black"/><rect x="332.806712962963" y="214.81770833333334" width="8.402777777777777" height="63.020833333333336" fill="url(#grad)" stroke="black"/><rect x="341.2094907407407" y="214.81770833333334" width="8.402777777777777" height="63.020833333333336" fill="url(#grad)" stroke="black"/><rect x="349.61226851851853" y="88.77604166666667" width="168.05555555555554" height="189.0625" fill="url(#grad)" stroke="black"/><rect x="349.61226851851853" y="151.796875" width="42.013888888888886" height="126.04166666666667" fill="url(#grad)" stroke="black"/><rect x="349.61226851851853" y="214.81770833333334" width="14.00462962962963" height="63.020833333333336" fill="url(#grad)" stroke="black"/><rect x="363.61689814814815" y="214.81770833333334" width="14.00462962962963" height="63.020833333333336" fill="url(#grad)" stroke="black"/><rect x="377.62152777777777" y="214.81770833333334" width="14.00462962962963" height="63.020833333333336" fill="url(#grad)" stroke="black"/><rect x="391.6261574074074" y="151.796875" width="42.013888888888886" height="126.04166666666667" fill="url(#grad)" stroke="black"/><rect x="391.6261574074074" y="214.81770833333334" width="14.00462962962963" height="63.020833333333336" fill="url(#grad)" stroke="black"/><rect x="405.63078703703707" y="214.81770833333334" width="14.00462962962963" height="63.020833333333336" fill="url(#grad)" stroke="black"/><rect x="419.6354166666667" y="214.81770833333334" width="14.00462962962963" height="63.020833333333336" fill="url(#grad)" stroke="black"/><rect x="433.6400462962963" y="151.796875" width="42.013888888888886" height="126.04166666666667" fill="url(#grad)" stroke="black"/><rect x="433.6400462962963" y="214.81770833333334" width="14.00462962962963" height="63.020833333333336" fill="url(#grad)" stroke="black"/><rect x="447.6446759259259" y="214.81770833333334" width="14.00462962962963" height="63.020833333333336" fill="url(#grad)" stroke="black"/><rect x="461.64930555555554" y="214.81770833333334" width="14.00462962962963" height="63.020833333333336" fill="url(#grad)" stroke="black"/><rect x="475.65393518518516" y="151.796875" width="42.013888888888886" height="126.04166666666667" fill="url(#grad)" stroke="black"/><rect x="475.65393518518516" y="214.81770833333334" width="14.00462962962963" height="63.020833333333336" fill="url(#grad)" stroke="black"/><rect x="489.65856481481484" y="214.81770833333334" width="14.00462962962963" height="63.020833333333336" fill="url(#grad)" stroke="black"/><rect x="503.66319444444446" y="214.81770833333334" width="14.00462962962963" height="63.020833333333336" fill="url(#grad)" stroke="black"/><defs><linearGradient id="grad" x1="0%" y1="0%" x2="100%" y2="0%"><stop offset="0%" stop-color="rgb(255 204 0)"/><stop offset="50%" stop-color="white"/><stop offset="100%" stop-color="rgb(255 204 0)"/></linearGradient></defs><rect x="13.501157407407408" y="214.81770833333334" width="504.1666666666667" height="252.08333333333334" fill="url(#grad)" stroke="black"/><rect x="349.61226851851853" y="214.81770833333334" width="168.05555555555554" height="189.0625" fill="url(#grad)" stroke="black"/><rect x="489.65856481481484" y="214.81770833333334" width="28.00925925925926" height="126.04166666666667" fill="url(#grad)" stroke="black"/><rect x="503.66319444444446" y="214.81770833333334" width="14.00462962962963" height="63.020833333333336" fill="url(#grad)" stroke="black"/><rect x="489.65856481481484" y="214.81770833333334" width="14.00462962962963" height="63.020833333333336" fill="url(#grad)" stroke="black"/><rect x="461.64930555555554" y="214.81770833333334" width="28.00925925925926" height="126.04166666666667" fill="url(#grad)" stroke="black"/><rect x="475.65393518518516" y="214.81770833333334" width="14.00462962962963" height="63.020833333333336" fill="url(#grad)" stroke="black"/><rect x="461.64930555555554" y="214.81770833333334" width="14.00462962962963" height="63.020833333333336" fill="url(#grad)" stroke="black"/><rect x="433.6400462962963" y="214.81770833333334" width="28.00925925925926" height="126.04166666666667" fill="url(#grad)" stroke="black"/><rect x="447.6446759259259" y="214.81770833333334" width="14.00462962962963" height="63.020833333333336" fill="url(#grad)" stroke="black"/><rect x="433.6400462962963" y="214.81770833333334" width="14.00462962962963" height="63.020833333333336" fill="url(#grad)" stroke="black"/><rect x="405.63078703703707" y="214.81770833333334" width="28.00925925925926" height="126.04166666666667" fill="url(#grad)" stroke="black"/><rect x="419.6354166666667" y="214.81770833333334" width="14.00462962962963" height="63.020833333333336" fill="url(#grad)" stroke="black"/><rect x="405.63078703703707" y="214.81770833333334" width="14.00462962962963" height="63.020833333333336" fill="url(#grad)" stroke="black"/><rect x="377.62152777777777" y="214.81770833333334" width="28.00925925925926" height="126.04166666666667" fill="url(#grad)" stroke="black"/><rect x="391.6261574074074" y="214.81770833333334" width="14.00462962962963" height="63.020833333333336" fill="url(#grad)" stroke="black"/><rect x="377.62152777777777" y="214.81770833333334" width="14.00462962962963" height="63.020833333333336" fill="url(#grad)" stroke="black"/><rect x="349.61226851851853" y="214.81770833333334" width="28.00925925925926" height="126.04166666666667" fill="url(#grad)" stroke="black"/><rect x="363.61689814814815" y="214.81770833333334" width="14.00462962962963" height="63.020833333333336" fill="url(#grad)" stroke="black"/><rect x="349.61226851851853" y="214.81770833333334" width="14.00462962962963" height="63.020833333333336" fill="url(#grad)" stroke="black"/><rect x="181.55671296296296" y="214.81770833333334" width="168.05555555555554" height="189.0625" fill="url(#grad)" stroke="black"/><rect x="316.00115740740745" y="214.81770833333334" width="33.61111111111111" height="126.04166666666667" fill="url(#grad)" stroke="black"/><rect x="341.2094907407407" y="214.81770833333334" width="8.402777777777777" height="63.020833333333336" fill="url(#grad)" stroke="black"/><rect x="332.80671296296293" y="214.81770833333334" width="8.402777777777777" height="63.020833333333336" fill="url(#grad)" stroke="black"/><rect x="324.40393518518516" y="214.81770833333334" width="8.402777777777777" height="63.020833333333336" fill="url(#grad)" stroke="black"/><rect x="316.0011574074074" y="214.81770833333334" width="8.402777777777777" height="63.020833333333336" fill="url(#grad)" stroke="black"/><rect x="282.39004629629636" y="214.81770833333334" width="33.61111111111111" height="126.04166666666667" fill="url(#grad)" stroke="black"/><rect x="299.1956018518519" y="214.81770833333334" width="16.805555555555554" height="63.020833333333336" fill="url(#grad)" stroke="black"/><rect x="282.3900462962963" y="214.81770833333334" width="16.805555555555554" height="63.020833333333336" fill="url(#grad)" stroke="black"/><rect x="248.7789351851852" y="214.81770833333334" width="33.61111111111111" height="126.04166666666667" fill="url(#grad)" stroke="black"/><rect x="271.18634259259255" y="214.81770833333334" width="11.203703703703704" height="63.020833333333336" fill="url(#grad)" stroke="black"/><rect x="259.98263888888886" y="214.81770833333334" width="11.203703703703704" height="63.020833333333336" fill="url(#grad)" stroke="black"/><rect x="248.7789351851852" y="214.81770833333334" width="11.203703703703704" height="63.020833333333336" fill="url(#grad)" stroke="black"/><rect x="215.16782407407408" y="214.81770833333334" width="33.61111111111111" height="126.04166666666667" fill="url(#grad)" stroke="black"/><rect x="231.97337962962965" y="214.81770833333334" width="16.805555555555554" height="63.020833333333336" fill="url(#grad)" stroke="black"/><rect x="215.1678240740741" y="214.81770833333334" width="16.805555555555554" height="63.020833333333336" fill="url(#grad)" stroke="black"/><rect x="181.55671296296293" y="214.81770833333334" width="33.61111111111111" height="126.04166666666667" fill="url(#grad)" stroke="black"/><rect x="206.76504629629628" y="214.81770833333334" width="8.402777777777777" height="63.020833333333336" fill="url(#grad)" stroke="black"/><rect x="198.36226851851848" y="214.81770833333334" width="8.402777777777777" height="63.020833333333336" fill="url(#grad)" stroke="black"/><rect x="189.95949074074073" y="214.81770833333334" width="8.402777777777777" height="63.020833333333336" fill="url(#grad)" stroke="black"/><rect x="181.556712962963" y="214.81770833333334" width="8.402777777777777" height="63.020833333333336" fill="url(#grad)" stroke="black"/><rect x="13.501157407407408" y="214.81770833333334" width="168.05555555555554" height="189.0625" fill="url(#grad)" stroke="black"/><rect x="139.54282407407408" y="214.81770833333334" width="42.013888888888886" height="126.04166666666667" fill="url(#grad)" stroke="black"/><rect x="167.55208333333334" y="214.81770833333334" width="14.00462962962963" height="63.020833333333336" fill="url(#grad)" stroke="black"/><rect x="153.5474537037037" y="214.81770833333334" width="14.00462962962963" height="63.020833333333336" fill="url(#grad)" stroke="black"/><rect x="139.54282407407408" y="214.81770833333334" width="14.00462962962963" height="63.020833333333336" fill="url(#grad)" stroke="black"/><rect x="97.52893518518519" y="214.81770833333334" width="42.013888888888886" height="126.04166666666667" fill="url(#grad)" stroke="black"/><rect x="125.53819444444444" y="214.81770833333334" width="14.00462962962963" height="63.020833333333336" fill="url(#grad)" stroke="black"/><rect x="111.53356481481481" y="214.81770833333334" width="14.00462962962963" height="63.020833333333336" fill="url(#grad)" stroke="black"/><rect x="97.52893518518519" y="214.81770833333334" width="14.00462962962963" height="63.020833333333336" fill="url(#grad)" stroke="black"/><rect x="55.5150462962963" y="214.81770833333334" width="42.013888888888886" height="126.04166666666667" fill="url(#grad)" stroke="black"/><rect x="83.52430555555556" y="214.81770833333334" width="14.00462962962963" height="63.020833333333336" fill="url(#grad)" stroke="black"/><rect x="69.51967592592592" y="214.81770833333334" width="14.00462962962963" height="63.020833333333336" fill="url(#grad)" stroke="black"/><rect x="55.5150462962963" y="214.81770833333334" width="14.00462962962963" height="63.020833333333336" fill="url(#grad)" stroke="black"/><rect x="13.501157407407408" y="214.81770833333334" width="42.013888888888886" height="126.04166666666667" fill="url(#grad)" stroke="black"/><rect x="41.51041666666667" y="214.81770833333334" width="14.00462962962963" height="63.020833333333336" fill="url(#grad)" stroke="black"/><rect x="27.505787037037038" y="214.81770833333334" width="14.00462962962963" height="63.020833333333336" fill="url(#grad)" stroke="black"/><rect x="13.501157407407408" y="214.81770833333334" width="14.00462962962963" height="63.020833333333336" fill="url(#grad)" stroke="black"/><line x1="265.58449074074076" y1="41.51041666666667" x2="97.52893518518519" y2="104.53125" stroke="rgb(0 159 227)" stroke-width="5"/><line x1="265.58449074074076" y1="41.51041666666667" x2="265.58449074074076" y2="104.53125" stroke="rgb(0 159 227)" stroke-width="5"/><line x1="265.58449074074076" y1="41.51041666666667" x2="433.6400462962963" y2="104.53125" stroke="rgb(0 159 227)" stroke-width="5"/><line x1="97.52893518518519" y1="104.53125" x2="27.505787037037038" y2="167.55208333333334" stroke="rgb(0 159 227)" stroke-width="5"/><line x1="97.52893518518519" y1="104.53125" x2="55.5150462962963" y2="167.55208333333334" stroke="rgb(0 159 227)" stroke-width="5"/><line x1="97.52893518518519" y1="104.53125" x2="83.52430555555556" y2="167.55208333333334" stroke="rgb(0 159 227)" stroke-width="5"/><line x1="97.52893518518519" y1="104.53125" x2="111.53356481481481" y2="167.55208333333334" stroke="rgb(0 159 227)" stroke-width="5"/><line x1="97.52893518518519" y1="104.53125" x2="139.54282407407408" y2="167.55208333333334" stroke="rgb(0 159 227)" stroke-width="5"/><line x1="97.52893518518519" y1="104.53125" x2="167.55208333333334" y2="167.55208333333334" stroke="rgb(0 159 227)" stroke-width="5"/><line x1="27.505787037037038" y1="167.55208333333334" x2="20.50347222222222" y2="230.57291666666669" stroke="rgb(0 159 227)" stroke-width="5"/><line x1="27.505787037037038" y1="167.55208333333334" x2="34.50810185185185" y2="230.57291666666669" stroke="rgb(0 159 227)" stroke-width="5"/><line x1="55.5150462962963" y1="167.55208333333334" x2="48.51273148148148" y2="230.57291666666669" stroke="rgb(0 159 227)" stroke-width="5"/><line x1="55.5150462962963" y1="167.55208333333334" x2="62.517361111111114" y2="230.57291666666669" stroke="rgb(0 159 227)" stroke-width="5"/><line x1="83.52430555555556" y1="167.55208333333334" x2="76.52199074074075" y2="230.57291666666669" stroke="rgb(0 159 227)" stroke-width="5"/><line x1="83.52430555555556" y1="167.55208333333334" x2="90.52662037037037" y2="230.57291666666669" stroke="rgb(0 159 227)" stroke-width="5"/><line x1="111.53356481481481" y1="167.55208333333334" x2="104.53125" y2="230.57291666666669" stroke="rgb(0 159 227)" stroke-width="5"/><line x1="111.53356481481481" y1="167.55208333333334" x2="118.53587962962963" y2="230.57291666666669" stroke="rgb(0 159 227)" stroke-width="5"/><line x1="139.54282407407408" y1="167.55208333333334" x2="132.54050925925927" y2="230.57291666666669" stroke="rgb(0 159 227)" stroke-width="5"/><line x1="139.54282407407408" y1="167.55208333333334" x2="146.54513888888889" y2="230.57291666666669" stroke="rgb(0 159 227)" stroke-width="5"/><line x1="167.55208333333334" y1="167.55208333333334" x2="160.54976851851853" y2="230.57291666666669" stroke="rgb(0 159 227)" stroke-width="5"/><line x1="167.55208333333334" y1="167.55208333333334" x2="174.55439814814815" y2="230.57291666666669" stroke="rgb(0 159 227)" stroke-width="5"/><line x1="265.58449074074076" y1="104.53125" x2="198.3622685185185" y2="167.55208333333334" stroke="rgb(0 159 227)" stroke-width="5"/><line x1="265.58449074074076" y1="104.53125" x2="231.97337962962965" y2="167.55208333333334" stroke="rgb(0 159 227)" stroke-width="5"/><line x1="265.58449074074076" y1="104.53125" x2="265.58449074074076" y2="167.55208333333334" stroke="rgb(0 159 227)" stroke-width="5"/><line x1="265.58449074074076" y1="104.53125" x2="299.19560185185185" y2="167.55208333333334" stroke="rgb(0 159 227)" stroke-width="5"/><line x1="265.58449074074076" y1="104.53125" x2="332.806712962963" y2="167.55208333333334" stroke="rgb(0 159 227)" stroke-width="5"/><line x1="198.3622685185185" y1="167.55208333333334" x2="185.75810185185188" y2="230.57291666666669" stroke="rgb(0 159 227)" stroke-width="5"/><line x1="198.3622685185185" y1="167.55208333333334" x2="194.16087962962962" y2="230.57291666666669" stroke="rgb(0 159 227)" stroke-width="5"/><line x1="198.3622685185185" y1="167.55208333333334" x2="202.56365740740742" y2="230.57291666666669" stroke="rgb(0 159 227)" stroke-width="5"/><line x1="198.3622685185185" y1="167.55208333333334" x2="210.96643518518522" y2="230.57291666666669" stroke="rgb(0 159 227)" stroke-width="5"/><line x1="231.97337962962965" y1="167.55208333333334" x2="223.57060185185185" y2="230.57291666666669" stroke="rgb(0 159 227)" stroke-width="5"/><line x1="231.97337962962965" y1="167.55208333333334" x2="240.37615740740745" y2="230.57291666666669" stroke="rgb(0 159 227)" stroke-width="5"/><line x1="265.58449074074076" y1="167.55208333333334" x2="254.38078703703707" y2="230.57291666666669" stroke="rgb(0 159 227)" stroke-width="5"/><line x1="265.58449074074076" y1="167.55208333333334" x2="265.58449074074076" y2="230.57291666666669" stroke="rgb(0 159 227)" stroke-width="5"/><line x1="265.58449074074076" y1="167.55208333333334" x2="276.7881944444444" y2="230.57291666666669" stroke="rgb(0 159 227)" stroke-width="5"/><line x1="299.19560185185185" y1="167.55208333333334" x2="290.792824074074" y2="230.57291666666669" stroke="rgb(0 159 227)" stroke-width="5"/><line x1="299.19560185185185" y1="167.55208333333334" x2="307.5983796296296" y2="230.57291666666669" stroke="rgb(0 159 227)" stroke-width="5"/><line x1="332.806712962963" y1="167.55208333333334" x2="320.2025462962963" y2="230.57291666666669" stroke="rgb(0 159 227)" stroke-width="5"/><line x1="332.806712962963" y1="167.55208333333334" x2="328.6053240740741" y2="230.57291666666669" stroke="rgb(0 159 227)" stroke-width="5"/><line x1="332.806712962963" y1="167.55208333333334" x2="337.00810185185185" y2="230.57291666666669" stroke="rgb(0 159 227)" stroke-width="5"/><line x1="332.806712962963" y1="167.55208333333334" x2="345.4108796296296" y2="230.57291666666669" stroke="rgb(0 159 227)" stroke-width="5"/><line x1="433.6400462962963" y1="104.53125" x2="370.619212962963" y2="167.55208333333334" stroke="rgb(0 159 227)" stroke-width="5"/><line x1="433.6400462962963" y1="104.53125" x2="412.63310185185185" y2="167.55208333333334" stroke="rgb(0 159 227)" stroke-width="5"/><line x1="433.6400462962963" y1="104.53125" x2="454.64699074074076" y2="167.55208333333334" stroke="rgb(0 159 227)" stroke-width="5"/><line x1="433.6400462962963" y1="104.53125" x2="496.6608796296296" y2="167.55208333333334" stroke="rgb(0 159 227)" stroke-width="5"/><line x1="370.619212962963" y1="167.55208333333334" x2="356.6145833333333" y2="230.57291666666669" stroke="rgb(0 159 227)" stroke-width="5"/><line x1="370.619212962963" y1="167.55208333333334" x2="370.619212962963" y2="230.57291666666669" stroke="rgb(0 159 227)" stroke-width="5"/><line x1="370.619212962963" y1="167.55208333333334" x2="384.6238425925926" y2="230.57291666666669" stroke="rgb(0 159 227)" stroke-width="5"/><line x1="412.63310185185185" y1="167.55208333333334" x2="398.62847222222223" y2="230.57291666666669" stroke="rgb(0 159 227)" stroke-width="5"/><line x1="412.63310185185185" y1="167.55208333333334" x2="412.63310185185185" y2="230.57291666666669" stroke="rgb(0 159 227)" stroke-width="5"/><line x1="412.63310185185185" y1="167.55208333333334" x2="426.63773148148147" y2="230.57291666666669" stroke="rgb(0 159 227)" stroke-width="5"/><line x1="454.64699074074076" y1="167.55208333333334" x2="440.64236111111114" y2="230.57291666666669" stroke="rgb(0 159 227)" stroke-width="5"/><line x1="454.64699074074076" y1="167.55208333333334" x2="454.64699074074076" y2="230.57291666666669" stroke="rgb(0 159 227)" stroke-width="5"/><line x1="454.64699074074076" y1="167.55208333333334" x2="468.6516203703704" y2="230.57291666666669" stroke="rgb(0 159 227)" stroke-width="5"/><line x1="496.6608796296296" y1="167.55208333333334" x2="482.65625" y2="230.57291666666669" stroke="rgb(0 159 227)" stroke-width="5"/><line x1="496.6608796296296" y1="167.55208333333334" x2="496.6608796296296" y2="230.57291666666669" stroke="rgb(0 159 227)" stroke-width="5"/><line x1="496.6608796296296" y1="167.55208333333334" x2="510.66550925925924" y2="230.57291666666669" stroke="rgb(0 159 227)" stroke-width="5"/><line x1="265.58449074074076" y1="41.51041666666667" x2="97.52893518518519" y2="104.53125" stroke="black"/><line x1="265.58449074074076" y1="41.51041666666667" x2="265.58449074074076" y2="104.53125" stroke="black"/><line x1="265.58449074074076" y1="41.51041666666667" x2="433.6400462962963" y2="104.53125" stroke="black"/><line x1="97.52893518518519" y1="104.53125" x2="27.505787037037038" y2="167.55208333333334" stroke="black"/><line x1="97.52893518518519" y1="104.53125" x2="55.5150462962963" y2="167.55208333333334" stroke="black"/><line x1="97.52893518518519" y1="104.53125" x2="83.52430555555556" y2="167.55208333333334" stroke="black"/><line x1="97.52893518518519" y1="104.53125" x2="111.53356481481481" y2="167.55208333333334" stroke="black"/><line x1="97.52893518518519" y1="104.53125" x2="139.54282407407408" y2="167.55208333333334" stroke="black"/><line x1="97.52893518518519" y1="104.53125" x2="167.55208333333334" y2="167.55208333333334" stroke="black"/><line x1="27.505787037037038" y1="167.55208333333334" x2="20.50347222222222" y2="230.57291666666669" stroke="black"/><line x1="27.505787037037038" y1="167.55208333333334" x2="34.50810185185185" y2="230.57291666666669" stroke="black"/><line x1="55.5150462962963" y1="167.55208333333334" x2="48.51273148148148" y2="230.57291666666669" stroke="black"/><line x1="55.5150462962963" y1="167.55208333333334" x2="62.517361111111114" y2="230.57291666666669" stroke="black"/><line x1="83.52430555555556" y1="167.55208333333334" x2="76.52199074074075" y2="230.57291666666669" stroke="black"/><line x1="83.52430555555556" y1="167.55208333333334" x2="90.52662037037037" y2="230.57291666666669" stroke="black"/><line x1="111.53356481481481" y1="167.55208333333334" x2="104.53125" y2="230.57291666666669" stroke="black"/><line x1="111.53356481481481" y1="167.55208333333334" x2="118.53587962962963" y2="230.57291666666669" stroke="black"/><line x1="139.54282407407408" y1="167.55208333333334" x2="132.54050925925927" y2="230.57291666666669" stroke="black"/><line x1="139.54282407407408" y1="167.55208333333334" x2="146.54513888888889" y2="230.57291666666669" stroke="black"/><line x1="167.55208333333334" y1="167.55208333333334" x2="160.54976851851853" y2="230.57291666666669" stroke="black"/><line x1="167.55208333333334" y1="167.55208333333334" x2="174.55439814814815" y2="230.57291666666669" stroke="black"/><line x1="265.58449074074076" y1="104.53125" x2="198.3622685185185" y2="167.55208333333334" stroke="black"/><line x1="265.58449074074076" y1="104.53125" x2="231.97337962962965" y2="167.55208333333334" stroke="black"/><line x1="265.58449074074076" y1="104.53125" x2="265.58449074074076" y2="167.55208333333334" stroke="black"/><line x1="265.58449074074076" y1="104.53125" x2="299.19560185185185" y2="167.55208333333334" stroke="black"/><line x1="265.58449074074076" y1="104.53125" x2="332.806712962963" y2="167.55208333333334" stroke="black"/><line x1="198.3622685185185" y1="167.55208333333334" x2="185.75810185185188" y2="230.57291666666669" stroke="black"/><line x1="198.3622685185185" y1="167.55208333333334" x2="194.16087962962962" y2="230.57291666666669" stroke="black"/><line x1="198.3622685185185" y1="167.55208333333334" x2="202.56365740740742" y2="230.57291666666669" stroke="black"/><line x1="198.3622685185185" y1="167.55208333333334" x2="210.96643518518522" y2="230.57291666666669" stroke="black"/><line x1="231.97337962962965" y1="167.55208333333334" x2="223.57060185185185" y2="230.57291666666669" stroke="black"/><line x1="231.97337962962965" y1="167.55208333333334" x2="240.37615740740745" y2="230.57291666666669" stroke="black"/><line x1="265.58449074074076" y1="167.55208333333334" x2="254.38078703703707" y2="230.57291666666669" stroke="black"/><line x1="265.58449074074076" y1="167.55208333333334" x2="265.58449074074076" y2="230.57291666666669" stroke="black"/><line x1="265.58449074074076" y1="167.55208333333334" x2="276.7881944444444" y2="230.57291666666669" stroke="black"/><line x1="299.19560185185185" y1="167.55208333333334" x2="290.792824074074" y2="230.57291666666669" stroke="black"/><line x1="299.19560185185185" y1="167.55208333333334" x2="307.5983796296296" y2="230.57291666666669" stroke="black"/><line x1="332.806712962963" y1="167.55208333333334" x2="320.2025462962963" y2="230.57291666666669" stroke="black"/><line x1="332.806712962963" y1="167.55208333333334" x2="328.6053240740741" y2="230.57291666666669" stroke="black"/><line x1="332.806712962963" y1="167.55208333333334" x2="337.00810185185185" y2="230.57291666666669" stroke="black"/><line x1="332.806712962963" y1="167.55208333333334" x2="345.4108796296296" y2="230.57291666666669" stroke="black"/><line x1="433.6400462962963" y1="104.53125" x2="370.619212962963" y2="167.55208333333334" stroke="black"/><line x1="433.6400462962963" y1="104.53125" x2="412.63310185185185" y2="167.55208333333334" stroke="black"/><line x1="433.6400462962963" y1="104.53125" x2="454.64699074074076" y2="167.55208333333334" stroke="black"/><line x1="433.6400462962963" y1="104.53125" x2="496.6608796296296" y2="167.55208333333334" stroke="black"/><line x1="370.619212962963" y1="167.55208333333334" x2="356.6145833333333" y2="230.57291666666669" stroke="black"/><line x1="370.619212962963" y1="167.55208333333334" x2="370.619212962963" y2="230.57291666666669" stroke="black"/><line x1="370.619212962963" y1="167.55208333333334" x2="384.6238425925926" y2="230.57291666666669" stroke="black"/><line x1="412.63310185185185" y1="167.55208333333334" x2="398.62847222222223" y2="230.57291666666669" stroke="black"/><line x1="412.63310185185185" y1="167.55208333333334" x2="412.63310185185185" y2="230.57291666666669" stroke="black"/><line x1="412.63310185185185" y1="167.55208333333334" x2="426.63773148148147" y2="230.57291666666669" stroke="black"/><line x1="454.64699074074076" y1="167.55208333333334" x2="440.64236111111114" y2="230.57291666666669" stroke="black"/><line x1="454.64699074074076" y1="167.55208333333334" x2="454.64699074074076" y2="230.57291666666669" stroke="black"/><line x1="454.64699074074076" y1="167.55208333333334" x2="468.6516203703704" y2="230.57291666666669" stroke="black"/><line x1="496.6608796296296" y1="167.55208333333334" x2="482.65625" y2="230.57291666666669" stroke="black"/><line x1="496.6608796296296" y1="167.55208333333334" x2="496.6608796296296" y2="230.57291666666669" stroke="black"/><line x1="496.6608796296296" y1="167.55208333333334" x2="510.66550925925924" y2="230.57291666666669" stroke="black"/><circle cx="265.58449074074076" cy="41.51041666666667" r="10" fill="rgb(229 0 125)" stroke="black" stroke-width="2"/><circle cx="97.52893518518519" cy="104.53125" r="10" fill="rgb(229 0 125)" stroke="black" stroke-width="2"/><circle cx="27.505787037037038" cy="167.55208333333334" r="10" fill="rgb(229 0 125)" stroke="black" stroke-width="2"/><circle cx="20.50347222222222" cy="230.57291666666669" r="10" fill="rgb(229 0 125)" stroke="black" stroke-width="2"/><circle cx="34.50810185185185" cy="230.57291666666669" r="10" fill="rgb(229 0 125)" stroke="black" stroke-width="2"/><circle cx="55.5150462962963" cy="167.55208333333334" r="10" fill="rgb(229 0 125)" stroke="black" stroke-width="2"/><circle cx="48.51273148148148" cy="230.57291666666669" r="10" fill="rgb(229 0 125)" stroke="black" stroke-width="2"/><circle cx="62.517361111111114" cy="230.57291666666669" r="10" fill="rgb(229 0 125)" stroke="black" stroke-width="2"/><circle cx="83.52430555555556" cy="167.55208333333334" r="10" fill="rgb(229 0 125)" stroke="black" stroke-width="2"/><circle cx="76.52199074074075" cy="230.57291666666669" r="10" fill="rgb(229 0 125)" stroke="black" stroke-width="2"/><circle cx="90.52662037037037" cy="230.57291666666669" r="10" fill="rgb(229 0 125)" stroke="black" stroke-width="2"/><circle cx="111.53356481481481" cy="167.55208333333334" r="10" fill="rgb(229 0 125)" stroke="black" stroke-width="2"/><circle cx="104.53125" cy="230.57291666666669" r="10" fill="rgb(229 0 125)" stroke="black" stroke-width="2"/><circle cx="118.53587962962963" cy="230.57291666666669" r="10" fill="rgb(229 0 125)" stroke="black" stroke-width="2"/><circle cx="139.54282407407408" cy="167.55208333333334" r="10" fill="rgb(229 0 125)" stroke="black" stroke-width="2"/><circle cx="132.54050925925927" cy="230.57291666666669" r="10" fill="rgb(229 0 125)" stroke="black" stroke-width="2"/><circle cx="146.54513888888889" cy="230.57291666666669" r="10" fill="rgb(229 0 125)" stroke="black" stroke-width="2"/><circle cx="167.55208333333334" cy="167.55208333333334" r="10" fill="rgb(229 0 125)" stroke="black" stroke-width="2"/><circle cx="160.54976851851853" cy="230.57291666666669" r="10" fill="rgb(229 0 125)" stroke="black" stroke-width="2"/><circle cx="174.55439814814815" cy="230.57291666666669" r="10" fill="rgb(229 0 125)" stroke="black" stroke-width="2"/><circle cx="265.58449074074076" cy="104.53125" r="10" fill="rgb(229 0 125)" stroke="black" stroke-width="2"/><circle cx="198.3622685185185" cy="167.55208333333334" r="10" fill="rgb(229 0 125)" stroke="black" stroke-width="2"/><circle cx="185.75810185185188" cy="230.57291666666669" r="10" fill="rgb(229 0 125)" stroke="black" stroke-width="2"/><circle cx="194.16087962962962" cy="230.57291666666669" r="10" fill="rgb(229 0 125)" stroke="black" stroke-width="2"/><circle cx="202.56365740740742" cy="230.57291666666669" r="10" fill="rgb(229 0 125)" stroke="black" stroke-width="2"/><circle cx="210.96643518518522" cy="230.57291666666669" r="10" fill="rgb(229 0 125)" stroke="black" stroke-width="2"/><circle cx="231.97337962962965" cy="167.55208333333334" r="10" fill="rgb(229 0 125)" stroke="black" stroke-width="2"/><circle cx="223.57060185185185" cy="230.57291666666669" r="10" fill="rgb(229 0 125)" stroke="black" stroke-width="2"/><circle cx="240.37615740740745" cy="230.57291666666669" r="10" fill="rgb(229 0 125)" stroke="black" stroke-width="2"/><circle cx="265.58449074074076" cy="167.55208333333334" r="10" fill="rgb(229 0 125)" stroke="black" stroke-width="2"/><circle cx="254.38078703703707" cy="230.57291666666669" r="10" fill="rgb(229 0 125)" stroke="black" stroke-width="2"/><circle cx="265.58449074074076" cy="230.57291666666669" r="10" fill="rgb(229 0 125)" stroke="black" stroke-width="2"/><circle cx="276.7881944444444" cy="230.57291666666669" r="10" fill="rgb(229 0 125)" stroke="black" stroke-width="2"/><circle cx="299.19560185185185" cy="167.55208333333334" r="10" fill="rgb(229 0 125)" stroke="black" stroke-width="2"/><circle cx="290.792824074074" cy="230.57291666666669" r="10" fill="rgb(229 0 125)" stroke="black" stroke-width="2"/><circle cx="307.5983796296296" cy="230.57291666666669" r="10" fill="rgb(229 0 125)" stroke="black" stroke-width="2"/><circle cx="332.806712962963" cy="167.55208333333334" r="10" fill="rgb(229 0 125)" stroke="black" stroke-width="2"/><circle cx="320.2025462962963" cy="230.57291666666669" r="10" fill="rgb(229 0 125)" stroke="black" stroke-width="2"/><circle cx="328.6053240740741" cy="230.57291666666669" r="10" fill="rgb(229 0 125)" stroke="black" stroke-width="2"/><circle cx="337.00810185185185" cy="230.57291666666669" r="10" fill="rgb(229 0 125)" stroke="black" stroke-width="2"/><circle cx="345.4108796296296" cy="230.57291666666669" r="10" fill="rgb(229 0 125)" stroke="black" stroke-width="2"/><circle cx="433.6400462962963" cy="104.53125" r="10" fill="rgb(229 0 125)" stroke="black" stroke-width="2"/><circle cx="370.619212962963" cy="167.55208333333334" r="10" fill="rgb(229 0 125)" stroke="black" stroke-width="2"/><circle cx="356.6145833333333" cy="230.57291666666669" r="10" fill="rgb(229 0 125)" stroke="black" stroke-width="2"/><circle cx="370.619212962963" cy="230.57291666666669" r="10" fill="rgb(229 0 125)" stroke="black" stroke-width="2"/><circle cx="384.6238425925926" cy="230.57291666666669" r="10" fill="rgb(229 0 125)" stroke="black" stroke-width="2"/><circle cx="412.63310185185185" cy="167.55208333333334" r="10" fill="rgb(229 0 125)" stroke="black" stroke-width="2"/><circle cx="398.62847222222223" cy="230.57291666666669" r="10" fill="rgb(229 0 125)" stroke="black" stroke-width="2"/><circle cx="412.63310185185185" cy="230.57291666666669" r="10" fill="rgb(229 0 125)" stroke="black" stroke-width="2"/><circle cx="426.63773148148147" cy="230.57291666666669" r="10" fill="rgb(229 0 125)" stroke="black" stroke-width="2"/><circle cx="454.64699074074076" cy="167.55208333333334" r="10" fill="rgb(229 0 125)" stroke="black" stroke-width="2"/><circle cx="440.64236111111114" cy="230.57291666666669" r="10" fill="rgb(229 0 125)" stroke="black" stroke-width="2"/><circle cx="454.64699074074076" cy="230.57291666666669" r="10" fill="rgb(229 0 125)" stroke="black" stroke-width="2"/><circle cx="468.6516203703704" cy="230.57291666666669" r="10" fill="rgb(229 0 125)" stroke="black" stroke-width="2"/><circle cx="496.6608796296296" cy="167.55208333333334" r="10" fill="rgb(229 0 125)" stroke="black" stroke-width="2"/><circle cx="482.65625" cy="230.57291666666669" r="10" fill="rgb(229 0 125)" stroke="black" stroke-width="2"/><circle cx="496.6608796296296" cy="230.57291666666669" r="10" fill="rgb(229 0 125)" stroke="black" stroke-width="2"/><circle cx="510.66550925925924" cy="230.57291666666669" r="10" fill="rgb(229 0 125)" stroke="black" stroke-width="2"/><line x1="265.58449074074076" y1="451.1458333333333" x2="433.6400462962963" y2="388.125" stroke="rgb(0 159 227)" stroke-width="5"/><line x1="265.58449074074076" y1="451.1458333333333" x2="265.58449074074076" y2="388.125" stroke="rgb(0 159 227)" stroke-width="5"/><line x1="265.58449074074076" y1="451.1458333333333" x2="97.52893518518522" y2="388.125" stroke="rgb(0 159 227)" stroke-width="5"/><line x1="433.6400462962963" y1="388.125" x2="503.66319444444446" y2="325.10416666666663" stroke="rgb(0 159 227)" stroke-width="5"/><line x1="433.6400462962963" y1="388.125" x2="475.6539351851852" y2="325.10416666666663" stroke="rgb(0 159 227)" stroke-width="5"/><line x1="433.6400462962963" y1="388.125" x2="447.644675925926" y2="325.10416666666663" stroke="rgb(0 159 227)" stroke-width="5"/><line x1="433.6400462962963" y1="388.125" x2="419.63541666666674" y2="325.10416666666663" stroke="rgb(0 159 227)" stroke-width="5"/><line x1="433.6400462962963" y1="388.125" x2="391.62615740740745" y2="325.10416666666663" stroke="rgb(0 159 227)" stroke-width="5"/><line x1="433.6400462962963" y1="388.125" x2="363.61689814814815" y2="325.10416666666663" stroke="rgb(0 159 227)" stroke-width="5"/><line x1="503.66319444444446" y1="325.10416666666663" x2="510.6655092592593" y2="262.0833333333333" stroke="rgb(0 159 227)" stroke-width="5"/><line x1="503.66319444444446" y1="325.10416666666663" x2="496.6608796296297" y2="262.0833333333333" stroke="rgb(0 159 227)" stroke-width="5"/><line x1="475.6539351851852" y1="325.10416666666663" x2="482.65625000000006" y2="262.0833333333333" stroke="rgb(0 159 227)" stroke-width="5"/><line x1="475.6539351851852" y1="325.10416666666663" x2="468.65162037037044" y2="262.0833333333333" stroke="rgb(0 159 227)" stroke-width="5"/><line x1="447.644675925926" y1="325.10416666666663" x2="454.64699074074076" y2="262.0833333333333" stroke="rgb(0 159 227)" stroke-width="5"/><line x1="447.644675925926" y1="325.10416666666663" x2="440.64236111111114" y2="262.0833333333333" stroke="rgb(0 159 227)" stroke-width="5"/><line x1="419.63541666666674" y1="325.10416666666663" x2="426.6377314814815" y2="262.0833333333333" stroke="rgb(0 159 227)" stroke-width="5"/><line x1="419.63541666666674" y1="325.10416666666663" x2="412.6331018518519" y2="262.0833333333333" stroke="rgb(0 159 227)" stroke-width="5"/><line x1="391.62615740740745" y1="325.10416666666663" x2="398.6284722222223" y2="262.0833333333333" stroke="rgb(0 159 227)" stroke-width="5"/><line x1="391.62615740740745" y1="325.10416666666663" x2="384.6238425925926" y2="262.0833333333333" stroke="rgb(0 159 227)" stroke-width="5"/><line x1="363.61689814814815" y1="325.10416666666663" x2="370.619212962963" y2="262.0833333333333" stroke="rgb(0 159 227)" stroke-width="5"/><line x1="363.61689814814815" y1="325.10416666666663" x2="356.61458333333337" y2="262.0833333333333" stroke="rgb(0 159 227)" stroke-width="5"/><line x1="265.58449074074076" y1="388.125" x2="332.80671296296305" y2="325.10416666666663" stroke="rgb(0 159 227)" stroke-width="5"/><line x1="265.58449074074076" y1="388.125" x2="299.19560185185185" y2="325.10416666666663" stroke="rgb(0 159 227)" stroke-width="5"/><line x1="265.58449074074076" y1="388.125" x2="265.58449074074076" y2="325.10416666666663" stroke="rgb(0 159 227)" stroke-width="5"/><line x1="265.58449074074076" y1="388.125" x2="231.97337962962968" y2="325.10416666666663" stroke="rgb(0 159 227)" stroke-width="5"/><line x1="265.58449074074076" y1="388.125" x2="198.36226851851853" y2="325.10416666666663" stroke="rgb(0 159 227)" stroke-width="5"/><line x1="332.80671296296305" y1="325.10416666666663" x2="345.4108796296297" y2="262.0833333333333" stroke="rgb(0 159 227)" stroke-width="5"/><line x1="332.80671296296305" y1="325.10416666666663" x2="337.0081018518519" y2="262.0833333333333" stroke="rgb(0 159 227)" stroke-width="5"/><line x1="332.80671296296305" y1="325.10416666666663" x2="328.60532407407413" y2="262.0833333333333" stroke="rgb(0 159 227)" stroke-width="5"/><line x1="332.80671296296305" y1="325.10416666666663" x2="320.2025462962963" y2="262.0833333333333" stroke="rgb(0 159 227)" stroke-width="5"/><line x1="299.19560185185185" y1="325.10416666666663" x2="307.5983796296297" y2="262.0833333333333" stroke="rgb(0 159 227)" stroke-width="5"/><line x1="299.19560185185185" y1="325.10416666666663" x2="290.7928240740741" y2="262.0833333333333" stroke="rgb(0 159 227)" stroke-width="5"/><line x1="265.58449074074076" y1="325.10416666666663" x2="276.78819444444446" y2="262.0833333333333" stroke="rgb(0 159 227)" stroke-width="5"/><line x1="265.58449074074076" y1="325.10416666666663" x2="265.58449074074076" y2="262.0833333333333" stroke="rgb(0 159 227)" stroke-width="5"/><line x1="265.58449074074076" y1="325.10416666666663" x2="254.38078703703712" y2="262.0833333333333" stroke="rgb(0 159 227)" stroke-width="5"/><line x1="231.97337962962968" y1="325.10416666666663" x2="240.3761574074075" y2="262.0833333333333" stroke="rgb(0 159 227)" stroke-width="5"/><line x1="231.97337962962968" y1="325.10416666666663" x2="223.5706018518519" y2="262.0833333333333" stroke="rgb(0 159 227)" stroke-width="5"/><line x1="198.36226851851853" y1="325.10416666666663" x2="210.96643518518522" y2="262.0833333333333" stroke="rgb(0 159 227)" stroke-width="5"/><line x1="198.36226851851853" y1="325.10416666666663" x2="202.56365740740745" y2="262.0833333333333" stroke="rgb(0 159 227)" stroke-width="5"/><line x1="198.36226851851853" y1="325.10416666666663" x2="194.16087962962968" y2="262.0833333333333" stroke="rgb(0 159 227)" stroke-width="5"/><line x1="198.36226851851853" y1="325.10416666666663" x2="185.7581018518519" y2="262.0833333333333" stroke="rgb(0 159 227)" stroke-width="5"/><line x1="97.52893518518522" y1="388.125" x2="160.54976851851853" y2="325.10416666666663" stroke="rgb(0 159 227)" stroke-width="5"/><line x1="97.52893518518522" y1="388.125" x2="118.53587962962968" y2="325.10416666666663" stroke="rgb(0 159 227)" stroke-width="5"/><line x1="97.52893518518522" y1="388.125" x2="76.52199074074076" y2="325.10416666666663" stroke="rgb(0 159 227)" stroke-width="5"/><line x1="97.52893518518522" y1="388.125" x2="34.508101851851904" y2="325.10416666666663" stroke="rgb(0 159 227)" stroke-width="5"/><line x1="160.54976851851853" y1="325.10416666666663" x2="174.5543981481482" y2="262.0833333333333" stroke="rgb(0 159 227)" stroke-width="5"/><line x1="160.54976851851853" y1="325.10416666666663" x2="160.54976851851853" y2="262.0833333333333" stroke="rgb(0 159 227)" stroke-width="5"/><line x1="160.54976851851853" y1="325.10416666666663" x2="146.5451388888889" y2="262.0833333333333" stroke="rgb(0 159 227)" stroke-width="5"/><line x1="118.53587962962968" y1="325.10416666666663" x2="132.5405092592593" y2="262.0833333333333" stroke="rgb(0 159 227)" stroke-width="5"/><line x1="118.53587962962968" y1="325.10416666666663" x2="118.53587962962968" y2="262.0833333333333" stroke="rgb(0 159 227)" stroke-width="5"/><line x1="118.53587962962968" y1="325.10416666666663" x2="104.53125000000006" y2="262.0833333333333" stroke="rgb(0 159 227)" stroke-width="5"/><line x1="76.52199074074076" y1="325.10416666666663" x2="90.52662037037038" y2="262.0833333333333" stroke="rgb(0 159 227)" stroke-width="5"/><line x1="76.52199074074076" y1="325.10416666666663" x2="76.52199074074076" y2="262.0833333333333" stroke="rgb(0 159 227)" stroke-width="5"/><line x1="76.52199074074076" y1="325.10416666666663" x2="62.51736111111114" y2="262.0833333333333" stroke="rgb(0 159 227)" stroke-width="5"/><line x1="34.508101851851904" y1="325.10416666666663" x2="48.512731481481524" y2="262.0833333333333" stroke="rgb(0 159 227)" stroke-width="5"/><line x1="34.508101851851904" y1="325.10416666666663" x2="34.508101851851904" y2="262.0833333333333" stroke="rgb(0 159 227)" stroke-width="5"/><line x1="34.508101851851904" y1="325.10416666666663" x2="20.503472222222285" y2="262.0833333333333" stroke="rgb(0 159 227)" stroke-width="5"/><line x1="265.58449074074076" y1="451.1458333333333" x2="433.6400462962963" y2="388.125" stroke="black"/><line x1="265.58449074074076" y1="451.1458333333333" x2="265.58449074074076" y2="388.125" stroke="black"/><line x1="265.58449074074076" y1="451.1458333333333" x2="97.52893518518522" y2="388.125" stroke="black"/><line x1="433.6400462962963" y1="388.125" x2="503.66319444444446" y2="325.10416666666663" stroke="black"/><line x1="433.6400462962963" y1="388.125" x2="475.6539351851852" y2="325.10416666666663" stroke="black"/><line x1="433.6400462962963" y1="388.125" x2="447.644675925926" y2="325.10416666666663" stroke="black"/><line x1="433.6400462962963" y1="388.125" x2="419.63541666666674" y2="325.10416666666663" stroke="black"/><line x1="433.6400462962963" y1="388.125" x2="391.62615740740745" y2="325.10416666666663" stroke="black"/><line x1="433.6400462962963" y1="388.125" x2="363.61689814814815" y2="325.10416666666663" stroke="black"/><line x1="503.66319444444446" y1="325.10416666666663" x2="510.6655092592593" y2="262.0833333333333" stroke="black"/><line x1="503.66319444444446" y1="325.10416666666663" x2="496.6608796296297" y2="262.0833333333333" stroke="black"/><line x1="475.6539351851852" y1="325.10416666666663" x2="482.65625000000006" y2="262.0833333333333" stroke="black"/><line x1="475.6539351851852" y1="325.10416666666663" x2="468.65162037037044" y2="262.0833333333333" stroke="black"/><line x1="447.644675925926" y1="325.10416666666663" x2="454.64699074074076" y2="262.0833333333333" stroke="black"/><line x1="447.644675925926" y1="325.10416666666663" x2="440.64236111111114" y2="262.0833333333333" stroke="black"/><line x1="419.63541666666674" y1="325.10416666666663" x2="426.6377314814815" y2="262.0833333333333" stroke="black"/><line x1="419.63541666666674" y1="325.10416666666663" x2="412.6331018518519" y2="262.0833333333333" stroke="black"/><line x1="391.62615740740745" y1="325.10416666666663" x2="398.6284722222223" y2="262.0833333333333" stroke="black"/><line x1="391.62615740740745" y1="325.10416666666663" x2="384.6238425925926" y2="262.0833333333333" stroke="black"/><line x1="363.61689814814815" y1="325.10416666666663" x2="370.619212962963" y2="262.0833333333333" stroke="black"/><line x1="363.61689814814815" y1="325.10416666666663" x2="356.61458333333337" y2="262.0833333333333" stroke="black"/><line x1="265.58449074074076" y1="388.125" x2="332.80671296296305" y2="325.10416666666663" stroke="black"/><line x1="265.58449074074076" y1="388.125" x2="299.19560185185185" y2="325.10416666666663" stroke="black"/><line x1="265.58449074074076" y1="388.125" x2="265.58449074074076" y2="325.10416666666663" stroke="black"/><line x1="265.58449074074076" y1="388.125" x2="231.97337962962968" y2="325.10416666666663" stroke="black"/><line x1="265.58449074074076" y1="388.125" x2="198.36226851851853" y2="325.10416666666663" stroke="black"/><line x1="332.80671296296305" y1="325.10416666666663" x2="345.4108796296297" y2="262.0833333333333" stroke="black"/><line x1="332.80671296296305" y1="325.10416666666663" x2="337.0081018518519" y2="262.0833333333333" stroke="black"/><line x1="332.80671296296305" y1="325.10416666666663" x2="328.60532407407413" y2="262.0833333333333" stroke="black"/><line x1="332.80671296296305" y1="325.10416666666663" x2="320.2025462962963" y2="262.0833333333333" stroke="black"/><line x1="299.19560185185185" y1="325.10416666666663" x2="307.5983796296297" y2="262.0833333333333" stroke="black"/><line x1="299.19560185185185" y1="325.10416666666663" x2="290.7928240740741" y2="262.0833333333333" stroke="black"/><line x1="265.58449074074076" y1="325.10416666666663" x2="276.78819444444446" y2="262.0833333333333" stroke="black"/><line x1="265.58449074074076" y1="325.10416666666663" x2="265.58449074074076" y2="262.0833333333333" stroke="black"/><line x1="265.58449074074076" y1="325.10416666666663" x2="254.38078703703712" y2="262.0833333333333" stroke="black"/><line x1="231.97337962962968" y1="325.10416666666663" x2="240.3761574074075" y2="262.0833333333333" stroke="black"/><line x1="231.97337962962968" y1="325.10416666666663" x2="223.5706018518519" y2="262.0833333333333" stroke="black"/><line x1="198.36226851851853" y1="325.10416666666663" x2="210.96643518518522" y2="262.0833333333333" stroke="black"/><line x1="198.36226851851853" y1="325.10416666666663" x2="202.56365740740745" y2="262.0833333333333" stroke="black"/><line x1="198.36226851851853" y1="325.10416666666663" x2="194.16087962962968" y2="262.0833333333333" stroke="black"/><line x1="198.36226851851853" y1="325.10416666666663" x2="185.7581018518519" y2="262.0833333333333" stroke="black"/><line x1="97.52893518518522" y1="388.125" x2="160.54976851851853" y2="325.10416666666663" stroke="black"/><line x1="97.52893518518522" y1="388.125" x2="118.53587962962968" y2="325.10416666666663" stroke="black"/><line x1="97.52893518518522" y1="388.125" x2="76.52199074074076" y2="325.10416666666663" stroke="black"/><line x1="97.52893518518522" y1="388.125" x2="34.508101851851904" y2="325.10416666666663" stroke="black"/><line x1="160.54976851851853" y1="325.10416666666663" x2="174.5543981481482" y2="262.0833333333333" stroke="black"/><line x1="160.54976851851853" y1="325.10416666666663" x2="160.54976851851853" y2="262.0833333333333" stroke="black"/><line x1="160.54976851851853" y1="325.10416666666663" x2="146.5451388888889" y2="262.0833333333333" stroke="black"/><line x1="118.53587962962968" y1="325.10416666666663" x2="132.5405092592593" y2="262.0833333333333" stroke="black"/><line x1="118.53587962962968" y1="325.10416666666663" x2="118.53587962962968" y2="262.0833333333333" stroke="black"/><line x1="118.53587962962968" y1="325.10416666666663" x2="104.53125000000006" y2="262.0833333333333" stroke="black"/><line x1="76.52199074074076" y1="325.10416666666663" x2="90.52662037037038" y2="262.0833333333333" stroke="black"/><line x1="76.52199074074076" y1="325.10416666666663" x2="76.52199074074076" y2="262.0833333333333" stroke="black"/><line x1="76.52199074074076" y1="325.10416666666663" x2="62.51736111111114" y2="262.0833333333333" stroke="black"/><line x1="34.508101851851904" y1="325.10416666666663" x2="48.512731481481524" y2="262.0833333333333" stroke="black"/><line x1="34.508101851851904" y1="325.10416666666663" x2="34.508101851851904" y2="262.0833333333333" stroke="black"/><line x1="34.508101851851904" y1="325.10416666666663" x2="20.503472222222285" y2="262.0833333333333" stroke="black"/><circle cx="265.58449074074076" cy="451.1458333333333" r="10" fill="rgb(229 0 125)" stroke="black" stroke-width="2"/><circle cx="433.6400462962963" cy="388.125" r="10" fill="rgb(229 0 125)" stroke="black" stroke-width="2"/><circle cx="503.66319444444446" cy="325.10416666666663" r="10" fill="rgb(229 0 125)" stroke="black" stroke-width="2"/><circle cx="510.6655092592593" cy="262.0833333333333" r="10" fill="rgb(229 0 125)" stroke="black" stroke-width="2"/><circle cx="496.6608796296297" cy="262.0833333333333" r="10" fill="rgb(229 0 125)" stroke="black" stroke-width="2"/><circle cx="475.6539351851852" cy="325.10416666666663" r="10" fill="rgb(229 0 125)" stroke="black" stroke-width="2"/><circle cx="482.65625000000006" cy="262.0833333333333" r="10" fill="rgb(229 0 125)" stroke="black" stroke-width="2"/><circle cx="468.65162037037044" cy="262.0833333333333" r="10" fill="rgb(229 0 125)" stroke="black" stroke-width="2"/><circle cx="447.644675925926" cy="325.10416666666663" r="10" fill="rgb(229 0 125)" stroke="black" stroke-width="2"/><circle cx="454.64699074074076" cy="262.0833333333333" r="10" fill="rgb(229 0 125)" stroke="black" stroke-width="2"/><circle cx="440.64236111111114" cy="262.0833333333333" r="10" fill="rgb(229 0 125)" stroke="black" stroke-width="2"/><circle cx="419.63541666666674" cy="325.10416666666663" r="10" fill="rgb(229 0 125)" stroke="black" stroke-width="2"/><circle cx="426.6377314814815" cy="262.0833333333333" r="10" fill="rgb(229 0 125)" stroke="black" stroke-width="2"/><circle cx="412.6331018518519" cy="262.0833333333333" r="10" fill="rgb(229 0 125)" stroke="black" stroke-width="2"/><circle cx="391.62615740740745" cy="325.10416666666663" r="10" fill="rgb(229 0 125)" stroke="black" stroke-width="2"/><circle cx="398.6284722222223" cy="262.0833333333333" r="10" fill="rgb(229 0 125)" stroke="black" stroke-width="2"/><circle cx="384.6238425925926" cy="262.0833333333333" r="10" fill="rgb(229 0 125)" stroke="black" stroke-width="2"/><circle cx="363.61689814814815" cy="325.10416666666663" r="10" fill="rgb(229 0 125)" stroke="black" stroke-width="2"/><circle cx="370.619212962963" cy="262.0833333333333" r="10" fill="rgb(229 0 125)" stroke="black" stroke-width="2"/><circle cx="356.61458333333337" cy="262.0833333333333" r="10" fill="rgb(229 0 125)" stroke="black" stroke-width="2"/><circle cx="265.58449074074076" cy="388.125" r="10" fill="rgb(229 0 125)" stroke="black" stroke-width="2"/><circle cx="332.80671296296305" cy="325.10416666666663" r="10" fill="rgb(229 0 125)" stroke="black" stroke-width="2"/><circle cx="345.4108796296297" cy="262.0833333333333" r="10" fill="rgb(229 0 125)" stroke="black" stroke-width="2"/><circle cx="337.0081018518519" cy="262.0833333333333" r="10" fill="rgb(229 0 125)" stroke="black" stroke-width="2"/><circle cx="328.60532407407413" cy="262.0833333333333" r="10" fill="rgb(229 0 125)" stroke="black" stroke-width="2"/><circle cx="320.2025462962963" cy="262.0833333333333" r="10" fill="rgb(229 0 125)" stroke="black" stroke-width="2"/><circle cx="299.19560185185185" cy="325.10416666666663" r="10" fill="rgb(229 0 125)" stroke="black" stroke-width="2"/><circle cx="307.5983796296297" cy="262.0833333333333" r="10" fill="rgb(229 0 125)" stroke="black" stroke-width="2"/><circle cx="290.7928240740741" cy="262.0833333333333" r="10" fill="rgb(229 0 125)" stroke="black" stroke-width="2"/><circle cx="265.58449074074076" cy="325.10416666666663" r="10" fill="rgb(229 0 125)" stroke="black" stroke-width="2"/><circle cx="276.78819444444446" cy="262.0833333333333" r="10" fill="rgb(229 0 125)" stroke="black" stroke-width="2"/><circle cx="265.58449074074076" cy="262.0833333333333" r="10" fill="rgb(229 0 125)" stroke="black" stroke-width="2"/><circle cx="254.38078703703712" cy="262.0833333333333" r="10" fill="rgb(229 0 125)" stroke="black" stroke-width="2"/><circle cx="231.97337962962968" cy="325.10416666666663" r="10" fill="rgb(229 0 125)" stroke="black" stroke-width="2"/><circle cx="240.3761574074075" cy="262.0833333333333" r="10" fill="rgb(229 0 125)" stroke="black" stroke-width="2"/><circle cx="223.5706018518519" cy="262.0833333333333" r="10" fill="rgb(229 0 125)" stroke="black" stroke-width="2"/><circle cx="198.36226851851853" cy="325.10416666666663" r="10" fill="rgb(229 0 125)" stroke="black" stroke-width="2"/><circle cx="210.96643518518522" cy="262.0833333333333" r="10" fill="rgb(229 0 125)" stroke="black" stroke-width="2"/><circle cx="202.56365740740745" cy="262.0833333333333" r="10" fill="rgb(229 0 125)" stroke="black" stroke-width="2"/><circle cx="194.16087962962968" cy="262.0833333333333" r="10" fill="rgb(229 0 125)" stroke="black" stroke-width="2"/><circle cx="185.7581018518519" cy="262.0833333333333" r="10" fill="rgb(229 0 125)" stroke="black" stroke-width="2"/><circle cx="97.52893518518522" cy="388.125" r="10" fill="rgb(229 0 125)" stroke="black" stroke-width="2"/><circle cx="160.54976851851853" cy="325.10416666666663" r="10" fill="rgb(229 0 125)" stroke="black" stroke-width="2"/><circle cx="174.5543981481482" cy="262.0833333333333" r="10" fill="rgb(229 0 125)" stroke="black" stroke-width="2"/><circle cx="160.54976851851853" cy="262.0833333333333" r="10" fill="rgb(229 0 125)" stroke="black" stroke-width="2"/><circle cx="146.5451388888889" cy="262.0833333333333" r="10" fill="rgb(229 0 125)" stroke="black" stroke-width="2"/><circle cx="118.53587962962968" cy="325.10416666666663" r="10" fill="rgb(229 0 125)" stroke="black" stroke-width="2"/><circle cx="132.5405092592593" cy="262.0833333333333" r="10" fill="rgb(229 0 125)" stroke="black" stroke-width="2"/><circle cx="118.53587962962968" cy="262.0833333333333" r="10" fill="rgb(229 0 125)" stroke="black" stroke-width="2"/><circle cx="104.53125000000006" cy="262.0833333333333" r="10" fill="rgb(229 0 125)" stroke="black" stroke-width="2"/><circle cx="76.52199074074076" cy="325.10416666666663" r="10" fill="rgb(229 0 125)" stroke="black" stroke-width="2"/><circle cx="90.52662037037038" cy="262.0833333333333" r="10" fill="rgb(229 0 125)" stroke="black" stroke-width="2"/><circle cx="76.52199074074076" cy="262.0833333333333" r="10" fill="rgb(229 0 125)" stroke="black" stroke-width="2"/><circle cx="62.51736111111114" cy="262.0833333333333" r="10" fill="rgb(229 0 125)" stroke="black" stroke-width="2"/><circle cx="34.508101851851904" cy="325.10416666666663" r="10" fill="rgb(229 0 125)" stroke="black" stroke-width="2"/><circle cx="48.512731481481524" cy="262.0833333333333" r="10" fill="rgb(229 0 125)" stroke="black" stroke-width="2"/><circle cx="34.508101851851904" cy="262.0833333333333" r="10" fill="rgb(229 0 125)" stroke="black" stroke-width="2"/><circle cx="20.503472222222285" cy="262.0833333333333" r="10" fill="rgb(229 0 125)" stroke="black" stroke-width="2"/></svg>