<svg xmlns="http://www.w3.org/2000/svg" width="534.6701388888888" height="503.1597222222222" style="background: white;"><line x1="267.3350694444444" y1="31.006944444444443" x2="141.29340277777777" y2="73.02083333333333" stroke="rgb(0 159 227)" stroke-width="5"/><line x1="267.3350694444444" y1="31.006944444444443" x2="393.3767361111111" y2="73.02083333333333" stroke="rgb(0 159 227)" stroke-width="5"/><line x1="141.29340277777777" y1="73.02083333333333" x2="78.27256944444444" y2="115.03472222222221" stroke="rgb(0 159 227)" stroke-width="5"/><line x1="141.29340277777777" y1="73.02083333333333" x2="204.3142361111111" y2="115.03472222222221" stroke="rgb(0 159 227)" stroke-width="5"/><line x1="78.27256944444444" y1="115.03472222222221" x2="46.76215277777777" y2="157.0486111111111" stroke="rgb(0 159 227)" stroke-width="5"/><line x1="78.27256944444444" y1="115.03472222222221" x2="109.7829861111111" y2="157.0486111111111" stroke="rgb(0 159 227)" stroke-width="5"/><line x1="46.76215277777777" y1="157.0486111111111" x2="31.006944444444443" y2="199.0625" stroke="rgb(0 159 227)" stroke-width="5"/><line x1="46.76215277777777" y1="157.0486111111111" x2="62.51736111111111" y2="199.0625" stroke="rgb(0 159 227)" stroke-width="5"/><line x1="31.006944444444443" y1="199.0625" x2="23.12934027777778" y2="241.07638888888886" stroke="rgb(0 159 227)" stroke-width="5"/><line x1="31.006944444444443" y1="199.0625" x2="38.88454861111111" y2="241.07638888888886" stroke="rgb(0 159 227)" stroke-width="5"/><line x1="109.7829861111111" y1="157.0486111111111" x2="94.02777777777777" y2="199.0625" stroke="rgb(0 159 227)" stroke-width="5"/><line x1="109.7829861111111" y1="157.0486111111111" x2="125.53819444444443" y2="199.0625" stroke="rgb(0 159 227)" stroke-width="5"/><line x1="204.3142361111111" y1="115.03472222222221" x2="162.3003472222222" y2="157.0486111111111" stroke="rgb(0 159 227)" stroke-width="5"/><line x1="204.3142361111111" y1="115.03472222222221" x2="204.3142361111111" y2="157.0486111111111" stroke="rgb(0 159 227)" stroke-width="5"/><line x1="204.3142361111111" y1="115.03472222222221" x2="246.32812499999997" y2="157.0486111111111" stroke="rgb(0 159 227)" stroke-width="5"/><line x1="162.3003472222222" y1="157.0486111111111" x2="162.3003472222222" y2="199.0625" stroke="rgb(0 159 227)" stroke-width="5"/><line x1="204.3142361111111" y1="157.0486111111111" x2="193.81076388888889" y2="199.0625" stroke="rgb(0 159 227)" stroke-width="5"/><line x1="204.3142361111111" y1="157.0486111111111" x2="214.81770833333331" y2="199.0625" stroke="rgb(0 159 227)" stroke-width="5"/><line x1="246.32812499999997" y1="157.0486111111111" x2="235.82465277777777" y2="199.0625" stroke="rgb(0 159 227)" stroke-width="5"/><line x1="246.32812499999997" y1="157.0486111111111" x2="256.8315972222222" y2="199.0625" stroke="rgb(0 159 227)" stroke-width="5"/><line x1="393.3767361111111" y1="73.02083333333333" x2="393.3767361111111" y2="115.03472222222221" stroke="rgb(0 159 227)" stroke-width="5"/><line x1="393.3767361111111" y1="115.03472222222221" x2="330.35590277777777" y2="157.0486111111111" stroke="rgb(0 159 227)" stroke-width="5"/><line x1="393.3767361111111" y1="115.03472222222221" x2="456.3975694444444" y2="157.0486111111111" stroke="rgb(0 159 227)" stroke-width="5"/><line x1="330.35590277777777" y1="157.0486111111111" x2="330.35590277777777" y2="199.0625" stroke="rgb(0 159 227)" stroke-width="5"/><line x1="456.3975694444444" y1="157.0486111111111" x2="424.88715277777777" y2="199.0625" stroke="rgb(0 159 227)" stroke-width="5"/><line x1="456.3975694444444" y1="157.0486111111111" x2="487.9079861111111" y2="199.0625" stroke="rgb(0 159 227)" stroke-width="5"/><line x1="267.3350694444444" y1="31.006944444444443" x2="141.29340277777777" y2="73.02083333333333" stroke="black"/><line x1="267.3350694444444" y1="31.006944444444443" x2="393.3767361111111" y2="73.02083333333333" stroke="black"/><line x1="141.29340277777777" y1="73.02083333333333" x2="78.27256944444444" y2="115.03472222222221" stroke="black"/><line x1="141.29340277777777" y1="73.02083333333333" x2="204.3142361111111" y2="115.03472222222221" stroke="black"/><line x1="78.27256944444444" y1="115.03472222222221" x2="46.76215277777777" y2="157.0486111111111" stroke="black"/><line x1="78.27256944444444" y1="115.03472222222221" x2="109.7829861111111" y2="157.0486111111111" stroke="black"/><line x1="46.76215277777777" y1="157.0486111111111" x2="31.006944444444443" y2="199.0625" stroke="black"/><line x1="46.76215277777777" y1="157.0486111111111" x2="62.51736111111111" y2="199.0625" stroke="black"/><line x1="31.006944444444443" y1="199.0625" x2="23.12934027777778" y2="241.07638888888886" stroke="black"/><line x1="31.006944444444443" y1="199.0625" x2="38.88454861111111" y2="241.07638888888886" stroke="black"/><line x1="109.7829861111111" y1="157.0486111111111" x2="94.02777777777777" y2="199.0625" stroke="black"/><line x1="109.7829861111111" y1="157.0486111111111" x2="125.53819444444443" y2="199.0625" stroke="black"/><line x1="204.3142361111111" y1="115.03472222222221" x2="162.3003472222222" y2="157.0486111111111" stroke="black"/><line x1="204.3142361111111" y1="115.03472222222221" x2="204.3142361111111" y2="157.0486111111111" stroke="black"/><line x1="204.3142361111111" y1="115.03472222222221" x2="246.32812499999997" y2="157.0486111111111" stroke="black"/><line x1="162.3003472222222" y1="157.0486111111111" x2="162.3003472222222" y2="199.0625" stroke="black"/><line x1="204.3142361111111" y1="157.0486111111111" x2="193.81076388888889" y2="199.0625" stroke="black"/><line x1="204.3142361111111" y1="157.0486111111111" x2="214.81770833333331" y2="199.0625" stroke="black"/><line x1="246.32812499999997" y1="157.0486111111111" x2="235.82465277777777" y2="199.0625" stroke="black"/><line x1="246.32812499999997" y1="157.0486111111111" x2="256.8315972222222" y2="199.0625" stroke="black"/><line x1="393.3767361111111" y1="73.02083333333333" x2="393.3767361111111" y2="115.03472222222221" stroke="black"/><line x1="393.3767361111111" y1="115.03472222222221" x2="330.35590277777777" y2="157.0486111111111" stroke="black"/><line x1="393.3767361111111" y1="115.03472222222221" x2="456.3975694444444" y2="157.0486111111111" stroke="black"/><line x1="330.35590277777777" y1="157.0486111111111" x2="330.35590277777777" y2="199.0625" stroke="black"/><line x1="456.3975694444444" y1="157.0486111111111" x2="424.88715277777777" y2="199.0625" stroke="black"/><line x1="456.3975694444444" y1="157.0486111111111" x2="487.9079861111111" y2="199.0625" stroke="black"/><circle cx="267.3350694444444" cy="31.006944444444443" r="10" fill="rgb(229 0 125)" stroke="black" stroke-width="2"/><circle cx="141.29340277777777" cy="73.02083333333333" r="10" fill="rgb(229 0 125)" stroke="black" stroke-width="2"/><circle cx="78.27256944444444" cy="115.03472222222221" r="10" fill="rgb(229 0 125)" stroke="black" stroke-width="2"/><circle cx="46.76215277777777" cy="157.0486111111111" r="10" fill="rgb(229 0 125)" stroke="black" stroke-width="2"/><circle cx="31.006944444444443" cy="199.0625" r="10" fill="rgb(229 0 125)" stroke="black" stroke-width="2"/><circle cx="23.12934027777778" cy="241.07638888888886" r="10" fill="rgb(229 0 125)" stroke="black" stroke-width="2"/><circle cx="38.88454861111111" cy="241.07638888888886" r="10" fill="rgb(229 0 125)" stroke="black" stroke-width="2"/><circle cx="62.51736111111111" cy="199.0625" r="10" fill="rgb(229 0 125)" stroke="black" stroke-width="2"/><circle cx="109.7829861111111" cy="157.0486111111111" r="10" fill="rgb(229 0 125)" stroke="black" stroke-width="2"/><circle cx="94.02777777777777" cy="199.0625" r="10" fill="rgb(229 0 125)" stroke="black" stroke-width="2"/><circle cx="125.53819444444443" cy="199.0625" r="10" fill="rgb(229 0 125)" stroke="black" stroke-width="2"/><circle cx="204.3142361111111" cy="115.03472222222221" r="10" fill="rgb(229 0 125)" stroke="black" stroke-width="2"/><circle cx="162.3003472222222" cy="157.0486111111111" r="10" fill="rgb(229 0 125)" stroke="black" stroke-width="2"/><circle cx="162.3003472222222" cy="199.0625" r="10" fill="rgb(229 0 125)" stroke="black" stroke-width="2"/><circle cx="204.3142361111111" cy="157.0486111111111" r="10" fill="rgb(229 0 125)" stroke="black" stroke-width="2"/><circle cx="193.81076388888889" cy="199.0625" r="10" fill="rgb(229 0 125)" stroke="black" stroke-width="2"/><circle cx="214.81770833333331" cy="199.0625" r="10" fill="rgb(229 0 125)" stroke="black" stroke-width="2"/><circle cx="246.32812499999997" cy="157.0486111111111" r="10" fill="rgb(229 0 125)" stroke="black" stroke-width="2"/><circle cx="235.82465277777777" cy="199.0625" r="10" fill="rgb(229 0 125)" stroke="black" stroke-width="2"/><circle cx="256.8315972222222" cy="199.0625" r="10" fill="rgb(229 0 125)" stroke="black" stroke-width="2"/><circle cx="393.3767361111111" cy="73.02083333333333" r="10" fill="rgb(229 0 125)" stroke="black" stroke-width="2"/><circle cx="393.3767361111111" cy="115.03472222222221" r="10" fill="rgb(229 0 125)" stroke="black" stroke-width="2"/><circle cx="330.35590277777777" cy="157.0486111111111" r="10" fill="rgb(229 0 125)" stroke="black" stroke-width="2"/><circle cx="330.35590277777777" cy="199.0625" r="10" fill="rgb(229 0 125)" stroke="black" stroke-width="2"/><circle cx="456.3975694444444" cy="157.0486111111111" r="10" fill="rgb(229 0 125)" stroke="black" stroke-width="2"/><circle cx="424.88715277777777" cy="199.0625" r="10" fill="rgb(229 0 125)" stroke="black" stroke-width="2"/><circle cx="487.9079861111111" cy="199.0625" r="10" fill="rgb(229 0 125)" stroke="black" stroke-width="2"/><line x1="267.3350694444444" y1="472.1527777777777" x2="393.37673611111103" y2="430.13888888888886" stroke="rgb(0 159 227)" stroke-width="5"/><line x1="267.3350694444444" y1="472.1527777777777" x2="141.29340277777771" y2="430.13888888888886" stroke="rgb(0 159 227)" stroke-width="5"/><line x1="393.37673611111103" y1="430.13888888888886" x2="456.39756944444434" y2="388.12499999999994" stroke="rgb(0 159 227)" stroke-width="5"/><line x1="393.37673611111103" y1="430.13888888888886" x2="330.3559027777777" y2="388.12499999999994" stroke="rgb(0 159 227)" stroke-width="5"/><line x1="456.39756944444434" y1="388.12499999999994" x2="487.90798611111103" y2="346.1111111111111" stroke="rgb(0 159 227)" stroke-width="5"/><line x1="456.39756944444434" y1="388.12499999999994" x2="424.8871527777777" y2="346.1111111111111" stroke="rgb(0 159 227)" stroke-width="5"/><line x1="487.90798611111103" y1="346.1111111111111" x2="503.66319444444434" y2="304.0972222222222" stroke="rgb(0 159 227)" stroke-width="5"/><line x1="487.90798611111103" y1="346.1111111111111" x2="472.1527777777777" y2="304.0972222222222" stroke="rgb(0 159 227)" stroke-width="5"/><line x1="503.66319444444434" y1="304.0972222222222" x2="511.54079861111103" y2="262.0833333333333" stroke="rgb(0 159 227)" stroke-width="5"/><line x1="503.66319444444434" y1="304.0972222222222" x2="495.7855902777777" y2="262.0833333333333" stroke="rgb(0 159 227)" stroke-width="5"/><line x1="424.8871527777777" y1="346.1111111111111" x2="440.64236111111103" y2="304.0972222222222" stroke="rgb(0 159 227)" stroke-width="5"/><line x1="424.8871527777777" y1="346.1111111111111" x2="409.13194444444434" y2="304.0972222222222" stroke="rgb(0 159 227)" stroke-width="5"/><line x1="330.3559027777777" y1="388.12499999999994" x2="372.36979166666663" y2="346.1111111111111" stroke="rgb(0 159 227)" stroke-width="5"/><line x1="330.3559027777777" y1="388.12499999999994" x2="330.3559027777777" y2="346.1111111111111" stroke="rgb(0 159 227)" stroke-width="5"/><line x1="330.3559027777777" y1="388.12499999999994" x2="288.3420138888888" y2="346.1111111111111" stroke="rgb(0 159 227)" stroke-width="5"/><line x1="372.36979166666663" y1="346.1111111111111" x2="372.36979166666663" y2="304.0972222222222" stroke="rgb(0 159 227)" stroke-width="5"/><line x1="330.3559027777777" y1="346.1111111111111" x2="340.8593749999999" y2="304.0972222222222" stroke="rgb(0 159 227)" stroke-width="5"/><line x1="330.3559027777777" y1="346.1111111111111" x2="319.8524305555555" y2="304.0972222222222" stroke="rgb(0 159 227)" stroke-width="5"/><line x1="288.3420138888888" y1="346.1111111111111" x2="298.84548611111103" y2="304.0972222222222" stroke="rgb(0 159 227)" stroke-width="5"/><line x1="288.3420138888888" y1="346.1111111111111" x2="277.83854166666663" y2="304.0972222222222" stroke="rgb(0 159 227)" stroke-width="5"/><line x1="141.29340277777771" y1="430.13888888888886" x2="141.29340277777771" y2="388.12499999999994" stroke="rgb(0 159 227)" stroke-width="5"/><line x1="141.29340277777771" y1="388.12499999999994" x2="204.31423611111103" y2="346.1111111111111" stroke="rgb(0 159 227)" stroke-width="5"/><line x1="141.29340277777771" y1="388.12499999999994" x2="78.2725694444444" y2="346.1111111111111" stroke="rgb(0 159 227)" stroke-width="5"/><line x1="204.31423611111103" y1="346.1111111111111" x2="204.31423611111103" y2="304.0972222222222" stroke="rgb(0 159 227)" stroke-width="5"/><line x1="78.2725694444444" y1="346.1111111111111" x2="109.78298611111103" y2="304.0972222222222" stroke="rgb(0 159 227)" stroke-width="5"/><line x1="78.2725694444444" y1="346.1111111111111" x2="46.762152777777715" y2="304.0972222222222" stroke="rgb(0 159 227)" stroke-width="5"/><line x1="267.3350694444444" y1="472.1527777777777" x2="393.37673611111103" y2="430.13888888888886" stroke="black"/><line x1="267.3350694444444" y1="472.1527777777777" x2="141.29340277777771" y2="430.13888888888886" stroke="black"/><line x1="393.37673611111103" y1="430.13888888888886" x2="456.39756944444434" y2="388.12499999999994" stroke="black"/><line x1="393.37673611111103" y1="430.13888888888886" x2="330.3559027777777" y2="388.12499999999994" stroke="black"/><line x1="456.39756944444434" y1="388.12499999999994" x2="487.90798611111103" y2="346.1111111111111" stroke="black"/><line x1="456.39756944444434" y1="388.12499999999994" x2="424.8871527777777" y2="346.1111111111111" stroke="black"/><line x1="487.90798611111103" y1="346.1111111111111" x2="503.66319444444434" y2="304.0972222222222" stroke="black"/><line x1="487.90798611111103" y1="346.1111111111111" x2="472.1527777777777" y2="304.0972222222222" stroke="black"/><line x1="503.66319444444434" y1="304.0972222222222" x2="511.54079861111103" y2="262.0833333333333" stroke="black"/><line x1="503.66319444444434" y1="304.0972222222222" x2="495.7855902777777" y2="262.0833333333333" stroke="black"/><line x1="424.8871527777777" y1="346.1111111111111" x2="440.64236111111103" y2="304.0972222222222" stroke="black"/><line x1="424.8871527777777" y1="346.1111111111111" x2="409.13194444444434" y2="304.0972222222222" stroke="black"/><line x1="330.3559027777777" y1="388.12499999999994" x2="372.36979166666663" y2="346.1111111111111" stroke="black"/><line x1="330.3559027777777" y1="388.12499999999994" x2="330.3559027777777" y2="346.1111111111111" stroke="black"/><line x1="330.3559027777777" y1="388.12499999999994" x2="288.3420138888888" y2="346.1111111111111" stroke="black"/><line x1="372.36979166666663" y1="346.1111111111111" x2="372.36979166666663" y2="304.0972222222222" stroke="black"/><line x1="330.3559027777777" y1="346.1111111111111" x2="340.8593749999999" y2="304.0972222222222" stroke="black"/><line x1="330.3559027777777" y1="346.1111111111111" x2="319.8524305555555" y2="304.0972222222222" stroke="black"/><line x1="288.3420138888888" y1="346.1111111111111" x2="298.84548611111103" y2="304.0972222222222" stroke="black"/><line x1="288.3420138888888" y1="346.1111111111111" x2="277.83854166666663" y2="304.0972222222222" stroke="black"/><line x1="141.29340277777771" y1="430.13888888888886" x2="141.29340277777771" y2="388.12499999999994" stroke="black"/><line x1="141.29340277777771" y1="388.12499999999994" x2="204.31423611111103" y2="346.1111111111111" stroke="black"/><line x1="141.29340277777771" y1="388.12499999999994" x2="78.2725694444444" y2="346.1111111111111" stroke="black"/><line x1="204.31423611111103" y1="346.1111111111111" x2="204.31423611111103" y2="304.0972222222222" stroke="black"/><line x1="78.2725694444444" y1="346.1111111111111" x2="109.78298611111103" y2="304.0972222222222" stroke="black"/><line x1="78.2725694444444" y1="346.1111111111111" x2="46.762152777777715" y2="304.0972222222222" stroke="black"/><circle cx="267.3350694444444" cy="472.1527777777777" r="10" fill="rgb(229 0 125)" stroke="black" stroke-width="2"/><circle cx="393.37673611111103" cy="430.13888888888886" r="10" fill="rgb(229 0 125)" stroke="black" stroke-width="2"/><circle cx="456.39756944444434" cy="388.12499999999994" r="10" fill="rgb(229 0 125)" stroke="black" stroke-width="2"/><circle cx="487.90798611111103" cy="346.1111111111111" r="10" fill="rgb(229 0 125)" stroke="black" stroke-width="2"/><circle cx="503.66319444444434" cy="304.0972222222222" r="10" fill="rgb(229 0 125)" stroke="black" stroke-width="2"/><circle cx="511.54079861111103" cy="262.0833333333333" r="10" fill="rgb(229 0 125)" stroke="black" stroke-width="2"/><circle cx="495.7855902777777" cy="262.0833333333333" r="10" fill="rgb(229 0 125)" stroke="black" stroke-width="2"/><circle cx="472.1527777777777" cy="304.0972222222222" r="10" fill="rgb(229 0 125)" stroke="black" stroke-width="2"/><circle cx="424.8871527777777" cy="346.1111111111111" r="10" fill="rgb(229 0 125)" stroke="black" stroke-width="2"/><circle cx="440.64236111111103" cy="304.0972222222222" r="10" fill="rgb(229 0 125)" stroke="black" stroke-width="2"/><circle cx="409.13194444444434" cy="304.0972222222222" r="10" fill="rgb(229 0 125)" stroke="black" stroke-width="2"/><circle cx="330.3559027777777" cy="388.12499999999994" r="10" fill="rgb(229 0 125)" stroke="black" stroke-width="2"/><circle cx="372.36979166666663" cy="346.1111111111111" r="10" fill="rgb(229 0 125)" stroke="black" stroke-width="2"/><circle cx="372.36979166666663" cy="304.0972222222222" r="10" fill="rgb(229 0 125)" stroke="black" stroke-width="2"/><circle cx="330.3559027777777" cy="346.1111111111111" r="10" fill="rgb(229 0 125)" stroke="black" stroke-width="2"/><circle cx="340.8593749999999" cy="304.0972222222222" r="10" fill="rgb(229 0 125)" stroke="black" stroke-width="2"/><circle cx="319.8524305555555" cy="304.0972222222222" r="10" fill="rgb(229 0 125)" stroke="black" stroke-width="2"/><circle cx="288.3420138888888" cy="346.1111111111111" r="10" fill="rgb(229 0 125)" stroke="black" stroke-width="2"/><circle cx="298.84548611111103" cy="304.0972222222222" r="10" fill="rgb(229 0 125)" stroke="black" stroke-width="2"/><circle cx="277.83854166666663" cy="304.0972222222222" r="10" fill="rgb(229 0 125)" stroke="black" stroke-width="2"/><circle cx="141.29340277777771" cy="430.13888888888886" r="10" fill="rgb(229 0 125)" stroke="black" stroke-width="2"/><circle cx="141.29340277777771" cy="388.12499999999994" r="10" fill="rgb(229 0 125)" stroke="black" stroke-width="2"/><circle cx="204.31423611111103" cy="346.1111111111111" r="10" fill="rgb(229 0 125)" stroke="black" stroke-width="2"/><circle cx="204.31423611111103" cy="304.0972222222222" r="10" fill="rgb(229 0 125)" stroke="black" stroke-width="2"/><circle cx="78.2725694444444" cy="346.1111111111111" r="10" fill="rgb(229 0 125)" stroke="black" stroke-width="2"/><circle cx="109.78298611111103" cy="304.0972222222222" r="10" fill="rgb(229 0 125)" stroke="black" stroke-width="2"/><circle cx="46.762152777777715" cy="304.0972222222222" r="10" fill="rgb(229 0 125)" stroke="black" stroke-width="2"/></svg>