<svg xmlns="http://www.w3.org/2000/svg" width="545.1736111111111" height="482.1527777777777" style="background: white;"><line x1="272.58680555555554" y1="52.013888888888886" x2="104.53125" y2="136.04166666666666" stroke="rgb(0 159 227)" stroke-width="5"/><line x1="272.58680555555554" y1="52.013888888888886" x2="272.58680555555554" y2="136.04166666666666" stroke="rgb(0 159 227)" stroke-width="5"/><line x1="272.58680555555554" y1="52.013888888888886" x2="440.6423611111111" y2="136.04166666666666" stroke="rgb(0 159 227)" stroke-width="5"/><line x1="104.53125" y1="136.04166666666666" x2="48.512731481481474" y2="220.06944444444443" stroke="rgb(0 159 227)" stroke-width="5"/><line x1="104.53125" y1="136.04166666666666" x2="104.53125" y2="220.06944444444443" stroke="rgb(0 159 227)" stroke-width="5"/><line x1="104.53125" y1="136.04166666666666" x2="160.5497685185185" y2="220.06944444444443" stroke="rgb(0 159 227)" stroke-width="5"/><line x1="272.58680555555554" y1="136.04166666666666" x2="230.57291666666666" y2="220.06944444444443" stroke="rgb(0 159 227)" stroke-width="5"/><line x1="272.58680555555554" y1="136.04166666666666" x2="314.6006944444444" y2="220.06944444444443" stroke="rgb(0 159 227)" stroke-width="5"/><line x1="440.6423611111111" y1="136.04166666666666" x2="377.62152777777777" y2="220.06944444444443" stroke="rgb(0 159 227)" stroke-width="5"/><line x1="440.6423611111111" y1="136.04166666666666" x2="419.63541666666663" y2="220.06944444444443" stroke="rgb(0 159 227)" stroke-width="5"/><line x1="440.6423611111111" y1="136.04166666666666" x2="461.64930555555554" y2="220.06944444444443" stroke="rgb(0 159 227)" stroke-width="5"/><line x1="440.6423611111111" y1="136.04166666666666" x2="503.6631944444444" y2="220.06944444444443" stroke="rgb(0 159 227)" stroke-width="5"/><line x1="272.58680555555554" y1="52.013888888888886" x2="104.53125" y2="136.04166666666666" stroke="black"/><line x1="272.58680555555554" y1="52.013888888888886" x2="272.58680555555554" y2="136.04166666666666" stroke="black"/><line x1="272.58680555555554" y1="52.013888888888886" x2="440.6423611111111" y2="136.04166666666666" stroke="black"/><line x1="104.53125" y1="136.04166666666666" x2="48.512731481481474" y2="220.06944444444443" stroke="black"/><line x1="104.53125" y1="136.04166666666666" x2="104.53125" y2="220.06944444444443" stroke="black"/><line x1="104.53125" y1="136.04166666666666" x2="160.5497685185185" y2="220.06944444444443" stroke="black"/><line x1="272.58680555555554" y1="136.04166666666666" x2="230.57291666666666" y2="220.06944444444443" stroke="black"/><line x1="272.58680555555554" y1="136.04166666666666" x2="314.6006944444444" y2="220.06944444444443" stroke="black"/><line x1="440.6423611111111" y1="136.04166666666666" x2="377.62152777777777" y2="220.06944444444443" stroke="black"/><line x1="440.6423611111111" y1="136.04166666666666" x2="419.63541666666663" y2="220.06944444444443" stroke="black"/><line x1="440.6423611111111" y1="136.04166666666666" x2="461.64930555555554" y2="220.06944444444443" stroke="black"/><line x1="440.6423611111111" y1="136.04166666666666" x2="503.6631944444444" y2="220.06944444444443" stroke="black"/><circle cx="272.58680555555554" cy="52.013888888888886" r="10" fill="rgb(229 0 125)" stroke="black" stroke-width="2"/><circle cx="104.53125" cy="136.04166666666666" r="10" fill="rgb(229 0 125)" stroke="black" stroke-width="2"/><circle cx="48.512731481481474" cy="220.06944444444443" r="10" fill="rgb(229 0 125)" stroke="black" stroke-width="2"/><circle cx="104.53125" cy="220.06944444444443" r="10" fill="rgb(229 0 125)" stroke="black" stroke-width="2"/><circle cx="160.5497685185185" cy="220.06944444444443" r="10" fill="rgb(229 0 125)" stroke="black" stroke-width="2"/><circle cx="272.58680555555554" cy="136.04166666666666" r="10" fill="rgb(229 0 125)" stroke="black" stroke-width="2"/><circle cx="230.57291666666666" cy="220.06944444444443" r="10" fill="rgb(229 0 125)" stroke="black" stroke-width="2"/><circle cx="314.6006944444444" cy="220.06944444444443" r="10" fill="rgb(229 0 125)" stroke="black" stroke-width="2"/><circle cx="440.6423611111111" cy="136.04166666666666" r="10" fill="rgb(229 0 125)" stroke="black" stroke-width="2"/><circle cx="377.62152777777777" cy="220.06944444444443" r="10" fill="rgb(229 0 125)" stroke="black" stroke-width="2"/><circle cx="419.63541666666663" cy="220.06944444444443" r="10" fill="rgb(229 0 125)" stroke="black" stroke-width="2"/><circle cx="461.64930555555554" cy="220.06944444444443" r="10" fill="rgb(229 0 125)" stroke="black" stroke-width="2"/><circle cx="503.6631944444444" cy="220.06944444444443" r="10" fill="rgb(229 0 125)" stroke="black" stroke-width="2"/><line x1="272.58680555555554" y1="430.1388888888888" x2="440.6423611111111" y2="346.1111111111111" stroke="rgb(0 159 227)" stroke-width="5"/><line x1="272.58680555555554" y1="430.1388888888888" x2="272.58680555555554" y2="346.1111111111111" stroke="rgb(0 159 227)" stroke-width="5"/><line x1="272.58680555555554" y1="430.1388888888888" x2="104.53125" y2="346.1111111111111" stroke="rgb(0 159 227)" stroke-width="5"/><line x1="440.6423611111111" y1="346.1111111111111" x2="496.6608796296296" y2="262.08333333333326" stroke="rgb(0 159 227)" stroke-width="5"/><line x1="440.6423611111111" y1="346.1111111111111" x2="440.6423611111111" y2="262.08333333333326" stroke="rgb(0 159 227)" stroke-width="5"/><line x1="440.6423611111111" y1="346.1111111111111" x2="384.6238425925926" y2="262.08333333333326" stroke="rgb(0 159 227)" stroke-width="5"/><line x1="272.58680555555554" y1="346.1111111111111" x2="314.60069444444446" y2="262.08333333333326" stroke="rgb(0 159 227)" stroke-width="5"/><line x1="272.58680555555554" y1="346.1111111111111" x2="230.57291666666669" y2="262.08333333333326" stroke="rgb(0 159 227)" stroke-width="5"/><line x1="104.53125" y1="346.1111111111111" x2="167.55208333333331" y2="262.08333333333326" stroke="rgb(0 159 227)" stroke-width="5"/><line x1="104.53125" y1="346.1111111111111" x2="125.53819444444446" y2="262.08333333333326" stroke="rgb(0 159 227)" stroke-width="5"/><line x1="104.53125" y1="346.1111111111111" x2="83.52430555555554" y2="262.08333333333326" stroke="rgb(0 159 227)" stroke-width="5"/><line x1="104.53125" y1="346.1111111111111" x2="41.510416666666686" y2="262.08333333333326" stroke="rgb(0 159 227)" stroke-width="5"/><line x1="272.58680555555554" y1="430.1388888888888" x2="440.6423611111111" y2="346.1111111111111" stroke="black"/><line x1="272.58680555555554" y1="430.1388888888888" x2="272.58680555555554" y2="346.1111111111111" stroke="black"/><line x1="272.58680555555554" y1="430.1388888888888" x2="104.53125" y2="346.1111111111111" stroke="black"/><line x1="440.6423611111111" y1="346.1111111111111" x2="496.6608796296296" y2="262.08333333333326" stroke="black"/><line x1="440.6423611111111" y1="346.1111111111111" x2="440.6423611111111" y2="262.08333333333326" stroke="black"/><line x1="440.6423611111111" y1="346.1111111111111" x2="384.6238425925926" y2="262.08333333333326" stroke="black"/><line x1="272.58680555555554" y1="346.1111111111111" x2="314.60069444444446" y2="262.08333333333326" stroke="black"/><line x1="272.58680555555554" y1="346.1111111111111" x2="230.57291666666669" y2="262.08333333333326" stroke="black"/><line x1="104.53125" y1="346.1111111111111" x2="167.55208333333331" y2="262.08333333333326" stroke="black"/><line x1="104.53125" y1="346.1111111111111" x2="125.53819444444446" y2="262.08333333333326" stroke="black"/><line x1="104.53125" y1="346.1111111111111" x2="83.52430555555554" y2="262.08333333333326" stroke="black"/><line x1="104.53125" y1="346.1111111111111" x2="41.510416666666686" y2="262.08333333333326" stroke="black"/><circle cx="272.58680555555554" cy="430.1388888888888" r="10" fill="rgb(229 0 125)" stroke="black" stroke-width="2"/><circle cx="440.6423611111111" cy="346.1111111111111" r="10" fill="rgb(229 0 125)" stroke="black" stroke-width="2"/><circle cx="496.6608796296296" cy="262.08333333333326" r="10" fill="rgb(229 0 125)" stroke="black" stroke-width="2"/><circle cx="440.6423611111111" cy="262.08333333333326" r="10" fill="rgb(229 0 125)" stroke="black" stroke-width="2"/><circle cx="384.6238425925926" cy="262.08333333333326" r="10" fill="rgb(229 0 125)" stroke="black" stroke-width="2"/><circle cx="272.58680555555554" cy="346.1111111111111" r="10" fill="rgb(229 0 125)" stroke="black" stroke-width="2"/><circle cx="314.60069444444446" cy="262.08333333333326" r="10" fill="rgb(229 0 125)" stroke="black" stroke-width="2"/><circle cx="230.57291666666669" cy="262.08333333333326" r="10" fill="rgb(229 0 125)" stroke="black" stroke-width="2"/><circle cx="104.53125" cy="346.1111111111111" r="10" fill="rgb(229 0 125)" stroke="black" stroke-width="2"/><circle cx="167.55208333333331" cy="262.08333333333326" r="10" fill="rgb(229 0 125)" stroke="black" stroke-width="2"/><circle cx="125.53819444444446" cy="262.08333333333326" r="10" fill="rgb(229 0 125)" stroke="black" stroke-width="2"/><circle cx="83.52430555555554" cy="262.08333333333326" r="10" fill="rgb(229 0 125)" stroke="black" stroke-width="2"/><circle cx="41.510416666666686" cy="262.08333333333326" r="10" fill="rgb(229 0 125)" stroke="black" stroke-width="2"/></svg>