<svg xmlns="http://www.w3.org/2000/svg" width="528.3680555555557" height="492.65625" style="background: white;"><line x1="264.1840277777778" y1="41.51041666666667" x2="62.517361111111114" y2="104.53125" stroke="rgb(0 159 227)" stroke-width="5"/><line x1="264.1840277777778" y1="41.51041666666667" x2="163.35069444444446" y2="104.53125" stroke="rgb(0 159 227)" stroke-width="5"/><line x1="264.1840277777778" y1="41.51041666666667" x2="264.1840277777778" y2="104.53125" stroke="rgb(0 159 227)" stroke-width="5"/><line x1="264.1840277777778" y1="41.51041666666667" x2="365.01736111111114" y2="104.53125" stroke="rgb(0 159 227)" stroke-width="5"/><line x1="264.1840277777778" y1="41.51041666666667" x2="465.8506944444445" y2="104.53125" stroke="rgb(0 159 227)" stroke-width="5"/><line x1="62.517361111111114" y1="104.53125" x2="28.90625" y2="167.55208333333334" stroke="rgb(0 159 227)" stroke-width="5"/><line x1="62.517361111111114" y1="104.53125" x2="62.517361111111114" y2="167.55208333333334" stroke="rgb(0 159 227)" stroke-width="5"/><line x1="62.517361111111114" y1="104.53125" x2="96.12847222222223" y2="167.55208333333334" stroke="rgb(0 159 227)" stroke-width="5"/><line x1="163.35069444444446" y1="104.53125" x2="125.53819444444446" y2="167.55208333333334" stroke="rgb(0 159 227)" stroke-width="5"/><line x1="163.35069444444446" y1="104.53125" x2="150.7465277777778" y2="167.55208333333334" stroke="rgb(0 159 227)" stroke-width="5"/><line x1="163.35069444444446" y1="104.53125" x2="175.95486111111111" y2="167.55208333333334" stroke="rgb(0 159 227)" stroke-width="5"/><line x1="163.35069444444446" y1="104.53125" x2="201.16319444444446" y2="167.55208333333334" stroke="rgb(0 159 227)" stroke-width="5"/><line x1="264.1840277777778" y1="104.53125" x2="230.57291666666669" y2="167.55208333333334" stroke="rgb(0 159 227)" stroke-width="5"/><line x1="264.1840277777778" y1="104.53125" x2="264.1840277777778" y2="167.55208333333334" stroke="rgb(0 159 227)" stroke-width="5"/><line x1="264.1840277777778" y1="104.53125" x2="297.7951388888889" y2="167.55208333333334" stroke="rgb(0 159 227)" stroke-width="5"/><line x1="230.57291666666669" y1="167.55208333333334" x2="222.1701388888889" y2="230.57291666666669" stroke="rgb(0 159 227)" stroke-width="5"/><line x1="230.57291666666669" y1="167.55208333333334" x2="238.97569444444446" y2="230.57291666666669" stroke="rgb(0 159 227)" stroke-width="5"/><line x1="264.1840277777778" y1="167.55208333333334" x2="252.98032407407408" y2="230.57291666666669" stroke="rgb(0 159 227)" stroke-width="5"/><line x1="264.1840277777778" y1="167.55208333333334" x2="264.1840277777778" y2="230.57291666666669" stroke="rgb(0 159 227)" stroke-width="5"/><line x1="264.1840277777778" y1="167.55208333333334" x2="275.3877314814815" y2="230.57291666666669" stroke="rgb(0 159 227)" stroke-width="5"/><line x1="297.7951388888889" y1="167.55208333333334" x2="289.39236111111114" y2="230.57291666666669" stroke="rgb(0 159 227)" stroke-width="5"/><line x1="297.7951388888889" y1="167.55208333333334" x2="306.1979166666667" y2="230.57291666666669" stroke="rgb(0 159 227)" stroke-width="5"/><line x1="365.01736111111114" y1="104.53125" x2="339.8090277777778" y2="167.55208333333334" stroke="rgb(0 159 227)" stroke-width="5"/><line x1="365.01736111111114" y1="104.53125" x2="390.22569444444446" y2="167.55208333333334" stroke="rgb(0 159 227)" stroke-width="5"/><line x1="339.8090277777778" y1="167.55208333333334" x2="327.20486111111114" y2="230.57291666666669" stroke="rgb(0 159 227)" stroke-width="5"/><line x1="339.8090277777778" y1="167.55208333333334" x2="352.41319444444446" y2="230.57291666666669" stroke="rgb(0 159 227)" stroke-width="5"/><line x1="390.22569444444446" y1="167.55208333333334" x2="377.6215277777778" y2="230.57291666666669" stroke="rgb(0 159 227)" stroke-width="5"/><line x1="390.22569444444446" y1="167.55208333333334" x2="402.82986111111114" y2="230.57291666666669" stroke="rgb(0 159 227)" stroke-width="5"/><line x1="465.8506944444445" y1="104.53125" x2="432.23958333333337" y2="167.55208333333334" stroke="rgb(0 159 227)" stroke-width="5"/><line x1="465.8506944444445" y1="104.53125" x2="465.8506944444445" y2="167.55208333333334" stroke="rgb(0 159 227)" stroke-width="5"/><line x1="465.8506944444445" y1="104.53125" x2="499.4618055555556" y2="167.55208333333334" stroke="rgb(0 159 227)" stroke-width="5"/><line x1="264.1840277777778" y1="41.51041666666667" x2="62.517361111111114" y2="104.53125" stroke="black"/><line x1="264.1840277777778" y1="41.51041666666667" x2="163.35069444444446" y2="104.53125" stroke="black"/><line x1="264.1840277777778" y1="41.51041666666667" x2="264.1840277777778" y2="104.53125" stroke="black"/><line x1="264.1840277777778" y1="41.51041666666667" x2="365.01736111111114" y2="104.53125" stroke="black"/><line x1="264.1840277777778" y1="41.51041666666667" x2="465.8506944444445" y2="104.53125" stroke="black"/><line x1="62.517361111111114" y1="104.53125" x2="28.90625" y2="167.55208333333334" stroke="black"/><line x1="62.517361111111114" y1="104.53125" x2="62.517361111111114" y2="167.55208333333334" stroke="black"/><line x1="62.517361111111114" y1="104.53125" x2="96.12847222222223" y2="167.55208333333334" stroke="black"/><line x1="163.35069444444446" y1="104.53125" x2="125.53819444444446" y2="167.55208333333334" stroke="black"/><line x1="163.35069444444446" y1="104.53125" x2="150.7465277777778" y2="167.55208333333334" stroke="black"/><line x1="163.35069444444446" y1="104.53125" x2="175.95486111111111" y2="167.55208333333334" stroke="black"/><line x1="163.35069444444446" y1="104.53125" x2="201.16319444444446" y2="167.55208333333334" stroke="black"/><line x1="264.1840277777778" y1="104.53125" x2="230.57291666666669" y2="167.55208333333334" stroke="black"/><line x1="264.1840277777778" y1="104.53125" x2="264.1840277777778" y2="167.55208333333334" stroke="black"/><line x1="264.1840277777778" y1="104.53125" x2="297.7951388888889" y2="167.55208333333334" stroke="black"/><line x1="230.57291666666669" y1="167.55208333333334" x2="222.1701388888889" y2="230.57291666666669" stroke="black"/><line x1="230.57291666666669" y1="167.55208333333334" x2="238.97569444444446" y2="230.57291666666669" stroke="black"/><line x1="264.1840277777778" y1="167.55208333333334" x2="252.98032407407408" y2="230.57291666666669" stroke="black"/><line x1="264.1840277777778" y1="167.55208333333334" x2="264.1840277777778" y2="230.57291666666669" stroke="black"/><line x1="264.1840277777778" y1="167.55208333333334" x2="275.3877314814815" y2="230.57291666666669" stroke="black"/><line x1="297.7951388888889" y1="167.55208333333334" x2="289.39236111111114" y2="230.57291666666669" stroke="black"/><line x1="297.7951388888889" y1="167.55208333333334" x2="306.1979166666667" y2="230.57291666666669" stroke="black"/><line x1="365.01736111111114" y1="104.53125" x2="339.8090277777778" y2="167.55208333333334" stroke="black"/><line x1="365.01736111111114" y1="104.53125" x2="390.22569444444446" y2="167.55208333333334" stroke="black"/><line x1="339.8090277777778" y1="167.55208333333334" x2="327.20486111111114" y2="230.57291666666669" stroke="black"/><line x1="339.8090277777778" y1="167.55208333333334" x2="352.41319444444446" y2="230.57291666666669" stroke="black"/><line x1="390.22569444444446" y1="167.55208333333334" x2="377.6215277777778" y2="230.57291666666669" stroke="black"/><line x1="390.22569444444446" y1="167.55208333333334" x2="402.82986111111114" y2="230.57291666666669" stroke="black"/><line x1="465.8506944444445" y1="104.53125" x2="432.23958333333337" y2="167.55208333333334" stroke="black"/><line x1="465.8506944444445" y1="104.53125" x2="465.8506944444445" y2="167.55208333333334" stroke="black"/><line x1="465.8506944444445" y1="104.53125" x2="499.4618055555556" y2="167.55208333333334" stroke="black"/><circle cx="264.1840277777778" cy="41.51041666666667" r="10" fill="rgb(229 0 125)" stroke="black" stroke-width="2"/><circle cx="62.517361111111114" cy="104.53125" r="10" fill="rgb(229 0 125)" stroke="black" stroke-width="2"/><circle cx="28.90625" cy="167.55208333333334" r="10" fill="rgb(229 0 125)" stroke="black" stroke-width="2"/><circle cx="62.517361111111114" cy="167.55208333333334" r="10" fill="rgb(229 0 125)" stroke="black" stroke-width="2"/><circle cx="96.12847222222223" cy="167.55208333333334" r="10" fill="rgb(229 0 125)" stroke="black" stroke-width="2"/><circle cx="163.35069444444446" cy="104.53125" r="10" fill="rgb(229 0 125)" stroke="black" stroke-width="2"/><circle cx="125.53819444444446" cy="167.55208333333334" r="10" fill="rgb(229 0 125)" stroke="black" stroke-width="2"/><circle cx="150.7465277777778" cy="167.55208333333334" r="10" fill="rgb(229 0 125)" stroke="black" stroke-width="2"/><circle cx="175.95486111111111" cy="167.55208333333334" r="10" fill="rgb(229 0 125)" stroke="black" stroke-width="2"/><circle cx="201.16319444444446" cy="167.55208333333334" r="10" fill="rgb(229 0 125)" stroke="black" stroke-width="2"/><circle cx="264.1840277777778" cy="104.53125" r="10" fill="rgb(229 0 125)" stroke="black" stroke-width="2"/><circle cx="230.57291666666669" cy="167.55208333333334" r="10" fill="rgb(229 0 125)" stroke="black" stroke-width="2"/><circle cx="222.1701388888889" cy="230.57291666666669" r="10" fill="rgb(229 0 125)" stroke="black" stroke-width="2"/><circle cx="238.97569444444446" cy="230.57291666666669" r="10" fill="rgb(229 0 125)" stroke="black" stroke-width="2"/><circle cx="264.1840277777778" cy="167.55208333333334" r="10" fill="rgb(229 0 125)" stroke="black" stroke-width="2"/><circle cx="252.98032407407408" cy="230.57291666666669" r="10" fill="rgb(229 0 125)" stroke="black" stroke-width="2"/><circle cx="264.1840277777778" cy="230.57291666666669" r="10" fill="rgb(229 0 125)" stroke="black" stroke-width="2"/><circle cx="275.3877314814815" cy="230.57291666666669" r="10" fill="rgb(229 0 125)" stroke="black" stroke-width="2"/><circle cx="297.7951388888889" cy="167.55208333333334" r="10" fill="rgb(229 0 125)" stroke="black" stroke-width="2"/><circle cx="289.39236111111114" cy="230.57291666666669" r="10" fill="rgb(229 0 125)" stroke="black" stroke-width="2"/><circle cx="306.1979166666667" cy="230.57291666666669" r="10" fill="rgb(229 0 125)" stroke="black" stroke-width="2"/><circle cx="365.01736111111114" cy="104.53125" r="10" fill="rgb(229 0 125)" stroke="black" stroke-width="2"/><circle cx="339.8090277777778" cy="167.55208333333334" r="10" fill="rgb(229 0 125)" stroke="black" stroke-width="2"/><circle cx="327.20486111111114" cy="230.57291666666669" r="10" fill="rgb(229 0 125)" stroke="black" stroke-width="2"/><circle cx="352.41319444444446" cy="230.57291666666669" r="10" fill="rgb(229 0 125)" stroke="black" stroke-width="2"/><circle cx="390.22569444444446" cy="167.55208333333334" r="10" fill="rgb(229 0 125)" stroke="black" stroke-width="2"/><circle cx="377.6215277777778" cy="230.57291666666669" r="10" fill="rgb(229 0 125)" stroke="black" stroke-width="2"/><circle cx="402.82986111111114" cy="230.57291666666669" r="10" fill="rgb(229 0 125)" stroke="black" stroke-width="2"/><circle cx="465.8506944444445" cy="104.53125" r="10" fill="rgb(229 0 125)" stroke="black" stroke-width="2"/><circle cx="432.23958333333337" cy="167.55208333333334" r="10" fill="rgb(229 0 125)" stroke="black" stroke-width="2"/><circle cx="465.8506944444445" cy="167.55208333333334" r="10" fill="rgb(229 0 125)" stroke="black" stroke-width="2"/><circle cx="499.4618055555556" cy="167.55208333333334" r="10" fill="rgb(229 0 125)" stroke="black" stroke-width="2"/><line x1="264.1840277777778" y1="451.1458333333333" x2="465.85069444444457" y2="388.125" stroke="rgb(0 159 227)" stroke-width="5"/><line x1="264.1840277777778" y1="451.1458333333333" x2="365.0173611111112" y2="388.125" stroke="rgb(0 159 227)" stroke-width="5"/><line x1="264.1840277777778" y1="451.1458333333333" x2="264.1840277777778" y2="388.125" stroke="rgb(0 159 227)" stroke-width="5"/><line x1="264.1840277777778" y1="451.1458333333333" x2="163.3506944444445" y2="388.125" stroke="rgb(0 159 227)" stroke-width="5"/><line x1="264.1840277777778" y1="451.1458333333333" x2="62.51736111111114" y2="388.125" stroke="rgb(0 159 227)" stroke-width="5"/><line x1="465.85069444444457" y1="388.125" x2="499.46180555555566" y2="325.10416666666663" stroke="rgb(0 159 227)" stroke-width="5"/><line x1="465.85069444444457" y1="388.125" x2="465.85069444444457" y2="325.10416666666663" stroke="rgb(0 159 227)" stroke-width="5"/><line x1="465.85069444444457" y1="388.125" x2="432.2395833333334" y2="325.10416666666663" stroke="rgb(0 159 227)" stroke-width="5"/><line x1="365.0173611111112" y1="388.125" x2="402.8298611111112" y2="325.10416666666663" stroke="rgb(0 159 227)" stroke-width="5"/><line x1="365.0173611111112" y1="388.125" x2="377.6215277777778" y2="325.10416666666663" stroke="rgb(0 159 227)" stroke-width="5"/><line x1="365.0173611111112" y1="388.125" x2="352.41319444444457" y2="325.10416666666663" stroke="rgb(0 159 227)" stroke-width="5"/><line x1="365.0173611111112" y1="388.125" x2="327.2048611111112" y2="325.10416666666663" stroke="rgb(0 159 227)" stroke-width="5"/><line x1="264.1840277777778" y1="388.125" x2="297.79513888888897" y2="325.10416666666663" stroke="rgb(0 159 227)" stroke-width="5"/><line x1="264.1840277777778" y1="388.125" x2="264.1840277777778" y2="325.10416666666663" stroke="rgb(0 159 227)" stroke-width="5"/><line x1="264.1840277777778" y1="388.125" x2="230.57291666666674" y2="325.10416666666663" stroke="rgb(0 159 227)" stroke-width="5"/><line x1="297.79513888888897" y1="325.10416666666663" x2="306.19791666666674" y2="262.0833333333333" stroke="rgb(0 159 227)" stroke-width="5"/><line x1="297.79513888888897" y1="325.10416666666663" x2="289.3923611111112" y2="262.0833333333333" stroke="rgb(0 159 227)" stroke-width="5"/><line x1="264.1840277777778" y1="325.10416666666663" x2="275.3877314814816" y2="262.0833333333333" stroke="rgb(0 159 227)" stroke-width="5"/><line x1="264.1840277777778" y1="325.10416666666663" x2="264.1840277777778" y2="262.0833333333333" stroke="rgb(0 159 227)" stroke-width="5"/><line x1="264.1840277777778" y1="325.10416666666663" x2="252.98032407407413" y2="262.0833333333333" stroke="rgb(0 159 227)" stroke-width="5"/><line x1="230.57291666666674" y1="325.10416666666663" x2="238.9756944444445" y2="262.0833333333333" stroke="rgb(0 159 227)" stroke-width="5"/><line x1="230.57291666666674" y1="325.10416666666663" x2="222.17013888888897" y2="262.0833333333333" stroke="rgb(0 159 227)" stroke-width="5"/><line x1="163.3506944444445" y1="388.125" x2="188.55902777777783" y2="325.10416666666663" stroke="rgb(0 159 227)" stroke-width="5"/><line x1="163.3506944444445" y1="388.125" x2="138.1423611111112" y2="325.10416666666663" stroke="rgb(0 159 227)" stroke-width="5"/><line x1="188.55902777777783" y1="325.10416666666663" x2="201.1631944444445" y2="262.0833333333333" stroke="rgb(0 159 227)" stroke-width="5"/><line x1="188.55902777777783" y1="325.10416666666663" x2="175.9548611111112" y2="262.0833333333333" stroke="rgb(0 159 227)" stroke-width="5"/><line x1="138.1423611111112" y1="325.10416666666663" x2="150.74652777777783" y2="262.0833333333333" stroke="rgb(0 159 227)" stroke-width="5"/><line x1="138.1423611111112" y1="325.10416666666663" x2="125.53819444444451" y2="262.0833333333333" stroke="rgb(0 159 227)" stroke-width="5"/><line x1="62.51736111111114" y1="388.125" x2="96.12847222222229" y2="325.10416666666663" stroke="rgb(0 159 227)" stroke-width="5"/><line x1="62.51736111111114" y1="388.125" x2="62.51736111111114" y2="325.10416666666663" stroke="rgb(0 159 227)" stroke-width="5"/><line x1="62.51736111111114" y1="388.125" x2="28.906250000000057" y2="325.10416666666663" stroke="rgb(0 159 227)" stroke-width="5"/><line x1="264.1840277777778" y1="451.1458333333333" x2="465.85069444444457" y2="388.125" stroke="black"/><line x1="264.1840277777778" y1="451.1458333333333" x2="365.0173611111112" y2="388.125" stroke="black"/><line x1="264.1840277777778" y1="451.1458333333333" x2="264.1840277777778" y2="388.125" stroke="black"/><line x1="264.1840277777778" y1="451.1458333333333" x2="163.3506944444445" y2="388.125" stroke="black"/><line x1="264.1840277777778" y1="451.1458333333333" x2="62.51736111111114" y2="388.125" stroke="black"/><line x1="465.85069444444457" y1="388.125" x2="499.46180555555566" y2="325.10416666666663" stroke="black"/><line x1="465.85069444444457" y1="388.125" x2="465.85069444444457" y2="325.10416666666663" stroke="black"/><line x1="465.85069444444457" y1="388.125" x2="432.2395833333334" y2="325.10416666666663" stroke="black"/><line x1="365.0173611111112" y1="388.125" x2="402.8298611111112" y2="325.10416666666663" stroke="black"/><line x1="365.0173611111112" y1="388.125" x2="377.6215277777778" y2="325.10416666666663" stroke="black"/><line x1="365.0173611111112" y1="388.125" x2="352.41319444444457" y2="325.10416666666663" stroke="black"/><line x1="365.0173611111112" y1="388.125" x2="327.2048611111112" y2="325.10416666666663" stroke="black"/><line x1="264.1840277777778" y1="388.125" x2="297.79513888888897" y2="325.10416666666663" stroke="black"/><line x1="264.1840277777778" y1="388.125" x2="264.1840277777778" y2="325.10416666666663" stroke="black"/><line x1="264.1840277777778" y1="388.125" x2="230.57291666666674" y2="325.10416666666663" stroke="black"/><line x1="297.79513888888897" y1="325.10416666666663" x2="306.19791666666674" y2="262.0833333333333" stroke="black"/><line x1="297.79513888888897" y1="325.10416666666663" x2="289.3923611111112" y2="262.0833333333333" stroke="black"/><line x1="264.1840277777778" y1="325.10416666666663" x2="275.3877314814816" y2="262.0833333333333" stroke="black"/><line x1="264.1840277777778" y1="325.10416666666663" x2="264.1840277777778" y2="262.0833333333333" stroke="black"/><line x1="264.1840277777778" y1="325.10416666666663" x2="252.98032407407413" y2="262.0833333333333" stroke="black"/><line x1="230.57291666666674" y1="325.10416666666663" x2="238.9756944444445" y2="262.0833333333333" stroke="black"/><line x1="230.57291666666674" y1="325.10416666666663" x2="222.17013888888897" y2="262.0833333333333" stroke="black"/><line x1="163.3506944444445" y1="388.125" x2="188.55902777777783" y2="325.10416666666663" stroke="black"/><line x1="163.3506944444445" y1="388.125" x2="138.1423611111112" y2="325.10416666666663" stroke="black"/><line x1="188.55902777777783" y1="325.10416666666663" x2="201.1631944444445" y2="262.0833333333333" stroke="black"/><line x1="188.55902777777783" y1="325.10416666666663" x2="175.9548611111112" y2="262.0833333333333" stroke="black"/><line x1="138.1423611111112" y1="325.10416666666663" x2="150.74652777777783" y2="262.0833333333333" stroke="black"/><line x1="138.1423611111112" y1="325.10416666666663" x2="125.53819444444451" y2="262.0833333333333" stroke="black"/><line x1="62.51736111111114" y1="388.125" x2="96.12847222222229" y2="325.10416666666663" stroke="black"/><line x1="62.51736111111114" y1="388.125" x2="62.51736111111114" y2="325.10416666666663" stroke="black"/><line x1="62.51736111111114" y1="388.125" x2="28.906250000000057" y2="325.10416666666663" stroke="black"/><circle cx="264.1840277777778" cy="451.1458333333333" r="10" fill="rgb(229 0 125)" stroke="black" stroke-width="2"/><circle cx="465.85069444444457" cy="388.125" r="10" fill="rgb(229 0 125)" stroke="black" stroke-width="2"/><circle cx="499.46180555555566" cy="325.10416666666663" r="10" fill="rgb(229 0 125)" stroke="black" stroke-width="2"/><circle cx="465.85069444444457" cy="325.10416666666663" r="10" fill="rgb(229 0 125)" stroke="black" stroke-width="2"/><circle cx="432.2395833333334" cy="325.10416666666663" r="10" fill="rgb(229 0 125)" stroke="black" stroke-width="2"/><circle cx="365.0173611111112" cy="388.125" r="10" fill="rgb(229 0 125)" stroke="black" stroke-width="2"/><circle cx="402.8298611111112" cy="325.10416666666663" r="10" fill="rgb(229 0 125)" stroke="black" stroke-width="2"/><circle cx="377.6215277777778" cy="325.10416666666663" r="10" fill="rgb(229 0 125)" stroke="black" stroke-width="2"/><circle cx="352.41319444444457" cy="325.10416666666663" r="10" fill="rgb(229 0 125)" stroke="black" stroke-width="2"/><circle cx="327.2048611111112" cy="325.10416666666663" r="10" fill="rgb(229 0 125)" stroke="black" stroke-width="2"/><circle cx="264.1840277777778" cy="388.125" r="10" fill="rgb(229 0 125)" stroke="black" stroke-width="2"/><circle cx="297.79513888888897" cy="325.10416666666663" r="10" fill="rgb(229 0 125)" stroke="black" stroke-width="2"/><circle cx="306.19791666666674" cy="262.0833333333333" r="10" fill="rgb(229 0 125)" stroke="black" stroke-width="2"/><circle cx="289.3923611111112" cy="262.0833333333333" r="10" fill="rgb(229 0 125)" stroke="black" stroke-width="2"/><circle cx="264.1840277777778" cy="325.10416666666663" r="10" fill="rgb(229 0 125)" stroke="black" stroke-width="2"/><circle cx="275.3877314814816" cy="262.0833333333333" r="10" fill="rgb(229 0 125)" stroke="black" stroke-width="2"/><circle cx="264.1840277777778" cy="262.0833333333333" r="10" fill="rgb(229 0 125)" stroke="black" stroke-width="2"/><circle cx="252.98032407407413" cy="262.0833333333333" r="10" fill="rgb(229 0 125)" stroke="black" stroke-width="2"/><circle cx="230.57291666666674" cy="325.10416666666663" r="10" fill="rgb(229 0 125)" stroke="black" stroke-width="2"/><circle cx="238.9756944444445" cy="262.0833333333333" r="10" fill="rgb(229 0 125)" stroke="black" stroke-width="2"/><circle cx="222.17013888888897" cy="262.0833333333333" r="10" fill="rgb(229 0 125)" stroke="black" stroke-width="2"/><circle cx="163.3506944444445" cy="388.125" r="10" fill="rgb(229 0 125)" stroke="black" stroke-width="2"/><circle cx="188.55902777777783" cy="325.10416666666663" r="10" fill="rgb(229 0 125)" stroke="black" stroke-width="2"/><circle cx="201.1631944444445" cy="262.0833333333333" r="10" fill="rgb(229 0 125)" stroke="black" stroke-width="2"/><circle cx="175.9548611111112" cy="262.0833333333333" r="10" fill="rgb(229 0 125)" stroke="black" stroke-width="2"/><circle cx="138.1423611111112" cy="325.10416666666663" r="10" fill="rgb(229 0 125)" stroke="black" stroke-width="2"/><circle cx="150.74652777777783" cy="262.0833333333333" r="10" fill="rgb(229 0 125)" stroke="black" stroke-width="2"/><circle cx="125.53819444444451" cy="262.0833333333333" r="10" fill="rgb(229 0 125)" stroke="black" stroke-width="2"/><circle cx="62.51736111111114" cy="388.125" r="10" fill="rgb(229 0 125)" stroke="black" stroke-width="2"/><circle cx="96.12847222222229" cy="325.10416666666663" r="10" fill="rgb(229 0 125)" stroke="black" stroke-width="2"/><circle cx="62.51736111111114" cy="325.10416666666663" r="10" fill="rgb(229 0 125)" stroke="black" stroke-width="2"/><circle cx="28.906250000000057" cy="325.10416666666663" r="10" fill="rgb(229 0 125)" stroke="black" stroke-width="2"/></svg>