<svg xmlns="http://www.w3.org/2000/svg" width="545.1736111111112" height="492.65625" style="background: white;"><line x1="272.5868055555556" y1="41.51041666666667" x2="104.53125000000001" y2="104.53125" stroke="rgb(0 159 227)" stroke-width="5"/><line x1="272.5868055555556" y1="41.51041666666667" x2="272.5868055555556" y2="104.53125" stroke="rgb(0 159 227)" stroke-width="5"/><line x1="272.5868055555556" y1="41.51041666666667" x2="440.64236111111114" y2="104.53125" stroke="rgb(0 159 227)" stroke-width="5"/><line x1="104.53125000000001" y1="104.53125" x2="62.517361111111114" y2="167.55208333333334" stroke="rgb(0 159 227)" stroke-width="5"/><line x1="104.53125000000001" y1="104.53125" x2="146.5451388888889" y2="167.55208333333334" stroke="rgb(0 159 227)" stroke-width="5"/><line x1="62.517361111111114" y1="167.55208333333334" x2="41.51041666666667" y2="230.57291666666669" stroke="rgb(0 159 227)" stroke-width="5"/><line x1="62.517361111111114" y1="167.55208333333334" x2="83.52430555555556" y2="230.57291666666669" stroke="rgb(0 159 227)" stroke-width="5"/><line x1="146.5451388888889" y1="167.55208333333334" x2="118.53587962962963" y2="230.57291666666669" stroke="rgb(0 159 227)" stroke-width="5"/><line x1="146.5451388888889" y1="167.55208333333334" x2="146.5451388888889" y2="230.57291666666669" stroke="rgb(0 159 227)" stroke-width="5"/><line x1="146.5451388888889" y1="167.55208333333334" x2="174.55439814814815" y2="230.57291666666669" stroke="rgb(0 159 227)" stroke-width="5"/><line x1="272.5868055555556" y1="104.53125" x2="216.56828703703704" y2="167.55208333333334" stroke="rgb(0 159 227)" stroke-width="5"/><line x1="272.5868055555556" y1="104.53125" x2="272.5868055555556" y2="167.55208333333334" stroke="rgb(0 159 227)" stroke-width="5"/><line x1="272.5868055555556" y1="104.53125" x2="328.6053240740741" y2="167.55208333333334" stroke="rgb(0 159 227)" stroke-width="5"/><line x1="216.56828703703704" y1="167.55208333333334" x2="194.16087962962962" y2="230.57291666666669" stroke="rgb(0 159 227)" stroke-width="5"/><line x1="216.56828703703704" y1="167.55208333333334" x2="205.36458333333337" y2="230.57291666666669" stroke="rgb(0 159 227)" stroke-width="5"/><line x1="216.56828703703704" y1="167.55208333333334" x2="216.56828703703704" y2="230.57291666666669" stroke="rgb(0 159 227)" stroke-width="5"/><line x1="216.56828703703704" y1="167.55208333333334" x2="227.77199074074076" y2="230.57291666666669" stroke="rgb(0 159 227)" stroke-width="5"/><line x1="216.56828703703704" y1="167.55208333333334" x2="238.97569444444443" y2="230.57291666666669" stroke="rgb(0 159 227)" stroke-width="5"/><line x1="272.5868055555556" y1="167.55208333333334" x2="258.5821759259259" y2="230.57291666666669" stroke="rgb(0 159 227)" stroke-width="5"/><line x1="272.5868055555556" y1="167.55208333333334" x2="286.5914351851852" y2="230.57291666666669" stroke="rgb(0 159 227)" stroke-width="5"/><line x1="328.6053240740741" y1="167.55208333333334" x2="309.93248456790127" y2="230.57291666666669" stroke="rgb(0 159 227)" stroke-width="5"/><line x1="328.6053240740741" y1="167.55208333333334" x2="328.6053240740741" y2="230.57291666666669" stroke="rgb(0 159 227)" stroke-width="5"/><line x1="328.6053240740741" y1="167.55208333333334" x2="347.278163580247" y2="230.57291666666669" stroke="rgb(0 159 227)" stroke-width="5"/><line x1="440.64236111111114" y1="104.53125" x2="377.6215277777778" y2="167.55208333333334" stroke="rgb(0 159 227)" stroke-width="5"/><line x1="440.64236111111114" y1="104.53125" x2="419.6354166666667" y2="167.55208333333334" stroke="rgb(0 159 227)" stroke-width="5"/><line x1="440.64236111111114" y1="104.53125" x2="461.6493055555556" y2="167.55208333333334" stroke="rgb(0 159 227)" stroke-width="5"/><line x1="440.64236111111114" y1="104.53125" x2="503.6631944444445" y2="167.55208333333334" stroke="rgb(0 159 227)" stroke-width="5"/><line x1="377.6215277777778" y1="167.55208333333334" x2="367.1180555555556" y2="230.57291666666669" stroke="rgb(0 159 227)" stroke-width="5"/><line x1="377.6215277777778" y1="167.55208333333334" x2="388.12500000000006" y2="230.57291666666669" stroke="rgb(0 159 227)" stroke-width="5"/><line x1="419.6354166666667" y1="167.55208333333334" x2="403.88020833333337" y2="230.57291666666669" stroke="rgb(0 159 227)" stroke-width="5"/><line x1="419.6354166666667" y1="167.55208333333334" x2="414.3836805555556" y2="230.57291666666669" stroke="rgb(0 159 227)" stroke-width="5"/><line x1="419.6354166666667" y1="167.55208333333334" x2="424.8871527777778" y2="230.57291666666669" stroke="rgb(0 159 227)" stroke-width="5"/><line x1="419.6354166666667" y1="167.55208333333334" x2="435.39062500000006" y2="230.57291666666669" stroke="rgb(0 159 227)" stroke-width="5"/><line x1="461.6493055555556" y1="167.55208333333334" x2="447.64467592592604" y2="230.57291666666669" stroke="rgb(0 159 227)" stroke-width="5"/><line x1="461.6493055555556" y1="167.55208333333334" x2="461.6493055555556" y2="230.57291666666669" stroke="rgb(0 159 227)" stroke-width="5"/><line x1="461.6493055555556" y1="167.55208333333334" x2="475.65393518518516" y2="230.57291666666669" stroke="rgb(0 159 227)" stroke-width="5"/><line x1="272.5868055555556" y1="41.51041666666667" x2="104.53125000000001" y2="104.53125" stroke="black"/><line x1="272.5868055555556" y1="41.51041666666667" x2="272.5868055555556" y2="104.53125" stroke="black"/><line x1="272.5868055555556" y1="41.51041666666667" x2="440.64236111111114" y2="104.53125" stroke="black"/><line x1="104.53125000000001" y1="104.53125" x2="62.517361111111114" y2="167.55208333333334" stroke="black"/><line x1="104.53125000000001" y1="104.53125" x2="146.5451388888889" y2="167.55208333333334" stroke="black"/><line x1="62.517361111111114" y1="167.55208333333334" x2="41.51041666666667" y2="230.57291666666669" stroke="black"/><line x1="62.517361111111114" y1="167.55208333333334" x2="83.52430555555556" y2="230.57291666666669" stroke="black"/><line x1="146.5451388888889" y1="167.55208333333334" x2="118.53587962962963" y2="230.57291666666669" stroke="black"/><line x1="146.5451388888889" y1="167.55208333333334" x2="146.5451388888889" y2="230.57291666666669" stroke="black"/><line x1="146.5451388888889" y1="167.55208333333334" x2="174.55439814814815" y2="230.57291666666669" stroke="black"/><line x1="272.5868055555556" y1="104.53125" x2="216.56828703703704" y2="167.55208333333334" stroke="black"/><line x1="272.5868055555556" y1="104.53125" x2="272.5868055555556" y2="167.55208333333334" stroke="black"/><line x1="272.5868055555556" y1="104.53125" x2="328.6053240740741" y2="167.55208333333334" stroke="black"/><line x1="216.56828703703704" y1="167.55208333333334" x2="194.16087962962962" y2="230.57291666666669" stroke="black"/><line x1="216.56828703703704" y1="167.55208333333334" x2="205.36458333333337" y2="230.57291666666669" stroke="black"/><line x1="216.56828703703704" y1="167.55208333333334" x2="216.56828703703704" y2="230.57291666666669" stroke="black"/><line x1="216.56828703703704" y1="167.55208333333334" x2="227.77199074074076" y2="230.57291666666669" stroke="black"/><line x1="216.56828703703704" y1="167.55208333333334" x2="238.97569444444443" y2="230.57291666666669" stroke="black"/><line x1="272.5868055555556" y1="167.55208333333334" x2="258.5821759259259" y2="230.57291666666669" stroke="black"/><line x1="272.5868055555556" y1="167.55208333333334" x2="286.5914351851852" y2="230.57291666666669" stroke="black"/><line x1="328.6053240740741" y1="167.55208333333334" x2="309.93248456790127" y2="230.57291666666669" stroke="black"/><line x1="328.6053240740741" y1="167.55208333333334" x2="328.6053240740741" y2="230.57291666666669" stroke="black"/><line x1="328.6053240740741" y1="167.55208333333334" x2="347.278163580247" y2="230.57291666666669" stroke="black"/><line x1="440.64236111111114" y1="104.53125" x2="377.6215277777778" y2="167.55208333333334" stroke="black"/><line x1="440.64236111111114" y1="104.53125" x2="419.6354166666667" y2="167.55208333333334" stroke="black"/><line x1="440.64236111111114" y1="104.53125" x2="461.6493055555556" y2="167.55208333333334" stroke="black"/><line x1="440.64236111111114" y1="104.53125" x2="503.6631944444445" y2="167.55208333333334" stroke="black"/><line x1="377.6215277777778" y1="167.55208333333334" x2="367.1180555555556" y2="230.57291666666669" stroke="black"/><line x1="377.6215277777778" y1="167.55208333333334" x2="388.12500000000006" y2="230.57291666666669" stroke="black"/><line x1="419.6354166666667" y1="167.55208333333334" x2="403.88020833333337" y2="230.57291666666669" stroke="black"/><line x1="419.6354166666667" y1="167.55208333333334" x2="414.3836805555556" y2="230.57291666666669" stroke="black"/><line x1="419.6354166666667" y1="167.55208333333334" x2="424.8871527777778" y2="230.57291666666669" stroke="black"/><line x1="419.6354166666667" y1="167.55208333333334" x2="435.39062500000006" y2="230.57291666666669" stroke="black"/><line x1="461.6493055555556" y1="167.55208333333334" x2="447.64467592592604" y2="230.57291666666669" stroke="black"/><line x1="461.6493055555556" y1="167.55208333333334" x2="461.6493055555556" y2="230.57291666666669" stroke="black"/><line x1="461.6493055555556" y1="167.55208333333334" x2="475.65393518518516" y2="230.57291666666669" stroke="black"/><circle cx="272.5868055555556" cy="41.51041666666667" r="10" fill="rgb(229 0 125)" stroke="black" stroke-width="2"/><circle cx="104.53125000000001" cy="104.53125" r="10" fill="rgb(229 0 125)" stroke="black" stroke-width="2"/><circle cx="62.517361111111114" cy="167.55208333333334" r="10" fill="rgb(229 0 125)" stroke="black" stroke-width="2"/><circle cx="41.51041666666667" cy="230.57291666666669" r="10" fill="rgb(229 0 125)" stroke="black" stroke-width="2"/><circle cx="83.52430555555556" cy="230.57291666666669" r="10" fill="rgb(229 0 125)" stroke="black" stroke-width="2"/><circle cx="146.5451388888889" cy="167.55208333333334" r="10" fill="rgb(229 0 125)" stroke="black" stroke-width="2"/><circle cx="118.53587962962963" cy="230.57291666666669" r="10" fill="rgb(229 0 125)" stroke="black" stroke-width="2"/><circle cx="146.5451388888889" cy="230.57291666666669" r="10" fill="rgb(229 0 125)" stroke="black" stroke-width="2"/><circle cx="174.55439814814815" cy="230.57291666666669" r="10" fill="rgb(229 0 125)" stroke="black" stroke-width="2"/><circle cx="272.5868055555556" cy="104.53125" r="10" fill="rgb(229 0 125)" stroke="black" stroke-width="2"/><circle cx="216.56828703703704" cy="167.55208333333334" r="10" fill="rgb(229 0 125)" stroke="black" stroke-width="2"/><circle cx="194.16087962962962" cy="230.57291666666669" r="10" fill="rgb(229 0 125)" stroke="black" stroke-width="2"/><circle cx="205.36458333333337" cy="230.57291666666669" r="10" fill="rgb(229 0 125)" stroke="black" stroke-width="2"/><circle cx="216.56828703703704" cy="230.57291666666669" r="10" fill="rgb(229 0 125)" stroke="black" stroke-width="2"/><circle cx="227.77199074074076" cy="230.57291666666669" r="10" fill="rgb(229 0 125)" stroke="black" stroke-width="2"/><circle cx="238.97569444444443" cy="230.57291666666669" r="10" fill="rgb(229 0 125)" stroke="black" stroke-width="2"/><circle cx="272.5868055555556" cy="167.55208333333334" r="10" fill="rgb(229 0 125)" stroke="black" stroke-width="2"/><circle cx="258.5821759259259" cy="230.57291666666669" r="10" fill="rgb(229 0 125)" stroke="black" stroke-width="2"/><circle cx="286.5914351851852" cy="230.57291666666669" r="10" fill="rgb(229 0 125)" stroke="black" stroke-width="2"/><circle cx="328.6053240740741" cy="167.55208333333334" r="10" fill="rgb(229 0 125)" stroke="black" stroke-width="2"/><circle cx="309.93248456790127" cy="230.57291666666669" r="10" fill="rgb(229 0 125)" stroke="black" stroke-width="2"/><circle cx="328.6053240740741" cy="230.57291666666669" r="10" fill="rgb(229 0 125)" stroke="black" stroke-width="2"/><circle cx="347.278163580247" cy="230.57291666666669" r="10" fill="rgb(229 0 125)" stroke="black" stroke-width="2"/><circle cx="440.64236111111114" cy="104.53125" r="10" fill="rgb(229 0 125)" stroke="black" stroke-width="2"/><circle cx="377.6215277777778" cy="167.55208333333334" r="10" fill="rgb(229 0 125)" stroke="black" stroke-width="2"/><circle cx="367.1180555555556" cy="230.57291666666669" r="10" fill="rgb(229 0 125)" stroke="black" stroke-width="2"/><circle cx="388.12500000000006" cy="230.57291666666669" r="10" fill="rgb(229 0 125)" stroke="black" stroke-width="2"/><circle cx="419.6354166666667" cy="167.55208333333334" r="10" fill="rgb(229 0 125)" stroke="black" stroke-width="2"/><circle cx="403.88020833333337" cy="230.57291666666669" r="10" fill="rgb(229 0 125)" stroke="black" stroke-width="2"/><circle cx="414.3836805555556" cy="230.57291666666669" r="10" fill="rgb(229 0 125)" stroke="black" stroke-width="2"/><circle cx="424.8871527777778" cy="230.57291666666669" r="10" fill="rgb(229 0 125)" stroke="black" stroke-width="2"/><circle cx="435.39062500000006" cy="230.57291666666669" r="10" fill="rgb(229 0 125)" stroke="black" stroke-width="2"/><circle cx="461.6493055555556" cy="167.55208333333334" r="10" fill="rgb(229 0 125)" stroke="black" stroke-width="2"/><circle cx="447.64467592592604" cy="230.57291666666669" r="10" fill="rgb(229 0 125)" stroke="black" stroke-width="2"/><circle cx="461.6493055555556" cy="230.57291666666669" r="10" fill="rgb(229 0 125)" stroke="black" stroke-width="2"/><circle cx="475.65393518518516" cy="230.57291666666669" r="10" fill="rgb(229 0 125)" stroke="black" stroke-width="2"/><circle cx="503.6631944444445" cy="167.55208333333334" r="10" fill="rgb(229 0 125)" stroke="black" stroke-width="2"/><line x1="272.5868055555556" y1="451.1458333333333" x2="440.6423611111112" y2="388.125" stroke="rgb(0 159 227)" stroke-width="5"/><line x1="272.5868055555556" y1="451.1458333333333" x2="272.5868055555556" y2="388.125" stroke="rgb(0 159 227)" stroke-width="5"/><line x1="272.5868055555556" y1="451.1458333333333" x2="104.53125000000006" y2="388.125" stroke="rgb(0 159 227)" stroke-width="5"/><line x1="440.6423611111112" y1="388.125" x2="482.6562500000001" y2="325.10416666666663" stroke="rgb(0 159 227)" stroke-width="5"/><line x1="440.6423611111112" y1="388.125" x2="398.6284722222223" y2="325.10416666666663" stroke="rgb(0 159 227)" stroke-width="5"/><line x1="482.6562500000001" y1="325.10416666666663" x2="503.6631944444445" y2="262.0833333333333" stroke="rgb(0 159 227)" stroke-width="5"/><line x1="482.6562500000001" y1="325.10416666666663" x2="461.64930555555566" y2="262.0833333333333" stroke="rgb(0 159 227)" stroke-width="5"/><line x1="398.6284722222223" y1="325.10416666666663" x2="426.6377314814816" y2="262.0833333333333" stroke="rgb(0 159 227)" stroke-width="5"/><line x1="398.6284722222223" y1="325.10416666666663" x2="398.6284722222223" y2="262.0833333333333" stroke="rgb(0 159 227)" stroke-width="5"/><line x1="398.6284722222223" y1="325.10416666666663" x2="370.61921296296305" y2="262.0833333333333" stroke="rgb(0 159 227)" stroke-width="5"/><line x1="272.5868055555556" y1="388.125" x2="328.60532407407413" y2="325.10416666666663" stroke="rgb(0 159 227)" stroke-width="5"/><line x1="272.5868055555556" y1="388.125" x2="272.5868055555556" y2="325.10416666666663" stroke="rgb(0 159 227)" stroke-width="5"/><line x1="272.5868055555556" y1="388.125" x2="216.56828703703712" y2="325.10416666666663" stroke="rgb(0 159 227)" stroke-width="5"/><line x1="328.60532407407413" y1="325.10416666666663" x2="351.0127314814816" y2="262.0833333333333" stroke="rgb(0 159 227)" stroke-width="5"/><line x1="328.60532407407413" y1="325.10416666666663" x2="339.8090277777778" y2="262.0833333333333" stroke="rgb(0 159 227)" stroke-width="5"/><line x1="328.60532407407413" y1="325.10416666666663" x2="328.60532407407413" y2="262.0833333333333" stroke="rgb(0 159 227)" stroke-width="5"/><line x1="328.60532407407413" y1="325.10416666666663" x2="317.40162037037044" y2="262.0833333333333" stroke="rgb(0 159 227)" stroke-width="5"/><line x1="328.60532407407413" y1="325.10416666666663" x2="306.19791666666674" y2="262.0833333333333" stroke="rgb(0 159 227)" stroke-width="5"/><line x1="272.5868055555556" y1="325.10416666666663" x2="286.5914351851853" y2="262.0833333333333" stroke="rgb(0 159 227)" stroke-width="5"/><line x1="272.5868055555556" y1="325.10416666666663" x2="258.582175925926" y2="262.0833333333333" stroke="rgb(0 159 227)" stroke-width="5"/><line x1="216.56828703703712" y1="325.10416666666663" x2="235.24112654320993" y2="262.0833333333333" stroke="rgb(0 159 227)" stroke-width="5"/><line x1="216.56828703703712" y1="325.10416666666663" x2="216.56828703703712" y2="262.0833333333333" stroke="rgb(0 159 227)" stroke-width="5"/><line x1="216.56828703703712" y1="325.10416666666663" x2="197.8954475308642" y2="262.0833333333333" stroke="rgb(0 159 227)" stroke-width="5"/><line x1="104.53125000000006" y1="388.125" x2="167.55208333333337" y2="325.10416666666663" stroke="rgb(0 159 227)" stroke-width="5"/><line x1="104.53125000000006" y1="388.125" x2="125.53819444444451" y2="325.10416666666663" stroke="rgb(0 159 227)" stroke-width="5"/><line x1="104.53125000000006" y1="388.125" x2="83.5243055555556" y2="325.10416666666663" stroke="rgb(0 159 227)" stroke-width="5"/><line x1="104.53125000000006" y1="388.125" x2="41.510416666666686" y2="325.10416666666663" stroke="rgb(0 159 227)" stroke-width="5"/><line x1="167.55208333333337" y1="325.10416666666663" x2="178.0555555555556" y2="262.0833333333333" stroke="rgb(0 159 227)" stroke-width="5"/><line x1="167.55208333333337" y1="325.10416666666663" x2="157.04861111111114" y2="262.0833333333333" stroke="rgb(0 159 227)" stroke-width="5"/><line x1="125.53819444444451" y1="325.10416666666663" x2="141.29340277777783" y2="262.0833333333333" stroke="rgb(0 159 227)" stroke-width="5"/><line x1="125.53819444444451" y1="325.10416666666663" x2="130.7899305555556" y2="262.0833333333333" stroke="rgb(0 159 227)" stroke-width="5"/><line x1="125.53819444444451" y1="325.10416666666663" x2="120.28645833333337" y2="262.0833333333333" stroke="rgb(0 159 227)" stroke-width="5"/><line x1="125.53819444444451" y1="325.10416666666663" x2="109.78298611111114" y2="262.0833333333333" stroke="rgb(0 159 227)" stroke-width="5"/><line x1="83.5243055555556" y1="325.10416666666663" x2="97.52893518518516" y2="262.0833333333333" stroke="rgb(0 159 227)" stroke-width="5"/><line x1="83.5243055555556" y1="325.10416666666663" x2="83.5243055555556" y2="262.0833333333333" stroke="rgb(0 159 227)" stroke-width="5"/><line x1="83.5243055555556" y1="325.10416666666663" x2="69.51967592592604" y2="262.0833333333333" stroke="rgb(0 159 227)" stroke-width="5"/><line x1="272.5868055555556" y1="451.1458333333333" x2="440.6423611111112" y2="388.125" stroke="black"/><line x1="272.5868055555556" y1="451.1458333333333" x2="272.5868055555556" y2="388.125" stroke="black"/><line x1="272.5868055555556" y1="451.1458333333333" x2="104.53125000000006" y2="388.125" stroke="black"/><line x1="440.6423611111112" y1="388.125" x2="482.6562500000001" y2="325.10416666666663" stroke="black"/><line x1="440.6423611111112" y1="388.125" x2="398.6284722222223" y2="325.10416666666663" stroke="black"/><line x1="482.6562500000001" y1="325.10416666666663" x2="503.6631944444445" y2="262.0833333333333" stroke="black"/><line x1="482.6562500000001" y1="325.10416666666663" x2="461.64930555555566" y2="262.0833333333333" stroke="black"/><line x1="398.6284722222223" y1="325.10416666666663" x2="426.6377314814816" y2="262.0833333333333" stroke="black"/><line x1="398.6284722222223" y1="325.10416666666663" x2="398.6284722222223" y2="262.0833333333333" stroke="black"/><line x1="398.6284722222223" y1="325.10416666666663" x2="370.61921296296305" y2="262.0833333333333" stroke="black"/><line x1="272.5868055555556" y1="388.125" x2="328.60532407407413" y2="325.10416666666663" stroke="black"/><line x1="272.5868055555556" y1="388.125" x2="272.5868055555556" y2="325.10416666666663" stroke="black"/><line x1="272.5868055555556" y1="388.125" x2="216.56828703703712" y2="325.10416666666663" stroke="black"/><line x1="328.60532407407413" y1="325.10416666666663" x2="351.0127314814816" y2="262.0833333333333" stroke="black"/><line x1="328.60532407407413" y1="325.10416666666663" x2="339.8090277777778" y2="262.0833333333333" stroke="black"/><line x1="328.60532407407413" y1="325.10416666666663" x2="328.60532407407413" y2="262.0833333333333" stroke="black"/><line x1="328.60532407407413" y1="325.10416666666663" x2="317.40162037037044" y2="262.0833333333333" stroke="black"/><line x1="328.60532407407413" y1="325.10416666666663" x2="306.19791666666674" y2="262.0833333333333" stroke="black"/><line x1="272.5868055555556" y1="325.10416666666663" x2="286.5914351851853" y2="262.0833333333333" stroke="black"/><line x1="272.5868055555556" y1="325.10416666666663" x2="258.582175925926" y2="262.0833333333333" stroke="black"/><line x1="216.56828703703712" y1="325.10416666666663" x2="235.24112654320993" y2="262.0833333333333" stroke="black"/><line x1="216.56828703703712" y1="325.10416666666663" x2="216.56828703703712" y2="262.0833333333333" stroke="black"/><line x1="216.56828703703712" y1="325.10416666666663" x2="197.8954475308642" y2="262.0833333333333" stroke="black"/><line x1="104.53125000000006" y1="388.125" x2="167.55208333333337" y2="325.10416666666663" stroke="black"/><line x1="104.53125000000006" y1="388.125" x2="125.53819444444451" y2="325.10416666666663" stroke="black"/><line x1="104.53125000000006" y1="388.125" x2="83.5243055555556" y2="325.10416666666663" stroke="black"/><line x1="104.53125000000006" y1="388.125" x2="41.510416666666686" y2="325.10416666666663" stroke="black"/><line x1="167.55208333333337" y1="325.10416666666663" x2="178.0555555555556" y2="262.0833333333333" stroke="black"/><line x1="167.55208333333337" y1="325.10416666666663" x2="157.04861111111114" y2="262.0833333333333" stroke="black"/><line x1="125.53819444444451" y1="325.10416666666663" x2="141.29340277777783" y2="262.0833333333333" stroke="black"/><line x1="125.53819444444451" y1="325.10416666666663" x2="130.7899305555556" y2="262.0833333333333" stroke="black"/><line x1="125.53819444444451" y1="325.10416666666663" x2="120.28645833333337" y2="262.0833333333333" stroke="black"/><line x1="125.53819444444451" y1="325.10416666666663" x2="109.78298611111114" y2="262.0833333333333" stroke="black"/><line x1="83.5243055555556" y1="325.10416666666663" x2="97.52893518518516" y2="262.0833333333333" stroke="black"/><line x1="83.5243055555556" y1="325.10416666666663" x2="83.5243055555556" y2="262.0833333333333" stroke="black"/><line x1="83.5243055555556" y1="325.10416666666663" x2="69.51967592592604" y2="262.0833333333333" stroke="black"/><circle cx="272.5868055555556" cy="451.1458333333333" r="10" fill="rgb(229 0 125)" stroke="black" stroke-width="2"/><circle cx="440.6423611111112" cy="388.125" r="10" fill="rgb(229 0 125)" stroke="black" stroke-width="2"/><circle cx="482.6562500000001" cy="325.10416666666663" r="10" fill="rgb(229 0 125)" stroke="black" stroke-width="2"/><circle cx="503.6631944444445" cy="262.0833333333333" r="10" fill="rgb(229 0 125)" stroke="black" stroke-width="2"/><circle cx="461.64930555555566" cy="262.0833333333333" r="10" fill="rgb(229 0 125)" stroke="black" stroke-width="2"/><circle cx="398.6284722222223" cy="325.10416666666663" r="10" fill="rgb(229 0 125)" stroke="black" stroke-width="2"/><circle cx="426.6377314814816" cy="262.0833333333333" r="10" fill="rgb(229 0 125)" stroke="black" stroke-width="2"/><circle cx="398.6284722222223" cy="262.0833333333333" r="10" fill="rgb(229 0 125)" stroke="black" stroke-width="2"/><circle cx="370.61921296296305" cy="262.0833333333333" r="10" fill="rgb(229 0 125)" stroke="black" stroke-width="2"/><circle cx="272.5868055555556" cy="388.125" r="10" fill="rgb(229 0 125)" stroke="black" stroke-width="2"/><circle cx="328.60532407407413" cy="325.10416666666663" r="10" fill="rgb(229 0 125)" stroke="black" stroke-width="2"/><circle cx="351.0127314814816" cy="262.0833333333333" r="10" fill="rgb(229 0 125)" stroke="black" stroke-width="2"/><circle cx="339.8090277777778" cy="262.0833333333333" r="10" fill="rgb(229 0 125)" stroke="black" stroke-width="2"/><circle cx="328.60532407407413" cy="262.0833333333333" r="10" fill="rgb(229 0 125)" stroke="black" stroke-width="2"/><circle cx="317.40162037037044" cy="262.0833333333333" r="10" fill="rgb(229 0 125)" stroke="black" stroke-width="2"/><circle cx="306.19791666666674" cy="262.0833333333333" r="10" fill="rgb(229 0 125)" stroke="black" stroke-width="2"/><circle cx="272.5868055555556" cy="325.10416666666663" r="10" fill="rgb(229 0 125)" stroke="black" stroke-width="2"/><circle cx="286.5914351851853" cy="262.0833333333333" r="10" fill="rgb(229 0 125)" stroke="black" stroke-width="2"/><circle cx="258.582175925926" cy="262.0833333333333" r="10" fill="rgb(229 0 125)" stroke="black" stroke-width="2"/><circle cx="216.56828703703712" cy="325.10416666666663" r="10" fill="rgb(229 0 125)" stroke="black" stroke-width="2"/><circle cx="235.24112654320993" cy="262.0833333333333" r="10" fill="rgb(229 0 125)" stroke="black" stroke-width="2"/><circle cx="216.56828703703712" cy="262.0833333333333" r="10" fill="rgb(229 0 125)" stroke="black" stroke-width="2"/><circle cx="197.8954475308642" cy="262.0833333333333" r="10" fill="rgb(229 0 125)" stroke="black" stroke-width="2"/><circle cx="104.53125000000006" cy="388.125" r="10" fill="rgb(229 0 125)" stroke="black" stroke-width="2"/><circle cx="167.55208333333337" cy="325.10416666666663" r="10" fill="rgb(229 0 125)" stroke="black" stroke-width="2"/><circle cx="178.0555555555556" cy="262.0833333333333" r="10" fill="rgb(229 0 125)" stroke="black" stroke-width="2"/><circle cx="157.04861111111114" cy="262.0833333333333" r="10" fill="rgb(229 0 125)" stroke="black" stroke-width="2"/><circle cx="125.53819444444451" cy="325.10416666666663" r="10" fill="rgb(229 0 125)" stroke="black" stroke-width="2"/><circle cx="141.29340277777783" cy="262.0833333333333" r="10" fill="rgb(229 0 125)" stroke="black" stroke-width="2"/><circle cx="130.7899305555556" cy="262.0833333333333" r="10" fill="rgb(229 0 125)" stroke="black" stroke-width="2"/><circle cx="120.28645833333337" cy="262.0833333333333" r="10" fill="rgb(229 0 125)" stroke="black" stroke-width="2"/><circle cx="109.78298611111114" cy="262.0833333333333" r="10" fill="rgb(229 0 125)" stroke="black" stroke-width="2"/><circle cx="83.5243055555556" cy="325.10416666666663" r="10" fill="rgb(229 0 125)" stroke="black" stroke-width="2"/><circle cx="97.52893518518516" cy="262.0833333333333" r="10" fill="rgb(229 0 125)" stroke="black" stroke-width="2"/><circle cx="83.5243055555556" cy="262.0833333333333" r="10" fill="rgb(229 0 125)" stroke="black" stroke-width="2"/><circle cx="69.51967592592604" cy="262.0833333333333" r="10" fill="rgb(229 0 125)" stroke="black" stroke-width="2"/><circle cx="41.510416666666686" cy="325.10416666666663" r="10" fill="rgb(229 0 125)" stroke="black" stroke-width="2"/></svg>